<svg width="262" height="262" viewBox="0 0 262 262" fill="none" xmlns="http://www.w3.org/2000/svg">
<g clip-path="url(#clip0_1643_139210)">
<path d="M204.607 204.61C245.284 163.933 245.284 97.983 204.607 57.3064C163.931 16.6297 97.9807 16.6297 57.304 57.3063C16.6273 97.983 16.6273 163.933 57.304 204.61C97.9807 245.286 163.931 245.286 204.607 204.61Z" fill="#B02E0C"/>
<path d="M198.446 195.326C234.857 158.915 234.857 99.8806 198.446 63.4697C162.035 27.0587 103.001 27.0587 66.59 63.4697C30.179 99.8807 30.179 158.915 66.59 195.326C103.001 231.736 162.035 231.737 198.446 195.326Z" fill="#DB461F"/>
<path d="M192.471 192.472C226.444 158.499 226.444 103.417 192.471 69.4437C158.497 35.4703 103.415 35.4703 69.4421 69.4437C35.4686 103.417 35.4686 158.499 69.4421 192.472C103.415 226.446 158.497 226.446 192.471 192.472Z" fill="white"/>
<path d="M138.955 130.958C138.955 132.1 138.712 133.183 138.281 134.166L202.739 99.3589L134.191 123.647C136.996 124.89 138.955 127.693 138.955 130.958Z" fill="#054474"/>
<path d="M130.958 122.961C131.982 122.961 132.956 123.16 133.856 123.51L115.354 81.0236L125.065 125.565C126.528 123.968 128.623 122.961 130.958 122.961Z" fill="#054474"/>
<path d="M138.956 130.958C138.956 127.693 136.996 124.89 134.192 123.647C134.082 123.598 133.969 123.554 133.856 123.51C132.957 123.16 131.982 122.961 130.958 122.961C128.623 122.961 126.528 123.968 125.066 125.565C123.763 126.987 122.961 128.877 122.961 130.958C122.961 135.375 126.542 138.955 130.958 138.955C134.233 138.955 137.045 136.985 138.281 134.166C138.713 133.183 138.956 132.1 138.956 130.958Z" fill="#F59D16"/>
<path d="M129.788 62.2982C128.716 62.2982 127.838 61.4204 127.838 60.3476V48.6442C127.838 47.5713 128.716 46.6936 129.788 46.6936C130.861 46.6936 131.739 47.5713 131.739 48.6442V60.3476C131.739 61.4204 130.861 62.2982 129.788 62.2982Z" fill="#054474"/>
<path d="M197.668 130.178C197.668 129.105 198.546 128.227 199.619 128.227H211.322C212.395 128.227 213.273 129.105 213.273 130.178C213.273 131.251 212.395 132.128 211.322 132.128H199.619C198.546 132.128 197.668 131.251 197.668 130.178Z" fill="#054474"/>
<path d="M177.786 82.1796C177.027 81.421 177.027 80.1797 177.786 79.4211L186.061 71.1455C186.82 70.3869 188.061 70.3869 188.82 71.1455C189.578 71.9041 189.578 73.1454 188.82 73.904L180.544 82.1796C179.786 82.9382 178.544 82.9382 177.786 82.1796Z" fill="#054474"/>
<path d="M141.491 206.835C138.193 206.835 134.94 206.645 131.738 206.288V211.712C131.738 212.784 130.86 213.662 129.788 213.662C128.715 213.662 127.837 212.784 127.837 211.712V205.765C109.621 202.894 93.2868 194.368 80.6808 182.043L73.5138 189.21C72.7552 189.969 71.5139 189.969 70.7553 189.21C69.9967 188.452 69.9967 187.21 70.7553 186.452L77.9526 179.254C66.0472 166.528 57.9226 150.224 55.3636 132.128H48.2539C47.1811 132.128 46.3034 131.251 46.3034 130.178C46.3034 129.105 47.1811 128.227 48.2539 128.227H54.8996C54.6355 125.467 54.4955 122.67 54.4955 119.84C54.4955 99.4161 61.5522 80.6515 73.3352 65.8083C55.3279 81.747 43.9629 105.019 43.9629 130.958C43.9629 179.004 82.9117 217.953 130.958 217.953C158.58 217.953 183.178 205.064 199.114 184.99C183.766 198.574 163.598 206.835 141.491 206.835Z" fill="#DADADA"/>
<path d="M177.786 178.176C178.544 177.418 179.786 177.418 180.544 178.176L188.82 186.452C189.578 187.21 189.578 188.452 188.82 189.21C188.061 189.969 186.82 189.969 186.061 189.21L177.786 180.935C177.027 180.176 177.027 178.935 177.786 178.176Z" fill="#054474"/>
<path d="M70.7545 71.1456C71.5131 70.387 72.7544 70.387 73.513 71.1456L81.7886 79.4212C82.5472 80.1798 82.5472 81.4211 81.7886 82.1797C81.03 82.9383 79.7887 82.9383 79.0301 82.1797L70.7545 73.9041C69.9959 73.1454 69.9959 71.9042 70.7545 71.1456Z" fill="#054474"/>
<path d="M137.368 130.775C137.703 132.976 134.928 134.439 134.231 132.298C132.977 128.445 131.425 128.426 129.572 127.19C127.152 125.577 128.306 124.054 130.557 124.054C132.809 124.054 136.561 125.488 137.368 130.775Z" fill="#FFD500"/>
<path d="M129.788 213.662C128.716 213.662 127.838 212.784 127.838 211.712V200.008C127.838 198.935 128.716 198.057 129.788 198.057C130.861 198.057 131.739 198.935 131.739 200.008V211.712C131.739 212.784 130.861 213.662 129.788 213.662Z" fill="#054474"/>
<path d="M46.3027 130.178C46.3027 129.105 47.1805 128.227 48.2533 128.227H59.9567C61.0296 128.227 61.9073 129.105 61.9073 130.178C61.9073 131.251 61.0296 132.128 59.9567 132.128H48.2533C47.1806 132.128 46.3027 131.251 46.3027 130.178Z" fill="#054474"/>
<path d="M70.7545 189.21C69.9959 188.452 69.9959 187.21 70.7545 186.452L79.0301 178.176C79.7887 177.417 81.03 177.417 81.7886 178.176C82.5472 178.935 82.5472 180.176 81.7886 180.935L73.513 189.21C72.7544 189.969 71.5131 189.969 70.7545 189.21Z" fill="#054474"/>
</g>
<defs>
<clipPath id="clip0_1643_139210">
<rect width="262" height="262" fill="white"/>
</clipPath>
</defs>
</svg>
