<svg width="44" height="26" viewBox="0 0 44 26" fill="none" xmlns="http://www.w3.org/2000/svg">
<path d="M41.0156 0H2.73438C1.22656 0 0 1.22656 0 2.73437V13.75C0 15.2656 1.22656 16.4922 2.73438 16.4922H6.29688L6.88281 13.5156C7.08594 12.4687 7.80469 11.7656 8.65625 11.7656H35.0938C35.9531 11.7656 36.6641 12.4687 36.8672 13.5156L37.4453 16.4922H41.0156C42.5234 16.4922 43.75 15.2656 43.75 13.75V2.73437C43.75 1.22656 42.5234 0 41.0156 0ZM7.79687 5.46875H4.875C4.44531 5.46875 4.09375 5.11719 4.09375 4.6875C4.09375 4.25 4.44531 3.90625 4.875 3.90625H7.79687C8.82422 3.91641 8.82656 5.45312 7.79687 5.46875Z" fill="#B02E0C"/>
<path d="M35.3359 13.8203C35.2734 13.4922 35.125 13.3438 35.0781 13.3281H8.65625C8.625 13.3438 8.47656 13.4922 8.41406 13.8203C8.27344 14.457 8.02656 15.8453 7.89062 16.4922H35.8594C35.7078 15.8414 35.4812 14.4609 35.3359 13.8203ZM12.8875 18.5469C12.457 18.5328 12.0828 18.8422 12.0531 19.2734C12.0516 19.2969 11.8656 21.8047 10.8312 23.8797C10.5648 24.3813 10.9672 25.0227 11.5297 25.0094C11.8164 25.0094 12.0922 24.8508 12.2297 24.5773C13.4016 22.2258 13.6047 19.4969 13.6125 19.382C13.6197 19.2796 13.6067 19.1768 13.5742 19.0794C13.5416 18.9821 13.4902 18.8921 13.4229 18.8146C13.3556 18.7371 13.2736 18.6736 13.1818 18.6278C13.0899 18.582 12.9899 18.554 12.8875 18.5469ZM17.4445 18.982C17.2387 19.005 17.0503 19.1087 16.9208 19.2704C16.7913 19.4321 16.7313 19.6386 16.7539 19.8445C16.8883 21.0547 16.0312 23.5188 15.6898 24.3664C15.3227 25.3195 16.7336 25.9008 17.1391 24.9508C17.0406 25.125 19.6703 18.8633 17.4437 18.982H17.4445ZM31.6961 19.2727C31.6055 18.2445 30.0852 18.3586 30.1375 19.382C30.1453 19.4969 30.3484 22.2258 31.5203 24.5773C31.9852 25.4906 33.3703 24.7938 32.9188 23.8797C31.8883 21.8141 31.6984 19.2977 31.6961 19.2727ZM26.9969 19.8445C27.093 18.8242 25.5789 18.6563 25.443 19.6727C25.2414 21.4906 26.4711 24.6023 26.6109 24.9508C27.0164 25.8992 28.4281 25.3219 28.0609 24.3664C27.7188 23.5195 26.8617 21.0578 26.9969 19.8445ZM21.9172 18.9766C21.71 18.9766 21.5113 19.0589 21.3648 19.2054C21.2182 19.3519 21.1359 19.5506 21.1359 19.7578V24.6586C21.1359 24.8658 21.2182 25.0645 21.3648 25.211C21.5113 25.3575 21.71 25.4398 21.9172 25.4398C22.1244 25.4398 22.3231 25.3575 22.4696 25.211C22.6161 25.0645 22.6984 24.8658 22.6984 24.6586V19.7586C22.6984 19.5514 22.6161 19.3527 22.4696 19.2062C22.3231 19.0597 22.1244 18.9773 21.9172 18.9773V18.9766Z" fill="#B02E0C"/>
</svg>
