<svg width="20" height="20" viewBox="0 0 20 20" fill="none" xmlns="http://www.w3.org/2000/svg">
<path fill-rule="evenodd" clip-rule="evenodd" d="M10.0013 18.3337C14.6037 18.3337 18.3346 14.6027 18.3346 10.0003C18.3346 5.39795 14.6037 1.66699 10.0013 1.66699C5.39893 1.66699 1.66797 5.39795 1.66797 10.0003C1.66797 14.6027 5.39893 18.3337 10.0013 18.3337ZM10.6263 7.50033C10.6263 7.15515 10.3465 6.87533 10.0013 6.87533C9.65612 6.87533 9.3763 7.15515 9.3763 7.50033L9.3763 9.37535H7.5013C7.15612 9.37535 6.8763 9.65517 6.8763 10.0003C6.8763 10.3455 7.15612 10.6253 7.5013 10.6253H9.3763V12.5003C9.3763 12.8455 9.65612 13.1253 10.0013 13.1253C10.3465 13.1253 10.6263 12.8455 10.6263 12.5003L10.6263 10.6253H12.5013C12.8465 10.6253 13.1263 10.3455 13.1263 10.0003C13.1263 9.65517 12.8465 9.37535 12.5013 9.37535H10.6263V7.50033Z" fill="#B02E0C"/>
</svg>
