<svg width="16" height="16" viewBox="0 0 16 16" fill="none" xmlns="http://www.w3.org/2000/svg">
<path d="M6.21249 5.46503L4.71249 10.145C4.70359 10.171 4.70098 10.1988 4.70489 10.226C4.7088 10.2532 4.71911 10.2791 4.73497 10.3015C4.75083 10.324 4.77179 10.3424 4.79613 10.3551C4.82047 10.3679 4.8475 10.3747 4.87499 10.375H5.29499C5.33247 10.3749 5.36892 10.3627 5.39888 10.3402C5.42884 10.3176 5.45072 10.286 5.46124 10.25L5.69624 9.50003H7.74999L7.72124 9.45378L7.97874 10.25C7.98925 10.286 8.01113 10.3176 8.04109 10.3402C8.07105 10.3627 8.1075 10.3749 8.14499 10.375H8.56499C8.5925 10.3752 8.61965 10.3688 8.64422 10.3564C8.66879 10.3441 8.69006 10.326 8.70629 10.3038C8.72253 10.2816 8.73325 10.2558 8.73759 10.2287C8.74192 10.2015 8.73975 10.1737 8.73124 10.1475L7.23124 5.46753C7.22054 5.43165 7.19862 5.40015 7.1687 5.37765C7.13877 5.35515 7.10242 5.34284 7.06499 5.34253H6.37499C6.33846 5.34327 6.3031 5.35551 6.27393 5.3775C6.24475 5.39949 6.22325 5.43012 6.21249 5.46503ZM5.94624 8.75003L6.71999 6.34128L7.49999 8.75003H5.94624Z" fill="url(#paint0_linear_2927_60733)"/>
<path d="M10.45 5.34375H10.05C9.95335 5.34375 9.875 5.4221 9.875 5.51875V10.1987C9.875 10.2954 9.95335 10.3737 10.05 10.3737H10.45C10.5466 10.3737 10.625 10.2954 10.625 10.1987V5.51875C10.625 5.4221 10.5466 5.34375 10.45 5.34375Z" fill="url(#paint1_linear_2927_60733)"/>
<path d="M8.4075 12.25H4.77C4.49948 12.25 4.24004 12.1425 4.04875 11.9513C3.85746 11.76 3.75 11.5005 3.75 11.23V4.77C3.75 4.49948 3.85746 4.24004 4.04875 4.04875C4.24004 3.85747 4.49948 3.75 4.77 3.75H11.23C11.5005 3.75 11.76 3.85747 11.9512 4.04875C12.1425 4.24004 12.25 4.49948 12.25 4.77V8C12.2523 8.06819 12.2814 8.13272 12.331 8.17955C12.3807 8.22637 12.4468 8.25169 12.515 8.25C12.7279 8.24936 12.938 8.29814 13.1287 8.3925C13.1684 8.41282 13.2125 8.42253 13.257 8.42067C13.3015 8.41882 13.3447 8.40547 13.3825 8.38192C13.4203 8.35837 13.4513 8.32544 13.4726 8.28632C13.4938 8.24721 13.5046 8.20326 13.5037 8.15875V4.77C13.5037 4.47159 13.4449 4.1761 13.3306 3.90044C13.2163 3.62479 13.0487 3.37438 12.8376 3.16354C12.6264 2.95271 12.3757 2.78558 12.0998 2.67172C11.824 2.55786 11.5284 2.49951 11.23 2.5H4.77C4.16796 2.5 3.59058 2.73916 3.16487 3.16487C2.73916 3.59058 2.5 4.16796 2.5 4.77V11.23C2.5 11.832 2.73916 12.4094 3.16487 12.8351C3.59058 13.2608 4.16796 13.5 4.77 13.5H8.9325C8.98365 13.5001 9.03367 13.485 9.07624 13.4566C9.11881 13.4283 9.15203 13.3879 9.17169 13.3407C9.19135 13.2935 9.19658 13.2415 9.18671 13.1913C9.17685 13.1411 9.15233 13.095 9.11625 13.0588C8.92176 12.8803 8.76419 12.6654 8.6525 12.4263C8.6346 12.3753 8.60151 12.3311 8.5577 12.2996C8.51389 12.2681 8.46146 12.2508 8.4075 12.25Z" fill="url(#paint2_linear_2927_60733)"/>
<path d="M13.9648 12.725L15.0973 12.2788C15.1207 12.2695 15.1407 12.2535 15.1548 12.2328C15.1689 12.2121 15.1764 12.1876 15.1764 12.1625C15.1764 12.1374 15.1689 12.1129 15.1548 12.0922C15.1407 12.0715 15.1207 12.0555 15.0973 12.0463L13.9648 11.6C13.7644 11.5207 13.5823 11.4012 13.4298 11.2488C13.2774 11.0963 13.1579 10.9142 13.0786 10.7138L12.6323 9.58876C12.6231 9.5655 12.607 9.54556 12.5863 9.53152C12.5656 9.51748 12.5411 9.50999 12.5161 9.51001C12.4911 9.50999 12.4666 9.51748 12.4459 9.53152C12.4251 9.54556 12.4091 9.5655 12.3998 9.58876L11.9536 10.7138C11.8745 10.9143 11.755 11.0965 11.6026 11.249C11.4501 11.4015 11.2679 11.5209 11.0673 11.6L9.94234 12.0463C9.91902 12.0555 9.89902 12.0715 9.88492 12.0922C9.87082 12.1129 9.86328 12.1374 9.86328 12.1625C9.86328 12.1876 9.87082 12.2121 9.88492 12.2328C9.89902 12.2535 9.91902 12.2695 9.94234 12.2788L11.0673 12.725C11.2679 12.8041 11.4501 12.9236 11.6026 13.076C11.755 13.2285 11.8745 13.4107 11.9536 13.6113L12.3998 14.7363C12.4089 14.7598 12.4248 14.78 12.4456 14.7942C12.4663 14.8085 12.4909 14.8162 12.5161 14.8163C12.5413 14.8162 12.5658 14.8085 12.5866 14.7942C12.6073 14.78 12.6233 14.7598 12.6323 14.7363L13.0786 13.6113C13.1579 13.4108 13.2774 13.2287 13.4298 13.0763C13.5823 12.9238 13.7644 12.8043 13.9648 12.725Z" fill="url(#paint3_linear_2927_60733)"/>
<defs>
<linearGradient id="paint0_linear_2927_60733" x1="8.84235" y1="10.0415" x2="4.48397" y2="6.64529" gradientUnits="userSpaceOnUse">
<stop stop-color="#B3261E"/>
<stop offset="1" stop-color="#FF3500"/>
</linearGradient>
<linearGradient id="paint1_linear_2927_60733" x1="10.6441" y1="10.0404" x2="9.36932" y2="9.85574" gradientUnits="userSpaceOnUse">
<stop stop-color="#B3261E"/>
<stop offset="1" stop-color="#FF3500"/>
</linearGradient>
<linearGradient id="paint2_linear_2927_60733" x1="13.7834" y1="12.771" x2="3.96304" y2="3.22736" gradientUnits="userSpaceOnUse">
<stop stop-color="#B3261E"/>
<stop offset="1" stop-color="#FF3500"/>
</linearGradient>
<linearGradient id="paint3_linear_2927_60733" x1="15.3114" y1="14.4646" x2="10.5741" y2="9.85639" gradientUnits="userSpaceOnUse">
<stop stop-color="#B3261E"/>
<stop offset="1" stop-color="#FF3500"/>
</linearGradient>
</defs>
</svg>
