<svg width="107" height="36" viewBox="0 0 107 36" fill="none" xmlns="http://www.w3.org/2000/svg">
<path d="M108 1V35H18C8.61116 35 1 27.3888 1 18C1 8.61116 8.61116 1 18 1H108Z" fill="url(#paint0_linear_2870_113592)"/>
<path d="M108 1V35H18C8.61116 35 1 27.3888 1 18C1 8.61116 8.61116 1 18 1H108Z" stroke="white" stroke-width="2"/>
<path d="M19.2945 14.4331L17.5577 19.852C17.5474 19.8821 17.5444 19.9142 17.5489 19.9457C17.5534 19.9772 17.5654 20.0072 17.5837 20.0332C17.6021 20.0592 17.6264 20.0805 17.6546 20.0953C17.6828 20.1101 17.714 20.1179 17.7459 20.1183H18.2322C18.2756 20.1182 18.3178 20.104 18.3525 20.0779C18.3872 20.0518 18.4125 20.0152 18.4247 19.9736L18.6968 19.1051H21.0748L21.0415 19.0516L21.3396 19.9736C21.3518 20.0152 21.3771 20.0518 21.4118 20.0779C21.4465 20.104 21.4887 20.1182 21.5321 20.1183H22.0184C22.0503 20.1185 22.0817 20.1111 22.1102 20.0968C22.1386 20.0824 22.1633 20.0615 22.1821 20.0358C22.2009 20.0101 22.2133 19.9803 22.2183 19.9488C22.2233 19.9174 22.2208 19.8852 22.2109 19.8549L20.4741 14.436C20.4617 14.3945 20.4364 14.358 20.4017 14.3319C20.3671 14.3059 20.325 14.2916 20.2816 14.2913H19.4827C19.4404 14.2921 19.3995 14.3063 19.3657 14.3318C19.3319 14.3572 19.307 14.3927 19.2945 14.4331ZM18.9862 18.2367L19.8822 15.4477L20.7853 18.2367H18.9862Z" fill="white"/>
<path d="M24.2009 14.2927H23.7378C23.6259 14.2927 23.5352 14.3834 23.5352 14.4953V19.9142C23.5352 20.0261 23.6259 20.1168 23.7378 20.1168H24.2009C24.3128 20.1168 24.4036 20.0261 24.4036 19.9142V14.4953C24.4036 14.3834 24.3128 14.2927 24.2009 14.2927Z" fill="white"/>
<path d="M21.8363 22.2893H17.6245C17.3113 22.2893 17.0108 22.1649 16.7894 21.9434C16.5679 21.7219 16.4434 21.4215 16.4434 21.1083V13.6284C16.4434 13.3151 16.5679 13.0147 16.7894 12.7932C17.0108 12.5718 17.3113 12.4473 17.6245 12.4473H25.1044C25.4176 12.4473 25.718 12.5718 25.9395 12.7932C26.161 13.0147 26.2854 13.3151 26.2854 13.6284V17.3683C26.2881 17.4473 26.3218 17.522 26.3793 17.5762C26.4367 17.6304 26.5133 17.6597 26.5923 17.6578C26.8387 17.657 27.082 17.7135 27.3029 17.8228C27.3488 17.8463 27.3999 17.8575 27.4514 17.8554C27.5029 17.8532 27.553 17.8378 27.5967 17.8105C27.6405 17.7833 27.6764 17.7451 27.701 17.6998C27.7256 17.6545 27.738 17.6037 27.7371 17.5521V13.6284C27.7371 13.2828 27.669 12.9407 27.5366 12.6215C27.4043 12.3023 27.2103 12.0124 26.9657 11.7683C26.7212 11.5241 26.431 11.3306 26.1116 11.1988C25.7922 11.067 25.4499 10.9994 25.1044 11H17.6245C16.9274 11 16.2588 11.2769 15.7659 11.7698C15.273 12.2627 14.9961 12.9313 14.9961 13.6284V21.1083C14.9961 21.8054 15.273 22.4739 15.7659 22.9668C16.2588 23.4597 16.9274 23.7367 17.6245 23.7367H22.4442C22.5034 23.7367 22.5613 23.7192 22.6106 23.6864C22.6599 23.6536 22.6983 23.6069 22.7211 23.5522C22.7439 23.4976 22.7499 23.4374 22.7385 23.3793C22.7271 23.3211 22.6987 23.2677 22.6569 23.2257C22.4317 23.0191 22.2493 22.7703 22.1199 22.4934C22.0992 22.4344 22.0609 22.3832 22.0102 22.3468C21.9595 22.3103 21.8988 22.2902 21.8363 22.2893Z" fill="white"/>
<path d="M28.2725 22.8393L29.5838 22.3226C29.6108 22.3119 29.634 22.2934 29.6503 22.2694C29.6667 22.2454 29.6754 22.217 29.6754 22.188C29.6754 22.1589 29.6667 22.1306 29.6503 22.1066C29.634 22.0826 29.6108 22.064 29.5838 22.0534L28.2725 21.5367C28.0404 21.4449 27.8296 21.3065 27.6531 21.13C27.4766 20.9535 27.3382 20.7426 27.2464 20.5105L26.7297 19.2079C26.7189 19.181 26.7004 19.1579 26.6764 19.1416C26.6524 19.1253 26.6241 19.1167 26.5951 19.1167C26.5661 19.1167 26.5378 19.1253 26.5138 19.1416C26.4898 19.1579 26.4712 19.181 26.4605 19.2079L25.9438 20.5105C25.8522 20.7428 25.7139 20.9537 25.5373 21.1302C25.3608 21.3068 25.1498 21.4451 24.9176 21.5367L23.615 22.0534C23.588 22.064 23.5648 22.0826 23.5485 22.1066C23.5322 22.1306 23.5234 22.1589 23.5234 22.188C23.5234 22.217 23.5322 22.2454 23.5485 22.2694C23.5648 22.2934 23.588 22.3119 23.615 22.3226L24.9176 22.8393C25.1498 22.9308 25.3608 23.0692 25.5373 23.2457C25.7139 23.4222 25.8522 23.6332 25.9438 23.8655L26.4605 25.1681C26.471 25.1953 26.4894 25.2187 26.5134 25.2352C26.5375 25.2517 26.5659 25.2606 26.5951 25.2607C26.6242 25.2606 26.6527 25.2517 26.6767 25.2352C26.7007 25.2187 26.7192 25.1953 26.7297 25.1681L27.2464 23.8655C27.3382 23.6333 27.4766 23.4225 27.6531 23.246C27.8296 23.0695 28.0404 22.9311 28.2725 22.8393Z" fill="white"/>
<path d="M39.4707 13.231L43.0457 22.5H41.3037L40.4197 20.043H36.7537L35.8437 22.5H34.1667L37.7417 13.231H39.4707ZM39.9907 18.821L38.6127 14.921L37.1697 18.821H39.9907ZM45.0476 13.244V22.5H43.4096V13.244H45.0476ZM49.6189 13.244H53.6359C54.6239 13.244 55.4169 13.491 55.9889 13.959C56.5609 14.427 56.8599 15.129 56.8599 16.065C56.8599 16.949 56.5869 17.651 56.0539 18.171C55.5079 18.691 54.7799 18.938 53.8569 18.938H51.2439V22.5H49.6189V13.244ZM51.2439 14.596V17.625H53.5059C54.6759 17.625 55.2739 17.118 55.2739 16.104C55.2739 15.103 54.6369 14.596 53.3629 14.596H51.2439ZM60.6558 15.597C61.6698 15.597 62.4888 15.922 63.0998 16.559C63.6978 17.209 64.0098 18.067 64.0098 19.146C64.0098 20.238 63.6978 21.109 63.0998 21.746C62.5018 22.396 61.6828 22.708 60.6558 22.708C59.6028 22.708 58.7708 22.396 58.1598 21.746C57.5358 21.109 57.2368 20.238 57.2368 19.146C57.2368 18.067 57.5358 17.209 58.1598 16.559C58.7838 15.922 59.6158 15.597 60.6558 15.597ZM60.6298 16.767C60.0318 16.767 59.5768 16.988 59.2388 17.404C58.9008 17.833 58.7318 18.418 58.7318 19.146C58.7318 19.9 58.9008 20.498 59.2388 20.914C59.5768 21.343 60.0448 21.551 60.6428 21.551C61.2148 21.551 61.6698 21.343 62.0078 20.914C62.3458 20.485 62.5148 19.887 62.5148 19.133C62.5148 18.405 62.3458 17.82 62.0078 17.404C61.6698 16.988 61.2148 16.767 60.6298 16.767ZM64.1108 15.792H65.6838L67.0098 20.823L68.2708 15.792H69.7658L71.0008 20.823L72.3918 15.792H73.8998L71.7808 22.5H70.2598L68.9988 17.521L67.7508 22.5H66.1908L64.1108 15.792ZM80.339 20.407C80.17 21.135 79.806 21.707 79.26 22.11C78.714 22.526 78.051 22.721 77.297 22.721C76.283 22.721 75.477 22.396 74.879 21.746C74.281 21.096 73.995 20.251 73.995 19.224C73.995 18.184 74.294 17.313 74.905 16.624C75.516 15.948 76.296 15.597 77.245 15.597C78.22 15.597 79 15.935 79.572 16.611C80.144 17.287 80.43 18.197 80.43 19.354V19.51H75.477C75.49 20.186 75.659 20.719 75.984 21.083C76.296 21.447 76.751 21.629 77.323 21.629C77.726 21.629 78.051 21.538 78.311 21.343C78.571 21.148 78.766 20.836 78.922 20.407H80.339ZM78.948 18.522C78.896 17.963 78.727 17.521 78.415 17.196C78.103 16.871 77.713 16.702 77.232 16.702C76.738 16.702 76.348 16.858 76.049 17.17C75.75 17.482 75.568 17.937 75.503 18.522H78.948ZM84.8326 15.662V17.079C84.5726 17.053 84.3906 17.04 84.3126 17.04C83.0126 17.04 82.3756 17.885 82.3756 19.549V22.5H80.9066V15.792H82.2976V17.131C82.7656 16.143 83.5196 15.636 84.5466 15.636L84.8326 15.662ZM90.8644 20.407C90.6954 21.135 90.3314 21.707 89.7854 22.11C89.2394 22.526 88.5764 22.721 87.8224 22.721C86.8084 22.721 86.0024 22.396 85.4044 21.746C84.8064 21.096 84.5204 20.251 84.5204 19.224C84.5204 18.184 84.8194 17.313 85.4304 16.624C86.0414 15.948 86.8214 15.597 87.7704 15.597C88.7454 15.597 89.5254 15.935 90.0974 16.611C90.6694 17.287 90.9554 18.197 90.9554 19.354V19.51H86.0024C86.0154 20.186 86.1844 20.719 86.5094 21.083C86.8214 21.447 87.2764 21.629 87.8484 21.629C88.2514 21.629 88.5764 21.538 88.8364 21.343C89.0964 21.148 89.2914 20.836 89.4474 20.407H90.8644ZM89.4734 18.522C89.4214 17.963 89.2524 17.521 88.9404 17.196C88.6284 16.871 88.2384 16.702 87.7574 16.702C87.2634 16.702 86.8734 16.858 86.5744 17.17C86.2754 17.482 86.0934 17.937 86.0284 18.522H89.4734ZM97.9191 13.244V22.5H96.5281V21.577C96.0991 22.318 95.3841 22.682 94.3831 22.682C93.4341 22.682 92.6801 22.37 92.1211 21.72C91.5621 21.083 91.2891 20.225 91.2891 19.133C91.2891 18.067 91.5621 17.209 92.1081 16.572C92.6541 15.935 93.3951 15.61 94.3311 15.61C95.2671 15.61 95.9821 15.961 96.4631 16.663V13.244H97.9191ZM94.6041 16.806C94.0321 16.806 93.5901 17.014 93.2651 17.43C92.9401 17.846 92.7841 18.405 92.7841 19.107C92.7841 19.848 92.9401 20.433 93.2781 20.849C93.6161 21.278 94.0711 21.486 94.6561 21.486C95.2281 21.486 95.6831 21.278 96.0081 20.862C96.3331 20.446 96.5021 19.874 96.5021 19.133C96.5021 18.405 96.3331 17.833 95.9951 17.417C95.6571 17.014 95.2021 16.806 94.6041 16.806Z" fill="white"/>
<defs>
<linearGradient id="paint0_linear_2870_113592" x1="-12.0347" y1="-5.42857" x2="105.655" y2="27.6967" gradientUnits="userSpaceOnUse">
<stop stop-color="#FB4211"/>
<stop offset="1" stop-color="#B32500"/>
</linearGradient>
</defs>
</svg>
