<svg width="54" height="54" viewBox="0 0 54 54" fill="none" xmlns="http://www.w3.org/2000/svg">
<rect width="54" height="54" rx="10.8" fill="#B02E0C" fill-opacity="0.1"/>
<rect x="0.405" y="0.405" width="53.19" height="53.19" rx="10.395" stroke="#B02E0C" stroke-opacity="0.1" stroke-width="0.81"/>
<path fill-rule="evenodd" clip-rule="evenodd" d="M27 25.3123C27.2685 25.3123 27.5261 25.2056 27.7159 25.0157L31.7659 20.9657C32.1614 20.5703 32.1614 19.9293 31.7659 19.5339C31.3705 19.1385 30.7295 19.1385 30.3341 19.5339L28.0125 21.8554V13.4998C28.0125 12.9406 27.5592 12.4873 27 12.4873C26.4408 12.4873 25.9875 12.9406 25.9875 13.4998V21.8554L23.6659 19.5339C23.2705 19.1385 22.6295 19.1385 22.2341 19.5339C21.8386 19.9293 21.8386 20.5703 22.2341 20.9658L26.2841 25.0157C26.4739 25.2056 26.7315 25.3123 27 25.3123Z" fill="#B02E0C"/>
<path d="M15.477 38.5228C17.4541 40.4998 20.636 40.4998 27 40.4998C33.364 40.4998 36.5459 40.4998 38.523 38.5228C40.2385 36.8072 40.4654 34.1843 40.4954 29.3623H36.2336C34.919 29.3623 34.5753 29.384 34.2867 29.5167C33.9981 29.6494 33.758 29.8963 32.9024 30.8945L31.9672 31.9857C31.2893 32.7783 30.7525 33.4059 30.0095 33.7477C29.2665 34.0894 28.4405 34.0885 27.3976 34.0874H26.6024C25.5595 34.0885 24.7335 34.0894 23.9905 33.7477C23.2475 33.4059 22.7107 32.7783 22.0328 31.9857L21.0976 30.8945C20.242 29.8963 20.0019 29.6494 19.7133 29.5167C19.4247 29.384 19.081 29.3623 17.7664 29.3623H13.5046C13.5346 34.1843 13.7615 36.8072 15.477 38.5228Z" fill="#B02E0C"/>
<path d="M40.5 26.9998C40.5 20.6358 40.5 17.4539 38.523 15.4768C36.8892 13.8431 34.4326 13.5594 30.0375 13.5102V17.3853C31.106 17.0084 32.3432 17.2473 33.1978 18.102C34.3841 19.2882 34.3841 21.2114 33.1978 22.3976L29.1478 26.4476C28.5782 27.0173 27.8056 27.3373 27 27.3373C26.1944 27.3373 25.4218 27.0173 24.8522 26.4476L20.8022 22.3976C19.6159 21.2114 19.6159 19.2882 20.8022 18.102C21.6568 17.2473 22.894 17.0084 23.9625 17.3853V13.5102C19.5674 13.5594 17.1108 13.8431 15.477 15.4768C13.5 17.4539 13.5 20.6358 13.5 26.9998L13.5 27.3373L17.9476 27.3372C18.9905 27.3361 19.8165 27.3352 20.5595 27.6769C21.3025 28.0187 21.8393 28.6464 22.5172 29.4389L23.4524 30.5302C24.308 31.5283 24.5481 31.7752 24.8367 31.9079C25.1253 32.0406 25.469 32.0623 26.7836 32.0623H27.2164C28.531 32.0623 28.8747 32.0406 29.1633 31.9079C29.4519 31.7752 29.692 31.5283 30.5476 30.5302L31.4828 29.4389C32.1607 28.6464 32.6975 28.0187 33.4405 27.6769C34.1835 27.3352 35.0095 27.3361 36.0524 27.3372L40.5 27.3373L40.5 26.9998Z" fill="#B02E0C"/>
</svg>
