<svg width="176" height="136" viewBox="0 0 176 136" fill="none" xmlns="http://www.w3.org/2000/svg">
<path d="M0 16C0 7.16344 7.16344 0 16 0H160C168.837 0 176 7.16344 176 16V120C176 128.837 168.837 136 160 136H16C7.16344 136 0 128.837 0 120V16Z" fill="white"/>
<path d="M16 0.5H160C168.56 0.5 175.5 7.43959 175.5 16V120C175.5 128.56 168.56 135.5 160 135.5H16C7.43959 135.5 0.5 128.56 0.5 120V16C0.5 7.43959 7.43959 0.5 16 0.5Z" stroke="#B02E0C" stroke-opacity="0.16"/>
<path d="M136.769 60.3164L168.42 60.084V60.082H169.001V70.0664L168.798 70.1299L48.1309 108.224V108.3H47.8906L47.6504 108.375L47.627 108.3H6.07422V66.5781L6 66.3447L6.07422 66.3203V66.2432H6.32031L126.674 28.0996L126.717 28.0859H136.769V60.3164ZM6.65625 107.719H47.5498V99.0576H15.6514L15.418 99.1309L15.3945 99.0576H15.3174V98.8135L15.2422 98.5771L15.3174 98.5527V66.8252H6.65625V107.719ZM48.1309 98.9785V107.613L168.42 69.6396V60.7705L48.1309 98.9785ZM136.522 60.8994L17.4961 98.4756H47.7979L166.789 60.6777L136.522 60.8994ZM15.8994 66.7471V98.3691L136.186 60.3955V60.3213L136.188 60.3203V28.7734L15.8994 66.7471ZM8.24609 66.2432H15.5635L134.591 28.668H126.807L8.24609 66.2432Z" fill="black"/>
</svg>
