<svg width="46" height="46" viewBox="0 0 46 46" fill="none" xmlns="http://www.w3.org/2000/svg">
<rect width="46" height="46" rx="11.1034" fill="#F3F3F3"/>
<rect x="0.396552" y="0.396552" width="45.2069" height="45.2069" rx="10.7069" stroke="#B02E0C" stroke-opacity="0.04" stroke-width="0.793103"/>
<path d="M35.0898 21.0571L42.8555 21.0005H42.998V23.4507L42.9482 23.4663L13.3389 32.813V32.8335H13.2744L13.2188 32.8511L13.2129 32.8335H3.01855V22.5962L3 22.5376L3.01855 22.5317V22.5132H3.07715L32.6133 13.1519L32.624 13.1489H35.0898V21.0571ZM3.16113 32.6909H13.1963V30.5659H5.36621L5.31055 30.5835L5.30469 30.5659H5.28711V30.5083L5.26758 30.4468L5.28711 30.4399V22.6558H3.16113V32.6909ZM13.3389 30.5454V32.6636L42.8555 23.3462V21.1694L13.3389 30.5454ZM35.0273 21.2007L5.82129 30.4224H13.2529L42.4541 21.146L35.0273 21.2007ZM5.42969 22.6353V30.395L34.9453 21.0776V21.0591L34.9473 21.0581V13.3179L5.42969 22.6353ZM3.54883 22.5132H5.34668L34.5557 13.2915H32.6475L3.54883 22.5132Z" fill="black"/>
</svg>
