<svg width="35" height="35" viewBox="0 0 35 35" fill="none" xmlns="http://www.w3.org/2000/svg">
<path d="M23.3366 19.9472C23.2425 19.8471 23.1226 19.7977 22.9866 19.8143L20.4799 20.1208V19.8973C20.4799 19.1113 20.1331 18.4014 19.6049 17.8974L23.7733 16.3953C23.9098 16.3462 24.0083 16.2319 24.0426 16.0909L25.018 12.0683C25.0396 11.9792 25.0317 11.8901 25.0006 11.8107L23.9302 12.8812L23.2545 15.6614L19.9683 16.8432L18.6046 18.205C19.2023 18.5394 19.6159 19.1807 19.6159 19.8973V20.1889H16.6187L15.7547 21.0529H19.6159V23.4289H14.8639V21.9439L13.9999 22.8079V28.253C13.9999 29.6742 15.1718 30.8449 16.593 30.8449H17.869C19.2903 30.8449 20.4799 29.6742 20.4799 28.2529V22.6919L22.7289 23.9606L24.8236 27.4147C24.9049 27.5482 25.043 27.6219 25.1886 27.6219C25.2652 27.6219 25.3405 27.6016 25.4107 27.5589C25.6144 27.435 25.6779 27.1693 25.5539 26.9657L23.3914 23.4148C23.3527 23.3513 23.3147 23.2989 23.2499 23.2626L20.4799 21.7022V20.9907L22.8738 20.6979L25.4843 23.4832C25.5693 23.5735 25.6798 23.6192 25.7947 23.6192C25.9008 23.6192 26.005 23.5804 26.0883 23.502C26.262 23.3387 26.2683 23.0654 26.1049 22.8917L23.3366 19.9472ZM19.6159 28.2529C19.6159 29.1982 18.8142 29.9809 17.869 29.9809H16.593C15.6478 29.9809 14.8639 29.1982 14.8639 28.2529V27.6049H19.6159V28.2529ZM19.6159 26.7409H14.8639V24.2929H19.6159V26.7409ZM8.74339 23.6191C8.80237 23.6192 8.86074 23.6071 8.91489 23.5837C8.96903 23.5604 9.0178 23.5261 9.05817 23.4831L11.6712 20.6978L13.3621 20.9037L14.9633 19.3025C15.1568 18.7124 15.6275 18.2358 16.2169 18.0469L17.1691 17.0929H16.6401C16.3602 17.0929 16.1598 16.9041 16.1598 16.6242V15.9167C16.1598 15.8707 16.1392 15.8689 16.1507 15.7969H18.3113C18.3228 15.8689 18.3198 15.8707 18.3198 15.9167V15.9422L21.3102 12.9537L20.5946 8.53985C20.4937 7.93584 20.1752 7.41881 19.7265 7.06255L20.0696 6.33665C20.2379 5.98047 20.1997 5.5494 19.9721 5.23836L18.872 3.73507C18.8311 3.67932 18.7716 3.64011 18.7043 3.62463C18.6369 3.60914 18.5662 3.6184 18.5051 3.65073C18.444 3.68305 18.3966 3.73627 18.3715 3.80067C18.3464 3.86507 18.3454 3.93634 18.3685 4.00147L18.8045 5.22864C18.9003 5.49828 18.8302 5.81573 18.6377 5.98349L18.0176 6.50527C18.0097 6.51211 18.0036 6.5088 17.9967 6.5088H16.127C16.1201 6.5088 16.114 6.51211 16.106 6.50527L15.4859 5.97406C15.2934 5.80623 15.2232 5.49353 15.319 5.22389L15.755 3.99903C15.7782 3.93407 15.7771 3.86294 15.752 3.79872C15.7269 3.73449 15.6795 3.68147 15.6185 3.64939C15.5573 3.61718 15.4866 3.60804 15.4192 3.62365C15.3519 3.63926 15.2924 3.67858 15.2516 3.73443L14.1514 5.238C13.9238 5.54897 13.8855 5.98025 14.0537 6.33636L14.4265 7.12577C14.018 7.479 13.729 7.97148 13.6337 8.54158L12.9169 12.955C12.8444 13.4017 12.8769 13.855 13.011 14.2536C13.3299 15.2014 14.1324 15.7967 15.1052 15.7967H15.2754C15.2711 15.8687 15.2957 15.8717 15.2957 15.9165V16.624C15.2957 16.803 15.3171 16.9739 15.3798 17.1308L11.2866 15.6612L10.3607 11.8642C10.3044 11.6325 10.0694 11.4904 9.83757 11.5466C9.60587 11.6029 9.46288 11.8364 9.51911 12.0681L10.4961 16.0908C10.5129 16.1602 10.5467 16.2243 10.5943 16.2774C10.642 16.3305 10.7022 16.371 10.7693 16.3951L14.8858 17.8783C14.3461 18.3835 13.9999 19.1015 13.9999 19.8973V20.112L11.5566 19.8143C11.4201 19.7977 11.2879 19.8471 11.1938 19.9472L8.42731 22.8915C8.26394 23.0653 8.27337 23.3385 8.44703 23.5018C8.52726 23.5772 8.63326 23.6192 8.74339 23.6191ZM19.0161 6.41743C19.2817 6.18595 19.4266 5.82739 19.4224 5.46156L19.5079 5.57835C19.6095 5.71709 19.6266 5.92783 19.5496 6.09077L19.2332 6.76051C19.0922 6.69637 18.9453 6.64616 18.7945 6.61061L19.0161 6.41743ZM14.9104 6.80213L14.5744 6.09077C14.4974 5.92783 14.5145 5.71716 14.6161 5.57842L14.7015 5.46171C14.6973 5.82754 14.8424 6.18603 15.1079 6.41751L15.3532 6.63135C15.2003 6.67333 15.0519 6.73054 14.9104 6.80213Z" fill="#B02E0C"/>
<path d="M29.4177 5.04727C26.1629 1.79251 21.8354 0 17.2325 0C12.6295 0 8.30203 1.79251 5.04727 5.04727C1.79244 8.30203 0 12.6295 0 17.2325C0 21.8354 1.79244 26.1629 5.04727 29.4177C8.30203 32.6725 12.6295 34.465 17.2325 34.465C21.8354 34.465 26.1629 32.6724 29.4177 29.4177C32.6725 26.1629 34.465 21.8354 34.465 17.2325C34.465 12.6295 32.6725 8.30203 29.4177 5.04727ZM6.32009 6.32009C9.23486 3.40524 13.1103 1.8 17.2325 1.8C20.8026 1.8 24.1871 3.00492 26.9232 5.22094L5.22094 26.9232C3.00492 24.187 1.8 20.8026 1.8 17.2325C1.8 13.1103 3.40524 9.23486 6.32009 6.32009ZM28.1449 28.1449C25.2301 31.0597 21.3546 32.665 17.2325 32.665C13.1634 32.665 9.33545 31.0998 6.43385 28.2559L28.2559 6.43385C31.0998 9.33545 32.6649 13.1634 32.6649 17.2325C32.665 21.3546 31.0597 25.2301 28.1449 28.1449Z" fill="#B02E0C"/>
</svg>
