<svg width="18" height="21" viewBox="0 0 18 21" fill="none" xmlns="http://www.w3.org/2000/svg">
<path d="M8.75 0C5.57436 0 3 2.57436 3 5.75V8.75C3 11.9256 5.57436 14.5 8.75 14.5C11.6714 14.5 14.084 12.3213 14.4515 9.5L9.75 9.5C9.33579 9.5 9 9.16421 9 8.75C9 8.33579 9.33579 8 9.75 8L14.5 8V6.5H9.75C9.33579 6.5 9 6.16421 9 5.75C9 5.33579 9.33579 5 9.75 5H14.4515C14.084 2.17873 11.6714 0 8.75 0Z" fill="#B02E0C"/>
<path fill-rule="evenodd" clip-rule="evenodd" d="M0.75 7C1.16421 7 1.5 7.33579 1.5 7.75V8.75C1.5 12.7541 4.74594 16 8.75 16C12.7541 16 16 12.7541 16 8.75V7.75C16 7.33579 16.3358 7 16.75 7C17.1642 7 17.5 7.33579 17.5 7.75V8.75C17.5 13.3298 13.9814 17.0879 9.5 17.4683V19.75C9.5 20.1642 9.16421 20.5 8.75 20.5C8.33579 20.5 8 20.1642 8 19.75V17.4683C3.5186 17.0879 0 13.3298 0 8.75V7.75C0 7.33579 0.335786 7 0.75 7Z" fill="#B02E0C"/>
</svg>
