<svg width="46" height="46" viewBox="0 0 46 46" fill="none" xmlns="http://www.w3.org/2000/svg">
<rect width="46" height="46" rx="11.1034" fill="#F3F3F3"/>
<rect x="0.396552" y="0.396552" width="45.2069" height="45.2069" rx="10.7069" stroke="#B02E0C" stroke-opacity="0.04" stroke-width="0.793103"/>
<path d="M38.7393 4.27087V5.6947L38.6934 5.74548L34.6641 10.0687V14.7074H38.6758L38.7158 14.642L38.8223 14.7074H38.9482V14.7836L39.0137 14.8246L38.9482 14.9301V16.2094L38.9238 16.2504L24.5146 40.7601V40.9193H24.4209L24.4004 40.9545L24.3408 40.9193H4.84961V38.5258L4.77734 38.4545L4.84961 38.3812V38.2787H4.95215L12.5879 30.5834V21.0677H4.93945V18.7172H4.5L4.93945 18.4457V18.3676H5.06641L28.2676 4.04919L28.3096 4.02283H38.9844L38.7393 4.27087ZM5.28809 20.7191H12.9375V30.5834L13.0088 30.6547L12.9375 30.7269V38.6273H5.19922V40.5707H24.166V38.6273H16.5996L16.5459 38.6976L16.4541 38.6273H16.3379V38.5385L16.2686 38.4857L16.3379 38.3939V20.7191H24.166V18.7758L5.28809 18.7172V20.7191ZM24.5146 38.5004V40.0717L38.5996 16.1127V15.4984L24.5146 38.5004ZM16.8652 38.2787H24.2422L38.4619 15.057H34.5742L16.8652 38.2787ZM5.44434 38.2787H12.5879V31.0795L5.44434 38.2787ZM24.5146 20.9613V21.0677H24.416L24.3477 21.141L24.2695 21.0677H16.6875V37.9359L34.3135 14.8236V14.7074H34.3145V10.4437L24.5146 20.9613ZM24.5244 18.6654L24.5146 18.6752V20.4496L34.3145 9.93103V9.82556H34.4131L38.3906 5.55701V4.62341L24.5244 18.6654ZM5.72949 18.3685H24.3271L38.1504 4.37244H28.4072L5.72949 18.3685Z" fill="black"/>
<path d="M19.9815 8.69385L18.2375 7.68696L18.2375 9.70074L19.9815 8.69385ZM13.7031 8.51945L13.5287 8.51945L13.5287 8.86825L13.7031 8.86825L13.7031 8.69385L13.7031 8.51945ZM18.4119 8.69385L18.4119 8.51945L13.7031 8.51945L13.7031 8.69385L13.7031 8.86825L18.4119 8.86825L18.4119 8.69385Z" fill="black"/>
<path d="M4.63246 8.69385L6.37645 9.70074V7.68696L4.63246 8.69385ZM9.51562 8.86825H9.69002V8.51945H9.51562V8.69385V8.86825ZM6.20205 8.69385V8.86825H9.51562V8.69385V8.51945H6.20205V8.69385Z" fill="black"/>
<rect width="2" height="2" transform="translate(12.6562 9.74023) rotate(-180)" fill="white"/>
<path d="M11.7724 7.75069L12.5398 9.74023H12.1658L11.9761 9.21285H11.1892L10.9939 9.74023H10.6339L11.4013 7.75069H11.7724ZM11.884 8.95056L11.5882 8.11344L11.2785 8.95056H11.884Z" fill="#060C12"/>
<path d="M4.98438 8.69373L4.98437 18.8089" stroke="black" stroke-width="0.348798" stroke-linecap="square"/>
<path d="M4.98438 21.2505L3.97748 22.9944L5.99127 22.9944L4.98438 21.2505ZM4.80998 27.5288L4.80998 27.7032L5.15877 27.7032L5.15877 27.5288L4.98438 27.5288L4.80998 27.5288ZM4.98438 22.82L4.80998 22.82L4.80998 27.5288L4.98438 27.5288L5.15877 27.5288L5.15877 22.82L4.98438 22.82Z" fill="black"/>
<path d="M4.98438 37.9928L5.99127 36.2488L3.97748 36.2488L4.98438 37.9928ZM5.15877 31.7145L5.15877 31.5401L4.80998 31.5401L4.80998 31.7145L4.98438 31.7145L5.15877 31.7145ZM4.98438 36.4232L5.15877 36.4232L5.15877 31.7145L4.98438 31.7145L4.80998 31.7145L4.80998 36.4232L4.98438 36.4232Z" fill="black"/>
<rect width="1.64678" height="2" transform="translate(6.03125 28.6606) rotate(90)" fill="white"/>
<path d="M4.23774 28.4973H5.14461C5.3511 28.4973 5.51015 28.5447 5.62177 28.634C5.73338 28.7233 5.78919 28.8461 5.78919 28.9967C5.78919 29.0916 5.76129 29.1781 5.71106 29.2535C5.65804 29.3288 5.58828 29.3818 5.50457 29.4153C5.61898 29.4432 5.71106 29.499 5.77803 29.5827C5.845 29.6664 5.87848 29.7725 5.87848 29.898C5.87848 30.0738 5.81988 30.2161 5.70269 30.3222C5.58549 30.431 5.43481 30.484 5.25065 30.484H4.23774V28.4973ZM4.57816 28.7791V29.326H5.05253C5.18647 29.326 5.28413 29.3065 5.34831 29.2646C5.4097 29.2228 5.44318 29.153 5.44318 29.0525C5.44318 28.9409 5.4097 28.8684 5.34273 28.8321C5.27576 28.7986 5.18368 28.7791 5.06369 28.7791H4.57816ZM4.57816 29.5771V30.1994H5.09997C5.2339 30.1994 5.33715 30.1771 5.41528 30.1324C5.49062 30.0878 5.52968 30.0069 5.52968 29.8897C5.52968 29.8255 5.51573 29.7725 5.49341 29.7278C5.47109 29.6832 5.4376 29.6525 5.39296 29.6302C5.34831 29.6106 5.30366 29.5967 5.25902 29.5883C5.21158 29.5827 5.15577 29.5771 5.09439 29.5771H4.57816Z" fill="#060C12"/>
<path d="M15.3383 34.518V34.8194H14.7049V36.5048H14.3561V34.8194H13.7227V34.518H15.3383Z" fill="#060C12"/>
<path d="M20.6462 39.5231H20.3695C20.3509 39.3301 20.2323 39.2325 20.0091 39.2325C19.9091 39.2325 19.8324 39.2534 19.7765 39.2952C19.7207 39.3371 19.6928 39.3929 19.6928 39.4627C19.6928 39.5301 19.7114 39.5766 19.7533 39.5999C19.7951 39.6254 19.8858 39.6557 20.0277 39.6905C20.0649 39.7022 20.0928 39.7091 20.1137 39.7138C20.2974 39.7603 20.423 39.8022 20.4904 39.8394C20.6369 39.9184 20.7113 40.0417 20.7113 40.2091C20.7113 40.2835 20.6974 40.3486 20.6741 40.4067C20.6485 40.4672 20.616 40.516 20.5741 40.5556C20.5323 40.5951 20.4811 40.6276 20.4253 40.6532C20.3672 40.6811 20.3067 40.6997 20.2463 40.7114C20.1835 40.723 20.1184 40.7276 20.0533 40.7276C19.844 40.7276 19.6766 40.6788 19.5487 40.5788C19.4184 40.4812 19.3557 40.3347 19.3557 40.1417H19.6417C19.6417 40.2626 19.6812 40.3533 19.7603 40.4114C19.8393 40.4695 19.9416 40.4974 20.0695 40.4974C20.1811 40.4974 20.2672 40.4765 20.33 40.43C20.3928 40.3835 20.4253 40.3207 20.4253 40.237C20.4253 40.1858 20.4067 40.1417 20.3741 40.1091C20.3416 40.0765 20.3044 40.051 20.2672 40.037C20.2277 40.0231 20.1602 40.0045 20.0649 39.9789C20.0533 39.9766 20.044 39.9742 20.0393 39.9719C19.8324 39.9207 19.6975 39.8766 19.6324 39.8417C19.4975 39.7719 19.4254 39.665 19.4161 39.5185V39.4859C19.4161 39.3394 19.4696 39.2232 19.5812 39.1348C19.6928 39.0464 19.8417 39.0022 20.0277 39.0022C20.2067 39.0022 20.3532 39.0464 20.4672 39.1301C20.5788 39.2162 20.6392 39.3464 20.6462 39.5231Z" fill="#060C12"/>
<path d="M41.0742 17.4974L39.3188 18.4842L41.0511 19.511L41.0742 17.4974ZM35.1078 27.2206L35.0189 27.3707L35.3189 27.5485L35.4078 27.3985L35.2578 27.3096L35.1078 27.2206ZM40.2739 18.8476L40.1239 18.7587L35.1078 27.2206L35.2578 27.3096L35.4078 27.3985L40.4239 18.9365L40.2739 18.8476Z" fill="black"/>
<path d="M26.8806 41.439L28.636 40.4523L26.9037 39.4254L26.8806 41.439ZM33.0797 31.3233L33.1686 31.1733L32.8686 30.9954L32.7797 31.1454L32.9297 31.2344L33.0797 31.3233ZM27.681 40.0888L27.831 40.1778L33.0797 31.3233L32.9297 31.2344L32.7797 31.1454L27.5309 39.9999L27.681 40.0888Z" fill="black"/>
<path d="M35.1614 28.9122L35.4224 29.0629L34.7415 30.2422L33.021 29.2488L33.1968 28.9443L34.6564 29.787L35.1614 28.9122Z" fill="#060C12"/>
</svg>
