<svg width="176" height="136" viewBox="0 0 176 136" fill="none" xmlns="http://www.w3.org/2000/svg">
<path d="M0 16C0 7.16344 7.16344 0 16 0H160C168.837 0 176 7.16344 176 16V120C176 128.837 168.837 136 160 136H16C7.16344 136 0 128.837 0 120V16Z" fill="white"/>
<path d="M16 0.5H160C168.56 0.5 175.5 7.43959 175.5 16V120C175.5 128.56 168.56 135.5 160 135.5H16C7.43959 135.5 0.5 128.56 0.5 120V16C0.5 7.43959 7.43959 0.5 16 0.5Z" stroke="#B02E0C" stroke-opacity="0.16"/>
<path d="M132.788 17.3135V21.4014L132.654 21.5449L121.098 33.9473V47.2412H132.605L132.72 47.0537L133.026 47.2412H133.386V47.4609L133.573 47.5762L133.386 47.8809V51.5469L133.316 51.6641L92.001 121.941V122.393H91.7363L91.6787 122.491L91.5107 122.393H35.623V115.529L35.416 115.324L35.623 115.115V114.822H35.915L57.8086 92.7588V65.4785H35.8789V58.7363H34.6172L35.8789 57.957V57.7354L36.2373 57.7363L102.758 16.6826L102.879 16.6084H133.484L132.788 17.3135ZM36.8789 64.4785H58.8086V92.7568L59.0156 92.9629L58.8086 93.1709V115.822H36.623V121.393H91.001V115.822H69.3057L69.1543 116.021L68.8926 115.822H68.5596V115.568L68.3584 115.416L68.5596 115.151V64.4785H91.001V58.9062L36.8789 58.7383V64.4785ZM92.001 115.463V119.969L132.386 51.2734V49.5137L92.001 115.463ZM70.0684 114.822H91.2197L131.993 48.2412H120.845L70.0684 114.822ZM37.3223 114.822H57.8086V94.1787L37.3223 114.822ZM92.001 65.1738V65.4785H91.7178L91.5264 65.6846L91.3047 65.4785H69.5596V113.84L120.098 47.5713V35.0205L92.001 65.1738ZM92.0273 58.5879L92.001 58.6143V63.707L120.098 33.5527V33.2471H120.383L131.788 21.0068V18.3262L92.0273 58.5879ZM38.1416 57.7363H91.4639L131.092 17.6084H103.163L38.1416 57.7363Z" fill="black"/>
<path d="M79 30L74 27.1132L74 32.8868L79 30ZM61 29.5L60.5 29.5L60.5 30.5L61 30.5L61 29.5ZM74.5 30L74.5 29.5L61 29.5L61 30L61 30.5L74.5 30.5L74.5 30Z" fill="black"/>
<path d="M35 30L40 32.8868V27.1132L35 30ZM49 30.5H49.5V29.5H49V30.5ZM39.5 30V30.5H49V30V29.5H39.5V30Z" fill="black"/>
<rect width="6" height="6" transform="translate(58 33) rotate(-180)" fill="white"/>
<path d="M55.2 27.296L57.4 33H56.328L55.784 31.488H53.528L52.968 33H51.936L54.136 27.296H55.2ZM55.52 30.736L54.672 28.336L53.784 30.736H55.52Z" fill="#060C12"/>
<path d="M36 29.9998L36 58.9998" stroke="black" stroke-linecap="square"/>
<path d="M36 66L33.1132 71L38.8868 71L36 66ZM35.5 84L35.5 84.5L36.5 84.5L36.5 84L35.5 84ZM36 70.5L35.5 70.5L35.5 84L36 84L36.5 84L36.5 70.5L36 70.5Z" fill="black"/>
<path d="M36 114L38.8868 109L33.1132 109L36 114ZM36.5 96.0002L36.5 95.5002L35.5 95.5002L35.5 96.0002L36.5 96.0002ZM36 109.5L36.5 109.5L36.5 96.0002L36 96.0002L35.5 96.0002L35.5 109.5L36 109.5Z" fill="black"/>
<rect width="4.72131" height="6" transform="translate(39 87.2449) rotate(90)" fill="white"/>
<path d="M33.592 86.9095H36.192C36.784 86.9095 37.24 87.0455 37.56 87.3015C37.88 87.5575 38.04 87.9095 38.04 88.3415C38.04 88.6135 37.96 88.8615 37.816 89.0775C37.664 89.2935 37.464 89.4455 37.224 89.5415C37.552 89.6215 37.816 89.7815 38.008 90.0215C38.2 90.2615 38.296 90.5655 38.296 90.9255C38.296 91.4295 38.128 91.8375 37.792 92.1415C37.456 92.4535 37.024 92.6055 36.496 92.6055H33.592V86.9095ZM34.568 87.7175V89.2855H35.928C36.312 89.2855 36.592 89.2295 36.776 89.1095C36.952 88.9895 37.048 88.7895 37.048 88.5015C37.048 88.1815 36.952 87.9735 36.76 87.8695C36.568 87.7735 36.304 87.7175 35.96 87.7175H34.568ZM34.568 90.0055V91.7895H36.064C36.448 91.7895 36.744 91.7255 36.968 91.5975C37.184 91.4695 37.296 91.2375 37.296 90.9015C37.296 90.7175 37.256 90.5655 37.192 90.4375C37.128 90.3095 37.032 90.2215 36.904 90.1575C36.776 90.1015 36.648 90.0615 36.52 90.0375C36.384 90.0215 36.224 90.0055 36.048 90.0055H34.568Z" fill="#060C12"/>
<path d="M65.688 104.304V105.168H63.872V110H62.872V105.168H61.056V104.304H65.688Z" fill="#060C12"/>
<path d="M80.9133 117.653H80.12C80.0667 117.1 79.7267 116.82 79.0867 116.82C78.8 116.82 78.58 116.88 78.42 117C78.26 117.12 78.18 117.28 78.18 117.48C78.18 117.673 78.2333 117.807 78.3533 117.873C78.4733 117.947 78.7333 118.033 79.14 118.133C79.2467 118.167 79.3267 118.187 79.3867 118.2C79.9133 118.333 80.2733 118.453 80.4667 118.56C80.8867 118.787 81.1 119.14 81.1 119.62C81.1 119.833 81.06 120.02 80.9933 120.187C80.92 120.36 80.8267 120.5 80.7067 120.613C80.5867 120.727 80.44 120.82 80.28 120.893C80.1133 120.973 79.94 121.027 79.7667 121.06C79.5867 121.093 79.4 121.107 79.2133 121.107C78.6133 121.107 78.1333 120.967 77.7667 120.68C77.3933 120.4 77.2133 119.98 77.2133 119.427H78.0333C78.0333 119.773 78.1467 120.033 78.3733 120.2C78.6 120.367 78.8933 120.447 79.26 120.447C79.58 120.447 79.8267 120.387 80.0067 120.253C80.1867 120.12 80.28 119.94 80.28 119.7C80.28 119.553 80.2267 119.427 80.1333 119.333C80.04 119.24 79.9333 119.167 79.8267 119.127C79.7133 119.087 79.52 119.033 79.2467 118.96C79.2133 118.953 79.1867 118.947 79.1733 118.94C78.58 118.793 78.1933 118.667 78.0067 118.567C77.62 118.367 77.4133 118.06 77.3867 117.64V117.547C77.3867 117.127 77.54 116.793 77.86 116.54C78.18 116.287 78.6067 116.16 79.14 116.16C79.6533 116.16 80.0733 116.287 80.4 116.527C80.72 116.773 80.8933 117.147 80.9133 117.653Z" fill="#060C12"/>
<path d="M139.465 55.2401L134.432 58.0692L139.398 61.0133L139.465 55.2401ZM122.359 83.1166L122.104 83.5467L122.964 84.0567L123.219 83.6265L122.359 83.1166ZM137.17 59.1111L136.74 58.8562L122.359 83.1166L122.789 83.3716L123.219 83.6265L137.6 59.3661L137.17 59.1111Z" fill="black"/>
<path d="M98.7823 123.881L103.815 121.052L98.8487 118.108L98.7823 123.881ZM116.555 94.8792L116.81 94.4491L115.95 93.9392L115.695 94.3693L116.555 94.8792ZM101.077 120.01L101.507 120.265L116.555 94.8792L116.125 94.6243L115.695 94.3693L100.647 119.755L101.077 120.01Z" fill="black"/>
<path d="M122.743 88.0994L123.491 88.5314L121.539 91.9124L116.606 89.0644L117.11 88.1914L121.295 90.6074L122.743 88.0994Z" fill="#060C12"/>
</svg>
