<svg width="32" height="32" viewBox="0 0 32 32" fill="none" xmlns="http://www.w3.org/2000/svg">
<path opacity="0.3" d="M29.4577 10.7817L26.3773 13.8764L18.1247 5.62382L21.2194 2.54342C21.4867 2.26609 21.8072 2.0455 22.1617 1.89483C22.5162 1.74416 22.8974 1.6665 23.2826 1.6665C23.6678 1.6665 24.049 1.74416 24.4035 1.89483C24.758 2.0455 25.0784 2.26609 25.3457 2.54342L29.4577 6.6554C29.7351 6.9227 29.9556 7.24318 30.1063 7.59766C30.257 7.95215 30.3346 8.33338 30.3346 8.71855C30.3346 9.10373 30.257 9.48496 30.1063 9.83945C29.9556 10.1939 29.7351 10.5144 29.4577 10.7817ZM4.08379 30.2384L12.9668 27.2869L4.71419 19.0343L1.76274 27.9174C1.65456 28.2407 1.63865 28.5877 1.71679 28.9196C1.79493 29.2515 1.96403 29.555 2.20511 29.796C2.44619 30.0371 2.74969 30.2062 3.08155 30.2844C3.4134 30.3625 3.76047 30.3466 4.08379 30.2384Z" fill="#060C12"/>
<path d="M6.77735 29.336L4.08378 30.2386C3.76047 30.3468 3.4134 30.3627 3.08155 30.2845C2.74969 30.2064 2.44619 30.0373 2.20511 29.7962C1.96403 29.5552 1.79493 29.2516 1.71679 28.9198C1.63865 28.5879 1.65456 28.2409 1.76274 27.9176L2.66537 25.224L6.77735 29.336ZM4.71419 19.0345L12.9668 27.2871L26.3773 13.8766L18.1247 5.62402L4.71419 19.0345Z" fill="#060C12"/>
</svg>
