<svg width="46" height="46" viewBox="0 0 46 46" fill="none" xmlns="http://www.w3.org/2000/svg">
<rect width="46" height="46" rx="11.3448" fill="#F3F3F3"/>
<rect x="0.405172" y="0.405172" width="45.1897" height="45.1897" rx="10.9397" stroke="#B02E0C" stroke-opacity="0.04" stroke-width="0.810345"/>
<path d="M33.7377 12.1915L31.9344 15.0255L30.1312 17.8595" stroke="black" stroke-width="0.537447" stroke-linecap="square"/>
<path d="M42.7894 19.7944L38.2589 24.7549" stroke="black" stroke-width="0.537447" stroke-linecap="square"/>
<rect x="6.09833" y="11.9499" width="36.7614" height="18.2195" rx="3.46654" stroke="black" stroke-width="0.591192"/>
<path d="M2.8328 22.5193L3.37885 21.726L2.8715 20.9886H3.19182L3.54009 21.5304L3.9034 20.9886H4.20437L3.69702 21.726L4.24092 22.5193H3.91415L3.53149 21.9345L3.14237 22.5193H2.8328Z" fill="#060C12"/>
<path d="M3.65234 11.655L2.87661 12.9986L4.42808 12.9986L3.65234 11.655ZM3.51798 19.6549L3.51798 19.7893L3.78671 19.7893L3.78671 19.6549L3.65234 19.6549L3.51798 19.6549ZM3.65234 12.8642L3.51798 12.8642L3.51798 19.6549L3.65234 19.6549L3.78671 19.6549L3.78671 12.8642L3.65234 12.8642Z" fill="black"/>
<path d="M3.65234 30.4656L4.42808 29.122L2.87661 29.122L3.65234 30.4656ZM3.78671 22.4657L3.78671 22.3313L3.51798 22.3313L3.51798 22.4657L3.65234 22.4657L3.78671 22.4657ZM3.65234 29.2564L3.78671 29.2564L3.78671 22.4657L3.65234 22.4657L3.51798 22.4657L3.51798 29.2564L3.65234 29.2564Z" fill="black"/>
<path d="M24.9452 32.8149L24.3691 33.7372V34.3456H24.1047V33.7372L23.5264 32.8149H23.8359L24.2422 33.4921L24.6443 32.8149H24.9452Z" fill="#060C12"/>
<path d="M43.1545 33.1525L41.8109 32.3767L41.8109 33.9282L43.1545 33.1525ZM25.6875 33.0181L25.5531 33.0181L25.5531 33.2868L25.6875 33.2868L25.6875 33.1525L25.6875 33.0181ZM41.9453 33.1525L41.9453 33.0181L25.6875 33.0181L25.6875 33.1525L25.6875 33.2868L41.9453 33.2868L41.9453 33.1525Z" fill="black"/>
<path d="M5.80283 33.1525L7.14645 33.9282V32.3767L5.80283 33.1525ZM22.7324 33.2868H22.8668V33.0181H22.7324V33.1525V33.2868ZM7.01209 33.1525V33.2868H22.7324V33.1525V33.0181H7.01209V33.1525Z" fill="black"/>
</svg>
