<svg width="46" height="46" viewBox="0 0 46 46" fill="none" xmlns="http://www.w3.org/2000/svg">
<rect width="46" height="46" rx="11.3448" fill="#F3F3F3"/>
<rect x="0.405172" y="0.405172" width="45.1897" height="45.1897" rx="10.9397" stroke="#B02E0C" stroke-opacity="0.04" stroke-width="0.810345"/>
<path d="M29.7952 10.1549L27.7181 13.4192L25.6411 16.6835" stroke="black" stroke-width="0.619048" stroke-linecap="square"/>
<path d="M42.0132 22.2573L36.9291 28.0908" stroke="black" stroke-width="0.619048" stroke-linecap="square"/>
<rect x="7.86391" y="9.87661" width="34.2952" height="26.2476" rx="3.99286" stroke="black" stroke-width="0.680952"/>
<path d="M3.48514 24.2268L4.1141 23.3131L3.52971 22.4638H3.89867L4.29981 23.0878L4.71829 22.4638H5.06495L4.48057 23.3131L5.10705 24.2268H4.73067L4.2899 23.5533L3.84171 24.2268H3.48514Z" fill="#060C12"/>
<path d="M4.42773 9.53566L3.53422 11.0833L5.32125 11.0833L4.42773 9.53566ZM4.27297 20.988L4.27297 21.1428L4.5825 21.1428L4.5825 20.988L4.42773 20.988L4.27297 20.988ZM4.42773 10.9285L4.27297 10.9285L4.27297 20.988L4.42773 20.988L4.5825 20.988L4.5825 10.9285L4.42773 10.9285Z" fill="black"/>
<path d="M4.42773 36.4642L5.32125 34.9166L3.53422 34.9166L4.42773 36.4642ZM4.5825 25.0118L4.5825 24.8571L4.27297 24.8571L4.27297 25.0118L4.42773 25.0118L4.5825 25.0118ZM4.42773 35.0714L4.5825 35.0714L4.5825 25.0118L4.42773 25.0118L4.27297 25.0118L4.27297 35.0714L4.42773 35.0714Z" fill="black"/>
</svg>
