<svg width="46" height="46" viewBox="0 0 46 46" fill="none" xmlns="http://www.w3.org/2000/svg">
<rect width="46" height="46" rx="11.3448" fill="#F3F3F3"/>
<rect x="0.405172" y="0.405172" width="45.1897" height="45.1897" rx="10.9397" stroke="#B02E0C" stroke-opacity="0.04" stroke-width="0.810345"/>
<rect x="2.07496" y="25.8693" width="41.8492" height="11.7522" stroke="black" stroke-width="0.286639"/>
<path d="M6.23047 27.4458V36.045" stroke="black" stroke-width="0.286639" stroke-linecap="square"/>
<path d="M9.58398 27.4458V36.045" stroke="black" stroke-width="0.286639" stroke-linecap="square"/>
<path d="M12.9395 27.4458V36.045" stroke="black" stroke-width="0.286639" stroke-linecap="square"/>
<path d="M16.293 27.4458V36.045" stroke="black" stroke-width="0.286639" stroke-linecap="square"/>
<path d="M19.6465 27.4458V36.045" stroke="black" stroke-width="0.286639" stroke-linecap="square"/>
<path d="M23 27.4458V36.045" stroke="black" stroke-width="0.286639" stroke-linecap="square"/>
<path d="M26.3535 27.4458V36.045" stroke="black" stroke-width="0.286639" stroke-linecap="square"/>
<path d="M29.707 27.4458V36.045" stroke="black" stroke-width="0.286639" stroke-linecap="square"/>
<path d="M33.0605 27.4458V36.045" stroke="black" stroke-width="0.286639" stroke-linecap="square"/>
<path d="M36.4141 27.4458V36.045" stroke="black" stroke-width="0.286639" stroke-linecap="square"/>
<path d="M39.7676 27.4458V36.045" stroke="black" stroke-width="0.286639" stroke-linecap="square"/>
<path d="M8.3904 29.5892H8.18574C8.17198 29.4464 8.08427 29.3742 7.91917 29.3742C7.84521 29.3742 7.78846 29.3897 7.74718 29.4206C7.70591 29.4516 7.68527 29.4928 7.68527 29.5444C7.68527 29.5943 7.69903 29.6287 7.72999 29.6459C7.76094 29.6648 7.82802 29.6872 7.93293 29.713C7.96044 29.7216 7.98108 29.7267 7.99656 29.7302C8.13243 29.7646 8.2253 29.7955 8.27517 29.8231C8.38352 29.8815 8.43856 29.9727 8.43856 30.0965C8.43856 30.1515 8.42824 30.1997 8.41104 30.2427C8.39212 30.2874 8.36804 30.3235 8.33709 30.3528C8.30613 30.382 8.26829 30.4061 8.22702 30.425C8.18402 30.4456 8.13931 30.4594 8.09459 30.468C8.04815 30.4766 8 30.48 7.95184 30.48C7.79706 30.48 7.67323 30.4439 7.57864 30.37C7.48233 30.2977 7.43589 30.1894 7.43589 30.0466H7.64743C7.64743 30.1361 7.67667 30.2031 7.73515 30.2461C7.79362 30.2891 7.86929 30.3098 7.96388 30.3098C8.04644 30.3098 8.11007 30.2943 8.1565 30.2599C8.20294 30.2255 8.22702 30.1791 8.22702 30.1171C8.22702 30.0793 8.21326 30.0466 8.18918 30.0226C8.1651 29.9985 8.13759 29.9796 8.11007 29.9692C8.08083 29.9589 8.03096 29.9452 7.96044 29.9262C7.95184 29.9245 7.94496 29.9228 7.94153 29.9211C7.78846 29.8832 7.68871 29.8506 7.64055 29.8248C7.5408 29.7732 7.48749 29.6941 7.48061 29.5857V29.5616C7.48061 29.4533 7.52017 29.3673 7.60272 29.3019C7.68527 29.2366 7.79534 29.2039 7.93293 29.2039C8.06535 29.2039 8.1737 29.2366 8.25797 29.2985C8.34053 29.3621 8.38524 29.4585 8.3904 29.5892Z" fill="black"/>
<path d="M3.65234 30.8858V28.5927C3.65234 27.9595 4.16567 27.4462 4.7989 27.4462H41.202C41.8352 27.4462 42.3485 27.9595 42.3485 28.5927V30.8858" stroke="#F7941D" stroke-width="0.286639" stroke-linecap="square"/>
<path d="M3.65234 32.6057V34.8989C3.65234 35.5321 4.16567 36.0454 4.7989 36.0454H41.202C41.8352 36.0454 42.3485 35.5321 42.3485 34.8989V32.6057" stroke="#F7941D" stroke-width="0.286639" stroke-linecap="square"/>
<path d="M6.375 31.6024L6.94828 31.9334V31.2714L6.375 31.6024ZM9.3847 31.6024L8.81143 31.2714V31.9334L9.3847 31.6024ZM6.89095 31.6024V31.6597H8.86875V31.6024V31.5451H6.89095V31.6024Z" fill="black"/>
<path d="M23.5719 40.0908V40.3385H22.4529V38.7058H22.7418V40.0908H23.5719Z" fill="black"/>
<rect x="2.02316" y="5.75301" width="15.0088" height="15.0088" stroke="black" stroke-width="0.183031"/>
<rect x="3.03097" y="6.75948" width="12.9954" height="12.9954" rx="1.37273" stroke="#F7941D" stroke-width="0.183031"/>
<circle cx="4.76925" cy="8.49825" r="0.732137" fill="#F7941D"/>
<circle cx="4.76925" cy="18.016" r="0.732137" fill="#F7941D"/>
<circle cx="9.54464" cy="18.016" r="0.732137" fill="#F7941D"/>
<circle cx="14.2868" cy="8.49825" r="0.732137" fill="#F7941D"/>
<circle cx="14.2868" cy="18.016" r="0.732137" fill="#F7941D"/>
<path d="M4.03794 9.87092C2.2076 6.98813 3.80838 5.88994 6.14254 8.04059" stroke="#B02E0C" stroke-width="0.148848" stroke-linecap="round"/>
<path d="M3.07812 13.114L3.6514 13.445V12.783L3.07812 13.114ZM3.59408 13.114V13.1713H6.08783V13.114V13.0567H3.59408V13.114Z" fill="black"/>
<path d="M8.79874 23.4264L9.38119 22.5802L8.84002 21.7937H9.18169L9.55318 22.3716L9.94071 21.7937H10.2617L9.72057 22.5802L10.3007 23.4264H9.95218L9.544 22.8027L9.12895 23.4264H8.79874Z" fill="black"/>
<path d="M19.4864 12.6216L18.8718 13.6053V14.2543H18.5898V13.6053L17.9729 12.6216H18.3031L18.7365 13.3439L19.1653 12.6216H19.4864Z" fill="black"/>
<path d="M6.6468 12.3166H7.22638C7.34677 12.3166 7.44652 12.3441 7.52391 12.3992C7.59959 12.4542 7.63914 12.5402 7.63914 12.6571C7.63914 12.7311 7.62023 12.7947 7.58583 12.8463C7.54971 12.8979 7.49984 12.9358 7.4362 12.9581C7.46544 12.965 7.49124 12.9753 7.5136 12.9891C7.53423 13.0028 7.55143 13.0183 7.56347 13.0338C7.57551 13.051 7.58583 13.0716 7.59443 13.0957C7.60131 13.1215 7.60647 13.1439 7.60991 13.1628C7.61335 13.1817 7.61507 13.2058 7.61851 13.2367C7.61851 13.2453 7.62023 13.2608 7.62194 13.2832C7.62366 13.3072 7.62538 13.3227 7.62538 13.3296C7.62538 13.3365 7.6271 13.3502 7.62882 13.3674C7.63054 13.3864 7.63226 13.4001 7.63398 13.407C7.63398 13.4139 7.6357 13.4259 7.63914 13.4397C7.64258 13.4534 7.6443 13.4655 7.64774 13.4723C7.64946 13.4792 7.6529 13.4878 7.65634 13.4981C7.65978 13.5085 7.66322 13.5153 7.66838 13.5222C7.67182 13.5291 7.67698 13.536 7.68386 13.5411H7.4534C7.44996 13.5377 7.44652 13.5325 7.44308 13.5257C7.43964 13.5188 7.43792 13.5119 7.4362 13.505C7.43276 13.4981 7.43104 13.4913 7.43104 13.4844C7.42932 13.4775 7.4276 13.4689 7.42588 13.4586C7.42416 13.4483 7.42416 13.4379 7.42416 13.4311L7.42072 13.4001L7.41728 13.3692C7.41728 13.3623 7.41556 13.3502 7.41556 13.333C7.41384 13.3158 7.41384 13.3038 7.41384 13.2969C7.40697 13.1972 7.38633 13.1301 7.35021 13.0923C7.31409 13.0544 7.2453 13.0355 7.14555 13.0355H6.86006V13.5411H6.6468V12.3166ZM6.86006 12.492V12.8756H7.14383C7.18511 12.8756 7.2195 12.8738 7.24874 12.8687C7.27626 12.8652 7.3055 12.8566 7.33473 12.8446C7.36397 12.8326 7.38633 12.8119 7.40181 12.7844C7.41728 12.7569 7.42588 12.7225 7.42588 12.6795C7.42588 12.6417 7.419 12.609 7.40525 12.5832C7.39149 12.5574 7.37085 12.5385 7.34505 12.5247C7.31925 12.5127 7.29346 12.5041 7.26594 12.4989C7.23842 12.4955 7.20746 12.492 7.17135 12.492H6.86006Z" fill="black"/>
<path d="M13.2403 9.44979H13.7064C13.7907 9.44979 13.8646 9.46011 13.93 9.47731C13.9936 9.49451 14.0521 9.52719 14.1071 9.57534C14.2275 9.68369 14.2877 9.83848 14.2877 10.0414C14.2877 10.2581 14.2292 10.4249 14.1157 10.5384C14.0641 10.59 14.0091 10.6244 13.9506 10.6451C13.8921 10.6657 13.8147 10.6743 13.7184 10.6743H13.2403V9.44979ZM13.4536 9.6321V10.4937H13.7064C13.8405 10.4937 13.9351 10.4559 13.9902 10.3768C14.0452 10.2994 14.0727 10.191 14.0727 10.0517C14.0727 9.92103 14.0418 9.81784 13.9798 9.74389C13.9179 9.66993 13.8216 9.6321 13.6926 9.6321H13.4536ZM15.0009 9.46355V10.6743H14.7911V9.84192H14.4918V9.69745C14.6999 9.69745 14.8169 9.62006 14.8427 9.46355H15.0009Z" fill="black"/>
<path d="M13.2403 15.4696H13.7064C13.7907 15.4696 13.8646 15.4799 13.93 15.4971C13.9936 15.5143 14.0521 15.547 14.1071 15.5951C14.2275 15.7035 14.2877 15.8583 14.2877 16.0612C14.2877 16.2779 14.2292 16.4447 14.1157 16.5582C14.0641 16.6098 14.0091 16.6442 13.9506 16.6649C13.8921 16.6855 13.8147 16.6941 13.7184 16.6941H13.2403V15.4696ZM13.4536 15.6519V16.5135H13.7064C13.8405 16.5135 13.9351 16.4757 13.9902 16.3966C14.0452 16.3192 14.0727 16.2108 14.0727 16.0715C14.0727 15.9408 14.0418 15.8376 13.9798 15.7637C13.9179 15.6897 13.8216 15.6519 13.6926 15.6519H13.4536ZM15.2141 16.5204V16.6941H14.3921C14.3921 16.6408 14.4007 16.5909 14.4144 16.5462C14.4282 16.5015 14.4436 16.4636 14.4608 16.4327C14.478 16.4017 14.5056 16.369 14.54 16.3364C14.5744 16.3037 14.607 16.2762 14.6346 16.2555C14.6621 16.2349 14.7016 16.2074 14.7515 16.173C14.7549 16.1713 14.7704 16.1609 14.8014 16.1403C14.8323 16.1197 14.8512 16.1076 14.8581 16.1025C14.865 16.0973 14.8805 16.0853 14.9046 16.0664C14.9286 16.0474 14.9441 16.032 14.951 16.0199C14.9579 16.0096 14.9682 15.9941 14.982 15.9735C14.9957 15.9546 15.0043 15.9356 15.0095 15.915C15.0129 15.8944 15.0164 15.8737 15.0164 15.8497C15.0164 15.7877 14.9974 15.7379 14.963 15.7017C14.9286 15.6656 14.8805 15.6467 14.822 15.6467C14.7876 15.6467 14.7567 15.6536 14.7326 15.6639C14.7068 15.6742 14.6861 15.688 14.6724 15.7052C14.6586 15.7224 14.6466 15.7447 14.638 15.7723C14.6277 15.7998 14.6225 15.8239 14.6191 15.8479C14.6156 15.872 14.6139 15.9012 14.6139 15.9322H14.423V15.9012C14.423 15.7723 14.4591 15.6691 14.5314 15.5934C14.6036 15.5177 14.7033 15.4782 14.8272 15.4782C14.9441 15.4782 15.037 15.5126 15.1092 15.5779C15.1797 15.6433 15.2159 15.731 15.2159 15.8393C15.2159 15.884 15.209 15.9253 15.1952 15.9632C15.1815 16.0027 15.166 16.0337 15.1505 16.0578C15.135 16.0818 15.1092 16.1111 15.0714 16.142C15.0336 16.1747 15.0043 16.1971 14.9871 16.2091C14.9682 16.2229 14.9338 16.2452 14.8856 16.2779C14.7412 16.3708 14.6552 16.4516 14.6277 16.5204H15.2141Z" fill="black"/>
<path d="M30.252 11.3147V11.7119H29.1324L29.004 12.4343C29.1284 12.3018 29.305 12.2336 29.5337 12.2336C29.7905 12.2336 30.0032 12.3179 30.1637 12.4864C30.3242 12.655 30.4045 12.8797 30.4045 13.1526C30.4045 13.4495 30.3082 13.6943 30.1236 13.8789C29.935 14.0675 29.6942 14.1598 29.4013 14.1598C29.1204 14.1598 28.8956 14.0836 28.7231 13.9311C28.5505 13.7786 28.4582 13.5699 28.4502 13.3091H28.9037C28.9117 13.4536 28.9639 13.5699 29.0602 13.6542C29.1525 13.7425 29.2688 13.7826 29.4133 13.7826C29.5778 13.7826 29.7063 13.7304 29.7986 13.6261C29.8868 13.5218 29.935 13.3693 29.935 13.1767C29.935 12.9921 29.8868 12.8476 29.7945 12.7433C29.6982 12.6389 29.5698 12.5868 29.4053 12.5868C29.2046 12.5868 29.0481 12.671 28.9358 12.8396L28.5345 12.8275L28.8033 11.3147H30.252ZM31.9815 11.2504H33.2857C33.5827 11.2504 33.8114 11.3187 33.972 11.4471C34.1325 11.5755 34.2127 11.7521 34.2127 11.9688C34.2127 12.1052 34.1726 12.2296 34.1004 12.338C34.0241 12.4463 33.9238 12.5226 33.8034 12.5707C33.9679 12.6108 34.1004 12.6911 34.1967 12.8115C34.293 12.9319 34.3411 13.0844 34.3411 13.2649C34.3411 13.5178 34.2569 13.7224 34.0883 13.8749C33.9198 14.0314 33.7031 14.1077 33.4382 14.1077H31.9815V11.2504ZM32.4711 11.6558V12.4423H33.1533C33.3459 12.4423 33.4864 12.4142 33.5787 12.354C33.667 12.2938 33.7151 12.1935 33.7151 12.049C33.7151 11.8885 33.667 11.7842 33.5707 11.732C33.4743 11.6838 33.3419 11.6558 33.1694 11.6558H32.4711ZM32.4711 12.8035V13.6983H33.2215C33.4142 13.6983 33.5626 13.6662 33.675 13.602C33.7833 13.5378 33.8395 13.4215 33.8395 13.2529C33.8395 13.1606 33.8195 13.0844 33.7874 13.0202C33.7553 12.956 33.7071 12.9118 33.6429 12.8797C33.5787 12.8516 33.5145 12.8315 33.4503 12.8195C33.382 12.8115 33.3018 12.8035 33.2135 12.8035H32.4711ZM34.7308 12.675C34.779 12.2095 35.0799 11.9728 35.6377 11.9728C35.8946 11.9728 36.1032 12.0249 36.2557 12.1253C36.4082 12.2296 36.4885 12.3861 36.4885 12.5988V13.6502C36.4885 13.7104 36.4925 13.7505 36.5085 13.7706C36.5246 13.7947 36.5527 13.8027 36.5968 13.8027C36.6289 13.8027 36.661 13.8027 36.7012 13.7947V14.1157C36.5808 14.1478 36.4845 14.1598 36.4042 14.1598C36.2076 14.1598 36.0952 14.0796 36.0671 13.911C35.8905 14.0796 35.6498 14.1598 35.3408 14.1598C35.1241 14.1598 34.9555 14.1077 34.8311 13.9953C34.7027 13.8829 34.6425 13.7345 34.6425 13.5418C34.6425 13.4857 34.6465 13.4295 34.6626 13.3773C34.6746 13.3292 34.6907 13.285 34.7067 13.2449C34.7228 13.2088 34.7509 13.1726 34.791 13.1405C34.8311 13.1084 34.8632 13.0844 34.8873 13.0603C34.9114 13.0402 34.9555 13.0202 35.0117 13.0001C35.0679 12.984 35.112 12.968 35.1401 12.96C35.1682 12.9519 35.2164 12.9399 35.2886 12.9279C35.3568 12.9198 35.401 12.9118 35.425 12.9078C35.4491 12.9038 35.4973 12.8958 35.5695 12.8877C35.73 12.8677 35.8424 12.8516 35.9026 12.8356C35.9588 12.8195 35.9989 12.7994 36.023 12.7673C36.039 12.7473 36.0511 12.6991 36.0511 12.6189C36.0511 12.4102 35.9066 12.3059 35.6257 12.3059C35.4732 12.3059 35.3649 12.3339 35.2966 12.3901C35.2244 12.4463 35.1803 12.5426 35.1642 12.675H34.7308ZM36.0471 13.0683C36.0109 13.0884 35.9708 13.1044 35.9267 13.1205C35.8785 13.1365 35.8424 13.1446 35.8143 13.1486C35.7862 13.1526 35.7421 13.1566 35.6819 13.1646C35.6217 13.1726 35.5816 13.1807 35.5655 13.1807C35.5093 13.1887 35.4652 13.1967 35.4331 13.2048C35.401 13.2128 35.3608 13.2208 35.3127 13.2369C35.2645 13.2529 35.2284 13.273 35.2043 13.2971C35.1803 13.3211 35.1562 13.3492 35.1401 13.3893C35.1201 13.4295 35.112 13.4736 35.112 13.5258C35.112 13.6261 35.1441 13.7024 35.2083 13.7545C35.2726 13.8107 35.3649 13.8348 35.4852 13.8348C35.6859 13.8348 35.8424 13.7826 35.9548 13.6703C36.0149 13.6101 36.0471 13.4897 36.0471 13.3131V13.0683ZM38.1525 11.9969V12.4343C38.0722 12.4262 38.0161 12.4222 37.992 12.4222C37.5907 12.4222 37.3941 12.6831 37.3941 13.1967V14.1077H36.9406V12.037H37.37V12.4503C37.5144 12.1453 37.7472 11.9888 38.0642 11.9888L38.1525 11.9969ZM28.7112 15.2504H30.0154C30.3124 15.2504 30.5411 15.3187 30.7016 15.4471C30.8622 15.5755 30.9424 15.7521 30.9424 15.9688C30.9424 16.1052 30.9023 16.2296 30.8301 16.338C30.7538 16.4463 30.6535 16.5226 30.5331 16.5707C30.6976 16.6108 30.8301 16.6911 30.9264 16.8115C31.0227 16.9319 31.0708 17.0844 31.0708 17.2649C31.0708 17.5178 30.9866 17.7224 30.818 17.8749C30.6495 18.0314 30.4328 18.1077 30.1679 18.1077H28.7112V15.2504ZM29.2008 15.6558V16.4423H29.883C30.0756 16.4423 30.2161 16.4142 30.3084 16.354C30.3967 16.2938 30.4448 16.1935 30.4448 16.049C30.4448 15.8885 30.3967 15.7842 30.3003 15.732C30.204 15.6838 30.0716 15.6558 29.899 15.6558H29.2008ZM29.2008 16.8035V17.6983H29.9512C30.1438 17.6983 30.2923 17.6662 30.4047 17.602C30.513 17.5378 30.5692 17.4215 30.5692 17.2529C30.5692 17.1606 30.5491 17.0844 30.517 17.0202C30.4849 16.956 30.4368 16.9118 30.3726 16.8797C30.3084 16.8516 30.2442 16.8315 30.18 16.8195C30.1117 16.8115 30.0315 16.8035 29.9432 16.8035H29.2008ZM33.3345 17.4616C33.2824 17.6863 33.17 17.8629 33.0015 17.9873C32.8329 18.1157 32.6283 18.1759 32.3955 18.1759C32.0825 18.1759 31.8337 18.0756 31.6491 17.8749C31.4645 17.6743 31.3762 17.4134 31.3762 17.0964C31.3762 16.7754 31.4685 16.5065 31.6571 16.2938C31.8457 16.0851 32.0865 15.9768 32.3795 15.9768C32.6804 15.9768 32.9212 16.0811 33.0978 16.2898C33.2743 16.4985 33.3626 16.7794 33.3626 17.1365V17.1847H31.8337C31.8377 17.3934 31.8899 17.5579 31.9902 17.6703C32.0865 17.7826 32.227 17.8388 32.4035 17.8388C32.5279 17.8388 32.6283 17.8107 32.7085 17.7505C32.7888 17.6903 32.849 17.594 32.8971 17.4616H33.3345ZM32.9052 16.8797C32.8891 16.7071 32.8369 16.5707 32.7406 16.4704C32.6443 16.3701 32.5239 16.3179 32.3754 16.3179C32.223 16.3179 32.1026 16.366 32.0103 16.4624C31.918 16.5587 31.8618 16.6991 31.8417 16.8797H32.9052ZM33.6903 16.675C33.7385 16.2095 34.0395 15.9728 34.5973 15.9728C34.8541 15.9728 35.0628 16.0249 35.2153 16.1253C35.3678 16.2296 35.448 16.3861 35.448 16.5988V17.6502C35.448 17.7104 35.452 17.7505 35.4681 17.7706C35.4841 17.7947 35.5122 17.8027 35.5564 17.8027C35.5885 17.8027 35.6206 17.8027 35.6607 17.7947V18.1157C35.5403 18.1478 35.444 18.1598 35.3637 18.1598C35.1671 18.1598 35.0547 18.0796 35.0267 17.911C34.8501 18.0796 34.6093 18.1598 34.3003 18.1598C34.0836 18.1598 33.9151 18.1077 33.7907 17.9953C33.6623 17.8829 33.6021 17.7345 33.6021 17.5418C33.6021 17.4857 33.6061 17.4295 33.6221 17.3773C33.6342 17.3292 33.6502 17.285 33.6663 17.2449C33.6823 17.2088 33.7104 17.1726 33.7505 17.1405C33.7907 17.1084 33.8228 17.0844 33.8468 17.0603C33.8709 17.0402 33.9151 17.0202 33.9712 17.0001C34.0274 16.984 34.0716 16.968 34.0997 16.96C34.1278 16.9519 34.1759 16.9399 34.2481 16.9279C34.3164 16.9198 34.3605 16.9118 34.3846 16.9078C34.4087 16.9038 34.4568 16.8958 34.529 16.8877C34.6896 16.8677 34.8019 16.8516 34.8621 16.8356C34.9183 16.8195 34.9584 16.7994 34.9825 16.7673C34.9986 16.7473 35.0106 16.6991 35.0106 16.6189C35.0106 16.4102 34.8661 16.3059 34.5852 16.3059C34.4327 16.3059 34.3244 16.3339 34.2562 16.3901C34.1839 16.4463 34.1398 16.5426 34.1237 16.675H33.6903ZM35.0066 17.0683C34.9705 17.0884 34.9303 17.1044 34.8862 17.1205C34.838 17.1365 34.8019 17.1446 34.7738 17.1486C34.7457 17.1526 34.7016 17.1566 34.6414 17.1646C34.5812 17.1726 34.5411 17.1807 34.525 17.1807C34.4689 17.1887 34.4247 17.1967 34.3926 17.2048C34.3605 17.2128 34.3204 17.2208 34.2722 17.2369C34.2241 17.2529 34.1879 17.273 34.1639 17.2971C34.1398 17.3211 34.1157 17.3492 34.0997 17.3893C34.0796 17.4295 34.0716 17.4736 34.0716 17.5258C34.0716 17.6261 34.1037 17.7024 34.1679 17.7545C34.2321 17.8107 34.3244 17.8348 34.4448 17.8348C34.6454 17.8348 34.8019 17.7826 34.9143 17.6703C34.9745 17.6101 35.0066 17.4897 35.0066 17.3131V17.0683ZM36.3777 16.037V16.3299C36.5462 16.0972 36.7629 15.9808 37.0278 15.9808C37.1642 15.9808 37.2806 16.0129 37.3809 16.0731C37.4812 16.1373 37.5575 16.2216 37.6056 16.3339C37.7702 16.1012 37.9949 15.9808 38.2758 15.9808C38.4684 15.9808 38.6329 16.041 38.7614 16.1574C38.8898 16.2737 38.954 16.4343 38.954 16.6389V18.1077H38.4965V16.8356C38.4965 16.6911 38.4684 16.5747 38.4203 16.4904C38.3681 16.4102 38.2718 16.366 38.1273 16.366C37.9788 16.366 37.8665 16.4142 37.7902 16.5065C37.71 16.5988 37.6738 16.7272 37.6738 16.8917V18.1077H37.2164V16.8115C37.2164 16.667 37.1923 16.5547 37.1482 16.4784C37.104 16.4062 37.0117 16.366 36.8753 16.366C36.7188 16.366 36.6024 16.4182 36.5221 16.5185C36.4419 16.6189 36.4017 16.7513 36.4017 16.9158V18.1077H35.9443V16.037H36.3777Z" fill="black"/>
</svg>
