<svg width="46" height="46" viewBox="0 0 46 46" fill="none" xmlns="http://www.w3.org/2000/svg">
<rect width="46" height="46" rx="11.3448" fill="#F3F3F3"/>
<rect x="0.405172" y="0.405172" width="45.1897" height="45.1897" rx="10.9397" stroke="#B02E0C" stroke-opacity="0.04" stroke-width="0.810345"/>
<rect x="2.08307" y="25.825" width="41.3667" height="11.6167" stroke="black" stroke-width="0.283333"/>
<path d="M6.19141 27.3833V35.8833" stroke="black" stroke-width="0.283333" stroke-linecap="square"/>
<path d="M9.50586 27.3833V35.8833" stroke="black" stroke-width="0.283333" stroke-linecap="square"/>
<path d="M12.8223 27.3833V35.8833" stroke="black" stroke-width="0.283333" stroke-linecap="square"/>
<path d="M16.1367 27.3833V35.8833" stroke="black" stroke-width="0.283333" stroke-linecap="square"/>
<path d="M19.4512 27.3833V35.8833" stroke="black" stroke-width="0.283333" stroke-linecap="square"/>
<path d="M22.7656 27.3833V35.8833" stroke="black" stroke-width="0.283333" stroke-linecap="square"/>
<path d="M26.082 27.3833V35.8833" stroke="black" stroke-width="0.283333" stroke-linecap="square"/>
<path d="M29.3965 27.3833V35.8833" stroke="black" stroke-width="0.283333" stroke-linecap="square"/>
<path d="M32.7109 27.3833V35.8833" stroke="black" stroke-width="0.283333" stroke-linecap="square"/>
<path d="M36.0273 27.3833V35.8833" stroke="black" stroke-width="0.283333" stroke-linecap="square"/>
<path d="M39.3418 27.3833V35.8833" stroke="black" stroke-width="0.283333" stroke-linecap="square"/>
<path d="M3.64062 30.7833V28.5166C3.64062 27.8907 4.14804 27.3833 4.77396 27.3833H40.7573C41.3832 27.3833 41.8906 27.8907 41.8906 28.5166V30.7833" stroke="#F7941D" stroke-width="0.283333" stroke-linecap="square"/>
<path d="M3.64062 32.4833V34.75C3.64062 35.3759 4.14804 35.8833 4.77396 35.8833H40.7573C41.3832 35.8833 41.8906 35.3759 41.8906 34.75V32.4833" stroke="#F7941D" stroke-width="0.283333" stroke-linecap="square"/>
<path d="M6.33203 31.4917L6.8987 31.8189V31.1645L6.33203 31.4917ZM9.30703 31.4917L8.74036 31.1645V31.8189L9.30703 31.4917ZM6.84203 31.4917V31.5484H8.79703V31.4917V31.435H6.84203V31.4917Z" fill="black"/>
<path d="M23.3305 39.9052V40.15H22.2244V38.5362H22.51V39.9052H23.3305Z" fill="black"/>
<rect x="2.03187" y="5.94044" width="14.8357" height="14.8357" stroke="black" stroke-width="0.18092"/>
<rect x="3.02601" y="6.93543" width="12.8456" height="12.8456" rx="1.3569" stroke="#F7941D" stroke-width="0.18092"/>
<circle cx="4.74518" cy="8.65411" r="0.723695" fill="#F7941D"/>
<circle cx="4.74518" cy="18.0622" r="0.723695" fill="#F7941D"/>
<circle cx="14.1233" cy="15.7666" r="0.566667" fill="#B02E0C"/>
<circle cx="4.7737" cy="15.7666" r="0.566667" fill="#B02E0C"/>
<circle cx="14.1534" cy="8.65411" r="0.723695" fill="#F7941D"/>
<circle cx="14.1534" cy="18.0622" r="0.723695" fill="#F7941D"/>
<path d="M4.02098 10.0111C2.21174 7.16158 3.79406 6.07605 6.10131 8.2019" stroke="#B02E0C" stroke-width="0.147132" stroke-linecap="round"/>
<path d="M8.72663 23.4333L9.30237 22.5969L8.76743 21.8195H9.10517L9.47237 22.3907L9.85543 21.8195H10.1728L9.63783 22.5969L10.2113 23.4333H9.86677L9.4633 22.8168L9.05303 23.4333H8.72663Z" fill="black"/>
<path d="M19.2913 12.7528L18.6838 13.7252V14.3667H18.405V13.7252L17.7953 12.7528H18.1217L18.5501 13.4668L18.974 12.7528H19.2913Z" fill="black"/>
<path d="M3.07422 12.0829L3.64089 12.4101V11.7557L3.07422 12.0829ZM3.58422 12.0829V12.1396H6.04922V12.0829V12.0262H3.58422V12.0829Z" fill="black"/>
<path d="M6.60041 11.3058H7.17331C7.29231 11.3058 7.39091 11.333 7.46741 11.3874C7.54221 11.4418 7.58131 11.5268 7.58131 11.6424C7.58131 11.7155 7.56261 11.7784 7.52861 11.8294C7.49291 11.8804 7.44361 11.9178 7.38071 11.9399C7.40961 11.9467 7.43511 11.9569 7.45721 11.9705C7.47761 11.9841 7.49461 11.9994 7.50651 12.0147C7.51841 12.0317 7.52861 12.0521 7.53711 12.0759C7.54391 12.1014 7.54901 12.1235 7.55241 12.1422C7.55581 12.1609 7.55751 12.1847 7.56091 12.2153C7.56091 12.2238 7.56261 12.2391 7.56431 12.2612C7.56601 12.285 7.56771 12.3003 7.56771 12.3071C7.56771 12.3139 7.56941 12.3275 7.57111 12.3445C7.57281 12.3632 7.57451 12.3768 7.57621 12.3836C7.57621 12.3904 7.57791 12.4023 7.58131 12.4159C7.58471 12.4295 7.58641 12.4414 7.58981 12.4482C7.59151 12.455 7.59491 12.4635 7.59831 12.4737C7.60171 12.4839 7.60511 12.4907 7.61021 12.4975C7.61361 12.5043 7.61871 12.5111 7.62551 12.5162H7.39771C7.39431 12.5128 7.39091 12.5077 7.38751 12.5009C7.38411 12.4941 7.38241 12.4873 7.38071 12.4805C7.37731 12.4737 7.37561 12.4669 7.37561 12.4601C7.37391 12.4533 7.37221 12.4448 7.37051 12.4346C7.36881 12.4244 7.36881 12.4142 7.36881 12.4074L7.36541 12.3768L7.36201 12.3462C7.36201 12.3394 7.36031 12.3275 7.36031 12.3105C7.35861 12.2935 7.35861 12.2816 7.35861 12.2748C7.35181 12.1762 7.33141 12.1099 7.29571 12.0725C7.26001 12.0351 7.19201 12.0164 7.09341 12.0164H6.81121V12.5162H6.60041V11.3058ZM6.81121 11.4792V11.8583H7.09171C7.13251 11.8583 7.16651 11.8566 7.19541 11.8515C7.22261 11.8481 7.25151 11.8396 7.28041 11.8277C7.30931 11.8158 7.33141 11.7954 7.34671 11.7682C7.36201 11.741 7.37051 11.707 7.37051 11.6645C7.37051 11.6271 7.36371 11.5948 7.35011 11.5693C7.33651 11.5438 7.31611 11.5251 7.29061 11.5115C7.26511 11.4996 7.23961 11.4911 7.21241 11.486C7.18521 11.4826 7.15461 11.4792 7.11891 11.4792H6.81121Z" fill="black"/>
<path d="M13.1177 9.60625H13.5784C13.6617 9.60625 13.7348 9.61645 13.7994 9.63345C13.8623 9.65045 13.9201 9.68275 13.9745 9.73035C14.0935 9.83745 14.153 9.99045 14.153 10.1911C14.153 10.4053 14.0952 10.5702 13.983 10.6824C13.932 10.7334 13.8776 10.7674 13.8198 10.7878C13.762 10.8082 13.6855 10.8167 13.5903 10.8167H13.1177V9.60625ZM13.3285 9.78645V10.6382H13.5784C13.711 10.6382 13.8045 10.6008 13.8589 10.5226C13.9133 10.4461 13.9405 10.339 13.9405 10.2013C13.9405 10.0721 13.9099 9.97005 13.8487 9.89695C13.7875 9.82385 13.6923 9.78645 13.5648 9.78645H13.3285ZM14.858 9.61985V10.8167H14.6506V9.99385H14.3548V9.85105C14.5605 9.85105 14.6761 9.77455 14.7016 9.61985H14.858Z" fill="black"/>
<path d="M10.8521 17.2563H11.3128C11.3961 17.2563 11.4692 17.2665 11.5338 17.2835C11.5967 17.3005 11.6545 17.3328 11.7089 17.3804C11.8279 17.4875 11.8874 17.6405 11.8874 17.8411C11.8874 18.0553 11.8296 18.2202 11.7174 18.3324C11.6664 18.3834 11.612 18.4174 11.5542 18.4378C11.4964 18.4582 11.4199 18.4667 11.3247 18.4667H10.8521V17.2563ZM11.0629 17.4365V18.2882H11.3128C11.4454 18.2882 11.5389 18.2508 11.5933 18.1726C11.6477 18.0961 11.6749 17.989 11.6749 17.8513C11.6749 17.7221 11.6443 17.6201 11.5831 17.547C11.5219 17.4739 11.4267 17.4365 11.2992 17.4365H11.0629ZM12.8032 18.295V18.4667H11.9906C11.9906 18.414 11.9991 18.3647 12.0127 18.3205C12.0263 18.2763 12.0416 18.2389 12.0586 18.2083C12.0756 18.1777 12.1028 18.1454 12.1368 18.1131C12.1708 18.0808 12.2031 18.0536 12.2303 18.0332C12.2575 18.0128 12.2966 17.9856 12.3459 17.9516C12.3493 17.9499 12.3646 17.9397 12.3952 17.9193C12.4258 17.8989 12.4445 17.887 12.4513 17.8819C12.4581 17.8768 12.4734 17.8649 12.4972 17.8462C12.521 17.8275 12.5363 17.8122 12.5431 17.8003C12.5499 17.7901 12.5601 17.7748 12.5737 17.7544C12.5873 17.7357 12.5958 17.717 12.6009 17.6966C12.6043 17.6762 12.6077 17.6558 12.6077 17.632C12.6077 17.5708 12.589 17.5215 12.555 17.4858C12.521 17.4501 12.4734 17.4314 12.4156 17.4314C12.3816 17.4314 12.351 17.4382 12.3272 17.4484C12.3017 17.4586 12.2813 17.4722 12.2677 17.4892C12.2541 17.5062 12.2422 17.5283 12.2337 17.5555C12.2235 17.5827 12.2184 17.6065 12.215 17.6303C12.2116 17.6541 12.2099 17.683 12.2099 17.7136H12.0212V17.683C12.0212 17.5555 12.0569 17.4535 12.1283 17.3787C12.1997 17.3039 12.2983 17.2648 12.4207 17.2648C12.5363 17.2648 12.6281 17.2988 12.6995 17.3634C12.7692 17.428 12.8049 17.5147 12.8049 17.6218C12.8049 17.666 12.7981 17.7068 12.7845 17.7442C12.7709 17.7833 12.7556 17.8139 12.7403 17.8377C12.725 17.8615 12.6995 17.8904 12.6621 17.921C12.6247 17.9533 12.5958 17.9754 12.5788 17.9873C12.5601 18.0009 12.5261 18.023 12.4785 18.0553C12.3357 18.1471 12.2507 18.227 12.2235 18.295H12.8032Z" fill="black"/>
<path d="M13.1177 13.2896H13.5784C13.6617 13.2896 13.7348 13.2998 13.7994 13.3168C13.8623 13.3338 13.9201 13.3661 13.9745 13.4137C14.0935 13.5208 14.153 13.6738 14.153 13.8744C14.153 14.0886 14.0952 14.2535 13.983 14.3657C13.932 14.4167 13.8776 14.4507 13.8198 14.4711C13.762 14.4915 13.6855 14.5 13.5903 14.5H13.1177V13.2896ZM13.3285 13.4698V14.3215H13.5784C13.711 14.3215 13.8045 14.2841 13.8589 14.2059C13.9133 14.1294 13.9405 14.0223 13.9405 13.8846C13.9405 13.7554 13.9099 13.6534 13.8487 13.5803C13.7875 13.5072 13.6923 13.4698 13.5648 13.4698H13.3285ZM14.2919 13.6925C14.2953 13.5701 14.331 13.4749 14.4007 13.4035C14.4687 13.3338 14.5622 13.2981 14.6795 13.2981C14.7883 13.2981 14.8784 13.3287 14.9464 13.3865C15.0144 13.446 15.0484 13.5225 15.0484 13.6177C15.0484 13.6755 15.0331 13.7265 15.0025 13.7707C14.9719 13.8149 14.9328 13.8438 14.8818 13.8608C14.9481 13.8778 15.0008 13.9118 15.0399 13.9611C15.0773 14.0104 15.0977 14.0699 15.0977 14.1413C15.0977 14.2552 15.0586 14.347 14.9804 14.4184C14.9022 14.4898 14.8002 14.5255 14.6761 14.5255C14.552 14.5255 14.4517 14.4898 14.3769 14.4184C14.3004 14.347 14.263 14.2535 14.263 14.1345V14.109H14.45C14.4551 14.2756 14.5316 14.3589 14.6812 14.3589C14.7458 14.3589 14.7985 14.3402 14.8376 14.3028C14.875 14.2654 14.8954 14.2127 14.8954 14.1464C14.8954 14.0784 14.8733 14.0274 14.8291 13.9951C14.7849 13.9645 14.7271 13.9475 14.6574 13.9475C14.6353 13.9475 14.6149 13.9492 14.5962 13.9492V13.803H14.6132C14.6472 13.803 14.6778 13.8013 14.7033 13.7979C14.7271 13.7945 14.7526 13.786 14.7781 13.7758C14.8036 13.7656 14.824 13.7469 14.8376 13.7231C14.8512 13.6993 14.858 13.6687 14.858 13.6313C14.858 13.5803 14.841 13.5378 14.8087 13.5055C14.7747 13.4749 14.7305 13.4579 14.6761 13.4579C14.5486 13.4579 14.4823 13.5361 14.4772 13.6925H14.2919Z" fill="#B02E0C"/>
<path d="M27.4031 12.6993V13.1H25.507C25.507 12.977 25.5268 12.862 25.5586 12.7588C25.5903 12.6557 25.626 12.5684 25.6657 12.497C25.7053 12.4256 25.7688 12.3503 25.8481 12.2749C25.9275 12.1995 26.0028 12.1361 26.0663 12.0885C26.1298 12.0409 26.221 11.9774 26.336 11.8981C26.344 11.8941 26.3797 11.8703 26.4511 11.8227C26.5225 11.7751 26.5661 11.7473 26.582 11.7354C26.5978 11.7235 26.6335 11.6958 26.6891 11.6521C26.7446 11.6085 26.7803 11.5728 26.7962 11.545C26.812 11.5212 26.8358 11.4855 26.8676 11.4379C26.8993 11.3943 26.9191 11.3507 26.931 11.3031C26.939 11.2555 26.9469 11.2079 26.9469 11.1523C26.9469 11.0095 26.9033 10.8945 26.8239 10.8112C26.7446 10.7279 26.6335 10.6843 26.4987 10.6843C26.4193 10.6843 26.3479 10.7001 26.2924 10.7239C26.2329 10.7477 26.1853 10.7795 26.1536 10.8191C26.1218 10.8588 26.0941 10.9104 26.0742 10.9738C26.0504 11.0373 26.0385 11.0928 26.0306 11.1484C26.0227 11.2039 26.0187 11.2713 26.0187 11.3427H25.5784V11.2713C25.5784 10.9738 25.6617 10.7358 25.8283 10.5613C25.9949 10.3868 26.225 10.2955 26.5106 10.2955C26.7803 10.2955 26.9945 10.3749 27.1611 10.5256C27.3237 10.6763 27.407 10.8786 27.407 11.1285C27.407 11.2317 27.3912 11.3269 27.3594 11.4141C27.3277 11.5054 27.292 11.5768 27.2563 11.6323C27.2206 11.6878 27.1611 11.7553 27.0738 11.8267C26.9866 11.902 26.9191 11.9536 26.8795 11.9814C26.8358 12.0131 26.7565 12.0647 26.6454 12.14C26.3122 12.3542 26.1139 12.5407 26.0504 12.6993H27.4031ZM31.4411 12.025C31.4133 12.3741 31.2903 12.6517 31.0682 12.858C30.8461 13.0643 30.5605 13.1674 30.2114 13.1674C29.8108 13.1674 29.4895 13.0325 29.2515 12.7628C29.0095 12.4931 28.8905 12.1361 28.8905 11.6878C28.8905 11.4181 28.9421 11.1761 29.0452 10.954C29.1483 10.7319 29.303 10.5534 29.5093 10.4185C29.7156 10.2836 29.9575 10.2122 30.2352 10.2122C30.5327 10.2122 30.7945 10.2955 31.0166 10.4621C31.2388 10.6287 31.3697 10.8667 31.4173 11.1761H30.9254C30.8897 11.0095 30.8104 10.8747 30.6874 10.7795C30.5605 10.6843 30.4097 10.6327 30.2273 10.6327C30.0369 10.6327 29.8782 10.6882 29.7473 10.7914C29.6164 10.8985 29.5252 11.0294 29.4696 11.1841C29.4141 11.3388 29.3903 11.5054 29.3903 11.6878C29.3903 11.8267 29.4062 11.9576 29.4379 12.0766C29.4696 12.1995 29.5172 12.3106 29.5807 12.4137C29.6442 12.5169 29.7275 12.5962 29.8385 12.6557C29.9496 12.7192 30.0765 12.7469 30.2233 12.7469C30.6438 12.7469 30.8818 12.5089 30.9452 12.025H31.4411ZM33.6215 11.0532V13.1H33.197V12.7945C33.0225 13.0365 32.8004 13.1555 32.5227 13.1555C32.2966 13.1555 32.1221 13.092 32.0031 12.9651C31.8841 12.8382 31.8246 12.6517 31.8246 12.4098V11.0532H32.2768V12.2233C32.2768 12.2947 32.2768 12.3542 32.2807 12.3979C32.2807 12.4415 32.2887 12.4891 32.3045 12.5446C32.3204 12.6002 32.3402 12.6398 32.368 12.6676C32.3958 12.6993 32.4354 12.7231 32.487 12.743C32.5386 12.7668 32.602 12.7747 32.6774 12.7747C32.844 12.7747 32.9709 12.7152 33.0503 12.5962C33.1296 12.4772 33.1693 12.3225 33.1693 12.1361V11.0532H33.6215ZM35.2606 11.0135V11.4459C35.1812 11.4379 35.1257 11.434 35.1019 11.434C34.7052 11.434 34.5109 11.6918 34.5109 12.1995V13.1H34.0626V11.0532H34.4871V11.4617C34.6299 11.1603 34.8599 11.0056 35.1733 11.0056L35.2606 11.0135ZM36.4964 11.0532V11.3824H36.0839V12.4613C36.0839 12.5248 36.0839 12.5724 36.0879 12.5962C36.0879 12.62 36.0958 12.6478 36.1117 12.6795C36.1236 12.7112 36.1474 12.7311 36.1791 12.739C36.2108 12.7509 36.2584 12.7549 36.3179 12.7549C36.3893 12.7549 36.4488 12.7549 36.4964 12.7469V13.1039C36.4052 13.1158 36.3021 13.1198 36.191 13.1198C36.1117 13.1198 36.0403 13.1158 35.9808 13.1039C35.9213 13.092 35.8737 13.0762 35.834 13.0603C35.7943 13.0444 35.7586 13.0206 35.7348 12.981C35.7071 12.9413 35.6872 12.9096 35.6714 12.8858C35.6555 12.862 35.6476 12.8144 35.6396 12.7509C35.6317 12.6874 35.6317 12.6398 35.6317 12.6081V12.4336V12.4098V12.386V12.3582V11.3824H35.2906V11.0532H35.6317V10.4383H36.0839V11.0532H36.4964ZM36.7979 11.6839C36.8455 11.2237 37.143 10.9897 37.6944 10.9897C37.9483 10.9897 38.1545 11.0413 38.3053 11.1404C38.456 11.2436 38.5353 11.3983 38.5353 11.6085V12.6478C38.5353 12.7073 38.5393 12.7469 38.5552 12.7668C38.571 12.7906 38.5988 12.7985 38.6424 12.7985C38.6742 12.7985 38.7059 12.7985 38.7456 12.7906V13.1079C38.6266 13.1396 38.5314 13.1515 38.452 13.1515C38.2577 13.1515 38.1466 13.0722 38.1188 12.9056C37.9443 13.0722 37.7063 13.1515 37.4009 13.1515C37.1867 13.1515 37.0201 13.1 36.8971 12.9889C36.7702 12.8778 36.7107 12.7311 36.7107 12.5407C36.7107 12.4851 36.7146 12.4296 36.7305 12.378C36.7424 12.3304 36.7583 12.2868 36.7741 12.2471C36.79 12.2114 36.8178 12.1757 36.8574 12.144C36.8971 12.1123 36.9288 12.0885 36.9526 12.0647C36.9764 12.0448 37.0201 12.025 37.0756 12.0052C37.1311 11.9893 37.1748 11.9734 37.2025 11.9655C37.2303 11.9576 37.2779 11.9457 37.3493 11.9338C37.4167 11.9258 37.4604 11.9179 37.4842 11.9139C37.508 11.91 37.5556 11.902 37.627 11.8941C37.7856 11.8743 37.8967 11.8584 37.9562 11.8425C38.0117 11.8267 38.0514 11.8068 38.0752 11.7751C38.0911 11.7553 38.103 11.7077 38.103 11.6283C38.103 11.4221 37.9602 11.3189 37.6825 11.3189C37.5318 11.3189 37.4247 11.3467 37.3572 11.4022C37.2858 11.4578 37.2422 11.553 37.2263 11.6839H36.7979ZM38.099 12.0726C38.0633 12.0924 38.0236 12.1083 37.98 12.1242C37.9324 12.14 37.8967 12.148 37.8689 12.1519C37.8412 12.1559 37.7975 12.1599 37.738 12.1678C37.6785 12.1757 37.6389 12.1837 37.623 12.1837C37.5675 12.1916 37.5238 12.1995 37.4921 12.2075C37.4604 12.2154 37.4207 12.2233 37.3731 12.2392C37.3255 12.2551 37.2898 12.2749 37.266 12.2987C37.2422 12.3225 37.2184 12.3503 37.2025 12.3899C37.1827 12.4296 37.1748 12.4732 37.1748 12.5248C37.1748 12.624 37.2065 12.6993 37.27 12.7509C37.3334 12.8064 37.4247 12.8302 37.5437 12.8302C37.742 12.8302 37.8967 12.7787 38.0078 12.6676C38.0673 12.6081 38.099 12.4891 38.099 12.3146V12.0726ZM39.486 10.2638V10.7081H39.0338V10.2638H39.486ZM39.486 11.0532V13.1H39.0338V11.0532H39.486ZM40.4428 10.2757V13.1H39.9946V10.2757H40.4428ZM24.399 16.0607V16.4415H24.046V17.1H23.6097L23.6057 16.4415H22.4276V15.9933L23.6176 14.2995H24.046V16.0607H24.399ZM23.6136 16.0607V14.8588L22.8005 16.0607H23.6136ZM25.9301 14.2757H27.2193C27.5128 14.2757 27.7389 14.3431 27.8976 14.4701C28.0562 14.597 28.1356 14.7715 28.1356 14.9857C28.1356 15.1206 28.0959 15.2436 28.0245 15.3507C27.9491 15.4578 27.85 15.5331 27.731 15.5807C27.8936 15.6204 28.0245 15.6997 28.1197 15.8187C28.2149 15.9377 28.2625 16.0885 28.2625 16.267C28.2625 16.5169 28.1792 16.7192 28.0126 16.8699C27.846 17.0246 27.6318 17.1 27.37 17.1H25.9301V14.2757ZM26.414 14.6763V15.4538H27.0884C27.2788 15.4538 27.4176 15.426 27.5088 15.3665C27.5961 15.307 27.6437 15.2079 27.6437 15.0651C27.6437 14.9064 27.5961 14.8033 27.5009 14.7517C27.4057 14.7041 27.2748 14.6763 27.1042 14.6763H26.414ZM26.414 15.8108V16.6954H27.1558C27.3462 16.6954 27.493 16.6636 27.604 16.6002C27.7111 16.5367 27.7667 16.4217 27.7667 16.2551C27.7667 16.1638 27.7468 16.0885 27.7151 16.025C27.6834 15.9615 27.6358 15.9179 27.5723 15.8862C27.5088 15.8584 27.4454 15.8386 27.3819 15.8267C27.3145 15.8187 27.2351 15.8108 27.1479 15.8108H26.414ZM28.6477 15.6839C28.6953 15.2237 28.9928 14.9897 29.5441 14.9897C29.798 14.9897 30.0043 15.0413 30.155 15.1404C30.3057 15.2436 30.3851 15.3983 30.3851 15.6085V16.6478C30.3851 16.7073 30.389 16.7469 30.4049 16.7668C30.4208 16.7906 30.4485 16.7985 30.4922 16.7985C30.5239 16.7985 30.5556 16.7985 30.5953 16.7906V17.1079C30.4763 17.1396 30.3811 17.1515 30.3018 17.1515C30.1074 17.1515 29.9963 17.0722 29.9686 16.9056C29.794 17.0722 29.556 17.1515 29.2506 17.1515C29.0364 17.1515 28.8698 17.1 28.7468 16.9889C28.6199 16.8778 28.5604 16.7311 28.5604 16.5407C28.5604 16.4851 28.5644 16.4296 28.5802 16.378C28.5921 16.3304 28.608 16.2868 28.6239 16.2471C28.6397 16.2114 28.6675 16.1757 28.7072 16.144C28.7468 16.1123 28.7786 16.0885 28.8024 16.0647C28.8262 16.0448 28.8698 16.025 28.9253 16.0052C28.9809 15.9893 29.0245 15.9734 29.0523 15.9655C29.08 15.9576 29.1276 15.9457 29.199 15.9338C29.2665 15.9258 29.3101 15.9179 29.3339 15.9139C29.3577 15.91 29.4053 15.902 29.4767 15.8941C29.6354 15.8743 29.7464 15.8584 29.8059 15.8425C29.8615 15.8267 29.9011 15.8068 29.9249 15.7751C29.9408 15.7553 29.9527 15.7077 29.9527 15.6283C29.9527 15.4221 29.8099 15.3189 29.5322 15.3189C29.3815 15.3189 29.2744 15.3467 29.207 15.4022C29.1356 15.4578 29.0919 15.553 29.0761 15.6839H28.6477ZM29.9487 16.0726C29.913 16.0924 29.8734 16.1083 29.8297 16.1242C29.7821 16.14 29.7464 16.148 29.7187 16.1519C29.6909 16.1559 29.6473 16.1599 29.5878 16.1678C29.5283 16.1757 29.4886 16.1837 29.4727 16.1837C29.4172 16.1916 29.3736 16.1995 29.3418 16.2075C29.3101 16.2154 29.2704 16.2233 29.2228 16.2392C29.1752 16.2551 29.1395 16.2749 29.1157 16.2987C29.0919 16.3225 29.0681 16.3503 29.0523 16.3899C29.0324 16.4296 29.0245 16.4732 29.0245 16.5248C29.0245 16.624 29.0562 16.6993 29.1197 16.7509C29.1832 16.8064 29.2744 16.8302 29.3934 16.8302C29.5917 16.8302 29.7464 16.7787 29.8575 16.6676C29.917 16.6081 29.9487 16.4891 29.9487 16.3146V16.0726ZM32.0299 15.0135V15.4459C31.9506 15.4379 31.895 15.434 31.8712 15.434C31.4746 15.434 31.2802 15.6918 31.2802 16.1995V17.1H30.832V15.0532H31.2564V15.4617C31.3992 15.1603 31.6293 15.0056 31.9426 15.0056L32.0299 15.0135ZM33.4257 14.2757H34.7149C35.0084 14.2757 35.2345 14.3431 35.3932 14.4701C35.5518 14.597 35.6312 14.7715 35.6312 14.9857C35.6312 15.1206 35.5915 15.2436 35.5201 15.3507C35.4447 15.4578 35.3456 15.5331 35.2266 15.5807C35.3892 15.6204 35.5201 15.6997 35.6153 15.8187C35.7105 15.9377 35.7581 16.0885 35.7581 16.267C35.7581 16.5169 35.6748 16.7192 35.5082 16.8699C35.3416 17.0246 35.1274 17.1 34.8656 17.1H33.4257V14.2757ZM33.9096 14.6763V15.4538H34.584C34.7744 15.4538 34.9132 15.426 35.0044 15.3665C35.0917 15.307 35.1393 15.2079 35.1393 15.0651C35.1393 14.9064 35.0917 14.8033 34.9965 14.7517C34.9013 14.7041 34.7704 14.6763 34.5998 14.6763H33.9096ZM33.9096 15.8108V16.6954H34.6514C34.8418 16.6954 34.9886 16.6636 35.0996 16.6002C35.2067 16.5367 35.2623 16.4217 35.2623 16.2551C35.2623 16.1638 35.2424 16.0885 35.2107 16.025C35.179 15.9615 35.1314 15.9179 35.0679 15.8862C35.0044 15.8584 34.941 15.8386 34.8775 15.8267C34.8101 15.8187 34.7307 15.8108 34.6435 15.8108H33.9096ZM37.9957 16.4613C37.9441 16.6835 37.8331 16.858 37.6665 16.981C37.4999 17.1079 37.2976 17.1674 37.0675 17.1674C36.7581 17.1674 36.5122 17.0682 36.3297 16.8699C36.1472 16.6716 36.06 16.4137 36.06 16.1004C36.06 15.783 36.1512 15.5173 36.3376 15.307C36.5241 15.1008 36.7621 14.9937 37.0516 14.9937C37.3491 14.9937 37.5871 15.0968 37.7617 15.3031C37.9362 15.5093 38.0235 15.787 38.0235 16.14V16.1876H36.5122C36.5161 16.3939 36.5677 16.5565 36.6669 16.6676C36.7621 16.7787 36.9009 16.8342 37.0754 16.8342C37.1984 16.8342 37.2976 16.8064 37.3769 16.7469C37.4562 16.6874 37.5157 16.5922 37.5633 16.4613H37.9957ZM37.5713 15.8862C37.5554 15.7156 37.5038 15.5807 37.4086 15.4816C37.3134 15.3824 37.1944 15.3308 37.0477 15.3308C36.8969 15.3308 36.7779 15.3784 36.6867 15.4736C36.5955 15.5688 36.5399 15.7077 36.5201 15.8862H37.5713ZM38.3474 15.6839C38.395 15.2237 38.6925 14.9897 39.2439 14.9897C39.4977 14.9897 39.704 15.0413 39.8547 15.1404C40.0055 15.2436 40.0848 15.3983 40.0848 15.6085V16.6478C40.0848 16.7073 40.0888 16.7469 40.1046 16.7668C40.1205 16.7906 40.1483 16.7985 40.1919 16.7985C40.2236 16.7985 40.2554 16.7985 40.295 16.7906V17.1079C40.176 17.1396 40.0808 17.1515 40.0015 17.1515C39.8071 17.1515 39.6961 17.0722 39.6683 16.9056C39.4938 17.0722 39.2558 17.1515 38.9503 17.1515C38.7361 17.1515 38.5695 17.1 38.4466 16.9889C38.3196 16.8778 38.2601 16.7311 38.2601 16.5407C38.2601 16.4851 38.2641 16.4296 38.28 16.378C38.2919 16.3304 38.3077 16.2868 38.3236 16.2471C38.3395 16.2114 38.3672 16.1757 38.4069 16.144C38.4466 16.1123 38.4783 16.0885 38.5021 16.0647C38.5259 16.0448 38.5695 16.025 38.6251 16.0052C38.6806 15.9893 38.7242 15.9734 38.752 15.9655C38.7798 15.9576 38.8274 15.9457 38.8988 15.9338C38.9662 15.9258 39.0098 15.9179 39.0336 15.9139C39.0574 15.91 39.105 15.902 39.1764 15.8941C39.3351 15.8743 39.4462 15.8584 39.5057 15.8425C39.5612 15.8267 39.6009 15.8068 39.6247 15.7751C39.6405 15.7553 39.6524 15.7077 39.6524 15.6283C39.6524 15.4221 39.5096 15.3189 39.232 15.3189C39.0812 15.3189 38.9741 15.3467 38.9067 15.4022C38.8353 15.4578 38.7917 15.553 38.7758 15.6839H38.3474ZM39.6485 16.0726C39.6128 16.0924 39.5731 16.1083 39.5295 16.1242C39.4819 16.14 39.4462 16.148 39.4184 16.1519C39.3906 16.1559 39.347 16.1599 39.2875 16.1678C39.228 16.1757 39.1883 16.1837 39.1725 16.1837C39.1169 16.1916 39.0733 16.1995 39.0416 16.2075C39.0098 16.2154 38.9702 16.2233 38.9226 16.2392C38.875 16.2551 38.8393 16.2749 38.8155 16.2987C38.7917 16.3225 38.7679 16.3503 38.752 16.3899C38.7322 16.4296 38.7242 16.4732 38.7242 16.5248C38.7242 16.624 38.756 16.6993 38.8194 16.7509C38.8829 16.8064 38.9741 16.8302 39.0931 16.8302C39.2915 16.8302 39.4462 16.7787 39.5572 16.6676C39.6167 16.6081 39.6485 16.4891 39.6485 16.3146V16.0726ZM41.0037 15.0532V15.3427C41.1703 15.1127 41.3845 14.9976 41.6463 14.9976C41.7812 14.9976 41.8962 15.0294 41.9954 15.0889C42.0946 15.1523 42.1699 15.2356 42.2175 15.3467C42.3802 15.1166 42.6023 14.9976 42.88 14.9976C43.0704 14.9976 43.233 15.0571 43.3599 15.1722C43.4869 15.2872 43.5503 15.4459 43.5503 15.6482V17.1H43.0981V15.8425C43.0981 15.6997 43.0704 15.5847 43.0228 15.5014C42.9712 15.4221 42.876 15.3784 42.7332 15.3784C42.5864 15.3784 42.4754 15.426 42.4 15.5173C42.3207 15.6085 42.285 15.7354 42.285 15.8981V17.1H41.8328V15.8187C41.8328 15.6759 41.809 15.5649 41.7653 15.4895C41.7217 15.4181 41.6305 15.3784 41.4956 15.3784C41.3409 15.3784 41.2259 15.43 41.1465 15.5292C41.0672 15.6283 41.0275 15.7592 41.0275 15.9219V17.1H40.5753V15.0532H41.0037Z" fill="black"/>
<path d="M24.3559 33.0221C24.344 33.1717 24.2913 33.2907 24.1961 33.3791C24.1009 33.4675 23.9785 33.5117 23.8289 33.5117C23.6572 33.5117 23.5195 33.4539 23.4175 33.3383C23.3138 33.2227 23.2628 33.0697 23.2628 32.8776C23.2628 32.762 23.2849 32.6583 23.3291 32.5631C23.3733 32.4679 23.4396 32.3914 23.528 32.3336C23.6164 32.2758 23.7201 32.2452 23.8391 32.2452C23.9666 32.2452 24.0788 32.2809 24.174 32.3523C24.2692 32.4237 24.3253 32.5257 24.3457 32.6583H24.1349C24.1196 32.5869 24.0856 32.5291 24.0329 32.4883C23.9785 32.4475 23.9139 32.4254 23.8357 32.4254C23.7541 32.4254 23.6861 32.4492 23.63 32.4934C23.5739 32.5393 23.5348 32.5954 23.511 32.6617C23.4872 32.728 23.477 32.7994 23.477 32.8776C23.477 32.9371 23.4838 32.9932 23.4974 33.0442C23.511 33.0969 23.5314 33.1445 23.5586 33.1887C23.5858 33.2329 23.6215 33.2669 23.6691 33.2924C23.7167 33.3196 23.7711 33.3315 23.834 33.3315C24.0142 33.3315 24.1162 33.2295 24.1434 33.0221H24.3559ZM25.3737 33.2992V33.4828H24.5441V32.2724H24.7583V33.2992H25.3737Z" fill="#B02E0C"/>
<path d="M6.33203 34.1829H39.1987" stroke="#B02E0C" stroke-width="0.226667" stroke-linecap="square"/>
<path d="M8.32212 29.5133H8.11982C8.10622 29.3722 8.01952 29.3008 7.85632 29.3008C7.78322 29.3008 7.72712 29.3161 7.68632 29.3467C7.64552 29.3773 7.62512 29.4181 7.62512 29.4691C7.62512 29.5184 7.63872 29.5524 7.66932 29.5694C7.69992 29.5881 7.76622 29.6102 7.86992 29.6357C7.89712 29.6442 7.91752 29.6493 7.93282 29.6527C8.06712 29.6867 8.15892 29.7173 8.20822 29.7445C8.31532 29.8023 8.36972 29.8924 8.36972 30.0148C8.36972 30.0692 8.35952 30.1168 8.34252 30.1593C8.32382 30.2035 8.30002 30.2392 8.26942 30.2681C8.23882 30.297 8.20142 30.3208 8.16062 30.3395C8.11812 30.3599 8.07392 30.3735 8.02972 30.382C7.98382 30.3905 7.93622 30.3939 7.88862 30.3939C7.73562 30.3939 7.61322 30.3582 7.51972 30.2851C7.42452 30.2137 7.37862 30.1066 7.37862 29.9655H7.58772C7.58772 30.0539 7.61662 30.1202 7.67442 30.1627C7.73222 30.2052 7.80702 30.2256 7.90052 30.2256C7.98212 30.2256 8.04502 30.2103 8.09092 30.1763C8.13682 30.1423 8.16062 30.0964 8.16062 30.0352C8.16062 29.9978 8.14702 29.9655 8.12322 29.9417C8.09942 29.9179 8.07222 29.8992 8.04502 29.889C8.01612 29.8788 7.96682 29.8652 7.89712 29.8465C7.88862 29.8448 7.88182 29.8431 7.87842 29.8414C7.72712 29.804 7.62852 29.7717 7.58092 29.7462C7.48232 29.6952 7.42962 29.617 7.42282 29.5099V29.4861C7.42282 29.379 7.46192 29.294 7.54352 29.2294C7.62512 29.1648 7.73392 29.1325 7.86992 29.1325C8.00082 29.1325 8.10792 29.1648 8.19122 29.226C8.27282 29.2889 8.31702 29.3841 8.32212 29.5133Z" fill="black"/>
</svg>
