<svg width="46" height="46" viewBox="0 0 46 46" fill="none" xmlns="http://www.w3.org/2000/svg">
<rect width="46" height="46" rx="11.1034" fill="#F3F3F3"/>
<rect x="0.396552" y="0.396552" width="45.2069" height="45.2069" rx="10.7069" stroke="#B02E0C" stroke-opacity="0.04" stroke-width="0.793103"/>
<rect x="3.13605" y="26.9456" width="39.7279" height="11.1565" stroke="black" stroke-width="0.272109"/>
<path d="M7.08203 28.442V36.6053" stroke="black" stroke-width="0.272109" stroke-linecap="square"/>
<path d="M10.2656 28.4423V36.6055" stroke="black" stroke-width="0.272109" stroke-linecap="square"/>
<path d="M13.4492 28.4423V36.6055" stroke="black" stroke-width="0.272109" stroke-linecap="square"/>
<path d="M16.6328 28.4423V36.6055" stroke="black" stroke-width="0.272109" stroke-linecap="square"/>
<path d="M19.8164 28.442V36.6053" stroke="black" stroke-width="0.272109" stroke-linecap="square"/>
<path d="M23 28.442V36.6053" stroke="black" stroke-width="0.272109" stroke-linecap="square"/>
<path d="M26.1836 28.442V36.6053" stroke="black" stroke-width="0.272109" stroke-linecap="square"/>
<path d="M29.3672 28.4423V36.6055" stroke="black" stroke-width="0.272109" stroke-linecap="square"/>
<path d="M32.5508 28.4423V36.6055" stroke="black" stroke-width="0.272109" stroke-linecap="square"/>
<path d="M35.7344 28.4423V36.6055" stroke="black" stroke-width="0.272109" stroke-linecap="square"/>
<path d="M38.918 28.442V36.6053" stroke="black" stroke-width="0.272109" stroke-linecap="square"/>
<path d="M4.63281 31.7073V29.5305C4.63281 28.9293 5.12012 28.442 5.72125 28.442H40.2791C40.8802 28.442 41.3675 28.9293 41.3675 29.5305V31.7073" stroke="#F7941D" stroke-width="0.272109" stroke-linecap="square"/>
<path d="M4.63281 33.3403V35.5172C4.63281 36.1183 5.12012 36.6056 5.72125 36.6056H40.2791C40.8802 36.6056 41.3675 36.1183 41.3675 35.5172V33.3403" stroke="#F7941D" stroke-width="0.272109" stroke-linecap="square"/>
<path d="M7.2168 32.3877L7.76101 32.7019V32.0735L7.2168 32.3877ZM10.0739 32.3877L9.52972 32.0735V32.7019L10.0739 32.3877ZM7.70659 32.3877V32.4421H9.58414V32.3877V32.3333H7.70659V32.3877Z" fill="black"/>
<rect x="3.08688" y="7.84884" width="14.248" height="14.248" stroke="black" stroke-width="0.173753"/>
<rect x="4.04391" y="8.80428" width="12.3367" height="12.3367" rx="1.30315" stroke="#F7941D" stroke-width="0.173753"/>
<circle cx="5.69307" cy="10.4548" r="0.695025" fill="#F7941D"/>
<circle cx="5.69307" cy="19.4903" r="0.695025" fill="#F7941D"/>
<circle cx="14.7282" cy="10.4548" r="0.695025" fill="#F7941D"/>
<circle cx="14.7282" cy="19.4903" r="0.695025" fill="#F7941D"/>
<path d="M4.99771 11.7581C3.26015 9.02142 4.77978 7.97889 6.99562 10.0205" stroke="#B02E0C" stroke-width="0.141303" stroke-linecap="round"/>
<path d="M4.08789 14.837L4.63211 15.1512V14.5228L4.08789 14.837ZM4.57769 14.837V14.8915H6.94503V14.837V14.7826H4.57769V14.837Z" fill="black"/>
<path d="M9.51819 24.7277L10.0711 23.9244L9.55737 23.1777H9.88173L10.2344 23.7263L10.6023 23.1777H10.907L10.3933 23.9244L10.944 24.7277H10.6132L10.2257 24.1356L9.83166 24.7277H9.51819Z" fill="black"/>
<path d="M19.6641 14.4702L19.0807 15.4041V16.0201H18.813V15.4041L18.2274 14.4702H18.5409L18.9523 15.1559L19.3594 14.4702H19.6641Z" fill="black"/>
<path d="M7.47433 14.13H8.02454C8.13882 14.13 8.23352 14.1562 8.30699 14.2084C8.37882 14.2606 8.41637 14.3423 8.41637 14.4533C8.41637 14.5235 8.39841 14.5839 8.36576 14.6329C8.33147 14.6819 8.28413 14.7178 8.22372 14.739C8.25147 14.7455 8.27596 14.7553 8.29719 14.7684C8.31678 14.7815 8.33311 14.7962 8.34454 14.8108C8.35596 14.8272 8.36576 14.8468 8.37392 14.8696C8.38045 14.8941 8.38535 14.9153 8.38862 14.9333C8.39188 14.9513 8.39352 14.9741 8.39678 15.0035C8.39678 15.0117 8.39841 15.0264 8.40005 15.0476C8.40168 15.0704 8.40331 15.0851 8.40331 15.0917C8.40331 15.0982 8.40494 15.1113 8.40658 15.1276C8.40821 15.1455 8.40984 15.1586 8.41147 15.1651C8.41147 15.1717 8.41311 15.1831 8.41637 15.1962C8.41964 15.2092 8.42127 15.2206 8.42454 15.2272C8.42617 15.2337 8.42943 15.2419 8.4327 15.2517C8.43596 15.2615 8.43923 15.268 8.44413 15.2745C8.44739 15.2811 8.45229 15.2876 8.45882 15.2925H8.24005C8.23678 15.2892 8.23352 15.2843 8.23025 15.2778C8.22699 15.2713 8.22535 15.2647 8.22372 15.2582C8.22045 15.2517 8.21882 15.2451 8.21882 15.2386C8.21719 15.2321 8.21556 15.2239 8.21392 15.2141C8.21229 15.2043 8.21229 15.1945 8.21229 15.188L8.20903 15.1586L8.20576 15.1292C8.20576 15.1227 8.20413 15.1113 8.20413 15.0949C8.2025 15.0786 8.2025 15.0672 8.2025 15.0606C8.19596 14.9659 8.17637 14.9023 8.14209 14.8664C8.1078 14.8304 8.0425 14.8125 7.9478 14.8125H7.67678V15.2925H7.47433V14.13ZM7.67678 14.2966V14.6606H7.94617C7.98535 14.6606 8.01801 14.659 8.04576 14.6541C8.07188 14.6508 8.09964 14.6427 8.12739 14.6313C8.15515 14.6198 8.17637 14.6002 8.19107 14.5741C8.20576 14.548 8.21392 14.5153 8.21392 14.4745C8.21392 14.4386 8.20739 14.4076 8.19433 14.3831C8.18127 14.3586 8.16168 14.3406 8.13719 14.3276C8.1127 14.3162 8.08821 14.308 8.06209 14.3031C8.03596 14.2998 8.00658 14.2966 7.97229 14.2966H7.67678Z" fill="black"/>
<path d="M13.7338 11.409H14.1762C14.2562 11.409 14.3264 11.4188 14.3885 11.4351C14.4489 11.4514 14.5044 11.4824 14.5566 11.5281C14.6709 11.631 14.7281 11.7779 14.7281 11.9706C14.7281 12.1763 14.6726 12.3347 14.5648 12.4424C14.5158 12.4914 14.4636 12.5241 14.4081 12.5437C14.3526 12.5632 14.2791 12.5714 14.1877 12.5714H13.7338V11.409ZM13.9362 11.582V12.4H14.1762C14.3036 12.4 14.3934 12.3641 14.4456 12.289C14.4979 12.2155 14.524 12.1126 14.524 11.9804C14.524 11.8563 14.4946 11.7583 14.4358 11.6881C14.377 11.6179 14.2856 11.582 14.1632 11.582H13.9362ZM15.4051 11.422V12.5714H15.2059V11.7812H14.9218V11.6441C15.1194 11.6441 15.2304 11.5706 15.2549 11.422H15.4051Z" fill="black"/>
<path d="M13.7338 17.1233H14.1762C14.2562 17.1233 14.3264 17.1331 14.3885 17.1494C14.4489 17.1658 14.5044 17.1968 14.5566 17.2425C14.6709 17.3454 14.7281 17.4923 14.7281 17.685C14.7281 17.8907 14.6726 18.049 14.5648 18.1568C14.5158 18.2058 14.4636 18.2384 14.4081 18.258C14.3526 18.2776 14.2791 18.2858 14.1877 18.2858H13.7338V17.1233ZM13.9362 17.2964V18.1143H14.1762C14.3036 18.1143 14.3934 18.0784 14.4456 18.0033C14.4979 17.9298 14.524 17.827 14.524 17.6947C14.524 17.5707 14.4946 17.4727 14.4358 17.4025C14.377 17.3323 14.2856 17.2964 14.1632 17.2964H13.9362ZM15.6075 18.1209V18.2858H14.8271C14.8271 18.2352 14.8353 18.1878 14.8484 18.1454C14.8614 18.1029 14.8761 18.067 14.8924 18.0376C14.9088 18.0082 14.9349 17.9772 14.9675 17.9462C15.0002 17.9152 15.0312 17.889 15.0573 17.8694C15.0835 17.8498 15.121 17.8237 15.1684 17.7911C15.1716 17.7894 15.1863 17.7796 15.2157 17.7601C15.2451 17.7405 15.263 17.729 15.2696 17.7241C15.2761 17.7192 15.2908 17.7078 15.3137 17.6898C15.3365 17.6719 15.3512 17.6572 15.3577 17.6458C15.3643 17.636 15.3741 17.6213 15.3871 17.6017C15.4002 17.5837 15.4084 17.5658 15.4133 17.5462C15.4165 17.5266 15.4198 17.507 15.4198 17.4841C15.4198 17.4254 15.4018 17.378 15.3692 17.3437C15.3365 17.3094 15.2908 17.2915 15.2353 17.2915C15.2026 17.2915 15.1733 17.298 15.1504 17.3078C15.1259 17.3176 15.1063 17.3307 15.0933 17.347C15.0802 17.3633 15.0688 17.3845 15.0606 17.4107C15.0508 17.4368 15.0459 17.4596 15.0426 17.4825C15.0394 17.5054 15.0377 17.5331 15.0377 17.5625H14.8565V17.5331C14.8565 17.4107 14.8908 17.3127 14.9594 17.2409C15.0279 17.169 15.1226 17.1315 15.2402 17.1315C15.3512 17.1315 15.4394 17.1641 15.5079 17.2262C15.5749 17.2882 15.6092 17.3715 15.6092 17.4743C15.6092 17.5168 15.6026 17.556 15.5896 17.5919C15.5765 17.6294 15.5618 17.6588 15.5471 17.6817C15.5324 17.7045 15.5079 17.7323 15.472 17.7617C15.4361 17.7927 15.4084 17.8139 15.392 17.8254C15.3741 17.8384 15.3414 17.8596 15.2957 17.8907C15.1586 17.9788 15.0769 18.0556 15.0508 18.1209H15.6075Z" fill="black"/>
<path d="M30.3359 14.9342V15.2999H29.9968V15.9323H29.5778L29.574 15.2999H28.4425V14.8694L29.5854 13.2427H29.9968V14.9342H30.3359ZM29.5816 14.9342V13.7799L28.8006 14.9342H29.5816ZM31.8063 13.2199H33.0444C33.3263 13.2199 33.5434 13.2846 33.6958 13.4065C33.8482 13.5284 33.9244 13.6961 33.9244 13.9018C33.9244 14.0313 33.8863 14.1494 33.8177 14.2523C33.7453 14.3551 33.6501 14.4275 33.5358 14.4732C33.692 14.5113 33.8177 14.5875 33.9091 14.7018C34.0006 14.8161 34.0463 14.9608 34.0463 15.1323C34.0463 15.3723 33.9663 15.5665 33.8063 15.7113C33.6463 15.8599 33.4406 15.9323 33.1891 15.9323H31.8063V13.2199ZM32.271 13.6046V14.3513H32.9187C33.1015 14.3513 33.2348 14.3246 33.3225 14.2675C33.4063 14.2103 33.452 14.1151 33.452 13.978C33.452 13.8256 33.4063 13.7265 33.3148 13.677C33.2234 13.6313 33.0977 13.6046 32.9339 13.6046H32.271ZM32.271 14.6942V15.5437H32.9834C33.1663 15.5437 33.3072 15.5132 33.4139 15.4523C33.5167 15.3913 33.5701 15.2808 33.5701 15.1208C33.5701 15.0332 33.551 14.9608 33.5206 14.8999C33.4901 14.8389 33.4444 14.797 33.3834 14.7665C33.3225 14.7399 33.2615 14.7208 33.2006 14.7094C33.1358 14.7018 33.0596 14.6942 32.9758 14.6942H32.271ZM34.4162 14.5723C34.4619 14.1303 34.7476 13.9056 35.2771 13.9056C35.5209 13.9056 35.719 13.9551 35.8638 14.0503C36.0086 14.1494 36.0848 14.298 36.0848 14.4999V15.498C36.0848 15.5551 36.0886 15.5932 36.1038 15.6123C36.119 15.6351 36.1457 15.6427 36.1876 15.6427C36.2181 15.6427 36.2486 15.6427 36.2867 15.6351V15.9399C36.1724 15.9703 36.0809 15.9818 36.0048 15.9818C35.8181 15.9818 35.7114 15.9056 35.6848 15.7456C35.5171 15.9056 35.2886 15.9818 34.9952 15.9818C34.7895 15.9818 34.6295 15.9323 34.5114 15.8256C34.3895 15.7189 34.3324 15.578 34.3324 15.3951C34.3324 15.3418 34.3362 15.2884 34.3514 15.2389C34.3628 15.1932 34.3781 15.1513 34.3933 15.1132C34.4086 15.0789 34.4352 15.0446 34.4733 15.0142C34.5114 14.9837 34.5419 14.9608 34.5648 14.938C34.5876 14.9189 34.6295 14.8999 34.6828 14.8808C34.7362 14.8656 34.7781 14.8503 34.8048 14.8427C34.8314 14.8351 34.8771 14.8237 34.9457 14.8123C35.0105 14.8046 35.0524 14.797 35.0752 14.7932C35.0981 14.7894 35.1438 14.7818 35.2124 14.7742C35.3648 14.7551 35.4714 14.7399 35.5286 14.7246C35.5819 14.7094 35.62 14.6903 35.6428 14.6599C35.6581 14.6408 35.6695 14.5951 35.6695 14.5189C35.6695 14.3208 35.5324 14.2218 35.2657 14.2218C35.1209 14.2218 35.0181 14.2484 34.9533 14.3018C34.8848 14.3551 34.8428 14.4465 34.8276 14.5723H34.4162ZM35.6657 14.9456C35.6314 14.9646 35.5933 14.9799 35.5514 14.9951C35.5057 15.0103 35.4714 15.018 35.4448 15.0218C35.4181 15.0256 35.3762 15.0294 35.319 15.037C35.2619 15.0446 35.2238 15.0523 35.2086 15.0523C35.1552 15.0599 35.1133 15.0675 35.0828 15.0751C35.0524 15.0827 35.0143 15.0903 34.9686 15.1056C34.9228 15.1208 34.8886 15.1399 34.8657 15.1627C34.8428 15.1856 34.82 15.2123 34.8048 15.2503C34.7857 15.2884 34.7781 15.3303 34.7781 15.3799C34.7781 15.4751 34.8086 15.5475 34.8695 15.597C34.9305 15.6503 35.0181 15.6732 35.1324 15.6732C35.3228 15.6732 35.4714 15.6237 35.5781 15.517C35.6352 15.4599 35.6657 15.3456 35.6657 15.178V14.9456ZM37.6644 13.9284V14.3437C37.5882 14.3361 37.5349 14.3323 37.512 14.3323C37.1311 14.3323 36.9444 14.5799 36.9444 15.0675V15.9323H36.514V13.9665H36.9216V14.3589C37.0587 14.0694 37.2797 13.9208 37.5806 13.9208L37.6644 13.9284ZM28.7017 17.2199H29.9398C30.2217 17.2199 30.4389 17.2846 30.5913 17.4065C30.7436 17.5284 30.8198 17.6961 30.8198 17.9018C30.8198 18.0313 30.7817 18.1494 30.7132 18.2523C30.6408 18.3551 30.5455 18.4275 30.4313 18.4732C30.5874 18.5113 30.7132 18.5875 30.8046 18.7018C30.896 18.8161 30.9417 18.9608 30.9417 19.1323C30.9417 19.3723 30.8617 19.5665 30.7017 19.7113C30.5417 19.8599 30.336 19.9323 30.0846 19.9323H28.7017V17.2199ZM29.1665 17.6046V18.3513H29.8141C29.997 18.3513 30.1303 18.3246 30.2179 18.2675C30.3017 18.2103 30.3474 18.1151 30.3474 17.978C30.3474 17.8256 30.3017 17.7265 30.2103 17.677C30.1189 17.6313 29.9932 17.6046 29.8294 17.6046H29.1665ZM29.1665 18.6942V19.5437H29.8789C30.0617 19.5437 30.2027 19.5132 30.3094 19.4523C30.4122 19.3913 30.4655 19.2808 30.4655 19.1208C30.4655 19.0332 30.4465 18.9608 30.416 18.8999C30.3855 18.8389 30.3398 18.797 30.2789 18.7665C30.2179 18.7399 30.157 18.7208 30.096 18.7094C30.0313 18.7018 29.9551 18.6942 29.8713 18.6942H29.1665ZM33.0907 19.3189C33.0412 19.5323 32.9345 19.6999 32.7745 19.818C32.6145 19.9399 32.4202 19.997 32.1993 19.997C31.9021 19.997 31.6659 19.9018 31.4907 19.7113C31.3155 19.5208 31.2316 19.2732 31.2316 18.9723C31.2316 18.6675 31.3193 18.4123 31.4983 18.2103C31.6774 18.0123 31.9059 17.9094 32.184 17.9094C32.4697 17.9094 32.6983 18.0084 32.8659 18.2065C33.0335 18.4046 33.1174 18.6713 33.1174 19.0103V19.0561H31.6659C31.6697 19.2542 31.7193 19.4103 31.8145 19.517C31.9059 19.6237 32.0393 19.677 32.2069 19.677C32.325 19.677 32.4202 19.6503 32.4964 19.5932C32.5726 19.5361 32.6297 19.4446 32.6755 19.3189H33.0907ZM32.6831 18.7665C32.6678 18.6027 32.6183 18.4732 32.5269 18.378C32.4355 18.2827 32.3212 18.2332 32.1802 18.2332C32.0355 18.2332 31.9212 18.2789 31.8335 18.3703C31.7459 18.4618 31.6926 18.5951 31.6735 18.7665H32.6831ZM33.4285 18.5723C33.4742 18.1303 33.7599 17.9056 34.2894 17.9056C34.5332 17.9056 34.7313 17.9551 34.8761 18.0503C35.0208 18.1494 35.097 18.298 35.097 18.4999V19.498C35.097 19.5551 35.1008 19.5932 35.1161 19.6123C35.1313 19.6351 35.158 19.6427 35.1999 19.6427C35.2304 19.6427 35.2608 19.6427 35.2989 19.6351V19.9399C35.1847 19.9703 35.0932 19.9818 35.017 19.9818C34.8304 19.9818 34.7237 19.9056 34.697 19.7456C34.5294 19.9056 34.3008 19.9818 34.0075 19.9818C33.8018 19.9818 33.6418 19.9323 33.5237 19.8256C33.4018 19.7189 33.3447 19.578 33.3447 19.3951C33.3447 19.3418 33.3485 19.2884 33.3637 19.2389C33.3751 19.1932 33.3904 19.1513 33.4056 19.1132C33.4208 19.0789 33.4475 19.0446 33.4856 19.0142C33.5237 18.9837 33.5542 18.9608 33.577 18.938C33.5999 18.9189 33.6418 18.8999 33.6951 18.8808C33.7485 18.8656 33.7904 18.8503 33.817 18.8427C33.8437 18.8351 33.8894 18.8237 33.958 18.8123C34.0227 18.8046 34.0647 18.797 34.0875 18.7932C34.1104 18.7894 34.1561 18.7818 34.2247 18.7742C34.377 18.7551 34.4837 18.7399 34.5408 18.7246C34.5942 18.7094 34.6323 18.6903 34.6551 18.6599C34.6704 18.6408 34.6818 18.5951 34.6818 18.5189C34.6818 18.3208 34.5447 18.2218 34.278 18.2218C34.1332 18.2218 34.0304 18.2484 33.9656 18.3018C33.897 18.3551 33.8551 18.4465 33.8399 18.5723H33.4285ZM34.678 18.9456C34.6437 18.9646 34.6056 18.9799 34.5637 18.9951C34.518 19.0103 34.4837 19.018 34.457 19.0218C34.4304 19.0256 34.3885 19.0294 34.3313 19.037C34.2742 19.0446 34.2361 19.0523 34.2208 19.0523C34.1675 19.0599 34.1256 19.0675 34.0951 19.0751C34.0647 19.0827 34.0266 19.0903 33.9808 19.1056C33.9351 19.1208 33.9008 19.1399 33.878 19.1627C33.8551 19.1856 33.8323 19.2123 33.817 19.2503C33.798 19.2884 33.7904 19.3303 33.7904 19.3799C33.7904 19.4751 33.8208 19.5475 33.8818 19.597C33.9427 19.6503 34.0304 19.6732 34.1447 19.6732C34.3351 19.6732 34.4837 19.6237 34.5904 19.517C34.6475 19.4599 34.678 19.3456 34.678 19.178V18.9456ZM35.9796 17.9665V18.2446C36.1396 18.0237 36.3453 17.9132 36.5967 17.9132C36.7262 17.9132 36.8367 17.9437 36.9319 18.0008C37.0272 18.0618 37.0996 18.1418 37.1453 18.2484C37.3015 18.0275 37.5148 17.9132 37.7815 17.9132C37.9643 17.9132 38.1205 17.9703 38.2424 18.0808C38.3643 18.1913 38.4253 18.3437 38.4253 18.538V19.9323H37.991V18.7246C37.991 18.5875 37.9643 18.477 37.9186 18.397C37.8691 18.3208 37.7777 18.2789 37.6405 18.2789C37.4996 18.2789 37.3929 18.3246 37.3205 18.4123C37.2443 18.4999 37.21 18.6218 37.21 18.778V19.9323H36.7758V18.7018C36.7758 18.5646 36.7529 18.458 36.711 18.3856C36.6691 18.317 36.5815 18.2789 36.4519 18.2789C36.3034 18.2789 36.1929 18.3284 36.1167 18.4237C36.0405 18.5189 36.0024 18.6446 36.0024 18.8008V19.9323H35.5681V17.9665H35.9796Z" fill="black"/>
<path d="M9.12829 30.7994H8.934C8.92094 30.6639 8.83768 30.5953 8.68094 30.5953C8.61074 30.5953 8.55686 30.61 8.51768 30.6394C8.47849 30.6688 8.4589 30.708 8.4589 30.757C8.4589 30.8043 8.47196 30.837 8.50135 30.8533C8.53074 30.8713 8.59441 30.8925 8.694 30.917C8.72013 30.9251 8.73972 30.93 8.75441 30.9333C8.88339 30.966 8.97155 30.9953 9.0189 31.0215C9.12176 31.077 9.174 31.1635 9.174 31.2811C9.174 31.3333 9.16421 31.379 9.14788 31.4198C9.12992 31.4623 9.10706 31.4966 9.07768 31.5243C9.04829 31.5521 9.01237 31.5749 8.97319 31.5929C8.93237 31.6125 8.88992 31.6255 8.84747 31.6337C8.80339 31.6419 8.75768 31.6451 8.71196 31.6451C8.56502 31.6451 8.44747 31.6109 8.35768 31.5407C8.26625 31.4721 8.22217 31.3692 8.22217 31.2337H8.42298C8.42298 31.3186 8.45074 31.3823 8.50625 31.4231C8.56176 31.4639 8.6336 31.4835 8.72339 31.4835C8.80176 31.4835 8.86217 31.4688 8.90625 31.4362C8.95033 31.4035 8.97319 31.3594 8.97319 31.3007C8.97319 31.2647 8.96013 31.2337 8.93727 31.2109C8.91441 31.188 8.88829 31.17 8.86217 31.1602C8.83441 31.1504 8.78706 31.1374 8.72013 31.1194C8.71196 31.1178 8.70543 31.1162 8.70217 31.1145C8.55686 31.0786 8.46217 31.0476 8.41645 31.0231C8.32176 30.9741 8.27115 30.899 8.26462 30.7962V30.7733C8.26462 30.6704 8.30217 30.5888 8.38053 30.5268C8.4589 30.4647 8.56339 30.4337 8.694 30.4337C8.81972 30.4337 8.92257 30.4647 9.00257 30.5235C9.08094 30.5839 9.12339 30.6753 9.12829 30.7994Z" fill="black"/>
</svg>
