<svg width="46" height="46" viewBox="0 0 46 46" fill="none" xmlns="http://www.w3.org/2000/svg">
<rect width="46" height="46" rx="11.3448" fill="#F3F3F3"/>
<rect x="0.405172" y="0.405172" width="45.1897" height="45.1897" rx="10.9397" stroke="#B02E0C" stroke-opacity="0.04" stroke-width="0.810345"/>
<rect x="2.88213" y="25.6197" width="39.1533" height="10.9951" stroke="black" stroke-width="0.268173"/>
<path d="M6.77148 27.0946V35.1398" stroke="black" stroke-width="0.268173" stroke-linecap="square"/>
<path d="M9.9082 27.0946V35.1398" stroke="black" stroke-width="0.268173" stroke-linecap="square"/>
<path d="M13.0469 27.0946V35.1398" stroke="black" stroke-width="0.268173" stroke-linecap="square"/>
<path d="M16.1836 27.0946V35.1398" stroke="black" stroke-width="0.268173" stroke-linecap="square"/>
<path d="M19.3203 27.0946V35.1398" stroke="black" stroke-width="0.268173" stroke-linecap="square"/>
<path d="M22.459 27.0945V35.1397" stroke="black" stroke-width="0.268173" stroke-linecap="square"/>
<path d="M25.5957 27.0946V35.1398" stroke="black" stroke-width="0.268173" stroke-linecap="square"/>
<path d="M28.7344 27.0946V35.1398" stroke="black" stroke-width="0.268173" stroke-linecap="square"/>
<path d="M31.8711 27.0946V35.1398" stroke="black" stroke-width="0.268173" stroke-linecap="square"/>
<path d="M35.0098 27.0945V35.1397" stroke="black" stroke-width="0.268173" stroke-linecap="square"/>
<path d="M38.1465 27.0946V35.1398" stroke="black" stroke-width="0.268173" stroke-linecap="square"/>
<path d="M17.6379 29.0939V29.2628H17.0119V29.5669H17.5928V29.7294H17.0119V30.0673H17.6475V30.2395H16.8124V29.0939H17.6379ZM18.6514 29.4318H18.4599C18.447 29.2982 18.365 29.2306 18.2105 29.2306C18.1413 29.2306 18.0882 29.2451 18.0496 29.2741C18.011 29.303 17.9917 29.3417 17.9917 29.3899C17.9917 29.4366 18.0045 29.4688 18.0335 29.4849C18.0625 29.5026 18.1252 29.5235 18.2234 29.5476C18.2491 29.5557 18.2684 29.5605 18.2829 29.5637C18.41 29.5959 18.4969 29.6248 18.5436 29.6506C18.6449 29.7053 18.6964 29.7906 18.6964 29.9064C18.6964 29.9579 18.6868 30.003 18.6707 30.0432C18.653 30.085 18.6305 30.1188 18.6015 30.1462C18.5725 30.1735 18.5371 30.1961 18.4985 30.2138C18.4583 30.2331 18.4165 30.2459 18.3746 30.254C18.3312 30.262 18.2861 30.2652 18.2411 30.2652C18.0963 30.2652 17.9804 30.2315 17.8919 30.1623C17.8018 30.0947 17.7584 29.9933 17.7584 29.8598H17.9563C17.9563 29.9434 17.9836 30.0062 18.0383 30.0464C18.093 30.0866 18.1638 30.106 18.2523 30.106C18.3296 30.106 18.3891 30.0915 18.4325 30.0593C18.476 30.0271 18.4985 29.9837 18.4985 29.9257C18.4985 29.8903 18.4856 29.8598 18.4631 29.8372C18.4406 29.8147 18.4148 29.797 18.3891 29.7874C18.3617 29.7777 18.3151 29.7648 18.2491 29.7471C18.2411 29.7455 18.2346 29.7439 18.2314 29.7423C18.0882 29.7069 17.9949 29.6763 17.9498 29.6522C17.8565 29.6039 17.8066 29.5299 17.8002 29.4285V29.406C17.8002 29.3046 17.8372 29.2242 17.9144 29.1631C17.9917 29.1019 18.0946 29.0713 18.2234 29.0713C18.3473 29.0713 18.4486 29.1019 18.5275 29.1598C18.6047 29.2194 18.6465 29.3095 18.6514 29.4318Z" fill="#B02E0C"/>
<path d="M4.35742 30.3134V28.168C4.35742 27.5756 4.83768 27.0953 5.43012 27.0953H39.4881C40.0806 27.0953 40.5608 27.5756 40.5608 28.168V30.3134" stroke="#F7941D" stroke-width="0.268173" stroke-linecap="square"/>
<path d="M4.35742 31.9224V34.0678C4.35742 34.6602 4.83768 35.1405 5.43012 35.1405H39.4881C40.0806 35.1405 40.5608 34.6602 40.5608 34.0678V31.9224" stroke="#F7941D" stroke-width="0.268173" stroke-linecap="square"/>
<path d="M22.9928 39.0543V39.286H21.9459V37.7585H22.2162V39.0543H22.9928Z" fill="black"/>
<rect x="2.83367" y="6.79949" width="14.042" height="14.042" stroke="black" stroke-width="0.17124"/>
<rect x="3.77507" y="7.7415" width="12.1583" height="12.1583" rx="1.2843" stroke="#F7941D" stroke-width="0.17124"/>
<circle cx="5.40177" cy="9.3682" r="0.684973" fill="#F7941D"/>
<circle cx="5.40177" cy="12.0496" r="0.684973" fill="#B02E0C"/>
<circle cx="9.87052" cy="9.3682" r="0.684973" fill="#F7941D"/>
<circle cx="5.40177" cy="18.2731" r="0.684973" fill="#F7941D"/>
<circle cx="9.87052" cy="18.2731" r="0.684973" fill="#F7941D"/>
<circle cx="14.3061" cy="9.3682" r="0.684973" fill="#F7941D"/>
<circle cx="14.3061" cy="12.0496" r="0.684973" fill="#B02E0C"/>
<circle cx="14.3061" cy="18.2731" r="0.684973" fill="#F7941D"/>
<path d="M4.71728 10.6524C3.00485 7.95532 4.5025 6.92787 6.6863 8.93998" stroke="#B02E0C" stroke-width="0.139259" stroke-linecap="round"/>
<path d="M9.17267 23.4636L9.7176 22.672L9.21129 21.9361H9.53095L9.87851 22.4767L10.2411 21.9361H10.5414L10.0351 22.672L10.5779 23.4636H10.2518L9.86993 22.8801L9.48161 23.4636H9.17267Z" fill="black"/>
<path d="M19.1709 13.354L18.5959 14.2743V14.8815H18.332V14.2743L17.7549 13.354H18.0638L18.4693 14.0298L18.8705 13.354H19.1709Z" fill="black"/>
<path d="M3.82031 15.2952L4.35666 15.6048V14.9855L3.82031 15.2952ZM4.30302 15.2952V15.3488H6.63613V15.2952V15.2415H4.30302V15.2952Z" fill="black"/>
<path d="M7.15813 14.6136H7.70038C7.81301 14.6136 7.90634 14.6394 7.97874 14.6909C8.04954 14.7424 8.08655 14.8228 8.08655 14.9322C8.08655 15.0014 8.06885 15.061 8.03667 15.1092C8.00288 15.1575 7.95622 15.1929 7.89668 15.2138C7.92403 15.2202 7.94817 15.2299 7.96909 15.2428C7.9884 15.2556 8.00449 15.2701 8.01575 15.2846C8.02701 15.3007 8.03667 15.32 8.04471 15.3425C8.05115 15.3667 8.05598 15.3876 8.05919 15.4053C8.06241 15.423 8.06402 15.4455 8.06724 15.4745C8.06724 15.4825 8.06885 15.497 8.07046 15.5179C8.07207 15.5404 8.07368 15.5549 8.07368 15.5614C8.07368 15.5678 8.07528 15.5807 8.07689 15.5968C8.0785 15.6145 8.08011 15.6273 8.08172 15.6338C8.08172 15.6402 8.08333 15.6515 8.08655 15.6643C8.08977 15.6772 8.09138 15.6885 8.09459 15.6949C8.0962 15.7014 8.09942 15.7094 8.10264 15.7191C8.10586 15.7287 8.10907 15.7351 8.1139 15.7416C8.11712 15.748 8.12195 15.7545 8.12838 15.7593H7.91277C7.90955 15.7561 7.90634 15.7512 7.90312 15.7448C7.8999 15.7384 7.89829 15.7319 7.89668 15.7255C7.89346 15.7191 7.89185 15.7126 7.89185 15.7062C7.89025 15.6997 7.88864 15.6917 7.88703 15.682C7.88542 15.6724 7.88542 15.6627 7.88542 15.6563L7.8822 15.6273L7.87898 15.5984C7.87898 15.5919 7.87737 15.5807 7.87737 15.5646C7.87576 15.5485 7.87576 15.5372 7.87576 15.5308C7.86933 15.4375 7.85002 15.3747 7.81623 15.3393C7.78244 15.3039 7.71808 15.2862 7.62475 15.2862H7.35765V15.7593H7.15813V14.6136ZM7.35765 14.7778V15.1366H7.62314C7.66176 15.1366 7.69394 15.135 7.7213 15.1301C7.74704 15.1269 7.77439 15.1189 7.80175 15.1076C7.8291 15.0964 7.85002 15.077 7.8645 15.0513C7.87898 15.0256 7.88703 14.9934 7.88703 14.9531C7.88703 14.9177 7.88059 14.8872 7.86772 14.863C7.85485 14.8389 7.83554 14.8212 7.8114 14.8083C7.78727 14.7971 7.76313 14.789 7.73739 14.7842C7.71164 14.781 7.68268 14.7778 7.64889 14.7778H7.35765Z" fill="black"/>
<path d="M11.4508 8.71374H11.8868C11.9656 8.71374 12.0348 8.72339 12.096 8.73948C12.1555 8.75557 12.2102 8.78614 12.2617 8.8312C12.3743 8.93257 12.4307 9.07738 12.4307 9.26725C12.4307 9.46999 12.376 9.62606 12.2698 9.73226C12.2215 9.78053 12.17 9.81271 12.1153 9.83202C12.0606 9.85133 11.9882 9.85938 11.8981 9.85938H11.4508V8.71374ZM11.6503 8.8843V9.69043H11.8868C12.0123 9.69043 12.1008 9.65503 12.1523 9.58101C12.2038 9.5086 12.2295 9.40723 12.2295 9.2769C12.2295 9.15462 12.2006 9.05807 12.1426 8.98888C12.0847 8.9197 11.9946 8.8843 11.8739 8.8843H11.6503ZM13.0979 8.72661V9.85938H12.9016V9.0806H12.6216V8.94544C12.8163 8.94544 12.9257 8.87303 12.9499 8.72661H13.0979Z" fill="black"/>
<path d="M13.3258 13.0049H13.7618C13.8406 13.0049 13.9098 13.0145 13.971 13.0306C14.0305 13.0467 14.0852 13.0773 14.1367 13.1223C14.2493 13.2237 14.3057 13.3685 14.3057 13.5584C14.3057 13.7611 14.251 13.9172 14.1448 14.0234C14.0965 14.0717 14.045 14.1039 13.9903 14.1232C13.9356 14.1425 13.8632 14.1505 13.7731 14.1505H13.3258V13.0049ZM13.5253 13.1754V13.9816H13.7618C13.8873 13.9816 13.9758 13.9462 14.0273 13.8721C14.0788 13.7997 14.1045 13.6984 14.1045 13.568C14.1045 13.4458 14.0756 13.3492 14.0176 13.28C13.9597 13.2108 13.8696 13.1754 13.7489 13.1754H13.5253ZM14.4371 13.3862C14.4403 13.2704 14.4741 13.1803 14.5401 13.1127C14.6044 13.0467 14.6929 13.0129 14.8039 13.0129C14.9069 13.0129 14.9922 13.0419 15.0566 13.0966C15.1209 13.1529 15.1531 13.2253 15.1531 13.3154C15.1531 13.3701 15.1386 13.4184 15.1097 13.4602C15.0807 13.5021 15.0437 13.5294 14.9954 13.5455C15.0582 13.5616 15.1081 13.5938 15.1451 13.6404C15.1805 13.6871 15.1998 13.7434 15.1998 13.811C15.1998 13.9188 15.1628 14.0057 15.0887 14.0733C15.0147 14.1409 14.9182 14.1746 14.8007 14.1746C14.6833 14.1746 14.5883 14.1409 14.5175 14.0733C14.4451 14.0057 14.4097 13.9172 14.4097 13.8046V13.7804H14.5867C14.5916 13.9381 14.664 14.017 14.8056 14.017C14.8667 14.017 14.9166 13.9993 14.9536 13.9639C14.989 13.9285 15.0083 13.8786 15.0083 13.8158C15.0083 13.7515 14.9874 13.7032 14.9455 13.6726C14.9037 13.6437 14.849 13.6276 14.783 13.6276C14.7621 13.6276 14.7428 13.6292 14.7251 13.6292V13.4908H14.7412C14.7734 13.4908 14.8023 13.4892 14.8265 13.486C14.849 13.4828 14.8731 13.4747 14.8973 13.4651C14.9214 13.4554 14.9407 13.4377 14.9536 13.4152C14.9665 13.3927 14.9729 13.3637 14.9729 13.3283C14.9729 13.28 14.9568 13.2398 14.9262 13.2092C14.8941 13.1803 14.8522 13.1642 14.8007 13.1642C14.6801 13.1642 14.6173 13.2382 14.6125 13.3862H14.4371Z" fill="#B02E0C"/>
<path d="M13.3258 15.9541H13.7618C13.8406 15.9541 13.9098 15.9637 13.971 15.9798C14.0305 15.9959 14.0852 16.0265 14.1367 16.0716C14.2493 16.1729 14.3057 16.3177 14.3057 16.5076C14.3057 16.7103 14.251 16.8664 14.1448 16.9726C14.0965 17.0209 14.045 17.0531 13.9903 17.0724C13.9356 17.0917 13.8632 17.0997 13.7731 17.0997H13.3258V15.9541ZM13.5253 16.1247V16.9308H13.7618C13.8873 16.9308 13.9758 16.8954 14.0273 16.8214C14.0788 16.749 14.1045 16.6476 14.1045 16.5173C14.1045 16.395 14.0756 16.2984 14.0176 16.2292C13.9597 16.1601 13.8696 16.1247 13.7489 16.1247H13.5253ZM15.1724 16.9372V17.0997H14.4033C14.4033 17.0499 14.4113 17.0032 14.4242 16.9614C14.4371 16.9195 14.4516 16.8841 14.4677 16.8552C14.4838 16.8262 14.5095 16.7956 14.5417 16.7651C14.5739 16.7345 14.6044 16.7087 14.6302 16.6894C14.6559 16.6701 14.6929 16.6444 14.7396 16.6122C14.7428 16.6106 14.7573 16.6009 14.7862 16.5816C14.8152 16.5623 14.8329 16.551 14.8393 16.5462C14.8458 16.5414 14.8603 16.5301 14.8828 16.5124C14.9053 16.4947 14.9198 16.4803 14.9262 16.469C14.9327 16.4593 14.9423 16.4449 14.9552 16.4255C14.9681 16.4078 14.9761 16.3901 14.9809 16.3708C14.9842 16.3515 14.9874 16.3322 14.9874 16.3097C14.9874 16.2518 14.9697 16.2051 14.9375 16.1713C14.9053 16.1375 14.8603 16.1198 14.8056 16.1198C14.7734 16.1198 14.7444 16.1263 14.7219 16.1359C14.6978 16.1456 14.6784 16.1584 14.6656 16.1745C14.6527 16.1906 14.6414 16.2115 14.6334 16.2373C14.6237 16.263 14.6189 16.2856 14.6157 16.3081C14.6125 16.3306 14.6109 16.358 14.6109 16.3869H14.4323V16.358C14.4323 16.2373 14.4661 16.1407 14.5336 16.0699C14.6012 15.9991 14.6945 15.9621 14.8104 15.9621C14.9198 15.9621 15.0067 15.9943 15.0743 16.0555C15.1402 16.1166 15.174 16.1987 15.174 16.3C15.174 16.3419 15.1676 16.3805 15.1547 16.4159C15.1418 16.4529 15.1274 16.4819 15.1129 16.5044C15.0984 16.5269 15.0743 16.5543 15.0389 16.5832C15.0035 16.6138 14.9761 16.6347 14.96 16.646C14.9423 16.6589 14.9101 16.6798 14.8651 16.7103C14.7299 16.7972 14.6495 16.8729 14.6237 16.9372H15.1724Z" fill="black"/>
<path d="M23.1635 12.4119V12.7369H21.6252C21.6252 12.6372 21.6413 12.5439 21.6671 12.4602C21.6928 12.3765 21.7218 12.3057 21.7539 12.2478C21.7861 12.1899 21.8376 12.1287 21.902 12.0676C21.9663 12.0064 22.0275 11.9549 22.079 11.9163C22.1305 11.8777 22.2045 11.8262 22.2978 11.7619C22.3042 11.7586 22.3332 11.7393 22.3911 11.7007C22.449 11.6621 22.4844 11.6396 22.4973 11.6299C22.5102 11.6203 22.5392 11.5977 22.5842 11.5623C22.6293 11.5269 22.6582 11.498 22.6711 11.4755C22.684 11.4561 22.7033 11.4272 22.729 11.3886C22.7548 11.3532 22.7709 11.3178 22.7805 11.2791C22.7869 11.2405 22.7934 11.2019 22.7934 11.1569C22.7934 11.041 22.758 10.9477 22.6936 10.8801C22.6293 10.8125 22.5392 10.7771 22.4297 10.7771C22.3654 10.7771 22.3075 10.79 22.2624 10.8093C22.2141 10.8286 22.1755 10.8544 22.1498 10.8865C22.124 10.9187 22.1015 10.9606 22.0854 11.012C22.0661 11.0635 22.0564 11.1086 22.05 11.1536C22.0436 11.1987 22.0404 11.2534 22.0404 11.3113H21.6831V11.2534C21.6831 11.012 21.7507 10.819 21.8859 10.6774C22.021 10.5358 22.2077 10.4618 22.4394 10.4618C22.6582 10.4618 22.832 10.5261 22.9672 10.6484C23.0991 10.7707 23.1667 10.9348 23.1667 11.1376C23.1667 11.2212 23.1538 11.2985 23.1281 11.3693C23.1023 11.4433 23.0734 11.5012 23.0444 11.5462C23.0154 11.5913 22.9672 11.646 22.8964 11.7039C22.8256 11.7651 22.7709 11.8069 22.7387 11.8294C22.7033 11.8552 22.6389 11.897 22.5488 11.9582C22.2785 12.1319 22.1176 12.2832 22.0661 12.4119H23.1635ZM26.124 10.4457V10.7836H24.8722V11.3918H26.0339V11.7168H24.8722V12.3926H26.1434V12.7369H24.4732V10.4457H26.124ZM26.8059 11.0764V11.321C26.9378 11.1279 27.1213 11.0314 27.3562 11.0314C27.5428 11.0314 27.6844 11.0828 27.7778 11.1858C27.8711 11.2888 27.9194 11.4368 27.9194 11.6299V12.7369H27.5525V11.7715C27.5525 11.7072 27.5493 11.6524 27.5428 11.6074C27.5364 11.5623 27.5203 11.5173 27.501 11.4722C27.4817 11.4272 27.4495 11.395 27.4045 11.3725C27.3594 11.3499 27.3015 11.3371 27.2307 11.3371C26.9604 11.3371 26.8252 11.5076 26.8252 11.8423V12.7369H26.4584V11.0764H26.8059ZM29.8767 10.4457V12.7369H29.5323V12.5085C29.4261 12.6919 29.2491 12.782 29.0013 12.782C28.7664 12.782 28.5798 12.7048 28.4414 12.5439C28.303 12.3862 28.2354 12.1738 28.2354 11.9035C28.2354 11.6396 28.303 11.4272 28.4382 11.2695C28.5733 11.1118 28.7568 11.0314 28.9885 11.0314C29.2202 11.0314 29.3972 11.1182 29.5162 11.292V10.4457H29.8767ZM29.056 11.3274C28.9145 11.3274 28.805 11.3789 28.7246 11.4819C28.6441 11.5849 28.6055 11.7232 28.6055 11.897C28.6055 12.0804 28.6441 12.2253 28.7278 12.3282C28.8115 12.4344 28.9241 12.4859 29.0689 12.4859C29.2105 12.4859 29.3231 12.4344 29.4036 12.3315C29.4841 12.2285 29.5259 12.0869 29.5259 11.9035C29.5259 11.7232 29.4841 11.5816 29.4004 11.4787C29.3167 11.3789 29.2041 11.3274 29.056 11.3274ZM32.8619 11.1215H32.479C32.4532 10.8544 32.2891 10.7192 31.9802 10.7192C31.8418 10.7192 31.7356 10.7482 31.6583 10.8061C31.5811 10.864 31.5425 10.9412 31.5425 11.0378C31.5425 11.1311 31.5682 11.1955 31.6262 11.2277C31.6841 11.2631 31.8096 11.3049 32.0059 11.3532C32.0574 11.3693 32.096 11.3789 32.125 11.3853C32.3792 11.4497 32.553 11.5076 32.6463 11.5591C32.849 11.6685 32.952 11.8391 32.952 12.0708C32.952 12.1738 32.9327 12.2639 32.9005 12.3443C32.8651 12.428 32.8201 12.4956 32.7621 12.5503C32.7042 12.605 32.6334 12.6501 32.5562 12.6854C32.4757 12.7241 32.3921 12.7498 32.3084 12.7659C32.2215 12.782 32.1314 12.7884 32.0413 12.7884C31.7517 12.7884 31.52 12.7208 31.343 12.5825C31.1628 12.4473 31.0759 12.2446 31.0759 11.9775H31.4717C31.4717 12.1448 31.5264 12.2703 31.6358 12.3508C31.7452 12.4312 31.8868 12.4698 32.0638 12.4698C32.2183 12.4698 32.3374 12.4409 32.4242 12.3765C32.5111 12.3122 32.5562 12.2253 32.5562 12.1094C32.5562 12.0386 32.5304 11.9775 32.4854 11.9324C32.4403 11.8874 32.3888 11.852 32.3374 11.8327C32.2827 11.8133 32.1893 11.7876 32.0574 11.7522C32.0413 11.749 32.0284 11.7458 32.022 11.7426C31.7356 11.6718 31.5489 11.6106 31.4588 11.5623C31.2722 11.4658 31.1724 11.3178 31.1595 11.115V11.07C31.1595 10.8672 31.2336 10.7063 31.388 10.584C31.5425 10.4618 31.7484 10.4006 32.0059 10.4006C32.2537 10.4006 32.4564 10.4618 32.6141 10.5776C32.7686 10.6967 32.8523 10.8769 32.8619 11.1215ZM34.7105 11.0764V12.7369H34.3662V12.4891C34.2246 12.6854 34.0443 12.782 33.8191 12.782C33.6357 12.782 33.4941 12.7305 33.3975 12.6275C33.301 12.5245 33.2527 12.3733 33.2527 12.177V11.0764H33.6196V12.0257C33.6196 12.0837 33.6196 12.1319 33.6228 12.1673C33.6228 12.2027 33.6292 12.2414 33.6421 12.2864C33.655 12.3315 33.6711 12.3636 33.6936 12.3862C33.7161 12.4119 33.7483 12.4312 33.7901 12.4473C33.832 12.4666 33.8834 12.4731 33.9446 12.4731C34.0797 12.4731 34.1827 12.4248 34.2471 12.3282C34.3114 12.2317 34.3436 12.1062 34.3436 11.9549V11.0764H34.7105ZM35.4514 11.0764V11.2985C35.5608 11.1182 35.741 11.0281 35.992 11.0281C36.2205 11.0281 36.4039 11.1086 36.5423 11.2695C36.6774 11.4304 36.7482 11.646 36.7482 11.9131C36.7482 12.177 36.6807 12.3862 36.5455 12.5439C36.4103 12.7015 36.2333 12.7788 36.0113 12.7788C35.7732 12.7788 35.593 12.6919 35.4707 12.5181V13.3516H35.107V11.0764H35.4514ZM35.918 11.3242C35.7732 11.3242 35.6605 11.3757 35.5801 11.4787C35.4964 11.5816 35.4578 11.7265 35.4578 11.9067C35.4578 12.0869 35.4964 12.2285 35.5801 12.3315C35.6637 12.4344 35.7764 12.4859 35.9244 12.4859C36.0628 12.4859 36.1722 12.4344 36.2559 12.3315C36.3363 12.2285 36.3782 12.0901 36.3782 11.9131C36.3782 11.7329 36.3363 11.5913 36.2527 11.4851C36.169 11.3789 36.0596 11.3242 35.918 11.3242ZM37.4187 11.0764V11.2985C37.5281 11.1182 37.7083 11.0281 37.9593 11.0281C38.1878 11.0281 38.3712 11.1086 38.5096 11.2695C38.6447 11.4304 38.7155 11.646 38.7155 11.9131C38.7155 12.177 38.648 12.3862 38.5128 12.5439C38.3776 12.7015 38.2007 12.7788 37.9786 12.7788C37.7405 12.7788 37.5603 12.6919 37.438 12.5181V13.3516H37.0743V11.0764H37.4187ZM37.8853 11.3242C37.7405 11.3242 37.6278 11.3757 37.5474 11.4787C37.4637 11.5816 37.4251 11.7265 37.4251 11.9067C37.4251 12.0869 37.4637 12.2285 37.5474 12.3315C37.6311 12.4344 37.7437 12.4859 37.8917 12.4859C38.0301 12.4859 38.1395 12.4344 38.2232 12.3315C38.3036 12.2285 38.3455 12.0901 38.3455 11.9131C38.3455 11.7329 38.3036 11.5913 38.22 11.4851C38.1363 11.3789 38.0269 11.3242 37.8853 11.3242ZM39.8043 11.0281C40.0553 11.0281 40.2581 11.1086 40.4093 11.2663C40.5573 11.4272 40.6346 11.6396 40.6346 11.9067C40.6346 12.177 40.5573 12.3926 40.4093 12.5503C40.2613 12.7112 40.0585 12.7884 39.8043 12.7884C39.5436 12.7884 39.3377 12.7112 39.1864 12.5503C39.032 12.3926 38.958 12.177 38.958 11.9067C38.958 11.6396 39.032 11.4272 39.1864 11.2663C39.3409 11.1086 39.5469 11.0281 39.8043 11.0281ZM39.7979 11.3178C39.6498 11.3178 39.5372 11.3725 39.4535 11.4755C39.3699 11.5816 39.328 11.7265 39.328 11.9067C39.328 12.0933 39.3699 12.2414 39.4535 12.3443C39.5372 12.4505 39.6531 12.502 39.8011 12.502C39.9427 12.502 40.0553 12.4505 40.139 12.3443C40.2227 12.2381 40.2645 12.0901 40.2645 11.9035C40.2645 11.7232 40.2227 11.5784 40.139 11.4755C40.0553 11.3725 39.9427 11.3178 39.7979 11.3178ZM41.8825 11.0442V11.395C41.8181 11.3886 41.773 11.3853 41.7537 11.3853C41.4319 11.3853 41.2742 11.5945 41.2742 12.0064V12.7369H40.9106V11.0764H41.2549V11.4079C41.3708 11.1633 41.5574 11.0378 41.8117 11.0378L41.8825 11.0442ZM42.8851 11.0764V11.3435H42.5504V12.2188C42.5504 12.2703 42.5504 12.3089 42.5536 12.3282C42.5536 12.3476 42.5601 12.3701 42.5729 12.3958C42.5826 12.4216 42.6019 12.4377 42.6277 12.4441C42.6534 12.4537 42.692 12.457 42.7403 12.457C42.7982 12.457 42.8465 12.457 42.8851 12.4505V12.7402C42.8111 12.7498 42.7274 12.753 42.6373 12.753C42.5729 12.753 42.515 12.7498 42.4667 12.7402C42.4185 12.7305 42.3799 12.7176 42.3477 12.7048C42.3155 12.6919 42.2865 12.6726 42.2672 12.6404C42.2447 12.6082 42.2286 12.5825 42.2157 12.5632C42.2029 12.5439 42.1964 12.5052 42.19 12.4537C42.1836 12.4023 42.1836 12.3636 42.1836 12.3379V12.1963V12.177V12.1577V12.1352V11.3435H41.9068V11.0764H42.1836V10.5776H42.5504V11.0764H42.8851ZM25.1799 14.0571H24.8259C24.7873 13.8511 24.6715 13.7482 24.4848 13.7482C24.4301 13.7482 24.3818 13.761 24.3368 13.7803C24.2917 13.8029 24.2531 13.8286 24.2242 13.8544C24.192 13.8833 24.1662 13.9252 24.1437 13.9766C24.118 14.0281 24.1019 14.0732 24.089 14.1086C24.0761 14.144 24.0665 14.1955 24.0536 14.2598C24.0407 14.3274 24.0343 14.3725 24.0343 14.3982C24.0311 14.424 24.0279 14.469 24.0214 14.5269C24.1437 14.3435 24.3175 14.2502 24.5363 14.2502C24.7423 14.2502 24.9096 14.321 25.0383 14.4561C25.1671 14.5945 25.2314 14.7747 25.2314 14.9936C25.2314 15.2253 25.1574 15.4119 25.0158 15.5599C24.8742 15.708 24.6908 15.782 24.472 15.782C24.2113 15.782 24.0118 15.6854 23.8734 15.4891C23.7318 15.2961 23.6642 15.0161 23.6642 14.6524C23.6642 14.2791 23.7382 13.9863 23.8863 13.7739C24.0343 13.5647 24.237 13.4585 24.5009 13.4585C24.6908 13.4585 24.8453 13.5132 24.9675 13.6162C25.0866 13.7224 25.1574 13.8705 25.1799 14.0571ZM24.4623 14.543C24.34 14.543 24.2467 14.5849 24.1759 14.6685C24.1051 14.7522 24.0697 14.8616 24.0697 14.9968C24.0697 15.1416 24.1051 15.2574 24.1791 15.3443C24.2531 15.4344 24.3497 15.4763 24.472 15.4763C24.5878 15.4763 24.6843 15.4344 24.7551 15.3476C24.8259 15.2639 24.8646 15.148 24.8646 15.0064C24.8646 14.8681 24.8259 14.7554 24.7551 14.6718C24.6811 14.5881 24.5846 14.543 24.4623 14.543ZM26.4703 13.4457H27.5162C27.7543 13.4457 27.9378 13.5004 28.0665 13.6034C28.1952 13.7063 28.2596 13.8479 28.2596 14.0217C28.2596 14.1311 28.2274 14.2309 28.1695 14.3178C28.1083 14.4047 28.0279 14.4658 27.9313 14.5044C28.0633 14.5366 28.1695 14.601 28.2467 14.6975C28.3239 14.794 28.3626 14.9163 28.3626 15.0611C28.3626 15.2639 28.295 15.428 28.1598 15.5503C28.0247 15.6758 27.8509 15.7369 27.6385 15.7369H26.4703V13.4457ZM26.8629 13.7707V14.4014H27.41C27.5645 14.4014 27.6771 14.3789 27.7511 14.3306C27.8219 14.2824 27.8605 14.2019 27.8605 14.0861C27.8605 13.9573 27.8219 13.8737 27.7447 13.8318C27.6675 13.7932 27.5613 13.7707 27.4229 13.7707H26.8629ZM26.8629 14.6911V15.4087H27.4647C27.6192 15.4087 27.7383 15.3829 27.8284 15.3315C27.9152 15.28 27.9603 15.1866 27.9603 15.0515C27.9603 14.9775 27.9442 14.9163 27.9185 14.8648C27.8927 14.8133 27.8541 14.778 27.8026 14.7522C27.7511 14.7297 27.6996 14.7136 27.6481 14.7039C27.5934 14.6975 27.5291 14.6911 27.4583 14.6911H26.8629ZM28.675 14.5881C28.7137 14.2148 28.955 14.0249 29.4023 14.0249C29.6083 14.0249 29.7756 14.0668 29.8979 14.1472C30.0202 14.2309 30.0846 14.3564 30.0846 14.5269V15.3701C30.0846 15.4183 30.0878 15.4505 30.1007 15.4666C30.1135 15.4859 30.1361 15.4924 30.1715 15.4924C30.1972 15.4924 30.2229 15.4924 30.2551 15.4859V15.7434C30.1586 15.7691 30.0813 15.7788 30.017 15.7788C29.8593 15.7788 29.7692 15.7144 29.7467 15.5793C29.6051 15.7144 29.412 15.7788 29.1642 15.7788C28.9904 15.7788 28.8553 15.7369 28.7555 15.6468C28.6525 15.5567 28.6042 15.4377 28.6042 15.2832C28.6042 15.2381 28.6075 15.1931 28.6203 15.1512C28.63 15.1126 28.6429 15.0772 28.6557 15.0451C28.6686 15.0161 28.6911 14.9871 28.7233 14.9614C28.7555 14.9356 28.7812 14.9163 28.8005 14.897C28.8199 14.8809 28.8553 14.8648 28.9003 14.8487C28.9454 14.8359 28.9808 14.823 29.0033 14.8166C29.0258 14.8101 29.0644 14.8005 29.1224 14.7908C29.1771 14.7844 29.2125 14.778 29.2318 14.7747C29.2511 14.7715 29.2897 14.7651 29.3476 14.7586C29.4763 14.7426 29.5665 14.7297 29.6147 14.7168C29.6598 14.7039 29.692 14.6878 29.7113 14.6621C29.7241 14.646 29.7338 14.6074 29.7338 14.543C29.7338 14.3757 29.6179 14.292 29.3927 14.292C29.2704 14.292 29.1835 14.3145 29.1288 14.3596C29.0709 14.4047 29.0355 14.4819 29.0226 14.5881H28.675ZM29.7306 14.9035C29.7016 14.9195 29.6694 14.9324 29.634 14.9453C29.5954 14.9582 29.5665 14.9646 29.5439 14.9678C29.5214 14.971 29.486 14.9743 29.4377 14.9807C29.3895 14.9871 29.3573 14.9936 29.3444 14.9936C29.2994 15 29.264 15.0064 29.2382 15.0129C29.2125 15.0193 29.1803 15.0257 29.1417 15.0386C29.103 15.0515 29.0741 15.0676 29.0548 15.0869C29.0355 15.1062 29.0162 15.1287 29.0033 15.1609C28.9872 15.1931 28.9808 15.2285 28.9808 15.2703C28.9808 15.3508 29.0065 15.4119 29.058 15.4537C29.1095 15.4988 29.1835 15.5181 29.28 15.5181C29.4409 15.5181 29.5665 15.4763 29.6566 15.3862C29.7048 15.3379 29.7306 15.2414 29.7306 15.0998V14.9035ZM31.419 14.0442V14.395C31.3546 14.3886 31.3096 14.3853 31.2903 14.3853C30.9685 14.3853 30.8108 14.5945 30.8108 15.0064V15.7369H30.4471V14.0764H30.7915V14.4079C30.9073 14.1633 31.094 14.0378 31.3482 14.0378L31.419 14.0442ZM32.5514 13.4457H33.5972C33.8354 13.4457 34.0188 13.5004 34.1475 13.6034C34.2763 13.7063 34.3406 13.8479 34.3406 14.0217C34.3406 14.1311 34.3084 14.2309 34.2505 14.3178C34.1894 14.4047 34.1089 14.4658 34.0124 14.5044C34.1443 14.5366 34.2505 14.601 34.3278 14.6975C34.405 14.794 34.4436 14.9163 34.4436 15.0611C34.4436 15.2639 34.376 15.428 34.2409 15.5503C34.1057 15.6758 33.9319 15.7369 33.7195 15.7369H32.5514V13.4457ZM32.944 13.7707V14.4014H33.4911C33.6455 14.4014 33.7582 14.3789 33.8322 14.3306C33.903 14.2824 33.9416 14.2019 33.9416 14.0861C33.9416 13.9573 33.903 13.8737 33.8257 13.8318C33.7485 13.7932 33.6423 13.7707 33.5039 13.7707H32.944ZM32.944 14.6911V15.4087H33.5458C33.7002 15.4087 33.8193 15.3829 33.9094 15.3315C33.9963 15.28 34.0413 15.1866 34.0413 15.0515C34.0413 14.9775 34.0253 14.9163 33.9995 14.8648C33.9738 14.8133 33.9351 14.778 33.8837 14.7522C33.8322 14.7297 33.7807 14.7136 33.7292 14.7039C33.6745 14.6975 33.6101 14.6911 33.5393 14.6911H32.944ZM36.2589 15.2188C36.2171 15.399 36.127 15.5406 35.9918 15.6404C35.8567 15.7434 35.6925 15.7916 35.5059 15.7916C35.2549 15.7916 35.0554 15.7112 34.9073 15.5503C34.7593 15.3894 34.6885 15.1802 34.6885 14.926C34.6885 14.6685 34.7625 14.4529 34.9138 14.2824C35.065 14.115 35.2581 14.0281 35.493 14.0281C35.7344 14.0281 35.9275 14.1118 36.0691 14.2791C36.2107 14.4465 36.2815 14.6718 36.2815 14.9582V14.9968H35.0554C35.0586 15.1641 35.1004 15.2961 35.1809 15.3862C35.2581 15.4763 35.3707 15.5213 35.5123 15.5213C35.6121 15.5213 35.6925 15.4988 35.7569 15.4505C35.8213 15.4023 35.8695 15.325 35.9082 15.2188H36.2589ZM35.9146 14.7522C35.9017 14.6138 35.8599 14.5044 35.7827 14.424C35.7054 14.3435 35.6089 14.3017 35.4898 14.3017C35.3675 14.3017 35.271 14.3403 35.197 14.4175C35.1229 14.4948 35.0779 14.6074 35.0618 14.7522H35.9146ZM36.5443 14.5881C36.5829 14.2148 36.8242 14.0249 37.2715 14.0249C37.4775 14.0249 37.6448 14.0668 37.7671 14.1472C37.8894 14.2309 37.9538 14.3564 37.9538 14.5269V15.3701C37.9538 15.4183 37.957 15.4505 37.9699 15.4666C37.9827 15.4859 38.0053 15.4924 38.0407 15.4924C38.0664 15.4924 38.0922 15.4924 38.1243 15.4859V15.7434C38.0278 15.7691 37.9506 15.7788 37.8862 15.7788C37.7285 15.7788 37.6384 15.7144 37.6159 15.5793C37.4743 15.7144 37.2812 15.7788 37.0334 15.7788C36.8596 15.7788 36.7245 15.7369 36.6247 15.6468C36.5217 15.5567 36.4735 15.4377 36.4735 15.2832C36.4735 15.2381 36.4767 15.1931 36.4896 15.1512C36.4992 15.1126 36.5121 15.0772 36.5249 15.0451C36.5378 15.0161 36.5603 14.9871 36.5925 14.9614C36.6247 14.9356 36.6505 14.9163 36.6698 14.897C36.6891 14.8809 36.7245 14.8648 36.7695 14.8487C36.8146 14.8359 36.85 14.823 36.8725 14.8166C36.895 14.8101 36.9336 14.8005 36.9916 14.7908C37.0463 14.7844 37.0817 14.778 37.101 14.7747C37.1203 14.7715 37.1589 14.7651 37.2168 14.7586C37.3456 14.7426 37.4357 14.7297 37.4839 14.7168C37.529 14.7039 37.5612 14.6878 37.5805 14.6621C37.5934 14.646 37.603 14.6074 37.603 14.543C37.603 14.3757 37.4872 14.292 37.2619 14.292C37.1396 14.292 37.0527 14.3145 36.998 14.3596C36.9401 14.4047 36.9047 14.4819 36.8918 14.5881H36.5443ZM37.5998 14.9035C37.5708 14.9195 37.5386 14.9324 37.5032 14.9453C37.4646 14.9582 37.4357 14.9646 37.4131 14.9678C37.3906 14.971 37.3552 14.9743 37.3069 14.9807C37.2587 14.9871 37.2265 14.9936 37.2136 14.9936C37.1686 15 37.1332 15.0064 37.1074 15.0129C37.0817 15.0193 37.0495 15.0257 37.0109 15.0386C36.9723 15.0515 36.9433 15.0676 36.924 15.0869C36.9047 15.1062 36.8854 15.1287 36.8725 15.1609C36.8564 15.1931 36.85 15.2285 36.85 15.2703C36.85 15.3508 36.8757 15.4119 36.9272 15.4537C36.9787 15.4988 37.0527 15.5181 37.1493 15.5181C37.3102 15.5181 37.4357 15.4763 37.5258 15.3862C37.574 15.3379 37.5998 15.2414 37.5998 15.0998V14.9035ZM38.6993 14.0764V14.3113C38.8345 14.1247 39.0082 14.0314 39.2206 14.0314C39.33 14.0314 39.4234 14.0571 39.5038 14.1054C39.5843 14.1569 39.6454 14.2244 39.684 14.3145C39.816 14.1279 39.9962 14.0314 40.2214 14.0314C40.3759 14.0314 40.5079 14.0796 40.6108 14.173C40.7138 14.2663 40.7653 14.395 40.7653 14.5591V15.7369H40.3984V14.7168C40.3984 14.601 40.3759 14.5076 40.3373 14.4401C40.2955 14.3757 40.2182 14.3403 40.1024 14.3403C39.9833 14.3403 39.8932 14.3789 39.8321 14.4529C39.7677 14.5269 39.7387 14.6299 39.7387 14.7619V15.7369H39.3719V14.6975C39.3719 14.5816 39.3526 14.4915 39.3172 14.4304C39.2818 14.3725 39.2077 14.3403 39.0983 14.3403C38.9728 14.3403 38.8795 14.3821 38.8151 14.4626C38.7508 14.543 38.7186 14.6492 38.7186 14.7812V15.7369H38.3517V14.0764H38.6993Z" fill="black"/>
<path d="M5.29492 29.6428V28.436H20.849" stroke="#B02E0C" stroke-width="0.482712" stroke-linecap="square"/>
<path d="M39.6211 29.6428V28.436H24.067" stroke="#B02E0C" stroke-width="0.482712" stroke-linecap="square"/>
<path d="M6.9043 33.3969L7.44064 33.7065V33.0872L6.9043 33.3969ZM9.72012 33.3969L9.18377 33.0872V33.7065L9.72012 33.3969ZM7.38701 33.3969V33.4505H9.23741V33.3969V33.3432H7.38701V33.3969Z" fill="black"/>
<path d="M8.78826 31.8466H8.59678C8.58391 31.713 8.50185 31.6454 8.34738 31.6454C8.27819 31.6454 8.22509 31.6599 8.18648 31.6889C8.14786 31.7178 8.12855 31.7565 8.12855 31.8047C8.12855 31.8514 8.14142 31.8836 8.17039 31.8997C8.19935 31.9174 8.2621 31.9383 8.36025 31.9624C8.386 31.9705 8.40531 31.9753 8.41979 31.9785C8.5469 32.0107 8.63379 32.0396 8.68045 32.0654C8.78182 32.1201 8.83331 32.2054 8.83331 32.3212C8.83331 32.3727 8.82366 32.4178 8.80757 32.458C8.78987 32.4998 8.76734 32.5336 8.73838 32.561C8.70941 32.5883 8.67402 32.6109 8.6354 32.6286C8.59517 32.6479 8.55334 32.6607 8.5115 32.6688C8.46806 32.6768 8.423 32.68 8.37795 32.68C8.23314 32.68 8.11729 32.6463 8.02879 32.5771C7.93868 32.5095 7.89524 32.4081 7.89524 32.2746H8.09315C8.09315 32.3582 8.1205 32.421 8.17521 32.4612C8.22992 32.5014 8.30072 32.5207 8.38921 32.5207C8.46645 32.5207 8.52598 32.5063 8.56943 32.4741C8.61287 32.4419 8.6354 32.3985 8.6354 32.3405C8.6354 32.3051 8.62253 32.2746 8.6 32.252C8.57747 32.2295 8.55173 32.2118 8.52598 32.2022C8.49863 32.1925 8.45197 32.1796 8.386 32.1619C8.37795 32.1603 8.37152 32.1587 8.3683 32.1571C8.22509 32.1217 8.13177 32.0911 8.08672 32.067C7.99339 32.0187 7.94351 31.9447 7.93707 31.8433V31.8208C7.93707 31.7194 7.97408 31.639 8.05132 31.5778C8.12855 31.5167 8.23153 31.4861 8.36025 31.4861C8.48415 31.4861 8.58552 31.5167 8.66436 31.5746C8.74159 31.6342 8.78343 31.7243 8.78826 31.8466Z" fill="black"/>
</svg>
