<svg width="46" height="46" viewBox="0 0 46 46" fill="none" xmlns="http://www.w3.org/2000/svg">
<rect width="46" height="46" rx="11.3448" fill="#F3F3F3"/>
<rect x="0.405172" y="0.405172" width="45.1897" height="45.1897" rx="10.9397" stroke="#B02E0C" stroke-opacity="0.04" stroke-width="0.810345"/>
<rect x="2.93411" y="26.1" width="38.9333" height="10.9333" stroke="black" stroke-width="0.266667"/>
<path d="M6.80078 27.5667V35.5667" stroke="black" stroke-width="0.266667" stroke-linecap="square"/>
<path d="M9.91992 27.5667V35.5667" stroke="black" stroke-width="0.266667" stroke-linecap="square"/>
<path d="M13.041 27.5667V35.5667" stroke="black" stroke-width="0.266667" stroke-linecap="square"/>
<path d="M16.1602 27.5667V35.5667" stroke="black" stroke-width="0.266667" stroke-linecap="square"/>
<path d="M19.2812 27.5667V35.5667" stroke="black" stroke-width="0.266667" stroke-linecap="square"/>
<path d="M22.4004 27.5667V35.5667" stroke="black" stroke-width="0.266667" stroke-linecap="square"/>
<path d="M25.5215 27.5667V35.5667" stroke="black" stroke-width="0.266667" stroke-linecap="square"/>
<path d="M28.6406 27.5667V35.5667" stroke="black" stroke-width="0.266667" stroke-linecap="square"/>
<path d="M31.7617 27.5667V35.5667" stroke="black" stroke-width="0.266667" stroke-linecap="square"/>
<path d="M34.8809 27.5667V35.5667" stroke="black" stroke-width="0.266667" stroke-linecap="square"/>
<path d="M38 27.5667V35.5667" stroke="black" stroke-width="0.266667" stroke-linecap="square"/>
<path d="M17.6072 29.5618V29.7298H16.9848V30.0322H17.5624V30.1938H16.9848V30.5298H17.6168V30.701H16.7864V29.5618H17.6072ZM18.615 29.8978H18.4246C18.4118 29.765 18.3302 29.6978 18.1766 29.6978C18.1078 29.6978 18.055 29.7122 18.0166 29.741C17.9782 29.7698 17.959 29.8082 17.959 29.8562C17.959 29.9026 17.9718 29.9346 18.0006 29.9506C18.0294 29.9682 18.0918 29.989 18.1894 30.013C18.215 30.021 18.2342 30.0258 18.2486 30.029C18.375 30.061 18.4614 30.0898 18.5078 30.1154C18.6086 30.1698 18.6598 30.2546 18.6598 30.3698C18.6598 30.421 18.6502 30.4658 18.6342 30.5058C18.6166 30.5474 18.5942 30.581 18.5654 30.6082C18.5366 30.6354 18.5014 30.6578 18.463 30.6754C18.423 30.6946 18.3814 30.7074 18.3398 30.7154C18.2966 30.7234 18.2518 30.7266 18.207 30.7266C18.063 30.7266 17.9478 30.693 17.8598 30.6242C17.7702 30.557 17.727 30.4562 17.727 30.3234H17.9238C17.9238 30.4066 17.951 30.469 18.0054 30.509C18.0598 30.549 18.1302 30.5682 18.2182 30.5682C18.295 30.5682 18.3542 30.5538 18.3974 30.5218C18.4406 30.4898 18.463 30.4466 18.463 30.389C18.463 30.3538 18.4502 30.3234 18.4278 30.301C18.4054 30.2786 18.3798 30.261 18.3542 30.2514C18.327 30.2418 18.2806 30.229 18.215 30.2114C18.207 30.2098 18.2006 30.2082 18.1974 30.2066C18.055 30.1714 17.9622 30.141 17.9174 30.117C17.8246 30.069 17.775 29.9954 17.7686 29.8946V29.8722C17.7686 29.7714 17.8054 29.6914 17.8822 29.6306C17.959 29.5698 18.0614 29.5394 18.1894 29.5394C18.3126 29.5394 18.4134 29.5698 18.4918 29.6274C18.5686 29.6866 18.6102 29.7762 18.615 29.8978Z" fill="#B02E0C"/>
<path d="M4.40039 30.7668V28.6334C4.40039 28.0443 4.87795 27.5668 5.46706 27.5668H39.3337C39.9228 27.5668 40.4004 28.0443 40.4004 28.6334V30.7668" stroke="#F7941D" stroke-width="0.266667" stroke-linecap="square"/>
<path d="M4.40039 32.3668V34.5001C4.40039 35.0892 4.87795 35.5668 5.46706 35.5668H39.3337C39.9228 35.5668 40.4004 35.0892 40.4004 34.5001V32.3668" stroke="#F7941D" stroke-width="0.266667" stroke-linecap="square"/>
<path d="M22.9333 38.4697V38.7001H21.8922V37.1811H22.161V38.4697H22.9333Z" fill="black"/>
<rect x="2.88592" y="7.38519" width="13.9631" height="13.9631" stroke="black" stroke-width="0.170278"/>
<rect x="3.82342" y="8.32159" width="12.09" height="12.09" rx="1.27708" stroke="#F7941D" stroke-width="0.170278"/>
<circle cx="5.44089" cy="9.9393" r="0.681125" fill="#F7941D"/>
<circle cx="9.8823" cy="9.9393" r="0.681125" fill="#B02E0C"/>
<circle cx="5.44089" cy="18.7939" r="0.681125" fill="#F7941D"/>
<circle cx="9.8823" cy="18.7939" r="0.681125" fill="#F7941D"/>
<circle cx="14.2944" cy="9.9393" r="0.681125" fill="#F7941D"/>
<circle cx="14.2944" cy="18.7939" r="0.681125" fill="#F7941D"/>
<path d="M4.75998 11.2164C3.05717 8.53451 4.54641 7.51284 6.71794 9.51364" stroke="#B02E0C" stroke-width="0.138477" stroke-linecap="round"/>
<path d="M9.18837 22.9667L9.73024 22.1795L9.22677 21.4477H9.54464L9.89024 21.9853L10.2508 21.4477H10.5494L10.046 22.1795L10.5857 22.9667H10.2614L9.88171 22.3864L9.49557 22.9667H9.18837Z" fill="black"/>
<path d="M19.1317 12.9144L18.56 13.8296V14.4333H18.2976V13.8296L17.7237 12.9144H18.0309L18.4341 13.5864L18.833 12.9144H19.1317Z" fill="black"/>
<path d="M3.86719 13.1671L4.40052 13.475V12.8592L3.86719 13.1671ZM4.34719 13.1671V13.2204H6.66719V13.1671V13.1138H4.34719V13.1671Z" fill="black"/>
<path d="M7.18676 12.4946H7.72596C7.83796 12.4946 7.93076 12.5202 8.00276 12.5714C8.07316 12.6226 8.10996 12.7026 8.10996 12.8114C8.10996 12.8802 8.09236 12.9394 8.06036 12.9874C8.02676 13.0354 7.98036 13.0706 7.92116 13.0914C7.94836 13.0978 7.97236 13.1074 7.99316 13.1202C8.01236 13.133 8.02836 13.1474 8.03956 13.1618C8.05076 13.1778 8.06036 13.197 8.06836 13.2194C8.07476 13.2434 8.07956 13.2642 8.08276 13.2818C8.08596 13.2994 8.08756 13.3218 8.09076 13.3506C8.09076 13.3586 8.09236 13.373 8.09396 13.3938C8.09556 13.4162 8.09716 13.4306 8.09716 13.437C8.09716 13.4434 8.09876 13.4562 8.10036 13.4722C8.10196 13.4898 8.10356 13.5026 8.10516 13.509C8.10516 13.5154 8.10676 13.5266 8.10996 13.5394C8.11316 13.5522 8.11476 13.5634 8.11796 13.5698C8.11956 13.5762 8.12276 13.5842 8.12596 13.5938C8.12916 13.6034 8.13236 13.6098 8.13716 13.6162C8.14036 13.6226 8.14516 13.629 8.15156 13.6338H7.93716C7.93396 13.6306 7.93076 13.6258 7.92756 13.6194C7.92436 13.613 7.92276 13.6066 7.92116 13.6002C7.91796 13.5938 7.91636 13.5874 7.91636 13.581C7.91476 13.5746 7.91316 13.5666 7.91156 13.557C7.90996 13.5474 7.90996 13.5378 7.90996 13.5314L7.90676 13.5026L7.90356 13.4738C7.90356 13.4674 7.90196 13.4562 7.90196 13.4402C7.90036 13.4242 7.90036 13.413 7.90036 13.4066C7.89396 13.3138 7.87476 13.2514 7.84116 13.2162C7.80756 13.181 7.74356 13.1634 7.65076 13.1634H7.38516V13.6338H7.18676V12.4946ZM7.38516 12.6578V13.0146H7.64916C7.68756 13.0146 7.71956 13.013 7.74676 13.0082C7.77236 13.005 7.79956 12.997 7.82676 12.9858C7.85396 12.9746 7.87476 12.9554 7.88916 12.9298C7.90356 12.9042 7.91156 12.8722 7.91156 12.8322C7.91156 12.797 7.90516 12.7666 7.89236 12.7426C7.87956 12.7186 7.86036 12.701 7.83636 12.6882C7.81236 12.677 7.78836 12.669 7.76276 12.6642C7.73716 12.661 7.70836 12.6578 7.67476 12.6578H7.38516Z" fill="black"/>
<path d="M13.3212 10.8941H13.7548C13.8332 10.8941 13.902 10.9037 13.9628 10.9197C14.022 10.9357 14.0764 10.9661 14.1276 11.0109C14.2396 11.1117 14.2956 11.2557 14.2956 11.4445C14.2956 11.6461 14.2412 11.8013 14.1356 11.9069C14.0876 11.9549 14.0364 11.9869 13.982 12.0061C13.9276 12.0253 13.8556 12.0333 13.766 12.0333H13.3212V10.8941ZM13.5196 11.0637V11.8653H13.7548C13.8796 11.8653 13.9676 11.8301 14.0188 11.7565C14.07 11.6845 14.0956 11.5837 14.0956 11.4541C14.0956 11.3325 14.0668 11.2365 14.0092 11.1677C13.9516 11.0989 13.862 11.0637 13.742 11.0637H13.5196ZM14.9591 10.9069V12.0333H14.7639V11.2589H14.4855V11.1245C14.6791 11.1245 14.7879 11.0525 14.8119 10.9069H14.9591Z" fill="black"/>
<path d="M9.05555 10.8941H9.48915C9.56755 10.8941 9.63635 10.9037 9.69715 10.9197C9.75635 10.9357 9.81075 10.9661 9.86195 11.0109C9.97395 11.1117 10.0299 11.2557 10.0299 11.4445C10.0299 11.6461 9.97555 11.8013 9.86995 11.9069C9.82195 11.9549 9.77075 11.9869 9.71635 12.0061C9.66195 12.0253 9.58995 12.0333 9.50035 12.0333H9.05555V10.8941ZM9.25395 11.0637V11.8653H9.48915C9.61395 11.8653 9.70195 11.8301 9.75315 11.7565C9.80435 11.6845 9.82995 11.5837 9.82995 11.4541C9.82995 11.3325 9.80115 11.2365 9.74355 11.1677C9.68595 11.0989 9.59635 11.0637 9.47635 11.0637H9.25395ZM10.1606 11.2733C10.1638 11.1581 10.1974 11.0685 10.263 11.0013C10.327 10.9357 10.415 10.9021 10.5254 10.9021C10.6278 10.9021 10.7126 10.9309 10.7766 10.9853C10.8406 11.0413 10.8726 11.1133 10.8726 11.2029C10.8726 11.2573 10.8582 11.3053 10.8294 11.3469C10.8006 11.3885 10.7638 11.4157 10.7158 11.4317C10.7782 11.4477 10.8278 11.4797 10.8646 11.5261C10.8998 11.5725 10.919 11.6285 10.919 11.6957C10.919 11.8029 10.8822 11.8893 10.8086 11.9565C10.735 12.0237 10.639 12.0573 10.5222 12.0573C10.4054 12.0573 10.311 12.0237 10.2406 11.9565C10.1686 11.8893 10.1334 11.8013 10.1334 11.6893V11.6653H10.3094C10.3142 11.8221 10.3862 11.9005 10.527 11.9005C10.5878 11.9005 10.6374 11.8829 10.6742 11.8477C10.7094 11.8125 10.7286 11.7629 10.7286 11.7005C10.7286 11.6365 10.7078 11.5885 10.6662 11.5581C10.6246 11.5293 10.5702 11.5133 10.5046 11.5133C10.4838 11.5133 10.4646 11.5149 10.447 11.5149V11.3773H10.463C10.495 11.3773 10.5238 11.3757 10.5478 11.3725C10.5702 11.3693 10.5942 11.3613 10.6182 11.3517C10.6422 11.3421 10.6614 11.3245 10.6742 11.3021C10.687 11.2797 10.6934 11.2509 10.6934 11.2157C10.6934 11.1677 10.6774 11.1277 10.647 11.0973C10.615 11.0685 10.5734 11.0525 10.5222 11.0525C10.4022 11.0525 10.3398 11.1261 10.335 11.2733H10.1606Z" fill="#B02E0C"/>
<path d="M13.3212 16.4942H13.7548C13.8332 16.4942 13.902 16.5038 13.9628 16.5198C14.022 16.5358 14.0764 16.5662 14.1276 16.611C14.2396 16.7118 14.2956 16.8558 14.2956 17.0446C14.2956 17.2462 14.2412 17.4014 14.1356 17.507C14.0876 17.555 14.0364 17.587 13.982 17.6062C13.9276 17.6254 13.8556 17.6334 13.766 17.6334H13.3212V16.4942ZM13.5196 16.6638V17.4654H13.7548C13.8796 17.4654 13.9676 17.4302 14.0188 17.3566C14.07 17.2846 14.0956 17.1838 14.0956 17.0542C14.0956 16.9326 14.0668 16.8366 14.0092 16.7678C13.9516 16.699 13.862 16.6638 13.742 16.6638H13.5196ZM15.1575 17.4718V17.6334H14.3927C14.3927 17.5838 14.4007 17.5374 14.4135 17.4958C14.4263 17.4542 14.4407 17.419 14.4567 17.3902C14.4727 17.3614 14.4983 17.331 14.5303 17.3006C14.5623 17.2702 14.5927 17.2446 14.6183 17.2254C14.6439 17.2062 14.6807 17.1806 14.7271 17.1486C14.7303 17.147 14.7447 17.1374 14.7735 17.1182C14.8023 17.099 14.8199 17.0878 14.8263 17.083C14.8327 17.0782 14.8471 17.067 14.8695 17.0494C14.8919 17.0318 14.9063 17.0174 14.9127 17.0062C14.9191 16.9966 14.9287 16.9822 14.9415 16.963C14.9543 16.9454 14.9623 16.9278 14.9671 16.9086C14.9703 16.8894 14.9735 16.8702 14.9735 16.8478C14.9735 16.7902 14.9559 16.7438 14.9239 16.7102C14.8919 16.6766 14.8471 16.659 14.7927 16.659C14.7607 16.659 14.7319 16.6654 14.7095 16.675C14.6855 16.6846 14.6663 16.6974 14.6535 16.7134C14.6407 16.7294 14.6295 16.7502 14.6215 16.7758C14.6119 16.8014 14.6071 16.8238 14.6039 16.8462C14.6007 16.8686 14.5991 16.8958 14.5991 16.9246H14.4215V16.8958C14.4215 16.7758 14.4551 16.6798 14.5223 16.6094C14.5895 16.539 14.6823 16.5022 14.7975 16.5022C14.9063 16.5022 14.9927 16.5342 15.0599 16.595C15.1255 16.6558 15.1591 16.7374 15.1591 16.8382C15.1591 16.8798 15.1527 16.9182 15.1399 16.9534C15.1271 16.9902 15.1127 17.019 15.0983 17.0414C15.0839 17.0638 15.0599 17.091 15.0247 17.1198C14.9895 17.1502 14.9623 17.171 14.9463 17.1822C14.9287 17.195 14.8967 17.2158 14.8519 17.2462C14.7175 17.3326 14.6375 17.4078 14.6119 17.4718H15.1575Z" fill="black"/>
<path d="M22.7669 11.0472V13.3H22.3765V11.7512H21.8197V11.4824C22.2069 11.4824 22.4245 11.3384 22.4725 11.0472H22.7669ZM26.1077 11.0216V11.3576H24.8629V11.9624H26.0181V12.2856H24.8629V12.9576H26.1269V13.3H24.4661V11.0216H26.1077ZM26.7857 11.6488V11.892C26.9169 11.7 27.0993 11.604 27.3329 11.604C27.5185 11.604 27.6593 11.6552 27.7521 11.7576C27.8449 11.86 27.8929 12.0072 27.8929 12.1992V13.3H27.5281V12.34C27.5281 12.276 27.5249 12.2216 27.5185 12.1768C27.5121 12.132 27.4961 12.0872 27.4769 12.0424C27.4577 11.9976 27.4257 11.9656 27.3809 11.9432C27.3361 11.9208 27.2785 11.908 27.2081 11.908C26.9393 11.908 26.8049 12.0776 26.8049 12.4104V13.3H26.4401V11.6488H26.7857ZM29.8392 11.0216V13.3H29.4968V13.0728C29.3912 13.2552 29.2152 13.3448 28.9688 13.3448C28.7352 13.3448 28.5496 13.268 28.412 13.108C28.2744 12.9512 28.2072 12.74 28.2072 12.4712C28.2072 12.2088 28.2744 11.9976 28.4088 11.8408C28.5432 11.684 28.7256 11.604 28.956 11.604C29.1864 11.604 29.3624 11.6904 29.4808 11.8632V11.0216H29.8392ZM29.0232 11.8984C28.8824 11.8984 28.7736 11.9496 28.6936 12.052C28.6136 12.1544 28.5752 12.292 28.5752 12.4648C28.5752 12.6472 28.6136 12.7912 28.6968 12.8936C28.78 12.9992 28.892 13.0504 29.036 13.0504C29.1768 13.0504 29.2888 12.9992 29.3688 12.8968C29.4488 12.7944 29.4904 12.6536 29.4904 12.4712C29.4904 12.292 29.4488 12.1512 29.3656 12.0488C29.2824 11.9496 29.1704 11.8984 29.0232 11.8984ZM32.8077 11.6936H32.4269C32.4013 11.428 32.2381 11.2936 31.9309 11.2936C31.7933 11.2936 31.6877 11.3224 31.6109 11.38C31.5341 11.4376 31.4957 11.5144 31.4957 11.6104C31.4957 11.7032 31.5213 11.7672 31.5789 11.7992C31.6365 11.8344 31.7613 11.876 31.9565 11.924C32.0077 11.94 32.0461 11.9496 32.0749 11.956C32.3277 12.02 32.5005 12.0776 32.5933 12.1288C32.7949 12.2376 32.8973 12.4072 32.8973 12.6376C32.8973 12.74 32.8781 12.8296 32.8461 12.9096C32.8109 12.9928 32.7661 13.06 32.7085 13.1144C32.6509 13.1688 32.5805 13.2136 32.5037 13.2488C32.4237 13.2872 32.3405 13.3128 32.2573 13.3288C32.1709 13.3448 32.0813 13.3512 31.9917 13.3512C31.7037 13.3512 31.4733 13.284 31.2973 13.1464C31.1181 13.012 31.0317 12.8104 31.0317 12.5448H31.4253C31.4253 12.7112 31.4797 12.836 31.5885 12.916C31.6973 12.996 31.8381 13.0344 32.0141 13.0344C32.1677 13.0344 32.2861 13.0056 32.3725 12.9416C32.4589 12.8776 32.5037 12.7912 32.5037 12.676C32.5037 12.6056 32.4781 12.5448 32.4333 12.5C32.3885 12.4552 32.3373 12.42 32.2861 12.4008C32.2317 12.3816 32.1389 12.356 32.0077 12.3208C31.9917 12.3176 31.9789 12.3144 31.9725 12.3112C31.6877 12.2408 31.5021 12.18 31.4125 12.132C31.2269 12.036 31.1277 11.8888 31.1149 11.6872V11.6424C31.1149 11.4408 31.1885 11.2808 31.3421 11.1592C31.4957 11.0376 31.7005 10.9768 31.9565 10.9768C32.2029 10.9768 32.4045 11.0376 32.5613 11.1528C32.7149 11.2712 32.7981 11.4504 32.8077 11.6936ZM34.6459 11.6488V13.3H34.3035V13.0536C34.1627 13.2488 33.9835 13.3448 33.7595 13.3448C33.5771 13.3448 33.4363 13.2936 33.3403 13.1912C33.2443 13.0888 33.1963 12.9384 33.1963 12.7432V11.6488H33.5611V12.5928C33.5611 12.6504 33.5611 12.6984 33.5643 12.7336C33.5643 12.7688 33.5707 12.8072 33.5835 12.852C33.5963 12.8968 33.6123 12.9288 33.6347 12.9512C33.6571 12.9768 33.6891 12.996 33.7307 13.012C33.7723 13.0312 33.8235 13.0376 33.8843 13.0376C34.0187 13.0376 34.1211 12.9896 34.1851 12.8936C34.2491 12.7976 34.2811 12.6728 34.2811 12.5224V11.6488H34.6459ZM35.3826 11.6488V11.8696C35.4914 11.6904 35.6706 11.6008 35.9202 11.6008C36.1474 11.6008 36.3298 11.6808 36.4674 11.8408C36.6018 12.0008 36.6722 12.2152 36.6722 12.4808C36.6722 12.7432 36.605 12.9512 36.4706 13.108C36.3362 13.2648 36.1602 13.3416 35.9394 13.3416C35.7026 13.3416 35.5234 13.2552 35.4018 13.0824V13.9112H35.0402V11.6488H35.3826ZM35.8466 11.8952C35.7026 11.8952 35.5906 11.9464 35.5106 12.0488C35.4274 12.1512 35.389 12.2952 35.389 12.4744C35.389 12.6536 35.4274 12.7944 35.5106 12.8968C35.5938 12.9992 35.7058 13.0504 35.853 13.0504C35.9906 13.0504 36.0994 12.9992 36.1826 12.8968C36.2626 12.7944 36.3042 12.6568 36.3042 12.4808C36.3042 12.3016 36.2626 12.1608 36.1794 12.0552C36.0962 11.9496 35.9874 11.8952 35.8466 11.8952ZM37.3388 11.6488V11.8696C37.4476 11.6904 37.6268 11.6008 37.8764 11.6008C38.1036 11.6008 38.286 11.6808 38.4236 11.8408C38.558 12.0008 38.6284 12.2152 38.6284 12.4808C38.6284 12.7432 38.5612 12.9512 38.4268 13.108C38.2924 13.2648 38.1164 13.3416 37.8956 13.3416C37.6588 13.3416 37.4796 13.2552 37.358 13.0824V13.9112H36.9964V11.6488H37.3388ZM37.8028 11.8952C37.6588 11.8952 37.5468 11.9464 37.4668 12.0488C37.3836 12.1512 37.3452 12.2952 37.3452 12.4744C37.3452 12.6536 37.3836 12.7944 37.4668 12.8968C37.55 12.9992 37.662 13.0504 37.8092 13.0504C37.9468 13.0504 38.0556 12.9992 38.1388 12.8968C38.2188 12.7944 38.2604 12.6568 38.2604 12.4808C38.2604 12.3016 38.2188 12.1608 38.1356 12.0552C38.0524 11.9496 37.9436 11.8952 37.8028 11.8952ZM39.7111 11.6008C39.9607 11.6008 40.1623 11.6808 40.3127 11.8376C40.4599 11.9976 40.5367 12.2088 40.5367 12.4744C40.5367 12.7432 40.4599 12.9576 40.3127 13.1144C40.1655 13.2744 39.9639 13.3512 39.7111 13.3512C39.4519 13.3512 39.2471 13.2744 39.0967 13.1144C38.9431 12.9576 38.8695 12.7432 38.8695 12.4744C38.8695 12.2088 38.9431 11.9976 39.0967 11.8376C39.2503 11.6808 39.4551 11.6008 39.7111 11.6008ZM39.7047 11.8888C39.5575 11.8888 39.4455 11.9432 39.3623 12.0456C39.2791 12.1512 39.2375 12.2952 39.2375 12.4744C39.2375 12.66 39.2791 12.8072 39.3623 12.9096C39.4455 13.0152 39.5607 13.0664 39.7079 13.0664C39.8487 13.0664 39.9607 13.0152 40.0439 12.9096C40.1271 12.804 40.1687 12.6568 40.1687 12.4712C40.1687 12.292 40.1271 12.148 40.0439 12.0456C39.9607 11.9432 39.8487 11.8888 39.7047 11.8888ZM41.7776 11.6168V11.9656C41.7136 11.9592 41.6688 11.956 41.6496 11.956C41.3296 11.956 41.1728 12.164 41.1728 12.5736V13.3H40.8112V11.6488H41.1536V11.9784C41.2688 11.7352 41.4544 11.6104 41.7072 11.6104L41.7776 11.6168ZM42.7746 11.6488V11.9144H42.4418V12.7848C42.4418 12.836 42.4418 12.8744 42.445 12.8936C42.445 12.9128 42.4514 12.9352 42.4642 12.9608C42.4738 12.9864 42.493 13.0024 42.5186 13.0088C42.5442 13.0184 42.5826 13.0216 42.6306 13.0216C42.6882 13.0216 42.7362 13.0216 42.7746 13.0152V13.3032C42.701 13.3128 42.6178 13.316 42.5282 13.316C42.4642 13.316 42.4066 13.3128 42.3586 13.3032C42.3106 13.2936 42.2722 13.2808 42.2402 13.268C42.2082 13.2552 42.1794 13.236 42.1602 13.204C42.1378 13.172 42.1218 13.1464 42.109 13.1272C42.0962 13.108 42.0898 13.0696 42.0834 13.0184C42.077 12.9672 42.077 12.9288 42.077 12.9032V12.7624V12.7432V12.724V12.7016V11.9144H41.8018V11.6488H42.077V11.1528H42.4418V11.6488H42.7746ZM25.0729 14.0728V14.3896H24.1801L24.0777 14.9656C24.1769 14.86 24.3177 14.8056 24.5001 14.8056C24.7049 14.8056 24.8745 14.8728 25.0025 15.0072C25.1305 15.1416 25.1945 15.3208 25.1945 15.5384C25.1945 15.7752 25.1177 15.9704 24.9705 16.1176C24.8201 16.268 24.6281 16.3416 24.3945 16.3416C24.1705 16.3416 23.9913 16.2808 23.8537 16.1592C23.7161 16.0376 23.6425 15.8712 23.6361 15.6632H23.9977C24.0041 15.7784 24.0457 15.8712 24.1225 15.9384C24.1961 16.0088 24.2889 16.0408 24.4041 16.0408C24.5353 16.0408 24.6377 15.9992 24.7113 15.916C24.7817 15.8328 24.8201 15.7112 24.8201 15.5576C24.8201 15.4104 24.7817 15.2952 24.7081 15.212C24.6313 15.1288 24.5289 15.0872 24.3977 15.0872C24.2377 15.0872 24.1129 15.1544 24.0233 15.2888L23.7033 15.2792L23.9177 14.0728H25.0729ZM26.452 14.0216H27.492C27.7288 14.0216 27.9112 14.076 28.0392 14.1784C28.1672 14.2808 28.2312 14.4216 28.2312 14.5944C28.2312 14.7032 28.1992 14.8024 28.1416 14.8888C28.0808 14.9752 28.0008 15.036 27.9048 15.0744C28.036 15.1064 28.1416 15.1704 28.2184 15.2664C28.2952 15.3624 28.3336 15.484 28.3336 15.628C28.3336 15.8296 28.2664 15.9928 28.132 16.1144C27.9976 16.2392 27.8248 16.3 27.6136 16.3H26.452V14.0216ZM26.8424 14.3448V14.972H27.3864C27.54 14.972 27.652 14.9496 27.7256 14.9016C27.796 14.8536 27.8344 14.7736 27.8344 14.6584C27.8344 14.5304 27.796 14.4472 27.7192 14.4056C27.6424 14.3672 27.5368 14.3448 27.3992 14.3448H26.8424ZM26.8424 15.26V15.9736H27.4408C27.5944 15.9736 27.7128 15.948 27.8024 15.8968C27.8888 15.8456 27.9336 15.7528 27.9336 15.6184C27.9336 15.5448 27.9176 15.484 27.892 15.4328C27.8664 15.3816 27.828 15.3464 27.7768 15.3208C27.7256 15.2984 27.6744 15.2824 27.6232 15.2728C27.5688 15.2664 27.5048 15.26 27.4344 15.26H26.8424ZM28.6444 15.1576C28.6828 14.7864 28.9228 14.5976 29.3676 14.5976C29.5724 14.5976 29.7388 14.6392 29.8604 14.7192C29.982 14.8024 30.046 14.9272 30.046 15.0968V15.9352C30.046 15.9832 30.0492 16.0152 30.062 16.0312C30.0748 16.0504 30.0972 16.0568 30.1324 16.0568C30.158 16.0568 30.1836 16.0568 30.2156 16.0504V16.3064C30.1196 16.332 30.0428 16.3416 29.9788 16.3416C29.822 16.3416 29.7324 16.2776 29.71 16.1432C29.5692 16.2776 29.3772 16.3416 29.1308 16.3416C28.958 16.3416 28.8236 16.3 28.7244 16.2104C28.622 16.1208 28.574 16.0024 28.574 15.8488C28.574 15.804 28.5772 15.7592 28.59 15.7176C28.5996 15.6792 28.6124 15.644 28.6252 15.612C28.638 15.5832 28.6604 15.5544 28.6924 15.5288C28.7244 15.5032 28.75 15.484 28.7692 15.4648C28.7884 15.4488 28.8236 15.4328 28.8684 15.4168C28.9132 15.404 28.9484 15.3912 28.9708 15.3848C28.9932 15.3784 29.0316 15.3688 29.0892 15.3592C29.1436 15.3528 29.1788 15.3464 29.198 15.3432C29.2172 15.34 29.2556 15.3336 29.3132 15.3272C29.4412 15.3112 29.5308 15.2984 29.5788 15.2856C29.6236 15.2728 29.6556 15.2568 29.6748 15.2312C29.6876 15.2152 29.6972 15.1768 29.6972 15.1128C29.6972 14.9464 29.582 14.8632 29.358 14.8632C29.2364 14.8632 29.15 14.8856 29.0956 14.9304C29.038 14.9752 29.0028 15.052 28.99 15.1576H28.6444ZM29.694 15.4712C29.6652 15.4872 29.6332 15.5 29.598 15.5128C29.5596 15.5256 29.5308 15.532 29.5084 15.5352C29.486 15.5384 29.4508 15.5416 29.4028 15.548C29.3548 15.5544 29.3228 15.5608 29.31 15.5608C29.2652 15.5672 29.23 15.5736 29.2044 15.58C29.1788 15.5864 29.1468 15.5928 29.1084 15.6056C29.07 15.6184 29.0412 15.6344 29.022 15.6536C29.0028 15.6728 28.9836 15.6952 28.9708 15.7272C28.9548 15.7592 28.9484 15.7944 28.9484 15.836C28.9484 15.916 28.974 15.9768 29.0252 16.0184C29.0764 16.0632 29.15 16.0824 29.246 16.0824C29.406 16.0824 29.5308 16.0408 29.6204 15.9512C29.6684 15.9032 29.694 15.8072 29.694 15.6664V15.4712ZM31.3729 14.6168V14.9656C31.3089 14.9592 31.2641 14.956 31.2449 14.956C30.9249 14.956 30.7681 15.164 30.7681 15.5736V16.3H30.4065V14.6488H30.7489V14.9784C30.8641 14.7352 31.0497 14.6104 31.3025 14.6104L31.3729 14.6168ZM32.4989 14.0216H33.5389C33.7757 14.0216 33.9581 14.076 34.0861 14.1784C34.2141 14.2808 34.2781 14.4216 34.2781 14.5944C34.2781 14.7032 34.2461 14.8024 34.1885 14.8888C34.1277 14.9752 34.0477 15.036 33.9517 15.0744C34.0829 15.1064 34.1885 15.1704 34.2653 15.2664C34.3421 15.3624 34.3805 15.484 34.3805 15.628C34.3805 15.8296 34.3133 15.9928 34.1789 16.1144C34.0445 16.2392 33.8717 16.3 33.6605 16.3H32.4989V14.0216ZM32.8893 14.3448V14.972H33.4333C33.5869 14.972 33.6989 14.9496 33.7725 14.9016C33.8429 14.8536 33.8813 14.7736 33.8813 14.6584C33.8813 14.5304 33.8429 14.4472 33.7661 14.4056C33.6893 14.3672 33.5837 14.3448 33.4461 14.3448H32.8893ZM32.8893 15.26V15.9736H33.4877C33.6413 15.9736 33.7597 15.948 33.8493 15.8968C33.9357 15.8456 33.9805 15.7528 33.9805 15.6184C33.9805 15.5448 33.9645 15.484 33.9389 15.4328C33.9133 15.3816 33.8749 15.3464 33.8237 15.3208C33.7725 15.2984 33.7213 15.2824 33.6701 15.2728C33.6157 15.2664 33.5517 15.26 33.4813 15.26H32.8893ZM36.1856 15.7848C36.144 15.964 36.0544 16.1048 35.92 16.204C35.7856 16.3064 35.6224 16.3544 35.4368 16.3544C35.1872 16.3544 34.9888 16.2744 34.8416 16.1144C34.6944 15.9544 34.624 15.7464 34.624 15.4936C34.624 15.2376 34.6976 15.0232 34.848 14.8536C34.9984 14.6872 35.1904 14.6008 35.424 14.6008C35.664 14.6008 35.856 14.684 35.9968 14.8504C36.1376 15.0168 36.208 15.2408 36.208 15.5256V15.564H34.9888C34.992 15.7304 35.0336 15.8616 35.1136 15.9512C35.1904 16.0408 35.3024 16.0856 35.4432 16.0856C35.5424 16.0856 35.6224 16.0632 35.6864 16.0152C35.7504 15.9672 35.7984 15.8904 35.8368 15.7848H36.1856ZM35.8432 15.3208C35.8304 15.1832 35.7888 15.0744 35.712 14.9944C35.6352 14.9144 35.5392 14.8728 35.4208 14.8728C35.2992 14.8728 35.2032 14.9112 35.1296 14.988C35.056 15.0648 35.0112 15.1768 34.9952 15.3208H35.8432ZM36.4694 15.1576C36.5078 14.7864 36.7478 14.5976 37.1926 14.5976C37.3974 14.5976 37.5638 14.6392 37.6854 14.7192C37.807 14.8024 37.871 14.9272 37.871 15.0968V15.9352C37.871 15.9832 37.8742 16.0152 37.887 16.0312C37.8998 16.0504 37.9222 16.0568 37.9574 16.0568C37.983 16.0568 38.0086 16.0568 38.0406 16.0504V16.3064C37.9446 16.332 37.8678 16.3416 37.8038 16.3416C37.647 16.3416 37.5574 16.2776 37.535 16.1432C37.3942 16.2776 37.2022 16.3416 36.9558 16.3416C36.783 16.3416 36.6486 16.3 36.5494 16.2104C36.447 16.1208 36.399 16.0024 36.399 15.8488C36.399 15.804 36.4022 15.7592 36.415 15.7176C36.4246 15.6792 36.4374 15.644 36.4502 15.612C36.463 15.5832 36.4854 15.5544 36.5174 15.5288C36.5494 15.5032 36.575 15.484 36.5942 15.4648C36.6134 15.4488 36.6486 15.4328 36.6934 15.4168C36.7382 15.404 36.7734 15.3912 36.7958 15.3848C36.8182 15.3784 36.8566 15.3688 36.9142 15.3592C36.9686 15.3528 37.0038 15.3464 37.023 15.3432C37.0422 15.34 37.0806 15.3336 37.1382 15.3272C37.2662 15.3112 37.3558 15.2984 37.4038 15.2856C37.4486 15.2728 37.4806 15.2568 37.4998 15.2312C37.5126 15.2152 37.5222 15.1768 37.5222 15.1128C37.5222 14.9464 37.407 14.8632 37.183 14.8632C37.0614 14.8632 36.975 14.8856 36.9206 14.9304C36.863 14.9752 36.8278 15.052 36.815 15.1576H36.4694ZM37.519 15.4712C37.4902 15.4872 37.4582 15.5 37.423 15.5128C37.3846 15.5256 37.3558 15.532 37.3334 15.5352C37.311 15.5384 37.2758 15.5416 37.2278 15.548C37.1798 15.5544 37.1478 15.5608 37.135 15.5608C37.0902 15.5672 37.055 15.5736 37.0294 15.58C37.0038 15.5864 36.9718 15.5928 36.9334 15.6056C36.895 15.6184 36.8662 15.6344 36.847 15.6536C36.8278 15.6728 36.8086 15.6952 36.7958 15.7272C36.7798 15.7592 36.7734 15.7944 36.7734 15.836C36.7734 15.916 36.799 15.9768 36.8502 16.0184C36.9014 16.0632 36.975 16.0824 37.071 16.0824C37.231 16.0824 37.3558 16.0408 37.4454 15.9512C37.4934 15.9032 37.519 15.8072 37.519 15.6664V15.4712ZM38.6123 14.6488V14.8824C38.7467 14.6968 38.9195 14.604 39.1307 14.604C39.2395 14.604 39.3323 14.6296 39.4123 14.6776C39.4923 14.7288 39.5531 14.796 39.5915 14.8856C39.7227 14.7 39.9019 14.604 40.1259 14.604C40.2795 14.604 40.4107 14.652 40.5131 14.7448C40.6155 14.8376 40.6667 14.9656 40.6667 15.1288V16.3H40.3019V15.2856C40.3019 15.1704 40.2795 15.0776 40.2411 15.0104C40.1995 14.9464 40.1227 14.9112 40.0075 14.9112C39.8891 14.9112 39.7995 14.9496 39.7387 15.0232C39.6747 15.0968 39.6459 15.1992 39.6459 15.3304V16.3H39.2811V15.2664C39.2811 15.1512 39.2619 15.0616 39.2267 15.0008C39.1915 14.9432 39.1179 14.9112 39.0091 14.9112C38.8843 14.9112 38.7915 14.9528 38.7275 15.0328C38.6635 15.1128 38.6315 15.2184 38.6315 15.3496V16.3H38.2667V14.6488H38.6123Z" fill="black"/>
<path d="M5.33398 30.1V28.9H20.8007" stroke="#B02E0C" stroke-width="0.48" stroke-linecap="square"/>
<path d="M39.4688 30.1V28.9H24.0021" stroke="#B02E0C" stroke-width="0.48" stroke-linecap="square"/>
<path d="M10.1348 33.8336L10.6681 34.1415V33.5257L10.1348 33.8336ZM12.9348 33.8336L12.4014 33.5257V34.1415L12.9348 33.8336ZM10.6148 33.8336V33.887H12.4548V33.8336V33.7803H10.6148V33.8336Z" fill="black"/>
<path d="M12.0076 32.2971H11.8172C11.8044 32.1643 11.7228 32.0971 11.5692 32.0971C11.5004 32.0971 11.4476 32.1115 11.4092 32.1403C11.3708 32.1691 11.3516 32.2075 11.3516 32.2555C11.3516 32.3019 11.3644 32.3339 11.3932 32.3499C11.422 32.3675 11.4844 32.3883 11.582 32.4123C11.6076 32.4203 11.6268 32.4251 11.6412 32.4283C11.7676 32.4603 11.854 32.4891 11.9004 32.5147C12.0012 32.5691 12.0524 32.6539 12.0524 32.7691C12.0524 32.8203 12.0428 32.8651 12.0268 32.9051C12.0092 32.9467 11.9868 32.9803 11.958 33.0075C11.9292 33.0347 11.894 33.0571 11.8556 33.0747C11.8156 33.0939 11.774 33.1067 11.7324 33.1147C11.6892 33.1227 11.6444 33.1259 11.5996 33.1259C11.4556 33.1259 11.3404 33.0923 11.2524 33.0235C11.1628 32.9563 11.1196 32.8555 11.1196 32.7227H11.3164C11.3164 32.8059 11.3436 32.8683 11.398 32.9083C11.4524 32.9483 11.5228 32.9675 11.6108 32.9675C11.6876 32.9675 11.7468 32.9531 11.79 32.9211C11.8332 32.8891 11.8556 32.8459 11.8556 32.7883C11.8556 32.7531 11.8428 32.7227 11.8204 32.7003C11.798 32.6779 11.7724 32.6603 11.7468 32.6507C11.7196 32.6411 11.6732 32.6283 11.6076 32.6107C11.5996 32.6091 11.5932 32.6075 11.59 32.6059C11.4476 32.5707 11.3548 32.5403 11.31 32.5163C11.2172 32.4683 11.1676 32.3947 11.1612 32.2939V32.2715C11.1612 32.1707 11.198 32.0907 11.2748 32.0299C11.3516 31.9691 11.454 31.9387 11.582 31.9387C11.7052 31.9387 11.806 31.9691 11.8844 32.0267C11.9612 32.0859 12.0028 32.1755 12.0076 32.2971Z" fill="black"/>
</svg>
