<svg width="46" height="46" viewBox="0 0 46 46" fill="none" xmlns="http://www.w3.org/2000/svg">
<rect width="46" height="46" rx="11.3448" fill="#F3F3F3"/>
<rect x="0.405172" y="0.405172" width="45.1897" height="45.1897" rx="10.9397" stroke="#B02E0C" stroke-opacity="0.04" stroke-width="0.810345"/>
<rect x="4.55773" y="25.8518" width="36.2481" height="10.1793" stroke="black" stroke-width="0.248275"/>
<path d="M8.1582 27.2173V34.6655" stroke="black" stroke-width="0.248275" stroke-linecap="square"/>
<path d="M11.0625 27.2173V34.6655" stroke="black" stroke-width="0.248275" stroke-linecap="square"/>
<path d="M13.9668 27.2173V34.6655" stroke="black" stroke-width="0.248275" stroke-linecap="square"/>
<path d="M16.873 27.2173V34.6655" stroke="black" stroke-width="0.248275" stroke-linecap="square"/>
<path d="M19.7773 27.2173V34.6655" stroke="black" stroke-width="0.248275" stroke-linecap="square"/>
<path d="M22.6816 27.2173V34.6655" stroke="black" stroke-width="0.248275" stroke-linecap="square"/>
<path d="M25.5859 27.2173V34.6655" stroke="black" stroke-width="0.248275" stroke-linecap="square"/>
<path d="M28.4922 27.2173V34.6655" stroke="black" stroke-width="0.248275" stroke-linecap="square"/>
<path d="M31.3965 27.2173V34.6655" stroke="black" stroke-width="0.248275" stroke-linecap="square"/>
<path d="M34.3008 27.2173V34.6655" stroke="black" stroke-width="0.248275" stroke-linecap="square"/>
<path d="M37.2051 27.2173V34.6655" stroke="black" stroke-width="0.248275" stroke-linecap="square"/>
<path d="M18.2182 29.1436V29.3H17.6387V29.5816H18.1765V29.732H17.6387V30.0448H18.2271V30.2042H17.454V29.1436H18.2182ZM19.1565 29.4564H18.9792C18.9673 29.3328 18.8913 29.2702 18.7483 29.2702C18.6843 29.2702 18.6351 29.2836 18.5993 29.3104C18.5636 29.3372 18.5457 29.373 18.5457 29.4177C18.5457 29.4609 18.5576 29.4907 18.5845 29.5056C18.6113 29.522 18.6694 29.5413 18.7602 29.5637C18.7841 29.5711 18.8019 29.5756 18.8153 29.5786C18.933 29.6084 19.0135 29.6352 19.0567 29.659C19.1505 29.7097 19.1982 29.7886 19.1982 29.8959C19.1982 29.9435 19.1892 29.9852 19.1744 30.0225C19.158 30.0612 19.1371 30.0925 19.1103 30.1178C19.0835 30.1431 19.0507 30.164 19.015 30.1804C18.9777 30.1983 18.939 30.2102 18.9003 30.2176C18.86 30.2251 18.8183 30.2281 18.7766 30.2281C18.6425 30.2281 18.5353 30.1968 18.4534 30.1327C18.3699 30.0702 18.3297 29.9763 18.3297 29.8527H18.5129C18.5129 29.9301 18.5383 29.9882 18.5889 30.0255C18.6396 30.0627 18.7051 30.0806 18.787 30.0806C18.8585 30.0806 18.9137 30.0672 18.9539 30.0374C18.9941 30.0076 19.015 29.9674 19.015 29.9137C19.015 29.881 19.003 29.8527 18.9822 29.8318C18.9613 29.811 18.9375 29.7946 18.9137 29.7856C18.8883 29.7767 18.8451 29.7648 18.7841 29.7484C18.7766 29.7469 18.7707 29.7454 18.7677 29.7439C18.6351 29.7111 18.5487 29.6828 18.507 29.6605C18.4206 29.6158 18.3744 29.5473 18.3685 29.4534V29.4326C18.3685 29.3387 18.4027 29.2643 18.4742 29.2076C18.5457 29.151 18.6411 29.1227 18.7602 29.1227C18.8749 29.1227 18.9688 29.151 19.0418 29.2047C19.1133 29.2598 19.152 29.3432 19.1565 29.4564Z" fill="#B02E0C"/>
<path d="M5.92383 30.1966V28.2104C5.92383 27.6619 6.36845 27.2173 6.91693 27.2173H38.4478C38.9963 27.2173 39.4409 27.6619 39.4409 28.2104V30.1966" stroke="#F7941D" stroke-width="0.248275" stroke-linecap="square"/>
<path d="M5.92383 31.6862V33.6724C5.92383 34.2209 6.36845 34.6655 6.91693 34.6655H38.4478C38.9963 34.6655 39.4409 34.2209 39.4409 33.6724V31.6862" stroke="#F7941D" stroke-width="0.248275" stroke-linecap="square"/>
<path d="M23.1768 37.4372V37.6517H22.2075V36.2376H22.4578V37.4372H23.1768Z" fill="black"/>
<rect x="4.51286" y="8.42766" width="13" height="13" stroke="black" stroke-width="0.158534"/>
<rect x="5.38395" y="9.29948" width="11.2561" height="11.2561" rx="1.189" stroke="#F7941D" stroke-width="0.158534"/>
<circle cx="6.89001" cy="10.8055" r="0.634148" fill="#F7941D"/>
<circle cx="11.0267" cy="10.8055" r="0.634148" fill="#B02E0C"/>
<circle cx="6.89001" cy="19.0496" r="0.634148" fill="#F7941D"/>
<circle cx="15.1341" cy="10.8055" r="0.634148" fill="#F7941D"/>
<circle cx="15.1341" cy="19.0496" r="0.634148" fill="#F7941D"/>
<path d="M6.25592 11.9946C4.67055 9.49769 6.05708 8.54648 8.07884 10.4093" stroke="#B02E0C" stroke-width="0.128926" stroke-linecap="round"/>
<path d="M10.3807 23.0035L10.8852 22.2706L10.4164 21.5894H10.7124L11.0341 22.0899L11.3698 21.5894H11.6479L11.1791 22.2706L11.6816 23.0035H11.3797L11.0262 22.4633L10.6667 23.0035H10.3807Z" fill="black"/>
<path d="M19.6369 13.6445L19.1046 14.4966V15.0587H18.8603V14.4966L18.326 13.6445H18.612L18.9874 14.2702L19.3588 13.6445H19.6369Z" fill="black"/>
<path d="M5.42578 13.8101L5.92233 14.0967V13.5234L5.42578 13.8101ZM5.87268 13.8101V13.8597H8.03267V13.8101V13.7604H5.87268V13.8101Z" fill="black"/>
<path d="M8.51648 13.2528H9.0185C9.12277 13.2528 9.20917 13.2767 9.2762 13.3244C9.34175 13.372 9.37601 13.4465 9.37601 13.5478C9.37601 13.6119 9.35963 13.667 9.32983 13.7117C9.29855 13.7563 9.25535 13.7891 9.20023 13.8085C9.22556 13.8144 9.2479 13.8234 9.26727 13.8353C9.28514 13.8472 9.30004 13.8606 9.31047 13.874C9.32089 13.8889 9.32983 13.9068 9.33728 13.9277C9.34324 13.95 9.34771 13.9694 9.35069 13.9858C9.35367 14.0021 9.35516 14.023 9.35814 14.0498C9.35814 14.0573 9.35963 14.0707 9.36111 14.09C9.3626 14.1109 9.36409 14.1243 9.36409 14.1302C9.36409 14.1362 9.36558 14.1481 9.36707 14.163C9.36856 14.1794 9.37005 14.1913 9.37154 14.1973C9.37154 14.2032 9.37303 14.2137 9.37601 14.2256C9.37899 14.2375 9.38048 14.2479 9.38346 14.2539C9.38495 14.2598 9.38793 14.2673 9.39091 14.2762C9.39389 14.2852 9.39687 14.2911 9.40134 14.2971C9.40431 14.303 9.40878 14.309 9.41474 14.3135H9.21513C9.21215 14.3105 9.20917 14.306 9.20619 14.3001C9.20321 14.2941 9.20172 14.2882 9.20023 14.2822C9.19725 14.2762 9.19576 14.2703 9.19576 14.2643C9.19427 14.2584 9.19278 14.2509 9.19129 14.242C9.18981 14.233 9.18981 14.2241 9.18981 14.2181L9.18683 14.1913L9.18385 14.1645C9.18385 14.1586 9.18236 14.1481 9.18236 14.1332C9.18087 14.1183 9.18087 14.1079 9.18087 14.1019C9.17491 14.0155 9.15703 13.9575 9.12575 13.9247C9.09447 13.8919 9.03488 13.8755 8.94848 13.8755H8.7012V14.3135H8.51648V13.2528ZM8.7012 13.4048V13.737H8.94699C8.98274 13.737 9.01254 13.7355 9.03786 13.731C9.0617 13.728 9.08702 13.7206 9.11234 13.7102C9.13767 13.6997 9.15703 13.6819 9.17044 13.658C9.18385 13.6342 9.19129 13.6044 9.19129 13.5672C9.19129 13.5344 9.18534 13.5061 9.17342 13.4837C9.1615 13.4614 9.14363 13.445 9.12128 13.4331C9.09894 13.4227 9.07659 13.4152 9.05276 13.4107C9.02892 13.4078 9.00211 13.4048 8.97083 13.4048H8.7012Z" fill="black"/>
<path d="M14.227 11.7636H14.6307C14.7036 11.7636 14.7677 11.7725 14.8243 11.7874C14.8794 11.8023 14.9301 11.8306 14.9777 11.8723C15.082 11.9662 15.1342 12.1002 15.1342 12.276C15.1342 12.4637 15.0835 12.6082 14.9852 12.7065C14.9405 12.7512 14.8928 12.781 14.8422 12.7989C14.7915 12.8168 14.7245 12.8242 14.6411 12.8242H14.227V11.7636ZM14.4117 11.9215V12.6678H14.6307C14.7468 12.6678 14.8288 12.635 14.8764 12.5665C14.9241 12.4995 14.9479 12.4056 14.9479 12.285C14.9479 12.1718 14.9211 12.0824 14.8675 12.0183C14.8139 11.9543 14.7305 11.9215 14.6187 11.9215H14.4117ZM15.7519 11.7755V12.8242H15.5701V12.1032H15.3109V11.9781C15.4912 11.9781 15.5925 11.9111 15.6148 11.7755H15.7519Z" fill="black"/>
<path d="M10.2543 11.7636H10.658C10.731 11.7636 10.795 11.7725 10.8517 11.7874C10.9068 11.8023 10.9574 11.8306 11.0051 11.8723C11.1094 11.9662 11.1615 12.1002 11.1615 12.276C11.1615 12.4637 11.1108 12.6082 11.0125 12.7065C10.9678 12.7512 10.9202 12.781 10.8695 12.7989C10.8189 12.8168 10.7518 12.8242 10.6684 12.8242H10.2543V11.7636ZM10.439 11.9215V12.6678H10.658C10.7742 12.6678 10.8561 12.635 10.9038 12.5665C10.9515 12.4995 10.9753 12.4056 10.9753 12.285C10.9753 12.1718 10.9485 12.0824 10.8949 12.0183C10.8412 11.9543 10.7578 11.9215 10.6461 11.9215H10.439ZM11.2832 12.1166C11.2862 12.0094 11.3174 11.926 11.3785 11.8634C11.4381 11.8023 11.52 11.771 11.6228 11.771C11.7181 11.771 11.7971 11.7979 11.8567 11.8485C11.9163 11.9006 11.9461 11.9677 11.9461 12.0511C11.9461 12.1017 11.9327 12.1464 11.9058 12.1852C11.879 12.2239 11.8448 12.2492 11.8001 12.2641C11.8582 12.279 11.9044 12.3088 11.9386 12.352C11.9714 12.3952 11.9893 12.4473 11.9893 12.5099C11.9893 12.6097 11.955 12.6902 11.8865 12.7527C11.818 12.8153 11.7286 12.8466 11.6198 12.8466C11.5111 12.8466 11.4232 12.8153 11.3577 12.7527C11.2906 12.6902 11.2578 12.6082 11.2578 12.5039V12.4816H11.4217C11.4262 12.6276 11.4932 12.7006 11.6243 12.7006C11.6809 12.7006 11.7271 12.6842 11.7613 12.6514C11.7941 12.6186 11.812 12.5725 11.812 12.5144C11.812 12.4548 11.7926 12.4101 11.7539 12.3818C11.7152 12.355 11.6645 12.3401 11.6034 12.3401C11.5841 12.3401 11.5662 12.3416 11.5498 12.3416V12.2135H11.5647C11.5945 12.2135 11.6213 12.212 11.6437 12.209C11.6645 12.206 11.6869 12.1986 11.7092 12.1896C11.7316 12.1807 11.7494 12.1643 11.7613 12.1434C11.7733 12.1226 11.7792 12.0958 11.7792 12.063C11.7792 12.0183 11.7643 11.9811 11.736 11.9528C11.7062 11.926 11.6675 11.9111 11.6198 11.9111C11.5081 11.9111 11.45 11.9796 11.4455 12.1166H11.2832Z" fill="#B02E0C"/>
<path d="M14.227 16.9773H14.6307C14.7036 16.9773 14.7677 16.9863 14.8243 17.0012C14.8794 17.0161 14.9301 17.0444 14.9777 17.0861C15.082 17.1799 15.1342 17.314 15.1342 17.4898C15.1342 17.6775 15.0835 17.822 14.9852 17.9203C14.9405 17.965 14.8928 17.9948 14.8422 18.0126C14.7915 18.0305 14.7245 18.038 14.6411 18.038H14.227V16.9773ZM14.4117 17.1352V17.8816H14.6307C14.7468 17.8816 14.8288 17.8488 14.8764 17.7803C14.9241 17.7132 14.9479 17.6194 14.9479 17.4987C14.9479 17.3855 14.9211 17.2961 14.8675 17.2321C14.8139 17.168 14.7305 17.1352 14.6187 17.1352H14.4117ZM15.9366 17.8875V18.038H15.2245C15.2245 17.9918 15.232 17.9486 15.2439 17.9099C15.2558 17.8711 15.2692 17.8384 15.2841 17.8115C15.299 17.7847 15.3229 17.7564 15.3527 17.7281C15.3824 17.6998 15.4108 17.676 15.4346 17.6581C15.4584 17.6402 15.4927 17.6164 15.5359 17.5866C15.5389 17.5851 15.5523 17.5762 15.5791 17.5583C15.6059 17.5404 15.6223 17.53 15.6282 17.5255C15.6342 17.5211 15.6476 17.5106 15.6685 17.4942C15.6893 17.4779 15.7027 17.4644 15.7087 17.454C15.7146 17.4451 15.7236 17.4317 15.7355 17.4138C15.7474 17.3974 15.7549 17.381 15.7593 17.3632C15.7623 17.3453 15.7653 17.3274 15.7653 17.3065C15.7653 17.2529 15.7489 17.2097 15.7191 17.1784C15.6893 17.1472 15.6476 17.1308 15.597 17.1308C15.5672 17.1308 15.5404 17.1367 15.5195 17.1457C15.4972 17.1546 15.4793 17.1665 15.4674 17.1814C15.4554 17.1963 15.445 17.2157 15.4376 17.2395C15.4286 17.2633 15.4242 17.2842 15.4212 17.3051C15.4182 17.3259 15.4167 17.3512 15.4167 17.378H15.2514V17.3512C15.2514 17.2395 15.2826 17.1501 15.3452 17.0846C15.4078 17.019 15.4942 16.9848 15.6014 16.9848C15.7027 16.9848 15.7832 17.0146 15.8457 17.0712C15.9068 17.1278 15.9381 17.2038 15.9381 17.2976C15.9381 17.3363 15.9321 17.3721 15.9202 17.4049C15.9083 17.4391 15.8949 17.4659 15.8815 17.4868C15.8681 17.5076 15.8457 17.533 15.813 17.5598C15.7802 17.5881 15.7549 17.6075 15.74 17.6179C15.7236 17.6298 15.6938 17.6492 15.6521 17.6775C15.5269 17.7579 15.4525 17.8279 15.4286 17.8875H15.9366Z" fill="black"/>
<path d="M22.7809 11.9751V14.0725H22.4174V12.6305H21.899V12.3803C22.2595 12.3803 22.4621 12.2462 22.5068 11.9751H22.7809ZM25.8912 11.9513V12.2641H24.7323V12.8272H25.8078V13.1281H24.7323V13.7537H25.9091V14.0725H24.3629V11.9513H25.8912ZM26.5225 12.5352V12.7616C26.6447 12.5829 26.8145 12.4935 27.032 12.4935C27.2048 12.4935 27.3359 12.5412 27.4223 12.6365C27.5087 12.7318 27.5533 12.8689 27.5533 13.0476V14.0725H27.2137V13.1787C27.2137 13.1191 27.2107 13.0685 27.2048 13.0268C27.1988 12.9851 27.1839 12.9434 27.166 12.9016C27.1482 12.8599 27.1184 12.8301 27.0767 12.8093C27.0349 12.7884 26.9813 12.7765 26.9158 12.7765C26.6655 12.7765 26.5404 12.9344 26.5404 13.2443V14.0725H26.2007V12.5352H26.5225ZM29.3654 11.9513V14.0725H29.0466V13.861C28.9483 14.0308 28.7844 14.1142 28.555 14.1142C28.3375 14.1142 28.1647 14.0427 28.0366 13.8938C27.9085 13.7478 27.846 13.5511 27.846 13.3009C27.846 13.0566 27.9085 12.8599 28.0337 12.714C28.1588 12.568 28.3286 12.4935 28.5431 12.4935C28.7576 12.4935 28.9215 12.5739 29.0317 12.7348V11.9513H29.3654ZM28.6057 12.7676C28.4746 12.7676 28.3733 12.8152 28.2988 12.9106C28.2243 13.0059 28.1886 13.134 28.1886 13.2949C28.1886 13.4647 28.2243 13.5988 28.3018 13.6941C28.3793 13.7925 28.4835 13.8401 28.6176 13.8401C28.7487 13.8401 28.853 13.7925 28.9274 13.6971C29.0019 13.6018 29.0407 13.4707 29.0407 13.3009C29.0407 13.134 29.0019 13.0029 28.9245 12.9076C28.847 12.8152 28.7427 12.7676 28.6057 12.7676ZM32.1291 12.5769H31.7746C31.7508 12.3296 31.5988 12.2045 31.3128 12.2045C31.1847 12.2045 31.0864 12.2313 31.0149 12.2849C30.9434 12.3386 30.9076 12.4101 30.9076 12.4994C30.9076 12.5858 30.9315 12.6454 30.9851 12.6752C31.0387 12.708 31.1549 12.7467 31.3367 12.7914C31.3843 12.8063 31.4201 12.8152 31.4469 12.8212C31.6823 12.8808 31.8431 12.9344 31.9295 12.9821C32.1172 13.0834 32.2126 13.2413 32.2126 13.4558C32.2126 13.5511 32.1947 13.6346 32.1649 13.709C32.1321 13.7865 32.0904 13.8491 32.0368 13.8997C31.9832 13.9504 31.9176 13.9921 31.8461 14.0248C31.7716 14.0606 31.6942 14.0844 31.6167 14.0993C31.5363 14.1142 31.4528 14.1202 31.3694 14.1202C31.1013 14.1202 30.8868 14.0576 30.7229 13.9295C30.5561 13.8044 30.4756 13.6167 30.4756 13.3694H30.8421C30.8421 13.5243 30.8927 13.6405 30.994 13.715C31.0953 13.7895 31.2264 13.8252 31.3903 13.8252C31.5333 13.8252 31.6435 13.7984 31.724 13.7388C31.8044 13.6792 31.8461 13.5988 31.8461 13.4915C31.8461 13.426 31.8223 13.3694 31.7806 13.3277C31.7389 13.286 31.6912 13.2532 31.6435 13.2353C31.5929 13.2175 31.5065 13.1936 31.3843 13.1608C31.3694 13.1579 31.3575 13.1549 31.3516 13.1519C31.0864 13.0864 30.9136 13.0298 30.8302 12.9851C30.6574 12.8957 30.565 12.7586 30.5531 12.5709V12.5292C30.5531 12.3415 30.6216 12.1926 30.7646 12.0794C30.9076 11.9661 31.0983 11.9095 31.3367 11.9095C31.5661 11.9095 31.7538 11.9661 31.8997 12.0734C32.0427 12.1836 32.1202 12.3505 32.1291 12.5769ZM33.8406 12.5352V14.0725H33.5218V13.8431C33.3907 14.0248 33.2239 14.1142 33.0153 14.1142C32.8455 14.1142 32.7144 14.0666 32.625 13.9712C32.5356 13.8759 32.4909 13.7358 32.4909 13.5541V12.5352H32.8306V13.4141C32.8306 13.4677 32.8306 13.5124 32.8336 13.5452C32.8336 13.5779 32.8395 13.6137 32.8514 13.6554C32.8634 13.6971 32.8783 13.7269 32.8991 13.7478C32.92 13.7716 32.9498 13.7895 32.9885 13.8044C33.0272 13.8222 33.0749 13.8282 33.1315 13.8282C33.2566 13.8282 33.352 13.7835 33.4115 13.6941C33.4711 13.6048 33.5009 13.4886 33.5009 13.3485V12.5352H33.8406ZM34.5265 12.5352V12.7408C34.6278 12.5739 34.7946 12.4905 35.027 12.4905C35.2385 12.4905 35.4083 12.565 35.5364 12.714C35.6616 12.8629 35.7271 13.0625 35.7271 13.3098C35.7271 13.5541 35.6645 13.7478 35.5394 13.8938C35.4143 14.0397 35.2504 14.1112 35.0449 14.1112C34.8244 14.1112 34.6575 14.0308 34.5443 13.8699V14.6416H34.2077V12.5352H34.5265ZM34.9585 12.7646C34.8244 12.7646 34.7201 12.8123 34.6456 12.9076C34.5682 13.0029 34.5324 13.137 34.5324 13.3039C34.5324 13.4707 34.5682 13.6018 34.6456 13.6971C34.7231 13.7925 34.8274 13.8401 34.9644 13.8401C35.0925 13.8401 35.1938 13.7925 35.2713 13.6971C35.3458 13.6018 35.3845 13.4737 35.3845 13.3098C35.3845 13.143 35.3458 13.0119 35.2683 12.9136C35.1908 12.8152 35.0895 12.7646 34.9585 12.7646ZM36.3478 12.5352V12.7408C36.4491 12.5739 36.6159 12.4905 36.8483 12.4905C37.0598 12.4905 37.2297 12.565 37.3578 12.714C37.4829 12.8629 37.5484 13.0625 37.5484 13.3098C37.5484 13.5541 37.4859 13.7478 37.3607 13.8938C37.2356 14.0397 37.0718 14.1112 36.8662 14.1112C36.6457 14.1112 36.4789 14.0308 36.3657 13.8699V14.6416H36.029V12.5352H36.3478ZM36.7798 12.7646C36.6457 12.7646 36.5414 12.8123 36.467 12.9076C36.3895 13.0029 36.3537 13.137 36.3537 13.3039C36.3537 13.4707 36.3895 13.6018 36.467 13.6971C36.5444 13.7925 36.6487 13.8401 36.7857 13.8401C36.9139 13.8401 37.0151 13.7925 37.0926 13.6971C37.1671 13.6018 37.2058 13.4737 37.2058 13.3098C37.2058 13.143 37.1671 13.0119 37.0896 12.9136C37.0122 12.8152 36.9109 12.7646 36.7798 12.7646ZM38.5564 12.4905C38.7888 12.4905 38.9765 12.565 39.1165 12.711C39.2536 12.8599 39.3251 13.0566 39.3251 13.3039C39.3251 13.5541 39.2536 13.7537 39.1165 13.8997C38.9795 14.0487 38.7918 14.1202 38.5564 14.1202C38.3151 14.1202 38.1244 14.0487 37.9844 13.8997C37.8414 13.7537 37.7729 13.5541 37.7729 13.3039C37.7729 13.0566 37.8414 12.8599 37.9844 12.711C38.1274 12.565 38.3181 12.4905 38.5564 12.4905ZM38.5505 12.7586C38.4134 12.7586 38.3091 12.8093 38.2317 12.9046C38.1542 13.0029 38.1155 13.137 38.1155 13.3039C38.1155 13.4767 38.1542 13.6137 38.2317 13.709C38.3091 13.8074 38.4164 13.855 38.5534 13.855C38.6845 13.855 38.7888 13.8074 38.8663 13.709C38.9437 13.6107 38.9825 13.4737 38.9825 13.3009C38.9825 13.134 38.9437 13 38.8663 12.9046C38.7888 12.8093 38.6845 12.7586 38.5505 12.7586ZM40.4804 12.5054V12.8301C40.4208 12.8242 40.3791 12.8212 40.3612 12.8212C40.0633 12.8212 39.9173 13.0149 39.9173 13.3962V14.0725H39.5806V12.5352H39.8994V12.8421C40.0067 12.6156 40.1795 12.4994 40.4148 12.4994L40.4804 12.5054ZM41.4086 12.5352V12.7825H41.0988V13.5928C41.0988 13.6405 41.0988 13.6763 41.1017 13.6941C41.1017 13.712 41.1077 13.7329 41.1196 13.7567C41.1286 13.7805 41.1464 13.7954 41.1703 13.8014C41.1941 13.8103 41.2299 13.8133 41.2745 13.8133C41.3282 13.8133 41.3729 13.8133 41.4086 13.8074V14.0755C41.3401 14.0844 41.2626 14.0874 41.1792 14.0874C41.1196 14.0874 41.066 14.0844 41.0213 14.0755C40.9766 14.0666 40.9409 14.0546 40.9111 14.0427C40.8813 14.0308 40.8545 14.0129 40.8366 13.9831C40.8157 13.9533 40.8008 13.9295 40.7889 13.9116C40.777 13.8938 40.771 13.858 40.7651 13.8103C40.7591 13.7627 40.7591 13.7269 40.7591 13.7031V13.572V13.5541V13.5362V13.5154V12.7825H40.5029V12.5352H40.7591V12.0734H41.0988V12.5352H41.4086ZM25.0619 16.2919V16.5779H24.7967V17.0725H24.469L24.466 16.5779H23.5812V16.2413L24.4749 14.9691H24.7967V16.2919H25.0619ZM24.472 16.2919V15.3892L23.8612 16.2919H24.472ZM26.2118 14.9513H27.1801C27.4006 14.9513 27.5704 15.0019 27.6896 15.0972C27.8087 15.1926 27.8683 15.3237 27.8683 15.4845C27.8683 15.5858 27.8385 15.6782 27.7849 15.7586C27.7283 15.8391 27.6538 15.8957 27.5644 15.9314C27.6866 15.9612 27.7849 16.0208 27.8564 16.1102C27.9279 16.1996 27.9637 16.3128 27.9637 16.4469C27.9637 16.6346 27.9011 16.7865 27.776 16.8997C27.6508 17.0159 27.49 17.0725 27.2933 17.0725H26.2118V14.9513ZM26.5753 15.2522V15.8361H27.0818C27.2248 15.8361 27.3291 15.8152 27.3976 15.7706C27.4631 15.7259 27.4989 15.6514 27.4989 15.5441C27.4989 15.425 27.4631 15.3475 27.3916 15.3088C27.3201 15.273 27.2218 15.2522 27.0937 15.2522H26.5753ZM26.5753 16.1042V16.7686H27.1324C27.2754 16.7686 27.3857 16.7448 27.4691 16.6971C27.5495 16.6494 27.5912 16.5631 27.5912 16.4379C27.5912 16.3694 27.5764 16.3128 27.5525 16.2651C27.5287 16.2175 27.4929 16.1847 27.4453 16.1608C27.3976 16.14 27.3499 16.1251 27.3023 16.1162C27.2516 16.1102 27.192 16.1042 27.1265 16.1042H26.5753ZM28.253 16.0089C28.2887 15.6633 28.5122 15.4875 28.9263 15.4875C29.1169 15.4875 29.2719 15.5263 29.3851 15.6007C29.4983 15.6782 29.5579 15.7944 29.5579 15.9523V16.7329C29.5579 16.7776 29.5609 16.8074 29.5728 16.8222C29.5847 16.8401 29.6056 16.8461 29.6383 16.8461C29.6622 16.8461 29.686 16.8461 29.7158 16.8401V17.0785C29.6264 17.1023 29.5549 17.1112 29.4953 17.1112C29.3493 17.1112 29.2659 17.0517 29.2451 16.9265C29.114 17.0517 28.9352 17.1112 28.7058 17.1112C28.5449 17.1112 28.4198 17.0725 28.3274 16.9891C28.2321 16.9057 28.1874 16.7954 28.1874 16.6524C28.1874 16.6107 28.1904 16.569 28.2023 16.5303C28.2112 16.4945 28.2232 16.4618 28.2351 16.432C28.247 16.4051 28.2679 16.3783 28.2976 16.3545C28.3274 16.3307 28.3513 16.3128 28.3691 16.2949C28.387 16.28 28.4198 16.2651 28.4615 16.2502C28.5032 16.2383 28.536 16.2264 28.5568 16.2204C28.5777 16.2145 28.6134 16.2055 28.6671 16.1966C28.7177 16.1906 28.7505 16.1847 28.7684 16.1817C28.7862 16.1787 28.822 16.1728 28.8756 16.1668C28.9948 16.1519 29.0782 16.14 29.1229 16.1281C29.1646 16.1162 29.1944 16.1013 29.2123 16.0774C29.2242 16.0625 29.2331 16.0268 29.2331 15.9672C29.2331 15.8123 29.1259 15.7348 28.9173 15.7348C28.8041 15.7348 28.7237 15.7557 28.673 15.7974C28.6194 15.8391 28.5866 15.9106 28.5747 16.0089H28.253ZM29.2302 16.3009C29.2033 16.3158 29.1736 16.3277 29.1408 16.3396C29.105 16.3515 29.0782 16.3575 29.0574 16.3605C29.0365 16.3634 29.0037 16.3664 28.959 16.3724C28.9144 16.3783 28.8846 16.3843 28.8726 16.3843C28.8309 16.3903 28.7982 16.3962 28.7743 16.4022C28.7505 16.4081 28.7207 16.4141 28.685 16.426C28.6492 16.4379 28.6224 16.4528 28.6045 16.4707C28.5866 16.4886 28.5688 16.5094 28.5568 16.5392C28.5419 16.569 28.536 16.6018 28.536 16.6405C28.536 16.715 28.5598 16.7716 28.6075 16.8103C28.6552 16.852 28.7237 16.8699 28.8131 16.8699C28.962 16.8699 29.0782 16.8312 29.1616 16.7478C29.2063 16.7031 29.2302 16.6137 29.2302 16.4826V16.3009ZM30.7933 15.5054V15.8301C30.7337 15.8242 30.692 15.8212 30.6741 15.8212C30.3762 15.8212 30.2302 16.0149 30.2302 16.3962V17.0725H29.8935V15.5352H30.2123V15.8421C30.3196 15.6156 30.4924 15.4994 30.7277 15.4994L30.7933 15.5054ZM31.8417 14.9513H32.8099C33.0304 14.9513 33.2002 15.0019 33.3194 15.0972C33.4386 15.1926 33.4981 15.3237 33.4981 15.4845C33.4981 15.5858 33.4684 15.6782 33.4147 15.7586C33.3581 15.8391 33.2836 15.8957 33.1943 15.9314C33.3164 15.9612 33.4147 16.0208 33.4862 16.1102C33.5577 16.1996 33.5935 16.3128 33.5935 16.4469C33.5935 16.6346 33.5309 16.7865 33.4058 16.8997C33.2807 17.0159 33.1198 17.0725 32.9231 17.0725H31.8417V14.9513ZM32.2051 15.2522V15.8361H32.7116C32.8546 15.8361 32.9589 15.8152 33.0274 15.7706C33.093 15.7259 33.1287 15.6514 33.1287 15.5441C33.1287 15.425 33.093 15.3475 33.0215 15.3088C32.95 15.273 32.8516 15.2522 32.7235 15.2522H32.2051ZM32.2051 16.1042V16.7686H32.7623C32.9053 16.7686 33.0155 16.7448 33.0989 16.6971C33.1794 16.6494 33.2211 16.5631 33.2211 16.4379C33.2211 16.3694 33.2062 16.3128 33.1823 16.2651C33.1585 16.2175 33.1228 16.1847 33.0751 16.1608C33.0274 16.14 32.9797 16.1251 32.9321 16.1162C32.8814 16.1102 32.8218 16.1042 32.7563 16.1042H32.2051ZM35.2741 16.5928C35.2354 16.7597 35.152 16.8908 35.0268 16.9831C34.9017 17.0785 34.7498 17.1232 34.577 17.1232C34.3446 17.1232 34.1599 17.0487 34.0228 16.8997C33.8858 16.7507 33.8202 16.5571 33.8202 16.3217C33.8202 16.0834 33.8887 15.8838 34.0288 15.7259C34.1688 15.5709 34.3475 15.4905 34.565 15.4905C34.7885 15.4905 34.9672 15.568 35.0983 15.7229C35.2294 15.8778 35.295 16.0864 35.295 16.3515V16.3873H34.1599C34.1628 16.5422 34.2016 16.6643 34.276 16.7478C34.3475 16.8312 34.4518 16.8729 34.5829 16.8729C34.6753 16.8729 34.7498 16.852 34.8093 16.8074C34.8689 16.7627 34.9136 16.6912 34.9494 16.5928H35.2741ZM34.9553 16.1608C34.9434 16.0327 34.9047 15.9314 34.8332 15.857C34.7617 15.7825 34.6723 15.7437 34.5621 15.7437C34.4488 15.7437 34.3595 15.7795 34.2909 15.851C34.2224 15.9225 34.1807 16.0268 34.1658 16.1608H34.9553ZM35.5383 16.0089C35.574 15.6633 35.7975 15.4875 36.2116 15.4875C36.4023 15.4875 36.5572 15.5263 36.6704 15.6007C36.7836 15.6782 36.8432 15.7944 36.8432 15.9523V16.7329C36.8432 16.7776 36.8462 16.8074 36.8581 16.8222C36.87 16.8401 36.8909 16.8461 36.9236 16.8461C36.9475 16.8461 36.9713 16.8461 37.0011 16.8401V17.0785C36.9117 17.1023 36.8402 17.1112 36.7806 17.1112C36.6346 17.1112 36.5512 17.0517 36.5304 16.9265C36.3993 17.0517 36.2205 17.1112 35.9911 17.1112C35.8302 17.1112 35.7051 17.0725 35.6127 16.9891C35.5174 16.9057 35.4727 16.7954 35.4727 16.6524C35.4727 16.6107 35.4757 16.569 35.4876 16.5303C35.4966 16.4945 35.5085 16.4618 35.5204 16.432C35.5323 16.4051 35.5532 16.3783 35.583 16.3545C35.6127 16.3307 35.6366 16.3128 35.6545 16.2949C35.6723 16.28 35.7051 16.2651 35.7468 16.2502C35.7885 16.2383 35.8213 16.2264 35.8422 16.2204C35.863 16.2145 35.8988 16.2055 35.9524 16.1966C36.003 16.1906 36.0358 16.1847 36.0537 16.1817C36.0716 16.1787 36.1073 16.1728 36.1609 16.1668C36.2801 16.1519 36.3635 16.14 36.4082 16.1281C36.4499 16.1162 36.4797 16.1013 36.4976 16.0774C36.5095 16.0625 36.5185 16.0268 36.5185 15.9672C36.5185 15.8123 36.4112 15.7348 36.2026 15.7348C36.0894 15.7348 36.009 15.7557 35.9583 15.7974C35.9047 15.8391 35.8719 15.9106 35.86 16.0089H35.5383ZM36.5155 16.3009C36.4887 16.3158 36.4589 16.3277 36.4261 16.3396C36.3903 16.3515 36.3635 16.3575 36.3427 16.3605C36.3218 16.3634 36.289 16.3664 36.2444 16.3724C36.1997 16.3783 36.1699 16.3843 36.158 16.3843C36.1162 16.3903 36.0835 16.3962 36.0596 16.4022C36.0358 16.4081 36.006 16.4141 35.9703 16.426C35.9345 16.4379 35.9077 16.4528 35.8898 16.4707C35.8719 16.4886 35.8541 16.5094 35.8422 16.5392C35.8273 16.569 35.8213 16.6018 35.8213 16.6405C35.8213 16.715 35.8451 16.7716 35.8928 16.8103C35.9405 16.852 36.009 16.8699 36.0984 16.8699C36.2473 16.8699 36.3635 16.8312 36.447 16.7478C36.4916 16.7031 36.5155 16.6137 36.5155 16.4826V16.3009ZM37.5334 15.5352V15.7527C37.6585 15.5799 37.8194 15.4935 38.016 15.4935C38.1173 15.4935 38.2037 15.5173 38.2782 15.562C38.3527 15.6097 38.4093 15.6722 38.4451 15.7557C38.5672 15.5829 38.734 15.4935 38.9426 15.4935C39.0856 15.4935 39.2078 15.5382 39.3031 15.6246C39.3984 15.711 39.4461 15.8301 39.4461 15.9821V17.0725H39.1065V16.1281C39.1065 16.0208 39.0856 15.9344 39.0499 15.8719C39.0111 15.8123 38.9396 15.7795 38.8324 15.7795C38.7221 15.7795 38.6387 15.8152 38.5821 15.8838C38.5225 15.9523 38.4957 16.0476 38.4957 16.1698V17.0725H38.1561V16.1102C38.1561 16.0029 38.1382 15.9195 38.1054 15.8629C38.0726 15.8093 38.0041 15.7795 37.9028 15.7795C37.7866 15.7795 37.7002 15.8182 37.6406 15.8927C37.5811 15.9672 37.5513 16.0655 37.5513 16.1877V17.0725H37.2116V15.5352H37.5334Z" fill="black"/>
<path d="M6.79102 29.5759V28.4586H21.191" stroke="#B02E0C" stroke-width="0.446894" stroke-linecap="square"/>
<path d="M38.5703 29.5759V28.4586H24.1704" stroke="#B02E0C" stroke-width="0.446894" stroke-linecap="square"/>
<path d="M11.2617 33.0515L11.7583 33.3382V32.7648L11.2617 33.0515ZM13.8686 33.0515L13.3721 32.7648V33.3382L13.8686 33.0515ZM11.7086 33.0515V33.1012H13.4217V33.0515V33.0019H11.7086V33.0515Z" fill="black"/>
<path d="M13.0033 31.6899H12.8261C12.8141 31.5663 12.7382 31.5037 12.5952 31.5037C12.5311 31.5037 12.482 31.5171 12.4462 31.544C12.4104 31.5708 12.3926 31.6065 12.3926 31.6512C12.3926 31.6944 12.4045 31.7242 12.4313 31.7391C12.4581 31.7555 12.5162 31.7749 12.6071 31.7972C12.6309 31.8046 12.6488 31.8091 12.6622 31.8121C12.7799 31.8419 12.8603 31.8687 12.9035 31.8925C12.9974 31.9432 13.045 32.0221 13.045 32.1294C13.045 32.1771 13.0361 32.2188 13.0212 32.256C13.0048 32.2947 12.984 32.326 12.9572 32.3513C12.9303 32.3767 12.8976 32.3975 12.8618 32.4139C12.8246 32.4318 12.7858 32.4437 12.7471 32.4512C12.7069 32.4586 12.6652 32.4616 12.6235 32.4616C12.4894 32.4616 12.3821 32.4303 12.3002 32.3662C12.2168 32.3037 12.1766 32.2098 12.1766 32.0862H12.3598C12.3598 32.1636 12.3851 32.2217 12.4358 32.259C12.4864 32.2962 12.552 32.3141 12.6339 32.3141C12.7054 32.3141 12.7605 32.3007 12.8007 32.2709C12.841 32.2411 12.8618 32.2009 12.8618 32.1473C12.8618 32.1145 12.8499 32.0862 12.829 32.0653C12.8082 32.0445 12.7844 32.0281 12.7605 32.0192C12.7352 32.0102 12.692 31.9983 12.6309 31.9819C12.6235 31.9804 12.6175 31.9789 12.6145 31.9774C12.482 31.9447 12.3956 31.9164 12.3538 31.894C12.2674 31.8493 12.2213 31.7808 12.2153 31.687V31.6661C12.2153 31.5723 12.2496 31.4978 12.3211 31.4412C12.3926 31.3846 12.4879 31.3563 12.6071 31.3563C12.7218 31.3563 12.8156 31.3846 12.8886 31.4382C12.9601 31.4933 12.9989 31.5767 13.0033 31.6899Z" fill="black"/>
</svg>
