<svg width="46" height="46" viewBox="0 0 46 46" fill="none" xmlns="http://www.w3.org/2000/svg">
<rect width="46" height="46" rx="11.3448" fill="#F3F3F3"/>
<rect x="0.405172" y="0.405172" width="45.1897" height="45.1897" rx="10.9397" stroke="#B02E0C" stroke-opacity="0.04" stroke-width="0.810345"/>
<rect x="1.64626" y="25.9486" width="42.7075" height="11.9932" stroke="black" stroke-width="0.292517"/>
<path d="M5.88867 27.5575V36.333" stroke="black" stroke-width="0.292517" stroke-linecap="square"/>
<path d="M9.31055 27.5575V36.333" stroke="black" stroke-width="0.292517" stroke-linecap="square"/>
<path d="M12.7324 27.5575V36.333" stroke="black" stroke-width="0.292517" stroke-linecap="square"/>
<path d="M16.1543 27.5575V36.333" stroke="black" stroke-width="0.292517" stroke-linecap="square"/>
<path d="M19.5781 27.5575V36.333" stroke="black" stroke-width="0.292517" stroke-linecap="square"/>
<path d="M23 27.5575V36.333" stroke="black" stroke-width="0.292517" stroke-linecap="square"/>
<path d="M26.4219 27.5575V36.333" stroke="black" stroke-width="0.292517" stroke-linecap="square"/>
<path d="M29.8457 27.5575V36.333" stroke="black" stroke-width="0.292517" stroke-linecap="square"/>
<path d="M33.2676 27.5575V36.333" stroke="black" stroke-width="0.292517" stroke-linecap="square"/>
<path d="M36.6895 27.5575V36.333" stroke="black" stroke-width="0.292517" stroke-linecap="square"/>
<path d="M40.1113 27.5575V36.333" stroke="black" stroke-width="0.292517" stroke-linecap="square"/>
<path d="M3.25586 31.0676V28.7274C3.25586 28.0812 3.77972 27.5574 4.42593 27.5574H41.5756C42.2218 27.5574 42.7457 28.0812 42.7457 28.7274V31.0676" stroke="#F7941D" stroke-width="0.292517" stroke-linecap="square"/>
<path d="M3.25586 32.8227V35.1628C3.25586 35.809 3.77972 36.3329 4.42593 36.3329H41.5756C42.2218 36.3329 42.7457 35.809 42.7457 35.1628V32.8227" stroke="#F7941D" stroke-width="0.292517" stroke-linecap="square"/>
<path d="M6.0332 31.7994L6.61824 32.1372V31.4617L6.0332 31.7994ZM9.10463 31.7994L8.5196 31.4617V32.1372L9.10463 31.7994ZM6.55973 31.7994V31.8579H8.5781V31.7994V31.7409H6.55973V31.7994Z" fill="black"/>
<path d="M23.5827 40.4206V40.6733H22.4407V39.0072H22.7356V40.4206H23.5827Z" fill="black"/>
<rect x="1.59339" y="5.42005" width="15.3166" height="15.3166" stroke="black" stroke-width="0.186785"/>
<rect x="2.62074" y="6.4474" width="13.2619" height="13.2619" rx="1.40088" stroke="#F7941D" stroke-width="0.186785"/>
<circle cx="4.39559" cy="8.22115" r="0.747152" fill="#F7941D"/>
<circle cx="4.39559" cy="17.9342" r="0.747152" fill="#F7941D"/>
<circle cx="4.39559" cy="14.424" r="0.747152" fill="#F7941D"/>
<circle cx="14.1085" cy="8.22115" r="0.747152" fill="#F7941D"/>
<circle cx="14.1085" cy="17.9342" r="0.747152" fill="#F7941D"/>
<circle cx="14.1085" cy="14.424" r="0.747152" fill="#F7941D"/>
<path d="M3.64797 9.62213C1.7801 6.68023 3.4137 5.55951 5.79573 7.75427" stroke="#B02E0C" stroke-width="0.151901" stroke-linecap="round"/>
<path d="M8.50549 23.4146L9.09989 22.551L8.54761 21.7484H8.89629L9.2754 22.3381L9.67088 21.7484H9.9985L9.44623 22.551L10.0383 23.4146H9.68258L9.26603 22.778L8.84247 23.4146H8.50549Z" fill="black"/>
<path d="M19.4136 12.3884L18.7865 13.3923V14.0546H18.4987V13.3923L17.8692 12.3884H18.2061L18.6484 13.1255L19.086 12.3884H19.4136Z" fill="black"/>
<path d="M2.66992 11.7612L3.25496 12.099V11.4235L2.66992 11.7612ZM3.19645 11.7612V11.8197H5.74135V11.7612V11.7027H3.19645V11.7612Z" fill="black"/>
<path d="M6.31152 10.9271H6.90299C7.02584 10.9271 7.12764 10.9552 7.20662 11.0114C7.28384 11.0675 7.32421 11.1553 7.32421 11.2746C7.32421 11.3501 7.30491 11.415 7.2698 11.4677C7.23295 11.5203 7.18205 11.559 7.11711 11.5818C7.14695 11.5888 7.17327 11.5993 7.19609 11.6134C7.21715 11.6274 7.2347 11.6432 7.24699 11.659C7.25927 11.6766 7.2698 11.6976 7.27858 11.7222C7.2856 11.7485 7.29087 11.7713 7.29438 11.7906C7.29789 11.8099 7.29964 11.8345 7.30315 11.8661C7.30315 11.8749 7.30491 11.8907 7.30666 11.9135C7.30842 11.9381 7.31017 11.9539 7.31017 11.9609C7.31017 11.9679 7.31193 11.9819 7.31368 11.9995C7.31544 12.0188 7.31719 12.0328 7.31895 12.0399C7.31895 12.0469 7.3207 12.0592 7.32421 12.0732C7.32772 12.0872 7.32948 12.0995 7.33299 12.1066C7.33474 12.1136 7.33825 12.1223 7.34176 12.1329C7.34527 12.1434 7.34878 12.1504 7.35405 12.1575C7.35756 12.1645 7.36282 12.1715 7.36984 12.1768H7.13466C7.13115 12.1732 7.12764 12.168 7.12413 12.161C7.12062 12.1539 7.11887 12.1469 7.11711 12.1399C7.1136 12.1329 7.11184 12.1259 7.11184 12.1188C7.11009 12.1118 7.10833 12.103 7.10658 12.0925C7.10482 12.082 7.10482 12.0715 7.10482 12.0644L7.10131 12.0328L7.0978 12.0012C7.0978 11.9942 7.09605 11.9819 7.09605 11.9644C7.09429 11.9468 7.09429 11.9346 7.09429 11.9275C7.08727 11.8257 7.06621 11.7573 7.02935 11.7187C6.9925 11.6801 6.92229 11.6608 6.8205 11.6608H6.52915V12.1768H6.31152V10.9271ZM6.52915 11.1061V11.4975H6.81874C6.86087 11.4975 6.89597 11.4958 6.9258 11.4905C6.95389 11.487 6.98372 11.4782 7.01356 11.4659C7.0434 11.4537 7.06621 11.4326 7.08201 11.4045C7.0978 11.3764 7.10658 11.3413 7.10658 11.2975C7.10658 11.2588 7.09956 11.2255 7.08552 11.1992C7.07148 11.1728 7.05042 11.1535 7.02409 11.1395C6.99776 11.1272 6.97144 11.1184 6.94335 11.1132C6.91527 11.1097 6.88368 11.1061 6.84682 11.1061H6.52915Z" fill="black"/>
<path d="M13.0398 9.17236H13.5155C13.6015 9.17236 13.6769 9.18289 13.7436 9.20045C13.8086 9.218 13.8682 9.25134 13.9244 9.30049C14.0473 9.41106 14.1087 9.56902 14.1087 9.77612C14.1087 9.99726 14.049 10.1675 13.9332 10.2833C13.8805 10.336 13.8244 10.3711 13.7647 10.3922C13.705 10.4132 13.626 10.422 13.5278 10.422H13.0398V9.17236ZM13.2575 9.35841V10.2377H13.5155C13.6524 10.2377 13.7489 10.1991 13.8051 10.1184C13.8612 10.0394 13.8893 9.92881 13.8893 9.78665C13.8893 9.65326 13.8577 9.54796 13.7945 9.47249C13.7313 9.39702 13.6331 9.35841 13.5014 9.35841H13.2575ZM14.8365 9.18641V10.422H14.6224V9.57253H14.317V9.4251C14.5294 9.4251 14.6487 9.34612 14.675 9.18641H14.8365Z" fill="black"/>
<path d="M13.0398 12.0972H13.5155C13.6015 12.0972 13.6769 12.1077 13.7436 12.1253C13.8086 12.1428 13.8682 12.1761 13.9244 12.2253C14.0473 12.3359 14.1087 12.4938 14.1087 12.7009C14.1087 12.9221 14.049 13.0923 13.9332 13.2081C13.8805 13.2608 13.8244 13.2959 13.7647 13.317C13.705 13.338 13.626 13.3468 13.5278 13.3468H13.0398V12.0972ZM13.2575 12.2832V13.1625H13.5155C13.6524 13.1625 13.7489 13.1239 13.8051 13.0432C13.8612 12.9642 13.8893 12.8536 13.8893 12.7115C13.8893 12.5781 13.8577 12.4728 13.7945 12.3973C13.7313 12.3218 13.6331 12.2832 13.5014 12.2832H13.2575ZM14.252 12.5131C14.2556 12.3868 14.2924 12.2885 14.3644 12.2148C14.4346 12.1428 14.5311 12.1059 14.6522 12.1059C14.7645 12.1059 14.8576 12.1375 14.9278 12.1972C14.998 12.2586 15.0331 12.3376 15.0331 12.4359C15.0331 12.4956 15.0173 12.5482 14.9857 12.5939C14.9541 12.6395 14.9137 12.6693 14.8611 12.6869C14.9295 12.7044 14.9839 12.7395 15.0243 12.7904C15.0629 12.8413 15.084 12.9028 15.084 12.9765C15.084 13.0941 15.0436 13.1888 14.9629 13.2626C14.8821 13.3363 14.7768 13.3731 14.6487 13.3731C14.5206 13.3731 14.417 13.3363 14.3398 13.2626C14.2608 13.1888 14.2222 13.0923 14.2222 12.9695V12.9431H14.4153C14.4205 13.1151 14.4995 13.2011 14.654 13.2011C14.7207 13.2011 14.7751 13.1818 14.8154 13.1432C14.854 13.1046 14.8751 13.0502 14.8751 12.9817C14.8751 12.9115 14.8523 12.8589 14.8067 12.8255C14.761 12.7939 14.7014 12.7764 14.6294 12.7764C14.6066 12.7764 14.5855 12.7781 14.5662 12.7781V12.6272H14.5838C14.6189 12.6272 14.6505 12.6255 14.6768 12.6219C14.7014 12.6184 14.7277 12.6097 14.754 12.5991C14.7803 12.5886 14.8014 12.5693 14.8154 12.5447C14.8295 12.5201 14.8365 12.4886 14.8365 12.4499C14.8365 12.3973 14.8189 12.3534 14.7856 12.3201C14.7505 12.2885 14.7049 12.2709 14.6487 12.2709C14.5171 12.2709 14.4486 12.3517 14.4434 12.5131H14.252Z" fill="black"/>
<path d="M3.54883 16.1493L14.957 16.1493" stroke="#F7941D" stroke-width="0.234014" stroke-linecap="square"/>
<path d="M10.7 17.0703H11.1756C11.2616 17.0703 11.3371 17.0808 11.4038 17.0984C11.4687 17.1159 11.5284 17.1493 11.5846 17.1984C11.7074 17.309 11.7688 17.467 11.7688 17.6741C11.7688 17.8952 11.7092 18.0655 11.5933 18.1813C11.5407 18.2339 11.4845 18.269 11.4248 18.2901C11.3652 18.3112 11.2862 18.3199 11.1879 18.3199H10.7V17.0703ZM10.9176 17.2564V18.1357H11.1756C11.3125 18.1357 11.4091 18.097 11.4652 18.0163C11.5214 17.9373 11.5495 17.8268 11.5495 17.6846C11.5495 17.5512 11.5179 17.4459 11.4547 17.3704C11.3915 17.295 11.2932 17.2564 11.1616 17.2564H10.9176ZM12.7143 18.1427V18.3199H11.8753C11.8753 18.2655 11.8841 18.2146 11.8982 18.169C11.9122 18.1234 11.928 18.0848 11.9456 18.0532C11.9631 18.0216 11.9912 17.9882 12.0263 17.9549C12.0614 17.9215 12.0947 17.8935 12.1228 17.8724C12.1509 17.8513 12.1913 17.8233 12.2422 17.7882C12.2457 17.7864 12.2615 17.7759 12.2931 17.7548C12.3247 17.7337 12.344 17.7215 12.351 17.7162C12.358 17.7109 12.3738 17.6986 12.3984 17.6793C12.4229 17.66 12.4387 17.6442 12.4458 17.6319C12.4528 17.6214 12.4633 17.6056 12.4773 17.5846C12.4914 17.5653 12.5002 17.5459 12.5054 17.5249C12.5089 17.5038 12.5125 17.4828 12.5125 17.4582C12.5125 17.395 12.4931 17.3441 12.458 17.3073C12.4229 17.2704 12.3738 17.2511 12.3141 17.2511C12.279 17.2511 12.2474 17.2581 12.2229 17.2686C12.1965 17.2792 12.1755 17.2932 12.1614 17.3108C12.1474 17.3283 12.1351 17.3511 12.1263 17.3792C12.1158 17.4073 12.1105 17.4319 12.107 17.4564C12.1035 17.481 12.1018 17.5108 12.1018 17.5424H11.9069V17.5108C11.9069 17.3792 11.9438 17.2739 12.0175 17.1967C12.0912 17.1195 12.193 17.0791 12.3194 17.0791C12.4387 17.0791 12.5335 17.1142 12.6072 17.1809C12.6792 17.2476 12.716 17.3371 12.716 17.4477C12.716 17.4933 12.709 17.5354 12.695 17.574C12.6809 17.6144 12.6651 17.646 12.6493 17.6706C12.6336 17.6951 12.6072 17.725 12.5686 17.7566C12.53 17.7899 12.5002 17.8127 12.4826 17.825C12.4633 17.839 12.4282 17.8619 12.3791 17.8952C12.2316 17.99 12.1439 18.0725 12.1158 18.1427H12.7143Z" fill="black"/>
<path d="M30.9095 11.7462H30.459C30.4099 11.4841 30.2624 11.3531 30.0249 11.3531C29.9553 11.3531 29.8939 11.3694 29.8365 11.394C29.7792 11.4227 29.7301 11.4554 29.6932 11.4882C29.6522 11.5251 29.6195 11.5783 29.5908 11.6438C29.5581 11.7093 29.5376 11.7667 29.5212 11.8117C29.5048 11.8568 29.4925 11.9223 29.4761 12.0042C29.4598 12.0902 29.4516 12.1475 29.4516 12.1803C29.4475 12.2131 29.4434 12.2704 29.4352 12.3441C29.5908 12.1107 29.812 11.9919 30.0904 11.9919C30.3525 11.9919 30.5655 12.082 30.7293 12.254C30.8931 12.4301 30.975 12.6594 30.975 12.9379C30.975 13.2328 30.8808 13.4703 30.7006 13.6587C30.5204 13.8471 30.287 13.9412 30.0085 13.9412C29.6768 13.9412 29.4229 13.8184 29.2468 13.5686C29.0666 13.3229 28.9806 12.9666 28.9806 12.5038C28.9806 12.0288 29.0748 11.6561 29.2632 11.3858C29.4516 11.1196 29.7096 10.9845 30.0454 10.9845C30.287 10.9845 30.4836 11.0541 30.6392 11.1851C30.7907 11.3203 30.8808 11.5087 30.9095 11.7462ZM29.9962 12.3646C29.8406 12.3646 29.7219 12.4178 29.6318 12.5243C29.5417 12.6308 29.4966 12.77 29.4966 12.942C29.4966 13.1263 29.5417 13.2737 29.6359 13.3843C29.7301 13.499 29.8529 13.5522 30.0085 13.5522C30.156 13.5522 30.2788 13.499 30.3689 13.3884C30.459 13.2819 30.5081 13.1345 30.5081 12.9543C30.5081 12.7782 30.459 12.6349 30.3689 12.5284C30.2747 12.4219 30.1519 12.3646 29.9962 12.3646ZM32.5516 10.9681H33.8826C34.1856 10.9681 34.419 11.0377 34.5828 11.1688C34.7467 11.2998 34.8286 11.48 34.8286 11.7011C34.8286 11.8404 34.7876 11.9673 34.7139 12.0779C34.6361 12.1885 34.5337 12.2663 34.4108 12.3154C34.5787 12.3564 34.7139 12.4383 34.8122 12.5611C34.9105 12.684 34.9596 12.8396 34.9596 13.0239C34.9596 13.2819 34.8736 13.4908 34.7016 13.6464C34.5296 13.8061 34.3085 13.8839 34.0382 13.8839H32.5516V10.9681ZM33.0512 11.3817V12.1844H33.7474C33.944 12.1844 34.0873 12.1557 34.1815 12.0943C34.2716 12.0329 34.3207 11.9305 34.3207 11.7831C34.3207 11.6192 34.2716 11.5128 34.1733 11.4595C34.075 11.4104 33.9399 11.3817 33.7638 11.3817H33.0512ZM33.0512 12.553V13.4662H33.817C34.0136 13.4662 34.1651 13.4334 34.2798 13.3679C34.3904 13.3024 34.4477 13.1836 34.4477 13.0116C34.4477 12.9174 34.4272 12.8396 34.3945 12.7741C34.3617 12.7086 34.3126 12.6635 34.247 12.6308C34.1815 12.6021 34.116 12.5816 34.0505 12.5693C33.9808 12.5611 33.8989 12.553 33.8088 12.553H33.0512ZM35.3573 12.4219C35.4064 11.9469 35.7135 11.7052 36.2828 11.7052C36.5449 11.7052 36.7578 11.7585 36.9135 11.8609C37.0691 11.9673 37.151 12.1271 37.151 12.3441V13.4171C37.151 13.4785 37.1551 13.5194 37.1715 13.5399C37.1878 13.5645 37.2165 13.5727 37.2615 13.5727C37.2943 13.5727 37.3271 13.5727 37.368 13.5645V13.8921C37.2452 13.9249 37.1469 13.9371 37.065 13.9371C36.8643 13.9371 36.7496 13.8552 36.721 13.6832C36.5408 13.8552 36.2951 13.9371 35.9797 13.9371C35.7586 13.9371 35.5866 13.8839 35.4596 13.7692C35.3286 13.6546 35.2672 13.5031 35.2672 13.3065C35.2672 13.2491 35.2713 13.1918 35.2876 13.1386C35.2999 13.0894 35.3163 13.0444 35.3327 13.0034C35.3491 12.9666 35.3777 12.9297 35.4187 12.897C35.4596 12.8642 35.4924 12.8396 35.517 12.8151C35.5415 12.7946 35.5866 12.7741 35.6439 12.7536C35.7013 12.7372 35.7463 12.7209 35.775 12.7127C35.8036 12.7045 35.8528 12.6922 35.9265 12.6799C35.9961 12.6717 36.0412 12.6635 36.0657 12.6594C36.0903 12.6553 36.1395 12.6471 36.2132 12.639C36.377 12.6185 36.4916 12.6021 36.5531 12.5857C36.6104 12.5693 36.6514 12.5489 36.6759 12.5161C36.6923 12.4956 36.7046 12.4465 36.7046 12.3646C36.7046 12.1516 36.5572 12.0451 36.2705 12.0451C36.1149 12.0451 36.0043 12.0738 35.9347 12.1311C35.861 12.1885 35.8159 12.2868 35.7995 12.4219H35.3573ZM36.7005 12.8232C36.6636 12.8437 36.6227 12.8601 36.5776 12.8765C36.5285 12.8929 36.4916 12.9011 36.463 12.9051C36.4343 12.9092 36.3893 12.9133 36.3278 12.9215C36.2664 12.9297 36.2255 12.9379 36.2091 12.9379C36.1517 12.9461 36.1067 12.9543 36.0739 12.9625C36.0412 12.9707 36.0002 12.9789 35.9511 12.9952C35.9019 13.0116 35.8651 13.0321 35.8405 13.0567C35.8159 13.0812 35.7914 13.1099 35.775 13.1509C35.7545 13.1918 35.7463 13.2369 35.7463 13.2901C35.7463 13.3925 35.7791 13.4703 35.8446 13.5235C35.9101 13.5809 36.0043 13.6054 36.1272 13.6054C36.3319 13.6054 36.4916 13.5522 36.6063 13.4375C36.6677 13.3761 36.7005 13.2532 36.7005 13.0731V12.8232ZM38.8491 11.7298V12.1762C38.7672 12.168 38.7099 12.1639 38.6853 12.1639C38.2758 12.1639 38.0751 12.4301 38.0751 12.9543V13.8839H37.6124V11.7708H38.0506V12.1926C38.198 11.8813 38.4355 11.7216 38.759 11.7216L38.8491 11.7298ZM29.2142 14.9681H30.5452C30.8482 14.9681 31.0817 15.0377 31.2455 15.1688C31.4093 15.2998 31.4912 15.48 31.4912 15.7011C31.4912 15.8404 31.4502 15.9673 31.3765 16.0779C31.2987 16.1885 31.1963 16.2663 31.0735 16.3154C31.2414 16.3564 31.3765 16.4383 31.4748 16.5611C31.5731 16.684 31.6222 16.8396 31.6222 17.0239C31.6222 17.2819 31.5362 17.4908 31.3642 17.6464C31.1922 17.8061 30.9711 17.8839 30.7008 17.8839H29.2142V14.9681ZM29.7138 15.3817V16.1844H30.41C30.6066 16.1844 30.7499 16.1557 30.8441 16.0943C30.9342 16.0329 30.9834 15.9305 30.9834 15.7831C30.9834 15.6192 30.9342 15.5128 30.8359 15.4595C30.7377 15.4104 30.6025 15.3817 30.4264 15.3817H29.7138ZM29.7138 16.553V17.4662H30.4797C30.6762 17.4662 30.8278 17.4334 30.9424 17.3679C31.053 17.3024 31.1103 17.1836 31.1103 17.0116C31.1103 16.9174 31.0898 16.8396 31.0571 16.7741C31.0243 16.7086 30.9752 16.6635 30.9097 16.6308C30.8441 16.6021 30.7786 16.5816 30.7131 16.5693C30.6435 16.5611 30.5616 16.553 30.4715 16.553H29.7138ZM33.9324 17.2246C33.8791 17.4539 33.7645 17.6341 33.5925 17.7611C33.4205 17.8921 33.2116 17.9535 32.9741 17.9535C32.6546 17.9535 32.4007 17.8511 32.2124 17.6464C32.024 17.4416 31.9339 17.1754 31.9339 16.8519C31.9339 16.5243 32.0281 16.2499 32.2205 16.0329C32.413 15.8199 32.6587 15.7093 32.9577 15.7093C33.2648 15.7093 33.5105 15.8158 33.6907 16.0288C33.8709 16.2417 33.961 16.5284 33.961 16.8929V16.942H32.4007C32.4048 17.155 32.4581 17.3229 32.5605 17.4375C32.6587 17.5522 32.8021 17.6095 32.9823 17.6095C33.1092 17.6095 33.2116 17.5809 33.2935 17.5194C33.3754 17.458 33.4368 17.3597 33.486 17.2246H33.9324ZM33.4942 16.6308C33.4778 16.4547 33.4245 16.3154 33.3263 16.2131C33.228 16.1107 33.1051 16.0574 32.9536 16.0574C32.798 16.0574 32.6751 16.1066 32.5809 16.2049C32.4867 16.3031 32.4294 16.4465 32.4089 16.6308H33.4942ZM34.2955 16.4219C34.3446 15.9469 34.6517 15.7052 35.221 15.7052C35.4831 15.7052 35.696 15.7585 35.8516 15.8609C36.0073 15.9673 36.0892 16.1271 36.0892 16.3441V17.4171C36.0892 17.4785 36.0933 17.5194 36.1096 17.5399C36.126 17.5645 36.1547 17.5727 36.1997 17.5727C36.2325 17.5727 36.2653 17.5727 36.3062 17.5645V17.8921C36.1834 17.9249 36.0851 17.9371 36.0032 17.9371C35.8025 17.9371 35.6878 17.8552 35.6592 17.6832C35.479 17.8552 35.2333 17.9371 34.9179 17.9371C34.6968 17.9371 34.5248 17.8839 34.3978 17.7692C34.2668 17.6546 34.2054 17.5031 34.2054 17.3065C34.2054 17.2491 34.2095 17.1918 34.2258 17.1386C34.2381 17.0894 34.2545 17.0444 34.2709 17.0034C34.2873 16.9666 34.3159 16.9297 34.3569 16.897C34.3978 16.8642 34.4306 16.8396 34.4552 16.8151C34.4797 16.7946 34.5248 16.7741 34.5821 16.7536C34.6395 16.7372 34.6845 16.7209 34.7132 16.7127C34.7418 16.7045 34.791 16.6922 34.8647 16.6799C34.9343 16.6717 34.9794 16.6635 35.0039 16.6594C35.0285 16.6553 35.0776 16.6471 35.1514 16.639C35.3152 16.6185 35.4298 16.6021 35.4913 16.5857C35.5486 16.5693 35.5896 16.5489 35.6141 16.5161C35.6305 16.4956 35.6428 16.4465 35.6428 16.3646C35.6428 16.1516 35.4954 16.0451 35.2087 16.0451C35.0531 16.0451 34.9425 16.0738 34.8729 16.1311C34.7992 16.1885 34.7541 16.2868 34.7377 16.4219H34.2955ZM35.6387 16.8232C35.6018 16.8437 35.5609 16.8601 35.5158 16.8765C35.4667 16.8929 35.4298 16.9011 35.4012 16.9051C35.3725 16.9092 35.3275 16.9133 35.266 16.9215C35.2046 16.9297 35.1636 16.9379 35.1473 16.9379C35.0899 16.9461 35.0449 16.9543 35.0121 16.9625C34.9794 16.9707 34.9384 16.9789 34.8893 16.9952C34.8401 17.0116 34.8033 17.0321 34.7787 17.0567C34.7541 17.0812 34.7296 17.1099 34.7132 17.1509C34.6927 17.1918 34.6845 17.2369 34.6845 17.2901C34.6845 17.3925 34.7173 17.4703 34.7828 17.5235C34.8483 17.5809 34.9425 17.6054 35.0654 17.6054C35.2701 17.6054 35.4298 17.5522 35.5445 17.4375C35.6059 17.3761 35.6387 17.2532 35.6387 17.0731V16.8232ZM37.0379 15.7708V16.0697C37.2099 15.8322 37.431 15.7134 37.7013 15.7134C37.8406 15.7134 37.9593 15.7462 38.0617 15.8076C38.1641 15.8731 38.2419 15.9591 38.291 16.0738C38.4589 15.8363 38.6883 15.7134 38.9749 15.7134C39.1715 15.7134 39.3394 15.7749 39.4705 15.8936C39.6015 16.0124 39.667 16.1762 39.667 16.3851V17.8839H39.2002V16.5857C39.2002 16.4383 39.1715 16.3195 39.1224 16.2335C39.0691 16.1516 38.9708 16.1066 38.8234 16.1066C38.6719 16.1066 38.5572 16.1557 38.4794 16.2499C38.3975 16.3441 38.3607 16.4751 38.3607 16.6431V17.8839H37.8938V16.5611C37.8938 16.4137 37.8692 16.2991 37.8242 16.2212C37.7791 16.1475 37.6849 16.1066 37.5457 16.1066C37.386 16.1066 37.2672 16.1598 37.1853 16.2622C37.1034 16.3646 37.0625 16.4997 37.0625 16.6676V17.8839H36.5956V15.7708H37.0379Z" fill="black"/>
<path d="M8.08884 29.7245H7.87998C7.86594 29.5789 7.77643 29.5051 7.60794 29.5051C7.53247 29.5051 7.47455 29.5209 7.43243 29.5525C7.39031 29.5841 7.36925 29.6262 7.36925 29.6789C7.36925 29.7298 7.38329 29.7649 7.41488 29.7824C7.44647 29.8018 7.51492 29.8246 7.62198 29.8509C7.65006 29.8597 7.67112 29.8649 7.68692 29.8684C7.82557 29.9035 7.92035 29.9351 7.97125 29.9632C8.08182 30.0229 8.13798 30.1159 8.13798 30.2423C8.13798 30.2984 8.12745 30.3476 8.1099 30.3915C8.09059 30.4371 8.06602 30.474 8.03443 30.5038C8.00284 30.5336 7.96423 30.5582 7.9221 30.5775C7.87823 30.5986 7.83259 30.6126 7.78696 30.6214C7.73957 30.6302 7.69043 30.6337 7.64129 30.6337C7.48333 30.6337 7.35696 30.5968 7.26043 30.5213C7.16214 30.4476 7.11476 30.3371 7.11476 30.1914H7.33063C7.33063 30.2827 7.36047 30.3511 7.42014 30.395C7.47982 30.4389 7.55704 30.4599 7.65357 30.4599C7.73782 30.4599 7.80276 30.4441 7.85014 30.409C7.89753 30.3739 7.9221 30.3265 7.9221 30.2633C7.9221 30.2247 7.90806 30.1914 7.88349 30.1668C7.85892 30.1422 7.83084 30.1229 7.80276 30.1124C7.77292 30.1019 7.72202 30.0878 7.65006 30.0685C7.64129 30.0668 7.63427 30.065 7.63076 30.0633C7.47455 30.0247 7.37276 29.9913 7.32361 29.965C7.22182 29.9123 7.16741 29.8316 7.16039 29.721V29.6964C7.16039 29.5859 7.20076 29.4981 7.285 29.4314C7.36925 29.3647 7.48157 29.3314 7.62198 29.3314C7.75712 29.3314 7.8677 29.3647 7.9537 29.4279C8.03794 29.4929 8.08357 29.5911 8.08884 29.7245Z" fill="black"/>
</svg>
