<svg width="46" height="46" viewBox="0 0 46 46" fill="none" xmlns="http://www.w3.org/2000/svg">
<rect width="46" height="46" rx="11.3448" fill="#F3F3F3"/>
<rect x="0.405172" y="0.405172" width="45.1897" height="45.1897" rx="10.9397" stroke="#B02E0C" stroke-opacity="0.04" stroke-width="0.810345"/>
<rect x="2.86065" y="25.6197" width="39.1533" height="10.9951" stroke="black" stroke-width="0.268173"/>
<path d="M6.75 27.0946V35.1398" stroke="black" stroke-width="0.268173" stroke-linecap="square"/>
<path d="M9.88672 27.0945V35.1397" stroke="black" stroke-width="0.268173" stroke-linecap="square"/>
<path d="M13.0254 27.0946V35.1398" stroke="black" stroke-width="0.268173" stroke-linecap="square"/>
<path d="M16.1621 27.0946V35.1398" stroke="black" stroke-width="0.268173" stroke-linecap="square"/>
<path d="M19.2988 27.0946V35.1398" stroke="black" stroke-width="0.268173" stroke-linecap="square"/>
<path d="M22.4375 27.0945V35.1397" stroke="black" stroke-width="0.268173" stroke-linecap="square"/>
<path d="M25.5742 27.0946V35.1398" stroke="black" stroke-width="0.268173" stroke-linecap="square"/>
<path d="M28.7129 27.0946V35.1398" stroke="black" stroke-width="0.268173" stroke-linecap="square"/>
<path d="M31.8496 27.0945V35.1397" stroke="black" stroke-width="0.268173" stroke-linecap="square"/>
<path d="M34.9883 27.0946V35.1398" stroke="black" stroke-width="0.268173" stroke-linecap="square"/>
<path d="M38.125 27.0946V35.1398" stroke="black" stroke-width="0.268173" stroke-linecap="square"/>
<path d="M4.33398 30.3134V28.168C4.33398 27.5756 4.81425 27.0953 5.40668 27.0953H39.4647C40.0571 27.0953 40.5374 27.5756 40.5374 28.168V30.3134" stroke="#F7941D" stroke-width="0.268173" stroke-linecap="square"/>
<path d="M4.33398 31.9224V34.0678C4.33398 34.6602 4.81425 35.1405 5.40668 35.1405H39.4647C40.0571 35.1405 40.5374 34.6602 40.5374 34.0678V31.9224" stroke="#F7941D" stroke-width="0.268173" stroke-linecap="square"/>
<path d="M22.9713 39.0543V39.286H21.9244V37.7585H22.1947V39.0543H22.9713Z" fill="black"/>
<rect x="2.81218" y="6.79949" width="22.6235" height="14.042" stroke="black" stroke-width="0.17124"/>
<rect x="3.88445" y="7.87224" width="14.5783" height="11.8966" rx="1.2843" stroke="#F7941D" stroke-width="0.17124"/>
<rect x="9.78484" y="7.87224" width="14.5783" height="11.8966" rx="1.2843" stroke="#F7941D" stroke-width="0.17124"/>
<circle cx="5.28849" cy="9.2764" r="0.684973" fill="#F7941D"/>
<circle cx="11.0893" cy="9.2764" r="0.684973" fill="#F7941D"/>
<circle cx="16.8901" cy="9.2764" r="0.684973" fill="#F7941D"/>
<circle cx="22.6908" cy="9.2764" r="0.684973" fill="#F7941D"/>
<circle cx="5.28849" cy="9.2764" r="0.684973" fill="#F7941D"/>
<circle cx="11.0893" cy="9.2764" r="0.684973" fill="#F7941D"/>
<circle cx="16.8901" cy="9.2764" r="0.684973" fill="#F7941D"/>
<circle cx="22.6908" cy="9.2764" r="0.684973" fill="#F7941D"/>
<path d="M4.80087 10.7363C3.10735 8.12293 4.58847 7.12737 6.74814 9.07703" stroke="#B02E0C" stroke-width="0.139259" stroke-linecap="round"/>
<path d="M23.5101 10.8711C25.2036 8.25769 23.3758 6.84835 21.3647 8.99397" stroke="#B02E0C" stroke-width="0.139259" stroke-linecap="round"/>
<path d="M13.4383 23.4636L13.9832 22.672L13.4769 21.9361H13.7966L14.1441 22.4767L14.5067 21.9361H14.8071L14.3007 22.672L14.8435 23.4636H14.5174L14.1356 22.8801L13.7472 23.4636H13.4383Z" fill="black"/>
<path d="M27.1943 13.354L26.6193 14.2743V14.8815H26.3554V14.2743L25.7783 13.354H26.0873L26.4927 14.0298L26.8939 13.354H27.1943Z" fill="black"/>
<path d="M3.79883 15.2952L4.33518 15.6048V14.9855L3.79883 15.2952ZM4.28154 15.2952V15.3488H5.67604V15.2952V15.2415H4.28154V15.2952Z" fill="black"/>
<path d="M6.06243 14.6136H6.60468C6.71731 14.6136 6.81063 14.6394 6.88304 14.6909C6.95384 14.7424 6.99084 14.8228 6.99084 14.9322C6.99084 15.0014 6.97315 15.061 6.94096 15.1092C6.90717 15.1575 6.86051 15.1929 6.80098 15.2138C6.82833 15.2202 6.85247 15.2299 6.87338 15.2428C6.89269 15.2556 6.90878 15.2701 6.92005 15.2846C6.93131 15.3007 6.94096 15.32 6.94901 15.3425C6.95545 15.3667 6.96027 15.3876 6.96349 15.4053C6.96671 15.423 6.96832 15.4455 6.97154 15.4745C6.97154 15.4825 6.97315 15.497 6.97475 15.5179C6.97636 15.5404 6.97797 15.5549 6.97797 15.5614C6.97797 15.5678 6.97958 15.5807 6.98119 15.5968C6.9828 15.6145 6.98441 15.6273 6.98602 15.6338C6.98602 15.6402 6.98763 15.6515 6.99084 15.6643C6.99406 15.6772 6.99567 15.6885 6.99889 15.6949C7.0005 15.7014 7.00372 15.7094 7.00694 15.7191C7.01015 15.7287 7.01337 15.7351 7.0182 15.7416C7.02142 15.748 7.02624 15.7545 7.03268 15.7593H6.81707C6.81385 15.7561 6.81063 15.7512 6.80741 15.7448C6.8042 15.7384 6.80259 15.7319 6.80098 15.7255C6.79776 15.7191 6.79615 15.7126 6.79615 15.7062C6.79454 15.6997 6.79293 15.6917 6.79132 15.682C6.78971 15.6724 6.78971 15.6627 6.78971 15.6563L6.7865 15.6273L6.78328 15.5984C6.78328 15.5919 6.78167 15.5807 6.78167 15.5646C6.78006 15.5485 6.78006 15.5372 6.78006 15.5308C6.77362 15.4375 6.75432 15.3747 6.72053 15.3393C6.68674 15.3039 6.62237 15.2862 6.52905 15.2862H6.26195V15.7593H6.06243V14.6136ZM6.26195 14.7778V15.1366H6.52744C6.56606 15.1366 6.59824 15.135 6.62559 15.1301C6.65134 15.1269 6.67869 15.1189 6.70604 15.1076C6.7334 15.0964 6.75432 15.077 6.7688 15.0513C6.78328 15.0256 6.79132 14.9934 6.79132 14.9531C6.79132 14.9177 6.78489 14.8872 6.77202 14.863C6.75914 14.8389 6.73983 14.8212 6.7157 14.8083C6.69156 14.7971 6.66743 14.789 6.64168 14.7842C6.61594 14.781 6.58698 14.7778 6.55319 14.7778H6.26195ZM7.6829 14.6265V15.7593H7.48659V14.9805H7.20662V14.8453C7.40131 14.8453 7.51073 14.7729 7.53486 14.6265H7.6829Z" fill="black"/>
<path d="M9.69922 15.2952L10.2356 15.6048V14.9855L9.69922 15.2952ZM10.1819 15.2952V15.3488H11.5764V15.2952V15.2415H10.1819V15.2952Z" fill="black"/>
<path d="M11.9628 14.6136H12.5051C12.6177 14.6136 12.711 14.6394 12.7834 14.6909C12.8542 14.7424 12.8912 14.8228 12.8912 14.9322C12.8912 15.0014 12.8735 15.061 12.8414 15.1092C12.8076 15.1575 12.7609 15.1929 12.7014 15.2138C12.7287 15.2202 12.7529 15.2299 12.7738 15.2428C12.7931 15.2556 12.8092 15.2701 12.8204 15.2846C12.8317 15.3007 12.8414 15.32 12.8494 15.3425C12.8558 15.3667 12.8607 15.3876 12.8639 15.4053C12.8671 15.423 12.8687 15.4455 12.8719 15.4745C12.8719 15.4825 12.8735 15.497 12.8751 15.5179C12.8768 15.5404 12.8784 15.5549 12.8784 15.5614C12.8784 15.5678 12.88 15.5807 12.8816 15.5968C12.8832 15.6145 12.8848 15.6273 12.8864 15.6338C12.8864 15.6402 12.888 15.6515 12.8912 15.6643C12.8945 15.6772 12.8961 15.6885 12.8993 15.6949C12.9009 15.7014 12.9041 15.7094 12.9073 15.7191C12.9105 15.7287 12.9138 15.7351 12.9186 15.7416C12.9218 15.748 12.9266 15.7545 12.9331 15.7593H12.7175C12.7142 15.7561 12.711 15.7512 12.7078 15.7448C12.7046 15.7384 12.703 15.7319 12.7014 15.7255C12.6982 15.7191 12.6965 15.7126 12.6965 15.7062C12.6949 15.6997 12.6933 15.6917 12.6917 15.682C12.6901 15.6724 12.6901 15.6627 12.6901 15.6563L12.6869 15.6273L12.6837 15.5984C12.6837 15.5919 12.6821 15.5807 12.6821 15.5646C12.6805 15.5485 12.6805 15.5372 12.6805 15.5308C12.674 15.4375 12.6547 15.3747 12.6209 15.3393C12.5871 15.3039 12.5228 15.2862 12.4294 15.2862H12.1623V15.7593H11.9628V14.6136ZM12.1623 14.7778V15.1366H12.4278C12.4664 15.1366 12.4986 15.135 12.526 15.1301C12.5517 15.1269 12.5791 15.1189 12.6064 15.1076C12.6338 15.0964 12.6547 15.077 12.6692 15.0513C12.6837 15.0256 12.6917 14.9934 12.6917 14.9531C12.6917 14.9177 12.6853 14.8872 12.6724 14.863C12.6595 14.8389 12.6402 14.8212 12.6161 14.8083C12.592 14.7971 12.5678 14.789 12.5421 14.7842C12.5163 14.781 12.4874 14.7778 12.4536 14.7778H12.1623ZM13.7828 15.5968V15.7593H13.0137C13.0137 15.7094 13.0217 15.6627 13.0346 15.6209C13.0475 15.5791 13.062 15.5437 13.078 15.5147C13.0941 15.4857 13.1199 15.4552 13.1521 15.4246C13.1842 15.394 13.2148 15.3683 13.2406 15.349C13.2663 15.3297 13.3033 15.3039 13.35 15.2717C13.3532 15.2701 13.3677 15.2605 13.3966 15.2412C13.4256 15.2219 13.4433 15.2106 13.4497 15.2058C13.4562 15.2009 13.4707 15.1897 13.4932 15.172C13.5157 15.1543 13.5302 15.1398 13.5366 15.1285C13.5431 15.1189 13.5527 15.1044 13.5656 15.0851C13.5785 15.0674 13.5865 15.0497 13.5913 15.0304C13.5945 15.0111 13.5978 14.9918 13.5978 14.9692C13.5978 14.9113 13.5801 14.8647 13.5479 14.8309C13.5157 14.7971 13.4707 14.7794 13.4159 14.7794C13.3838 14.7794 13.3548 14.7858 13.3323 14.7955C13.3081 14.8051 13.2888 14.818 13.276 14.8341C13.2631 14.8502 13.2518 14.8711 13.2438 14.8968C13.2341 14.9226 13.2293 14.9451 13.2261 14.9676C13.2229 14.9902 13.2213 15.0175 13.2213 15.0465H13.0426V15.0175C13.0426 14.8968 13.0764 14.8003 13.144 14.7295C13.2116 14.6587 13.3049 14.6217 13.4208 14.6217C13.5302 14.6217 13.6171 14.6539 13.6847 14.715C13.7506 14.7762 13.7844 14.8582 13.7844 14.9596C13.7844 15.0014 13.778 15.04 13.7651 15.0754C13.7522 15.1124 13.7378 15.1414 13.7233 15.1639C13.7088 15.1865 13.6847 15.2138 13.6493 15.2428C13.6139 15.2733 13.5865 15.2943 13.5704 15.3055C13.5527 15.3184 13.5205 15.3393 13.4755 15.3699C13.3403 15.4568 13.2599 15.5324 13.2341 15.5968H13.7828Z" fill="black"/>
<circle cx="5.28849" cy="18.3944" r="0.684973" fill="#F7941D"/>
<circle cx="11.0893" cy="18.3944" r="0.684973" fill="#F7941D"/>
<circle cx="16.8901" cy="18.3944" r="0.684973" fill="#F7941D"/>
<circle cx="22.6908" cy="18.3944" r="0.684973" fill="#F7941D"/>
<path d="M21.3511 10.0544H21.7872C21.866 10.0544 21.9352 10.0641 21.9964 10.0802C22.0559 10.0963 22.1106 10.1268 22.1621 10.1719C22.2747 10.2733 22.3311 10.4181 22.3311 10.6079C22.3311 10.8107 22.2763 10.9668 22.1701 11.073C22.1219 11.1212 22.0704 11.1534 22.0157 11.1727C21.961 11.192 21.8886 11.2001 21.7985 11.2001H21.3511V10.0544ZM21.5507 10.225V11.0311H21.7872C21.9127 11.0311 22.0012 10.9957 22.0527 10.9217C22.1042 10.8493 22.1299 10.7479 22.1299 10.6176C22.1299 10.4953 22.101 10.3988 22.043 10.3296C21.9851 10.2604 21.895 10.225 21.7743 10.225H21.5507ZM22.9983 10.0673V11.2001H22.802V10.4213H22.522V10.2861C22.7167 10.2861 22.8261 10.2137 22.8503 10.0673H22.9983Z" fill="black"/>
<path d="M21.8863 15.9541H22.3224C22.4012 15.9541 22.4704 15.9637 22.5315 15.9798C22.5911 15.9959 22.6458 16.0265 22.6973 16.0716C22.8099 16.1729 22.8662 16.3177 22.8662 16.5076C22.8662 16.7103 22.8115 16.8664 22.7053 16.9726C22.657 17.0209 22.6055 17.0531 22.5508 17.0724C22.4961 17.0917 22.4237 17.0997 22.3336 17.0997H21.8863V15.9541ZM22.0858 16.1247V16.9308H22.3224C22.4479 16.9308 22.5364 16.8954 22.5878 16.8214C22.6393 16.749 22.6651 16.6476 22.6651 16.5173C22.6651 16.395 22.6361 16.2984 22.5782 16.2292C22.5203 16.1601 22.4302 16.1247 22.3095 16.1247H22.0858ZM23.733 16.9372V17.0997H22.9638C22.9638 17.0499 22.9719 17.0032 22.9848 16.9614C22.9976 16.9195 23.0121 16.8841 23.0282 16.8552C23.0443 16.8262 23.07 16.7956 23.1022 16.7651C23.1344 16.7345 23.165 16.7087 23.1907 16.6894C23.2165 16.6701 23.2535 16.6444 23.3001 16.6122C23.3034 16.6106 23.3178 16.6009 23.3468 16.5816C23.3758 16.5623 23.3935 16.551 23.3999 16.5462C23.4063 16.5414 23.4208 16.5301 23.4433 16.5124C23.4659 16.4947 23.4803 16.4803 23.4868 16.469C23.4932 16.4593 23.5029 16.4449 23.5157 16.4255C23.5286 16.4078 23.5367 16.3901 23.5415 16.3708C23.5447 16.3515 23.5479 16.3322 23.5479 16.3097C23.5479 16.2518 23.5302 16.2051 23.498 16.1713C23.4659 16.1375 23.4208 16.1198 23.3661 16.1198C23.3339 16.1198 23.305 16.1263 23.2824 16.1359C23.2583 16.1456 23.239 16.1584 23.2261 16.1745C23.2132 16.1906 23.202 16.2115 23.1939 16.2373C23.1843 16.263 23.1795 16.2856 23.1762 16.3081C23.173 16.3306 23.1714 16.358 23.1714 16.3869H22.9928V16.358C22.9928 16.2373 23.0266 16.1407 23.0942 16.0699C23.1618 15.9991 23.2551 15.9621 23.3709 15.9621C23.4803 15.9621 23.5672 15.9943 23.6348 16.0555C23.7008 16.1166 23.7346 16.1987 23.7346 16.3C23.7346 16.3419 23.7281 16.3805 23.7153 16.4159C23.7024 16.4529 23.6879 16.4819 23.6734 16.5044C23.659 16.5269 23.6348 16.5543 23.5994 16.5832C23.564 16.6138 23.5367 16.6347 23.5206 16.646C23.5029 16.6589 23.4707 16.6798 23.4256 16.7103C23.2905 16.7972 23.21 16.8729 23.1843 16.9372H23.733Z" fill="black"/>
<path d="M31.01 11.8938V12.2027H30.7235V12.7369H30.3696L30.3663 12.2027H29.4106V11.8391L30.376 10.465H30.7235V11.8938H31.01ZM30.3728 11.8938V10.9187L29.7131 11.8938H30.3728ZM33.8225 12.3894V12.7369H32.2521V10.4457H32.6576V12.3894H33.8225ZM35.5417 12.2188C35.4998 12.399 35.4097 12.5406 35.2746 12.6404C35.1394 12.7434 34.9753 12.7916 34.7886 12.7916C34.5376 12.7916 34.3381 12.7112 34.1901 12.5503C34.042 12.3894 33.9712 12.1802 33.9712 11.926C33.9712 11.6685 34.0453 11.4529 34.1965 11.2824C34.3478 11.115 34.5408 11.0281 34.7758 11.0281C35.0171 11.0281 35.2102 11.1118 35.3518 11.2791C35.4934 11.4465 35.5642 11.6718 35.5642 11.9582V11.9968H34.3381C34.3413 12.1641 34.3832 12.2961 34.4636 12.3862C34.5408 12.4763 34.6535 12.5213 34.7951 12.5213C34.8948 12.5213 34.9753 12.4988 35.0396 12.4505C35.104 12.4023 35.1523 12.325 35.1909 12.2188H35.5417ZM35.1973 11.7522C35.1845 11.6138 35.1426 11.5044 35.0654 11.424C34.9882 11.3435 34.8916 11.3017 34.7725 11.3017C34.6503 11.3017 34.5537 11.3403 34.4797 11.4175C34.4057 11.4948 34.3606 11.6074 34.3445 11.7522H35.1973ZM37.3652 11.0764V12.5439C37.3652 12.8303 37.3041 13.0427 37.1818 13.1778C37.0595 13.3162 36.8568 13.3838 36.5672 13.3838C36.1102 13.3838 35.8624 13.2164 35.8238 12.8785H36.1906C36.2228 13.0459 36.3515 13.1263 36.5768 13.1263C36.7281 13.1263 36.8375 13.0877 36.9083 13.0105C36.9791 12.9332 37.0145 12.811 37.0145 12.6372V12.4409C36.8922 12.6275 36.7184 12.7208 36.4867 12.7208C36.2647 12.7208 36.0877 12.6468 35.9589 12.4988C35.8302 12.3508 35.7659 12.148 35.7659 11.8938C35.7659 11.6364 35.8334 11.4272 35.9686 11.2695C36.1038 11.1118 36.2807 11.0314 36.506 11.0314C36.6219 11.0314 36.7216 11.0539 36.8021 11.0989C36.8793 11.144 36.9533 11.2116 37.0241 11.3081V11.0764H37.3652ZM36.5704 11.3274C36.432 11.3274 36.3226 11.3789 36.2453 11.4755C36.1681 11.5752 36.1295 11.7136 36.1295 11.8874C36.1295 12.0547 36.1681 12.1899 36.2486 12.2864C36.329 12.3862 36.4352 12.4344 36.5704 12.4344C36.7055 12.4344 36.8149 12.3862 36.8954 12.2832C36.9726 12.1802 37.0145 12.0418 37.0145 11.8681C37.0145 11.7007 36.9726 11.5688 36.8954 11.4722C36.8182 11.3757 36.7088 11.3274 36.5704 11.3274ZM39.2728 11.0764V12.5439C39.2728 12.8303 39.2117 13.0427 39.0894 13.1778C38.9671 13.3162 38.7644 13.3838 38.4747 13.3838C38.0178 13.3838 37.77 13.2164 37.7314 12.8785H38.0982C38.1304 13.0459 38.2591 13.1263 38.4844 13.1263C38.6357 13.1263 38.7451 13.0877 38.8159 13.0105C38.8867 12.9332 38.9221 12.811 38.9221 12.6372V12.4409C38.7998 12.6275 38.626 12.7208 38.3943 12.7208C38.1722 12.7208 37.9953 12.6468 37.8665 12.4988C37.7378 12.3508 37.6734 12.148 37.6734 11.8938C37.6734 11.6364 37.741 11.4272 37.8762 11.2695C38.0113 11.1118 38.1883 11.0314 38.4136 11.0314C38.5295 11.0314 38.6292 11.0539 38.7097 11.0989C38.7869 11.144 38.8609 11.2116 38.9317 11.3081V11.0764H39.2728ZM38.478 11.3274C38.3396 11.3274 38.2302 11.3789 38.1529 11.4755C38.0757 11.5752 38.0371 11.7136 38.0371 11.8874C38.0371 12.0547 38.0757 12.1899 38.1562 12.2864C38.2366 12.3862 38.3428 12.4344 38.478 12.4344C38.6131 12.4344 38.7225 12.3862 38.803 12.2832C38.8802 12.1802 38.9221 12.0418 38.9221 11.8681C38.9221 11.7007 38.8802 11.5688 38.803 11.4722C38.7258 11.3757 38.6163 11.3274 38.478 11.3274ZM41.145 12.2188C41.1032 12.399 41.0131 12.5406 40.8779 12.6404C40.7428 12.7434 40.5786 12.7916 40.392 12.7916C40.141 12.7916 39.9415 12.7112 39.7934 12.5503C39.6454 12.3894 39.5746 12.1802 39.5746 11.926C39.5746 11.6685 39.6486 11.4529 39.7999 11.2824C39.9511 11.115 40.1442 11.0281 40.3791 11.0281C40.6205 11.0281 40.8136 11.1118 40.9552 11.2791C41.0968 11.4465 41.1676 11.6718 41.1676 11.9582V11.9968H39.9415C39.9447 12.1641 39.9865 12.2961 40.067 12.3862C40.1442 12.4763 40.2568 12.5213 40.3984 12.5213C40.4982 12.5213 40.5786 12.4988 40.643 12.4505C40.7074 12.4023 40.7556 12.325 40.7943 12.2188H41.145ZM40.8007 11.7522C40.7878 11.6138 40.746 11.5044 40.6688 11.424C40.5915 11.3435 40.495 11.3017 40.3759 11.3017C40.2536 11.3017 40.1571 11.3403 40.0831 11.4175C40.009 11.4948 39.964 11.6074 39.9479 11.7522H40.8007ZM43.0201 10.4457V12.7369H42.6758V12.5085C42.5696 12.6919 42.3926 12.782 42.1448 12.782C41.9098 12.782 41.7232 12.7048 41.5848 12.5439C41.4464 12.3862 41.3789 12.1738 41.3789 11.9035C41.3789 11.6396 41.4464 11.4272 41.5816 11.2695C41.7168 11.1118 41.9002 11.0314 42.1319 11.0314C42.3636 11.0314 42.5406 11.1182 42.6597 11.292V10.4457H43.0201ZM42.1995 11.3274C42.0579 11.3274 41.9485 11.3789 41.868 11.4819C41.7876 11.5849 41.7489 11.7232 41.7489 11.897C41.7489 12.0804 41.7876 12.2253 41.8712 12.3282C41.9549 12.4344 42.0675 12.4859 42.2123 12.4859C42.3539 12.4859 42.4666 12.4344 42.547 12.3315C42.6275 12.2285 42.6693 12.0869 42.6693 11.9035C42.6693 11.7232 42.6275 11.5816 42.5438 11.4787C42.4601 11.3789 42.3475 11.3274 42.1995 11.3274ZM32.1924 13.4457H33.2383C33.4764 13.4457 33.6598 13.5004 33.7885 13.6034C33.9173 13.7063 33.9816 13.8479 33.9816 14.0217C33.9816 14.1311 33.9494 14.2309 33.8915 14.3178C33.8304 14.4047 33.7499 14.4658 33.6534 14.5044C33.7853 14.5366 33.8915 14.601 33.9688 14.6975C34.046 14.794 34.0846 14.9163 34.0846 15.0611C34.0846 15.2639 34.017 15.428 33.8819 15.5503C33.7467 15.6758 33.5729 15.7369 33.3605 15.7369H32.1924V13.4457ZM32.585 13.7707V14.4014H33.1321C33.2865 14.4014 33.3992 14.3789 33.4732 14.3306C33.544 14.2824 33.5826 14.2019 33.5826 14.0861C33.5826 13.9573 33.544 13.8737 33.4667 13.8318C33.3895 13.7932 33.2833 13.7707 33.1449 13.7707H32.585ZM32.585 14.6911V15.4087H33.1868C33.3412 15.4087 33.4603 15.3829 33.5504 15.3315C33.6373 15.28 33.6823 15.1866 33.6823 15.0515C33.6823 14.9775 33.6663 14.9163 33.6405 14.8648C33.6148 14.8133 33.5761 14.778 33.5247 14.7522C33.4732 14.7297 33.4217 14.7136 33.3702 14.7039C33.3155 14.6975 33.2511 14.6911 33.1803 14.6911H32.585ZM35.8999 15.2188C35.8581 15.399 35.768 15.5406 35.6328 15.6404C35.4977 15.7434 35.3335 15.7916 35.1469 15.7916C34.8959 15.7916 34.6964 15.7112 34.5483 15.5503C34.4003 15.3894 34.3295 15.1802 34.3295 14.926C34.3295 14.6685 34.4035 14.4529 34.5548 14.2824C34.706 14.115 34.8991 14.0281 35.134 14.0281C35.3754 14.0281 35.5685 14.1118 35.7101 14.2791C35.8517 14.4465 35.9225 14.6718 35.9225 14.9582V14.9968H34.6964C34.6996 15.1641 34.7414 15.2961 34.8219 15.3862C34.8991 15.4763 35.0117 15.5213 35.1533 15.5213C35.2531 15.5213 35.3335 15.4988 35.3979 15.4505C35.4623 15.4023 35.5105 15.325 35.5492 15.2188H35.8999ZM35.5556 14.7522C35.5427 14.6138 35.5009 14.5044 35.4237 14.424C35.3464 14.3435 35.2499 14.3017 35.1308 14.3017C35.0085 14.3017 34.912 14.3403 34.838 14.4175C34.7639 14.4948 34.7189 14.6074 34.7028 14.7522H35.5556ZM36.1853 14.5881C36.2239 14.2148 36.4652 14.0249 36.9125 14.0249C37.1185 14.0249 37.2858 14.0668 37.4081 14.1472C37.5304 14.2309 37.5948 14.3564 37.5948 14.5269V15.3701C37.5948 15.4183 37.598 15.4505 37.6109 15.4666C37.6237 15.4859 37.6463 15.4924 37.6817 15.4924C37.7074 15.4924 37.7332 15.4924 37.7653 15.4859V15.7434C37.6688 15.7691 37.5916 15.7788 37.5272 15.7788C37.3695 15.7788 37.2794 15.7144 37.2569 15.5793C37.1153 15.7144 36.9222 15.7788 36.6744 15.7788C36.5006 15.7788 36.3655 15.7369 36.2657 15.6468C36.1627 15.5567 36.1145 15.4377 36.1145 15.2832C36.1145 15.2381 36.1177 15.1931 36.1306 15.1512C36.1402 15.1126 36.1531 15.0772 36.166 15.0451C36.1788 15.0161 36.2013 14.9871 36.2335 14.9614C36.2657 14.9356 36.2915 14.9163 36.3108 14.897C36.3301 14.8809 36.3655 14.8648 36.4105 14.8487C36.4556 14.8359 36.491 14.823 36.5135 14.8166C36.536 14.8101 36.5746 14.8005 36.6326 14.7908C36.6873 14.7844 36.7227 14.778 36.742 14.7747C36.7613 14.7715 36.7999 14.7651 36.8578 14.7586C36.9866 14.7426 37.0767 14.7297 37.1249 14.7168C37.17 14.7039 37.2022 14.6878 37.2215 14.6621C37.2344 14.646 37.244 14.6074 37.244 14.543C37.244 14.3757 37.1282 14.292 36.9029 14.292C36.7806 14.292 36.6937 14.3145 36.639 14.3596C36.5811 14.4047 36.5457 14.4819 36.5328 14.5881H36.1853ZM37.2408 14.9035C37.2118 14.9195 37.1796 14.9324 37.1442 14.9453C37.1056 14.9582 37.0767 14.9646 37.0541 14.9678C37.0316 14.971 36.9962 14.9743 36.9479 14.9807C36.8997 14.9871 36.8675 14.9936 36.8546 14.9936C36.8096 15 36.7742 15.0064 36.7484 15.0129C36.7227 15.0193 36.6905 15.0257 36.6519 15.0386C36.6133 15.0515 36.5843 15.0676 36.565 15.0869C36.5457 15.1062 36.5264 15.1287 36.5135 15.1609C36.4974 15.1931 36.491 15.2285 36.491 15.2703C36.491 15.3508 36.5167 15.4119 36.5682 15.4537C36.6197 15.4988 36.6937 15.5181 36.7903 15.5181C36.9512 15.5181 37.0767 15.4763 37.1668 15.3862C37.215 15.3379 37.2408 15.2414 37.2408 15.0998V14.9035ZM38.3403 14.0764V14.3113C38.4755 14.1247 38.6492 14.0314 38.8616 14.0314C38.971 14.0314 39.0644 14.0571 39.1448 14.1054C39.2253 14.1569 39.2864 14.2244 39.325 14.3145C39.457 14.1279 39.6372 14.0314 39.8624 14.0314C40.0169 14.0314 40.1489 14.0796 40.2518 14.173C40.3548 14.2663 40.4063 14.395 40.4063 14.5591V15.7369H40.0394V14.7168C40.0394 14.601 40.0169 14.5076 39.9783 14.4401C39.9365 14.3757 39.8592 14.3403 39.7434 14.3403C39.6243 14.3403 39.5342 14.3789 39.4731 14.4529C39.4087 14.5269 39.3797 14.6299 39.3797 14.7619V15.7369H39.0129V14.6975C39.0129 14.5816 38.9936 14.4915 38.9582 14.4304C38.9228 14.3725 38.8487 14.3403 38.7393 14.3403C38.6138 14.3403 38.5205 14.3821 38.4561 14.4626C38.3918 14.543 38.3596 14.6492 38.3596 14.7812V15.7369H37.9927V14.0764H38.3403Z" fill="black"/>
<path d="M16.2676 31.7881L16.8039 32.0977V31.4784L16.2676 31.7881ZM19.0834 31.7881L18.5471 31.4784V32.0977L19.0834 31.7881ZM16.7503 31.7881V31.8417H18.6007V31.7881V31.7345H16.7503V31.7881Z" fill="black"/>
<path d="M18.1515 30.2367H17.9601C17.9472 30.1031 17.8651 30.0356 17.7107 30.0356C17.6415 30.0356 17.5884 30.05 17.5498 30.079C17.5111 30.108 17.4918 30.1466 17.4918 30.1949C17.4918 30.2415 17.5047 30.2737 17.5337 30.2898C17.5626 30.3075 17.6254 30.3284 17.7235 30.3525C17.7493 30.3606 17.7686 30.3654 17.7831 30.3686C17.9102 30.4008 17.9971 30.4298 18.0437 30.4555C18.1451 30.5102 18.1966 30.5955 18.1966 30.7114C18.1966 30.7629 18.1869 30.8079 18.1708 30.8481C18.1531 30.89 18.1306 30.9238 18.1017 30.9511C18.0727 30.9785 18.0373 31.001 17.9987 31.0187C17.9585 31.038 17.9166 31.0509 17.8748 31.0589C17.8313 31.067 17.7863 31.0702 17.7412 31.0702C17.5964 31.0702 17.4806 31.0364 17.3921 30.9672C17.302 30.8996 17.2585 30.7983 17.2585 30.6647H17.4564C17.4564 30.7484 17.4838 30.8111 17.5385 30.8513C17.5932 30.8916 17.664 30.9109 17.7525 30.9109C17.8297 30.9109 17.8893 30.8964 17.9327 30.8642C17.9762 30.832 17.9987 30.7886 17.9987 30.7307C17.9987 30.6953 17.9858 30.6647 17.9633 30.6422C17.9408 30.6196 17.915 30.6019 17.8893 30.5923C17.8619 30.5826 17.8152 30.5698 17.7493 30.5521C17.7412 30.5505 17.7348 30.5488 17.7316 30.5472C17.5884 30.5118 17.495 30.4813 17.45 30.4571C17.3567 30.4089 17.3068 30.3348 17.3004 30.2335V30.211C17.3004 30.1096 17.3374 30.0291 17.4146 29.968C17.4918 29.9068 17.5948 29.8763 17.7235 29.8763C17.8474 29.8763 17.9488 29.9068 18.0276 29.9648C18.1049 30.0243 18.1467 30.1144 18.1515 30.2367Z" fill="black"/>
</svg>
