<svg width="46" height="46" viewBox="0 0 46 46" fill="none" xmlns="http://www.w3.org/2000/svg">
<rect width="46" height="46" rx="11.3448" fill="#F3F3F3"/>
<rect x="0.405172" y="0.405172" width="45.1897" height="45.1897" rx="10.9397" stroke="#B02E0C" stroke-opacity="0.04" stroke-width="0.810345"/>
<rect x="2.31745" y="25.825" width="41.3667" height="11.6167" stroke="black" stroke-width="0.283333"/>
<path d="M6.42578 27.3833V35.8833" stroke="black" stroke-width="0.283333" stroke-linecap="square"/>
<path d="M9.74023 27.3833V35.8833" stroke="black" stroke-width="0.283333" stroke-linecap="square"/>
<path d="M13.0566 27.3833V35.8833" stroke="black" stroke-width="0.283333" stroke-linecap="square"/>
<path d="M16.3711 27.3833V35.8833" stroke="black" stroke-width="0.283333" stroke-linecap="square"/>
<path d="M19.6855 27.3833V35.8833" stroke="black" stroke-width="0.283333" stroke-linecap="square"/>
<path d="M23 27.3833V35.8833" stroke="black" stroke-width="0.283333" stroke-linecap="square"/>
<path d="M26.3164 27.3833V35.8833" stroke="black" stroke-width="0.283333" stroke-linecap="square"/>
<path d="M29.6309 27.3833V35.8833" stroke="black" stroke-width="0.283333" stroke-linecap="square"/>
<path d="M32.9453 27.3833V35.8833" stroke="black" stroke-width="0.283333" stroke-linecap="square"/>
<path d="M36.2617 27.3833V35.8833" stroke="black" stroke-width="0.283333" stroke-linecap="square"/>
<path d="M39.5762 27.3833V35.8833" stroke="black" stroke-width="0.283333" stroke-linecap="square"/>
<path d="M3.875 30.7833V28.5166C3.875 27.8907 4.38241 27.3833 5.00833 27.3833H40.9917C41.6176 27.3833 42.125 27.8907 42.125 28.5166V30.7833" stroke="#F7941D" stroke-width="0.283333" stroke-linecap="square"/>
<path d="M3.875 32.4833V34.75C3.875 35.3759 4.38241 35.8833 5.00833 35.8833H40.9917C41.6176 35.8833 42.125 35.3759 42.125 34.75V32.4833" stroke="#F7941D" stroke-width="0.283333" stroke-linecap="square"/>
<path d="M6.56641 31.4917L7.13307 31.8189V31.1645L6.56641 31.4917ZM9.54141 31.4917L8.97474 31.1645V31.8189L9.54141 31.4917ZM7.07641 31.4917V31.5484H9.03141V31.4917V31.435H7.07641V31.4917Z" fill="black"/>
<path d="M23.5649 39.9052V40.15H22.4587V38.5362H22.7443V39.9052H23.5649Z" fill="black"/>
<rect x="2.26624" y="5.94044" width="14.8357" height="14.8357" stroke="black" stroke-width="0.18092"/>
<rect x="3.26038" y="6.93543" width="12.8456" height="12.8456" rx="1.3569" stroke="#F7941D" stroke-width="0.18092"/>
<circle cx="4.97955" cy="8.65411" r="0.723695" fill="#F7941D"/>
<circle cx="9.6983" cy="8.65411" r="0.723695" fill="#F7941D"/>
<circle cx="4.97955" cy="18.0622" r="0.723695" fill="#F7941D"/>
<circle cx="9.6983" cy="18.0622" r="0.723695" fill="#F7941D"/>
<circle cx="14.3878" cy="8.65411" r="0.723695" fill="#F7941D"/>
<circle cx="14.3878" cy="18.0622" r="0.723695" fill="#F7941D"/>
<path d="M4.25535 10.0111C2.44612 7.16158 4.02844 6.07605 6.33568 8.2019" stroke="#B02E0C" stroke-width="0.147132" stroke-linecap="round"/>
<path d="M3.30859 13.2167L3.87526 13.5438V12.8895L3.30859 13.2167ZM3.81859 13.2167V13.2733H6.28359V13.2167V13.16H3.81859V13.2167Z" fill="black"/>
<path d="M8.96101 23.4333L9.53674 22.5969L9.00181 21.8195H9.33954L9.70674 22.3907L10.0898 21.8195H10.4071L9.87221 22.5969L10.4457 23.4333H10.1011L9.69768 22.8168L9.28741 23.4333H8.96101Z" fill="black"/>
<path d="M19.5257 12.7528L18.9182 13.7252V14.3667H18.6394V13.7252L18.0297 12.7528H18.3561L18.7845 13.4668L19.2083 12.7528H19.5257Z" fill="black"/>
<path d="M6.83478 12.4396H7.40768C7.52668 12.4396 7.62528 12.4668 7.70178 12.5212C7.77658 12.5756 7.81568 12.6606 7.81568 12.7762C7.81568 12.8493 7.79698 12.9122 7.76298 12.9632C7.72728 13.0142 7.67798 13.0516 7.61508 13.0737C7.64398 13.0805 7.66948 13.0907 7.69158 13.1043C7.71198 13.1179 7.72898 13.1332 7.74088 13.1485C7.75278 13.1655 7.76298 13.1859 7.77148 13.2097C7.77828 13.2352 7.78338 13.2573 7.78678 13.276C7.79018 13.2947 7.79188 13.3185 7.79528 13.3491C7.79528 13.3576 7.79698 13.3729 7.79868 13.395C7.80038 13.4188 7.80208 13.4341 7.80208 13.4409C7.80208 13.4477 7.80378 13.4613 7.80548 13.4783C7.80718 13.497 7.80888 13.5106 7.81058 13.5174C7.81058 13.5242 7.81228 13.5361 7.81568 13.5497C7.81908 13.5633 7.82078 13.5752 7.82418 13.582C7.82588 13.5888 7.82928 13.5973 7.83268 13.6075C7.83608 13.6177 7.83948 13.6245 7.84458 13.6313C7.84798 13.6381 7.85308 13.6449 7.85988 13.65H7.63208C7.62868 13.6466 7.62528 13.6415 7.62188 13.6347C7.61848 13.6279 7.61678 13.6211 7.61508 13.6143C7.61168 13.6075 7.60998 13.6007 7.60998 13.5939C7.60828 13.5871 7.60658 13.5786 7.60488 13.5684C7.60318 13.5582 7.60318 13.548 7.60318 13.5412L7.59978 13.5106L7.59638 13.48C7.59638 13.4732 7.59468 13.4613 7.59468 13.4443C7.59298 13.4273 7.59298 13.4154 7.59298 13.4086C7.58618 13.31 7.56578 13.2437 7.53008 13.2063C7.49438 13.1689 7.42638 13.1502 7.32778 13.1502H7.04558V13.65H6.83478V12.4396ZM7.04558 12.613V12.9921H7.32608C7.36688 12.9921 7.40088 12.9904 7.42978 12.9853C7.45698 12.9819 7.48588 12.9734 7.51478 12.9615C7.54368 12.9496 7.56578 12.9292 7.58108 12.902C7.59638 12.8748 7.60488 12.8408 7.60488 12.7983C7.60488 12.7609 7.59808 12.7286 7.58448 12.7031C7.57088 12.6776 7.55048 12.6589 7.52498 12.6453C7.49948 12.6334 7.47398 12.6249 7.44678 12.6198C7.41958 12.6164 7.38898 12.613 7.35328 12.613H7.04558Z" fill="black"/>
<path d="M13.3521 9.60625H13.8128C13.8961 9.60625 13.9692 9.61645 14.0338 9.63345C14.0967 9.65045 14.1545 9.68275 14.2089 9.73035C14.3279 9.83745 14.3874 9.99045 14.3874 10.1911C14.3874 10.4053 14.3296 10.5702 14.2174 10.6824C14.1664 10.7334 14.112 10.7674 14.0542 10.7878C13.9964 10.8082 13.9199 10.8167 13.8247 10.8167H13.3521V9.60625ZM13.5629 9.78645V10.6382H13.8128C13.9454 10.6382 14.0389 10.6008 14.0933 10.5226C14.1477 10.4461 14.1749 10.339 14.1749 10.2013C14.1749 10.0721 14.1443 9.97005 14.0831 9.89695C14.0219 9.82385 13.9267 9.78645 13.7992 9.78645H13.5629ZM15.0924 9.61985V10.8167H14.885V9.99385H14.5892V9.85105C14.7949 9.85105 14.9105 9.77455 14.936 9.61985H15.0924Z" fill="black"/>
<path d="M13.3521 15.5562H13.8128C13.8961 15.5562 13.9692 15.5664 14.0338 15.5834C14.0967 15.6004 14.1545 15.6327 14.2089 15.6803C14.3279 15.7874 14.3874 15.9404 14.3874 16.141C14.3874 16.3552 14.3296 16.5201 14.2174 16.6323C14.1664 16.6833 14.112 16.7173 14.0542 16.7377C13.9964 16.7581 13.9199 16.7666 13.8247 16.7666H13.3521V15.5562ZM13.5629 15.7364V16.5881H13.8128C13.9454 16.5881 14.0389 16.5507 14.0933 16.4725C14.1477 16.396 14.1749 16.2889 14.1749 16.1512C14.1749 16.022 14.1443 15.92 14.0831 15.8469C14.0219 15.7738 13.9267 15.7364 13.7992 15.7364H13.5629ZM15.3032 16.5949V16.7666H14.4906C14.4906 16.7139 14.4991 16.6646 14.5127 16.6204C14.5263 16.5762 14.5416 16.5388 14.5586 16.5082C14.5756 16.4776 14.6028 16.4453 14.6368 16.413C14.6708 16.3807 14.7031 16.3535 14.7303 16.3331C14.7575 16.3127 14.7966 16.2855 14.8459 16.2515C14.8493 16.2498 14.8646 16.2396 14.8952 16.2192C14.9258 16.1988 14.9445 16.1869 14.9513 16.1818C14.9581 16.1767 14.9734 16.1648 14.9972 16.1461C15.021 16.1274 15.0363 16.1121 15.0431 16.1002C15.0499 16.09 15.0601 16.0747 15.0737 16.0543C15.0873 16.0356 15.0958 16.0169 15.1009 15.9965C15.1043 15.9761 15.1077 15.9557 15.1077 15.9319C15.1077 15.8707 15.089 15.8214 15.055 15.7857C15.021 15.75 14.9734 15.7313 14.9156 15.7313C14.8816 15.7313 14.851 15.7381 14.8272 15.7483C14.8017 15.7585 14.7813 15.7721 14.7677 15.7891C14.7541 15.8061 14.7422 15.8282 14.7337 15.8554C14.7235 15.8826 14.7184 15.9064 14.715 15.9302C14.7116 15.954 14.7099 15.9829 14.7099 16.0135H14.5212V15.9829C14.5212 15.8554 14.5569 15.7534 14.6283 15.6786C14.6997 15.6038 14.7983 15.5647 14.9207 15.5647C15.0363 15.5647 15.1281 15.5987 15.1995 15.6633C15.2692 15.7279 15.3049 15.8146 15.3049 15.9217C15.3049 15.9659 15.2981 16.0067 15.2845 16.0441C15.2709 16.0832 15.2556 16.1138 15.2403 16.1376C15.225 16.1614 15.1995 16.1903 15.1621 16.2209C15.1247 16.2532 15.0958 16.2753 15.0788 16.2872C15.0601 16.3008 15.0261 16.3229 14.9785 16.3552C14.8357 16.447 14.7507 16.5269 14.7235 16.5949H15.3032Z" fill="black"/>
<path d="M30.3514 12.1627H29.9151C29.8675 11.9088 29.7247 11.7819 29.4946 11.7819C29.4272 11.7819 29.3677 11.7977 29.3121 11.8215C29.2566 11.8493 29.209 11.881 29.1733 11.9128C29.1336 11.9485 29.1019 12 29.0741 12.0635C29.0424 12.127 29.0226 12.1825 29.0067 12.2261C28.9908 12.2698 28.9789 12.3332 28.9631 12.4126C28.9472 12.4959 28.9393 12.5514 28.9393 12.5831C28.9353 12.6149 28.9313 12.6704 28.9234 12.7418C29.0741 12.5157 29.2883 12.4007 29.5581 12.4007C29.8119 12.4007 30.0182 12.4879 30.1769 12.6545C30.3355 12.8251 30.4149 13.0472 30.4149 13.317C30.4149 13.6026 30.3236 13.8326 30.1491 14.0151C29.9746 14.1976 29.7485 14.2888 29.4787 14.2888C29.1574 14.2888 28.9115 14.1698 28.7409 13.9278C28.5664 13.6898 28.4831 13.3447 28.4831 12.8965C28.4831 12.4364 28.5743 12.0754 28.7568 11.8136C28.9393 11.5558 29.1892 11.4249 29.5144 11.4249C29.7485 11.4249 29.9389 11.4923 30.0896 11.6192C30.2364 11.7501 30.3236 11.9326 30.3514 12.1627ZM29.4668 12.7616C29.3161 12.7616 29.2011 12.8132 29.1138 12.9163C29.0265 13.0195 28.9829 13.1543 28.9829 13.3209C28.9829 13.4994 29.0265 13.6422 29.1178 13.7493C29.209 13.8604 29.328 13.912 29.4787 13.912C29.6215 13.912 29.7405 13.8604 29.8278 13.7533C29.9151 13.6502 29.9627 13.5074 29.9627 13.3328C29.9627 13.1623 29.9151 13.0234 29.8278 12.9203C29.7366 12.8172 29.6176 12.7616 29.4668 12.7616ZM31.942 11.409H33.2312C33.5247 11.409 33.7508 11.4764 33.9095 11.6034C34.0681 11.7303 34.1475 11.9048 34.1475 12.119C34.1475 12.2539 34.1078 12.3769 34.0364 12.484C33.961 12.5911 33.8619 12.6664 33.7429 12.714C33.9055 12.7537 34.0364 12.833 34.1316 12.952C34.2268 13.071 34.2744 13.2218 34.2744 13.4003C34.2744 13.6502 34.1911 13.8525 34.0245 14.0032C33.8579 14.1579 33.6437 14.2333 33.3819 14.2333H31.942V11.409ZM32.4259 11.8096V12.5871H33.1003C33.2907 12.5871 33.4295 12.5593 33.5207 12.4998C33.608 12.4403 33.6556 12.3412 33.6556 12.1984C33.6556 12.0397 33.608 11.9366 33.5128 11.885C33.4176 11.8374 33.2867 11.8096 33.1161 11.8096H32.4259ZM32.4259 12.9441V13.8287H33.1677C33.3581 13.8287 33.5049 13.7969 33.6159 13.7335C33.723 13.67 33.7786 13.555 33.7786 13.3884C33.7786 13.2971 33.7587 13.2218 33.727 13.1583C33.6953 13.0948 33.6477 13.0512 33.5842 13.0195C33.5207 12.9917 33.4573 12.9719 33.3938 12.96C33.3264 12.952 33.247 12.9441 33.1598 12.9441H32.4259ZM34.6596 12.8172C34.7072 12.357 35.0047 12.123 35.556 12.123C35.8099 12.123 36.0162 12.1746 36.1669 12.2737C36.3176 12.3769 36.397 12.5316 36.397 12.7418V13.7811C36.397 13.8406 36.4009 13.8802 36.4168 13.9001C36.4327 13.9239 36.4604 13.9318 36.5041 13.9318C36.5358 13.9318 36.5675 13.9318 36.6072 13.9239V14.2412C36.4882 14.2729 36.393 14.2848 36.3137 14.2848C36.1193 14.2848 36.0082 14.2055 35.9805 14.0389C35.8059 14.2055 35.5679 14.2848 35.2625 14.2848C35.0483 14.2848 34.8817 14.2333 34.7587 14.1222C34.6318 14.0111 34.5723 13.8644 34.5723 13.674C34.5723 13.6184 34.5763 13.5629 34.5921 13.5113C34.604 13.4637 34.6199 13.4201 34.6358 13.3804C34.6516 13.3447 34.6794 13.309 34.7191 13.2773C34.7587 13.2456 34.7905 13.2218 34.8143 13.198C34.8381 13.1781 34.8817 13.1583 34.9372 13.1385C34.9928 13.1226 35.0364 13.1067 35.0642 13.0988C35.0919 13.0909 35.1395 13.079 35.2109 13.0671C35.2784 13.0591 35.322 13.0512 35.3458 13.0472C35.3696 13.0433 35.4172 13.0353 35.4886 13.0274C35.6473 13.0076 35.7583 12.9917 35.8178 12.9758C35.8734 12.96 35.913 12.9401 35.9368 12.9084C35.9527 12.8886 35.9646 12.841 35.9646 12.7616C35.9646 12.5554 35.8218 12.4522 35.5441 12.4522C35.3934 12.4522 35.2863 12.48 35.2189 12.5355C35.1475 12.5911 35.1038 12.6863 35.088 12.8172H34.6596ZM35.9606 13.2059C35.9249 13.2257 35.8853 13.2416 35.8416 13.2575C35.794 13.2733 35.7583 13.2813 35.7306 13.2852C35.7028 13.2892 35.6592 13.2932 35.5997 13.3011C35.5402 13.309 35.5005 13.317 35.4846 13.317C35.4291 13.3249 35.3855 13.3328 35.3537 13.3408C35.322 13.3487 35.2823 13.3566 35.2347 13.3725C35.1871 13.3884 35.1514 13.4082 35.1276 13.432C35.1038 13.4558 35.08 13.4836 35.0642 13.5232C35.0443 13.5629 35.0364 13.6065 35.0364 13.6581C35.0364 13.7573 35.0681 13.8326 35.1316 13.8842C35.1951 13.9397 35.2863 13.9635 35.4053 13.9635C35.6036 13.9635 35.7583 13.912 35.8694 13.8009C35.9289 13.7414 35.9606 13.6224 35.9606 13.4479V13.2059ZM38.0418 12.1468V12.5792C37.9625 12.5712 37.9069 12.5673 37.8831 12.5673C37.4865 12.5673 37.2921 12.8251 37.2921 13.3328V14.2333H36.8439V12.1865H37.2683V12.595C37.4111 12.2936 37.6412 12.1389 37.9545 12.1389L38.0418 12.1468ZM28.7094 15.409H29.9986C30.2921 15.409 30.5182 15.4764 30.6769 15.6034C30.8355 15.7303 30.9149 15.9048 30.9149 16.119C30.9149 16.2539 30.8752 16.3769 30.8038 16.484C30.7284 16.5911 30.6293 16.6664 30.5103 16.714C30.6729 16.7537 30.8038 16.833 30.899 16.952C30.9942 17.071 31.0418 17.2218 31.0418 17.4003C31.0418 17.6502 30.9585 17.8525 30.7919 18.0032C30.6253 18.1579 30.4111 18.2333 30.1493 18.2333H28.7094V15.409ZM29.1933 15.8096V16.5871H29.8677C30.0581 16.5871 30.1969 16.5593 30.2881 16.4998C30.3754 16.4403 30.423 16.3412 30.423 16.1984C30.423 16.0397 30.3754 15.9366 30.2802 15.885C30.185 15.8374 30.0541 15.8096 29.8835 15.8096H29.1933ZM29.1933 16.9441V17.8287H29.9351C30.1255 17.8287 30.2723 17.7969 30.3833 17.7335C30.4904 17.67 30.546 17.555 30.546 17.3884C30.546 17.2971 30.5261 17.2218 30.4944 17.1583C30.4627 17.0948 30.4151 17.0512 30.3516 17.0195C30.2881 16.9917 30.2247 16.9719 30.1612 16.96C30.0938 16.952 30.0144 16.9441 29.9272 16.9441H29.1933ZM33.2794 17.5946C33.2278 17.8168 33.1168 17.9913 32.9502 18.1143C32.7836 18.2412 32.5813 18.3007 32.3512 18.3007C32.0418 18.3007 31.7959 18.2015 31.6134 18.0032C31.4309 17.8049 31.3437 17.547 31.3437 17.2337C31.3437 16.9163 31.4349 16.6506 31.6213 16.4403C31.8078 16.2341 32.0458 16.127 32.3353 16.127C32.6328 16.127 32.8708 16.2301 33.0454 16.4364C33.2199 16.6426 33.3072 16.9203 33.3072 17.2733V17.3209H31.7959C31.7998 17.5272 31.8514 17.6898 31.9506 17.8009C32.0458 17.912 32.1846 17.9675 32.3591 17.9675C32.4821 17.9675 32.5813 17.9397 32.6606 17.8802C32.7399 17.8207 32.7994 17.7255 32.847 17.5946H33.2794ZM32.855 17.0195C32.8391 16.8489 32.7875 16.714 32.6923 16.6149C32.5971 16.5157 32.4781 16.4641 32.3314 16.4641C32.1806 16.4641 32.0616 16.5117 31.9704 16.6069C31.8792 16.7021 31.8236 16.841 31.8038 17.0195H32.855ZM33.6311 16.8172C33.6787 16.357 33.9762 16.123 34.5276 16.123C34.7814 16.123 34.9877 16.1746 35.1384 16.2737C35.2892 16.3769 35.3685 16.5316 35.3685 16.7418V17.7811C35.3685 17.8406 35.3725 17.8802 35.3883 17.9001C35.4042 17.9239 35.432 17.9318 35.4756 17.9318C35.5073 17.9318 35.5391 17.9318 35.5787 17.9239V18.2412C35.4597 18.2729 35.3645 18.2848 35.2852 18.2848C35.0908 18.2848 34.9798 18.2055 34.952 18.0389C34.7775 18.2055 34.5395 18.2848 34.234 18.2848C34.0198 18.2848 33.8532 18.2333 33.7303 18.1222C33.6033 18.0111 33.5438 17.8644 33.5438 17.674C33.5438 17.6184 33.5478 17.5629 33.5637 17.5113C33.5756 17.4637 33.5914 17.4201 33.6073 17.3804C33.6232 17.3447 33.6509 17.309 33.6906 17.2773C33.7303 17.2456 33.762 17.2218 33.7858 17.198C33.8096 17.1781 33.8532 17.1583 33.9088 17.1385C33.9643 17.1226 34.0079 17.1067 34.0357 17.0988C34.0635 17.0909 34.1111 17.079 34.1825 17.0671C34.2499 17.0591 34.2935 17.0512 34.3173 17.0472C34.3411 17.0433 34.3887 17.0353 34.4601 17.0274C34.6188 17.0076 34.7299 16.9917 34.7894 16.9758C34.8449 16.96 34.8846 16.9401 34.9084 16.9084C34.9242 16.8886 34.9361 16.841 34.9361 16.7616C34.9361 16.5554 34.7933 16.4522 34.5157 16.4522C34.3649 16.4522 34.2578 16.48 34.1904 16.5355C34.119 16.5911 34.0754 16.6863 34.0595 16.8172H33.6311ZM34.9322 17.2059C34.8965 17.2257 34.8568 17.2416 34.8132 17.2575C34.7656 17.2733 34.7299 17.2813 34.7021 17.2852C34.6743 17.2892 34.6307 17.2932 34.5712 17.3011C34.5117 17.309 34.472 17.317 34.4562 17.317C34.4006 17.3249 34.357 17.3328 34.3253 17.3408C34.2935 17.3487 34.2539 17.3566 34.2063 17.3725C34.1587 17.3884 34.123 17.4082 34.0992 17.432C34.0754 17.4558 34.0516 17.4836 34.0357 17.5232C34.0159 17.5629 34.0079 17.6065 34.0079 17.6581C34.0079 17.7573 34.0397 17.8326 34.1031 17.8842C34.1666 17.9397 34.2578 17.9635 34.3768 17.9635C34.5752 17.9635 34.7299 17.912 34.8409 17.8009C34.9004 17.7414 34.9322 17.6224 34.9322 17.4479V17.2059ZM36.2874 16.1865V16.476C36.454 16.246 36.6682 16.1309 36.93 16.1309C37.0649 16.1309 37.1799 16.1627 37.2791 16.2222C37.3783 16.2856 37.4536 16.3689 37.5012 16.48C37.6639 16.2499 37.886 16.1309 38.1637 16.1309C38.3541 16.1309 38.5167 16.1904 38.6436 16.3055C38.7706 16.4205 38.834 16.5792 38.834 16.7815V18.2333H38.3818V16.9758C38.3818 16.833 38.3541 16.718 38.3065 16.6347C38.2549 16.5554 38.1597 16.5117 38.0169 16.5117C37.8701 16.5117 37.7591 16.5593 37.6837 16.6506C37.6044 16.7418 37.5687 16.8687 37.5687 17.0314V18.2333H37.1165V16.952C37.1165 16.8092 37.0927 16.6982 37.049 16.6228C37.0054 16.5514 36.9142 16.5117 36.7793 16.5117C36.6246 16.5117 36.5096 16.5633 36.4302 16.6625C36.3509 16.7616 36.3112 16.8925 36.3112 17.0552V18.2333H35.859V16.1865H36.2874Z" fill="black"/>
<path d="M8.55649 29.7966H8.35419C8.34059 29.6555 8.25389 29.5841 8.09069 29.5841C8.01759 29.5841 7.96149 29.5994 7.92069 29.63C7.87989 29.6606 7.85949 29.7014 7.85949 29.7524C7.85949 29.8017 7.87309 29.8357 7.90369 29.8527C7.93429 29.8714 8.00059 29.8935 8.10429 29.919C8.13149 29.9275 8.15189 29.9326 8.16719 29.936C8.30149 29.97 8.39329 30.0006 8.44259 30.0278C8.54969 30.0856 8.60409 30.1757 8.60409 30.2981C8.60409 30.3525 8.59389 30.4001 8.57689 30.4426C8.55819 30.4868 8.53439 30.5225 8.50379 30.5514C8.47319 30.5803 8.43579 30.6041 8.39499 30.6228C8.35249 30.6432 8.30829 30.6568 8.26409 30.6653C8.21819 30.6738 8.17059 30.6772 8.12299 30.6772C7.96999 30.6772 7.84759 30.6415 7.75409 30.5684C7.65889 30.497 7.61299 30.3899 7.61299 30.2488H7.82209C7.82209 30.3372 7.85099 30.4035 7.90879 30.446C7.96659 30.4885 8.04139 30.5089 8.13489 30.5089C8.21649 30.5089 8.27939 30.4936 8.32529 30.4596C8.37119 30.4256 8.39499 30.3797 8.39499 30.3185C8.39499 30.2811 8.38139 30.2488 8.35759 30.225C8.33379 30.2012 8.30659 30.1825 8.27939 30.1723C8.25049 30.1621 8.20119 30.1485 8.13149 30.1298C8.12299 30.1281 8.11619 30.1264 8.11279 30.1247C7.96149 30.0873 7.86289 30.055 7.81529 30.0295C7.71669 29.9785 7.66399 29.9003 7.65719 29.7932V29.7694C7.65719 29.6623 7.69629 29.5773 7.77789 29.5127C7.85949 29.4481 7.96829 29.4158 8.10429 29.4158C8.23519 29.4158 8.34229 29.4481 8.42559 29.5093C8.50719 29.5722 8.55139 29.6674 8.55649 29.7966Z" fill="black"/>
</svg>
