<svg width="46" height="46" viewBox="0 0 46 46" fill="none" xmlns="http://www.w3.org/2000/svg">
<rect width="46" height="46" rx="11.3448" fill="#F3F3F3"/>
<rect x="0.405172" y="0.405172" width="45.1897" height="45.1897" rx="10.9397" stroke="#B02E0C" stroke-opacity="0.04" stroke-width="0.810345"/>
<rect x="2.11005" y="25.8149" width="41.2584" height="11.5863" stroke="black" stroke-width="0.282592"/>
<path d="M6.20703 27.3691V35.8469" stroke="black" stroke-width="0.282592" stroke-linecap="square"/>
<path d="M9.51367 27.3691V35.8469" stroke="black" stroke-width="0.282592" stroke-linecap="square"/>
<path d="M12.8203 27.3691V35.8469" stroke="black" stroke-width="0.282592" stroke-linecap="square"/>
<path d="M16.127 27.3691V35.8469" stroke="black" stroke-width="0.282592" stroke-linecap="square"/>
<path d="M19.4336 27.3691V35.8469" stroke="black" stroke-width="0.282592" stroke-linecap="square"/>
<path d="M22.7383 27.3691V35.8469" stroke="black" stroke-width="0.282592" stroke-linecap="square"/>
<path d="M26.0449 27.3691V35.8469" stroke="black" stroke-width="0.282592" stroke-linecap="square"/>
<path d="M29.3516 27.3691V35.8469" stroke="black" stroke-width="0.282592" stroke-linecap="square"/>
<path d="M32.6582 27.3691V35.8469" stroke="black" stroke-width="0.282592" stroke-linecap="square"/>
<path d="M35.9648 27.3691V35.8469" stroke="black" stroke-width="0.282592" stroke-linecap="square"/>
<path d="M39.2715 27.3691V35.8469" stroke="black" stroke-width="0.282592" stroke-linecap="square"/>
<path d="M3.66602 30.76V28.4993C3.66602 27.875 4.1721 27.3689 4.79638 27.3689H40.6856C41.3098 27.3689 41.8159 27.875 41.8159 28.4993V30.76" stroke="#F7941D" stroke-width="0.282592" stroke-linecap="square"/>
<path d="M3.66602 32.4556V34.7163C3.66602 35.3406 4.1721 35.8467 4.79638 35.8467H40.6856C41.3098 35.8467 41.8159 35.3406 41.8159 34.7163V32.4556" stroke="#F7941D" stroke-width="0.282592" stroke-linecap="square"/>
<path d="M6.34961 31.467L6.91479 31.7934V31.1407L6.34961 31.467ZM9.31682 31.467L8.75164 31.1407V31.7934L9.31682 31.467ZM6.85827 31.467V31.5236H8.80816V31.467V31.4105H6.85827V31.467Z" fill="black"/>
<path d="M23.3037 39.8636V40.1078H22.2005V38.4981H22.4854V39.8636H23.3037Z" fill="black"/>
<rect x="2.05897" y="5.98231" width="14.7969" height="14.7969" stroke="black" stroke-width="0.180447"/>
<rect x="3.05311" y="6.97487" width="12.812" height="12.812" rx="1.35335" stroke="#F7941D" stroke-width="0.180447"/>
<circle cx="4.76672" cy="8.68921" r="0.721801" fill="#F7941D"/>
<circle cx="4.76672" cy="18.0721" r="0.721801" fill="#F7941D"/>
<circle cx="9.59839" cy="18.0433" r="0.565184" fill="#B02E0C"/>
<circle cx="14.1495" cy="8.68921" r="0.721801" fill="#F7941D"/>
<circle cx="14.1495" cy="18.0721" r="0.721801" fill="#F7941D"/>
<path d="M4.04432 10.042C2.23981 7.19996 3.81799 6.11727 6.1192 8.23756" stroke="#B02E0C" stroke-width="0.146747" stroke-linecap="round"/>
<path d="M8.73839 23.4347L9.31262 22.6005L8.77908 21.825H9.11593L9.48217 22.3948L9.86424 21.825H10.1807L9.6472 22.6005L10.2192 23.4347H9.87554L9.47313 22.8198L9.06393 23.4347H8.73839Z" fill="black"/>
<path d="M19.2757 12.7824L18.6698 13.7523V14.3921H18.3918V13.7523L17.7836 12.7824H18.1092L18.5364 13.4946L18.9592 12.7824H19.2757Z" fill="black"/>
<path d="M3.09961 12.1093L3.66479 12.4356V11.7829L3.09961 12.1093ZM3.60827 12.1093V12.1658H6.06682V12.1093V12.0527H3.60827V12.1093Z" fill="black"/>
<path d="M6.61571 11.3372H7.18711C7.30579 11.3372 7.40414 11.3643 7.48044 11.4186C7.55504 11.4728 7.59404 11.5576 7.59404 11.6729C7.59404 11.7458 7.57539 11.8086 7.54148 11.8594C7.50587 11.9103 7.4567 11.9476 7.39396 11.9696C7.42279 11.9764 7.44822 11.9866 7.47026 12.0002C7.49061 12.0137 7.50757 12.029 7.51943 12.0442C7.5313 12.0612 7.54148 12.0815 7.54995 12.1053C7.55674 12.1307 7.56182 12.1528 7.56521 12.1714C7.56861 12.1901 7.5703 12.2138 7.57369 12.2443C7.57369 12.2528 7.57539 12.2681 7.57708 12.2901C7.57878 12.3138 7.58047 12.3291 7.58047 12.3359C7.58047 12.3427 7.58217 12.3562 7.58387 12.3732C7.58556 12.3918 7.58726 12.4054 7.58895 12.4122C7.58895 12.419 7.59065 12.4308 7.59404 12.4444C7.59743 12.458 7.59913 12.4698 7.60252 12.4766C7.60421 12.4834 7.6076 12.4919 7.61099 12.502C7.61439 12.5122 7.61778 12.519 7.62286 12.5258C7.62625 12.5326 7.63134 12.5393 7.63812 12.5444H7.41092C7.40753 12.541 7.40414 12.536 7.40075 12.5292C7.39735 12.5224 7.39566 12.5156 7.39396 12.5088C7.39057 12.502 7.38888 12.4953 7.38888 12.4885C7.38718 12.4817 7.38549 12.4732 7.38379 12.463C7.38209 12.4529 7.38209 12.4427 7.38209 12.4359L7.3787 12.4054L7.37531 12.3749C7.37531 12.3681 7.37362 12.3562 7.37362 12.3393C7.37192 12.3223 7.37192 12.3104 7.37192 12.3037C7.36514 12.2053 7.34479 12.1392 7.30919 12.1019C7.27358 12.0646 7.20576 12.0459 7.10742 12.0459H6.82595V12.5444H6.61571V11.3372ZM6.82595 11.5101V11.8883H7.10572C7.14641 11.8883 7.18032 11.8866 7.20915 11.8815C7.23628 11.8781 7.2651 11.8696 7.29393 11.8577C7.32275 11.8459 7.34479 11.8255 7.36005 11.7984C7.37531 11.7713 7.38379 11.7374 7.38379 11.695C7.38379 11.6577 7.37701 11.6254 7.36344 11.6C7.34988 11.5746 7.32953 11.5559 7.3041 11.5424C7.27867 11.5305 7.25323 11.522 7.2261 11.5169C7.19897 11.5135 7.16846 11.5101 7.13285 11.5101H6.82595Z" fill="black"/>
<path d="M13.1174 9.64128H13.5769C13.66 9.64128 13.7329 9.65145 13.7973 9.66841C13.8601 9.68536 13.9177 9.71758 13.972 9.76505C14.0906 9.87187 14.15 10.0245 14.15 10.2245C14.15 10.4382 14.0923 10.6027 13.9804 10.7146C13.9296 10.7654 13.8753 10.7993 13.8177 10.8197C13.76 10.84 13.6837 10.8485 13.5888 10.8485H13.1174V9.64128ZM13.3276 9.82101V10.6705H13.5769C13.7091 10.6705 13.8024 10.6332 13.8567 10.5552C13.9109 10.4789 13.938 10.3721 13.938 10.2347C13.938 10.1059 13.9075 10.0041 13.8465 9.93122C13.7854 9.85831 13.6905 9.82101 13.5633 9.82101H13.3276ZM14.8531 9.65484V10.8485H14.6462V10.0279H14.3512V9.88544C14.5564 9.88544 14.6717 9.80914 14.6971 9.65484H14.8531Z" fill="black"/>
<path d="M13.1174 15.5756H13.5769C13.66 15.5756 13.7329 15.5858 13.7973 15.6027C13.8601 15.6197 13.9177 15.6519 13.972 15.6994C14.0906 15.8062 14.15 15.9588 14.15 16.1589C14.15 16.3725 14.0923 16.537 13.9804 16.6489C13.9296 16.6998 13.8753 16.7337 13.8177 16.754C13.76 16.7744 13.6837 16.7828 13.5888 16.7828H13.1174V15.5756ZM13.3276 15.7553V16.6048H13.5769C13.7091 16.6048 13.8024 16.5675 13.8567 16.4895C13.9109 16.4132 13.938 16.3064 13.938 16.169C13.938 16.0402 13.9075 15.9385 13.8465 15.8655C13.7854 15.7926 13.6905 15.7553 13.5633 15.7553H13.3276ZM15.0634 16.6116V16.7828H14.2529C14.2529 16.7303 14.2614 16.6811 14.2749 16.637C14.2885 16.5929 14.3037 16.5556 14.3207 16.5251C14.3377 16.4946 14.3648 16.4624 14.3987 16.4302C14.4326 16.3979 14.4648 16.3708 14.492 16.3505C14.5191 16.3301 14.5581 16.303 14.6072 16.2691C14.6106 16.2674 14.6259 16.2572 14.6564 16.2369C14.6869 16.2165 14.7056 16.2047 14.7124 16.1996C14.7192 16.1945 14.7344 16.1826 14.7582 16.164C14.7819 16.1453 14.7971 16.13 14.8039 16.1182C14.8107 16.108 14.8209 16.0927 14.8345 16.0724C14.848 16.0537 14.8565 16.0351 14.8616 16.0148C14.865 15.9944 14.8684 15.9741 14.8684 15.9503C14.8684 15.8893 14.8497 15.8401 14.8158 15.8045C14.7819 15.7689 14.7344 15.7502 14.6768 15.7502C14.6429 15.7502 14.6123 15.757 14.5886 15.7672C14.5632 15.7774 14.5428 15.7909 14.5293 15.8079C14.5157 15.8249 14.5038 15.8469 14.4953 15.874C14.4852 15.9011 14.4801 15.9249 14.4767 15.9486C14.4733 15.9724 14.4716 16.0012 14.4716 16.0317H14.2834V16.0012C14.2834 15.874 14.319 15.7723 14.3902 15.6977C14.4614 15.6231 14.5598 15.5841 14.6819 15.5841C14.7971 15.5841 14.8887 15.618 14.9599 15.6824C15.0294 15.7469 15.065 15.8333 15.065 15.9401C15.065 15.9842 15.0583 16.0249 15.0447 16.0622C15.0311 16.1012 15.0159 16.1317 15.0006 16.1555C14.9854 16.1792 14.9599 16.208 14.9226 16.2386C14.8853 16.2708 14.8565 16.2928 14.8395 16.3047C14.8209 16.3183 14.787 16.3403 14.7395 16.3725C14.5971 16.4641 14.5123 16.5438 14.4852 16.6116H15.0634Z" fill="black"/>
<path d="M8.59592 15.5756H9.05541C9.13849 15.5756 9.2114 15.5858 9.27583 15.6027C9.33857 15.6197 9.39622 15.6519 9.45047 15.6994C9.56916 15.8062 9.62851 15.9588 9.62851 16.1589C9.62851 16.3725 9.57086 16.537 9.45895 16.6489C9.40809 16.6998 9.35383 16.7337 9.29618 16.754C9.23853 16.7744 9.16223 16.7828 9.06728 16.7828H8.59592V15.5756ZM8.80616 15.7553V16.6048H9.05541C9.18766 16.6048 9.28092 16.5675 9.33518 16.4895C9.38943 16.4132 9.41656 16.3064 9.41656 16.169C9.41656 16.0402 9.38604 15.9385 9.325 15.8655C9.26396 15.7926 9.16901 15.7553 9.04185 15.7553H8.80616ZM9.767 15.9774C9.77039 15.8554 9.806 15.7604 9.87551 15.6892C9.94334 15.6197 10.0366 15.5841 10.1536 15.5841C10.2621 15.5841 10.352 15.6146 10.4198 15.6723C10.4876 15.7316 10.5215 15.8079 10.5215 15.9028C10.5215 15.9605 10.5063 16.0114 10.4757 16.0554C10.4452 16.0995 10.4062 16.1284 10.3554 16.1453C10.4215 16.1623 10.474 16.1962 10.513 16.2453C10.5503 16.2945 10.5707 16.3539 10.5707 16.4251C10.5707 16.5387 10.5317 16.6302 10.4537 16.7015C10.3757 16.7727 10.274 16.8083 10.1502 16.8083C10.0264 16.8083 9.92638 16.7727 9.85178 16.7015C9.77548 16.6302 9.73818 16.537 9.73818 16.4183V16.3929H9.92469C9.92977 16.559 10.0061 16.6421 10.1553 16.6421C10.2197 16.6421 10.2723 16.6235 10.3113 16.5862C10.3486 16.5489 10.3689 16.4963 10.3689 16.4302C10.3689 16.3623 10.3469 16.3115 10.3028 16.2793C10.2587 16.2487 10.2011 16.2318 10.1315 16.2318C10.1095 16.2318 10.0892 16.2335 10.0705 16.2335V16.0877H10.0875C10.1214 16.0877 10.1519 16.086 10.1773 16.0826C10.2011 16.0792 10.2265 16.0707 10.2519 16.0605C10.2774 16.0504 10.2977 16.0317 10.3113 16.008C10.3248 15.9842 10.3316 15.9537 10.3316 15.9164C10.3316 15.8655 10.3147 15.8232 10.2824 15.7909C10.2485 15.7604 10.2045 15.7435 10.1502 15.7435C10.023 15.7435 9.9569 15.8215 9.95181 15.9774H9.767Z" fill="black"/>
<path d="M26.9038 10.3458V13.131H26.4212V11.2161H25.7328V10.8838C26.2115 10.8838 26.4805 10.7058 26.5399 10.3458H26.9038ZM31.4219 12.0588C31.3942 12.407 31.2715 12.6839 31.05 12.8896C30.8284 13.0954 30.5436 13.1982 30.1954 13.1982C29.7958 13.1982 29.4754 13.0637 29.238 12.7947C28.9967 12.5257 28.878 12.1696 28.878 11.7225C28.878 11.4535 28.9294 11.2122 29.0323 10.9906C29.1351 10.7691 29.2894 10.591 29.4952 10.4565C29.7009 10.322 29.9422 10.2508 30.2192 10.2508C30.5159 10.2508 30.777 10.3339 30.9985 10.5001C31.2201 10.6662 31.3507 10.9036 31.3981 11.2122H30.9075C30.8719 11.046 30.7928 10.9115 30.6702 10.8166C30.5436 10.7216 30.3932 10.6702 30.2112 10.6702C30.0213 10.6702 29.8631 10.7256 29.7325 10.8284C29.602 10.9352 29.511 11.0658 29.4556 11.2201C29.4002 11.3744 29.3765 11.5406 29.3765 11.7225C29.3765 11.861 29.3923 11.9916 29.4239 12.1103C29.4556 12.2329 29.5031 12.3437 29.5664 12.4465C29.6297 12.5494 29.7128 12.6285 29.8235 12.6879C29.9343 12.7512 30.0609 12.7789 30.2073 12.7789C30.6267 12.7789 30.864 12.5415 30.9273 12.0588H31.4219ZM33.5966 11.0895V13.131H33.1732V12.8263C32.9992 13.0677 32.7776 13.1864 32.5007 13.1864C32.2752 13.1864 32.1011 13.1231 31.9824 12.9965C31.8637 12.8699 31.8044 12.6839 31.8044 12.4426V11.0895H32.2554V12.2566C32.2554 12.3279 32.2554 12.3872 32.2593 12.4307C32.2593 12.4742 32.2672 12.5217 32.2831 12.5771C32.2989 12.6325 32.3187 12.6721 32.3464 12.6997C32.3741 12.7314 32.4136 12.7551 32.4651 12.7749C32.5165 12.7987 32.5798 12.8066 32.655 12.8066C32.8211 12.8066 32.9477 12.7472 33.0269 12.6285C33.106 12.5098 33.1455 12.3555 33.1455 12.1696V11.0895H33.5966ZM35.2314 11.05V11.4812C35.1522 11.4733 35.0969 11.4693 35.0731 11.4693C34.6775 11.4693 34.4836 11.7265 34.4836 12.2329V13.131H34.0366V11.0895H34.4599V11.497C34.6023 11.1964 34.8318 11.0421 35.1443 11.0421L35.2314 11.05ZM36.464 11.0895V11.4179H36.0525V12.494C36.0525 12.5573 36.0525 12.6048 36.0565 12.6285C36.0565 12.6523 36.0644 12.68 36.0802 12.7116C36.0921 12.7433 36.1158 12.763 36.1475 12.771C36.1791 12.7828 36.2266 12.7868 36.286 12.7868C36.3572 12.7868 36.4165 12.7868 36.464 12.7789V13.1349C36.373 13.1468 36.2701 13.1508 36.1594 13.1508C36.0802 13.1508 36.009 13.1468 35.9497 13.1349C35.8903 13.1231 35.8429 13.1072 35.8033 13.0914C35.7637 13.0756 35.7281 13.0519 35.7044 13.0123C35.6767 12.9727 35.6569 12.9411 35.6411 12.9173C35.6253 12.8936 35.6174 12.8461 35.6094 12.7828C35.6015 12.7195 35.6015 12.6721 35.6015 12.6404V12.4663V12.4426V12.4188V12.3912V11.4179H35.2613V11.0895H35.6015V10.4763H36.0525V11.0895H36.464ZM36.7647 11.7186C36.8122 11.2597 37.1089 11.0262 37.6588 11.0262C37.912 11.0262 38.1178 11.0777 38.2681 11.1766C38.4184 11.2794 38.4976 11.4337 38.4976 11.6434V12.68C38.4976 12.7393 38.5015 12.7789 38.5173 12.7987C38.5332 12.8224 38.5609 12.8303 38.6044 12.8303C38.636 12.8303 38.6677 12.8303 38.7072 12.8224V13.1389C38.5886 13.1705 38.4936 13.1824 38.4145 13.1824C38.2206 13.1824 38.1098 13.1033 38.0822 12.9371C37.9081 13.1033 37.6707 13.1824 37.3661 13.1824C37.1524 13.1824 36.9863 13.131 36.8636 13.0202C36.737 12.9094 36.6777 12.763 36.6777 12.5731C36.6777 12.5178 36.6816 12.4624 36.6975 12.4109C36.7093 12.3635 36.7251 12.3199 36.741 12.2804C36.7568 12.2448 36.7845 12.2092 36.8241 12.1775C36.8636 12.1459 36.8953 12.1221 36.919 12.0984C36.9427 12.0786 36.9863 12.0588 37.0416 12.039C37.097 12.0232 37.1406 12.0074 37.1682 11.9995C37.1959 11.9916 37.2434 11.9797 37.3146 11.9678C37.3819 11.9599 37.4254 11.952 37.4491 11.9481C37.4729 11.9441 37.5204 11.9362 37.5916 11.9283C37.7498 11.9085 37.8606 11.8927 37.9199 11.8768C37.9753 11.861 38.0149 11.8412 38.0386 11.8096C38.0545 11.7898 38.0663 11.7423 38.0663 11.6632C38.0663 11.4575 37.9239 11.3546 37.647 11.3546C37.4966 11.3546 37.3898 11.3823 37.3225 11.4377C37.2513 11.4931 37.2078 11.588 37.192 11.7186H36.7647ZM38.0624 12.1063C38.0268 12.1261 37.9872 12.1419 37.9437 12.1577C37.8962 12.1736 37.8606 12.1815 37.8329 12.1854C37.8052 12.1894 37.7617 12.1933 37.7023 12.2013C37.643 12.2092 37.6034 12.2171 37.5876 12.2171C37.5322 12.225 37.4887 12.2329 37.4571 12.2408C37.4254 12.2487 37.3858 12.2566 37.3384 12.2725C37.2909 12.2883 37.2553 12.3081 37.2316 12.3318C37.2078 12.3555 37.1841 12.3832 37.1682 12.4228C37.1485 12.4624 37.1406 12.5059 37.1406 12.5573C37.1406 12.6562 37.1722 12.7314 37.2355 12.7828C37.2988 12.8382 37.3898 12.862 37.5085 12.862C37.7063 12.862 37.8606 12.8105 37.9714 12.6997C38.0307 12.6404 38.0624 12.5217 38.0624 12.3476V12.1063ZM39.4457 10.3022V10.7453H38.9947V10.3022H39.4457ZM39.4457 11.0895V13.131H38.9947V11.0895H39.4457ZM40.4 10.3141V13.131H39.953V10.3141H40.4ZM24.3983 16.0944V16.4742H24.0461V17.131H23.6109L23.607 16.4742H22.432V16.0272L23.6189 14.3378H24.0461V16.0944H24.3983ZM23.6149 16.0944V14.8957L22.8039 16.0944H23.6149ZM25.9253 14.3141H27.2111C27.5039 14.3141 27.7294 14.3814 27.8876 14.508C28.0459 14.6346 28.125 14.8086 28.125 15.0223C28.125 15.1568 28.0854 15.2794 28.0142 15.3863C27.9391 15.4931 27.8402 15.5682 27.7215 15.6157C27.8837 15.6553 28.0142 15.7344 28.1092 15.8531C28.2041 15.9718 28.2516 16.1221 28.2516 16.3002C28.2516 16.5494 28.1685 16.7512 28.0024 16.9015C27.8362 17.0558 27.6226 17.131 27.3614 17.131H25.9253V14.3141ZM26.408 14.7137V15.4891H27.0806C27.2705 15.4891 27.4089 15.4614 27.4999 15.4021C27.587 15.3427 27.6344 15.2438 27.6344 15.1014C27.6344 14.9432 27.587 14.8403 27.492 14.7889C27.3971 14.7414 27.2665 14.7137 27.0964 14.7137H26.408ZM26.408 15.8452V16.7274H27.1478C27.3377 16.7274 27.4841 16.6958 27.5949 16.6325C27.7017 16.5692 27.7571 16.4545 27.7571 16.2883C27.7571 16.1973 27.7373 16.1221 27.7056 16.0588C27.674 15.9955 27.6265 15.952 27.5632 15.9204C27.4999 15.8927 27.4366 15.8729 27.3733 15.861C27.3061 15.8531 27.2269 15.8452 27.1399 15.8452H26.408ZM28.6358 15.7186C28.6832 15.2597 28.98 15.0262 29.5299 15.0262C29.7831 15.0262 29.9888 15.0777 30.1392 15.1766C30.2895 15.2794 30.3686 15.4337 30.3686 15.6434V16.68C30.3686 16.7393 30.3726 16.7789 30.3884 16.7987C30.4042 16.8224 30.4319 16.8303 30.4754 16.8303C30.5071 16.8303 30.5387 16.8303 30.5783 16.8224V17.1389C30.4596 17.1705 30.3647 17.1824 30.2855 17.1824C30.0917 17.1824 29.9809 17.1033 29.9532 16.9371C29.7791 17.1033 29.5418 17.1824 29.2371 17.1824C29.0235 17.1824 28.8573 17.131 28.7347 17.0202C28.6081 16.9094 28.5487 16.763 28.5487 16.5731C28.5487 16.5178 28.5527 16.4624 28.5685 16.4109C28.5804 16.3635 28.5962 16.3199 28.612 16.2804C28.6279 16.2448 28.6556 16.2092 28.6951 16.1775C28.7347 16.1459 28.7663 16.1221 28.7901 16.0984C28.8138 16.0786 28.8573 16.0588 28.9127 16.039C28.9681 16.0232 29.0116 16.0074 29.0393 15.9995C29.067 15.9916 29.1145 15.9797 29.1857 15.9678C29.253 15.9599 29.2965 15.952 29.3202 15.9481C29.3439 15.9441 29.3914 15.9362 29.4626 15.9283C29.6209 15.9085 29.7317 15.8927 29.791 15.8768C29.8464 15.861 29.886 15.8412 29.9097 15.8096C29.9255 15.7898 29.9374 15.7423 29.9374 15.6632C29.9374 15.4575 29.795 15.3546 29.518 15.3546C29.3677 15.3546 29.2609 15.3823 29.1936 15.4377C29.1224 15.4931 29.0789 15.588 29.0631 15.7186H28.6358ZM29.9334 16.1063C29.8978 16.1261 29.8583 16.1419 29.8147 16.1577C29.7673 16.1736 29.7317 16.1815 29.704 16.1854C29.6763 16.1894 29.6328 16.1933 29.5734 16.2013C29.5141 16.2092 29.4745 16.2171 29.4587 16.2171C29.4033 16.225 29.3598 16.2329 29.3281 16.2408C29.2965 16.2487 29.2569 16.2566 29.2094 16.2725C29.162 16.2883 29.1264 16.3081 29.1026 16.3318C29.0789 16.3555 29.0551 16.3832 29.0393 16.4228C29.0195 16.4624 29.0116 16.5059 29.0116 16.5573C29.0116 16.6562 29.0433 16.7314 29.1066 16.7828C29.1699 16.8382 29.2609 16.862 29.3796 16.862C29.5774 16.862 29.7317 16.8105 29.8424 16.6997C29.9018 16.6404 29.9334 16.5217 29.9334 16.3476V16.1063ZM32.0092 15.05V15.4812C31.93 15.4733 31.8746 15.4693 31.8509 15.4693C31.4553 15.4693 31.2614 15.7265 31.2614 16.2329V17.131H30.8144V15.0895H31.2377V15.497C31.3801 15.1964 31.6096 15.0421 31.9221 15.0421L32.0092 15.05ZM33.4013 14.3141H34.6871C34.9799 14.3141 35.2054 14.3814 35.3636 14.508C35.5219 14.6346 35.601 14.8086 35.601 15.0223C35.601 15.1568 35.5614 15.2794 35.4902 15.3863C35.4151 15.4931 35.3162 15.5682 35.1975 15.6157C35.3597 15.6553 35.4902 15.7344 35.5852 15.8531C35.6801 15.9718 35.7276 16.1221 35.7276 16.3002C35.7276 16.5494 35.6445 16.7512 35.4784 16.9015C35.3122 17.0558 35.0986 17.131 34.8374 17.131H33.4013V14.3141ZM33.884 14.7137V15.4891H34.5565C34.7464 15.4891 34.8849 15.4614 34.9759 15.4021C35.0629 15.3427 35.1104 15.2438 35.1104 15.1014C35.1104 14.9432 35.0629 14.8403 34.968 14.7889C34.873 14.7414 34.7425 14.7137 34.5724 14.7137H33.884ZM33.884 15.8452V16.7274H34.6238C34.8137 16.7274 34.9601 16.6958 35.0709 16.6325C35.1777 16.5692 35.2331 16.4545 35.2331 16.2883C35.2331 16.1973 35.2133 16.1221 35.1816 16.0588C35.15 15.9955 35.1025 15.952 35.0392 15.9204C34.9759 15.8927 34.9126 15.8729 34.8493 15.861C34.7821 15.8531 34.7029 15.8452 34.6159 15.8452H33.884ZM37.9594 16.494C37.9079 16.7156 37.7971 16.8896 37.631 17.0123C37.4648 17.1389 37.263 17.1982 37.0336 17.1982C36.725 17.1982 36.4797 17.0993 36.2977 16.9015C36.1157 16.7037 36.0287 16.4465 36.0287 16.134C36.0287 15.8175 36.1197 15.5524 36.3056 15.3427C36.4916 15.137 36.7289 15.0302 37.0178 15.0302C37.3145 15.0302 37.5519 15.1331 37.7259 15.3388C37.9 15.5445 37.987 15.8215 37.987 16.1736V16.221H36.4797C36.4837 16.4268 36.5351 16.589 36.634 16.6997C36.7289 16.8105 36.8674 16.8659 37.0415 16.8659C37.1641 16.8659 37.263 16.8382 37.3422 16.7789C37.4213 16.7195 37.4806 16.6246 37.5281 16.494H37.9594ZM37.536 15.9204C37.5202 15.7502 37.4688 15.6157 37.3738 15.5168C37.2789 15.4179 37.1602 15.3665 37.0138 15.3665C36.8635 15.3665 36.7448 15.414 36.6538 15.5089C36.5628 15.6039 36.5074 15.7423 36.4876 15.9204H37.536ZM38.3101 15.7186C38.3576 15.2597 38.6543 15.0262 39.2043 15.0262C39.4575 15.0262 39.6632 15.0777 39.8135 15.1766C39.9639 15.2794 40.043 15.4337 40.043 15.6434V16.68C40.043 16.7393 40.0469 16.7789 40.0628 16.7987C40.0786 16.8224 40.1063 16.8303 40.1498 16.8303C40.1815 16.8303 40.2131 16.8303 40.2527 16.8224V17.1389C40.134 17.1705 40.039 17.1824 39.9599 17.1824C39.766 17.1824 39.6553 17.1033 39.6276 16.9371C39.4535 17.1033 39.2161 17.1824 38.9115 17.1824C38.6978 17.1824 38.5317 17.131 38.409 17.0202C38.2824 16.9094 38.2231 16.763 38.2231 16.5731C38.2231 16.5178 38.2271 16.4624 38.2429 16.4109C38.2547 16.3635 38.2706 16.3199 38.2864 16.2804C38.3022 16.2448 38.3299 16.2092 38.3695 16.1775C38.409 16.1459 38.4407 16.1221 38.4644 16.0984C38.4882 16.0786 38.5317 16.0588 38.5871 16.039C38.6425 16.0232 38.686 16.0074 38.7137 15.9995C38.7414 15.9916 38.7888 15.9797 38.8601 15.9678C38.9273 15.9599 38.9708 15.952 38.9946 15.9481C39.0183 15.9441 39.0658 15.9362 39.137 15.9283C39.2952 15.9085 39.406 15.8927 39.4654 15.8768C39.5208 15.861 39.5603 15.8412 39.5841 15.8096C39.5999 15.7898 39.6118 15.7423 39.6118 15.6632C39.6118 15.4575 39.4693 15.3546 39.1924 15.3546C39.042 15.3546 38.9352 15.3823 38.868 15.4377C38.7968 15.4931 38.7532 15.588 38.7374 15.7186H38.3101ZM39.6078 16.1063C39.5722 16.1261 39.5326 16.1419 39.4891 16.1577C39.4416 16.1736 39.406 16.1815 39.3783 16.1854C39.3506 16.1894 39.3071 16.1933 39.2478 16.2013C39.1884 16.2092 39.1489 16.2171 39.133 16.2171C39.0777 16.225 39.0341 16.2329 39.0025 16.2408C38.9708 16.2487 38.9313 16.2566 38.8838 16.2725C38.8363 16.2883 38.8007 16.3081 38.777 16.3318C38.7532 16.3555 38.7295 16.3832 38.7137 16.4228C38.6939 16.4624 38.686 16.5059 38.686 16.5573C38.686 16.6562 38.7176 16.7314 38.7809 16.7828C38.8442 16.8382 38.9352 16.862 39.0539 16.862C39.2517 16.862 39.406 16.8105 39.5168 16.6997C39.5761 16.6404 39.6078 16.5217 39.6078 16.3476V16.1063ZM40.9595 15.0895V15.3783C41.1257 15.1489 41.3393 15.0341 41.6004 15.0341C41.7349 15.0341 41.8497 15.0658 41.9486 15.1251C42.0475 15.1884 42.1227 15.2715 42.1701 15.3823C42.3323 15.1528 42.5539 15.0341 42.8308 15.0341C43.0207 15.0341 43.1829 15.0935 43.3096 15.2082C43.4362 15.323 43.4995 15.4812 43.4995 15.683V17.131H43.0484V15.8768C43.0484 15.7344 43.0207 15.6197 42.9733 15.5366C42.9218 15.4575 42.8269 15.414 42.6845 15.414C42.5381 15.414 42.4273 15.4614 42.3521 15.5524C42.273 15.6434 42.2374 15.77 42.2374 15.9322V17.131H41.7864V15.8531C41.7864 15.7107 41.7626 15.5999 41.7191 15.5247C41.6756 15.4535 41.5846 15.414 41.4501 15.414C41.2958 15.414 41.1811 15.4654 41.1019 15.5643C41.0228 15.6632 40.9833 15.7938 40.9833 15.956V17.131H40.5322V15.0895H40.9595Z" fill="black"/>
<path d="M24.3255 32.9968C24.3136 33.146 24.2611 33.2647 24.1661 33.3529C24.0712 33.441 23.9491 33.4851 23.7999 33.4851C23.6286 33.4851 23.4913 33.4275 23.3896 33.3122C23.2861 33.1969 23.2353 33.0443 23.2353 32.8527C23.2353 32.7374 23.2573 32.634 23.3014 32.539C23.3455 32.4441 23.4116 32.3678 23.4998 32.3101C23.588 32.2525 23.6914 32.2219 23.8101 32.2219C23.9372 32.2219 24.0491 32.2575 24.1441 32.3288C24.239 32.4 24.295 32.5017 24.3153 32.634H24.1051C24.0898 32.5627 24.0559 32.5051 24.0034 32.4644C23.9491 32.4237 23.8847 32.4017 23.8067 32.4017C23.7253 32.4017 23.6575 32.4254 23.6015 32.4695C23.5456 32.5153 23.5066 32.5712 23.4828 32.6373C23.4591 32.7035 23.4489 32.7747 23.4489 32.8527C23.4489 32.912 23.4557 32.968 23.4693 33.0188C23.4828 33.0714 23.5032 33.1189 23.5303 33.163C23.5574 33.2071 23.593 33.241 23.6405 33.2664C23.688 33.2935 23.7422 33.3054 23.805 33.3054C23.9847 33.3054 24.0864 33.2037 24.1136 32.9968H24.3255ZM25.3406 33.2732V33.4563H24.5132V32.2491H24.7268V33.2732H25.3406Z" fill="#B02E0C"/>
<path d="M6.34961 34.1516H39.1303" stroke="#B02E0C" stroke-width="0.226074" stroke-linecap="square"/>
<path d="M8.33513 29.7788H8.13336C8.1198 29.6381 8.03332 29.5669 7.87055 29.5669C7.79764 29.5669 7.74169 29.5822 7.701 29.6127C7.6603 29.6432 7.63996 29.6839 7.63996 29.7348C7.63996 29.7839 7.65352 29.8178 7.68404 29.8348C7.71456 29.8534 7.78069 29.8755 7.88412 29.9009C7.91124 29.9094 7.93159 29.9145 7.94685 29.9179C8.0808 29.9518 8.17236 29.9823 8.22153 30.0094C8.32835 30.0671 8.38261 30.1569 8.38261 30.279C8.38261 30.3333 8.37243 30.3808 8.35548 30.4231C8.33683 30.4672 8.31309 30.5028 8.28257 30.5317C8.25205 30.5605 8.21475 30.5842 8.17406 30.6029C8.13167 30.6232 8.08758 30.6368 8.0435 30.6453C7.99772 30.6537 7.95024 30.6571 7.90277 30.6571C7.75017 30.6571 7.62809 30.6215 7.53483 30.5486C7.43988 30.4774 7.3941 30.3706 7.3941 30.2299H7.60265C7.60265 30.318 7.63148 30.3841 7.68913 30.4265C7.74678 30.4689 7.82138 30.4893 7.91464 30.4893C7.99602 30.4893 8.05876 30.474 8.10454 30.4401C8.15032 30.4062 8.17406 30.3604 8.17406 30.2994C8.17406 30.2621 8.16049 30.2299 8.13675 30.2061C8.11302 30.1824 8.08589 30.1637 8.05876 30.1536C8.02993 30.1434 7.98076 30.1298 7.91124 30.1112C7.90277 30.1095 7.89598 30.1078 7.89259 30.1061C7.74169 30.0688 7.64335 30.0366 7.59587 30.0111C7.49753 29.9603 7.44497 29.8823 7.43819 29.7754V29.7517C7.43819 29.6449 7.47718 29.5601 7.55857 29.4957C7.63996 29.4312 7.74847 29.399 7.88412 29.399C8.01467 29.399 8.12149 29.4312 8.20458 29.4923C8.28596 29.555 8.33005 29.65 8.33513 29.7788Z" fill="black"/>
</svg>
