<svg width="216" height="98" viewBox="0 0 216 98" fill="none" xmlns="http://www.w3.org/2000/svg">
<g opacity="0.2">
<path fill-rule="evenodd" clip-rule="evenodd" d="M137 86H46C42.134 86 39 82.866 39 79C39 75.134 42.134 72 46 72H7C3.13401 72 0 68.866 0 65C0 61.134 3.13401 58 7 58H47C50.866 58 54 54.866 54 51C54 47.134 50.866 44 47 44H22C18.134 44 15 40.866 15 37C15 33.134 18.134 30 22 30H62C58.134 30 55 26.866 55 23C55 19.134 58.134 16 62 16H119C122.866 16 126 19.134 126 23C126 26.866 122.866 30 119 30H183C186.866 30 190 33.134 190 37C190 40.866 186.866 44 183 44H205C208.866 44 212 47.134 212 51C212 54.866 208.866 58 205 58H186C182.134 58 179 61.134 179 65C179 68.866 182.134 72 186 72H192C195.866 72 199 75.134 199 79C199 82.866 195.866 86 192 86H140C139.485 86 138.983 85.9444 138.5 85.8389C138.017 85.9444 137.515 86 137 86Z" fill="#E7D7C1"/>
<circle cx="209" cy="79" r="7" fill="#E7D7C1"/>
</g>
<g clip-path="url(#clip0_2883_59254)">
<path d="M139.57 48.9815V95.1275C139.57 96.7357 138.307 97.9996 136.698 97.9996H79.255C77.6464 97.9996 76.3828 96.7357 76.3828 95.1275V53.4619C76.3828 52.4279 76.9571 51.509 77.8189 50.9918L85.5735 46.5115C86.0333 46.2241 86.5502 46.1094 87.0096 46.1094H99.36L107.977 53.4619L116.593 46.1094H136.698C138.307 46.1094 139.57 47.3729 139.57 48.9815Z" fill="#E63950"/>
<path d="M139.57 48.9815V95.1275C139.57 96.7357 138.307 97.9996 136.698 97.9996H107.977V53.4619L116.593 46.1094H136.698C138.307 46.1094 139.57 47.3729 139.57 48.9815Z" fill="#D0004F"/>
<path d="M109.927 5.74647C109.41 4.82719 108.72 3.96573 107.973 3.33348C106.595 1.8974 104.872 0.921058 102.976 0.404262C99.9886 -0.399941 96.8869 0.00216042 94.2443 1.55293C90.568 3.67871 88.3853 7.6419 88.5 11.8929C88.5575 12.4673 88.8447 21.0072 88.8447 21.0072C88.2128 20.6625 81.6643 16.5839 81.6643 16.5839C80.9175 16.2392 75.7479 12.3331 69.3717 16.0667C66.7291 17.6178 64.8335 20.0877 64.0291 23.0175C63.2251 26.0047 63.6274 29.1065 65.1779 31.749C68.3373 37.2634 75.403 39.1016 80.8601 35.9422L88.2549 31.6726L77.9531 30.9858C77.0912 31.479 76.1157 31.7391 75.1227 31.7404C73.0695 31.7404 71.1679 30.6494 70.1609 28.8907C69.3588 27.5247 69.1679 26.0269 69.5746 24.5124C69.9758 23.0566 70.9378 21.8085 72.2785 21.0231C73.2154 20.4733 74.1073 20.2068 75.0021 20.2068C76.4887 20.2068 77.7199 20.9333 78.3791 21.3231L78.7437 21.5307C79.644 22.0917 85.4837 25.7154 86.0895 26.0465L86.3055 26.1642L86.2567 26.1924L86.3361 26.1958L93.2293 30.2168L94.5697 21.4089L94.6028 21.3045L94.5856 20.81C94.5856 20.81 94.2742 11.9057 94.2126 11.3054C94.1817 9.58328 95.2867 7.58618 97.1184 6.52597C98.0132 6.00152 98.9556 5.74341 99.9484 5.74341C100.459 5.74341 100.975 5.81349 101.485 5.95097C102.408 6.20333 103.208 6.66345 103.83 7.31409L104.262 7.72079C104.425 7.8554 104.691 8.15563 104.916 8.55658C106.29 10.879 105.867 13.9604 103.976 15.7892C103.665 16.0724 103.255 16.3811 102.882 16.5942L102.597 16.7591L101.83 23.8347L105.733 21.5812C106.537 21.1217 107.284 20.5473 107.973 19.9156C111.65 16.3543 112.684 10.3994 109.927 5.74647ZM99.357 46.1098V77.895C99.357 79.0438 100.046 80.0778 101.138 80.5372C102.172 80.9969 103.436 80.7671 104.239 79.9053L107.973 76.2289L111.707 79.9053C112.511 80.7671 113.775 80.9967 114.809 80.5372C115.901 80.0778 116.59 79.044 116.59 77.895V46.1098H99.357Z" fill="#FED843"/>
<path d="M154.119 34.6213H151.246V31.7491C151.246 30.1616 149.962 28.877 148.374 28.877C146.787 28.877 145.502 30.1616 145.502 31.7491V34.6213H142.63C141.042 34.6213 139.758 35.9059 139.758 37.4934C139.758 39.081 141.042 40.3656 142.63 40.3656H145.502V43.2377C145.502 44.8253 146.787 46.1099 148.374 46.1099C149.962 46.1099 151.246 44.8253 151.246 43.2377V40.3656H154.119C155.706 40.3656 156.991 39.081 156.991 37.4934C156.991 35.9059 155.706 34.6213 154.119 34.6213Z" fill="#FFB64C"/>
<path d="M142.439 23.131C144.025 23.131 145.311 21.8451 145.311 20.2589C145.311 18.6726 144.025 17.3867 142.439 17.3867C140.852 17.3867 139.566 18.6726 139.566 20.2589C139.566 21.8451 140.852 23.131 142.439 23.131Z" fill="#FFB64C"/>
<path d="M130.95 40.3654C132.537 40.3654 133.822 39.0795 133.822 37.4932C133.822 35.907 132.537 34.6211 130.95 34.6211C129.364 34.6211 128.078 35.907 128.078 37.4932C128.078 39.0795 129.364 40.3654 130.95 40.3654Z" fill="#FFB64C"/>
<path d="M107.977 46.1082H116.593V77.8933C116.593 79.0422 115.904 80.0762 114.812 80.5355C113.778 80.9953 112.514 80.7655 111.711 79.9037L107.977 76.2273V46.1082ZM107.977 19.9141V3.33203C108.723 3.9641 109.413 4.82555 109.93 5.74483C112.687 10.3977 111.653 16.3528 107.977 19.9141Z" fill="#FFB64C"/>
<path d="M132.847 22.5583L124.231 7.62305C123.427 6.24442 121.646 5.78488 120.267 6.58908L107.974 13.712L106.329 14.6614L73.6666 33.5067L60.5838 41.0551C59.2052 41.8019 58.5541 43.5826 59.3583 44.9613L68.1663 59.8965C68.9705 61.2753 70.6938 61.7346 72.0724 60.9302L107.974 40.1935L131.756 26.4644C133.134 25.6606 133.594 23.9373 132.847 22.5583Z" fill="#FF641A"/>
<path d="M131.758 26.4644L107.977 40.1933V13.712L120.269 6.58908C121.648 5.78488 123.429 6.24442 124.233 7.62305L132.849 22.5581C133.596 23.9373 133.137 25.6604 131.758 26.4644Z" fill="#EF5207"/>
</g>
<defs>
<clipPath id="clip0_2883_59254">
<rect width="98" height="98" fill="white" transform="translate(59)"/>
</clipPath>
</defs>
</svg>
