<svg width="58" height="58" viewBox="0 0 58 58" fill="none" xmlns="http://www.w3.org/2000/svg">
<rect width="58" height="58" rx="14" fill="#F3F3F3"/>
<rect x="0.5" y="0.5" width="57" height="57" rx="13.5" stroke="#B02E0C" stroke-opacity="0.04"/>
<path d="M4.78125 29.1938V28.2682L19.2827 23.8715V24.72L4.78125 29.1938Z" fill="#F26722" stroke="black" stroke-width="0.0617081"/>
<path d="M34.7083 19.012L19.2812 23.8715L39.4907 30.1195L54.9948 25.26L34.7083 19.012Z" fill="#F26722" stroke="black" stroke-width="0.0617081"/>
<path d="M6.09375 35.9046V28.8081L19.2839 24.72L39.7199 30.5087L41.6174 30.1739V37.5407L6.09375 35.9046Z" fill="#949599" stroke="black" stroke-width="0.0617081"/>
<path d="M53.9172 26.3398L41.6172 30.1739V37.5408L53.9172 33.4363V26.3398Z" fill="#949599" stroke="black" stroke-width="0.0617081"/>
<path d="M39.4907 30.1195L19.2812 23.8715V24.72L39.4907 30.8908V30.1195Z" fill="#F26722" stroke="black" stroke-width="0.0617081"/>
<path d="M54.9963 25.2599L39.4922 30.1195V30.8908L54.9963 25.9542V25.2599Z" fill="#F26722" stroke="black" stroke-width="0.0617081"/>
<path d="M6.01172 36.7595L6.44472 37.0393L6.47055 36.5244L6.01172 36.7595ZM41.6182 38.5454L41.1852 38.2656L41.1594 38.7805L41.6182 38.5454ZM6.41304 36.7797L6.41081 36.8242L41.2146 38.5699L41.2169 38.5253L41.2191 38.4807L6.41528 36.7351L6.41304 36.7797Z" fill="black"/>
<path d="M23.3141 37.714L23.8052 38.9873H23.5659L23.4445 38.6498H22.9408L22.8158 38.9873H22.5854L23.0766 37.714H23.3141ZM23.3855 38.4819L23.1962 37.9461L22.998 38.4819H23.3855Z" fill="black"/>
<path d="M4.57501 30.0202C4.56251 30.1774 4.50715 30.3024 4.40714 30.3953C4.30713 30.4881 4.17854 30.5346 4.02138 30.5346C3.84101 30.5346 3.69635 30.4739 3.58919 30.3524C3.48025 30.231 3.42668 30.0702 3.42668 29.8684C3.42668 29.747 3.44989 29.638 3.49633 29.538C3.54276 29.438 3.61241 29.3577 3.70528 29.2969C3.79814 29.2362 3.90708 29.2041 4.0321 29.2041C4.16604 29.2041 4.28391 29.2416 4.38392 29.3166C4.48393 29.3916 4.54287 29.4987 4.5643 29.638H4.34285C4.32677 29.563 4.29105 29.5023 4.23569 29.4595C4.17854 29.4166 4.11068 29.3934 4.02853 29.3934C3.9428 29.3934 3.87137 29.4184 3.81243 29.4648C3.7535 29.513 3.71242 29.572 3.68742 29.6416C3.66242 29.7113 3.6517 29.7863 3.6517 29.8684C3.6517 29.9309 3.65884 29.9899 3.67313 30.0434C3.68742 30.0988 3.70885 30.1488 3.73742 30.1952C3.766 30.2417 3.8035 30.2774 3.85351 30.3042C3.90351 30.3328 3.96066 30.3453 4.02674 30.3453C4.21605 30.3453 4.3232 30.2381 4.35177 30.0202H4.57501Z" fill="black"/>
<path d="M47.9253 36.5995H48.5057C48.6379 36.5995 48.7397 36.6299 48.8111 36.687C48.8825 36.7442 48.9183 36.8228 48.9183 36.9192C48.9183 36.9799 48.9004 37.0353 48.8683 37.0835C48.8343 37.1317 48.7897 37.1657 48.7361 37.1871C48.8093 37.205 48.8683 37.2407 48.9111 37.2942C48.954 37.3478 48.9754 37.4157 48.9754 37.4961C48.9754 37.6086 48.9379 37.6996 48.8629 37.7675C48.7879 37.8372 48.6915 37.8711 48.5736 37.8711H47.9253V36.5995ZM48.1432 36.7799V37.1299H48.4468C48.5325 37.1299 48.595 37.1174 48.6361 37.0907C48.6754 37.0639 48.6968 37.0192 48.6968 36.9549C48.6968 36.8835 48.6754 36.8371 48.6325 36.8138C48.5897 36.7924 48.5307 36.7799 48.4539 36.7799H48.1432ZM48.1432 37.2907V37.6889H48.4771C48.5629 37.6889 48.6289 37.6746 48.679 37.6461C48.7272 37.6175 48.7522 37.5657 48.7522 37.4907C48.7522 37.4496 48.7432 37.4157 48.729 37.3871C48.7147 37.3585 48.6932 37.3389 48.6647 37.3246C48.6361 37.3121 48.6075 37.3032 48.5789 37.2978C48.5486 37.2942 48.5129 37.2907 48.4736 37.2907H48.1432Z" fill="black"/>
<path d="M41.7266 38.657L42.2319 38.759L42.0676 38.2703L41.7266 38.657ZM54.0047 34.5271L53.4993 34.4251L53.6637 34.9138L54.0047 34.5271ZM42.1074 38.5289L42.1217 38.5712L53.638 34.6975L53.6238 34.6552L53.6096 34.6129L42.0932 38.4866L42.1074 38.5289Z" fill="black"/>
<path opacity="0.2" d="M6.12109 28.8346L39.4952 30.9554" stroke="black" stroke-width="0.0892953"/>
<path d="M19.2921 24.7047L6.12109 28.8346L39.4952 30.8437L19.2921 24.7047Z" fill="white" stroke="white" stroke-width="0.0892953"/>
<path d="M4.78125 30.8437H4.7366V30.8883H4.78125V30.8437ZM6.00906 30.8437L5.56258 30.5859V31.1014L6.00906 30.8437ZM4.78125 29.281H4.7366V30.8437H4.78125H4.8259V29.281H4.78125ZM4.78125 30.8437V30.8883H5.60723V30.8437V30.799H4.78125V30.8437Z" fill="black"/>
<path d="M21.2529 26.1074V27.379H21.0297V26.8075H20.4475V27.379H20.2242V26.1074H20.4475V26.6128H21.0297V26.1074H21.2529Z" fill="black"/>
<path d="M19.293 24.8163L19.0352 25.2628H19.5507L19.293 24.8163ZM19.293 29.5043L19.5507 29.0579H19.0352L19.293 29.5043ZM19.293 25.2182H19.2483V29.1025H19.293H19.3376V25.2182H19.293Z" fill="black"/>
<path d="M40.3215 32.1347H40.8055C40.893 32.1347 40.9698 32.1454 41.0377 32.1633C41.1038 32.1811 41.1645 32.2151 41.2216 32.2651C41.3467 32.3776 41.4092 32.5383 41.4092 32.749C41.4092 32.9741 41.3484 33.1473 41.2306 33.2652C41.177 33.3187 41.1198 33.3545 41.0591 33.3759C40.9984 33.3973 40.918 33.4062 40.818 33.4062H40.3215V32.1347ZM40.543 32.324V33.2187H40.8055C40.9448 33.2187 41.0431 33.1794 41.1002 33.0973C41.1574 33.0169 41.1859 32.9044 41.1859 32.7598C41.1859 32.624 41.1538 32.5169 41.0895 32.4401C41.0252 32.3633 40.9252 32.324 40.7912 32.324H40.543Z" fill="black"/>
<path d="M39.4961 32.0714H39.4514V32.1161H39.4961V32.0714ZM41.6169 32.0714L41.1704 31.8137V32.3292L41.6169 32.0714ZM39.4961 30.8436H39.4514V32.0714H39.4961H39.5407V30.8436H39.4961ZM39.4961 32.0714V32.1161H41.215V32.0714V32.0268H39.4961V32.0714Z" fill="black"/>
</svg>
