<svg width="176" height="136" viewBox="0 0 176 136" fill="none" xmlns="http://www.w3.org/2000/svg">
<path d="M0 16C0 7.16344 7.16344 0 16 0H160C168.837 0 176 7.16344 176 16V120C176 128.837 168.837 136 160 136H16C7.16344 136 0 128.837 0 120V16Z" fill="white"/>
<path d="M16 0.5H160C168.56 0.5 175.5 7.43959 175.5 16V120C175.5 128.56 168.56 135.5 160 135.5H16C7.43959 135.5 0.5 128.56 0.5 120V16C0.5 7.43959 7.43959 0.5 16 0.5Z" stroke="#B02E0C" stroke-opacity="0.16"/>
<path d="M11.6289 68.0732V65.1574L57.309 51.3076V53.9804L11.6289 68.0732Z" fill="#F26722" stroke="black" stroke-width="0.194384"/>
<path d="M105.901 36L57.3047 51.3077L120.965 70.989L169.804 55.6813L105.901 36Z" fill="#F26722" stroke="black" stroke-width="0.194384"/>
<path d="M15.7539 89.2122V66.8581L57.3034 53.9802L121.678 72.2151L127.655 71.1603V94.3663L15.7539 89.2122Z" fill="#949599" stroke="black" stroke-width="0.194384"/>
<path d="M166.402 59.0828L127.656 71.1603V94.3662L166.402 81.4369V59.0828Z" fill="#949599" stroke="black" stroke-width="0.194384"/>
<path d="M120.965 70.989L57.3047 51.3076V53.9804L120.965 73.4187V70.989Z" fill="#F26722" stroke="black" stroke-width="0.194384"/>
<path d="M169.804 55.6814L120.965 70.9891V73.4189L169.804 57.8682V55.6814Z" fill="#F26722" stroke="black" stroke-width="0.194384"/>
<path d="M15.4961 91.9053L16.8601 92.7867L16.9414 91.1647L15.4961 91.9053ZM127.658 97.531L126.294 96.6495L126.213 98.2715L127.658 97.531ZM16.7603 91.9687L16.7532 92.1091L126.387 97.608L126.394 97.4676L126.401 97.3271L16.7673 91.8282L16.7603 91.9687Z" fill="black"/>
<path d="M68.8507 95.7616L70.3978 99.7727H69.6439L69.2614 98.7094H67.6749L67.2811 99.7727H66.5554L68.1025 95.7616H68.8507ZM69.0757 98.1806L68.4794 96.4929L67.8549 98.1806H69.0757Z" fill="black"/>
<path d="M10.3236 71.5262C10.2842 72.0213 10.1098 72.4151 9.79481 72.7076C9.47977 73.0002 9.07472 73.1464 8.57966 73.1464C8.01147 73.1464 7.55579 72.9551 7.21824 72.5726C6.87508 72.1901 6.70631 71.6837 6.70631 71.048C6.70631 70.6655 6.77944 70.3223 6.92571 70.0073C7.07198 69.6922 7.29138 69.4391 7.58391 69.2478C7.87645 69.0565 8.21962 68.9553 8.61341 68.9553C9.03534 68.9553 9.40664 69.0734 9.72168 69.3097C10.0367 69.546 10.2224 69.8835 10.2899 70.3223H9.59228C9.54165 70.086 9.42914 69.8948 9.25474 69.7598C9.07472 69.6247 8.86095 69.5516 8.60216 69.5516C8.33213 69.5516 8.1071 69.6304 7.92146 69.7766C7.73581 69.9285 7.60642 70.1142 7.52766 70.3336C7.4489 70.553 7.41514 70.7893 7.41514 71.048C7.41514 71.2449 7.43765 71.4306 7.48265 71.5994C7.52766 71.7737 7.59517 71.9313 7.68518 72.0775C7.77519 72.2238 7.89333 72.3363 8.05085 72.4207C8.20837 72.5107 8.38839 72.5501 8.59654 72.5501C9.19286 72.5501 9.5304 72.2126 9.62041 71.5262H10.3236Z" fill="black"/>
<path d="M146.377 92.2511H148.206C148.622 92.2511 148.942 92.3467 149.168 92.5268C149.393 92.7068 149.505 92.9543 149.505 93.2581C149.505 93.4494 149.449 93.6238 149.348 93.7757C149.241 93.9276 149.1 94.0344 148.931 94.102C149.162 94.1582 149.348 94.2707 149.483 94.4395C149.618 94.6083 149.685 94.822 149.685 95.0752C149.685 95.4296 149.567 95.7165 149.331 95.9303C149.094 96.1497 148.791 96.2566 148.419 96.2566H146.377V92.2511ZM147.064 92.8193V93.9219H148.02C148.29 93.9219 148.487 93.8826 148.616 93.7982C148.74 93.7138 148.807 93.5731 148.807 93.3706C148.807 93.1456 148.74 92.9993 148.605 92.9262C148.47 92.8587 148.284 92.8193 148.042 92.8193H147.064ZM147.064 94.4282V95.6828H148.116C148.386 95.6828 148.594 95.6378 148.751 95.5478C148.903 95.4577 148.982 95.2946 148.982 95.0583C148.982 94.9289 148.954 94.822 148.909 94.732C148.864 94.642 148.796 94.5801 148.706 94.5351C148.616 94.4958 148.526 94.4676 148.436 94.4507C148.341 94.4395 148.228 94.4282 148.104 94.4282H147.064Z" fill="black"/>
<path d="M128.008 97.8825L129.6 98.2037L129.082 96.6644L128.008 97.8825ZM166.684 84.873L165.093 84.5518L165.61 86.0911L166.684 84.873ZM129.208 97.4789L129.252 97.6122L165.53 85.4099L165.485 85.2766L165.44 85.1433L129.163 97.3456L129.208 97.4789Z" fill="black"/>
<path opacity="0.2" d="M15.8477 66.9412L120.978 73.6217" stroke="black" stroke-width="0.281284"/>
<path d="M57.3371 53.9319L15.8477 66.9413L120.978 73.2702L57.3371 53.9319Z" fill="white" stroke="white" stroke-width="0.281284"/>
<path d="M11.6289 73.2701H11.4883V73.4108H11.6289V73.2701ZM15.4966 73.2701L14.0901 72.4581V74.0821L15.4966 73.2701ZM11.6289 68.3477H11.4883V73.2701H11.6289H11.7695V68.3477H11.6289ZM11.6289 73.2701V73.4108H14.2308V73.2701V73.1295H11.6289V73.2701Z" fill="black"/>
<path d="M62.8633 59.2006V63.2061H62.1601V61.4058H60.3261V63.2061H59.6229V59.2006H60.3261V60.7926H62.1601V59.2006H62.8633Z" fill="black"/>
<path d="M57.332 54.2834L56.52 55.6899H58.144L57.332 54.2834ZM57.332 69.0509L58.144 67.6445H56.52L57.332 69.0509ZM57.332 55.5492H57.1914V67.7851H57.332H57.4727V55.5492H57.332Z" fill="black"/>
<path d="M122.923 78.1869H124.448C124.723 78.1869 124.965 78.2206 125.179 78.2769C125.387 78.3332 125.579 78.44 125.759 78.5976C126.152 78.952 126.349 79.4583 126.349 80.1221C126.349 80.831 126.158 81.3767 125.787 81.748C125.618 81.9167 125.438 82.0292 125.247 82.0967C125.055 82.1643 124.802 82.1924 124.487 82.1924H122.923V78.1869ZM123.621 78.7832V81.6017H124.448C124.887 81.6017 125.196 81.4779 125.376 81.2191C125.556 80.966 125.646 80.6116 125.646 80.1559C125.646 79.7283 125.545 79.3908 125.342 79.1489C125.14 78.907 124.825 78.7832 124.403 78.7832H123.621Z" fill="black"/>
<path d="M120.977 77.1379H120.836V77.2786H120.977V77.1379ZM127.657 77.1379L126.251 76.3259V77.9499L127.657 77.1379ZM120.977 73.2703H120.836V77.1379H120.977H121.117V73.2703H120.977ZM120.977 77.1379V77.2786H126.391V77.1379V76.9973H120.977V77.1379Z" fill="black"/>
</svg>
