<svg width="35" height="35" viewBox="0 0 35 35" fill="none" xmlns="http://www.w3.org/2000/svg">
<path d="M24.5412 21.1585C22.8545 21.1585 21.1603 20.855 19.5532 20.1634C18.374 19.6559 17.2626 18.9991 16.1885 18.3635C15.1542 17.7521 14.0839 17.119 12.9849 16.6438C9.15192 14.9874 4.65039 15.2261 0.925525 17.2096C0.336637 17.5232 0 18.1531 0 18.8203V32.8787C0 33.9557 0.873045 34.8288 1.95 34.8288H32.88C33.957 34.8288 34.83 33.9557 34.83 32.8787V21.5403C34.83 19.8916 32.8274 18.896 31.3332 19.5929C29.2607 20.5595 26.9087 21.1585 24.5412 21.1585ZM0 13.9343C0 14.9905 1.15026 15.6707 2.13878 15.2988C2.70835 15.0845 3.10971 14.5537 3.10971 13.9452V13.3718C3.10971 12.513 2.41358 11.8169 1.55486 11.8169C0.696132 11.8169 0 12.513 0 13.3717V13.9343Z" fill="#B02E0C"/>
<path d="M22.6848 19.7688C23.1943 19.8473 23.6338 19.4374 23.6338 18.9218C23.6338 18.4328 23.2373 18.0363 22.7483 18.0363H20.2814C19.6939 18.0363 19.5057 18.7877 20.0452 19.0202C20.9028 19.3897 21.7886 19.6308 22.6848 19.7688ZM18.0363 12.7663C18.0363 12.2419 18.4614 11.8169 18.9857 11.8169H29.5258C30.0501 11.8169 30.4752 12.2419 30.4752 12.7663V15.8431C30.4752 16.3674 30.0501 16.7924 29.5258 16.7924H18.9857C18.4614 16.7924 18.0363 16.3674 18.0363 15.8431V12.7663ZM31.7189 15.8432C31.719 16.3675 32.144 16.7924 32.6683 16.7924H33.2789C33.4874 16.7924 33.6909 16.7247 33.8533 16.594C34.0896 16.4038 34.3192 16.2053 34.5417 15.9991C34.728 15.8263 34.8288 15.5815 34.8288 15.3273V12.7663C34.8288 12.2419 34.4037 11.8169 33.8794 11.8169H32.6679C32.1435 11.8169 31.7185 12.242 31.7185 12.7664L31.7189 15.8432ZM31.719 0.949357C31.719 0.425042 32.1441 0 32.6684 0H33.8794C34.4037 0 34.8288 0.425042 34.8288 0.949357V3.40424C34.8288 3.92855 34.4037 4.35359 33.8794 4.35359H32.6684C32.1441 4.35359 31.719 3.92855 31.719 3.40424V0.949357ZM24.8777 6.54683C24.8777 6.02252 25.3027 5.59748 25.827 5.59748H33.8794C34.4037 5.59748 34.8288 6.02252 34.8288 6.54683V9.62366C34.8288 10.148 34.4037 10.573 33.8794 10.573H25.827C25.3027 10.573 24.8777 10.148 24.8777 9.62366V6.54683ZM13.4781 15.5025C14.2867 15.8523 15.0624 16.2715 15.8172 16.7052C15.9163 16.7622 16.0286 16.7924 16.1429 16.7924C16.5016 16.7924 16.7924 16.5016 16.7924 16.1429V12.7663C16.7924 12.2419 16.3674 11.8169 15.8431 11.8169H5.30295C4.77864 11.8169 4.35359 12.2419 4.35359 12.7663V13.4728C4.35359 14.0771 4.91097 14.5262 5.5097 14.4447C8.20078 14.0783 10.9706 14.419 13.4781 15.5025ZM4.35359 0.949357C4.35359 0.425042 4.77864 0 5.30295 0H15.8431C16.3674 0 16.7924 0.425042 16.7924 0.949357V3.40424C16.7924 3.92855 16.3674 4.35359 15.8431 4.35359H5.30295C4.77864 4.35359 4.35359 3.92855 4.35359 3.40424V0.949357ZM11.195 6.54683C11.195 6.02252 11.62 5.59748 12.1443 5.59748H22.6844C23.2088 5.59748 23.6338 6.02252 23.6338 6.54683V9.62366C23.6338 10.148 23.2088 10.573 22.6844 10.573H12.1443C11.62 10.573 11.195 10.148 11.195 9.62366V6.54683ZM25.8038 18.0363C25.2923 18.0363 24.8777 18.4509 24.8777 18.9624C24.8777 19.4825 25.3065 19.9036 25.8243 19.8544C26.6321 19.7776 27.4315 19.6292 28.21 19.4203C29.1603 19.1652 28.9184 18.0363 27.9344 18.0363H25.8038ZM18.0363 0.949357C18.0363 0.425042 18.4614 0 18.9857 0H29.5258C30.0501 0 30.4752 0.425042 30.4752 0.949357V3.40424C30.4752 3.92855 30.0501 4.35359 29.5258 4.35359H18.9857C18.4614 4.35359 18.0363 3.92855 18.0363 3.40424V0.949357ZM0 0.949357C0 0.425042 0.425041 0 0.949357 0H2.16035C2.68467 0 3.10971 0.425042 3.10971 0.949357V3.40424C3.10971 3.92855 2.68467 4.35359 2.16035 4.35359H0.949357C0.425042 4.35359 0 3.92855 0 3.40424V0.949357ZM0 6.54683C0 6.02252 0.425041 5.59748 0.949357 5.59748H9.00172C9.52603 5.59748 9.95107 6.02252 9.95107 6.54683V9.62366C9.95107 10.148 9.52603 10.573 9.00172 10.573H0.949356C0.425041 10.573 0 10.148 0 9.62366V6.54683Z" fill="#B02E0C"/>
</svg>
