<svg width="58" height="58" viewBox="0 0 58 58" fill="none" xmlns="http://www.w3.org/2000/svg">
<circle cx="29" cy="29" r="29" fill="#B02E0C" fill-opacity="0.04"/>
<circle cx="29" cy="29" r="28.5" stroke="#B02E0C" stroke-opacity="0.2"/>
<path fill-rule="evenodd" clip-rule="evenodd" d="M29 27.75C29.1989 27.75 29.3897 27.671 29.5303 27.5303L32.5303 24.5303C32.8232 24.2374 32.8232 23.7626 32.5303 23.4697C32.2374 23.1768 31.7626 23.1768 31.4697 23.4697L29.75 25.1893V19C29.75 18.5858 29.4142 18.25 29 18.25C28.5858 18.25 28.25 18.5858 28.25 19V25.1893L26.5303 23.4697C26.2374 23.1768 25.7626 23.1768 25.4697 23.4697C25.1768 23.7626 25.1768 24.2374 25.4697 24.5303L28.4697 27.5303C28.6103 27.671 28.8011 27.75 29 27.75Z" fill="#B02E0C"/>
<path d="M20.4645 37.5355C21.9289 39 24.286 39 29 39C33.714 39 36.0711 39 37.5355 37.5355C38.8063 36.2647 38.9744 34.3219 38.9966 30.75H35.8397C34.8659 30.75 34.6113 30.766 34.3975 30.8644C34.1838 30.9627 34.0059 31.1456 33.3722 31.8849L32.6794 32.6933C32.1773 33.2803 31.7796 33.7453 31.2292 33.9984C30.6789 34.2515 30.067 34.2509 29.2945 34.2501H28.7055C27.933 34.2509 27.3211 34.2515 26.7708 33.9984C26.2204 33.7453 25.8227 33.2803 25.3206 32.6933L24.6278 31.8849C23.9941 31.1456 23.8162 30.9627 23.6025 30.8644C23.3887 30.766 23.1341 30.75 22.1603 30.75H19.0034C19.0256 34.3219 19.1937 36.2647 20.4645 37.5355Z" fill="#B02E0C"/>
<path d="M39 29C39 24.286 39 21.9289 37.5355 20.4645C36.3253 19.2543 34.5056 19.0441 31.25 19.0077V21.8781C32.0415 21.599 32.9579 21.7759 33.591 22.409C34.4697 23.2877 34.4697 24.7123 33.591 25.591L30.591 28.591C30.169 29.0129 29.5967 29.25 29 29.25C28.4033 29.25 27.831 29.0129 27.409 28.591L24.409 25.591C23.5303 24.7123 23.5303 23.2877 24.409 22.409C25.0421 21.7759 25.9585 21.599 26.75 21.8781V19.0077C23.4944 19.0441 21.6747 19.2543 20.4645 20.4645C19 21.9289 19 24.286 19 29L19 29.25L22.2945 29.2499C23.067 29.2491 23.6789 29.2485 24.2292 29.5016C24.7796 29.7547 25.1773 30.2197 25.6794 30.8067L26.3722 31.6151C27.0059 32.3544 27.1838 32.5373 27.3975 32.6356C27.6113 32.734 27.8659 32.75 28.8397 32.75H29.1603C30.1341 32.75 30.3887 32.734 30.6025 32.6356C30.8162 32.5373 30.9941 32.3544 31.6278 31.6151L32.3206 30.8067C32.8227 30.2197 33.2204 29.7547 33.7708 29.5016C34.3211 29.2485 34.933 29.2491 35.7055 29.2499L39 29.25L39 29Z" fill="#B02E0C"/>
</svg>
