<svg width="18" height="18" viewBox="0 0 18 18" fill="none" xmlns="http://www.w3.org/2000/svg">
<path d="M11.625 5.625C11.625 7.07475 10.4497 8.25 9 8.25C7.55025 8.25 6.375 7.07475 6.375 5.625C6.375 4.17525 7.55025 3 9 3C10.4497 3 11.625 4.17525 11.625 5.625Z" fill="white"/>
<path d="M13.5 12.375C13.5 13.8247 11.4853 15 9 15C6.51472 15 4.5 13.8247 4.5 12.375C4.5 10.9253 6.51472 9.75 9 9.75C11.4853 9.75 13.5 10.9253 13.5 12.375Z" fill="white"/>
<path d="M5.34154 3.75C5.47463 3.75 5.60457 3.76306 5.73004 3.78792C5.42437 4.33084 5.25 4.95756 5.25 5.625C5.25 6.27619 5.41598 6.88861 5.70795 7.42227C5.58934 7.44437 5.46684 7.45595 5.34154 7.45595C4.28073 7.45595 3.42077 6.62634 3.42077 5.60297C3.42077 4.5796 4.28073 3.75 5.34154 3.75Z" fill="white"/>
<path d="M4.0855 14.2395C3.65957 13.7303 3.375 13.1055 3.375 12.375C3.375 11.6668 3.64243 11.058 4.04684 10.5575C2.61832 10.6683 1.5 11.4497 1.5 12.397C1.5 13.3533 2.63798 14.1404 4.0855 14.2395Z" fill="white"/>
<path d="M12.7496 5.625C12.7496 6.27619 12.5836 6.88861 12.2916 7.42227C12.4102 7.44437 12.5327 7.45595 12.658 7.45595C13.7188 7.45595 14.5788 6.62634 14.5788 5.60297C14.5788 4.5796 13.7188 3.75 12.658 3.75C12.5249 3.75 12.395 3.76306 12.2695 3.78792C12.5752 4.33084 12.7496 4.95756 12.7496 5.625Z" fill="white"/>
<path d="M13.9141 14.2395C15.3616 14.1404 16.4996 13.3533 16.4996 12.397C16.4996 11.4497 15.3812 10.6683 13.9527 10.5575C14.3571 11.058 14.6246 11.6668 14.6246 12.375C14.6246 13.1055 14.34 13.7303 13.9141 14.2395Z" fill="white"/>
</svg>
