<svg width="18" height="18" viewBox="0 0 18 18" fill="none" xmlns="http://www.w3.org/2000/svg">
<circle cx="6.75" cy="4.5" r="3" fill="white"/>
<ellipse cx="6.75" cy="12.75" rx="5.25" ry="3" fill="white"/>
<path d="M15.7479 12.7498C15.7479 13.9924 14.2212 14.9998 12.3573 14.9998C12.9064 14.3995 13.284 13.6461 13.284 12.7508C13.284 11.8545 12.9055 11.1004 12.3554 10.4998C14.2193 10.4998 15.7479 11.5071 15.7479 12.7498Z" fill="white"/>
<path d="M13.4979 4.5C13.4979 5.74264 12.4905 6.75 11.2479 6.75C10.9769 6.75 10.7171 6.7021 10.4766 6.61431C10.8314 5.99024 11.034 5.26837 11.034 4.49916C11.034 3.73053 10.8317 3.00915 10.4773 2.3854C10.7177 2.29779 10.9772 2.25 11.2479 2.25C12.4905 2.25 13.4979 3.25736 13.4979 4.5Z" fill="white"/>
</svg>
