<svg width="18" height="18" viewBox="0 0 18 18" fill="none" xmlns="http://www.w3.org/2000/svg">
<g opacity="0.6">
<circle cx="6.75" cy="4.5" r="3" fill="#060C12"/>
<ellipse cx="6.75" cy="12.7507" rx="5.25" ry="3" fill="#060C12"/>
<path d="M15.7479 12.7503C15.7479 13.9929 14.2212 15.0003 12.3573 15.0003C12.9064 14.4 13.284 13.6466 13.284 12.7513C13.284 11.855 12.9055 11.1009 12.3554 10.5003C14.2193 10.5003 15.7479 11.5076 15.7479 12.7503Z" fill="#060C12"/>
<path d="M13.4979 4.50049C13.4979 5.74313 12.4905 6.75049 11.2479 6.75049C10.9769 6.75049 10.7171 6.70259 10.4766 6.6148C10.8314 5.99073 11.034 5.26885 11.034 4.49965C11.034 3.73102 10.8317 3.00964 10.4773 2.38589C10.7177 2.29828 10.9772 2.25049 11.2479 2.25049C12.4905 2.25049 13.4979 3.25785 13.4979 4.50049Z" fill="#060C12"/>
</g>
</svg>
