<svg width="176" height="136" viewBox="0 0 176 136" fill="none" xmlns="http://www.w3.org/2000/svg">
<path d="M0 16C0 7.16344 7.16344 0 16 0H160C168.837 0 176 7.16344 176 16V120C176 128.837 168.837 136 160 136H16C7.16344 136 0 128.837 0 120V16Z" fill="white"/>
<path d="M16 0.5H160C168.56 0.5 175.5 7.43959 175.5 16V120C175.5 128.56 168.56 135.5 160 135.5H16C7.43959 135.5 0.5 128.56 0.5 120V16C0.5 7.43959 7.43959 0.5 16 0.5Z" stroke="#B02E0C" stroke-opacity="0.16"/>
<path d="M75.9519 23L14.4531 42.0177L59.1571 68.1979L120.162 48.4393L75.9519 23Z" fill="#F26722" stroke="black" stroke-width="0.246983"/>
<path d="M170.546 47.4514L119.914 48.4393L59.1562 68.198L108.553 66.7161L170.546 47.4514Z" fill="#F26722" stroke="black" stroke-width="0.246983"/>
<path d="M14.4531 45.2286V42.0178L59.1571 68.198L108.554 66.7161L170.299 47.4515V49.9213L108.801 69.433L58.9101 70.6679L14.4531 45.2286Z" fill="#F26722" stroke="black" stroke-width="0.246983"/>
<path d="M16.4258 84.4988V46.4634L58.9069 70.6677L101.635 69.6798V109.197L16.4258 84.4988Z" fill="#949599" stroke="black" stroke-width="0.246983"/>
<path d="M101.633 109.197V69.6798L108.795 69.4328L164.367 51.897V91.9082L101.633 109.197Z" fill="#949599" stroke="black" stroke-width="0.246983"/>
<path opacity="0.4" d="M101.918 83.1398L58.8191 71.5916L16.2422 60.1831" stroke="black" stroke-width="0.338028"/>
<path d="M15.7201 46.6619L14.03 45.6861V47.6377L15.7201 46.6619ZM12.3398 46.6619V46.4929H12.1708V46.6619H12.3398ZM12.3398 60.183H12.1708V60.352H12.3398V60.183ZM15.7201 60.183L14.03 59.2072V61.1588L15.7201 60.183ZM14.199 46.6619V46.4929H12.3398V46.6619V46.8309H14.199V46.6619ZM12.3398 46.6619H12.1708V60.183H12.3398H12.5089V46.6619H12.3398ZM12.3398 60.183V60.352H14.199V60.183V60.014H12.3398V60.183Z" fill="black"/>
<path d="M10.4481 51.0737V55.8872H9.60305V53.7238H7.39911V55.8872H6.55404V51.0737H7.39911V52.9869H9.60305V51.0737H10.4481Z" fill="black"/>
<path d="M107.875 81.0976C107.828 81.6925 107.618 82.1657 107.24 82.5173C106.861 82.8688 106.374 83.0446 105.779 83.0446C105.097 83.0446 104.549 82.8148 104.143 82.355C103.731 81.8953 103.528 81.2869 103.528 80.5229C103.528 80.0632 103.616 79.6508 103.792 79.2722C103.967 78.8936 104.231 78.5894 104.583 78.3595C104.934 78.1297 105.347 78.008 105.82 78.008C106.327 78.008 106.773 78.15 107.152 78.4339C107.53 78.7179 107.753 79.1235 107.835 79.6508H106.996C106.935 79.3669 106.8 79.137 106.591 78.9748C106.374 78.8125 106.117 78.7246 105.806 78.7246C105.482 78.7246 105.211 78.8193 104.988 78.995C104.765 79.1776 104.61 79.4007 104.515 79.6643C104.42 79.928 104.38 80.2119 104.38 80.5229C104.38 80.7595 104.407 80.9826 104.461 81.1855C104.515 81.395 104.596 81.5843 104.704 81.7601C104.813 81.9359 104.955 82.0711 105.144 82.1725C105.333 82.2807 105.549 82.328 105.8 82.328C106.516 82.328 106.922 81.9224 107.03 81.0976H107.875Z" fill="black"/>
<path d="M54.5863 100.926L56.4455 105.747H55.5396L55.0798 104.469H53.1734L52.7001 105.747H51.828L53.6872 100.926H54.5863ZM54.8567 103.833L54.1401 101.805L53.3897 103.833H54.8567Z" fill="black"/>
<path d="M134.226 105.158H136.423C136.923 105.158 137.309 105.273 137.579 105.49C137.849 105.706 137.985 106.003 137.985 106.369C137.985 106.598 137.917 106.808 137.795 106.991C137.667 107.173 137.498 107.302 137.295 107.383C137.572 107.45 137.795 107.585 137.958 107.788C138.12 107.991 138.201 108.248 138.201 108.552C138.201 108.978 138.059 109.323 137.775 109.58C137.491 109.843 137.126 109.972 136.68 109.972H134.226V105.158ZM135.05 105.841V107.166H136.2C136.524 107.166 136.761 107.119 136.916 107.018C137.065 106.916 137.146 106.747 137.146 106.504C137.146 106.233 137.065 106.058 136.903 105.97C136.741 105.889 136.518 105.841 136.227 105.841H135.05ZM135.05 107.775V109.282H136.315C136.639 109.282 136.889 109.228 137.079 109.12C137.261 109.012 137.356 108.816 137.356 108.532C137.356 108.376 137.322 108.248 137.268 108.14C137.214 108.032 137.133 107.957 137.025 107.903C136.916 107.856 136.808 107.822 136.7 107.802C136.585 107.788 136.45 107.775 136.301 107.775H135.05Z" fill="black"/>
<path d="M108.679 75.8169V75.9859H108.848V75.8169H108.679ZM101.918 75.8169L103.608 76.7927V74.8411L101.918 75.8169ZM108.679 70.324H108.51V75.8169H108.679H108.848V70.324H108.679ZM108.679 75.8169V75.6479H103.439V75.8169V75.9859H108.679V75.8169Z" fill="black"/>
<path d="M16.1406 88.0703L17.4894 89.4808L18.0366 87.6075L16.1406 88.0703ZM101.493 113L100.144 111.589L99.5968 113.463L101.493 113ZM17.6007 88.4968L17.5534 88.659L99.9852 112.736L100.033 112.573L100.08 112.411L17.6481 88.3345L17.6007 88.4968Z" fill="black"/>
<path d="M101.918 112.577L103.803 113.082L103.297 111.197L101.918 112.577ZM164.876 95.676L162.99 95.1718L163.496 97.0567L164.876 95.676ZM103.387 112.183L103.431 112.346L163.45 96.2337L163.407 96.0704L163.363 95.9072L103.343 112.02L103.387 112.183Z" fill="black"/>
</svg>
