<svg width="58" height="58" viewBox="0 0 58 58" fill="none" xmlns="http://www.w3.org/2000/svg">
<rect width="58" height="58" rx="14" fill="#F3F3F3"/>
<rect x="0.5" y="0.5" width="57" height="57" rx="13.5" stroke="#B02E0C" stroke-opacity="0.04"/>
<path d="M24.9565 14.2316L4.77344 20.4729L19.4446 29.0649L39.4655 22.5804L24.9565 14.2316Z" fill="#F26722" stroke="black" stroke-width="0.0810563"/>
<path d="M56.0017 22.2562L39.3852 22.5805L19.4453 29.065L35.6566 28.5786L56.0017 22.2562Z" fill="#F26722" stroke="black" stroke-width="0.0810563"/>
<path d="M4.77344 21.5268V20.473L19.4446 29.065L35.6559 28.5787L55.92 22.2563V23.0668L35.737 29.4703L19.3636 29.8756L4.77344 21.5268Z" fill="#F26722" stroke="black" stroke-width="0.0810563"/>
<path d="M5.42188 34.4147V21.932L19.3636 29.8755L33.3863 29.5513V42.5203L5.42188 34.4147Z" fill="#949599" stroke="black" stroke-width="0.0810563"/>
<path d="M33.3828 42.5203V29.5513L35.7334 29.4702L53.9711 23.7152V36.8463L33.3828 42.5203Z" fill="#949599" stroke="black" stroke-width="0.0810563"/>
<path opacity="0.4" d="M33.4768 33.9686L19.3325 30.1787L5.35938 26.4346" stroke="black" stroke-width="0.110936"/>
<path d="M5.18748 21.9972L4.6328 21.6769V22.3174L5.18748 21.9972ZM4.07812 21.9972V21.9417H4.02266V21.9972H4.07812ZM4.07812 26.4346H4.02266V26.4901H4.07812V26.4346ZM5.18748 26.4346L4.6328 26.1144V26.7549L5.18748 26.4346ZM4.68827 21.9972V21.9417H4.07812V21.9972V22.0527H4.68827V21.9972ZM4.07812 21.9972H4.02266V26.4346H4.07812H4.13359V21.9972H4.07812ZM4.07812 26.4346V26.4901H4.68827V26.4346V26.3792H4.07812V26.4346Z" fill="black"/>
<path d="M3.63935 23.8041V25.3838H3.36201V24.6738H2.6387V25.3838H2.36136V23.8041H2.6387V24.432H3.36201V23.8041H3.63935Z" fill="black"/>
<path d="M35.6138 33.6574C35.5982 33.8526 35.5294 34.008 35.4052 34.1233C35.2809 34.2387 35.1212 34.2964 34.9259 34.2964C34.7019 34.2964 34.5221 34.2209 34.389 34.0701C34.2537 33.9192 34.1871 33.7195 34.1871 33.4688C34.1871 33.3179 34.216 33.1826 34.2736 33.0583C34.3313 32.9341 34.4179 32.8342 34.5332 32.7588C34.6486 32.6834 34.784 32.6434 34.9393 32.6434C35.1057 32.6434 35.2521 32.69 35.3763 32.7832C35.5006 32.8764 35.5738 33.0095 35.6004 33.1826H35.3253C35.3053 33.0894 35.261 33.014 35.1922 32.9607C35.1212 32.9075 35.0369 32.8786 34.9348 32.8786C34.8283 32.8786 34.7396 32.9097 34.6664 32.9674C34.5931 33.0273 34.5421 33.1005 34.511 33.187C34.48 33.2736 34.4667 33.3667 34.4667 33.4688C34.4667 33.5465 34.4755 33.6197 34.4933 33.6862C34.511 33.755 34.5377 33.8171 34.5732 33.8748C34.6087 33.9325 34.6553 33.9769 34.7174 34.0102C34.7795 34.0457 34.8505 34.0612 34.9326 34.0612C35.1678 34.0612 35.3009 33.9281 35.3364 33.6574H35.6138Z" fill="black"/>
<path d="M18.1241 40.1649L18.7343 41.7468H18.437L18.2861 41.3275H17.6604L17.5051 41.7468H17.2189L17.829 40.1649H18.1241ZM18.2129 41.1189L17.9777 40.4533L17.7314 41.1189H18.2129Z" fill="black"/>
<path d="M44.2581 41.5538H44.9792C45.1434 41.5538 45.2698 41.5915 45.3586 41.6625C45.4473 41.7335 45.4917 41.8312 45.4917 41.951C45.4917 42.0264 45.4695 42.0952 45.4296 42.1551C45.3874 42.215 45.3319 42.2572 45.2654 42.2838C45.3563 42.306 45.4296 42.3503 45.4828 42.4169C45.5361 42.4835 45.5627 42.5678 45.5627 42.6676C45.5627 42.8074 45.5161 42.9205 45.4229 43.0049C45.3297 43.0914 45.2099 43.1335 45.0635 43.1335H44.2581V41.5538ZM44.5288 41.7779V42.2128H44.9059C45.0124 42.2128 45.0901 42.1972 45.1411 42.164C45.1899 42.1307 45.2166 42.0752 45.2166 41.9953C45.2166 41.9066 45.1899 41.8489 45.1367 41.8201C45.0834 41.7934 45.0102 41.7779 44.9148 41.7779H44.5288ZM44.5288 42.4125V42.9072H44.9437C45.0502 42.9072 45.1323 42.8895 45.1944 42.854C45.2543 42.8185 45.2854 42.7541 45.2854 42.661C45.2854 42.6099 45.2743 42.5678 45.2565 42.5323C45.2388 42.4968 45.2121 42.4724 45.1766 42.4546C45.1411 42.4391 45.1056 42.428 45.0701 42.4213C45.0324 42.4169 44.988 42.4125 44.9392 42.4125H44.5288Z" fill="black"/>
<path d="M35.6953 31.5654V31.6209H35.7508V31.5654H35.6953ZM33.4766 31.5654L34.0312 31.8856V31.2452L33.4766 31.5654ZM35.6953 29.7627H35.6398V31.5654H35.6953H35.7508V29.7627H35.6953ZM35.6953 31.5654V31.5099H33.9758V31.5654V31.6209H35.6953V31.5654Z" fill="black"/>
<path d="M5.32812 35.5868L5.77077 36.0497L5.95034 35.4349L5.32812 35.5868ZM33.3395 43.7683L32.8968 43.3054L32.7172 43.9202L33.3395 43.7683ZM5.80732 35.7268L5.79176 35.78L32.8447 43.6816L32.8603 43.6284L32.8758 43.5751L5.82287 35.6735L5.80732 35.7268Z" fill="black"/>
<path d="M33.4766 43.6297L34.0953 43.7952L33.9292 43.1766L33.4766 43.6297ZM54.1384 38.0829L53.5196 37.9174L53.6857 38.536L54.1384 38.0829ZM33.9587 43.5003L33.9731 43.5538L53.6706 38.2659L53.6563 38.2123L53.6419 38.1587L33.9443 43.4467L33.9587 43.5003Z" fill="black"/>
</svg>
