<svg width="176" height="136" viewBox="0 0 176 136" fill="none" xmlns="http://www.w3.org/2000/svg">
<path d="M0 16C0 7.16344 7.16344 0 16 0H160C168.837 0 176 7.16344 176 16V120C176 128.837 168.837 136 160 136H16C7.16344 136 0 128.837 0 120V16Z" fill="white"/>
<path d="M16 0.5H160C168.56 0.5 175.5 7.43959 175.5 16V120C175.5 128.56 168.56 135.5 160 135.5H16C7.43959 135.5 0.5 128.56 0.5 120V16C0.5 7.43959 7.43959 0.5 16 0.5Z" stroke="#B02E0C" stroke-opacity="0.16"/>
<path d="M78.3359 107.449L84.1333 113.282L89.6808 118.861L91.5041 120.54L100.912 113.282V87.0237L91.5041 94.2811L78.3359 107.449Z" fill="#F7941D"/>
<path d="M91.505 120.781C91.4462 120.781 91.3874 120.76 91.3412 120.716L89.5179 119.04L78.1646 107.619C78.0701 107.525 78.0701 107.372 78.1646 107.277L91.3328 94.1089L100.766 86.8306C100.84 86.7739 100.938 86.7634 101.02 86.8054C101.102 86.8453 101.155 86.9293 101.155 87.0217V113.28C101.155 113.356 101.119 113.425 101.06 113.471L91.6499 120.729C91.6079 120.764 91.5554 120.781 91.505 120.781ZM78.6771 107.451L89.8519 118.693L91.5176 120.225L100.672 113.165V87.5175L91.652 94.4744L78.6771 107.451Z" fill="#F7941D"/>
<path d="M65.2461 94.2809L74.6543 103.746L78.3365 107.449L91.5046 94.2809L100.913 87.0236H74.6543L65.2461 94.2809Z" fill="#F7941D"/>
<path d="M78.3324 107.691C78.2673 107.691 78.2064 107.665 78.1602 107.619L65.0697 94.4512C65.0214 94.4008 64.9963 94.3335 65.0005 94.2642C65.0047 94.1949 65.0404 94.1298 65.095 94.0878L74.5031 86.8305C74.5452 86.7969 74.5977 86.7801 74.6502 86.7801H100.909C101.012 86.7801 101.104 86.8452 101.138 86.9439C101.171 87.0427 101.138 87.1498 101.056 87.2128L91.6455 94.4701L78.5004 107.619C78.4584 107.665 78.3954 107.691 78.3324 107.691ZM65.6075 94.3041L78.3324 107.105L91.3283 94.1088L100.199 87.2632H74.7342L65.6075 94.3041Z" fill="#F7941D"/>
<path d="M91.5046 94.281H65.2461V120.539H91.5046V94.281Z" fill="#F7941D"/>
<path d="M91.5001 120.781H65.2415C65.1092 120.781 65 120.672 65 120.539V94.281C65 94.1466 65.1092 94.0394 65.2415 94.0394H91.5001C91.6345 94.0394 91.7416 94.1466 91.7416 94.281V120.539C91.7416 120.674 91.6345 120.781 91.5001 120.781ZM65.4831 120.298H91.2585V94.5226H65.4831V120.298Z" fill="#F7941D"/>
<path d="M91.5041 120.54L100.912 113.282V87.0237L91.5041 94.2811L78.3359 107.449L84.1333 113.282L89.6808 118.861L91.5041 120.54Z" fill="#F7941D"/>
<path opacity="0.5" d="M91.5041 120.54L100.912 113.282V87.0237L91.5041 94.2811L78.3359 107.449L84.1333 113.282L89.6808 118.861L91.5041 120.54Z" fill="#A85C00"/>
<path d="M91.505 120.781C91.4462 120.781 91.3874 120.76 91.3412 120.716L89.5179 119.04L78.1646 107.619C78.0701 107.525 78.0701 107.372 78.1646 107.277L91.3328 94.1089L100.766 86.8306C100.84 86.7739 100.938 86.7634 101.02 86.8054C101.102 86.8453 101.155 86.9293 101.155 87.0217V113.28C101.155 113.356 101.119 113.425 101.06 113.471L91.6499 120.729C91.6079 120.764 91.5554 120.781 91.505 120.781ZM78.6771 107.451L89.8519 118.693L91.5176 120.225L100.672 113.165V87.5175L91.652 94.4744L78.6771 107.451Z" fill="#F7941D"/>
<path d="M65.2461 94.2809L74.6543 103.746L78.3365 107.449L91.5046 94.2809L100.913 87.0236H74.6543L65.2461 94.2809Z" fill="#F7941D"/>
<path d="M65.2461 94.2809L74.6543 103.746L78.3365 107.449L91.5046 94.2809L100.913 87.0236H74.6543L65.2461 94.2809Z" fill="#F7941D"/>
<path d="M78.3324 107.691C78.2673 107.691 78.2064 107.665 78.1602 107.619L65.0697 94.4512C65.0214 94.4008 64.9963 94.3335 65.0005 94.2642C65.0047 94.1949 65.0404 94.1298 65.095 94.0878L74.5031 86.8305C74.5452 86.7969 74.5977 86.7801 74.6502 86.7801H100.909C101.012 86.7801 101.104 86.8452 101.138 86.9439C101.171 87.0427 101.138 87.1498 101.056 87.2128L91.6455 94.4701L78.5004 107.619C78.4584 107.665 78.3954 107.691 78.3324 107.691ZM65.6075 94.3041L78.3324 107.105L91.3283 94.1088L100.199 87.2632H74.7342L65.6075 94.3041Z" fill="#F7941D"/>
<path d="M91.5001 120.781H65.2415C65.1092 120.781 65 120.672 65 120.539V94.281C65 94.1466 65.1092 94.0394 65.2415 94.0394H91.5001C91.6345 94.0394 91.7416 94.1466 91.7416 94.281V120.539C91.7416 120.674 91.6345 120.781 91.5001 120.781ZM65.4831 120.298H91.2585V94.5226H65.4831V120.298Z" fill="#F7941D"/>
<path d="M91.505 120.781C91.4462 120.781 91.3874 120.76 91.3412 120.716L89.5179 119.04L78.1646 107.619C78.0701 107.525 78.0701 107.372 78.1646 107.277L91.3328 94.1089L100.766 86.8306C100.84 86.7739 100.938 86.7634 101.02 86.8054C101.102 86.8453 101.155 86.9293 101.155 87.0217V113.28C101.155 113.356 101.119 113.425 101.06 113.471L91.6499 120.729C91.6079 120.764 91.5554 120.781 91.505 120.781ZM78.6771 107.451L89.8519 118.693L91.5176 120.225L100.672 113.165V87.5175L91.652 94.4744L78.6771 107.451Z" fill="#F7941D"/>
<path d="M78.3324 107.691C78.2673 107.691 78.2064 107.665 78.1602 107.619L65.0697 94.4512C65.0214 94.4008 64.9963 94.3335 65.0005 94.2642C65.0047 94.1949 65.0404 94.1298 65.095 94.0878L74.5031 86.8305C74.5452 86.7969 74.5977 86.7801 74.6502 86.7801H100.909C101.012 86.7801 101.104 86.8452 101.138 86.9439C101.171 87.0427 101.138 87.1498 101.056 87.2128L91.6455 94.4701L78.5004 107.619C78.4584 107.665 78.3954 107.691 78.3324 107.691ZM65.6075 94.3041L78.3324 107.105L91.3283 94.1088L100.199 87.2632H74.7342L65.6075 94.3041Z" fill="#F7941D"/>
<path d="M91.5001 120.781H65.2415C65.1092 120.781 65 120.672 65 120.539V94.281C65 94.1466 65.1092 94.0394 65.2415 94.0394H91.5001C91.6345 94.0394 91.7416 94.1466 91.7416 94.281V120.539C91.7416 120.674 91.6345 120.781 91.5001 120.781ZM65.4831 120.298H91.2585V94.5226H65.4831V120.298Z" fill="#F7941D"/>
<path d="M91.505 120.781C91.4462 120.781 91.3874 120.76 91.3412 120.716L89.5179 119.04L78.1646 107.619C78.0701 107.525 78.0701 107.372 78.1646 107.277L91.3328 94.1089L100.766 86.8306C100.84 86.7739 100.938 86.7634 101.02 86.8054C101.102 86.8453 101.155 86.9293 101.155 87.0217V113.28C101.155 113.356 101.119 113.425 101.06 113.471L91.6499 120.729C91.6079 120.764 91.5554 120.781 91.505 120.781ZM78.6771 107.451L89.8519 118.693L91.5176 120.225L100.672 113.165V87.5175L91.652 94.4744L78.6771 107.451Z" fill="#F7941D"/>
<path d="M91.505 120.781C91.4462 120.781 91.3874 120.76 91.3412 120.716L89.5179 119.04L78.1646 107.619C78.0701 107.525 78.0701 107.372 78.1646 107.277L91.3328 94.1089L100.766 86.8306C100.84 86.7739 100.938 86.7634 101.02 86.8054C101.102 86.8453 101.155 86.9293 101.155 87.0217V113.28C101.155 113.356 101.119 113.425 101.06 113.471L91.6499 120.729C91.6079 120.764 91.5554 120.781 91.505 120.781ZM78.6771 107.451L89.8519 118.693L91.5176 120.225L100.672 113.165V87.5175L91.652 94.4744L78.6771 107.451Z" fill="#F7941D"/>
<path d="M91.505 120.781C91.4462 120.781 91.3874 120.76 91.3412 120.716L89.5179 119.04L78.1646 107.619C78.0701 107.525 78.0701 107.372 78.1646 107.277L91.3328 94.1089L100.766 86.8306C100.84 86.7739 100.938 86.7634 101.02 86.8054C101.102 86.8453 101.155 86.9293 101.155 87.0217V113.28C101.155 113.356 101.119 113.425 101.06 113.471L91.6499 120.729C91.6079 120.764 91.5554 120.781 91.505 120.781ZM78.6771 107.451L89.8519 118.693L91.5176 120.225L100.672 113.165V87.5175L91.652 94.4744L78.6771 107.451Z" fill="#FFAE4D"/>
<path d="M78.3324 107.691C78.2673 107.691 78.2064 107.665 78.1602 107.619L65.0697 94.4512C65.0214 94.4008 64.9963 94.3335 65.0005 94.2642C65.0047 94.1949 65.0404 94.1298 65.095 94.0878L74.5031 86.8305C74.5452 86.7969 74.5977 86.7801 74.6502 86.7801H100.909C101.012 86.7801 101.104 86.8452 101.138 86.9439C101.171 87.0427 101.138 87.1498 101.056 87.2128L91.6455 94.4701L78.5004 107.619C78.4584 107.665 78.3954 107.691 78.3324 107.691ZM65.6075 94.3041L78.3324 107.105L91.3283 94.1088L100.199 87.2632H74.7342L65.6075 94.3041Z" fill="#F7941D"/>
<path d="M78.3324 107.691C78.2673 107.691 78.2064 107.665 78.1602 107.619L65.0697 94.4512C65.0214 94.4008 64.9963 94.3335 65.0005 94.2642C65.0047 94.1949 65.0404 94.1298 65.095 94.0878L74.5031 86.8305C74.5452 86.7969 74.5977 86.7801 74.6502 86.7801H100.909C101.012 86.7801 101.104 86.8452 101.138 86.9439C101.171 87.0427 101.138 87.1498 101.056 87.2128L91.6455 94.4701L78.5004 107.619C78.4584 107.665 78.3954 107.691 78.3324 107.691ZM65.6075 94.3041L78.3324 107.105L91.3283 94.1088L100.199 87.2632H74.7342L65.6075 94.3041Z" fill="#F7941D"/>
<path d="M78.3324 107.691C78.2673 107.691 78.2064 107.665 78.1602 107.619L65.0697 94.4512C65.0214 94.4008 64.9963 94.3335 65.0005 94.2642C65.0047 94.1949 65.0404 94.1298 65.095 94.0878L74.5031 86.8305C74.5452 86.7969 74.5977 86.7801 74.6502 86.7801H100.909C101.012 86.7801 101.104 86.8452 101.138 86.9439C101.171 87.0427 101.138 87.1498 101.056 87.2128L91.6455 94.4701L78.5004 107.619C78.4584 107.665 78.3954 107.691 78.3324 107.691ZM65.6075 94.3041L78.3324 107.105L91.3283 94.1088L100.199 87.2632H74.7342L65.6075 94.3041Z" fill="#F7941D"/>
<path d="M78.3324 107.691C78.2673 107.691 78.2064 107.665 78.1602 107.619L65.0697 94.4512C65.0214 94.4008 64.9963 94.3335 65.0005 94.2642C65.0047 94.1949 65.0404 94.1298 65.095 94.0878L74.5031 86.8305C74.5452 86.7969 74.5977 86.7801 74.6502 86.7801H100.909C101.012 86.7801 101.104 86.8452 101.138 86.9439C101.171 87.0427 101.138 87.1498 101.056 87.2128L91.6455 94.4701L78.5004 107.619C78.4584 107.665 78.3954 107.691 78.3324 107.691ZM65.6075 94.3041L78.3324 107.105L91.3283 94.1088L100.199 87.2632H74.7342L65.6075 94.3041Z" fill="#F7941D"/>
<path d="M91.5001 120.781H65.2415C65.1092 120.781 65 120.672 65 120.539V94.281C65 94.1466 65.1092 94.0394 65.2415 94.0394H91.5001C91.6345 94.0394 91.7416 94.1466 91.7416 94.281V120.539C91.7416 120.674 91.6345 120.781 91.5001 120.781ZM65.4831 120.298H91.2585V94.5226H65.4831V120.298Z" fill="#F7941D"/>
<path d="M91.5046 94.281H65.2461V120.539H91.5046V94.281Z" fill="#FF9411"/>
<path d="M91.5001 120.781H65.2415C65.1092 120.781 65 120.672 65 120.539V94.281C65 94.1466 65.1092 94.0394 65.2415 94.0394H91.5001C91.6345 94.0394 91.7416 94.1466 91.7416 94.281V120.539C91.7416 120.674 91.6345 120.781 91.5001 120.781ZM65.4831 120.298H91.2585V94.5226H65.4831V120.298Z" fill="#F7941D"/>
<path d="M91.5001 120.781H65.2415C65.1092 120.781 65 120.672 65 120.539V94.281C65 94.1466 65.1092 94.0394 65.2415 94.0394H91.5001C91.6345 94.0394 91.7416 94.1466 91.7416 94.281V120.539C91.7416 120.674 91.6345 120.781 91.5001 120.781ZM65.4831 120.298H91.2585V94.5226H65.4831V120.298Z" fill="#FFAE4D"/>
<path d="M78.3359 81.1911L84.1333 87.0243L89.6808 92.6033L91.5041 94.2816L100.912 87.0243V60.7657L91.5041 68.0231L78.3359 81.1911Z" fill="#F7941D"/>
<path d="M91.505 94.523C91.4462 94.523 91.3874 94.502 91.3412 94.4579L89.5179 92.7817L78.1646 81.3612C78.0701 81.2667 78.0701 81.1133 78.1646 81.0188L91.3328 67.8507L100.766 60.5724C100.84 60.5157 100.938 60.5052 101.02 60.5472C101.102 60.5871 101.155 60.6712 101.155 60.7636V87.0221C101.155 87.0977 101.119 87.167 101.06 87.2132L91.6499 94.4705C91.6079 94.5062 91.5554 94.523 91.505 94.523ZM78.6771 81.191L89.8519 92.433L91.5176 93.9643L100.672 86.9044V61.2572L91.652 68.2141L78.6771 81.191Z" fill="#F7941D"/>
<path d="M65.2461 68.0229L74.6543 77.4878L78.3365 81.191L91.5046 68.0229L100.913 60.7656H74.6543L65.2461 68.0229Z" fill="#F7941D"/>
<path d="M78.3324 81.4327C78.2673 81.4327 78.2064 81.4075 78.1602 81.3613L65.0697 68.1932C65.0214 68.1428 64.9963 68.0756 65.0005 68.0063C65.0047 67.9369 65.0404 67.8718 65.095 67.8298L74.5031 60.5725C74.5452 60.5389 74.5977 60.5221 74.6523 60.5221H100.911C101.014 60.5221 101.106 60.5872 101.14 60.6859C101.173 60.7847 101.14 60.8939 101.058 60.9549L91.6475 68.2121L78.5025 81.3613C78.4584 81.4075 78.3954 81.4327 78.3324 81.4327ZM65.6075 68.0461L78.3324 80.8467L91.3283 67.8487L100.199 61.0052H74.7342L65.6075 68.0461Z" fill="#F7941D"/>
<path d="M91.5046 68.0229H65.2461V94.2814H91.5046V68.0229Z" fill="#F7941D"/>
<path d="M91.5001 94.5229H65.2415C65.1092 94.5229 65 94.4137 65 94.2814V68.0228C65 67.8884 65.1092 67.7813 65.2415 67.7813H91.5001C91.6345 67.7813 91.7416 67.8905 91.7416 68.0228V94.2814C91.7416 94.4137 91.6345 94.5229 91.5001 94.5229ZM65.4831 94.0398H91.2585V68.2644H65.4831V94.0398Z" fill="#F7941D"/>
<path d="M91.5041 94.2816L100.912 87.0243V60.7657L91.5041 68.0231L78.3359 81.1911L84.1333 87.0243L89.6808 92.6033L91.5041 94.2816Z" fill="#F7941D"/>
<path opacity="0.5" d="M91.5041 94.2816L100.912 87.0243V60.7657L91.5041 68.0231L78.3359 81.1911L84.1333 87.0243L89.6808 92.6033L91.5041 94.2816Z" fill="#A85C00"/>
<path d="M91.505 94.523C91.4462 94.523 91.3874 94.502 91.3412 94.4579L89.5179 92.7817L78.1646 81.3612C78.0701 81.2667 78.0701 81.1133 78.1646 81.0188L91.3328 67.8507L100.766 60.5724C100.84 60.5157 100.938 60.5052 101.02 60.5472C101.102 60.5871 101.155 60.6712 101.155 60.7636V87.0221C101.155 87.0977 101.119 87.167 101.06 87.2132L91.6499 94.4705C91.6079 94.5062 91.5554 94.523 91.505 94.523ZM78.6771 81.191L89.8519 92.433L91.5176 93.9643L100.672 86.9044V61.2572L91.652 68.2141L78.6771 81.191Z" fill="#F7941D"/>
<path d="M65.2461 68.0228L74.6543 77.4877L78.3365 81.1909L91.5046 68.0228L100.913 60.7655H74.6543L65.2461 68.0228Z" fill="#F7941D"/>
<path d="M65.2461 68.0228L74.6543 77.4877L78.3365 81.1909L91.5046 68.0228L100.913 60.7655H74.6543L65.2461 68.0228Z" fill="#F7941D"/>
<path d="M78.3324 81.4326C78.2673 81.4326 78.2064 81.4074 78.1602 81.3612L65.0697 68.1931C65.0214 68.1427 64.9963 68.0755 65.0005 68.0061C65.0047 67.9368 65.0404 67.8717 65.095 67.8297L74.5031 60.5724C74.5452 60.5388 74.5977 60.522 74.6523 60.522H100.911C101.014 60.522 101.106 60.5871 101.14 60.6858C101.173 60.7845 101.14 60.8938 101.058 60.9547L91.6475 68.212L78.5025 81.3612C78.4584 81.4074 78.3954 81.4326 78.3324 81.4326ZM65.6075 68.046L78.3324 80.8465L91.3283 67.8486L100.199 61.0051H74.7342L65.6075 68.046Z" fill="#F7941D"/>
<path d="M91.5001 94.5231H65.2415C65.1092 94.5231 65 94.4139 65 94.2816V68.023C65 67.8886 65.1092 67.7815 65.2415 67.7815H91.5001C91.6345 67.7815 91.7416 67.8907 91.7416 68.023V94.2816C91.7416 94.4139 91.6345 94.5231 91.5001 94.5231ZM65.4831 94.04H91.2585V68.2646H65.4831V94.04Z" fill="#F7941D"/>
<path d="M91.505 94.523C91.4462 94.523 91.3874 94.502 91.3412 94.4579L89.5179 92.7817L78.1646 81.3612C78.0701 81.2667 78.0701 81.1133 78.1646 81.0188L91.3328 67.8507L100.766 60.5724C100.84 60.5157 100.938 60.5052 101.02 60.5472C101.102 60.5871 101.155 60.6712 101.155 60.7636V87.0221C101.155 87.0977 101.119 87.167 101.06 87.2132L91.6499 94.4705C91.6079 94.5062 91.5554 94.523 91.505 94.523ZM78.6771 81.191L89.8519 92.433L91.5176 93.9643L100.672 86.9044V61.2572L91.652 68.2141L78.6771 81.191Z" fill="#F7941D"/>
<path d="M78.3324 81.4327C78.2673 81.4327 78.2064 81.4075 78.1602 81.3613L65.0697 68.1932C65.0214 68.1428 64.9963 68.0756 65.0005 68.0063C65.0047 67.9369 65.0404 67.8718 65.095 67.8298L74.5031 60.5725C74.5452 60.5389 74.5977 60.5221 74.6523 60.5221H100.911C101.014 60.5221 101.106 60.5872 101.14 60.6859C101.173 60.7847 101.14 60.8939 101.058 60.9549L91.6475 68.2121L78.5025 81.3613C78.4584 81.4075 78.3954 81.4327 78.3324 81.4327ZM65.6075 68.0461L78.3324 80.8467L91.3283 67.8487L100.199 61.0052H74.7342L65.6075 68.0461Z" fill="#F7941D"/>
<path d="M91.5001 94.5231H65.2415C65.1092 94.5231 65 94.4139 65 94.2816V68.023C65 67.8886 65.1092 67.7815 65.2415 67.7815H91.5001C91.6345 67.7815 91.7416 67.8907 91.7416 68.023V94.2816C91.7416 94.4139 91.6345 94.5231 91.5001 94.5231ZM65.4831 94.04H91.2585V68.2646H65.4831V94.04Z" fill="#F7941D"/>
<path d="M91.505 94.523C91.4462 94.523 91.3874 94.502 91.3412 94.4579L89.5179 92.7817L78.1646 81.3612C78.0701 81.2667 78.0701 81.1133 78.1646 81.0188L91.3328 67.8507L100.766 60.5724C100.84 60.5157 100.938 60.5052 101.02 60.5472C101.102 60.5871 101.155 60.6712 101.155 60.7636V87.0221C101.155 87.0977 101.119 87.167 101.06 87.2132L91.6499 94.4705C91.6079 94.5062 91.5554 94.523 91.505 94.523ZM78.6771 81.191L89.8519 92.433L91.5176 93.9643L100.672 86.9044V61.2572L91.652 68.2141L78.6771 81.191Z" fill="#F7941D"/>
<path d="M91.505 94.523C91.4462 94.523 91.3874 94.502 91.3412 94.4579L89.5179 92.7817L78.1646 81.3612C78.0701 81.2667 78.0701 81.1133 78.1646 81.0188L91.3328 67.8507L100.766 60.5724C100.84 60.5157 100.938 60.5052 101.02 60.5472C101.102 60.5871 101.155 60.6712 101.155 60.7636V87.0221C101.155 87.0977 101.119 87.167 101.06 87.2132L91.6499 94.4705C91.6079 94.5062 91.5554 94.523 91.505 94.523ZM78.6771 81.191L89.8519 92.433L91.5176 93.9643L100.672 86.9044V61.2572L91.652 68.2141L78.6771 81.191Z" fill="#F7941D"/>
<path d="M91.505 94.523C91.4462 94.523 91.3874 94.502 91.3412 94.4579L89.5179 92.7817L78.1646 81.3612C78.0701 81.2667 78.0701 81.1133 78.1646 81.0188L91.3328 67.8507L100.766 60.5724C100.84 60.5157 100.938 60.5052 101.02 60.5472C101.102 60.5871 101.155 60.6712 101.155 60.7636V87.0221C101.155 87.0977 101.119 87.167 101.06 87.2132L91.6499 94.4705C91.6079 94.5062 91.5554 94.523 91.505 94.523ZM78.6771 81.191L89.8519 92.433L91.5176 93.9643L100.672 86.9044V61.2572L91.652 68.2141L78.6771 81.191Z" fill="#FFAE4D"/>
<path d="M78.3324 81.4327C78.2673 81.4327 78.2064 81.4075 78.1602 81.3613L65.0697 68.1932C65.0214 68.1428 64.9963 68.0756 65.0005 68.0063C65.0047 67.9369 65.0404 67.8718 65.095 67.8298L74.5031 60.5725C74.5452 60.5389 74.5977 60.5221 74.6523 60.5221H100.911C101.014 60.5221 101.106 60.5872 101.14 60.6859C101.173 60.7847 101.14 60.8939 101.058 60.9549L91.6475 68.2121L78.5025 81.3613C78.4584 81.4075 78.3954 81.4327 78.3324 81.4327ZM65.6075 68.0461L78.3324 80.8467L91.3283 67.8487L100.199 61.0052H74.7342L65.6075 68.0461Z" fill="#F7941D"/>
<path d="M78.3324 81.4327C78.2673 81.4327 78.2064 81.4075 78.1602 81.3613L65.0697 68.1932C65.0214 68.1428 64.9963 68.0756 65.0005 68.0063C65.0047 67.9369 65.0404 67.8718 65.095 67.8298L74.5031 60.5725C74.5452 60.5389 74.5977 60.5221 74.6523 60.5221H100.911C101.014 60.5221 101.106 60.5872 101.14 60.6859C101.173 60.7847 101.14 60.8939 101.058 60.9549L91.6475 68.2121L78.5025 81.3613C78.4584 81.4075 78.3954 81.4327 78.3324 81.4327ZM65.6075 68.0461L78.3324 80.8467L91.3283 67.8487L100.199 61.0052H74.7342L65.6075 68.0461Z" fill="#F7941D"/>
<path d="M78.3324 81.4327C78.2673 81.4327 78.2064 81.4075 78.1602 81.3613L65.0697 68.1932C65.0214 68.1428 64.9963 68.0756 65.0005 68.0063C65.0047 67.9369 65.0404 67.8718 65.095 67.8298L74.5031 60.5725C74.5452 60.5389 74.5977 60.5221 74.6523 60.5221H100.911C101.014 60.5221 101.106 60.5872 101.14 60.6859C101.173 60.7847 101.14 60.8939 101.058 60.9549L91.6475 68.2121L78.5025 81.3613C78.4584 81.4075 78.3954 81.4327 78.3324 81.4327ZM65.6075 68.0461L78.3324 80.8467L91.3283 67.8487L100.199 61.0052H74.7342L65.6075 68.0461Z" fill="#F7941D"/>
<path d="M78.3324 81.4327C78.2673 81.4327 78.2064 81.4075 78.1602 81.3613L65.0697 68.1932C65.0214 68.1428 64.9963 68.0756 65.0005 68.0063C65.0047 67.9369 65.0404 67.8718 65.095 67.8298L74.5031 60.5725C74.5452 60.5389 74.5977 60.5221 74.6523 60.5221H100.911C101.014 60.5221 101.106 60.5872 101.14 60.6859C101.173 60.7847 101.14 60.8939 101.058 60.9549L91.6475 68.2121L78.5025 81.3613C78.4584 81.4075 78.3954 81.4327 78.3324 81.4327ZM65.6075 68.0461L78.3324 80.8467L91.3283 67.8487L100.199 61.0052H74.7342L65.6075 68.0461Z" fill="#F7941D"/>
<path d="M91.5001 94.5231H65.2415C65.1092 94.5231 65 94.4139 65 94.2816V68.023C65 67.8886 65.1092 67.7815 65.2415 67.7815H91.5001C91.6345 67.7815 91.7416 67.8907 91.7416 68.023V94.2816C91.7416 94.4139 91.6345 94.5231 91.5001 94.5231ZM65.4831 94.04H91.2585V68.2646H65.4831V94.04Z" fill="#F7941D"/>
<path d="M91.5046 68.023H65.2461V94.2815H91.5046V68.023Z" fill="#FF9411"/>
<path d="M91.5001 94.5231H65.2415C65.1092 94.5231 65 94.4139 65 94.2816V68.023C65 67.8886 65.1092 67.7815 65.2415 67.7815H91.5001C91.6345 67.7815 91.7416 67.8907 91.7416 68.023V94.2816C91.7416 94.4139 91.6345 94.5231 91.5001 94.5231ZM65.4831 94.04H91.2585V68.2646H65.4831V94.04Z" fill="#F7941D"/>
<path d="M91.5001 94.5231H65.2415C65.1092 94.5231 65 94.4139 65 94.2816V68.023C65 67.8886 65.1092 67.7815 65.2415 67.7815H91.5001C91.6345 67.7815 91.7416 67.8907 91.7416 68.023V94.2816C91.7416 94.4139 91.6345 94.5231 91.5001 94.5231ZM65.4831 94.04H91.2585V68.2646H65.4831V94.04Z" fill="#FFAE4D"/>
<path d="M78.3359 54.9323L84.1333 60.7654L89.6808 66.3444L91.5041 68.0227L100.912 60.7654V34.5048L91.5041 41.7621L78.3359 54.9323Z" fill="#F7941D"/>
<path d="M91.505 68.2643C91.4462 68.2643 91.3874 68.2432 91.3412 68.1991L89.5179 66.5209L78.1646 55.1003C78.0701 55.0058 78.0701 54.8525 78.1646 54.758L91.3328 41.5899L100.766 34.3116C100.84 34.2549 100.938 34.2444 101.02 34.2864C101.102 34.3263 101.155 34.4103 101.155 34.5027V60.7612C101.155 60.8369 101.119 60.9062 101.06 60.9524L91.6499 68.2096C91.6079 68.2475 91.5554 68.2643 91.505 68.2643ZM78.6771 54.9323L89.8519 66.1743L91.5176 67.7055L100.672 60.6457V34.9985L91.652 41.9553L78.6771 54.9323Z" fill="#F7941D"/>
<path d="M65.2461 41.7621L74.6543 51.2291L78.3365 54.9323L91.5046 41.7621L100.913 34.5048H74.6543L65.2461 41.7621Z" fill="#F7941D"/>
<path d="M78.3324 55.1743C78.2673 55.1743 78.2064 55.1491 78.1602 55.1029L65.0697 41.9348C65.0214 41.8844 64.9963 41.8171 65.0005 41.7478C65.0047 41.6785 65.0404 41.6134 65.095 41.5714L74.5031 34.3141C74.5452 34.2805 74.5977 34.2637 74.6523 34.2637H100.911C101.014 34.2637 101.106 34.3288 101.14 34.4275C101.173 34.5241 101.14 34.6334 101.058 34.6964L91.6475 41.9536L78.5025 55.1029C78.4584 55.1491 78.3954 55.1743 78.3324 55.1743ZM65.6075 41.7877L78.3324 54.5883L91.3283 41.5924L100.199 34.7489H74.7342L65.6075 41.7877Z" fill="#F7941D"/>
<path d="M91.5046 41.7621H65.2461V68.0206H91.5046V41.7621Z" fill="#F7941D"/>
<path d="M91.5001 68.2643H65.2415C65.1092 68.2643 65 68.155 65 68.0227V41.7642C65 41.6297 65.1092 41.5226 65.2415 41.5226H91.5001C91.6345 41.5226 91.7416 41.6297 91.7416 41.7642V68.0227C91.7416 68.155 91.6345 68.2643 91.5001 68.2643ZM65.4831 67.7791H91.2585V42.0036H65.4831V67.7791Z" fill="#F7941D"/>
<path d="M91.5041 68.0227L100.912 60.7654V34.5048L91.5041 41.7621L78.3359 54.9323L84.1333 60.7654L89.6808 66.3444L91.5041 68.0227Z" fill="#F7941D"/>
<path opacity="0.5" d="M91.5041 68.0227L100.912 60.7654V34.5048L91.5041 41.7621L78.3359 54.9323L84.1333 60.7654L89.6808 66.3444L91.5041 68.0227Z" fill="#A85C00"/>
<path d="M91.505 68.2641C91.4462 68.2641 91.3874 68.2431 91.3412 68.199L89.5179 66.5207L78.1646 55.1002C78.0701 55.0057 78.0701 54.8524 78.1646 54.7579L91.3328 41.5897L100.766 34.3114C100.84 34.2547 100.938 34.2442 101.02 34.2862C101.102 34.3262 101.155 34.4102 101.155 34.5026V60.7611C101.155 60.8367 101.119 60.9061 101.06 60.9523L91.6499 68.2095C91.6079 68.2473 91.5554 68.2641 91.505 68.2641ZM78.6771 54.9322L89.8519 66.1741L91.5176 67.7054L100.672 60.6456V34.9983L91.652 41.9552L78.6771 54.9322Z" fill="#F7941D"/>
<path d="M65.2461 41.7621L74.6543 51.2291L78.3365 54.9323L91.5046 41.7621L100.913 34.5048H74.6543L65.2461 41.7621Z" fill="#F7941D"/>
<path d="M65.2461 41.7621L74.6543 51.2291L78.3365 54.9323L91.5046 41.7621L100.913 34.5048H74.6543L65.2461 41.7621Z" fill="#F7941D"/>
<path d="M78.3324 55.1743C78.2673 55.1743 78.2064 55.1491 78.1602 55.1029L65.0697 41.9348C65.0214 41.8844 64.9963 41.8171 65.0005 41.7478C65.0047 41.6785 65.0404 41.6134 65.095 41.5714L74.5031 34.3141C74.5452 34.2805 74.5977 34.2637 74.6523 34.2637H100.911C101.014 34.2637 101.106 34.3288 101.14 34.4275C101.173 34.5241 101.14 34.6334 101.058 34.6964L91.6475 41.9536L78.5025 55.1029C78.4584 55.1491 78.3954 55.1743 78.3324 55.1743ZM65.6075 41.7877L78.3324 54.5883L91.3283 41.5924L100.199 34.7489H74.7342L65.6075 41.7877Z" fill="#F7941D"/>
<path d="M91.5001 68.2643H65.2415C65.1092 68.2643 65 68.155 65 68.0227V41.7642C65 41.6297 65.1092 41.5226 65.2415 41.5226H91.5001C91.6345 41.5226 91.7416 41.6297 91.7416 41.7642V68.0227C91.7416 68.155 91.6345 68.2643 91.5001 68.2643ZM65.4831 67.7791H91.2585V42.0036H65.4831V67.7791Z" fill="#F7941D"/>
<path d="M91.505 68.2643C91.4462 68.2643 91.3874 68.2432 91.3412 68.1991L89.5179 66.5209L78.1646 55.1003C78.0701 55.0058 78.0701 54.8525 78.1646 54.758L91.3328 41.5899L100.766 34.3116C100.84 34.2549 100.938 34.2444 101.02 34.2864C101.102 34.3263 101.155 34.4103 101.155 34.5027V60.7612C101.155 60.8369 101.119 60.9062 101.06 60.9524L91.6499 68.2096C91.6079 68.2475 91.5554 68.2643 91.505 68.2643ZM78.6771 54.9323L89.8519 66.1743L91.5176 67.7055L100.672 60.6457V34.9985L91.652 41.9553L78.6771 54.9323Z" fill="#F7941D"/>
<path d="M78.3324 55.1743C78.2673 55.1743 78.2064 55.1491 78.1602 55.1029L65.0697 41.9348C65.0214 41.8844 64.9963 41.8171 65.0005 41.7478C65.0047 41.6785 65.0404 41.6134 65.095 41.5714L74.5031 34.3141C74.5452 34.2805 74.5977 34.2637 74.6523 34.2637H100.911C101.014 34.2637 101.106 34.3288 101.14 34.4275C101.173 34.5241 101.14 34.6334 101.058 34.6964L91.6475 41.9536L78.5025 55.1029C78.4584 55.1491 78.3954 55.1743 78.3324 55.1743ZM65.6075 41.7877L78.3324 54.5883L91.3283 41.5924L100.199 34.7489H74.7342L65.6075 41.7877Z" fill="#F7941D"/>
<path d="M91.5001 68.2643H65.2415C65.1092 68.2643 65 68.155 65 68.0227V41.7642C65 41.6297 65.1092 41.5226 65.2415 41.5226H91.5001C91.6345 41.5226 91.7416 41.6297 91.7416 41.7642V68.0227C91.7416 68.155 91.6345 68.2643 91.5001 68.2643ZM65.4831 67.7791H91.2585V42.0036H65.4831V67.7791Z" fill="#F7941D"/>
<path d="M91.505 68.2643C91.4462 68.2643 91.3874 68.2432 91.3412 68.1991L89.5179 66.5209L78.1646 55.1003C78.0701 55.0058 78.0701 54.8525 78.1646 54.758L91.3328 41.5899L100.766 34.3116C100.84 34.2549 100.938 34.2444 101.02 34.2864C101.102 34.3263 101.155 34.4103 101.155 34.5027V60.7612C101.155 60.8369 101.119 60.9062 101.06 60.9524L91.6499 68.2096C91.6079 68.2475 91.5554 68.2643 91.505 68.2643ZM78.6771 54.9323L89.8519 66.1743L91.5176 67.7055L100.672 60.6457V34.9985L91.652 41.9553L78.6771 54.9323Z" fill="#F7941D"/>
<path d="M91.505 68.2643C91.4462 68.2643 91.3874 68.2432 91.3412 68.1991L89.5179 66.5209L78.1646 55.1003C78.0701 55.0058 78.0701 54.8525 78.1646 54.758L91.3328 41.5899L100.766 34.3116C100.84 34.2549 100.938 34.2444 101.02 34.2864C101.102 34.3263 101.155 34.4103 101.155 34.5027V60.7612C101.155 60.8369 101.119 60.9062 101.06 60.9524L91.6499 68.2096C91.6079 68.2475 91.5554 68.2643 91.505 68.2643ZM78.6771 54.9323L89.8519 66.1743L91.5176 67.7055L100.672 60.6457V34.9985L91.652 41.9553L78.6771 54.9323Z" fill="#F7941D"/>
<path d="M91.505 68.2643C91.4462 68.2643 91.3874 68.2432 91.3412 68.1991L89.5179 66.5209L78.1646 55.1003C78.0701 55.0058 78.0701 54.8525 78.1646 54.758L91.3328 41.5899L100.766 34.3116C100.84 34.2549 100.938 34.2444 101.02 34.2864C101.102 34.3263 101.155 34.4103 101.155 34.5027V60.7612C101.155 60.8369 101.119 60.9062 101.06 60.9524L91.6499 68.2096C91.6079 68.2475 91.5554 68.2643 91.505 68.2643ZM78.6771 54.9323L89.8519 66.1743L91.5176 67.7055L100.672 60.6457V34.9985L91.652 41.9553L78.6771 54.9323Z" fill="#FFAE4D"/>
<path d="M78.3324 55.1743C78.2673 55.1743 78.2064 55.1491 78.1602 55.1029L65.0697 41.9348C65.0214 41.8844 64.9963 41.8171 65.0005 41.7478C65.0047 41.6785 65.0404 41.6134 65.095 41.5714L74.5031 34.3141C74.5452 34.2805 74.5977 34.2637 74.6523 34.2637H100.911C101.014 34.2637 101.106 34.3288 101.14 34.4275C101.173 34.5241 101.14 34.6334 101.058 34.6964L91.6475 41.9536L78.5025 55.1029C78.4584 55.1491 78.3954 55.1743 78.3324 55.1743ZM65.6075 41.7877L78.3324 54.5883L91.3283 41.5924L100.199 34.7489H74.7342L65.6075 41.7877Z" fill="#F7941D"/>
<path d="M78.3324 55.1743C78.2673 55.1743 78.2064 55.1491 78.1602 55.1029L65.0697 41.9348C65.0214 41.8844 64.9963 41.8171 65.0005 41.7478C65.0047 41.6785 65.0404 41.6134 65.095 41.5714L74.5031 34.3141C74.5452 34.2805 74.5977 34.2637 74.6523 34.2637H100.911C101.014 34.2637 101.106 34.3288 101.14 34.4275C101.173 34.5241 101.14 34.6334 101.058 34.6964L91.6475 41.9536L78.5025 55.1029C78.4584 55.1491 78.3954 55.1743 78.3324 55.1743ZM65.6075 41.7877L78.3324 54.5883L91.3283 41.5924L100.199 34.7489H74.7342L65.6075 41.7877Z" fill="#F7941D"/>
<path d="M78.3324 55.1743C78.2673 55.1743 78.2064 55.1491 78.1602 55.1029L65.0697 41.9348C65.0214 41.8844 64.9963 41.8171 65.0005 41.7478C65.0047 41.6785 65.0404 41.6134 65.095 41.5714L74.5031 34.3141C74.5452 34.2805 74.5977 34.2637 74.6523 34.2637H100.911C101.014 34.2637 101.106 34.3288 101.14 34.4275C101.173 34.5241 101.14 34.6334 101.058 34.6964L91.6475 41.9536L78.5025 55.1029C78.4584 55.1491 78.3954 55.1743 78.3324 55.1743ZM65.6075 41.7877L78.3324 54.5883L91.3283 41.5924L100.199 34.7489H74.7342L65.6075 41.7877Z" fill="#F7941D"/>
<path d="M78.3324 55.1743C78.2673 55.1743 78.2064 55.1491 78.1602 55.1029L65.0697 41.9348C65.0214 41.8844 64.9963 41.8171 65.0005 41.7478C65.0047 41.6785 65.0404 41.6134 65.095 41.5714L74.5031 34.3141C74.5452 34.2805 74.5977 34.2637 74.6523 34.2637H100.911C101.014 34.2637 101.106 34.3288 101.14 34.4275C101.173 34.5241 101.14 34.6334 101.058 34.6964L91.6475 41.9536L78.5025 55.1029C78.4584 55.1491 78.3954 55.1743 78.3324 55.1743ZM65.6075 41.7877L78.3324 54.5883L91.3283 41.5924L100.199 34.7489H74.7342L65.6075 41.7877Z" fill="#F7941D"/>
<path d="M91.5001 68.2643H65.2415C65.1092 68.2643 65 68.155 65 68.0227V41.7642C65 41.6297 65.1092 41.5226 65.2415 41.5226H91.5001C91.6345 41.5226 91.7416 41.6297 91.7416 41.7642V68.0227C91.7416 68.155 91.6345 68.2643 91.5001 68.2643ZM65.4831 67.7791H91.2585V42.0036H65.4831V67.7791Z" fill="#F7941D"/>
<path d="M91.5046 41.7621H65.2461V68.0206H91.5046V41.7621Z" fill="#FF9411"/>
<path d="M91.5001 68.2643H65.2415C65.1092 68.2643 65 68.155 65 68.0227V41.7642C65 41.6297 65.1092 41.5226 65.2415 41.5226H91.5001C91.6345 41.5226 91.7416 41.6297 91.7416 41.7642V68.0227C91.7416 68.155 91.6345 68.2643 91.5001 68.2643ZM65.4831 67.7791H91.2585V42.0036H65.4831V67.7791Z" fill="#F7941D"/>
<path d="M91.5001 68.2643H65.2415C65.1092 68.2643 65 68.155 65 68.0227V41.7642C65 41.6297 65.1092 41.5226 65.2415 41.5226H91.5001C91.6345 41.5226 91.7416 41.6297 91.7416 41.7642V68.0227C91.7416 68.155 91.6345 68.2643 91.5001 68.2643ZM65.4831 67.7791H91.2585V42.0036H65.4831V67.7791Z" fill="#FFAE4D"/>
<path d="M78.3359 28.6715L84.1333 34.5046L89.6808 40.0836L91.5041 41.7619L100.912 34.5046V8.24609L91.5041 15.5034L78.3359 28.6715Z" fill="#F7941D"/>
<path d="M91.505 42.0035C91.4462 42.0035 91.3874 41.9825 91.3412 41.9384L89.5179 40.2601L78.1646 28.8396C78.0701 28.7451 78.0701 28.5918 78.1646 28.4972L91.3328 15.3291L100.766 8.05082C100.84 7.99411 100.938 7.98362 101.02 8.02563C101.102 8.06554 101.155 8.14955 101.155 8.24198V34.5005C101.155 34.5761 101.119 34.6454 101.06 34.6916L91.6499 41.9489C91.6079 41.9867 91.5554 42.0035 91.505 42.0035ZM78.6771 28.6737L89.8519 39.9156L91.5176 41.4469L100.672 34.3871V8.7398L91.652 15.6967L78.6771 28.6737Z" fill="#F7941D"/>
<path d="M65.2461 15.5035L74.6543 24.9684L78.3365 28.6716L91.5046 15.5035L100.913 8.24622H74.6543L65.2461 15.5035Z" fill="#F7941D"/>
<path d="M78.3324 28.9153C78.2673 28.9153 78.2064 28.8901 78.1602 28.8439L65.0697 15.6758C65.0214 15.6253 64.9963 15.5581 65.0005 15.4888C65.0047 15.4195 65.0404 15.3544 65.095 15.3124L74.5031 8.05508C74.5452 8.02148 74.5977 8.0047 74.6523 8.0047H100.911C101.014 8.0047 101.106 8.06979 101.14 8.16851C101.173 8.26724 101.14 8.37438 101.058 8.43739L91.6475 15.6947L78.5025 28.8439C78.4584 28.888 78.3954 28.9153 78.3324 28.9153ZM65.6075 15.5287L78.3324 28.3293L91.3283 15.3334L100.199 8.48781H74.7342L65.6075 15.5287Z" fill="#F7941D"/>
<path d="M91.5046 15.5035H65.2461V41.762H91.5046V15.5035Z" fill="#F7941D"/>
<path d="M91.5001 42.0036H65.2415C65.1092 42.0036 65 41.8965 65 41.7621V15.5035C65 15.3691 65.1092 15.262 65.2415 15.262H91.5001C91.6345 15.262 91.7416 15.3712 91.7416 15.5035V41.7621C91.7416 41.8965 91.6345 42.0036 91.5001 42.0036ZM65.4831 41.5205H91.2585V15.7451H65.4831V41.5205Z" fill="#F7941D"/>
<path d="M91.5041 41.7619L100.912 34.5046V8.24609L91.5041 15.5034L78.3359 28.6715L84.1333 34.5046L89.6808 40.0836L91.5041 41.7619Z" fill="#F7941D"/>
<path opacity="0.5" d="M91.5041 41.7619L100.912 34.5046V8.24609L91.5041 15.5034L78.3359 28.6715L84.1333 34.5046L89.6808 40.0836L91.5041 41.7619Z" fill="#A85C00"/>
<path d="M91.505 42.0035C91.4462 42.0035 91.3874 41.9825 91.3412 41.9384L89.5179 40.2601L78.1646 28.8396C78.0701 28.7451 78.0701 28.5918 78.1646 28.4972L91.3328 15.3291L100.766 8.05082C100.84 7.99411 100.938 7.98362 101.02 8.02563C101.102 8.06554 101.155 8.14955 101.155 8.24198V34.5005C101.155 34.5761 101.119 34.6454 101.06 34.6916L91.6499 41.9489C91.6079 41.9867 91.5554 42.0035 91.505 42.0035ZM78.6771 28.6737L89.8519 39.9156L91.5176 41.4469L100.672 34.3871V8.7398L91.652 15.6967L78.6771 28.6737Z" fill="#F7941D"/>
<path d="M65.2461 15.5035L74.6543 24.9684L78.3365 28.6716L91.5046 15.5035L100.913 8.24622H74.6543L65.2461 15.5035Z" fill="#F7941D"/>
<path d="M65.2461 15.5035L74.6543 24.9684L78.3365 28.6716L91.5046 15.5035L100.913 8.24622H74.6543L65.2461 15.5035Z" fill="#F7941D"/>
<path d="M78.3324 28.9153C78.2673 28.9153 78.2064 28.8901 78.1602 28.8439L65.0697 15.6758C65.0214 15.6253 64.9963 15.5581 65.0005 15.4888C65.0047 15.4195 65.0404 15.3544 65.095 15.3124L74.5031 8.05508C74.5452 8.02148 74.5977 8.0047 74.6523 8.0047H100.911C101.014 8.0047 101.106 8.06979 101.14 8.16851C101.173 8.26724 101.14 8.37438 101.058 8.43739L91.6475 15.6947L78.5025 28.8439C78.4584 28.888 78.3954 28.9153 78.3324 28.9153ZM65.6075 15.5287L78.3324 28.3293L91.3283 15.3334L100.199 8.48781H74.7342L65.6075 15.5287Z" fill="#F7941D"/>
<path d="M91.5001 42.0036H65.2415C65.1092 42.0036 65 41.8965 65 41.7621V15.5035C65 15.3691 65.1092 15.262 65.2415 15.262H91.5001C91.6345 15.262 91.7416 15.3712 91.7416 15.5035V41.7621C91.7416 41.8965 91.6345 42.0036 91.5001 42.0036ZM65.4831 41.5205H91.2585V15.7451H65.4831V41.5205Z" fill="#F7941D"/>
<path d="M91.505 42.0035C91.4462 42.0035 91.3874 41.9825 91.3412 41.9384L89.5179 40.2601L78.1646 28.8396C78.0701 28.7451 78.0701 28.5918 78.1646 28.4972L91.3328 15.3291L100.766 8.05082C100.84 7.99411 100.938 7.98362 101.02 8.02563C101.102 8.06554 101.155 8.14955 101.155 8.24198V34.5005C101.155 34.5761 101.119 34.6454 101.06 34.6916L91.6499 41.9489C91.6079 41.9867 91.5554 42.0035 91.505 42.0035ZM78.6771 28.6737L89.8519 39.9156L91.5176 41.4469L100.672 34.3871V8.7398L91.652 15.6967L78.6771 28.6737Z" fill="#F7941D"/>
<path d="M78.3324 28.9153C78.2673 28.9153 78.2064 28.8901 78.1602 28.8439L65.0697 15.6758C65.0214 15.6253 64.9963 15.5581 65.0005 15.4888C65.0047 15.4195 65.0404 15.3544 65.095 15.3124L74.5031 8.05508C74.5452 8.02148 74.5977 8.0047 74.6523 8.0047H100.911C101.014 8.0047 101.106 8.06979 101.14 8.16851C101.173 8.26724 101.14 8.37438 101.058 8.43739L91.6475 15.6947L78.5025 28.8439C78.4584 28.888 78.3954 28.9153 78.3324 28.9153ZM65.6075 15.5287L78.3324 28.3293L91.3283 15.3334L100.199 8.48781H74.7342L65.6075 15.5287Z" fill="#F7941D"/>
<path d="M91.5001 42.0036H65.2415C65.1092 42.0036 65 41.8965 65 41.7621V15.5035C65 15.3691 65.1092 15.262 65.2415 15.262H91.5001C91.6345 15.262 91.7416 15.3712 91.7416 15.5035V41.7621C91.7416 41.8965 91.6345 42.0036 91.5001 42.0036ZM65.4831 41.5205H91.2585V15.7451H65.4831V41.5205Z" fill="#F7941D"/>
<path d="M91.505 42.0035C91.4462 42.0035 91.3874 41.9825 91.3412 41.9384L89.5179 40.2601L78.1646 28.8396C78.0701 28.7451 78.0701 28.5918 78.1646 28.4972L91.3328 15.3291L100.766 8.05082C100.84 7.99411 100.938 7.98362 101.02 8.02563C101.102 8.06554 101.155 8.14955 101.155 8.24198V34.5005C101.155 34.5761 101.119 34.6454 101.06 34.6916L91.6499 41.9489C91.6079 41.9867 91.5554 42.0035 91.505 42.0035ZM78.6771 28.6737L89.8519 39.9156L91.5176 41.4469L100.672 34.3871V8.7398L91.652 15.6967L78.6771 28.6737Z" fill="#F7941D"/>
<path d="M91.505 42.0035C91.4462 42.0035 91.3874 41.9825 91.3412 41.9384L89.5179 40.2601L78.1646 28.8396C78.0701 28.7451 78.0701 28.5918 78.1646 28.4972L91.3328 15.3291L100.766 8.05082C100.84 7.99411 100.938 7.98362 101.02 8.02563C101.102 8.06554 101.155 8.14955 101.155 8.24198V34.5005C101.155 34.5761 101.119 34.6454 101.06 34.6916L91.6499 41.9489C91.6079 41.9867 91.5554 42.0035 91.505 42.0035ZM78.6771 28.6737L89.8519 39.9156L91.5176 41.4469L100.672 34.3871V8.7398L91.652 15.6967L78.6771 28.6737Z" fill="#F7941D"/>
<path d="M91.505 42.0035C91.4462 42.0035 91.3874 41.9825 91.3412 41.9384L89.5179 40.2601L78.1646 28.8396C78.0701 28.7451 78.0701 28.5918 78.1646 28.4972L91.3328 15.3291L100.766 8.05082C100.84 7.99411 100.938 7.98362 101.02 8.02563C101.102 8.06554 101.155 8.14955 101.155 8.24198V34.5005C101.155 34.5761 101.119 34.6454 101.06 34.6916L91.6499 41.9489C91.6079 41.9867 91.5554 42.0035 91.505 42.0035ZM78.6771 28.6737L89.8519 39.9156L91.5176 41.4469L100.672 34.3871V8.7398L91.652 15.6967L78.6771 28.6737Z" fill="#FFAE4D"/>
<path d="M78.3324 28.9153C78.2673 28.9153 78.2064 28.8901 78.1602 28.8439L65.0697 15.6758C65.0214 15.6253 64.9963 15.5581 65.0005 15.4888C65.0047 15.4195 65.0404 15.3544 65.095 15.3124L74.5031 8.05508C74.5452 8.02148 74.5977 8.0047 74.6523 8.0047H100.911C101.014 8.0047 101.106 8.06979 101.14 8.16851C101.173 8.26724 101.14 8.37438 101.058 8.43739L91.6475 15.6947L78.5025 28.8439C78.4584 28.888 78.3954 28.9153 78.3324 28.9153ZM65.6075 15.5287L78.3324 28.3293L91.3283 15.3334L100.199 8.48781H74.7342L65.6075 15.5287Z" fill="#F7941D"/>
<path d="M78.3324 28.9153C78.2673 28.9153 78.2064 28.8901 78.1602 28.8439L65.0697 15.6758C65.0214 15.6253 64.9963 15.5581 65.0005 15.4888C65.0047 15.4195 65.0404 15.3544 65.095 15.3124L74.5031 8.05508C74.5452 8.02148 74.5977 8.0047 74.6523 8.0047H100.911C101.014 8.0047 101.106 8.06979 101.14 8.16851C101.173 8.26724 101.14 8.37438 101.058 8.43739L91.6475 15.6947L78.5025 28.8439C78.4584 28.888 78.3954 28.9153 78.3324 28.9153ZM65.6075 15.5287L78.3324 28.3293L91.3283 15.3334L100.199 8.48781H74.7342L65.6075 15.5287Z" fill="#F7941D"/>
<path d="M78.3324 28.9153C78.2673 28.9153 78.2064 28.8901 78.1602 28.8439L65.0697 15.6758C65.0214 15.6253 64.9963 15.5581 65.0005 15.4888C65.0047 15.4195 65.0404 15.3544 65.095 15.3124L74.5031 8.05508C74.5452 8.02148 74.5977 8.0047 74.6523 8.0047H100.911C101.014 8.0047 101.106 8.06979 101.14 8.16851C101.173 8.26724 101.14 8.37438 101.058 8.43739L91.6475 15.6947L78.5025 28.8439C78.4584 28.888 78.3954 28.9153 78.3324 28.9153ZM65.6075 15.5287L78.3324 28.3293L91.3283 15.3334L100.199 8.48781H74.7342L65.6075 15.5287Z" fill="#F7941D"/>
<path d="M78.3324 28.9153C78.2673 28.9153 78.2064 28.8901 78.1602 28.8439L65.0697 15.6758C65.0214 15.6253 64.9963 15.5581 65.0005 15.4888C65.0047 15.4195 65.0404 15.3544 65.095 15.3124L74.5031 8.05508C74.5452 8.02148 74.5977 8.0047 74.6523 8.0047H100.911C101.014 8.0047 101.106 8.06979 101.14 8.16851C101.173 8.26724 101.14 8.37438 101.058 8.43739L91.6475 15.6947L78.5025 28.8439C78.4584 28.888 78.3954 28.9153 78.3324 28.9153ZM65.6075 15.5287L78.3324 28.3293L91.3283 15.3334L100.199 8.48781H74.7342L65.6075 15.5287Z" fill="#F7941D"/>
<path d="M91.5001 42.0036H65.2415C65.1092 42.0036 65 41.8965 65 41.7621V15.5035C65 15.3691 65.1092 15.262 65.2415 15.262H91.5001C91.6345 15.262 91.7416 15.3712 91.7416 15.5035V41.7621C91.7416 41.8965 91.6345 42.0036 91.5001 42.0036ZM65.4831 41.5205H91.2585V15.7451H65.4831V41.5205Z" fill="#F7941D"/>
<path d="M91.5046 15.5034H65.2461V41.762H91.5046V15.5034Z" fill="#FF9411"/>
<path d="M91.5001 42.0036H65.2415C65.1092 42.0036 65 41.8965 65 41.7621V15.5035C65 15.3691 65.1092 15.262 65.2415 15.262H91.5001C91.6345 15.262 91.7416 15.3712 91.7416 15.5035V41.7621C91.7416 41.8965 91.6345 42.0036 91.5001 42.0036ZM65.4831 41.5205H91.2585V15.7451H65.4831V41.5205Z" fill="#F7941D"/>
<path d="M91.5001 42.0036H65.2415C65.1092 42.0036 65 41.8965 65 41.7621V15.5035C65 15.3691 65.1092 15.262 65.2415 15.262H91.5001C91.6345 15.262 91.7416 15.3712 91.7416 15.5035V41.7621C91.7416 41.8965 91.6345 42.0036 91.5001 42.0036ZM65.4831 41.5205H91.2585V15.7451H65.4831V41.5205Z" fill="#FFAE4D"/>
<path d="M108.034 54.8576V59.283H107.257V57.294H105.231V59.283H104.454V54.8576H105.231V56.6166H107.257V54.8576H108.034Z" fill="#B02E0C"/>
<path d="M102 113L104.072 111.804V114.196L102 113ZM106 113H106.207V113.207H106V113ZM103.865 113V112.793H106V113V113.207H103.865V113ZM106 113H105.793V61H106H106.207V113H106Z" fill="#B02E0C"/>
<path d="M102 8.53418L104.072 9.73033V7.33803L102 8.53418ZM106.144 8.53418H106.351V8.327H106.144V8.53418ZM103.865 8.53418V8.74136H106.144V8.53418V8.327H103.865V8.53418ZM106.144 8.53418H105.936V53.0776H106.144H106.351V8.53418H106.144Z" fill="#B02E0C"/>
<path d="M75.8778 123.011H76.6672L77.4752 126.38L78.3826 123.011H79.172L80.0484 126.38L80.8812 123.011H81.6706L80.4461 127.437H79.6568L78.7618 124.037L77.8481 127.437H77.0463L75.8778 123.011Z" fill="#B02E0C"/>
<path d="M91.366 125.508V125.715H91.5732V125.508H91.366ZM91.366 121.365L90.1699 123.437H92.5622L91.366 121.365ZM82.043 125.508V125.715H91.366V125.508V125.301H82.043V125.508ZM91.366 125.508H91.5732V123.229H91.366H91.1588V125.508H91.366Z" fill="#B02E0C"/>
<path d="M65.466 125.508V125.715H65.2588V125.508H65.466ZM65.466 121.365L66.6622 123.437H64.2699L65.466 121.365ZM74.7891 125.508V125.715H65.466V125.508V125.301H74.7891V125.508ZM65.466 125.508H65.2588V123.229H65.466H65.6732V125.508H65.466Z" fill="#B02E0C"/>
</svg>
