<svg width="176" height="136" viewBox="0 0 176 136" fill="none" xmlns="http://www.w3.org/2000/svg">
<path d="M0 16C0 7.16344 7.16344 0 16 0H160C168.837 0 176 7.16344 176 16V120C176 128.837 168.837 136 160 136H16C7.16344 136 0 128.837 0 120V16Z" fill="white"/>
<path d="M16 0.5H160C168.56 0.5 175.5 7.43959 175.5 16V120C175.5 128.56 168.56 135.5 160 135.5H16C7.43959 135.5 0.5 128.56 0.5 120V16C0.5 7.43959 7.43959 0.5 16 0.5Z" stroke="#B02E0C" stroke-opacity="0.16"/>
<g clip-path="url(#clip0_2414_85495)">
<path d="M119.029 26.7331V105.639C119.029 105.752 118.987 105.861 118.912 105.946L107.116 119.303C107.072 119.353 107.019 119.393 106.958 119.421C106.898 119.448 106.833 119.462 106.767 119.462C106.724 119.462 106.682 119.455 106.642 119.442L106.94 118.648L106.299 118.409L106.086 41.3877C106.086 41.2918 106.116 41.1983 106.171 41.1201L106.622 41.2824C106.738 41.3234 106.866 41.3164 106.977 41.2631C107.088 41.2097 107.174 41.1143 107.215 40.9978C107.233 40.9477 107.242 40.8946 107.24 40.8412C107.241 40.7449 107.211 40.6509 107.156 40.5722C107.1 40.4936 107.022 40.4344 106.931 40.4029L106.795 40.3574L117.792 26.9437L118.405 27.1685L118.725 26.2976C118.814 26.3303 118.891 26.3895 118.945 26.4674C118.999 26.5453 119.029 26.638 119.029 26.7331ZM118.101 105.459V28.0451L107.016 41.5641L107.229 117.757L118.101 105.459Z" fill="#FF9411"/>
<path d="M118.703 26.2863H118.726L118.406 27.1572L117.793 26.9323L118.207 26.4257C118.267 26.356 118.346 26.3055 118.434 26.2807C118.523 26.2559 118.616 26.2578 118.703 26.2863Z" fill="#FF9411"/>
<path d="M69.0359 8.02817L118.702 26.286C118.614 26.2588 118.519 26.2587 118.431 26.2855C118.342 26.3124 118.264 26.3651 118.206 26.4368L117.791 26.9434L69.0189 9.01293L57.2533 22.7198L106.795 40.3657L106.193 41.1L106.171 41.1284L56.9413 23.6021L58.7368 100.663L106.298 118.409V118.995C106.299 119.09 106.328 119.182 106.382 119.259C106.436 119.337 106.511 119.397 106.599 119.431H106.639L106.613 119.51L58.1099 101.418C58.0221 101.386 57.946 101.328 57.8918 101.252C57.8376 101.175 57.8078 101.084 57.8064 100.991L55.9883 22.9361V22.9019C55.9899 22.8512 56.0004 22.801 56.0195 22.754C56.0321 22.721 56.0483 22.6895 56.0677 22.66L56.0904 22.6287L68.5055 8.16193C68.5688 8.08665 68.654 8.03323 68.7492 8.00922C68.8444 7.98522 68.9447 7.99184 69.0359 8.02817Z" fill="#FF9411"/>
<path d="M118.101 28.0338V105.462L107.229 117.769L107.02 41.5528L118.101 28.0338Z" fill="#E47C00"/>
<path d="M117.796 26.9437L106.799 40.3574L57.2578 22.7229L69.0234 9.01605L117.796 26.9437Z" fill="#E47C00"/>
<path d="M107.245 40.8413C107.247 40.8946 107.238 40.9477 107.22 40.9978C107.178 41.1143 107.093 41.2098 106.982 41.2631C106.871 41.3165 106.743 41.3234 106.627 41.2824L106.176 41.1202L106.198 41.0917L106.8 40.3574L106.936 40.403C107.027 40.4345 107.105 40.4937 107.161 40.5723C107.216 40.6509 107.246 40.745 107.245 40.8413Z" fill="#FF9411"/>
<path d="M106.942 118.648L106.641 119.442H106.601C106.514 119.408 106.438 119.348 106.385 119.271C106.331 119.193 106.302 119.101 106.301 119.007V118.421L106.942 118.648Z" fill="#FF9411"/>
<path d="M106.089 41.3877L106.302 118.409L58.7408 100.664L56.9453 23.6024L106.175 41.1202C106.119 41.1983 106.089 41.2918 106.089 41.3877Z" fill="#FF9411"/>
<path d="M57.2109 38.3049L106.911 56.4878L119.033 41.9415" stroke="#FFAE4D" stroke-width="0.969757"/>
<path d="M57.2109 54.0634L106.911 72.2464L119.033 57.7" stroke="#FFAE4D" stroke-width="0.969757"/>
<path d="M57.2109 69.822L106.911 88.0049L119.033 73.4585" stroke="#FFAE4D" stroke-width="0.969757"/>
<path d="M58.5921 85.1265C58.3414 85.0325 58.0619 85.1595 57.9679 85.4103C57.8738 85.661 58.0009 85.9405 58.2516 86.0345L58.5921 85.1265ZM106.91 103.763L106.739 104.217L107.062 104.338L107.282 104.074L106.91 103.763ZM58.4219 85.5805L58.2516 86.0345L106.739 104.217L106.91 103.763L107.08 103.309L58.5921 85.1265L58.4219 85.5805ZM106.91 103.763L107.282 104.074L119.404 89.5275L119.032 89.2171L118.659 88.9067L106.537 103.453L106.91 103.763Z" fill="#FFAE4D"/>
</g>
<path d="M118.642 114.575V115.246H117.231V119H116.454V115.246H115.044V114.575H118.642Z" fill="#B02E0C"/>
<path d="M107.5 120.5L108.286 122.733L109.827 120.935L107.5 120.5ZM111 123.5L110.867 123.656L111.019 123.786L111.152 123.637L111 123.5ZM108.901 121.701L108.767 121.856L110.867 123.656L111 123.5L111.133 123.344L109.034 121.545L108.901 121.701ZM111 123.5L111.152 123.637L115.652 118.637L115.5 118.5L115.348 118.363L110.848 123.363L111 123.5Z" fill="#B02E0C"/>
<path d="M120 107L122.333 107.403L120.817 109.222L120 107ZM123 109.5L123.131 109.343L123.286 109.471L123.16 109.628L123 109.5ZM121.417 108.181L121.549 108.024L123.131 109.343L123 109.5L122.869 109.657L121.286 108.339L121.417 108.181ZM123 109.5L123.16 109.628L119.16 114.628L119 114.5L118.84 114.372L122.84 109.372L123 109.5Z" fill="#B02E0C"/>
<path d="M80.493 117.329V118H77.4599V113.575H78.2431V117.329H80.493Z" fill="#B02E0C"/>
<path d="M58 102L55.9304 103.149L57.9602 104.367L58 102ZM55 107L54.8242 106.895L54.6993 107.103L54.9255 107.191L55 107ZM57.0508 103.582L56.875 103.477L54.8242 106.895L55 107L55.1758 107.105L57.2265 103.688L57.0508 103.582ZM55 107L54.9255 107.191L75.4255 115.191L75.5 115L75.5745 114.809L55.0745 106.809L55 107Z" fill="#B02E0C"/>
<path d="M105.146 119.888L104.75 122.222L102.927 120.712L105.146 119.888ZM100.498 125.5L100.656 125.631L100.56 125.748L100.42 125.689L100.498 125.5ZM103.969 121.309L104.127 121.44L100.656 125.631L100.498 125.5L100.341 125.369L103.811 121.179L103.969 121.309ZM100.498 125.5L100.42 125.689L82.4192 118.189L82.498 118L82.5769 117.811L100.577 125.311L100.498 125.5Z" fill="#B02E0C"/>
<path d="M127.034 65.5747V70H126.257V68.0111H124.231V70H123.454V65.5747H124.231V67.3336H126.257V65.5747H127.034Z" fill="#B02E0C"/>
<path d="M121 105L123.072 103.804V106.196L121 105ZM125 105H125.207V105.207H125V105ZM122.865 105V104.793H125V105V105.207H122.865V105ZM125 105H124.793V72H125H125.207V105H125Z" fill="#B02E0C"/>
<path d="M121 27L123.072 28.1961V25.8039L121 27ZM125 27H125.207V26.7928H125V27ZM122.865 27V27.2072H125V27V26.7928H122.865V27ZM125 27H124.793V65H125H125.207V27H125Z" fill="#B02E0C"/>
<defs>
<clipPath id="clip0_2414_85495">
<rect width="63.0342" height="111.522" fill="white" transform="translate(56 8)"/>
</clipPath>
</defs>
</svg>
