<svg width="176" height="136" viewBox="0 0 176 136" fill="none" xmlns="http://www.w3.org/2000/svg">
<rect width="176" height="136" rx="16" fill="white"/>
<rect x="0.5" y="0.5" width="175" height="135" rx="15.5" stroke="#B02E0C" stroke-opacity="0.16"/>
<path d="M107.055 24.2055C106.972 53.198 106.89 82.1868 106.808 111.179C106.797 114.773 104.435 118.362 99.7157 121.105C90.2176 126.625 74.7636 126.625 65.2026 121.105C60.3919 118.328 57.989 114.68 58 111.04C58.0813 82.0467 58.1642 53.0591 58.2459 24.0671C58.2353 27.708 60.639 31.3546 65.4497 34.132C75.0107 39.6518 90.4643 39.6518 99.9628 34.132C104.682 31.3893 107.044 27.7999 107.055 24.2055Z" fill="#FF9411"/>
<path d="M99.8503 14.1401C109.411 19.6607 109.464 28.6098 99.9626 34.1316C90.4645 39.6514 75.0105 39.6514 65.4495 34.1316C55.889 28.6119 55.8387 19.6603 65.3372 14.1401C74.8385 8.61914 90.2893 8.62077 99.8503 14.1401Z" fill="#E47C00"/>
<path d="M58 24.4388H77.6223" stroke="#ECECEF" stroke-width="1.09013"/>
<path d="M87.4336 24.4388H107.056" stroke="#ECECEF" stroke-width="1.09013"/>
<path d="M80.3089 22.4344H82.1451C82.4771 22.4344 82.7685 22.475 83.0259 22.5428C83.2766 22.6105 83.507 22.7393 83.7238 22.929C84.1981 23.3558 84.4352 23.9656 84.4352 24.7652C84.4352 25.6189 84.2049 26.2761 83.7577 26.7233C83.5544 26.9265 83.3376 27.0621 83.1072 27.1434C82.8769 27.2247 82.572 27.2585 82.1925 27.2585H80.3089V22.4344ZM81.1491 23.1526V26.5471H82.1451C82.6736 26.5471 83.0463 26.3981 83.2631 26.0864C83.4799 25.7815 83.5883 25.3546 83.5883 24.8058C83.5883 24.2909 83.4663 23.8843 83.2224 23.593C82.9785 23.3016 82.5991 23.1526 82.0909 23.1526H81.1491Z" fill="white"/>
<path d="M116.905 66.0394V70.8635H116.058V68.6954H113.849V70.8635H113.002V66.0394H113.849V67.9568H116.058V66.0394H116.905Z" fill="#B02E0C"/>
<path d="M108.691 24.4388L110.926 25.729V23.1485L108.691 24.4388ZM114.687 24.4388H114.911V24.2153H114.687V24.4388ZM110.703 24.4388V24.6623H114.687V24.4388V24.2153H110.703V24.4388ZM114.687 24.4388H114.464V63.1382H114.687H114.911V24.4388H114.687Z" fill="#B02E0C"/>
<path d="M108.691 112.194L110.926 110.904V113.484L108.691 112.194ZM114.687 112.194H114.911V112.417H114.687V112.194ZM110.703 112.194V111.97H114.687V112.194V112.417H110.703V112.194ZM114.687 112.194H114.464V73.4944H114.687H114.911V112.194H114.687Z" fill="#B02E0C"/>
</svg>
