<svg width="29" height="29" viewBox="0 0 29 29" fill="none" xmlns="http://www.w3.org/2000/svg">
<path fill-rule="evenodd" clip-rule="evenodd" d="M14.0868 25.8262C8.55291 25.8262 5.78597 25.8262 4.06681 24.107C2.34766 22.3878 2.34766 19.6209 2.34766 14.087C2.34766 8.55315 2.34766 5.78621 4.06681 4.06706C5.78597 2.3479 8.55291 2.3479 14.0868 2.3479C19.6207 2.3479 22.3876 2.3479 24.1068 4.06706C25.8259 5.78621 25.8259 8.55315 25.8259 14.087C25.8259 19.6209 25.8259 22.3878 24.1068 24.107C22.3876 25.8262 19.6207 25.8262 14.0868 25.8262ZM10.2716 7.63048C10.2716 7.14423 9.87738 6.75005 9.39113 6.75005C8.90488 6.75005 8.5107 7.14423 8.5107 7.63048L8.5107 9.09789H7.04331C6.55706 9.09789 6.16287 9.49208 6.16287 9.97833C6.16287 10.4646 6.55706 10.8588 7.04331 10.8588H8.5107V12.3261C8.5107 12.8124 8.90488 13.2066 9.39113 13.2066C9.87738 13.2066 10.2716 12.8124 10.2716 12.3261V10.8588H11.739C12.2252 10.8588 12.6194 10.4646 12.6194 9.97833C12.6194 9.49208 12.2252 9.09789 11.739 9.09789H10.2716L10.2716 7.63048ZM16.4346 9.09787C15.9484 9.09787 15.5542 9.49206 15.5542 9.97831C15.5542 10.4646 15.9484 10.8587 16.4346 10.8587H21.1303C21.6165 10.8587 22.0107 10.4646 22.0107 9.97831C22.0107 9.49206 21.6165 9.09787 21.1303 9.09787H16.4346ZM16.4346 16.1413C15.9484 16.1413 15.5542 16.5355 15.5542 17.0218C15.5542 17.508 15.9484 17.9022 16.4346 17.9022H21.1303C21.6165 17.9022 22.0107 17.508 22.0107 17.0218C22.0107 16.5355 21.6165 16.1413 21.1303 16.1413H16.4346ZM8.25283 16.3993C7.90899 16.0554 7.35153 16.0554 7.0077 16.3993C6.66387 16.7431 6.66387 17.3005 7.0077 17.6444L8.14602 18.7827L7.00772 19.921C6.66389 20.2648 6.66389 20.8223 7.00772 21.1661C7.35155 21.5099 7.90901 21.5099 8.25284 21.1661L9.39114 20.0278L10.5294 21.1661C10.8733 21.5099 11.4307 21.5099 11.7746 21.1661C12.1184 20.8223 12.1184 20.2648 11.7746 19.921L10.6363 18.7827L11.7746 17.6444C12.1184 17.3006 12.1184 16.7431 11.7746 16.3993C11.4307 16.0554 10.8733 16.0554 10.5294 16.3993L9.39114 17.5376L8.25283 16.3993ZM16.4346 19.6631C15.9484 19.6631 15.5542 20.0573 15.5542 20.5435C15.5542 21.0298 15.9484 21.424 16.4346 21.424H21.1303C21.6165 21.424 22.0107 21.0298 22.0107 20.5435C22.0107 20.0573 21.6165 19.6631 21.1303 19.6631H16.4346Z" fill="#B02E0C"/>
</svg>
