<svg width="61" height="61" viewBox="0 0 61 61" fill="none" xmlns="http://www.w3.org/2000/svg">
<rect width="60.8" height="60.8" rx="16.7538" fill="#F2E9DD"/>
<path fill-rule="evenodd" clip-rule="evenodd" d="M30.3958 55.7334C18.4536 55.7334 12.4825 55.7334 8.77248 52.0235C5.0625 48.3135 5.0625 42.3423 5.0625 30.4001C5.0625 18.4579 5.0625 12.4867 8.77248 8.77675C12.4825 5.06677 18.4536 5.06677 30.3958 5.06677C42.3381 5.06677 48.3092 5.06677 52.0192 8.77675C55.7292 12.4867 55.7292 18.4579 55.7292 30.4001C55.7292 42.3423 55.7292 48.3135 52.0192 52.0235C48.3092 55.7334 42.3381 55.7334 30.3958 55.7334ZM22.1625 16.4667C22.1625 15.4174 21.3118 14.5667 20.2625 14.5667C19.2132 14.5667 18.3625 15.4174 18.3625 16.4667L18.3625 19.6334H15.1958C14.1465 19.6334 13.2958 20.4841 13.2958 21.5334C13.2958 22.5828 14.1465 23.4334 15.1958 23.4334H18.3625V26.6C18.3625 27.6494 19.2132 28.5 20.2625 28.5C21.3118 28.5 22.1625 27.6494 22.1625 26.6V23.4334H25.3292C26.3785 23.4334 27.2292 22.5828 27.2292 21.5334C27.2292 20.4841 26.3785 19.6334 25.3292 19.6334H22.1625L22.1625 16.4667ZM35.4625 19.6334C34.4132 19.6334 33.5625 20.484 33.5625 21.5334C33.5625 22.5827 34.4132 23.4334 35.4625 23.4334H45.5958C46.6452 23.4334 47.4958 22.5827 47.4958 21.5334C47.4958 20.484 46.6452 19.6334 45.5958 19.6334H35.4625ZM35.4625 34.8334C34.4132 34.8334 33.5625 35.684 33.5625 36.7334C33.5625 37.7827 34.4132 38.6334 35.4625 38.6334H45.5958C46.6452 38.6334 47.4958 37.7827 47.4958 36.7334C47.4958 35.684 46.6452 34.8334 45.5958 34.8334H35.4625ZM17.806 35.3899C17.064 34.6479 15.861 34.6479 15.119 35.3899C14.377 36.1319 14.377 37.3349 15.119 38.0769L17.5755 40.5335L15.119 42.9899C14.377 43.7319 14.377 44.9349 15.119 45.6769C15.861 46.4189 17.064 46.4189 17.806 45.6769L20.2625 43.2205L22.719 45.6769C23.461 46.4189 24.664 46.4189 25.406 45.6769C26.148 44.9349 26.148 43.7319 25.406 42.9899L22.9495 40.5335L25.406 38.077C26.148 37.335 26.148 36.132 25.406 35.39C24.664 34.648 23.461 34.648 22.719 35.39L20.2625 37.8464L17.806 35.3899ZM35.4625 42.4334C34.4132 42.4334 33.5625 43.284 33.5625 44.3334C33.5625 45.3827 34.4132 46.2334 35.4625 46.2334H45.5958C46.6452 46.2334 47.4958 45.3827 47.4958 44.3334C47.4958 43.284 46.6452 42.4334 45.5958 42.4334H35.4625Z" fill="#B02E0C"/>
</svg>
