<svg width="46" height="46" viewBox="0 0 46 46" fill="none" xmlns="http://www.w3.org/2000/svg">
<rect width="46" height="46" rx="11.1034" fill="#F3F3F3"/>
<rect x="0.396552" y="0.396552" width="45.2069" height="45.2069" rx="10.7069" stroke="#B02E0C" stroke-opacity="0.04" stroke-width="0.793103"/>
<path d="M42.9902 13.9919L42.9512 14.0037L35.0439 16.5134V21.9529H42.9346L42.9521 22.0632L42.9346 22.0681V23.9812L42.8955 23.9939L16.7109 32.324V32.3406H16.6611L16.6182 32.3542L16.6143 32.3406H6.6084V20.3152L6.59375 20.2693L6.6084 20.2644V20.2507H6.6543L32.9844 12.0232L32.9922 12.0203H42.9902V13.9919ZM8.70801 32.2263H16.5977V30.3533H8.70801V32.2263ZM6.72168 32.2263H8.59473V30.3044L8.58008 30.2585L8.59473 30.2537V22.2371H16.5977V20.364H6.72168V32.2263ZM16.7109 30.3376V32.2058L42.8213 23.8972V22.1042L16.7109 30.3376ZM9.01855 30.24H16.6445L42.5684 22.0662H34.9951L9.01855 30.24ZM16.7109 22.3347V22.3503H16.6631L16.6172 22.365L16.6123 22.3503H8.70801V30.2185L34.9307 21.9666V16.5496L16.7109 22.3347ZM16.7109 20.3484V22.2156L42.877 13.9089V12.1531L16.7109 20.3484ZM7.03516 20.2507H16.6436L42.5645 12.1335H33.0088L7.03516 20.2507Z" fill="black"/>
<path d="M8.38872 25.9752L8.98678 26.3205V25.6299L8.38872 25.9752ZM11.1797 26.035H11.2395V25.9154H11.1797V25.9752V26.035ZM8.92698 25.9752V26.035H11.1797V25.9752V25.9154H8.92698V25.9752Z" fill="black"/>
<path d="M11.7734 30.7597L12.1187 30.1617H11.4281L11.7734 30.7597ZM11.8332 27.9688V27.9089H11.7136V27.9688H11.7734H11.8332ZM11.7734 30.2215H11.8332V27.9688H11.7734H11.7136V30.2215H11.7734Z" fill="black"/>
<path d="M15.7603 16.6055L15.1622 16.2602L15.1622 16.9508L15.7603 16.6055ZM12.1719 16.5457L12.1121 16.5457L12.1121 16.6653L12.1719 16.6653L12.1719 16.6055L12.1719 16.5457ZM15.222 16.6055L15.222 16.5457L12.1719 16.5457L12.1719 16.6055L12.1719 16.6653L15.222 16.6653L15.222 16.6055Z" fill="black"/>
<path d="M6.99028 16.6055L7.58835 16.9508V16.2602L6.99028 16.6055ZM9.78125 16.6653H9.84106V16.5457H9.78125V16.6055V16.6653ZM7.52854 16.6055V16.6653H9.78125V16.6055V16.5457H7.52854V16.6055Z" fill="black"/>
<rect width="2" height="1" transform="translate(11.5781 17.2037) rotate(-180)" fill="white"/>
<path d="M10.2161 16.0666L10.6546 17.2037H10.4409L10.3325 16.9023H9.88274L9.7711 17.2037H9.56537L10.0039 16.0666H10.2161ZM10.2799 16.7524L10.1108 16.2739L9.93377 16.7524H10.2799Z" fill="#060C12"/>
<path d="M6.78906 16.6056L6.78906 19.9946" stroke="black" stroke-width="0.119613" stroke-linecap="square"/>
<path d="M15.9609 16.6056L15.9609 17.2037" stroke="black" stroke-width="0.119613" stroke-linecap="square"/>
<path d="M6.39199 20.3932L4.39844 20.3932" stroke="black" stroke-width="0.119613" stroke-linecap="square"/>
<path d="M6.39199 32.155L4.39844 32.155" stroke="black" stroke-width="0.119613" stroke-linecap="square"/>
<path d="M4 20.3932L3.65471 20.9913L4.34529 20.9913L4 20.3932ZM3.94019 24.804L3.94019 24.8638L4.05981 24.8638L4.05981 24.804L4 24.804L3.94019 24.804ZM4 20.9315L3.94019 20.9315L3.94019 24.804L4 24.804L4.05981 24.804L4.05981 20.9315L4 20.9315Z" fill="black"/>
<path d="M4 32.1552L4.34529 31.5572L3.65471 31.5572L4 32.1552ZM4.05981 27.7445L4.05981 27.6847L3.94019 27.6847L3.94019 27.7445L4 27.7445L4.05981 27.7445ZM4 31.617L4.05981 31.617L4.05981 27.7445L4 27.7445L3.94019 27.7445L3.94019 31.617L4 31.617Z" fill="black"/>
<rect width="1.15691" height="2" transform="translate(4.59375 25.5992) rotate(90)" fill="white"/>
<path d="M2.71177 25.5422H3.23009C3.34811 25.5422 3.43901 25.5693 3.50281 25.6204C3.5666 25.6714 3.5985 25.7416 3.5985 25.8277C3.5985 25.8819 3.58255 25.9313 3.55384 25.9744C3.52354 26.0175 3.48367 26.0478 3.43582 26.0669C3.50121 26.0829 3.55384 26.1148 3.59212 26.1626C3.6304 26.2104 3.64953 26.2711 3.64953 26.3428C3.64953 26.4433 3.61604 26.5246 3.54906 26.5852C3.48208 26.6474 3.39595 26.6777 3.29069 26.6777H2.71177V25.5422ZM2.90634 25.7033V26.0159H3.17746C3.25401 26.0159 3.30983 26.0047 3.34651 25.9808C3.3816 25.9569 3.40074 25.917 3.40074 25.8596C3.40074 25.7958 3.3816 25.7543 3.34332 25.7336C3.30505 25.7145 3.25242 25.7033 3.18384 25.7033H2.90634ZM2.90634 26.1594V26.5151H3.20457C3.28113 26.5151 3.34013 26.5023 3.38479 26.4768C3.42785 26.4513 3.45018 26.405 3.45018 26.338C3.45018 26.3014 3.4422 26.2711 3.42945 26.2455C3.41669 26.22 3.39755 26.2025 3.37203 26.1897C3.34651 26.1785 3.321 26.1706 3.29548 26.1658C3.26837 26.1626 3.23647 26.1594 3.20138 26.1594H2.90634Z" fill="#060C12"/>
<path d="M8.12208 24.4441V24.6163H7.76005V25.5796H7.56069V24.6163H7.19866V24.4441H8.12208Z" fill="#060C12"/>
<path d="M12.1159 31.1584H11.9261C11.9133 31.026 11.832 30.959 11.6789 30.959C11.6103 30.959 11.5577 30.9734 11.5194 31.0021C11.4811 31.0308 11.462 31.0691 11.462 31.1169C11.462 31.1632 11.4747 31.1951 11.5034 31.211C11.5321 31.2285 11.5943 31.2493 11.6916 31.2732C11.7171 31.2812 11.7363 31.286 11.7506 31.2892C11.8766 31.321 11.9628 31.3498 12.009 31.3753C12.1095 31.4295 12.1605 31.514 12.1605 31.6289C12.1605 31.6799 12.1509 31.7245 12.135 31.7644C12.1175 31.8059 12.0951 31.8394 12.0664 31.8665C12.0377 31.8936 12.0026 31.9159 11.9643 31.9335C11.9245 31.9526 11.883 31.9654 11.8415 31.9733C11.7985 31.9813 11.7538 31.9845 11.7092 31.9845C11.5656 31.9845 11.4508 31.951 11.3631 31.8824C11.2738 31.8154 11.2307 31.715 11.2307 31.5826H11.4269C11.4269 31.6655 11.454 31.7277 11.5082 31.7676C11.5624 31.8075 11.6326 31.8266 11.7203 31.8266C11.7969 31.8266 11.8559 31.8123 11.899 31.7804C11.942 31.7485 11.9643 31.7054 11.9643 31.648C11.9643 31.6129 11.9516 31.5826 11.9293 31.5603C11.9069 31.5379 11.8814 31.5204 11.8559 31.5108C11.8288 31.5013 11.7825 31.4885 11.7171 31.471C11.7092 31.4694 11.7028 31.4678 11.6996 31.4662C11.5577 31.4311 11.4652 31.4008 11.4205 31.3769C11.328 31.329 11.2786 31.2557 11.2722 31.1552V31.1329C11.2722 31.0324 11.3089 30.9526 11.3854 30.892C11.462 30.8314 11.564 30.8011 11.6916 30.8011C11.8144 30.8011 11.9149 30.8314 11.9931 30.8888C12.0696 30.9479 12.1111 31.0372 12.1159 31.1584Z" fill="#060C12"/>
<path d="M43.2781 25.1724L42.6036 25.024L42.8123 25.6823L43.2781 25.1724ZM31.2944 28.9086L31.2374 28.9266L31.2736 29.0407L31.3306 29.0226L31.3125 28.9656L31.2944 28.9086ZM42.765 25.335L42.7469 25.278L31.2944 28.9086L31.3125 28.9656L31.3306 29.0226L42.7831 25.392L42.765 25.335Z" fill="black"/>
<path d="M17.1251 33.5441L17.7993 33.6936L17.5917 33.035L17.1251 33.5441ZM29.1352 29.8199L29.1922 29.8019L29.1562 29.6878L29.0992 29.7058L29.1172 29.7628L29.1352 29.8199ZM17.6385 33.3823L17.6564 33.4393L29.1352 29.8199L29.1172 29.7628L29.0992 29.7058L17.6205 33.3252L17.6385 33.3823Z" fill="black"/>
<path d="M30.6823 29.4996L30.738 29.6626L29.9984 29.9048L29.6308 28.8304L29.8218 28.7679L30.1336 29.6793L30.6823 29.4996Z" fill="#060C12"/>
<path d="M16.8594 32.3545L17.2622 33.0522" stroke="black" stroke-width="0.119613" stroke-linecap="square"/>
<path d="M42.875 24.1809L43.3734 24.9783" stroke="black" stroke-width="0.119613" stroke-linecap="square"/>
</svg>
