<svg width="176" height="136" viewBox="0 0 176 136" fill="none" xmlns="http://www.w3.org/2000/svg">
<path d="M0 16C0 7.16344 7.16344 0 16 0H160C168.837 0 176 7.16344 176 16V120C176 128.837 168.837 136 160 136H16C7.16344 136 0 128.837 0 120V16Z" fill="white"/>
<path d="M16 0.5H160C168.56 0.5 175.5 7.43959 175.5 16V120C175.5 128.56 168.56 135.5 160 135.5H16C7.43959 135.5 0.5 128.56 0.5 120V16C0.5 7.43959 7.43959 0.5 16 0.5Z" stroke="#B02E0C" stroke-opacity="0.16"/>
<path d="M163.529 33.5752L163.378 33.623L132.994 43.2686V64.1699H163.312L163.377 64.5957L163.312 64.6162V71.9629L163.159 72.0117L62.543 104.025V104.085H62.3574L62.1836 104.14L62.166 104.085H23.7197V57.8789L23.6641 57.7012L23.7197 57.6836V57.627H23.9004L125.077 26.0098L125.108 26H163.529V33.5752ZM31.7891 103.648H62.1074V96.4502H31.7891V103.648ZM24.1553 103.648H31.3535V96.2656L31.2979 96.0889L31.3535 96.0713V65.2607H62.1074V58.0625H24.1553V103.648ZM62.543 96.3916V103.567L162.875 71.6436V64.7539L62.543 96.3916ZM32.9863 96.0146H62.291L161.896 64.6055H132.81L32.9863 96.0146ZM62.543 65.6367V65.6973H62.3545L62.1836 65.752L62.166 65.6973H31.79V95.9336L132.558 64.2275V43.4072L62.543 65.6367ZM62.543 58.0049V65.1797L163.094 33.2559V26.5137L62.543 58.0049ZM25.3652 57.627H62.2881L161.887 26.4355H125.176L25.3652 57.627Z" fill="black"/>
<path d="M30.5561 79.626L32.8544 80.9529V78.2991L30.5561 79.626ZM41.2812 79.8558H41.5111V79.3962H41.2812V79.8558ZM32.6245 79.626V79.8558H41.2812V79.626V79.3962H32.6245V79.626Z" fill="black"/>
<path d="M43.5703 98.0117L44.8972 95.7135H42.2434L43.5703 98.0117ZM43.8001 87.2866V87.0568H43.3405V87.2866H43.8001ZM43.5703 95.9433H43.8001V87.2866H43.5703H43.3405V95.9433H43.5703Z" fill="black"/>
<path d="M58.8988 43.6199L56.6006 42.293L56.6006 44.9468L58.8988 43.6199ZM45.1094 43.39L44.8796 43.39L44.8796 43.8497L45.1094 43.8497L45.1094 43.39ZM56.8304 43.6199L56.8304 43.39L45.1094 43.39L45.1094 43.6199L45.1094 43.8497L56.8304 43.8497L56.8304 43.6199Z" fill="black"/>
<path d="M25.1889 43.6199L27.4872 44.9468V42.293L25.1889 43.6199ZM35.9141 43.8497H36.1439V43.39H35.9141V43.8497ZM27.2574 43.6199V43.8497H35.9141V43.6199V43.39H27.2574V43.6199Z" fill="black"/>
<rect width="5" height="4" transform="translate(42.8125 45.9187) rotate(-180)" fill="white"/>
<path d="M40.264 41.549L41.9493 45.9187H41.1281L40.7113 44.7604H38.9831L38.5541 45.9187H37.7635L39.4488 41.549H40.264ZM40.5091 44.1843L39.8595 42.3457L39.1792 44.1843H40.5091Z" fill="#060C12"/>
<path d="M24.4219 43.6201L24.4219 56.6435" stroke="black" stroke-width="0.459648" stroke-linecap="square"/>
<path d="M59.6641 43.6201L59.6641 45.9184" stroke="black" stroke-width="0.459648" stroke-linecap="square"/>
<path d="M22.8952 58.1753L15.2344 58.1753" stroke="black" stroke-width="0.459648" stroke-linecap="square"/>
<path d="M22.8952 103.374L15.2344 103.374" stroke="black" stroke-width="0.459648" stroke-linecap="square"/>
<path d="M13.7031 58.1757L12.3762 60.474L15.03 60.474L13.7031 58.1757ZM13.4733 75.1252L13.4733 75.3551L13.9329 75.3551L13.9329 75.1252L13.4733 75.1252ZM13.7031 60.2441L13.4733 60.2441L13.4733 75.1252L13.7031 75.1252L13.9329 75.1252L13.9329 60.2441L13.7031 60.2441Z" fill="black"/>
<path d="M13.7031 103.374L15.03 101.076L12.3762 101.076L13.7031 103.374ZM13.9329 86.4248L13.9329 86.195L13.4733 86.195L13.4733 86.4248L13.9329 86.4248ZM13.7031 101.306L13.9329 101.306L13.9329 86.4248L13.7031 86.4248L13.4733 86.4248L13.4733 101.306L13.7031 101.306Z" fill="black"/>
<rect width="4.44578" height="5" transform="translate(16 78.1814) rotate(90)" fill="white"/>
<path d="M11.4535 78.0407H13.4453C13.8988 78.0407 14.2482 78.1449 14.4933 78.341C14.7385 78.5371 14.861 78.8068 14.861 79.1377C14.861 79.3461 14.7998 79.5361 14.6894 79.7016C14.573 79.867 14.4198 79.9835 14.2359 80.057C14.4872 80.1183 14.6894 80.2409 14.8365 80.4247C14.9836 80.6086 15.0572 80.8415 15.0572 81.1173C15.0572 81.5034 14.9285 81.8159 14.6711 82.0488C14.4137 82.2879 14.0827 82.4043 13.6782 82.4043H11.4535V78.0407ZM12.2012 78.6597V79.8609H13.2431C13.5373 79.8609 13.7518 79.818 13.8927 79.7261C14.0275 79.6342 14.1011 79.4809 14.1011 79.2603C14.1011 79.0152 14.0275 78.8558 13.8805 78.7761C13.7334 78.7026 13.5311 78.6597 13.2676 78.6597H12.2012ZM12.2012 80.4125V81.7792H13.3473C13.6414 81.7792 13.8682 81.7301 14.0398 81.6321C14.2053 81.534 14.2911 81.3563 14.2911 81.0989C14.2911 80.9579 14.2604 80.8415 14.2114 80.7434C14.1624 80.6454 14.0888 80.578 13.9908 80.5289C13.8927 80.486 13.7947 80.4554 13.6966 80.437C13.5924 80.4247 13.4698 80.4125 13.335 80.4125H12.2012Z" fill="#060C12"/>
<path d="M29.5523 73.8993V74.5612H28.1611V78.2629H27.395V74.5612H26.0038V73.8993H29.5523Z" fill="#060C12"/>
<path d="M44.8788 99.701H44.1495C44.1004 99.1923 43.7879 98.9349 43.1995 98.9349C42.936 98.9349 42.7337 98.9901 42.5867 99.1004C42.4396 99.2107 42.366 99.3578 42.366 99.5417C42.366 99.7194 42.415 99.842 42.5254 99.9033C42.6357 99.9707 42.8747 100.05 43.2485 100.142C43.3466 100.173 43.4201 100.191 43.4753 100.204C43.9595 100.326 44.2904 100.436 44.4681 100.535C44.8542 100.743 45.0504 101.068 45.0504 101.509C45.0504 101.705 45.0136 101.877 44.9523 102.03C44.8849 102.189 44.7991 102.318 44.6888 102.422C44.5785 102.526 44.4436 102.612 44.2965 102.68C44.1433 102.753 43.984 102.802 43.8246 102.833C43.6592 102.863 43.4876 102.876 43.316 102.876C42.7644 102.876 42.3231 102.747 41.986 102.483C41.6428 102.226 41.4774 101.84 41.4774 101.331H42.2312C42.2312 101.65 42.3354 101.889 42.5437 102.042C42.7521 102.195 43.0218 102.269 43.3589 102.269C43.653 102.269 43.8798 102.214 44.0453 102.091C44.2107 101.969 44.2965 101.803 44.2965 101.583C44.2965 101.448 44.2475 101.331 44.1617 101.245C44.0759 101.16 43.9779 101.092 43.8798 101.055C43.7756 101.019 43.5979 100.97 43.3466 100.902C43.316 100.896 43.2914 100.89 43.2792 100.884C42.7337 100.749 42.3783 100.633 42.2067 100.541C41.8512 100.357 41.6612 100.075 41.6367 99.6888V99.603C41.6367 99.2168 41.7777 98.9104 42.0718 98.6775C42.366 98.4446 42.7583 98.3282 43.2485 98.3282C43.7204 98.3282 44.1066 98.4446 44.4069 98.6653C44.701 98.892 44.8604 99.2352 44.8788 99.701Z" fill="#060C12"/>
<path d="M164.638 76.5407L162.046 75.9703L162.848 78.5001L164.638 76.5407ZM118.587 90.8981L118.368 90.9676L118.507 91.4057L118.726 91.3363L118.587 90.8981ZM162.666 77.1657L162.596 76.9467L118.587 90.8981L118.656 91.1172L118.726 91.3363L162.735 77.3848L162.666 77.1657Z" fill="black"/>
<path d="M64.1434 108.712L66.7343 109.286L65.9363 106.755L64.1434 108.712ZM110.296 94.4001L110.515 94.331L110.377 93.8926L110.157 93.9617L110.296 94.4001ZM66.1161 108.09L66.1852 108.309L110.296 94.4001L110.227 94.1809L110.157 93.9617L66.047 107.871L66.1161 108.09Z" fill="black"/>
<path d="M116.284 93.3181L116.498 93.9443L113.656 94.8751L112.243 90.7465L112.977 90.5062L114.175 94.0086L116.284 93.3181Z" fill="#060C12"/>
<path d="M63.1172 104.14L64.6651 106.821" stroke="black" stroke-width="0.459648" stroke-linecap="square"/>
<path d="M163.086 72.731L165.001 75.7953" stroke="black" stroke-width="0.459648" stroke-linecap="square"/>
</svg>
