<svg width="176" height="136" viewBox="0 0 176 136" fill="none" xmlns="http://www.w3.org/2000/svg">
<path d="M0 16C0 7.16344 7.16344 0 16 0H160C168.837 0 176 7.16344 176 16V120C176 128.837 168.837 136 160 136H16C7.16344 136 0 128.837 0 120V16Z" fill="white"/>
<path d="M16 0.5H160C168.56 0.5 175.5 7.43959 175.5 16V120C175.5 128.56 168.56 135.5 160 135.5H16C7.43959 135.5 0.5 128.56 0.5 120V16C0.5 7.43959 7.43959 0.5 16 0.5Z" stroke="#B02E0C" stroke-opacity="0.16"/>
<rect x="41.9" y="21.9" width="92.2" height="92.2" rx="46.1" fill="#55A2F2" stroke="black" stroke-width="1.8"/>
<path d="M88 66.5V23" stroke="white" stroke-linecap="round" stroke-linejoin="round"/>
<path d="M92.2195 40.88H95.5895C96.2895 40.88 96.8695 41.04 97.3195 41.36C97.7595 41.68 97.9895 42.18 97.9895 42.86C97.9895 43.29 97.8795 43.66 97.6795 43.96C97.4695 44.26 97.1795 44.48 96.8095 44.61C96.9795 44.65 97.1295 44.71 97.2595 44.79C97.3795 44.87 97.4795 44.96 97.5495 45.05C97.6195 45.15 97.6795 45.27 97.7295 45.41C97.7695 45.56 97.7995 45.69 97.8195 45.8C97.8395 45.91 97.8495 46.05 97.8695 46.23C97.8695 46.28 97.8795 46.37 97.8895 46.5C97.8995 46.64 97.9095 46.73 97.9095 46.77C97.9095 46.81 97.9195 46.89 97.9295 46.99C97.9395 47.1 97.9495 47.18 97.9595 47.22C97.9595 47.26 97.9695 47.33 97.9895 47.41C98.0095 47.49 98.0195 47.56 98.0395 47.6C98.0495 47.64 98.0695 47.69 98.0895 47.75C98.1095 47.81 98.1295 47.85 98.1595 47.89C98.1795 47.93 98.2095 47.97 98.2495 48H96.9095C96.8895 47.98 96.8695 47.95 96.8495 47.91C96.8295 47.87 96.8195 47.83 96.8095 47.79C96.7895 47.75 96.7795 47.71 96.7795 47.67C96.7695 47.63 96.7595 47.58 96.7495 47.52C96.7395 47.46 96.7395 47.4 96.7395 47.36L96.7195 47.18L96.6995 47C96.6995 46.96 96.6895 46.89 96.6895 46.79C96.6795 46.69 96.6795 46.62 96.6795 46.58C96.6395 46 96.5195 45.61 96.3095 45.39C96.0995 45.17 95.6995 45.06 95.1195 45.06H93.4595V48H92.2195V40.88ZM93.4595 41.9V44.13H95.1095C95.3495 44.13 95.5495 44.12 95.7195 44.09C95.8795 44.07 96.0495 44.02 96.2195 43.95C96.3895 43.88 96.5195 43.76 96.6095 43.6C96.6995 43.44 96.7495 43.24 96.7495 42.99C96.7495 42.77 96.7095 42.58 96.6295 42.43C96.5495 42.28 96.4295 42.17 96.2795 42.09C96.1295 42.02 95.9795 41.97 95.8195 41.94C95.6595 41.92 95.4795 41.9 95.2695 41.9H93.4595Z" fill="white"/>
</svg>
