<svg width="58" height="58" viewBox="0 0 58 58" fill="none" xmlns="http://www.w3.org/2000/svg">
<rect width="58" height="58" rx="14" fill="#F3F3F3"/>
<rect x="0.5" y="0.5" width="57" height="57" rx="13.5" stroke="#B02E0C" stroke-opacity="0.04"/>
<rect x="7.42128" y="7.42128" width="43.1574" height="43.1574" rx="21.5787" fill="#55A2F2" stroke="black" stroke-width="0.842553"/>
<path d="M29 28.2977V7.93604" stroke="white" stroke-width="0.468085" stroke-linecap="round" stroke-linejoin="round"/>
<path d="M31.2379 16.0898H33.2599C33.6799 16.0898 34.0279 16.1858 34.2979 16.3778C34.5619 16.5698 34.6999 16.8698 34.6999 17.2778C34.6999 17.5358 34.6339 17.7578 34.5139 17.9378C34.3879 18.1178 34.2139 18.2498 33.9919 18.3278C34.0939 18.3518 34.1839 18.3878 34.2619 18.4358C34.3339 18.4838 34.3939 18.5378 34.4359 18.5918C34.4779 18.6518 34.5139 18.7238 34.5439 18.8078C34.5679 18.8978 34.5859 18.9758 34.5979 19.0418C34.6099 19.1078 34.6159 19.1918 34.6279 19.2998C34.6279 19.3298 34.6339 19.3838 34.6399 19.4618C34.6459 19.5458 34.6519 19.5998 34.6519 19.6238C34.6519 19.6478 34.6579 19.6958 34.6639 19.7558C34.6699 19.8218 34.6759 19.8698 34.6819 19.8938C34.6819 19.9178 34.6879 19.9598 34.6999 20.0078C34.7119 20.0558 34.7179 20.0978 34.7299 20.1218C34.7359 20.1458 34.7479 20.1758 34.7599 20.2118C34.7719 20.2478 34.7839 20.2718 34.8019 20.2958C34.8139 20.3198 34.8319 20.3438 34.8559 20.3618H34.0519C34.0399 20.3498 34.0279 20.3318 34.0159 20.3078C34.0039 20.2838 33.9979 20.2598 33.9919 20.2358C33.9799 20.2118 33.9739 20.1878 33.9739 20.1638C33.9679 20.1398 33.9619 20.1098 33.9559 20.0738C33.9499 20.0378 33.9499 20.0018 33.9499 19.9778L33.9379 19.8698L33.9259 19.7618C33.9259 19.7378 33.9199 19.6958 33.9199 19.6358C33.9139 19.5758 33.9139 19.5338 33.9139 19.5098C33.8899 19.1618 33.8179 18.9278 33.6919 18.7958C33.5659 18.6638 33.3259 18.5978 32.9779 18.5978H31.9819V20.3618H31.2379V16.0898ZM31.9819 16.7018V18.0398H32.9719C33.1159 18.0398 33.2359 18.0338 33.3379 18.0158C33.4339 18.0038 33.5359 17.9738 33.6379 17.9318C33.7399 17.8898 33.8179 17.8178 33.8719 17.7218C33.9259 17.6258 33.9559 17.5058 33.9559 17.3558C33.9559 17.2238 33.9319 17.1098 33.8839 17.0198C33.8359 16.9298 33.7639 16.8638 33.6739 16.8158C33.5839 16.7738 33.4939 16.7438 33.3979 16.7258C33.3019 16.7138 33.1939 16.7018 33.0679 16.7018H31.9819Z" fill="white"/>
</svg>
