<svg width="46" height="46" viewBox="0 0 46 46" fill="none" xmlns="http://www.w3.org/2000/svg">
<rect width="46" height="46" rx="11.3448" fill="#F3F3F3"/>
<rect x="0.405172" y="0.405172" width="45.1897" height="45.1897" rx="10.9397" stroke="#B02E0C" stroke-opacity="0.04" stroke-width="0.810345"/>
<path d="M29.6883 10.359L27.6443 13.5713L25.6003 16.7836" stroke="black" stroke-width="0.609195" stroke-linecap="square"/>
<path d="M41.709 22.2688L36.7059 28.0095" stroke="black" stroke-width="0.609195" stroke-linecap="square"/>
<rect x="8.10459" y="10.0851" width="33.7494" height="25.8299" rx="3.92931" stroke="black" stroke-width="0.670115"/>
<path d="M3.79593 24.2378L4.41487 23.3386L3.83979 22.5028H4.20287L4.59763 23.1169L5.00944 22.5028H5.35059L4.77551 23.3386L5.39202 24.2378H5.02163L4.58788 23.575L4.14682 24.2378H3.79593Z" fill="#060C12"/>
<path d="M4.72461 9.7499L3.84531 11.2729L5.60391 11.2729L4.72461 9.7499ZM4.57231 21.02L4.57231 21.1723L4.87691 21.1723L4.87691 21.02L4.72461 21.02L4.57231 21.02ZM4.72461 11.1206L4.57231 11.1206L4.57231 21.02L4.72461 21.02L4.87691 21.02L4.87691 11.1206L4.72461 11.1206Z" fill="black"/>
<path d="M4.72461 36.25L5.60391 34.727L3.84531 34.727L4.72461 36.25ZM4.87691 24.9799L4.87691 24.8276L4.57231 24.8276L4.57231 24.9799L4.72461 24.9799L4.87691 24.9799ZM4.72461 34.8793L4.87691 34.8793L4.87691 24.9799L4.72461 24.9799L4.57231 24.9799L4.57231 34.8793L4.72461 34.8793Z" fill="black"/>
</svg>
