<svg width="46" height="46" viewBox="0 0 46 46" fill="none" xmlns="http://www.w3.org/2000/svg">
<rect width="46" height="46" rx="11.3448" fill="#F3F3F3"/>
<rect x="0.405172" y="0.405172" width="45.1897" height="45.1897" rx="10.9397" stroke="#B02E0C" stroke-opacity="0.04" stroke-width="0.810345"/>
<path d="M33.3506 13.0451L31.6124 15.7769L29.8741 18.5087" stroke="black" stroke-width="0.518072" stroke-linecap="square"/>
<path d="M42.0764 20.374L37.7092 25.1557" stroke="black" stroke-width="0.518072" stroke-linecap="square"/>
<rect x="6.70681" y="12.812" width="35.4361" height="17.5627" rx="3.34157" stroke="black" stroke-width="0.56988"/>
<path d="M3.55983 22.0717L4.08619 21.307L3.59713 20.5962H3.9059L4.24162 21.1184L4.59183 20.5962H4.88195L4.39289 21.307L4.91718 22.0717H4.60219L4.23333 21.508L3.85824 22.0717H3.55983Z" fill="#060C12"/>
<path d="M4.34961 12.5272L3.60184 13.8224L5.09738 13.8224L4.34961 12.5272ZM4.22009 20.2388L4.22009 20.3683L4.47913 20.3683L4.47913 20.2388L4.34961 20.2388L4.22009 20.2388ZM4.34961 13.6929L4.22009 13.6929L4.22009 20.2388L4.34961 20.2388L4.47913 20.2388L4.47913 13.6929L4.34961 13.6929Z" fill="black"/>
<path d="M4.34961 30.6597L5.09738 29.3645L3.60184 29.3645L4.34961 30.6597ZM4.47913 22.9481L4.47913 22.8186L4.22009 22.8186L4.22009 22.9481L4.34961 22.9481L4.47913 22.9481ZM4.34961 29.494L4.47913 29.494L4.47913 22.9481L4.34961 22.9481L4.22009 22.9481L4.22009 29.494L4.34961 29.494Z" fill="black"/>
<path d="M24.8769 31.9974L24.3215 32.8864V33.4729H24.0666V32.8864L23.5092 31.9974H23.8076L24.1992 32.6502L24.5868 31.9974H24.8769Z" fill="#060C12"/>
<path d="M42.4291 33.25L41.134 32.5022L41.134 33.9978L42.4291 33.25ZM25.5918 33.1205L25.4623 33.1205L25.4623 33.3795L25.5918 33.3795L25.5918 33.25L25.5918 33.1205ZM41.2635 33.25L41.2635 33.1205L25.5918 33.1205L25.5918 33.25L25.5918 33.3795L41.2635 33.3795L41.2635 33.25Z" fill="black"/>
<path d="M6.42291 33.25L7.71809 33.9978V32.5022L6.42291 33.25ZM22.7422 33.3795H22.8717V33.1205H22.7422V33.25V33.3795ZM7.58857 33.25V33.3795H22.7422V33.25V33.1205H7.58857V33.25Z" fill="black"/>
</svg>
