<svg width="176" height="136" viewBox="0 0 176 136" fill="none" xmlns="http://www.w3.org/2000/svg">
<path d="M0 16C0 7.16344 7.16344 0 16 0H160C168.837 0 176 7.16344 176 16V120C176 128.837 168.837 136 160 136H16C7.16344 136 0 128.837 0 120V16Z" fill="white"/>
<path d="M16 0.5H160C168.56 0.5 175.5 7.43959 175.5 16V120C175.5 128.56 168.56 135.5 160 135.5H16C7.43959 135.5 0.5 128.56 0.5 120V16C0.5 7.43959 7.43959 0.5 16 0.5Z" stroke="#B02E0C" stroke-opacity="0.16"/>
<circle cx="88" cy="68" r="54.2" stroke="black" stroke-width="1.6"/>
<circle cx="88" cy="29" r="4.5" stroke="black"/>
<circle cx="110.926" cy="36.4484" r="4.5" transform="rotate(36 110.926 36.4484)" stroke="black"/>
<circle cx="125.091" cy="55.9483" r="4.5" transform="rotate(72 125.091 55.9483)" stroke="black"/>
<circle cx="125.09" cy="80.0515" r="4.5" transform="rotate(108 125.09 80.0515)" stroke="black"/>
<circle cx="110.926" cy="99.5516" r="4.5" transform="rotate(144 110.926 99.5516)" stroke="black"/>
<circle cx="88" cy="107" r="4.5" transform="rotate(180 88 107)" stroke="black"/>
<circle cx="65.0774" cy="99.5516" r="4.5" transform="rotate(-144 65.0774 99.5516)" stroke="black"/>
<circle cx="50.9094" cy="80.0517" r="4.5" transform="rotate(-108 50.9094 80.0517)" stroke="black"/>
<circle cx="50.9097" cy="55.9485" r="4.5" transform="rotate(-72 50.9097 55.9485)" stroke="black"/>
<circle cx="65.0778" cy="36.4484" r="4.5" transform="rotate(-36 65.0778 36.4484)" stroke="black"/>
<circle cx="88" cy="68" r="48.2" stroke="#F7941D" stroke-width="1.6"/>
<path d="M50.444 65.728H52.466C52.886 65.728 53.234 65.824 53.504 66.016C53.768 66.208 53.906 66.508 53.906 66.916C53.906 67.174 53.84 67.396 53.72 67.576C53.594 67.756 53.42 67.888 53.198 67.966C53.3 67.99 53.39 68.026 53.468 68.074C53.54 68.122 53.6 68.176 53.642 68.23C53.684 68.29 53.72 68.362 53.75 68.446C53.774 68.536 53.792 68.614 53.804 68.68C53.816 68.746 53.822 68.83 53.834 68.938C53.834 68.968 53.84 69.022 53.846 69.1C53.852 69.184 53.858 69.238 53.858 69.262C53.858 69.286 53.864 69.334 53.87 69.394C53.876 69.46 53.882 69.508 53.888 69.532C53.888 69.556 53.894 69.598 53.906 69.646C53.918 69.694 53.924 69.736 53.936 69.76C53.942 69.784 53.954 69.814 53.966 69.85C53.978 69.886 53.99 69.91 54.008 69.934C54.02 69.958 54.038 69.982 54.062 70H53.258C53.246 69.988 53.234 69.97 53.222 69.946C53.21 69.922 53.204 69.898 53.198 69.874C53.186 69.85 53.18 69.826 53.18 69.802C53.174 69.778 53.168 69.748 53.162 69.712C53.156 69.676 53.156 69.64 53.156 69.616L53.144 69.508L53.132 69.4C53.132 69.376 53.126 69.334 53.126 69.274C53.12 69.214 53.12 69.172 53.12 69.148C53.096 68.8 53.024 68.566 52.898 68.434C52.772 68.302 52.532 68.236 52.184 68.236H51.188V70H50.444V65.728ZM51.188 66.34V67.678H52.178C52.322 67.678 52.442 67.672 52.544 67.654C52.64 67.642 52.742 67.612 52.844 67.57C52.946 67.528 53.024 67.456 53.078 67.36C53.132 67.264 53.162 67.144 53.162 66.994C53.162 66.862 53.138 66.748 53.09 66.658C53.042 66.568 52.97 66.502 52.88 66.454C52.79 66.412 52.7 66.382 52.604 66.364C52.508 66.352 52.4 66.34 52.274 66.34H51.188Z" fill="#060C12"/>
<path d="M41 68L43.2982 69.3269V66.6731L41 68ZM49 68.2298H49.2298V67.7702H49V68.2298ZM43.0684 68V68.2298H49V68V67.7702H43.0684V68Z" fill="black"/>
<path d="M108.713 44.304H110.881C111.273 44.304 111.617 44.352 111.921 44.432C112.217 44.512 112.489 44.664 112.745 44.888C113.305 45.392 113.585 46.112 113.585 47.056C113.585 48.064 113.313 48.84 112.785 49.368C112.545 49.608 112.289 49.768 112.017 49.864C111.745 49.96 111.385 50 110.937 50H108.713V44.304ZM109.705 45.152V49.16H110.881C111.505 49.16 111.945 48.984 112.201 48.616C112.457 48.256 112.585 47.752 112.585 47.104C112.585 46.496 112.441 46.016 112.153 45.672C111.865 45.328 111.417 45.152 110.817 45.152H109.705Z" fill="black"/>
<path d="M74.1723 63.96V71H72.9523V66.16H71.2123V65.32C72.4223 65.32 73.1023 64.87 73.2523 63.96H74.1723ZM78.719 63.94C80.339 63.94 81.159 65.15 81.159 67.57C81.159 68.74 80.949 69.63 80.549 70.23C80.139 70.84 79.539 71.14 78.759 71.14C77.129 71.14 76.319 69.95 76.319 67.55C76.319 66.37 76.519 65.48 76.929 64.86C77.329 64.25 77.929 63.94 78.719 63.94ZM78.729 64.9C78.529 64.9 78.349 64.94 78.209 65.02C78.059 65.1 77.939 65.21 77.849 65.37C77.759 65.53 77.689 65.68 77.639 65.84C77.579 66 77.539 66.19 77.519 66.43C77.499 66.67 77.479 66.87 77.479 67.03C77.469 67.19 77.469 67.38 77.469 67.62C77.469 68.52 77.569 69.18 77.769 69.58C77.969 69.99 78.299 70.19 78.749 70.19C78.919 70.19 79.069 70.16 79.209 70.09C79.349 70.02 79.459 69.93 79.549 69.83C79.629 69.73 79.709 69.6 79.769 69.43C79.829 69.27 79.869 69.12 79.899 68.98C79.929 68.84 79.949 68.67 79.969 68.47C79.989 68.27 79.999 68.11 79.999 68C79.999 67.89 80.009 67.75 80.009 67.57C80.009 67.35 79.999 67.17 79.999 67.05C79.999 66.93 79.989 66.74 79.969 66.49C79.949 66.24 79.909 66.04 79.849 65.88C79.789 65.73 79.719 65.57 79.629 65.4C79.539 65.24 79.419 65.11 79.269 65.03C79.109 64.95 78.929 64.9 78.729 64.9ZM85.0388 63.88H88.2888C89.0288 63.88 89.5988 64.05 89.9988 64.37C90.3988 64.69 90.5988 65.13 90.5988 65.67C90.5988 66.01 90.4988 66.32 90.3188 66.59C90.1288 66.86 89.8788 67.05 89.5788 67.17C89.9888 67.27 90.3188 67.47 90.5588 67.77C90.7988 68.07 90.9188 68.45 90.9188 68.9C90.9188 69.53 90.7088 70.04 90.2888 70.42C89.8688 70.81 89.3288 71 88.6688 71H85.0388V63.88ZM86.2588 64.89V66.85H87.9588C88.4388 66.85 88.7888 66.78 89.0188 66.63C89.2388 66.48 89.3588 66.23 89.3588 65.87C89.3588 65.47 89.2388 65.21 88.9988 65.08C88.7588 64.96 88.4288 64.89 87.9988 64.89H86.2588ZM86.2588 67.75V69.98H88.1288C88.6088 69.98 88.9788 69.9 89.2588 69.74C89.5288 69.58 89.6688 69.29 89.6688 68.87C89.6688 68.64 89.6188 68.45 89.5388 68.29C89.4588 68.13 89.3388 68.02 89.1788 67.94C89.0188 67.87 88.8588 67.82 88.6988 67.79C88.5288 67.77 88.3288 67.75 88.1088 67.75H86.2588ZM91.8898 67.43C92.0098 66.27 92.7598 65.68 94.1498 65.68C94.7898 65.68 95.3098 65.81 95.6898 66.06C96.0698 66.32 96.2698 66.71 96.2698 67.24V69.86C96.2698 70.01 96.2798 70.11 96.3198 70.16C96.3598 70.22 96.4298 70.24 96.5398 70.24C96.6198 70.24 96.6998 70.24 96.7998 70.22V71.02C96.4998 71.1 96.2598 71.13 96.0598 71.13C95.5698 71.13 95.2898 70.93 95.2198 70.51C94.7798 70.93 94.1798 71.13 93.4098 71.13C92.8698 71.13 92.4498 71 92.1398 70.72C91.8198 70.44 91.6698 70.07 91.6698 69.59C91.6698 69.45 91.6798 69.31 91.7198 69.18C91.7498 69.06 91.7898 68.95 91.8298 68.85C91.8698 68.76 91.9398 68.67 92.0398 68.59C92.1398 68.51 92.2198 68.45 92.2798 68.39C92.3398 68.34 92.4498 68.29 92.5898 68.24C92.7298 68.2 92.8398 68.16 92.9098 68.14C92.9798 68.12 93.0998 68.09 93.2798 68.06C93.4498 68.04 93.5598 68.02 93.6198 68.01C93.6798 68 93.7998 67.98 93.9798 67.96C94.3798 67.91 94.6598 67.87 94.8098 67.83C94.9498 67.79 95.0498 67.74 95.1098 67.66C95.1498 67.61 95.1798 67.49 95.1798 67.29C95.1798 66.77 94.8198 66.51 94.1198 66.51C93.7398 66.51 93.4698 66.58 93.2998 66.72C93.1198 66.86 93.0098 67.1 92.9698 67.43H91.8898ZM95.1698 68.41C95.0798 68.46 94.9798 68.5 94.8698 68.54C94.7498 68.58 94.6598 68.6 94.5898 68.61C94.5198 68.62 94.4098 68.63 94.2598 68.65C94.1098 68.67 94.0098 68.69 93.9698 68.69C93.8298 68.71 93.7198 68.73 93.6398 68.75C93.5598 68.77 93.4598 68.79 93.3398 68.83C93.2198 68.87 93.1298 68.92 93.0698 68.98C93.0098 69.04 92.9498 69.11 92.9098 69.21C92.8598 69.31 92.8398 69.42 92.8398 69.55C92.8398 69.8 92.9198 69.99 93.0798 70.12C93.2398 70.26 93.4698 70.32 93.7698 70.32C94.2698 70.32 94.6598 70.19 94.9398 69.91C95.0898 69.76 95.1698 69.46 95.1698 69.02V68.41ZM100.416 65.74V66.83C100.216 66.81 100.076 66.8 100.016 66.8C99.0165 66.8 98.5265 67.45 98.5265 68.73V71H97.3965V65.84H98.4665V66.87C98.8265 66.11 99.4065 65.72 100.196 65.72L100.416 65.74ZM105.102 67.34H104.012C103.942 66.8 103.572 66.52 102.892 66.52C102.592 66.52 102.372 66.58 102.212 66.68C102.052 66.79 101.972 66.94 101.972 67.12C101.972 67.18 101.972 67.24 101.982 67.28C101.992 67.33 102.012 67.37 102.042 67.41C102.072 67.45 102.102 67.48 102.122 67.5C102.142 67.53 102.192 67.56 102.252 67.58C102.312 67.61 102.352 67.63 102.392 67.65C102.432 67.67 102.492 67.69 102.582 67.71C102.662 67.73 102.732 67.75 102.782 67.76C102.832 67.78 102.912 67.8 103.032 67.82C103.142 67.84 103.232 67.86 103.292 67.87C103.552 67.93 103.732 67.98 103.852 68.01C103.972 68.04 104.142 68.1 104.362 68.19C104.582 68.28 104.752 68.37 104.862 68.47C104.962 68.57 105.062 68.7 105.152 68.87C105.242 69.04 105.292 69.23 105.292 69.45C105.292 69.97 105.082 70.39 104.682 70.69C104.272 71 103.722 71.15 103.042 71.15C102.302 71.15 101.742 71 101.352 70.69C100.952 70.39 100.742 69.94 100.722 69.35H101.812C101.872 70 102.282 70.32 103.062 70.32C103.392 70.32 103.662 70.26 103.862 70.12C104.062 69.98 104.172 69.8 104.172 69.57C104.172 69.46 104.142 69.36 104.092 69.28C104.042 69.2 103.962 69.14 103.852 69.08C103.732 69.02 103.622 68.98 103.522 68.95C103.422 68.92 103.282 68.88 103.112 68.84L103.052 68.83C103.032 68.83 103.022 68.82 103.002 68.82C102.982 68.82 102.962 68.81 102.942 68.8C102.202 68.62 101.742 68.48 101.542 68.38C101.062 68.16 100.832 67.78 100.832 67.25C100.832 66.77 101.012 66.39 101.392 66.11C101.762 65.83 102.282 65.69 102.942 65.69C103.572 65.69 104.092 65.83 104.492 66.1C104.892 66.38 105.102 66.79 105.102 67.34Z" fill="black"/>
<path d="M60.8905 49.943C51.1058 26.9536 61.0175 23.9018 80.3171 35.983" stroke="#B02E0C" stroke-width="1.54995" stroke-linecap="round"/>
</svg>
