<svg width="176" height="136" viewBox="0 0 176 136" fill="none" xmlns="http://www.w3.org/2000/svg">
<path d="M0 16C0 7.16344 7.16344 0 16 0H160C168.837 0 176 7.16344 176 16V120C176 128.837 168.837 136 160 136H16C7.16344 136 0 128.837 0 120V16Z" fill="white"/>
<path d="M16 0.5H160C168.56 0.5 175.5 7.43959 175.5 16V120C175.5 128.56 168.56 135.5 160 135.5H16C7.43959 135.5 0.5 128.56 0.5 120V16C0.5 7.43959 7.43959 0.5 16 0.5Z" stroke="#B02E0C" stroke-opacity="0.16"/>
<path d="M127.956 28.9998L121.245 39.5459L114.535 50.0919" stroke="black" stroke-width="2" stroke-linecap="square"/>
<path d="M161.641 57.2927L144.782 75.7524" stroke="black" stroke-width="2" stroke-linecap="square"/>
<rect x="25.1" y="28.1" width="136.8" height="67.8" rx="12.9" stroke="black" stroke-width="2.2"/>
<path d="M12.952 65.9883L14.984 63.0363L13.096 60.2923H14.288L15.584 62.3083L16.936 60.2923H18.056L16.168 63.0363L18.192 65.9883H16.976L15.552 63.8123L14.104 65.9883H12.952Z" fill="#060C12"/>
<path d="M16 26.9999L13.1132 31.9999L18.8868 31.9999L16 26.9999ZM15.5 56.77L15.5 57.27L16.5 57.27L16.5 56.77L15.5 56.77ZM16 31.4999L15.5 31.4999L15.5 56.77L16 56.77L16.5 56.77L16.5 31.4999L16 31.4999Z" fill="black"/>
<path d="M16 97.0001L18.8868 92.0001L13.1132 92.0001L16 97.0001ZM16.5 67.23L16.5 66.73L15.5 66.73L15.5 67.23L16.5 67.23ZM16 92.5001L16.5 92.5001L16.5 67.23L16 67.23L15.5 67.23L15.5 92.5001L16 92.5001Z" fill="black"/>
<path d="M95.24 104.304L93.096 107.736V110H92.112V107.736L89.96 104.304H91.112L92.624 106.824L94.12 104.304H95.24Z" fill="#060C12"/>
<path d="M163 107L158 104.113L158 109.887L163 107ZM98 106.5L97.5 106.5L97.5 107.5L98 107.5L98 106.5ZM158.5 107L158.5 106.5L98 106.5L98 107L98 107.5L158.5 107.5L158.5 107Z" fill="black"/>
<path d="M24 107L29 109.887V104.113L24 107ZM87 107.5H87.5V106.5H87V107.5ZM28.5 107V107.5H87V107V106.5H28.5V107Z" fill="black"/>
</svg>
