<svg width="176" height="136" viewBox="0 0 176 136" fill="none" xmlns="http://www.w3.org/2000/svg">
<path d="M0 16C0 7.16344 7.16344 0 16 0H160C168.837 0 176 7.16344 176 16V120C176 128.837 168.837 136 160 136H16C7.16344 136 0 128.837 0 120V16Z" fill="white"/>
<path d="M16 0.5H160C168.56 0.5 175.5 7.43959 175.5 16V120C175.5 128.56 168.56 135.5 160 135.5H16C7.43959 135.5 0.5 128.56 0.5 120V16C0.5 7.43959 7.43959 0.5 16 0.5Z" stroke="#B02E0C" stroke-opacity="0.16"/>
<circle cx="88" cy="68" r="54.2" stroke="black" stroke-width="1.6"/>
<circle cx="88" cy="29" r="4.5" stroke="black"/>
<circle cx="107.502" cy="34.2251" r="4.5" transform="rotate(30 107.502 34.2251)" stroke="black"/>
<circle cx="121.775" cy="48.5" r="4.5" transform="rotate(60 121.775 48.5)" stroke="black"/>
<circle cx="127" cy="68" r="4.5" transform="rotate(90 127 68)" stroke="black"/>
<circle cx="121.775" cy="87.5" r="4.5" transform="rotate(120 121.775 87.5)" stroke="black"/>
<circle cx="107.498" cy="101.775" r="4.5" transform="rotate(150 107.498 101.775)" stroke="black"/>
<circle cx="88" cy="107" r="4.5" transform="rotate(180 88 107)" stroke="black"/>
<circle cx="68.498" cy="101.775" r="4.5" transform="rotate(-150 68.498 101.775)" stroke="black"/>
<circle cx="54.2247" cy="87.5" r="4.5" transform="rotate(-120 54.2247 87.5)" stroke="black"/>
<circle cx="49" cy="68" r="4.5" transform="rotate(-90 49 68)" stroke="black"/>
<circle cx="54.2247" cy="48.5" r="4.5" transform="rotate(-60 54.2247 48.5)" stroke="black"/>
<circle cx="68.502" cy="34.2251" r="4.5" transform="rotate(-30 68.502 34.2251)" stroke="black"/>
<circle cx="88" cy="68" r="48.2" stroke="#F7941D" stroke-width="1.6"/>
<path d="M50.444 75.728H52.466C52.886 75.728 53.234 75.824 53.504 76.016C53.768 76.208 53.906 76.508 53.906 76.916C53.906 77.174 53.84 77.396 53.72 77.576C53.594 77.756 53.42 77.888 53.198 77.966C53.3 77.99 53.39 78.026 53.468 78.074C53.54 78.122 53.6 78.176 53.642 78.23C53.684 78.29 53.72 78.362 53.75 78.446C53.774 78.536 53.792 78.614 53.804 78.68C53.816 78.746 53.822 78.83 53.834 78.938C53.834 78.968 53.84 79.022 53.846 79.1C53.852 79.184 53.858 79.238 53.858 79.262C53.858 79.286 53.864 79.334 53.87 79.394C53.876 79.46 53.882 79.508 53.888 79.532C53.888 79.556 53.894 79.598 53.906 79.646C53.918 79.694 53.924 79.736 53.936 79.76C53.942 79.784 53.954 79.814 53.966 79.85C53.978 79.886 53.99 79.91 54.008 79.934C54.02 79.958 54.038 79.982 54.062 80H53.258C53.246 79.988 53.234 79.97 53.222 79.946C53.21 79.922 53.204 79.898 53.198 79.874C53.186 79.85 53.18 79.826 53.18 79.802C53.174 79.778 53.168 79.748 53.162 79.712C53.156 79.676 53.156 79.64 53.156 79.616L53.144 79.508L53.132 79.4C53.132 79.376 53.126 79.334 53.126 79.274C53.12 79.214 53.12 79.172 53.12 79.148C53.096 78.8 53.024 78.566 52.898 78.434C52.772 78.302 52.532 78.236 52.184 78.236H51.188V80H50.444V75.728ZM51.188 76.34V77.678H52.178C52.322 77.678 52.442 77.672 52.544 77.654C52.64 77.642 52.742 77.612 52.844 77.57C52.946 77.528 53.024 77.456 53.078 77.36C53.132 77.264 53.162 77.144 53.162 76.994C53.162 76.862 53.138 76.748 53.09 76.658C53.042 76.568 52.97 76.502 52.88 76.454C52.79 76.412 52.7 76.382 52.604 76.364C52.508 76.352 52.4 76.34 52.274 76.34H51.188Z" fill="#060C12"/>
<path d="M41 78L43.2982 79.3269V76.6731L41 78ZM49 78.2298H49.2298V77.7702H49V78.2298ZM43.0684 78V78.2298H49V78V77.7702H43.0684V78Z" fill="black"/>
<path d="M105.713 41.304H107.881C108.273 41.304 108.617 41.352 108.921 41.432C109.217 41.512 109.489 41.664 109.745 41.888C110.305 42.392 110.585 43.112 110.585 44.056C110.585 45.064 110.313 45.84 109.785 46.368C109.545 46.608 109.289 46.768 109.017 46.864C108.745 46.96 108.385 47 107.937 47H105.713V41.304ZM106.705 42.152V46.16H107.881C108.505 46.16 108.945 45.984 109.201 45.616C109.457 45.256 109.585 44.752 109.585 44.104C109.585 43.496 109.441 43.016 109.153 42.672C108.865 42.328 108.417 42.152 107.817 42.152H106.705Z" fill="black"/>
<path d="M74.1723 63.96V71H72.9523V66.16H71.2123V65.32C72.4223 65.32 73.1023 64.87 73.2523 63.96H74.1723ZM80.969 69.99V71H76.189C76.189 70.69 76.239 70.4 76.319 70.14C76.399 69.88 76.489 69.66 76.589 69.48C76.689 69.3 76.849 69.11 77.049 68.92C77.249 68.73 77.439 68.57 77.599 68.45C77.759 68.33 77.989 68.17 78.279 67.97C78.299 67.96 78.389 67.9 78.569 67.78C78.749 67.66 78.859 67.59 78.899 67.56C78.939 67.53 79.029 67.46 79.169 67.35C79.309 67.24 79.399 67.15 79.439 67.08C79.479 67.02 79.539 66.93 79.619 66.81C79.699 66.7 79.749 66.59 79.779 66.47C79.799 66.35 79.819 66.23 79.819 66.09C79.819 65.73 79.709 65.44 79.509 65.23C79.309 65.02 79.029 64.91 78.689 64.91C78.489 64.91 78.309 64.95 78.169 65.01C78.019 65.07 77.899 65.15 77.819 65.25C77.739 65.35 77.669 65.48 77.619 65.64C77.559 65.8 77.529 65.94 77.509 66.08C77.489 66.22 77.479 66.39 77.479 66.57H76.369V66.39C76.369 65.64 76.579 65.04 76.999 64.6C77.419 64.16 77.999 63.93 78.719 63.93C79.399 63.93 79.939 64.13 80.359 64.51C80.769 64.89 80.979 65.4 80.979 66.03C80.979 66.29 80.939 66.53 80.859 66.75C80.779 66.98 80.689 67.16 80.599 67.3C80.509 67.44 80.359 67.61 80.139 67.79C79.919 67.98 79.749 68.11 79.649 68.18C79.539 68.26 79.339 68.39 79.059 68.58C78.219 69.12 77.719 69.59 77.559 69.99H80.969ZM85.0388 63.88H88.2888C89.0288 63.88 89.5988 64.05 89.9988 64.37C90.3988 64.69 90.5988 65.13 90.5988 65.67C90.5988 66.01 90.4988 66.32 90.3188 66.59C90.1288 66.86 89.8788 67.05 89.5788 67.17C89.9888 67.27 90.3188 67.47 90.5588 67.77C90.7988 68.07 90.9188 68.45 90.9188 68.9C90.9188 69.53 90.7088 70.04 90.2888 70.42C89.8688 70.81 89.3288 71 88.6688 71H85.0388V63.88ZM86.2588 64.89V66.85H87.9588C88.4388 66.85 88.7888 66.78 89.0188 66.63C89.2388 66.48 89.3588 66.23 89.3588 65.87C89.3588 65.47 89.2388 65.21 88.9988 65.08C88.7588 64.96 88.4288 64.89 87.9988 64.89H86.2588ZM86.2588 67.75V69.98H88.1288C88.6088 69.98 88.9788 69.9 89.2588 69.74C89.5288 69.58 89.6688 69.29 89.6688 68.87C89.6688 68.64 89.6188 68.45 89.5388 68.29C89.4588 68.13 89.3388 68.02 89.1788 67.94C89.0188 67.87 88.8588 67.82 88.6988 67.79C88.5288 67.77 88.3288 67.75 88.1088 67.75H86.2588ZM91.8898 67.43C92.0098 66.27 92.7598 65.68 94.1498 65.68C94.7898 65.68 95.3098 65.81 95.6898 66.06C96.0698 66.32 96.2698 66.71 96.2698 67.24V69.86C96.2698 70.01 96.2798 70.11 96.3198 70.16C96.3598 70.22 96.4298 70.24 96.5398 70.24C96.6198 70.24 96.6998 70.24 96.7998 70.22V71.02C96.4998 71.1 96.2598 71.13 96.0598 71.13C95.5698 71.13 95.2898 70.93 95.2198 70.51C94.7798 70.93 94.1798 71.13 93.4098 71.13C92.8698 71.13 92.4498 71 92.1398 70.72C91.8198 70.44 91.6698 70.07 91.6698 69.59C91.6698 69.45 91.6798 69.31 91.7198 69.18C91.7498 69.06 91.7898 68.95 91.8298 68.85C91.8698 68.76 91.9398 68.67 92.0398 68.59C92.1398 68.51 92.2198 68.45 92.2798 68.39C92.3398 68.34 92.4498 68.29 92.5898 68.24C92.7298 68.2 92.8398 68.16 92.9098 68.14C92.9798 68.12 93.0998 68.09 93.2798 68.06C93.4498 68.04 93.5598 68.02 93.6198 68.01C93.6798 68 93.7998 67.98 93.9798 67.96C94.3798 67.91 94.6598 67.87 94.8098 67.83C94.9498 67.79 95.0498 67.74 95.1098 67.66C95.1498 67.61 95.1798 67.49 95.1798 67.29C95.1798 66.77 94.8198 66.51 94.1198 66.51C93.7398 66.51 93.4698 66.58 93.2998 66.72C93.1198 66.86 93.0098 67.1 92.9698 67.43H91.8898ZM95.1698 68.41C95.0798 68.46 94.9798 68.5 94.8698 68.54C94.7498 68.58 94.6598 68.6 94.5898 68.61C94.5198 68.62 94.4098 68.63 94.2598 68.65C94.1098 68.67 94.0098 68.69 93.9698 68.69C93.8298 68.71 93.7198 68.73 93.6398 68.75C93.5598 68.77 93.4598 68.79 93.3398 68.83C93.2198 68.87 93.1298 68.92 93.0698 68.98C93.0098 69.04 92.9498 69.11 92.9098 69.21C92.8598 69.31 92.8398 69.42 92.8398 69.55C92.8398 69.8 92.9198 69.99 93.0798 70.12C93.2398 70.26 93.4698 70.32 93.7698 70.32C94.2698 70.32 94.6598 70.19 94.9398 69.91C95.0898 69.76 95.1698 69.46 95.1698 69.02V68.41ZM100.416 65.74V66.83C100.216 66.81 100.076 66.8 100.016 66.8C99.0165 66.8 98.5265 67.45 98.5265 68.73V71H97.3965V65.84H98.4665V66.87C98.8265 66.11 99.4065 65.72 100.196 65.72L100.416 65.74ZM105.102 67.34H104.012C103.942 66.8 103.572 66.52 102.892 66.52C102.592 66.52 102.372 66.58 102.212 66.68C102.052 66.79 101.972 66.94 101.972 67.12C101.972 67.18 101.972 67.24 101.982 67.28C101.992 67.33 102.012 67.37 102.042 67.41C102.072 67.45 102.102 67.48 102.122 67.5C102.142 67.53 102.192 67.56 102.252 67.58C102.312 67.61 102.352 67.63 102.392 67.65C102.432 67.67 102.492 67.69 102.582 67.71C102.662 67.73 102.732 67.75 102.782 67.76C102.832 67.78 102.912 67.8 103.032 67.82C103.142 67.84 103.232 67.86 103.292 67.87C103.552 67.93 103.732 67.98 103.852 68.01C103.972 68.04 104.142 68.1 104.362 68.19C104.582 68.28 104.752 68.37 104.862 68.47C104.962 68.57 105.062 68.7 105.152 68.87C105.242 69.04 105.292 69.23 105.292 69.45C105.292 69.97 105.082 70.39 104.682 70.69C104.272 71 103.722 71.15 103.042 71.15C102.302 71.15 101.742 71 101.352 70.69C100.952 70.39 100.742 69.94 100.722 69.35H101.812C101.872 70 102.282 70.32 103.062 70.32C103.392 70.32 103.662 70.26 103.862 70.12C104.062 69.98 104.172 69.8 104.172 69.57C104.172 69.46 104.142 69.36 104.092 69.28C104.042 69.2 103.962 69.14 103.852 69.08C103.732 69.02 103.622 68.98 103.522 68.95C103.422 68.92 103.282 68.88 103.112 68.84L103.052 68.83C103.032 68.83 103.022 68.82 103.002 68.82C102.982 68.82 102.962 68.81 102.942 68.8C102.202 68.62 101.742 68.48 101.542 68.38C101.062 68.16 100.832 67.78 100.832 67.25C100.832 66.77 101.012 66.39 101.392 66.11C101.762 65.83 102.282 65.69 102.942 65.69C103.572 65.69 104.092 65.83 104.492 66.1C104.892 66.38 105.102 66.79 105.102 67.34Z" fill="black"/>
<path d="M64.8899 46.9434C54.9984 25.5 64.8885 21.9998 81.4998 32.9997" stroke="#B02E0C" stroke-width="1.54995" stroke-linecap="round"/>
</svg>
