<svg width="176" height="136" viewBox="0 0 176 136" fill="none" xmlns="http://www.w3.org/2000/svg">
<path d="M0 16C0 7.16344 7.16344 0 16 0H160C168.837 0 176 7.16344 176 16V120C176 128.837 168.837 136 160 136H16C7.16344 136 0 128.837 0 120V16Z" fill="white"/>
<path d="M16 0.5H160C168.56 0.5 175.5 7.43959 175.5 16V120C175.5 128.56 168.56 135.5 160 135.5H16C7.43959 135.5 0.5 128.56 0.5 120V16C0.5 7.43959 7.43959 0.5 16 0.5Z" stroke="#B02E0C" stroke-opacity="0.16"/>
<path d="M117.956 26.9993L111.245 37.5454L104.535 48.0914" stroke="black" stroke-width="2" stroke-linecap="square"/>
<path d="M157.425 66.0993L140.999 84.9462" stroke="black" stroke-width="2" stroke-linecap="square"/>
<rect x="47.1" y="26.1" width="110.8" height="84.8" rx="12.9" stroke="black" stroke-width="2.2"/>
<path d="M32.952 72L34.984 69.048L33.096 66.304H34.288L35.584 68.32L36.936 66.304H38.056L36.168 69.048L38.192 72H36.976L35.552 69.824L34.104 72H32.952Z" fill="#060C12"/>
<path d="M36 25L33.1132 30L38.8868 30L36 25ZM35.5 62L35.5 62.5L36.5 62.5L36.5 62L35.5 62ZM36 29.5L35.5 29.5L35.5 62L36 62L36.5 62L36.5 29.5L36 29.5Z" fill="black"/>
<path d="M36 112L38.8868 107L33.1132 107L36 112ZM36.5 75L36.5 74.5L35.5 74.5L35.5 75L36.5 75ZM36 107.5L36.5 107.5L36.5 75L36 75L35.5 75L35.5 107.5L36 107.5Z" fill="black"/>
</svg>
