<svg width="46" height="46" viewBox="0 0 46 46" fill="none" xmlns="http://www.w3.org/2000/svg">
<rect width="46" height="46" rx="11.3448" fill="#F3F3F3"/>
<rect x="0.405172" y="0.405172" width="45.1897" height="45.1897" rx="10.9397" stroke="#B02E0C" stroke-opacity="0.04" stroke-width="0.810345"/>
<path d="M40.3564 7.25342V36.6216H3.67383V7.25342H40.3564Z" stroke="black" stroke-width="0.450087"/>
<path d="M6.98242 8.37854H37.0479C38.2534 8.37854 39.2305 9.35654 39.2305 10.5621V33.3141C39.2303 34.5196 38.2534 35.4967 37.0479 35.4967H6.98242C5.77692 35.4967 4.79898 34.5196 4.79883 33.3141V10.5621C4.79883 9.35654 5.77683 8.37854 6.98242 8.37854Z" stroke="#FF9411" stroke-width="0.450087"/>
<circle cx="7.94955" cy="11.5297" r="1.46208" stroke="black" stroke-width="0.451494"/>
<circle cx="7.94955" cy="32.3462" r="1.46208" stroke="black" stroke-width="0.451494"/>
<circle cx="7.94955" cy="21.9377" r="1.46208" stroke="black" stroke-width="0.451494"/>
<circle cx="22.014" cy="11.5297" r="1.46208" stroke="black" stroke-width="0.451494"/>
<circle cx="22.014" cy="32.3462" r="1.46208" stroke="black" stroke-width="0.451494"/>
<circle cx="36.0804" cy="11.5297" r="1.46208" stroke="black" stroke-width="0.451494"/>
<circle cx="36.0804" cy="32.3462" r="1.46208" stroke="black" stroke-width="0.451494"/>
<circle cx="36.0804" cy="21.9377" r="1.46208" stroke="black" stroke-width="0.451494"/>
<path d="M6.26775 16.0304C2.67553 7.70296 6.26788 6.57771 13.2946 10.9289" stroke="#B02E0C" stroke-width="0.562609" stroke-linecap="round"/>
<path d="M22.015 8.43494L4.85547 21.9376L22.015 35.5808L39.1746 21.9376L22.015 8.43494Z" stroke="#FF9411" stroke-width="0.450087" stroke-linecap="square"/>
<path d="M9.63743 25.0322C3.58928 23.3444 4.71461 19.1249 10.7625 19.5468" stroke="#B02E0C" stroke-width="0.562609" stroke-linecap="round"/>
<path d="M7.51162 28.206H8.08042C8.19856 28.206 8.29646 28.233 8.37241 28.287C8.44667 28.341 8.48549 28.4254 8.48549 28.5402C8.48549 28.6127 8.46693 28.6752 8.43317 28.7258C8.39773 28.7765 8.34878 28.8136 8.28633 28.8355C8.31502 28.8423 8.34034 28.8524 8.36228 28.8659C8.38254 28.8794 8.39942 28.8946 8.41123 28.9098C8.42304 28.9267 8.43317 28.9469 8.44161 28.9706C8.44836 28.9959 8.45343 29.0178 8.4568 29.0364C8.46018 29.055 8.46186 29.0786 8.46524 29.109C8.46524 29.1174 8.46693 29.1326 8.46862 29.1545C8.4703 29.1782 8.47199 29.1934 8.47199 29.2001C8.47199 29.2069 8.47368 29.2204 8.47537 29.2372C8.47706 29.2558 8.47874 29.2693 8.48043 29.2761C8.48043 29.2828 8.48212 29.2946 8.48549 29.3081C8.48887 29.3216 8.49056 29.3335 8.49393 29.3402C8.49562 29.347 8.499 29.3554 8.50237 29.3655C8.50575 29.3756 8.50912 29.3824 8.51419 29.3891C8.51756 29.3959 8.52263 29.4027 8.52938 29.4077H8.30321C8.29983 29.4043 8.29646 29.3993 8.29308 29.3925C8.28971 29.3858 8.28802 29.379 8.28633 29.3723C8.28295 29.3655 8.28127 29.3588 8.28127 29.352C8.27958 29.3453 8.27789 29.3368 8.2762 29.3267C8.27452 29.3166 8.27452 29.3064 8.27452 29.2997L8.27114 29.2693L8.26776 29.2389C8.26776 29.2322 8.26608 29.2204 8.26608 29.2035C8.26439 29.1866 8.26439 29.1748 8.26439 29.168C8.25764 29.0701 8.23738 29.0043 8.20194 28.9672C8.16649 28.9301 8.09898 28.9115 8.00109 28.9115H7.72091V29.4077H7.51162V28.206ZM7.72091 28.3781V28.7545H7.9994C8.03991 28.7545 8.07366 28.7528 8.10236 28.7478C8.12936 28.7444 8.15806 28.736 8.18675 28.7241C8.21544 28.7123 8.23738 28.6921 8.25257 28.6651C8.26776 28.6381 8.2762 28.6043 8.2762 28.5621C8.2762 28.525 8.26945 28.4929 8.25595 28.4676C8.24245 28.4423 8.22219 28.4237 8.19688 28.4102C8.17156 28.3984 8.14624 28.39 8.11924 28.3849C8.09223 28.3815 8.06185 28.3781 8.02641 28.3781H7.72091ZM9.21143 28.2195V29.4077H9.00552V28.5908H8.71183V28.449C8.91606 28.449 9.03083 28.3731 9.05615 28.2195H9.21143Z" fill="#060C12"/>
<path d="M4.85699 28.9702L5.50349 29.3435V28.597L4.85699 28.9702ZM7.10742 29.0349H7.17207V28.9056H7.10742V28.9702V29.0349ZM5.43884 28.9702V29.0349H7.10742V28.9702V28.9056H5.43884V28.9702Z" fill="black"/>
<path d="M15.1073 26.7994H15.6761C15.7943 26.7994 15.8922 26.8264 15.9681 26.8804C16.0424 26.9344 16.0812 27.0188 16.0812 27.1336C16.0812 27.2061 16.0626 27.2686 16.0289 27.3192C15.9934 27.3699 15.9445 27.407 15.882 27.4289C15.9107 27.4357 15.936 27.4458 15.958 27.4593C15.9782 27.4728 15.9951 27.488 16.0069 27.5032C16.0187 27.5201 16.0289 27.5403 16.0373 27.564C16.0441 27.5893 16.0491 27.6112 16.0525 27.6298C16.0559 27.6483 16.0576 27.672 16.0609 27.7024C16.0609 27.7108 16.0626 27.726 16.0643 27.7479C16.066 27.7716 16.0677 27.7867 16.0677 27.7935C16.0677 27.8002 16.0694 27.8137 16.0711 27.8306C16.0728 27.8492 16.0744 27.8627 16.0761 27.8694C16.0761 27.8762 16.0778 27.888 16.0812 27.9015C16.0846 27.915 16.0863 27.9268 16.0896 27.9336C16.0913 27.9403 16.0947 27.9488 16.0981 27.9589C16.1015 27.969 16.1048 27.9758 16.1099 27.9825C16.1133 27.9893 16.1183 27.996 16.1251 28.0011H15.8989C15.8955 27.9977 15.8922 27.9927 15.8888 27.9859C15.8854 27.9792 15.8837 27.9724 15.882 27.9657C15.8787 27.9589 15.877 27.9522 15.877 27.9454C15.8753 27.9386 15.8736 27.9302 15.8719 27.9201C15.8702 27.91 15.8702 27.8998 15.8702 27.8931L15.8668 27.8627L15.8635 27.8323C15.8635 27.8256 15.8618 27.8137 15.8618 27.7969C15.8601 27.78 15.8601 27.7682 15.8601 27.7614C15.8533 27.6635 15.8331 27.5977 15.7976 27.5606C15.7622 27.5234 15.6947 27.5049 15.5968 27.5049H15.3166V28.0011H15.1073V26.7994ZM15.3166 26.9715V27.3479H15.5951C15.6356 27.3479 15.6694 27.3462 15.6981 27.3412C15.7251 27.3378 15.7538 27.3293 15.7825 27.3175C15.8111 27.3057 15.8331 27.2855 15.8483 27.2585C15.8635 27.2314 15.8719 27.1977 15.8719 27.1555C15.8719 27.1184 15.8652 27.0863 15.8517 27.061C15.8382 27.0357 15.8179 27.0171 15.7926 27.0036C15.7673 26.9918 15.7419 26.9833 15.7149 26.9783C15.6879 26.9749 15.6576 26.9715 15.6221 26.9715H15.3166ZM17.0164 27.8306V28.0011H16.2096C16.2096 27.9488 16.2181 27.8998 16.2316 27.8559C16.2451 27.8121 16.2603 27.7749 16.2772 27.7445C16.294 27.7142 16.321 27.6821 16.3548 27.65C16.3886 27.618 16.4206 27.591 16.4476 27.5707C16.4746 27.5504 16.5135 27.5234 16.5624 27.4897C16.5658 27.488 16.581 27.4779 16.6113 27.4576C16.6417 27.4374 16.6603 27.4255 16.667 27.4205C16.6738 27.4154 16.689 27.4036 16.7126 27.385C16.7362 27.3665 16.7514 27.3513 16.7582 27.3395C16.7649 27.3293 16.7751 27.3142 16.7886 27.2939C16.8021 27.2753 16.8105 27.2568 16.8156 27.2365C16.8189 27.2163 16.8223 27.196 16.8223 27.1724C16.8223 27.1116 16.8038 27.0627 16.77 27.0272C16.7362 26.9918 16.689 26.9732 16.6316 26.9732C16.5978 26.9732 16.5675 26.98 16.5438 26.9901C16.5185 27.0002 16.4983 27.0137 16.4848 27.0306C16.4713 27.0475 16.4594 27.0694 16.451 27.0964C16.4409 27.1234 16.4358 27.1471 16.4324 27.1707C16.4291 27.1943 16.4274 27.223 16.4274 27.2534H16.24V27.223C16.24 27.0964 16.2755 26.9952 16.3464 26.9209C16.4172 26.8466 16.5151 26.8078 16.6367 26.8078C16.7514 26.8078 16.8426 26.8416 16.9135 26.9057C16.9827 26.9698 17.0181 27.0559 17.0181 27.1622C17.0181 27.2061 17.0114 27.2466 16.9979 27.2838C16.9844 27.3226 16.9692 27.353 16.954 27.3766C16.9388 27.4002 16.9135 27.4289 16.8763 27.4593C16.8392 27.4914 16.8105 27.5133 16.7936 27.5251C16.7751 27.5386 16.7413 27.5606 16.694 27.5926C16.5523 27.6838 16.4679 27.7631 16.4409 27.8306H17.0164Z" fill="#060C12"/>
<path d="M12.4527 27.5636L13.0992 27.9369V27.1903L12.4527 27.5636ZM14.7031 27.6282H14.7678V27.4989H14.7031V27.5636V27.6282ZM13.0345 27.5636V27.6282H14.7031V27.5636V27.4989H13.0345V27.5636Z" fill="black"/>
<path d="M20.5577 14.1775H21.1675C21.2778 14.1775 21.3746 14.191 21.4601 14.2135C21.5434 14.236 21.6199 14.2787 21.6919 14.3418C21.8494 14.4835 21.9282 14.6861 21.9282 14.9516C21.9282 15.2352 21.8517 15.4535 21.7031 15.602C21.6356 15.6695 21.5636 15.7145 21.4871 15.7415C21.4106 15.7685 21.3093 15.7798 21.1833 15.7798H20.5577V14.1775ZM20.8367 14.416V15.5435H21.1675C21.3431 15.5435 21.4668 15.494 21.5389 15.3905C21.6109 15.2892 21.6469 15.1474 21.6469 14.9651C21.6469 14.7941 21.6064 14.6591 21.5254 14.5623C21.4443 14.4655 21.3183 14.416 21.1495 14.416H20.8367ZM23.1404 15.5525V15.7798H22.0647C22.0647 15.71 22.076 15.6448 22.094 15.5862C22.112 15.5277 22.1322 15.4782 22.1548 15.4377C22.1773 15.3972 22.2133 15.3545 22.2583 15.3117C22.3033 15.2689 22.346 15.2329 22.382 15.2059C22.4181 15.1789 22.4698 15.1429 22.5351 15.0979C22.5396 15.0957 22.5598 15.0821 22.6003 15.0551C22.6408 15.0281 22.6656 15.0124 22.6746 15.0056C22.6836 14.9989 22.7039 14.9831 22.7354 14.9584C22.7669 14.9336 22.7871 14.9134 22.7961 14.8976C22.8051 14.8841 22.8186 14.8639 22.8366 14.8369C22.8546 14.8121 22.8659 14.7873 22.8726 14.7603C22.8771 14.7333 22.8816 14.7063 22.8816 14.6748C22.8816 14.5938 22.8569 14.5285 22.8119 14.4813C22.7669 14.434 22.7039 14.4093 22.6273 14.4093C22.5823 14.4093 22.5418 14.4183 22.5103 14.4318C22.4766 14.4453 22.4496 14.4633 22.4316 14.4858C22.4136 14.5083 22.3978 14.5375 22.3865 14.5736C22.373 14.6096 22.3663 14.6411 22.3618 14.6726C22.3573 14.7041 22.355 14.7423 22.355 14.7828H22.1052V14.7423C22.1052 14.5736 22.1525 14.4385 22.247 14.3395C22.3415 14.2405 22.4721 14.1887 22.6341 14.1887C22.7871 14.1887 22.9086 14.2337 23.0032 14.3193C23.0954 14.4048 23.1427 14.5195 23.1427 14.6613C23.1427 14.7198 23.1337 14.7738 23.1157 14.8233C23.0977 14.8751 23.0774 14.9156 23.0572 14.9471C23.0369 14.9786 23.0032 15.0169 22.9537 15.0574C22.9041 15.1002 22.8659 15.1294 22.8434 15.1452C22.8186 15.1632 22.7736 15.1924 22.7106 15.2352C22.5216 15.3567 22.4091 15.4625 22.373 15.5525H23.1404Z" fill="black"/>
<path d="M34.6241 14.74H35.2339C35.3442 14.74 35.441 14.7535 35.5265 14.776C35.6098 14.7985 35.6863 14.8412 35.7583 14.9043C35.9158 15.046 35.9946 15.2486 35.9946 15.5141C35.9946 15.7977 35.9181 16.016 35.7695 16.1645C35.702 16.232 35.63 16.277 35.5535 16.304C35.477 16.331 35.3757 16.3423 35.2497 16.3423H34.6241V14.74ZM34.9031 14.9785V16.106H35.2339C35.4095 16.106 35.5332 16.0565 35.6053 15.953C35.6773 15.8517 35.7133 15.7099 35.7133 15.5276C35.7133 15.3566 35.6728 15.2216 35.5918 15.1248C35.5107 15.028 35.3847 14.9785 35.2159 14.9785H34.9031ZM36.9278 14.758V16.3423H36.6532V15.2531H36.2617V15.064C36.534 15.064 36.687 14.9628 36.7208 14.758H36.9278Z" fill="black"/>
<path d="M21.1403 38.9718L21.569 38.349L21.1706 37.7701H21.4221L21.6956 38.1954L21.9808 37.7701H22.2171L21.8188 38.349L22.2458 38.9718H21.9892L21.6888 38.5127L21.3833 38.9718H21.1403Z" fill="#060C12"/>
<path d="M3.45058 38.5343L4.09709 38.9076V38.161L3.45058 38.5343ZM20.4551 38.599H20.5197V38.4697H20.4551V38.5343V38.599ZM4.03244 38.5343V38.599H20.4551V38.5343V38.4697H4.03244V38.5343Z" fill="black"/>
<path d="M40.5826 38.5343L39.9361 38.9076V38.161L40.5826 38.5343ZM23.5781 38.599H23.5135V38.4697H23.5781V38.5343V38.599ZM40.0008 38.5343V38.599H23.5781V38.5343V38.4697H40.0008V38.5343Z" fill="black"/>
<path d="M42.5313 21.0741L42.079 21.7982V22.2759H41.8714V21.7982L41.4173 21.0741H41.6604L41.9794 21.6058L42.295 21.0741H42.5313Z" fill="#060C12"/>
<path d="M41.9102 7.02833L42.2834 7.67483L41.5369 7.67483L41.9102 7.02833ZM41.9748 20.6835L41.9748 20.7481L41.8455 20.7481L41.8455 20.6835L41.9102 20.6835L41.9748 20.6835ZM41.9102 7.61018L41.9748 7.61018L41.9748 20.6835L41.9102 20.6835L41.8455 20.6835L41.8455 7.61018L41.9102 7.61018Z" fill="black"/>
<path d="M41.9102 36.8465L42.2834 36.2L41.5369 36.2L41.9102 36.8465ZM41.9748 23.1914L41.9748 23.1268L41.8455 23.1268L41.8455 23.1914L41.9102 23.1914L41.9748 23.1914ZM41.9102 36.2647L41.9748 36.2647L41.9748 23.1914L41.9102 23.1914L41.8455 23.1914L41.8455 36.2647L41.9102 36.2647Z" fill="black"/>
</svg>
