<svg width="46" height="46" viewBox="0 0 46 46" fill="none" xmlns="http://www.w3.org/2000/svg">
<rect width="46" height="46" rx="11.1034" fill="#F3F3F3"/>
<rect x="0.396552" y="0.396552" width="45.2069" height="45.2069" rx="10.7069" stroke="#B02E0C" stroke-opacity="0.04" stroke-width="0.793103"/>
<path d="M38.1699 5.38452V38.6687H4.88574V5.38452H38.1699Z" stroke="black" stroke-width="0.505263"/>
<path d="M9.86914 7.91882H33.1836C34.537 7.91882 35.6347 9.01565 35.6348 10.369V33.6835C35.6348 35.0369 34.537 36.1346 33.1836 36.1346H9.86914C8.51577 36.1346 7.41895 35.0369 7.41895 33.6835V10.369C7.41896 9.01566 8.51578 7.91884 9.86914 7.91882Z" stroke="#FF9411" stroke-width="0.505263"/>
<path d="M11.5605 9.94702C12.7186 9.94702 13.6729 10.9219 13.6729 12.1433C13.6726 13.3645 12.7184 14.3396 11.5605 14.3396C10.4027 14.3396 9.44946 13.3645 9.44922 12.1433C9.44922 10.9219 10.4025 9.94704 11.5605 9.94702Z" stroke="black" stroke-width="0.506842"/>
<path d="M11.5605 29.714C12.7186 29.714 13.6729 30.6888 13.6729 31.9103C13.6726 33.1315 12.7184 34.1066 11.5605 34.1066C10.4027 34.1066 9.44946 33.1315 9.44922 31.9103C9.44922 30.6888 10.4025 29.714 11.5605 29.714Z" stroke="black" stroke-width="0.506842"/>
<path d="M31.4961 9.94702C32.6541 9.94702 33.6084 10.9219 33.6084 12.1433C33.6082 13.3645 32.654 14.3396 31.4961 14.3396C30.3382 14.3396 29.385 13.3645 29.3848 12.1433C29.3848 10.9219 30.3381 9.94704 31.4961 9.94702Z" stroke="black" stroke-width="0.506842"/>
<path d="M31.4961 29.714C32.6541 29.714 33.6084 30.6888 33.6084 31.9103C33.6082 33.1315 32.654 34.1066 31.4961 34.1066C30.3382 34.1066 29.385 33.1315 29.3848 31.9103C29.3848 30.6888 30.3381 29.714 31.4961 29.714Z" stroke="black" stroke-width="0.506842"/>
<path d="M9.44733 16.8737C5.64674 7.49679 9.44746 6.22974 16.8818 11.1292" stroke="#B02E0C" stroke-width="0.631579" stroke-linecap="round"/>
<path d="M30.9858 15.2036H31.4992C31.5921 15.2036 31.6735 15.2149 31.7455 15.2339C31.8156 15.2528 31.8801 15.2888 31.9407 15.3419C32.0733 15.4612 32.1396 15.6318 32.1396 15.8553C32.1396 16.0941 32.0752 16.2779 31.9502 16.4029C31.8933 16.4598 31.8327 16.4977 31.7683 16.5204C31.7039 16.5431 31.6186 16.5526 31.5125 16.5526H30.9858V15.2036ZM31.2207 15.4044V16.3537H31.4992C31.647 16.3537 31.7512 16.312 31.8119 16.2248C31.8725 16.1396 31.9028 16.0202 31.9028 15.8667C31.9028 15.7227 31.8687 15.609 31.8005 15.5276C31.7323 15.4461 31.6262 15.4044 31.4841 15.4044H31.2207Z" fill="black"/>
<path d="M20.7289 40.8684L21.2101 40.1693L20.763 39.5194H21.0453L21.3522 39.9968L21.6724 39.5194H21.9377L21.4906 40.1693L21.9699 40.8684H21.6819L21.3447 40.353L21.0017 40.8684H20.7289Z" fill="#060C12"/>
<path d="M11.7203 20.2562H12.3588C12.4914 20.2562 12.6013 20.2865 12.6866 20.3471C12.77 20.4078 12.8136 20.5025 12.8136 20.6313C12.8136 20.7128 12.7927 20.7829 12.7548 20.8398C12.715 20.8966 12.6601 20.9383 12.59 20.9629C12.6222 20.9705 12.6506 20.9819 12.6752 20.997C12.698 21.0122 12.7169 21.0292 12.7302 21.0463C12.7434 21.0652 12.7548 21.088 12.7643 21.1145C12.7719 21.1429 12.7776 21.1675 12.7813 21.1884C12.7851 21.2092 12.787 21.2358 12.7908 21.2699C12.7908 21.2793 12.7927 21.2964 12.7946 21.321C12.7965 21.3475 12.7984 21.3646 12.7984 21.3722C12.7984 21.3798 12.8003 21.3949 12.8022 21.4139C12.8041 21.4347 12.806 21.4499 12.8079 21.4574C12.8079 21.465 12.8098 21.4783 12.8136 21.4934C12.8173 21.5086 12.8192 21.5219 12.823 21.5294C12.8249 21.537 12.8287 21.5465 12.8325 21.5579C12.8363 21.5692 12.8401 21.5768 12.8458 21.5844C12.8496 21.592 12.8552 21.5995 12.8628 21.6052H12.6089C12.6051 21.6014 12.6013 21.5958 12.5976 21.5882C12.5938 21.5806 12.5919 21.573 12.59 21.5654C12.5862 21.5579 12.5843 21.5503 12.5843 21.5427C12.5824 21.5351 12.5805 21.5256 12.5786 21.5143C12.5767 21.5029 12.5767 21.4915 12.5767 21.484L12.5729 21.4499L12.5691 21.4158C12.5691 21.4082 12.5672 21.3949 12.5672 21.376C12.5653 21.357 12.5653 21.3438 12.5653 21.3362C12.5578 21.2263 12.535 21.1524 12.4952 21.1107C12.4554 21.069 12.3797 21.0482 12.2698 21.0482H11.9552V21.6052H11.7203V20.2562ZM11.9552 20.4494V20.872H12.2679C12.3133 20.872 12.3512 20.8701 12.3834 20.8644C12.4138 20.8606 12.446 20.8511 12.4782 20.8379C12.5104 20.8246 12.535 20.8019 12.5521 20.7715C12.5691 20.7412 12.5786 20.7033 12.5786 20.656C12.5786 20.6143 12.571 20.5783 12.5559 20.5499C12.5407 20.5214 12.518 20.5006 12.4896 20.4854C12.4611 20.4722 12.4327 20.4627 12.4024 20.457C12.3721 20.4532 12.338 20.4494 12.2982 20.4494H11.9552Z" fill="#060C12"/>
<path d="M7.47389 21.2368L8.19965 20.8178V21.6558L7.47389 21.2368ZM11.1055 21.1642H11.178V21.3094H11.1055V21.2368V21.1642ZM8.12707 21.2368V21.1642H11.1055V21.2368V21.3094H8.12707V21.2368Z" fill="black"/>
<path d="M4.63374 40.5L5.3595 40.919V40.081L4.63374 40.5ZM20.1074 40.5726H20.18V40.4274H20.1074V40.5V40.5726ZM5.28692 40.5V40.5726H20.1074V40.5V40.4274H5.28692V40.5Z" fill="black"/>
<path d="M38.4229 40.5L37.6971 40.919V40.081L38.4229 40.5ZM22.9492 40.5726H22.8766V40.4274H22.9492V40.5V40.5726ZM37.7697 40.5V40.5726H22.9492V40.5V40.4274H37.7697V40.5Z" fill="black"/>
<path d="M20.7269 40.8684L21.2082 40.1693L20.761 39.5194H21.0433L21.3503 39.9968L21.6705 39.5194H21.9358L21.4886 40.1693L21.968 40.8684H21.68L21.3427 40.353L20.9998 40.8684H20.7269Z" fill="#060C12"/>
<path d="M4.63178 40.5L5.35754 40.919V40.081L4.63178 40.5ZM20.1055 40.5726H20.178V40.4274H20.1055V40.5V40.5726ZM5.28497 40.5V40.5726H20.1055V40.5V40.4274H5.28497V40.5Z" fill="black"/>
<path d="M38.4209 40.5L37.6952 40.919V40.081L38.4209 40.5ZM22.9473 40.5726H22.8747V40.4274H22.9473V40.5V40.5726ZM37.7678 40.5V40.5726H22.9473V40.5V40.4274H37.7678V40.5Z" fill="black"/>
<path d="M40.6102 21.2026L40.1024 22.0154V22.5516H39.8694V22.0154L39.3597 21.2026H39.6325L39.9906 21.7994L40.3449 21.2026H40.6102Z" fill="#060C12"/>
<path d="M40.002 5.13154L40.421 5.8573L39.5829 5.8573L40.002 5.13154ZM40.0745 20.6052L40.0745 20.6778L39.9294 20.6778L39.9294 20.6052L40.002 20.6052L40.0745 20.6052ZM40.002 5.78472L40.0745 5.78472L40.0745 20.6052L40.002 20.6052L39.9294 20.6052L39.9294 5.78472L40.002 5.78472Z" fill="black"/>
<path d="M40.002 38.9211L40.421 38.1953L39.5829 38.1953L40.002 38.9211ZM40.0745 23.4474L40.0745 23.3748L39.9294 23.3748L39.9294 23.4474L40.002 23.4474L40.0745 23.4474ZM40.002 38.2679L40.0745 38.2679L40.0745 23.4474L40.002 23.4474L39.9294 23.4474L39.9294 38.2679L40.002 38.2679Z" fill="black"/>
</svg>
