<svg width="46" height="46" viewBox="0 0 46 46" fill="none" xmlns="http://www.w3.org/2000/svg">
<rect width="46" height="46" rx="11.3448" fill="#F3F3F3"/>
<rect x="0.405172" y="0.405172" width="45.1897" height="45.1897" rx="10.9397" stroke="#B02E0C" stroke-opacity="0.04" stroke-width="0.810345"/>
<path d="M42.4414 11.363V32.8855H3.55957V11.363H42.4414Z" stroke="black" stroke-width="0.326711"/>
<path d="M6.68164 12.8718H39.3418C40.2169 12.8718 40.9268 13.5817 40.9268 14.4568V29.7927C40.9266 30.6677 40.2168 31.3767 39.3418 31.3767H6.68164C5.80663 31.3767 5.09686 30.6677 5.09668 29.7927V14.4568C5.09668 13.5817 5.80652 12.8718 6.68164 12.8718Z" stroke="#FF9411" stroke-width="0.326711"/>
<circle cx="7.59728" cy="15.6448" r="1.51349" stroke="black" stroke-width="0.327732"/>
<circle cx="7.59728" cy="28.7013" r="1.51349" stroke="black" stroke-width="0.327732"/>
<circle cx="15.3981" cy="15.6413" r="1.51349" stroke="black" stroke-width="0.327732"/>
<circle cx="15.3981" cy="28.6979" r="1.51349" stroke="black" stroke-width="0.327732"/>
<circle cx="29.7125" cy="15.6413" r="1.51349" stroke="black" stroke-width="0.327732"/>
<circle cx="22.3855" cy="15.596" r="0.965792" stroke="black" stroke-width="0.327732"/>
<circle cx="22.3855" cy="28.6525" r="0.965792" stroke="black" stroke-width="0.327732"/>
<circle cx="29.7125" cy="28.6979" r="1.51349" stroke="black" stroke-width="0.327732"/>
<circle cx="37.4332" cy="15.6413" r="1.51349" stroke="black" stroke-width="0.327732"/>
<circle cx="37.4332" cy="28.6979" r="1.51349" stroke="black" stroke-width="0.327732"/>
<path d="M6.03112 18.5209C3.43821 12.4577 6.03122 11.6384 11.1032 14.8065" stroke="#B02E0C" stroke-width="0.408388" stroke-linecap="round"/>
<path d="M28.9379 18.1599H29.3462C29.42 18.1599 29.4848 18.1689 29.542 18.184C29.5978 18.1991 29.649 18.2277 29.6972 18.2699C29.8027 18.3648 29.8554 18.5004 29.8554 18.6781C29.8554 18.868 29.8042 19.0141 29.7047 19.1135C29.6595 19.1587 29.6113 19.1889 29.5601 19.2069C29.5089 19.225 29.4411 19.2325 29.3567 19.2325H28.9379V18.1599ZM29.1247 18.3196V19.0744H29.3462C29.4637 19.0744 29.5466 19.0412 29.5948 18.9719C29.643 18.9041 29.6671 18.8092 29.6671 18.6872C29.6671 18.5727 29.64 18.4823 29.5857 18.4175C29.5315 18.3527 29.4471 18.3196 29.3341 18.3196H29.1247ZM30.6669 19.0804V19.2325H29.9468C29.9468 19.1858 29.9543 19.1422 29.9664 19.103C29.9784 19.0638 29.992 19.0307 30.0071 19.0036C30.0221 18.9764 30.0462 18.9478 30.0764 18.9192C30.1065 18.8906 30.1351 18.8665 30.1592 18.8484C30.1833 18.8303 30.218 18.8062 30.2617 18.7761C30.2647 18.7746 30.2782 18.7655 30.3054 18.7474C30.3325 18.7294 30.3491 18.7188 30.3551 18.7143C30.3611 18.7098 30.3747 18.6992 30.3958 18.6827C30.4168 18.6661 30.4304 18.6525 30.4364 18.642C30.4425 18.6329 30.4515 18.6194 30.4636 18.6013C30.4756 18.5847 30.4831 18.5682 30.4877 18.5501C30.4907 18.532 30.4937 18.5139 30.4937 18.4928C30.4937 18.4386 30.4771 18.3949 30.447 18.3633C30.4168 18.3316 30.3747 18.3151 30.3234 18.3151C30.2933 18.3151 30.2662 18.3211 30.2451 18.3301C30.2225 18.3392 30.2044 18.3512 30.1924 18.3663C30.1803 18.3814 30.1698 18.4009 30.1622 18.425C30.1532 18.4492 30.1487 18.4702 30.1457 18.4913C30.1427 18.5124 30.1412 18.538 30.1412 18.5652H29.9739V18.538C29.9739 18.425 30.0056 18.3347 30.0688 18.2684C30.1321 18.2021 30.2195 18.1674 30.328 18.1674C30.4304 18.1674 30.5118 18.1976 30.575 18.2548C30.6368 18.3121 30.6684 18.3889 30.6684 18.4838C30.6684 18.523 30.6624 18.5591 30.6504 18.5923C30.6383 18.6269 30.6247 18.654 30.6112 18.6751C30.5976 18.6962 30.575 18.7218 30.5419 18.7489C30.5087 18.7776 30.4831 18.7972 30.4681 18.8077C30.4515 18.8198 30.4214 18.8393 30.3792 18.868C30.2526 18.9493 30.1773 19.0201 30.1532 19.0804H30.6669Z" fill="black"/>
<path d="M36.4711 18.1599H36.8794C36.9532 18.1599 37.018 18.1689 37.0752 18.184C37.131 18.1991 37.1822 18.2277 37.2304 18.2699C37.3359 18.3648 37.3886 18.5004 37.3886 18.6781C37.3886 18.868 37.3374 19.0141 37.2379 19.1135C37.1928 19.1587 37.1445 19.1889 37.0933 19.2069C37.0421 19.225 36.9743 19.2325 36.8899 19.2325H36.4711V18.1599ZM36.6579 18.3196V19.0744H36.8794C36.9969 19.0744 37.0798 19.0412 37.128 18.9719C37.1762 18.9041 37.2003 18.8092 37.2003 18.6872C37.2003 18.5727 37.1732 18.4823 37.1189 18.4175C37.0647 18.3527 36.9803 18.3196 36.8673 18.3196H36.6579ZM38.0133 18.172V19.2325H37.8295V18.5034H37.5674V18.3768C37.7497 18.3768 37.8521 18.309 37.8747 18.172H38.0133Z" fill="black"/>
<path d="M8.5607 21.4239H9.0684C9.17386 21.4239 9.26124 21.448 9.32903 21.4962C9.39532 21.5445 9.42997 21.6198 9.42997 21.7222C9.42997 21.787 9.41339 21.8428 9.38326 21.8879C9.35163 21.9331 9.30794 21.9663 9.2522 21.9859C9.27781 21.9919 9.3004 22.0009 9.31999 22.013C9.33807 22.025 9.35313 22.0386 9.36368 22.0522C9.37422 22.0672 9.38326 22.0853 9.3908 22.1064C9.39682 22.129 9.40134 22.1486 9.40436 22.1651C9.40737 22.1817 9.40887 22.2028 9.41189 22.2299C9.41189 22.2375 9.41339 22.251 9.4149 22.2706C9.41641 22.2917 9.41791 22.3053 9.41791 22.3113C9.41791 22.3173 9.41942 22.3294 9.42093 22.3444C9.42243 22.361 9.42394 22.373 9.42545 22.3791C9.42545 22.3851 9.42695 22.3956 9.42997 22.4077C9.43298 22.4197 9.43449 22.4303 9.4375 22.4363C9.43901 22.4423 9.44202 22.4499 9.44503 22.4589C9.44804 22.468 9.45106 22.474 9.45558 22.48C9.45859 22.486 9.46311 22.4921 9.46914 22.4966H9.26726C9.26425 22.4936 9.26124 22.489 9.25822 22.483C9.25521 22.477 9.2537 22.471 9.2522 22.4649C9.24918 22.4589 9.24768 22.4529 9.24768 22.4469C9.24617 22.4408 9.24466 22.4333 9.24316 22.4243C9.24165 22.4152 9.24165 22.4062 9.24165 22.4002L9.23864 22.373L9.23562 22.3459C9.23562 22.3399 9.23412 22.3294 9.23412 22.3143C9.23261 22.2992 9.23261 22.2887 9.23261 22.2827C9.22659 22.1953 9.20851 22.1365 9.17687 22.1034C9.14523 22.0702 9.08497 22.0537 8.99759 22.0537H8.74751V22.4966H8.5607V21.4239ZM8.74751 21.5776V21.9136H8.99609C9.03224 21.9136 9.06237 21.9121 9.08799 21.9075C9.11209 21.9045 9.1377 21.897 9.16331 21.8864C9.18892 21.8759 9.20851 21.8578 9.22207 21.8337C9.23562 21.8096 9.24316 21.7795 9.24316 21.7418C9.24316 21.7087 9.23713 21.68 9.22508 21.6574C9.21303 21.6349 9.19495 21.6183 9.17235 21.6062C9.14975 21.5957 9.12715 21.5881 9.10305 21.5836C9.07895 21.5806 9.05183 21.5776 9.02019 21.5776H8.74751Z" fill="#060C12"/>
<path d="M5.18731 21.9985L5.76437 21.6654V22.3317L5.18731 21.9985ZM8.07422 21.9408H8.13192V22.0562H8.07422V21.9985V21.9408ZM5.70667 21.9985V21.9408H8.07422V21.9985V22.0562H5.70667V21.9985Z" fill="black"/>
<path d="M15.34 21.4239H15.8477C15.9532 21.4239 16.0405 21.448 16.1083 21.4962C16.1746 21.5445 16.2093 21.6198 16.2093 21.7222C16.2093 21.787 16.1927 21.8428 16.1626 21.8879C16.1309 21.9331 16.0872 21.9663 16.0315 21.9859C16.0571 21.9919 16.0797 22.0009 16.0993 22.013C16.1174 22.025 16.1324 22.0386 16.143 22.0522C16.1535 22.0672 16.1626 22.0853 16.1701 22.1064C16.1761 22.129 16.1806 22.1486 16.1837 22.1651C16.1867 22.1817 16.1882 22.2028 16.1912 22.2299C16.1912 22.2375 16.1927 22.251 16.1942 22.2706C16.1957 22.2917 16.1972 22.3053 16.1972 22.3113C16.1972 22.3173 16.1987 22.3294 16.2002 22.3444C16.2017 22.361 16.2032 22.373 16.2047 22.3791C16.2047 22.3851 16.2062 22.3956 16.2093 22.4077C16.2123 22.4197 16.2138 22.4303 16.2168 22.4363C16.2183 22.4423 16.2213 22.4499 16.2243 22.4589C16.2273 22.468 16.2304 22.474 16.2349 22.48C16.2379 22.486 16.2424 22.4921 16.2484 22.4966H16.0466C16.0435 22.4936 16.0405 22.489 16.0375 22.483C16.0345 22.477 16.033 22.471 16.0315 22.4649C16.0285 22.4589 16.027 22.4529 16.027 22.4469C16.0255 22.4408 16.024 22.4333 16.0225 22.4243C16.0209 22.4152 16.0209 22.4062 16.0209 22.4002L16.0179 22.373L16.0149 22.3459C16.0149 22.3399 16.0134 22.3294 16.0134 22.3143C16.0119 22.2992 16.0119 22.2887 16.0119 22.2827C16.0059 22.1953 15.9878 22.1365 15.9562 22.1034C15.9245 22.0702 15.8643 22.0537 15.7769 22.0537H15.5268V22.4966H15.34V21.4239ZM15.5268 21.5776V21.9136H15.7754C15.8115 21.9136 15.8417 21.9121 15.8673 21.9075C15.8914 21.9045 15.917 21.897 15.9426 21.8864C15.9682 21.8759 15.9878 21.8578 16.0014 21.8337C16.0149 21.8096 16.0225 21.7795 16.0225 21.7418C16.0225 21.7087 16.0164 21.68 16.0044 21.6574C15.9923 21.6349 15.9742 21.6183 15.9516 21.6062C15.929 21.5957 15.9065 21.5881 15.8823 21.5836C15.8582 21.5806 15.8311 21.5776 15.7995 21.5776H15.5268ZM17.044 22.3444V22.4966H16.3239C16.3239 22.4499 16.3314 22.4062 16.3435 22.367C16.3555 22.3279 16.3691 22.2947 16.3842 22.2676C16.3992 22.2405 16.4233 22.2118 16.4535 22.1832C16.4836 22.1546 16.5122 22.1305 16.5363 22.1124C16.5604 22.0943 16.5951 22.0702 16.6388 22.0401C16.6418 22.0386 16.6553 22.0296 16.6825 22.0115C16.7096 21.9934 16.7262 21.9829 16.7322 21.9783C16.7382 21.9738 16.7518 21.9633 16.7729 21.9467C16.7939 21.9301 16.8075 21.9166 16.8135 21.906C16.8196 21.897 16.8286 21.8834 16.8406 21.8653C16.8527 21.8488 16.8602 21.8322 16.8648 21.8141C16.8678 21.796 16.8708 21.778 16.8708 21.7569C16.8708 21.7026 16.8542 21.659 16.8241 21.6273C16.7939 21.5957 16.7518 21.5791 16.7005 21.5791C16.6704 21.5791 16.6433 21.5851 16.6222 21.5942C16.5996 21.6032 16.5815 21.6153 16.5695 21.6303C16.5574 21.6454 16.5469 21.665 16.5393 21.6891C16.5303 21.7132 16.5258 21.7343 16.5228 21.7554C16.5198 21.7765 16.5183 21.8021 16.5183 21.8292H16.351V21.8021C16.351 21.6891 16.3827 21.5987 16.4459 21.5324C16.5092 21.4661 16.5966 21.4315 16.7051 21.4315C16.8075 21.4315 16.8889 21.4616 16.9521 21.5188C17.0139 21.5761 17.0455 21.6529 17.0455 21.7478C17.0455 21.787 17.0395 21.8232 17.0275 21.8563C17.0154 21.891 17.0018 21.9181 16.9883 21.9392C16.9747 21.9603 16.9521 21.9859 16.919 22.013C16.8858 22.0416 16.8602 22.0612 16.8452 22.0717C16.8286 22.0838 16.7985 22.1034 16.7563 22.132C16.6297 22.2134 16.5544 22.2842 16.5303 22.3444H17.044Z" fill="#060C12"/>
<path d="M11.9666 21.9985L12.5437 21.6654V22.3317L11.9666 21.9985ZM14.8535 21.9408H14.9112V22.0562H14.8535V21.9985V21.9408ZM12.486 21.9985V21.9408H14.8535V21.9985V22.0562H12.486V21.9985Z" fill="black"/>
<path d="M22.8732 21.4239H23.3809C23.4864 21.4239 23.5737 21.448 23.6415 21.4962C23.7078 21.5445 23.7425 21.6198 23.7425 21.7222C23.7425 21.787 23.7259 21.8428 23.6958 21.8879C23.6641 21.9331 23.6204 21.9663 23.5647 21.9859C23.5903 21.9919 23.6129 22.0009 23.6325 22.013C23.6506 22.025 23.6656 22.0386 23.6762 22.0522C23.6867 22.0672 23.6958 22.0853 23.7033 22.1064C23.7093 22.129 23.7138 22.1486 23.7169 22.1651C23.7199 22.1817 23.7214 22.2028 23.7244 22.2299C23.7244 22.2375 23.7259 22.251 23.7274 22.2706C23.7289 22.2917 23.7304 22.3053 23.7304 22.3113C23.7304 22.3173 23.7319 22.3294 23.7334 22.3444C23.7349 22.361 23.7364 22.373 23.7379 22.3791C23.7379 22.3851 23.7395 22.3956 23.7425 22.4077C23.7455 22.4197 23.747 22.4303 23.75 22.4363C23.7515 22.4423 23.7545 22.4499 23.7575 22.4589C23.7605 22.468 23.7636 22.474 23.7681 22.48C23.7711 22.486 23.7756 22.4921 23.7816 22.4966H23.5798C23.5767 22.4936 23.5737 22.489 23.5707 22.483C23.5677 22.477 23.5662 22.471 23.5647 22.4649C23.5617 22.4589 23.5602 22.4529 23.5602 22.4469C23.5587 22.4408 23.5572 22.4333 23.5557 22.4243C23.5542 22.4152 23.5542 22.4062 23.5542 22.4002L23.5511 22.373L23.5481 22.3459C23.5481 22.3399 23.5466 22.3294 23.5466 22.3143C23.5451 22.2992 23.5451 22.2887 23.5451 22.2827C23.5391 22.1953 23.521 22.1365 23.4894 22.1034C23.4577 22.0702 23.3975 22.0537 23.3101 22.0537H23.06V22.4966H22.8732V21.4239ZM23.06 21.5776V21.9136H23.3086C23.3447 21.9136 23.3749 21.9121 23.4005 21.9075C23.4246 21.9045 23.4502 21.897 23.4758 21.8864C23.5014 21.8759 23.521 21.8578 23.5346 21.8337C23.5481 21.8096 23.5557 21.7795 23.5557 21.7418C23.5557 21.7087 23.5496 21.68 23.5376 21.6574C23.5255 21.6349 23.5074 21.6183 23.4849 21.6062C23.4623 21.5957 23.4397 21.5881 23.4156 21.5836C23.3914 21.5806 23.3643 21.5776 23.3327 21.5776H23.06ZM23.8888 21.781C23.8918 21.6725 23.9234 21.5881 23.9852 21.5249C24.0454 21.4631 24.1283 21.4315 24.2322 21.4315C24.3287 21.4315 24.4085 21.4586 24.4688 21.5098C24.529 21.5625 24.5592 21.6303 24.5592 21.7147C24.5592 21.7659 24.5456 21.8111 24.5185 21.8503C24.4914 21.8895 24.4567 21.9151 24.4115 21.9301C24.4703 21.9452 24.517 21.9753 24.5516 22.019C24.5848 22.0627 24.6028 22.1154 24.6028 22.1787C24.6028 22.2796 24.5682 22.361 24.4989 22.4243C24.4296 22.4875 24.3392 22.5192 24.2292 22.5192C24.1193 22.5192 24.0304 22.4875 23.9641 22.4243C23.8963 22.361 23.8631 22.2781 23.8631 22.1727V22.1501H24.0289C24.0334 22.2977 24.1012 22.3715 24.2337 22.3715C24.291 22.3715 24.3377 22.355 24.3723 22.3218C24.4055 22.2887 24.4236 22.242 24.4236 22.1832C24.4236 22.123 24.404 22.0778 24.3648 22.0491C24.3256 22.022 24.2744 22.007 24.2127 22.007C24.1931 22.007 24.175 22.0085 24.1584 22.0085V21.8789H24.1735C24.2036 21.8789 24.2307 21.8774 24.2533 21.8744C24.2744 21.8714 24.297 21.8638 24.3196 21.8548C24.3422 21.8458 24.3603 21.8292 24.3723 21.8081C24.3844 21.787 24.3904 21.7599 24.3904 21.7267C24.3904 21.6816 24.3754 21.6439 24.3467 21.6153C24.3166 21.5881 24.2774 21.5731 24.2292 21.5731C24.1162 21.5731 24.0575 21.6424 24.053 21.781H23.8888Z" fill="#060C12"/>
<path d="M19.4979 21.9985L20.0749 21.6654V22.3317L19.4979 21.9985ZM22.3848 21.9408H22.4425V22.0562H22.3848V21.9985V21.9408ZM20.0172 21.9985V21.9408H22.3848V21.9985V22.0562H20.0172V21.9985Z" fill="black"/>
<path d="M22.0886 34.7998L22.4713 34.2439L22.1157 33.7272H22.3402L22.5843 34.1068L22.8389 33.7272H23.0498L22.6942 34.2439L23.0754 34.7998H22.8464L22.5782 34.39L22.3056 34.7998H22.0886Z" fill="#060C12"/>
<path d="M3.42777 34.3018L4.00483 34.6349V33.9686L3.42777 34.3018ZM21.3652 34.3595H21.4229V34.2441H21.3652V34.3018V34.3595ZM3.94713 34.3018V34.3595H21.3652V34.3018V34.2441H3.94713V34.3018Z" fill="black"/>
<path d="M42.5976 34.3018L42.0206 34.6349V33.9686L42.5976 34.3018ZM24.6602 34.3595H24.6025V34.2441H24.6602V34.3018V34.3595ZM42.0783 34.3018V34.3595H24.6602V34.3018V34.2441H42.0783V34.3018Z" fill="black"/>
<mask id="path-27-inside-1_9036_39316" fill="white">
<path d="M11.7129 14.4664C11.7129 13.4957 12.4998 12.7087 13.4705 12.7087H19.2455V31.5403H13.4705C12.4998 31.5403 11.7129 30.7534 11.7129 29.7827V14.4664Z"/>
</mask>
<path d="M11.4618 14.4664C11.4618 13.357 12.3611 12.4577 13.4705 12.4577H19.2455V12.9598H13.4705C12.6385 12.9598 11.964 13.6343 11.964 14.4664H11.4618ZM19.2455 31.7914H13.4705C12.3611 31.7914 11.4618 30.8921 11.4618 29.7827H11.964C11.964 30.6147 12.6385 31.2892 13.4705 31.2892H19.2455V31.7914ZM13.4705 31.7914C12.3611 31.7914 11.4618 30.8921 11.4618 29.7827V14.4664C11.4618 13.357 12.3611 12.4577 13.4705 12.4577V12.9598C12.6385 12.9598 11.964 13.6343 11.964 14.4664V29.7827C11.964 30.6147 12.6385 31.2892 13.4705 31.2892V31.7914ZM19.2455 12.7087V31.5403V12.7087Z" fill="#FF9411" mask="url(#path-27-inside-1_9036_39316)"/>
<path d="M12.8104 18.27C10.2175 12.2067 12.8105 11.3874 17.8825 14.5555" stroke="#B02E0C" stroke-width="0.408388" stroke-linecap="round"/>
<path d="M23.7658 14.5917C23.0125 13.5873 20.125 12.4574 20.125 14.4661V29.5314C20.125 31.289 22.2592 32.2933 24.1424 28.9036" stroke="#B02E0C" stroke-width="0.251087" stroke-linecap="round"/>
<rect x="20.1236" y="12.8343" width="12.5544" height="18.5805" rx="1.63207" stroke="#FF9411" stroke-width="0.251087"/>
</svg>
