<svg width="46" height="46" viewBox="0 0 46 46" fill="none" xmlns="http://www.w3.org/2000/svg">
<rect width="46" height="46" rx="11.3448" fill="#F3F3F3"/>
<rect x="0.405172" y="0.405172" width="45.1897" height="45.1897" rx="10.9397" stroke="#B02E0C" stroke-opacity="0.04" stroke-width="0.810345"/>
<circle cx="23" cy="23" r="18.7236" stroke="black" stroke-width="0.552727"/>
<circle cx="23.0027" cy="9.52732" r="1.55455" stroke="black" stroke-width="0.345455"/>
<circle cx="30.9192" cy="12.0994" r="1.55455" transform="rotate(36 30.9192 12.0994)" stroke="black" stroke-width="0.345455"/>
<circle cx="35.8148" cy="18.8359" r="1.55455" transform="rotate(72 35.8148 18.8359)" stroke="black" stroke-width="0.345455"/>
<circle cx="35.8137" cy="27.1629" r="1.55455" transform="rotate(108 35.8137 27.1629)" stroke="black" stroke-width="0.345455"/>
<circle cx="30.9213" cy="33.8984" r="1.55455" transform="rotate(144 30.9213 33.8984)" stroke="black" stroke-width="0.345455"/>
<circle cx="23.0012" cy="36.4751" r="1.55455" transform="rotate(180 23.0012 36.4751)" stroke="black" stroke-width="0.345455"/>
<circle cx="15.0808" cy="33.8991" r="1.55455" transform="rotate(-144 15.0808 33.8991)" stroke="black" stroke-width="0.345455"/>
<circle cx="10.1891" cy="27.1626" r="1.55455" transform="rotate(-108 10.1891 27.1626)" stroke="black" stroke-width="0.345455"/>
<circle cx="10.1863" cy="18.8356" r="1.55455" transform="rotate(-72 10.1863 18.8356)" stroke="black" stroke-width="0.345455"/>
<circle cx="15.0826" cy="12.1001" r="1.55455" transform="rotate(-36 15.0826 12.1001)" stroke="black" stroke-width="0.345455"/>
<circle cx="22.9995" cy="23" r="16.6509" stroke="#F7941D" stroke-width="0.552727"/>
<path d="M10.0245 21.8333H10.723C10.8681 21.8333 10.9883 21.8665 11.0816 21.9328C11.1728 21.9991 11.2204 22.1028 11.2204 22.2437C11.2204 22.3328 11.1976 22.4095 11.1562 22.4717C11.1127 22.5339 11.0525 22.5795 10.9759 22.6064C11.0111 22.6147 11.0422 22.6272 11.0691 22.6437C11.094 22.6603 11.1147 22.679 11.1292 22.6976C11.1437 22.7184 11.1562 22.7432 11.1665 22.7722C11.1748 22.8033 11.1811 22.8303 11.1852 22.8531C11.1893 22.8759 11.1914 22.9049 11.1956 22.9422C11.1956 22.9526 11.1976 22.9712 11.1997 22.9982C11.2018 23.0272 11.2039 23.0458 11.2039 23.0541C11.2039 23.0624 11.2059 23.079 11.208 23.0997C11.2101 23.1225 11.2121 23.1391 11.2142 23.1474C11.2142 23.1557 11.2163 23.1702 11.2204 23.1868C11.2246 23.2034 11.2267 23.2179 11.2308 23.2262C11.2329 23.2345 11.237 23.2448 11.2412 23.2573C11.2453 23.2697 11.2495 23.278 11.2557 23.2863C11.2598 23.2946 11.266 23.3029 11.2743 23.3091H10.9966C10.9924 23.3049 10.9883 23.2987 10.9841 23.2904C10.98 23.2821 10.9779 23.2738 10.9759 23.2656C10.9717 23.2573 10.9696 23.249 10.9696 23.2407C10.9676 23.2324 10.9655 23.222 10.9634 23.2096C10.9613 23.1972 10.9613 23.1847 10.9613 23.1764L10.9572 23.1391L10.9531 23.1018C10.9531 23.0935 10.951 23.079 10.951 23.0583C10.9489 23.0376 10.9489 23.023 10.9489 23.0148C10.9406 22.8945 10.9157 22.8137 10.8722 22.7681C10.8287 22.7225 10.7458 22.6997 10.6256 22.6997H10.2815V23.3091H10.0245V21.8333ZM10.2815 22.0447V22.5069H10.6235C10.6732 22.5069 10.7147 22.5049 10.7499 22.4986C10.7831 22.4945 10.8183 22.4841 10.8536 22.4696C10.8888 22.4551 10.9157 22.4302 10.9344 22.3971C10.9531 22.3639 10.9634 22.3225 10.9634 22.2706C10.9634 22.225 10.9551 22.1857 10.9385 22.1546C10.922 22.1235 10.8971 22.1007 10.866 22.0841C10.8349 22.0696 10.8038 22.0592 10.7707 22.053C10.7375 22.0489 10.7002 22.0447 10.6567 22.0447H10.2815Z" fill="#060C12"/>
<path d="M6.76371 23L7.55764 23.4584V22.5416L6.76371 23ZM9.52734 23.0794H9.60674V22.9206H9.52734V23V23.0794ZM7.47825 23V23.0794H9.52734V23V22.9206H7.47825V23Z" fill="black"/>
<path d="M30.1182 14.7414H30.8672C31.0026 14.7414 31.1214 14.758 31.2265 14.7856C31.3287 14.8133 31.4227 14.8658 31.5111 14.9431C31.7046 15.1173 31.8013 15.366 31.8013 15.6921C31.8013 16.0403 31.7073 16.3084 31.5249 16.4908C31.442 16.5737 31.3536 16.629 31.2596 16.6621C31.1657 16.6953 31.0413 16.7091 30.8865 16.7091H30.1182V14.7414ZM30.4609 15.0343V16.4189H30.8672C31.0828 16.4189 31.2348 16.3581 31.3232 16.231C31.4116 16.1066 31.4558 15.9325 31.4558 15.7087C31.4558 15.4986 31.4061 15.3328 31.3066 15.214C31.2071 15.0951 31.0524 15.0343 30.8451 15.0343H30.4609Z" fill="black"/>
<path d="M18.5044 21.1862V23.6182H18.083V21.9462H17.4819V21.656C17.8999 21.656 18.1348 21.5005 18.1866 21.1862H18.5044ZM20.0751 21.1793C20.6347 21.1793 20.918 21.5973 20.918 22.4333C20.918 22.8374 20.8454 23.1449 20.7073 23.3522C20.5656 23.5629 20.3584 23.6665 20.0889 23.6665C19.5258 23.6665 19.246 23.2554 19.246 22.4263C19.246 22.0187 19.3151 21.7113 19.4567 21.4971C19.5949 21.2863 19.8022 21.1793 20.0751 21.1793ZM20.0785 21.5109C20.0094 21.5109 19.9473 21.5247 19.8989 21.5523C19.8471 21.58 19.8056 21.618 19.7745 21.6733C19.7434 21.7285 19.7193 21.7803 19.702 21.8356C19.6813 21.8909 19.6674 21.9565 19.6605 22.0394C19.6536 22.1223 19.6467 22.1914 19.6467 22.2467C19.6433 22.302 19.6433 22.3676 19.6433 22.4505C19.6433 22.7614 19.6778 22.9894 19.7469 23.1276C19.816 23.2693 19.93 23.3383 20.0854 23.3383C20.1442 23.3383 20.196 23.328 20.2444 23.3038C20.2927 23.2796 20.3307 23.2485 20.3618 23.214C20.3894 23.1794 20.4171 23.1345 20.4378 23.0758C20.4585 23.0205 20.4724 22.9687 20.4827 22.9203C20.4931 22.872 20.5 22.8133 20.5069 22.7442C20.5138 22.6751 20.5173 22.6198 20.5173 22.5818C20.5173 22.5438 20.5207 22.4954 20.5207 22.4333C20.5207 22.3573 20.5173 22.2951 20.5173 22.2536C20.5173 22.2122 20.5138 22.1465 20.5069 22.0602C20.5 21.9738 20.4862 21.9047 20.4654 21.8494C20.4447 21.7976 20.4205 21.7423 20.3894 21.6836C20.3584 21.6283 20.3169 21.5834 20.2651 21.5558C20.2098 21.5282 20.1476 21.5109 20.0785 21.5109ZM22.2583 21.1585H23.381C23.6367 21.1585 23.8336 21.2173 23.9718 21.3278C24.1099 21.4383 24.179 21.5903 24.179 21.7769C24.179 21.8943 24.1445 22.0014 24.0823 22.0947C24.0167 22.188 23.9303 22.2536 23.8267 22.2951C23.9683 22.3296 24.0823 22.3987 24.1652 22.5023C24.2481 22.606 24.2896 22.7373 24.2896 22.8927C24.2896 23.1103 24.217 23.2865 24.0719 23.4178C23.9268 23.5525 23.7403 23.6182 23.5123 23.6182H22.2583V21.1585ZM22.6798 21.5074V22.1845H23.267C23.4328 22.1845 23.5538 22.1603 23.6332 22.1085C23.7092 22.0567 23.7507 21.9703 23.7507 21.846C23.7507 21.7078 23.7092 21.618 23.6263 21.5731C23.5434 21.5316 23.4294 21.5074 23.2808 21.5074H22.6798ZM22.6798 22.4954V23.2658H23.3258C23.4916 23.2658 23.6194 23.2382 23.7161 23.1829C23.8094 23.1276 23.8578 23.0274 23.8578 22.8823C23.8578 22.8029 23.8405 22.7373 23.8128 22.682C23.7852 22.6267 23.7438 22.5887 23.6885 22.5611C23.6332 22.5369 23.5779 22.5196 23.5227 22.5093C23.4639 22.5023 23.3948 22.4954 23.3188 22.4954H22.6798ZM24.625 22.3849C24.6665 21.9842 24.9256 21.7803 25.4057 21.7803C25.6268 21.7803 25.8065 21.8253 25.9377 21.9116C26.069 22.0014 26.1381 22.1362 26.1381 22.3193V23.2243C26.1381 23.2762 26.1416 23.3107 26.1554 23.328C26.1692 23.3487 26.1934 23.3556 26.2314 23.3556C26.259 23.3556 26.2867 23.3556 26.3212 23.3487V23.6251C26.2176 23.6527 26.1347 23.6631 26.0656 23.6631C25.8963 23.6631 25.7996 23.594 25.7754 23.4489C25.6234 23.594 25.4161 23.6631 25.1501 23.6631C24.9636 23.6631 24.8185 23.6182 24.7114 23.5214C24.6008 23.4247 24.549 23.2969 24.549 23.1311C24.549 23.0827 24.5525 23.0343 24.5663 22.9894C24.5767 22.948 24.5905 22.91 24.6043 22.8754C24.6181 22.8443 24.6423 22.8133 24.6768 22.7856C24.7114 22.758 24.739 22.7373 24.7597 22.7165C24.7805 22.6993 24.8185 22.682 24.8668 22.6647C24.9152 22.6509 24.9532 22.6371 24.9774 22.6302C25.0016 22.6233 25.043 22.6129 25.1052 22.6025C25.1639 22.5956 25.2019 22.5887 25.2227 22.5853C25.2434 22.5818 25.2848 22.5749 25.347 22.568C25.4852 22.5507 25.5819 22.5369 25.6337 22.5231C25.6821 22.5093 25.7167 22.492 25.7374 22.4643C25.7512 22.4471 25.7616 22.4056 25.7616 22.3365C25.7616 22.1569 25.6372 22.0671 25.3954 22.0671C25.2641 22.0671 25.1708 22.0913 25.1121 22.1396C25.0499 22.188 25.0119 22.2709 24.9981 22.3849H24.625ZM25.7581 22.7234C25.727 22.7407 25.6925 22.7545 25.6545 22.7683C25.613 22.7822 25.5819 22.7891 25.5577 22.7925C25.5336 22.796 25.4956 22.7994 25.4437 22.8063C25.3919 22.8133 25.3574 22.8202 25.3436 22.8202C25.2952 22.8271 25.2572 22.834 25.2296 22.8409C25.2019 22.8478 25.1674 22.8547 25.1259 22.8685C25.0845 22.8823 25.0534 22.8996 25.0327 22.9203C25.0119 22.9411 24.9912 22.9653 24.9774 22.9998C24.9601 23.0343 24.9532 23.0723 24.9532 23.1173C24.9532 23.2036 24.9808 23.2693 25.0361 23.3142C25.0914 23.3625 25.1708 23.3833 25.2745 23.3833C25.4472 23.3833 25.5819 23.3383 25.6787 23.2416C25.7305 23.1898 25.7581 23.0862 25.7581 22.9342V22.7234ZM27.5706 21.8011V22.1776C27.5015 22.1707 27.4531 22.1673 27.4324 22.1673C27.0869 22.1673 26.9177 22.3918 26.9177 22.834V23.6182H26.5273V21.8356H26.8969V22.1914C27.0213 21.9289 27.2217 21.7942 27.4946 21.7942L27.5706 21.8011ZM29.1893 22.3538H28.8127C28.7885 22.1673 28.6607 22.0705 28.4258 22.0705C28.3222 22.0705 28.2462 22.0913 28.1909 22.1258C28.1356 22.1638 28.108 22.2156 28.108 22.2778C28.108 22.2985 28.108 22.3193 28.1114 22.3331C28.1149 22.3503 28.1218 22.3642 28.1322 22.378C28.1425 22.3918 28.1529 22.4022 28.1598 22.4091C28.1667 22.4194 28.184 22.4298 28.2047 22.4367C28.2254 22.4471 28.2393 22.454 28.2531 22.4609C28.2669 22.4678 28.2876 22.4747 28.3187 22.4816C28.3463 22.4885 28.3705 22.4954 28.3878 22.4989C28.4051 22.5058 28.4327 22.5127 28.4742 22.5196C28.5122 22.5265 28.5433 22.5334 28.564 22.5369C28.6538 22.5576 28.716 22.5749 28.7574 22.5853C28.7989 22.5956 28.8576 22.6163 28.9336 22.6474C29.0096 22.6785 29.0683 22.7096 29.1063 22.7442C29.1409 22.7787 29.1754 22.8236 29.2065 22.8823C29.2376 22.9411 29.2549 23.0067 29.2549 23.0827C29.2549 23.2623 29.1823 23.4074 29.0442 23.5111C28.9025 23.6182 28.7125 23.67 28.4776 23.67C28.222 23.67 28.0285 23.6182 27.8938 23.5111C27.7556 23.4074 27.6831 23.252 27.6762 23.0482H28.0527C28.0734 23.2727 28.2151 23.3833 28.4845 23.3833C28.5985 23.3833 28.6918 23.3625 28.7609 23.3142C28.83 23.2658 28.868 23.2036 28.868 23.1242C28.868 23.0862 28.8576 23.0516 28.8403 23.024C28.8231 22.9963 28.7954 22.9756 28.7574 22.9549C28.716 22.9342 28.678 22.9203 28.6434 22.91C28.6089 22.8996 28.5605 22.8858 28.5018 22.872L28.4811 22.8685C28.4742 22.8685 28.4707 22.8651 28.4638 22.8651C28.4569 22.8651 28.45 22.8616 28.4431 22.8582C28.1874 22.796 28.0285 22.7476 27.9594 22.7131C27.7936 22.6371 27.7142 22.5058 27.7142 22.3227C27.7142 22.1569 27.7763 22.0256 27.9076 21.9289C28.0354 21.8322 28.2151 21.7838 28.4431 21.7838C28.6607 21.7838 28.8403 21.8322 28.9785 21.9254C29.1167 22.0222 29.1893 22.1638 29.1893 22.3538Z" fill="black"/>
<path d="M13.6351 16.7621C10.2549 8.82028 13.6789 7.76601 20.3461 11.9395" stroke="#B02E0C" stroke-width="0.535438" stroke-linecap="round"/>
</svg>
