<svg width="46" height="46" viewBox="0 0 46 46" fill="none" xmlns="http://www.w3.org/2000/svg">
<rect width="46" height="46" rx="11.3448" fill="#F3F3F3"/>
<rect x="0.405172" y="0.405172" width="45.1897" height="45.1897" rx="10.9397" stroke="#B02E0C" stroke-opacity="0.04" stroke-width="0.810345"/>
<path d="M40.4297 8.33521V35.8811H3.74414V8.33521H40.4297Z" stroke="black" stroke-width="0.418147"/>
<path d="M7.33496 9.64197H37.0967C38.2166 9.64215 39.124 10.5504 39.124 11.6703V32.2845C39.124 33.4045 38.2166 34.3127 37.0967 34.3129H7.33496C6.21492 34.3129 5.30664 33.4046 5.30664 32.2845V11.6703C5.30664 10.5502 6.21492 9.64197 7.33496 9.64197Z" stroke="#FF9411" stroke-width="0.418147"/>
<path d="M16.2217 9.64197H27.6895C28.8093 9.64214 29.7168 10.5504 29.7168 11.6703V32.2845C29.7168 33.4045 28.8093 34.3127 27.6895 34.3129H16.2217C15.1016 34.3129 14.1934 33.4046 14.1934 32.2845V11.6703C14.1934 10.5502 15.1016 9.64197 16.2217 9.64197Z" stroke="#FF9411" stroke-width="0.418147"/>
<path d="M7.33496 16.1754H37.0967C38.2166 16.1756 39.124 17.0838 39.124 18.2037V26.274C39.1239 27.3938 38.2165 28.3012 37.0967 28.3014H7.33496C6.21502 28.3014 5.3068 27.394 5.30664 26.274V18.2037C5.30664 17.0837 6.21492 16.1754 7.33496 16.1754Z" stroke="#FF9411" stroke-width="0.418147"/>
<circle cx="8.23407" cy="12.569" r="1.35832" stroke="black" stroke-width="0.419454"/>
<circle cx="8.23407" cy="31.3857" r="1.35832" stroke="black" stroke-width="0.419454"/>
<circle cx="8.23407" cy="25.1135" r="1.35832" transform="rotate(-90 8.23407 25.1135)" stroke="black" stroke-width="0.419454"/>
<circle cx="8.23407" cy="25.1135" r="1.35832" transform="rotate(-90 8.23407 25.1135)" stroke="black" stroke-width="0.419454"/>
<circle cx="36.197" cy="25.1135" r="1.35832" transform="rotate(-90 36.197 25.1135)" stroke="black" stroke-width="0.419454"/>
<circle cx="17.3806" cy="12.569" r="1.35832" stroke="black" stroke-width="0.419454"/>
<circle cx="17.3806" cy="31.3857" r="1.35832" stroke="black" stroke-width="0.419454"/>
<circle cx="8.23407" cy="18.8413" r="1.35832" transform="rotate(-90 8.23407 18.8413)" stroke="black" stroke-width="0.419454"/>
<circle cx="8.23407" cy="18.8413" r="1.35832" transform="rotate(-90 8.23407 18.8413)" stroke="black" stroke-width="0.419454"/>
<circle cx="36.197" cy="18.8413" r="1.35832" transform="rotate(-90 36.197 18.8413)" stroke="black" stroke-width="0.419454"/>
<circle cx="26.527" cy="12.569" r="1.35832" stroke="black" stroke-width="0.419454"/>
<circle cx="26.527" cy="31.3857" r="1.35832" stroke="black" stroke-width="0.419454"/>
<circle cx="36.197" cy="12.569" r="1.35832" stroke="black" stroke-width="0.419454"/>
<circle cx="36.197" cy="31.3857" r="1.35832" stroke="black" stroke-width="0.419454"/>
<path d="M36.2276 14.5433H36.6525C36.7293 14.5433 36.7968 14.5527 36.8564 14.5684C36.9144 14.5841 36.9677 14.6139 37.0179 14.6578C37.1276 14.7566 37.1825 14.8977 37.1825 15.0827C37.1825 15.2803 37.1292 15.4324 37.0257 15.5359C36.9787 15.583 36.9285 15.6143 36.8752 15.6331C36.8219 15.6519 36.7513 15.6598 36.6635 15.6598H36.2276V14.5433ZM36.422 14.7096V15.4951H36.6525C36.7748 15.4951 36.8611 15.4606 36.9112 15.3885C36.9614 15.318 36.9865 15.2192 36.9865 15.0922C36.9865 14.973 36.9583 14.8789 36.9018 14.8115C36.8454 14.744 36.7576 14.7096 36.64 14.7096H36.422Z" fill="black"/>
<path d="M19.2625 23.1676H19.791C19.9007 23.1676 19.9917 23.1927 20.0622 23.2429C20.1312 23.293 20.1673 23.3715 20.1673 23.4781C20.1673 23.5455 20.15 23.6035 20.1187 23.6506C20.0857 23.6976 20.0403 23.7321 19.9823 23.7525C20.0089 23.7588 20.0324 23.7682 20.0528 23.7807C20.0716 23.7933 20.0873 23.8074 20.0983 23.8215C20.1093 23.8372 20.1187 23.856 20.1265 23.8779C20.1328 23.9015 20.1375 23.9218 20.1406 23.9391C20.1438 23.9563 20.1453 23.9783 20.1485 24.0065C20.1485 24.0144 20.15 24.0285 20.1516 24.0488C20.1532 24.0708 20.1547 24.0849 20.1547 24.0912C20.1547 24.0975 20.1563 24.11 20.1579 24.1257C20.1594 24.1429 20.161 24.1555 20.1626 24.1617C20.1626 24.168 20.1641 24.179 20.1673 24.1915C20.1704 24.2041 20.172 24.2151 20.1751 24.2213C20.1767 24.2276 20.1798 24.2354 20.183 24.2449C20.1861 24.2543 20.1892 24.2605 20.1939 24.2668C20.1971 24.2731 20.2018 24.2794 20.2081 24.2841H19.9979C19.9948 24.2809 19.9917 24.2762 19.9885 24.2699C19.9854 24.2637 19.9838 24.2574 19.9823 24.2511C19.9791 24.2449 19.9776 24.2386 19.9776 24.2323C19.976 24.226 19.9744 24.2182 19.9728 24.2088C19.9713 24.1994 19.9713 24.19 19.9713 24.1837L19.9681 24.1555L19.965 24.1273C19.965 24.121 19.9634 24.11 19.9634 24.0943C19.9619 24.0786 19.9619 24.0677 19.9619 24.0614C19.9556 23.9704 19.9368 23.9093 19.9039 23.8748C19.8709 23.8403 19.8082 23.8231 19.7173 23.8231H19.457V24.2841H19.2625V23.1676ZM19.457 23.3275V23.6772H19.7157C19.7533 23.6772 19.7847 23.6757 19.8113 23.6709C19.8364 23.6678 19.8631 23.66 19.8897 23.649C19.9164 23.638 19.9368 23.6192 19.9509 23.5941C19.965 23.569 19.9728 23.5377 19.9728 23.4985C19.9728 23.464 19.9666 23.4342 19.954 23.4107C19.9415 23.3871 19.9227 23.3699 19.8991 23.3573C19.8756 23.3464 19.8521 23.3385 19.827 23.3338C19.8019 23.3307 19.7737 23.3275 19.7408 23.3275H19.457ZM20.3195 23.5392C20.3227 23.4263 20.3556 23.3385 20.4199 23.2727C20.4826 23.2084 20.5689 23.1754 20.6771 23.1754C20.7774 23.1754 20.8605 23.2037 20.9232 23.257C20.986 23.3119 21.0173 23.3824 21.0173 23.4702C21.0173 23.5236 21.0032 23.5706 20.975 23.6114C20.9468 23.6521 20.9107 23.6788 20.8637 23.6945C20.9248 23.7102 20.9734 23.7415 21.0095 23.787C21.044 23.8325 21.0628 23.8873 21.0628 23.9532C21.0628 24.0583 21.0267 24.1429 20.9546 24.2088C20.8825 24.2746 20.7884 24.3076 20.6739 24.3076C20.5595 24.3076 20.4669 24.2746 20.3979 24.2088C20.3274 24.1429 20.2929 24.0567 20.2929 23.9469V23.9234H20.4654C20.4701 24.0771 20.5406 24.1539 20.6786 24.1539C20.7382 24.1539 20.7868 24.1367 20.8229 24.1022C20.8574 24.0677 20.8762 24.0191 20.8762 23.9579C20.8762 23.8952 20.8558 23.8481 20.815 23.8183C20.7743 23.7901 20.721 23.7744 20.6567 23.7744C20.6363 23.7744 20.6175 23.776 20.6002 23.776V23.6412H20.6159C20.6473 23.6412 20.6755 23.6396 20.699 23.6365C20.721 23.6333 20.7445 23.6255 20.768 23.6161C20.7915 23.6067 20.8103 23.5894 20.8229 23.5675C20.8354 23.5455 20.8417 23.5173 20.8417 23.4828C20.8417 23.4357 20.826 23.3965 20.7962 23.3667C20.7649 23.3385 20.7241 23.3228 20.6739 23.3228C20.5563 23.3228 20.4952 23.395 20.4905 23.5392H20.3195Z" fill="#060C12"/>
<path d="M14.507 23.8069L15.1076 23.4601V24.1537L14.507 23.8069ZM18.6113 23.7468H18.6714V23.8669H18.6113V23.8069V23.7468ZM15.0475 23.8069V23.7468H18.6113V23.8069V23.8669H15.0475V23.8069Z" fill="black"/>
<path d="M21.2211 37.8738L21.6193 37.2952L21.2493 36.7573H21.4829L21.7369 37.1525L22.0019 36.7573H22.2215L21.8514 37.2952L22.2481 37.8738H22.0098L21.7307 37.4473L21.4469 37.8738H21.2211Z" fill="#060C12"/>
<path d="M3.52946 37.3965L4.13008 37.7433V37.0497L3.52946 37.3965ZM20.5391 37.4565H20.5991V37.3364H20.5391V37.3965V37.4565ZM4.07002 37.3965V37.4565H20.5391V37.3965V37.3364H4.07002V37.3965Z" fill="black"/>
<path d="M40.6717 37.3965L40.0711 37.7433V37.0497L40.6717 37.3965ZM23.6621 37.4565H23.602V37.3364H23.6621V37.3965V37.4565ZM40.1312 37.3965V37.4565H23.6621V37.3965V37.3364H40.1312V37.3965Z" fill="black"/>
<path d="M42.07 21.5986L41.6498 22.2713V22.7151H41.4569V22.2713L41.0351 21.5986H41.2609L41.5573 22.0926L41.8505 21.5986H42.07Z" fill="#060C12"/>
<path d="M41.7559 8.12626L42.1026 8.72688L41.4091 8.72688L41.7559 8.12626ZM41.8159 20.932L41.8159 20.9921L41.6958 20.9921L41.6958 20.932L41.7559 20.932L41.8159 20.932ZM41.7559 8.66682L41.8159 8.66682L41.8159 20.932L41.7559 20.932L41.6958 20.932L41.6958 8.66682L41.7559 8.66682Z" fill="black"/>
<path d="M41.7559 36.0898L42.1026 35.4892L41.4091 35.4892L41.7559 36.0898ZM41.8159 23.2841L41.8159 23.224L41.6958 23.224L41.6958 23.2841L41.7559 23.2841L41.8159 23.2841ZM41.7559 35.5492L41.8159 35.5492L41.8159 23.2841L41.7559 23.2841L41.6958 23.2841L41.6958 35.5492L41.7559 35.5492Z" fill="black"/>
<path d="M9.74885 22.1224H10.2773C10.387 22.1224 10.478 22.1475 10.5486 22.1977C10.6175 22.2479 10.6536 22.3263 10.6536 22.4329C10.6536 22.5003 10.6364 22.5584 10.605 22.6054C10.5721 22.6524 10.5266 22.6869 10.4686 22.7073C10.4952 22.7136 10.5188 22.723 10.5391 22.7355C10.558 22.7481 10.5736 22.7622 10.5846 22.7763C10.5956 22.792 10.605 22.8108 10.6128 22.8328C10.6191 22.8563 10.6238 22.8767 10.627 22.8939C10.6301 22.9112 10.6317 22.9331 10.6348 22.9613C10.6348 22.9692 10.6364 22.9833 10.6379 23.0037C10.6395 23.0256 10.6411 23.0397 10.6411 23.046C10.6411 23.0523 10.6426 23.0648 10.6442 23.0805C10.6458 23.0978 10.6473 23.1103 10.6489 23.1166C10.6489 23.1229 10.6505 23.1338 10.6536 23.1464C10.6567 23.1589 10.6583 23.1699 10.6615 23.1762C10.663 23.1824 10.6662 23.1903 10.6693 23.1997C10.6724 23.2091 10.6756 23.2154 10.6803 23.2216C10.6834 23.2279 10.6881 23.2342 10.6944 23.2389H10.4843C10.4811 23.2358 10.478 23.2311 10.4749 23.2248C10.4717 23.2185 10.4702 23.2122 10.4686 23.206C10.4654 23.1997 10.4639 23.1934 10.4639 23.1871C10.4623 23.1809 10.4607 23.173 10.4592 23.1636C10.4576 23.1542 10.4576 23.1448 10.4576 23.1385L10.4545 23.1103L10.4513 23.0821C10.4513 23.0758 10.4498 23.0648 10.4498 23.0492C10.4482 23.0335 10.4482 23.0225 10.4482 23.0162C10.4419 22.9253 10.4231 22.8641 10.3902 22.8296C10.3573 22.7951 10.2945 22.7779 10.2036 22.7779H9.94329V23.2389H9.74885V22.1224ZM9.94329 22.2824V22.6321H10.202C10.2396 22.6321 10.271 22.6305 10.2977 22.6258C10.3228 22.6226 10.3494 22.6148 10.3761 22.6038C10.4027 22.5929 10.4231 22.574 10.4372 22.5489C10.4513 22.5239 10.4592 22.4925 10.4592 22.4533C10.4592 22.4188 10.4529 22.389 10.4404 22.3655C10.4278 22.342 10.409 22.3247 10.3855 22.3122C10.362 22.3012 10.3384 22.2934 10.3133 22.2887C10.2883 22.2855 10.26 22.2824 10.2271 22.2824H9.94329Z" fill="#060C12"/>
<path d="M4.99526 22.7615L5.59589 22.4147V23.1082L4.99526 22.7615ZM9.09961 22.7014H9.15967V22.8215H9.09961V22.7615V22.7014ZM5.53583 22.7615V22.7014H9.09961V22.7615V22.8215H5.53583V22.7615Z" fill="black"/>
<path d="M19.601 17.9409H20.1294C20.2392 17.9409 20.3301 17.966 20.4007 18.0162C20.4697 18.0664 20.5058 18.1448 20.5058 18.2514C20.5058 18.3188 20.4885 18.3768 20.4572 18.4239C20.4242 18.4709 20.3788 18.5054 20.3207 18.5258C20.3474 18.5321 20.3709 18.5415 20.3913 18.554C20.4101 18.5666 20.4258 18.5807 20.4368 18.5948C20.4478 18.6105 20.4572 18.6293 20.465 18.6512C20.4713 18.6748 20.476 18.6952 20.4791 18.7124C20.4822 18.7297 20.4838 18.7516 20.487 18.7798C20.487 18.7877 20.4885 18.8018 20.4901 18.8222C20.4917 18.8441 20.4932 18.8582 20.4932 18.8645C20.4932 18.8708 20.4948 18.8833 20.4964 18.899C20.4979 18.9162 20.4995 18.9288 20.5011 18.9351C20.5011 18.9413 20.5026 18.9523 20.5058 18.9649C20.5089 18.9774 20.5105 18.9884 20.5136 18.9947C20.5152 19.0009 20.5183 19.0088 20.5214 19.0182C20.5246 19.0276 20.5277 19.0339 20.5324 19.0401C20.5356 19.0464 20.5403 19.0527 20.5465 19.0574H20.3364C20.3333 19.0542 20.3301 19.0495 20.327 19.0433C20.3239 19.037 20.3223 19.0307 20.3207 19.0244C20.3176 19.0182 20.316 19.0119 20.316 19.0056C20.3145 18.9994 20.3129 18.9915 20.3113 18.9821C20.3098 18.9727 20.3098 18.9633 20.3098 18.957L20.3066 18.9288L20.3035 18.9006C20.3035 18.8943 20.3019 18.8833 20.3019 18.8676C20.3004 18.852 20.3004 18.841 20.3004 18.8347C20.2941 18.7438 20.2753 18.6826 20.2423 18.6481C20.2094 18.6136 20.1467 18.5964 20.0557 18.5964H19.7954V19.0574H19.601V17.9409ZM19.7954 18.1009V18.4505H20.0542C20.0918 18.4505 20.1232 18.449 20.1498 18.4443C20.1749 18.4411 20.2016 18.4333 20.2282 18.4223C20.2549 18.4113 20.2753 18.3925 20.2894 18.3674C20.3035 18.3423 20.3113 18.311 20.3113 18.2718C20.3113 18.2373 20.3051 18.2075 20.2925 18.184C20.28 18.1604 20.2612 18.1432 20.2376 18.1307C20.2141 18.1197 20.1906 18.1118 20.1655 18.1071C20.1404 18.104 20.1122 18.1009 20.0793 18.1009H19.7954ZM21.3746 18.899V19.0574H20.6251C20.6251 19.0088 20.6329 18.9633 20.6455 18.9225C20.658 18.8818 20.6721 18.8473 20.6878 18.819C20.7035 18.7908 20.7286 18.761 20.76 18.7312C20.7913 18.7014 20.8211 18.6763 20.8462 18.6575C20.8713 18.6387 20.9073 18.6136 20.9528 18.5823C20.956 18.5807 20.9701 18.5713 20.9983 18.5525C21.0265 18.5336 21.0438 18.5227 21.05 18.518C21.0563 18.5133 21.0704 18.5023 21.0924 18.485C21.1143 18.4678 21.1284 18.4537 21.1347 18.4427C21.141 18.4333 21.1504 18.4192 21.1629 18.4004C21.1755 18.3831 21.1833 18.3659 21.188 18.347C21.1912 18.3282 21.1943 18.3094 21.1943 18.2875C21.1943 18.231 21.1771 18.1855 21.1457 18.1526C21.1143 18.1197 21.0704 18.1024 21.0171 18.1024C20.9858 18.1024 20.9575 18.1087 20.9356 18.1181C20.9121 18.1275 20.8932 18.1401 20.8807 18.1557C20.8681 18.1714 20.8572 18.1918 20.8493 18.2169C20.8399 18.242 20.8352 18.2639 20.8321 18.2859C20.8289 18.3078 20.8274 18.3345 20.8274 18.3627H20.6533V18.3345C20.6533 18.2169 20.6863 18.1228 20.7521 18.0538C20.818 17.9848 20.9089 17.9488 21.0218 17.9488C21.1284 17.9488 21.2131 17.9801 21.279 18.0397C21.3433 18.0993 21.3762 18.1793 21.3762 18.2781C21.3762 18.3188 21.3699 18.3565 21.3574 18.391C21.3448 18.427 21.3307 18.4552 21.3166 18.4772C21.3025 18.4991 21.279 18.5258 21.2445 18.554C21.21 18.5838 21.1833 18.6042 21.1676 18.6152C21.1504 18.6277 21.119 18.6481 21.0751 18.6779C20.9434 18.7626 20.865 18.8363 20.8399 18.899H21.3746Z" fill="black"/>
<path d="M16.5269 16.4893V16.4292H16.4067V16.4893H16.4668H16.5269ZM16.4668 18.4493H16.4067V18.5094H16.4668V18.4493ZM19.2109 18.4493L18.6103 18.1025V18.7961L19.2109 18.4493ZM16.4668 16.4893H16.4067V18.4493H16.4668H16.5269V16.4893H16.4668ZM16.4668 18.4493V18.5094H18.6703V18.4493V18.3893H16.4668V18.4493Z" fill="black"/>
<path d="M6.42041 15.4501C3.7216 9.13931 6.42051 8.28655 11.6997 11.584" stroke="#B02E0C" stroke-width="0.425067" stroke-linecap="round"/>
<path d="M15.3052 15.4501C12.6064 9.13931 15.3053 8.28655 20.5844 11.584" stroke="#B02E0C" stroke-width="0.425067" stroke-linecap="round"/>
<path d="M6.42041 21.9837C3.7216 15.6729 6.42051 14.8201 11.6997 18.1176" stroke="#B02E0C" stroke-width="0.425067" stroke-linecap="round"/>
<path d="M11.4871 12.9753H12.0156C12.1253 12.9753 12.2163 13.0004 12.2868 13.0506C12.3558 13.1008 12.3919 13.1792 12.3919 13.2858C12.3919 13.3532 12.3746 13.4113 12.3433 13.4583C12.3104 13.5053 12.2649 13.5398 12.2069 13.5602C12.2335 13.5665 12.257 13.5759 12.2774 13.5885C12.2962 13.601 12.3119 13.6151 12.3229 13.6292C12.3339 13.6449 12.3433 13.6637 12.3511 13.6857C12.3574 13.7092 12.3621 13.7296 12.3652 13.7468C12.3684 13.7641 12.3699 13.786 12.3731 13.8143C12.3731 13.8221 12.3746 13.8362 12.3762 13.8566C12.3778 13.8785 12.3794 13.8927 12.3794 13.8989C12.3794 13.9052 12.3809 13.9177 12.3825 13.9334C12.3841 13.9507 12.3856 13.9632 12.3872 13.9695C12.3872 13.9758 12.3888 13.9867 12.3919 13.9993C12.395 14.0118 12.3966 14.0228 12.3997 14.0291C12.4013 14.0353 12.4044 14.0432 12.4076 14.0526C12.4107 14.062 12.4138 14.0683 12.4186 14.0745C12.4217 14.0808 12.4264 14.0871 12.4327 14.0918H12.2225C12.2194 14.0887 12.2163 14.084 12.2131 14.0777C12.21 14.0714 12.2084 14.0651 12.2069 14.0589C12.2037 14.0526 12.2022 14.0463 12.2022 14.0401C12.2006 14.0338 12.199 14.0259 12.1975 14.0165C12.1959 14.0071 12.1959 13.9977 12.1959 13.9914L12.1928 13.9632L12.1896 13.935C12.1896 13.9287 12.188 13.9177 12.188 13.9021C12.1865 13.8864 12.1865 13.8754 12.1865 13.8691C12.1802 13.7782 12.1614 13.717 12.1285 13.6825C12.0955 13.648 12.0328 13.6308 11.9419 13.6308H11.6816V14.0918H11.4871V12.9753ZM11.6816 13.1353V13.485H11.9403C11.9779 13.485 12.0093 13.4834 12.0359 13.4787C12.061 13.4756 12.0877 13.4677 12.1144 13.4567C12.141 13.4458 12.1614 13.4269 12.1755 13.4019C12.1896 13.3768 12.1975 13.3454 12.1975 13.3062C12.1975 13.2717 12.1912 13.2419 12.1786 13.2184C12.1661 13.1949 12.1473 13.1776 12.1238 13.1651C12.1002 13.1541 12.0767 13.1463 12.0516 13.1416C12.0265 13.1384 11.9983 13.1353 11.9654 13.1353H11.6816ZM13.0663 12.9879V14.0918H12.875V13.3329H12.6022V13.2011C12.7919 13.2011 12.8985 13.1306 12.9221 12.9879H13.0663Z" fill="#060C12"/>
<path d="M12.416 9.69434L12.0692 10.295H12.7628L12.416 9.69434ZM12.356 12.6998V12.7598H12.4761V12.6998H12.416H12.356ZM12.416 10.2349H12.356V12.6998H12.416H12.4761V10.2349H12.416Z" fill="black"/>
</svg>
