<svg width="46" height="46" viewBox="0 0 46 46" fill="none" xmlns="http://www.w3.org/2000/svg">
<rect width="46" height="46" rx="11.3448" fill="#F3F3F3"/>
<rect x="0.405172" y="0.405172" width="45.1897" height="45.1897" rx="10.9397" stroke="#B02E0C" stroke-opacity="0.04" stroke-width="0.810345"/>
<circle cx="23" cy="23" r="17.7382" stroke="black" stroke-width="0.523636"/>
<circle cx="23.0016" cy="10.2363" r="1.47273" stroke="black" stroke-width="0.327273"/>
<circle cx="29.3822" cy="11.9447" r="1.47273" transform="rotate(30 29.3822 11.9447)" stroke="black" stroke-width="0.327273"/>
<circle cx="34.0553" cy="16.6165" r="1.47273" transform="rotate(60 34.0553 16.6165)" stroke="black" stroke-width="0.327273"/>
<circle cx="35.764" cy="23.002" r="1.47273" transform="rotate(90 35.764 23.002)" stroke="black" stroke-width="0.327273"/>
<circle cx="34.0518" cy="29.3825" r="1.47273" transform="rotate(120 34.0518 29.3825)" stroke="black" stroke-width="0.327273"/>
<circle cx="29.3799" cy="34.0518" r="1.47273" transform="rotate(150 29.3799 34.0518)" stroke="black" stroke-width="0.327273"/>
<circle cx="23.0023" cy="35.7644" r="1.47273" transform="rotate(180 23.0023 35.7644)" stroke="black" stroke-width="0.327273"/>
<circle cx="16.6178" cy="34.0522" r="1.47273" transform="rotate(-150 16.6178 34.0522)" stroke="black" stroke-width="0.327273"/>
<circle cx="11.9486" cy="29.3803" r="1.47273" transform="rotate(-120 11.9486 29.3803)" stroke="black" stroke-width="0.327273"/>
<circle cx="10.236" cy="22.9988" r="1.47273" transform="rotate(-90 10.236 22.9988)" stroke="black" stroke-width="0.327273"/>
<circle cx="11.9443" cy="16.6182" r="1.47273" transform="rotate(-60 11.9443 16.6182)" stroke="black" stroke-width="0.327273"/>
<circle cx="16.6201" cy="11.945" r="1.47273" transform="rotate(-30 16.6201 11.945)" stroke="black" stroke-width="0.327273"/>
<circle cx="22.9993" cy="23" r="15.7745" stroke="#F7941D" stroke-width="0.523636"/>
<path d="M10.7098 25.2201H11.3715C11.509 25.2201 11.6229 25.2515 11.7112 25.3143C11.7976 25.3771 11.8428 25.4753 11.8428 25.6089C11.8428 25.6933 11.8212 25.7659 11.7819 25.8249C11.7407 25.8838 11.6837 25.927 11.6111 25.9525C11.6445 25.9603 11.6739 25.9721 11.6994 25.9878C11.723 26.0035 11.7426 26.0212 11.7564 26.0389C11.7701 26.0585 11.7819 26.0821 11.7917 26.1096C11.7996 26.139 11.8055 26.1646 11.8094 26.1862C11.8133 26.2078 11.8153 26.2353 11.8192 26.2706C11.8192 26.2804 11.8212 26.2981 11.8231 26.3236C11.8251 26.3511 11.8271 26.3688 11.8271 26.3766C11.8271 26.3845 11.829 26.4002 11.831 26.4198C11.833 26.4414 11.8349 26.4571 11.8369 26.465C11.8369 26.4729 11.8389 26.4866 11.8428 26.5023C11.8467 26.518 11.8487 26.5318 11.8526 26.5396C11.8546 26.5475 11.8585 26.5573 11.8624 26.5691C11.8663 26.5809 11.8703 26.5887 11.8762 26.5966C11.8801 26.6044 11.886 26.6123 11.8938 26.6182H11.6307C11.6268 26.6142 11.6229 26.6083 11.6189 26.6005C11.615 26.5926 11.613 26.5848 11.6111 26.5769C11.6071 26.5691 11.6052 26.5612 11.6052 26.5534C11.6032 26.5455 11.6013 26.5357 11.5993 26.5239C11.5973 26.5121 11.5973 26.5003 11.5973 26.4925L11.5934 26.4571L11.5895 26.4218C11.5895 26.4139 11.5875 26.4002 11.5875 26.3806C11.5855 26.3609 11.5855 26.3472 11.5855 26.3393C11.5777 26.2254 11.5541 26.1489 11.5129 26.1057C11.4717 26.0625 11.3931 26.0409 11.2792 26.0409H10.9533V26.6182H10.7098V25.2201ZM10.9533 25.4203V25.8582H11.2773C11.3244 25.8582 11.3637 25.8563 11.397 25.8504C11.4285 25.8465 11.4618 25.8366 11.4952 25.8229C11.5286 25.8091 11.5541 25.7856 11.5718 25.7542C11.5895 25.7227 11.5993 25.6835 11.5993 25.6344C11.5993 25.5912 11.5914 25.5539 11.5757 25.5244C11.56 25.495 11.5365 25.4734 11.507 25.4577C11.4775 25.4439 11.4481 25.4341 11.4167 25.4282C11.3853 25.4243 11.3499 25.4203 11.3087 25.4203H10.9533Z" fill="#060C12"/>
<path d="M7.61815 26.2727L8.3703 26.707V25.8385L7.61815 26.2727ZM10.2363 26.3479H10.3115V26.1975H10.2363V26.2727V26.3479ZM8.29508 26.2727V26.3479H10.2363V26.2727V26.1975H8.29508V26.2727Z" fill="black"/>
<path d="M28.8161 14.2996H29.5256C29.6539 14.2996 29.7665 14.3153 29.866 14.3414C29.9628 14.3676 30.0519 14.4174 30.1356 14.4907C30.3189 14.6556 30.4105 14.8913 30.4105 15.2002C30.4105 15.5301 30.3215 15.7841 30.1487 15.9569C30.0702 16.0354 29.9864 16.0878 29.8974 16.1192C29.8084 16.1506 29.6905 16.1637 29.5439 16.1637H28.8161V14.2996ZM29.1407 14.5771V15.8888H29.5256C29.7298 15.8888 29.8738 15.8312 29.9576 15.7108C30.0414 15.5929 30.0833 15.428 30.0833 15.2159C30.0833 15.0169 30.0361 14.8598 29.9419 14.7473C29.8476 14.6347 29.701 14.5771 29.5047 14.5771H29.1407Z" fill="black"/>
<path d="M18.584 21.3869V23.6909H18.1847V22.1069H17.6152V21.832C18.0112 21.832 18.2338 21.6847 18.2829 21.3869H18.584ZM20.8083 23.3604V23.6909H19.244C19.244 23.5895 19.2603 23.4946 19.2865 23.4095C19.3127 23.3244 19.3421 23.2524 19.3749 23.1935C19.4076 23.1346 19.46 23.0724 19.5254 23.0102C19.5909 22.948 19.653 22.8956 19.7054 22.8564C19.7578 22.8171 19.833 22.7647 19.928 22.6993C19.9345 22.696 19.964 22.6764 20.0229 22.6371C20.0818 22.5978 20.1178 22.5749 20.1309 22.5651C20.144 22.5553 20.1734 22.5324 20.2192 22.4964C20.265 22.4604 20.2945 22.4309 20.3076 22.408C20.3207 22.3884 20.3403 22.3589 20.3665 22.3196C20.3927 22.2836 20.409 22.2476 20.4189 22.2084C20.4254 22.1691 20.432 22.1298 20.432 22.084C20.432 21.9662 20.396 21.8713 20.3305 21.8026C20.265 21.7338 20.1734 21.6978 20.0621 21.6978C19.9967 21.6978 19.9378 21.7109 19.892 21.7306C19.8429 21.7502 19.8036 21.7764 19.7774 21.8091C19.7512 21.8418 19.7283 21.8844 19.712 21.9367C19.6923 21.9891 19.6825 22.0349 19.676 22.0807C19.6694 22.1266 19.6661 22.1822 19.6661 22.2411H19.3029V22.1822C19.3029 21.9367 19.3716 21.7404 19.509 21.5964C19.6465 21.4524 19.8363 21.3771 20.072 21.3771C20.2945 21.3771 20.4712 21.4426 20.6087 21.5669C20.7429 21.6913 20.8116 21.8582 20.8116 22.0644C20.8116 22.1495 20.7985 22.228 20.7723 22.3C20.7461 22.3753 20.7167 22.4342 20.6872 22.48C20.6578 22.5258 20.6087 22.5815 20.5367 22.6404C20.4647 22.7026 20.409 22.7451 20.3763 22.768C20.3403 22.7942 20.2749 22.8367 20.1832 22.8989C19.9083 23.0756 19.7447 23.2295 19.6923 23.3604H20.8083ZM22.1403 21.3607H23.2039C23.4461 21.3607 23.6326 21.4164 23.7635 21.5211C23.8944 21.6258 23.9599 21.7698 23.9599 21.9466C23.9599 22.0578 23.9272 22.1593 23.8683 22.2476C23.8061 22.336 23.7243 22.3982 23.6261 22.4375C23.7603 22.4702 23.8683 22.5356 23.9468 22.6338C24.0254 22.732 24.0646 22.8564 24.0646 23.0036C24.0646 23.2098 23.9959 23.3767 23.8584 23.5011C23.721 23.6287 23.5443 23.6909 23.3283 23.6909H22.1403V21.3607ZM22.5395 21.6913V22.3327H23.0959C23.253 22.3327 23.3675 22.3098 23.4428 22.2607C23.5148 22.2116 23.5541 22.1298 23.5541 22.012C23.5541 21.8811 23.5148 21.796 23.4363 21.7535C23.3577 21.7142 23.2497 21.6913 23.109 21.6913H22.5395ZM22.5395 22.6273V23.3571H23.1515C23.3086 23.3571 23.4297 23.3309 23.5214 23.2786C23.6097 23.2262 23.6555 23.1313 23.6555 22.9938C23.6555 22.9186 23.6392 22.8564 23.613 22.804C23.5868 22.7516 23.5475 22.7156 23.4952 22.6895C23.4428 22.6666 23.3904 22.6502 23.3381 22.6404C23.2824 22.6338 23.217 22.6273 23.145 22.6273H22.5395ZM24.3824 22.5226C24.4217 22.1429 24.6671 21.9498 25.1221 21.9498C25.3315 21.9498 25.5017 21.9924 25.6261 22.0742C25.7504 22.1593 25.8159 22.2869 25.8159 22.4604V23.3178C25.8159 23.3669 25.8191 23.3996 25.8322 23.416C25.8453 23.4356 25.8682 23.4422 25.9042 23.4422C25.9304 23.4422 25.9566 23.4422 25.9893 23.4356V23.6975C25.8911 23.7236 25.8126 23.7335 25.7471 23.7335C25.5868 23.7335 25.4951 23.668 25.4722 23.5306C25.3282 23.668 25.1319 23.7335 24.8799 23.7335C24.7031 23.7335 24.5657 23.6909 24.4642 23.5993C24.3595 23.5076 24.3104 23.3866 24.3104 23.2295C24.3104 23.1836 24.3137 23.1378 24.3268 23.0953C24.3366 23.056 24.3497 23.02 24.3628 22.9873C24.3759 22.9578 24.3988 22.9284 24.4315 22.9022C24.4642 22.876 24.4904 22.8564 24.5101 22.8367C24.5297 22.8204 24.5657 22.804 24.6115 22.7876C24.6573 22.7746 24.6933 22.7615 24.7162 22.7549C24.7391 22.7484 24.7784 22.7386 24.8373 22.7287C24.893 22.7222 24.929 22.7156 24.9486 22.7124C24.9682 22.7091 25.0075 22.7026 25.0664 22.696C25.1973 22.6796 25.289 22.6666 25.3381 22.6535C25.3839 22.6404 25.4166 22.624 25.4362 22.5978C25.4493 22.5815 25.4591 22.5422 25.4591 22.4767C25.4591 22.3066 25.3413 22.2215 25.1122 22.2215C24.9879 22.2215 24.8995 22.2444 24.8439 22.2902C24.785 22.336 24.749 22.4146 24.7359 22.5226H24.3824ZM25.4559 22.8433C25.4264 22.8596 25.3937 22.8727 25.3577 22.8858C25.3184 22.8989 25.289 22.9055 25.2661 22.9087C25.2431 22.912 25.2071 22.9153 25.1581 22.9218C25.109 22.9284 25.0762 22.9349 25.0631 22.9349C25.0173 22.9415 24.9813 22.948 24.9551 22.9546C24.929 22.9611 24.8962 22.9676 24.857 22.9807C24.8177 22.9938 24.7882 23.0102 24.7686 23.0298C24.749 23.0495 24.7293 23.0724 24.7162 23.1051C24.6999 23.1378 24.6933 23.1738 24.6933 23.2164C24.6933 23.2982 24.7195 23.3604 24.7719 23.4029C24.8242 23.4487 24.8995 23.4684 24.9977 23.4684C25.1613 23.4684 25.289 23.4258 25.3806 23.3342C25.4297 23.2851 25.4559 23.1869 25.4559 23.0429V22.8433ZM27.173 21.9695V22.3262C27.1075 22.3196 27.0617 22.3164 27.042 22.3164C26.7148 22.3164 26.5544 22.5291 26.5544 22.948V23.6909H26.1846V22.0022H26.5348V22.3393C26.6526 22.0906 26.8424 21.9629 27.101 21.9629L27.173 21.9695ZM28.7064 22.4931H28.3497C28.3268 22.3164 28.2057 22.2247 27.9832 22.2247C27.885 22.2247 27.813 22.2444 27.7606 22.2771C27.7082 22.3131 27.6821 22.3622 27.6821 22.4211C27.6821 22.4407 27.6821 22.4604 27.6853 22.4735C27.6886 22.4898 27.6952 22.5029 27.705 22.516C27.7148 22.5291 27.7246 22.5389 27.7312 22.5455C27.7377 22.5553 27.7541 22.5651 27.7737 22.5716C27.7933 22.5815 27.8064 22.588 27.8195 22.5946C27.8326 22.6011 27.8522 22.6076 27.8817 22.6142C27.9079 22.6207 27.9308 22.6273 27.9472 22.6306C27.9635 22.6371 27.9897 22.6436 28.029 22.6502C28.065 22.6567 28.0944 22.6633 28.1141 22.6666C28.1992 22.6862 28.2581 22.7026 28.2973 22.7124C28.3366 22.7222 28.3922 22.7418 28.4642 22.7713C28.5362 22.8007 28.5919 22.8302 28.6279 22.8629C28.6606 22.8956 28.6933 22.9382 28.7228 22.9938C28.7522 23.0495 28.7686 23.1116 28.7686 23.1836C28.7686 23.3538 28.6999 23.4913 28.569 23.5895C28.4348 23.6909 28.2548 23.74 28.0322 23.74C27.7901 23.74 27.6068 23.6909 27.4792 23.5895C27.3482 23.4913 27.2795 23.344 27.273 23.1509H27.6297C27.6493 23.3636 27.7835 23.4684 28.0388 23.4684C28.1468 23.4684 28.2352 23.4487 28.3006 23.4029C28.3661 23.3571 28.4021 23.2982 28.4021 23.2229C28.4021 23.1869 28.3922 23.1542 28.3759 23.128C28.3595 23.1018 28.3333 23.0822 28.2973 23.0626C28.2581 23.0429 28.2221 23.0298 28.1893 23.02C28.1566 23.0102 28.1108 22.9971 28.0552 22.984L28.0355 22.9807C28.029 22.9807 28.0257 22.9775 28.0192 22.9775C28.0126 22.9775 28.0061 22.9742 27.9995 22.9709C27.7573 22.912 27.6068 22.8662 27.5413 22.8335C27.3842 22.7615 27.309 22.6371 27.309 22.4636C27.309 22.3066 27.3679 22.1822 27.4922 22.0906C27.6133 21.9989 27.7835 21.9531 27.9995 21.9531C28.2057 21.9531 28.3759 21.9989 28.5068 22.0873C28.6377 22.1789 28.7064 22.3131 28.7064 22.4931Z" fill="black"/>
<path d="M15.437 16.1087C12.1998 9.09084 15.4365 7.94534 20.8729 11.5453" stroke="#B02E0C" stroke-width="0.507257" stroke-linecap="round"/>
</svg>
