<svg width="46" height="46" viewBox="0 0 46 46" fill="none" xmlns="http://www.w3.org/2000/svg">
<rect width="46" height="46" rx="11.3448" fill="#F3F3F3"/>
<rect x="0.405172" y="0.405172" width="45.1897" height="45.1897" rx="10.9397" stroke="#B02E0C" stroke-opacity="0.04" stroke-width="0.810345"/>
<circle cx="23" cy="23" r="17.7382" stroke="black" stroke-width="0.523636"/>
<circle cx="22.9993" cy="23" r="15.7745" stroke="#F7941D" stroke-width="0.523636"/>
<path d="M11.0379 25.8744H11.6996C11.8371 25.8744 11.951 25.9058 12.0393 25.9686C12.1257 26.0314 12.1709 26.1296 12.1709 26.2632C12.1709 26.3476 12.1493 26.4202 12.11 26.4792C12.0688 26.5381 12.0119 26.5813 11.9392 26.6068C11.9726 26.6146 12.002 26.6264 12.0276 26.6421C12.0511 26.6578 12.0708 26.6755 12.0845 26.6932C12.0983 26.7128 12.11 26.7364 12.1199 26.7639C12.1277 26.7933 12.1336 26.8189 12.1375 26.8405C12.1415 26.8621 12.1434 26.8896 12.1473 26.9249C12.1473 26.9347 12.1493 26.9524 12.1513 26.9779C12.1532 27.0054 12.1552 27.0231 12.1552 27.0309C12.1552 27.0388 12.1572 27.0545 12.1591 27.0741C12.1611 27.0957 12.1631 27.1114 12.165 27.1193C12.165 27.1272 12.167 27.1409 12.1709 27.1566C12.1748 27.1723 12.1768 27.1861 12.1807 27.1939C12.1827 27.2018 12.1866 27.2116 12.1905 27.2234C12.1945 27.2352 12.1984 27.243 12.2043 27.2509C12.2082 27.2587 12.2141 27.2666 12.222 27.2725H11.9588C11.9549 27.2685 11.951 27.2626 11.9471 27.2548C11.9431 27.2469 11.9412 27.2391 11.9392 27.2312C11.9353 27.2234 11.9333 27.2155 11.9333 27.2077C11.9313 27.1998 11.9294 27.19 11.9274 27.1782C11.9255 27.1664 11.9255 27.1546 11.9255 27.1468L11.9215 27.1114L11.9176 27.0761C11.9176 27.0682 11.9156 27.0545 11.9156 27.0349C11.9137 27.0152 11.9137 27.0015 11.9137 26.9936C11.9058 26.8797 11.8823 26.8032 11.841 26.76C11.7998 26.7168 11.7212 26.6952 11.6073 26.6952H11.2814V27.2725H11.0379V25.8744ZM11.2814 26.0746V26.5125H11.6054C11.6525 26.5125 11.6918 26.5106 11.7252 26.5047C11.7566 26.5008 11.79 26.4909 11.8233 26.4772C11.8567 26.4634 11.8823 26.4399 11.8999 26.4085C11.9176 26.377 11.9274 26.3378 11.9274 26.2887C11.9274 26.2455 11.9196 26.2082 11.9039 26.1787C11.8881 26.1493 11.8646 26.1277 11.8351 26.112C11.8057 26.0982 11.7762 26.0884 11.7448 26.0825C11.7134 26.0786 11.678 26.0746 11.6368 26.0746H11.2814Z" fill="#060C12"/>
<path d="M7.94627 26.927L8.69842 27.3613V26.4927L7.94627 26.927ZM10.5645 27.0022H10.6397V26.8518H10.5645V26.927V27.0022ZM8.62321 26.927V27.0022H10.5645V26.927V26.8518H8.62321V26.927Z" fill="black"/>
<path d="M30.3973 16.5904H31.1068C31.2351 16.5904 31.3477 16.6062 31.4471 16.6323C31.544 16.6585 31.633 16.7083 31.7168 16.7816C31.9001 16.9465 31.9917 17.1822 31.9917 17.4911C31.9917 17.821 31.9027 18.075 31.7299 18.2478C31.6514 18.3263 31.5676 18.3787 31.4786 18.4101C31.3895 18.4415 31.2717 18.4546 31.1251 18.4546H30.3973V16.5904ZM30.7219 16.868V18.1797H31.1068C31.311 18.1797 31.455 18.1221 31.5388 18.0016C31.6226 17.8838 31.6645 17.7189 31.6645 17.5068C31.6645 17.3078 31.6173 17.1507 31.5231 17.0382C31.4288 16.9256 31.2822 16.868 31.0858 16.868H30.7219ZM33.0774 16.6114V18.4546H32.758V17.1874H32.3024V16.9675C32.6192 16.9675 32.7973 16.8496 32.8366 16.6114H33.0774Z" fill="black"/>
<path d="M18.7655 22.4571C18.6607 22.4211 18.5822 22.3622 18.5233 22.2771C18.4644 22.192 18.4382 22.0938 18.4382 21.9793C18.4382 21.8026 18.5037 21.6553 18.6378 21.5407C18.772 21.4295 18.9455 21.3706 19.1615 21.3706C19.3644 21.3706 19.5346 21.4295 19.6655 21.5407C19.7964 21.652 19.8618 21.796 19.8618 21.9695C19.8618 22.2051 19.7538 22.3655 19.5378 22.4571C19.6753 22.5062 19.78 22.5749 19.852 22.66C19.9207 22.7484 19.9567 22.8662 19.9567 23.0102C19.9567 23.2262 19.8815 23.4029 19.7342 23.5338C19.5837 23.6647 19.3906 23.7302 19.1484 23.7302C18.9062 23.7302 18.7131 23.668 18.5658 23.5371C18.4186 23.4095 18.3466 23.2393 18.3466 23.0298C18.3466 22.8891 18.3826 22.768 18.4546 22.6698C18.5266 22.5716 18.6313 22.4996 18.7655 22.4571ZM19.1582 21.6716C19.0437 21.6716 18.952 21.7044 18.8866 21.7633C18.8211 21.8222 18.7884 21.904 18.7884 22.0022C18.7884 22.1036 18.8211 22.1855 18.8898 22.2444C18.9553 22.3066 19.0437 22.336 19.1549 22.336C19.2629 22.336 19.3513 22.3066 19.4167 22.2476C19.4822 22.1887 19.5149 22.1069 19.5149 22.0022C19.5149 21.904 19.4822 21.8222 19.4167 21.7633C19.3513 21.7044 19.2662 21.6716 19.1582 21.6716ZM19.1484 22.6044C19.0207 22.6044 18.9193 22.6436 18.8407 22.7189C18.7622 22.7942 18.7229 22.8924 18.7229 23.0102C18.7229 23.1411 18.7622 23.2458 18.8407 23.3211C18.9193 23.3996 19.024 23.4356 19.1615 23.4356C19.2924 23.4356 19.3938 23.3996 19.4691 23.3276C19.5411 23.2556 19.5804 23.1509 19.5804 23.02C19.5804 22.8956 19.5411 22.7942 19.4626 22.7189C19.384 22.6436 19.2793 22.6044 19.1484 22.6044ZM21.2134 21.3607H22.2771C22.5192 21.3607 22.7058 21.4164 22.8367 21.5211C22.9676 21.6258 23.0331 21.7698 23.0331 21.9466C23.0331 22.0578 23.0003 22.1593 22.9414 22.2476C22.8792 22.336 22.7974 22.3982 22.6992 22.4375C22.8334 22.4702 22.9414 22.5356 23.02 22.6338C23.0985 22.732 23.1378 22.8564 23.1378 23.0036C23.1378 23.2098 23.0691 23.3767 22.9316 23.5011C22.7941 23.6287 22.6174 23.6909 22.4014 23.6909H21.2134V21.3607ZM21.6127 21.6913V22.3327H22.1691C22.3261 22.3327 22.4407 22.3098 22.516 22.2607C22.588 22.2116 22.6272 22.1298 22.6272 22.012C22.6272 21.8811 22.588 21.796 22.5094 21.7535C22.4309 21.7142 22.3229 21.6913 22.1821 21.6913H21.6127ZM21.6127 22.6273V23.3571H22.2247C22.3818 23.3571 22.5029 23.3309 22.5945 23.2786C22.6829 23.2262 22.7287 23.1313 22.7287 22.9938C22.7287 22.9186 22.7123 22.8564 22.6861 22.804C22.66 22.7516 22.6207 22.7156 22.5683 22.6895C22.516 22.6666 22.4636 22.6502 22.4112 22.6404C22.3556 22.6338 22.2901 22.6273 22.2181 22.6273H21.6127ZM23.4556 22.5226C23.4948 22.1429 23.7403 21.9498 24.1952 21.9498C24.4047 21.9498 24.5748 21.9924 24.6992 22.0742C24.8236 22.1593 24.889 22.2869 24.889 22.4604V23.3178C24.889 23.3669 24.8923 23.3996 24.9054 23.416C24.9185 23.4356 24.9414 23.4422 24.9774 23.4422C25.0036 23.4422 25.0297 23.4422 25.0625 23.4356V23.6975C24.9643 23.7236 24.8857 23.7335 24.8203 23.7335C24.6599 23.7335 24.5683 23.668 24.5454 23.5306C24.4014 23.668 24.205 23.7335 23.953 23.7335C23.7763 23.7335 23.6388 23.6909 23.5374 23.5993C23.4327 23.5076 23.3836 23.3866 23.3836 23.2295C23.3836 23.1836 23.3868 23.1378 23.3999 23.0953C23.4097 23.056 23.4228 23.02 23.4359 22.9873C23.449 22.9578 23.4719 22.9284 23.5047 22.9022C23.5374 22.876 23.5636 22.8564 23.5832 22.8367C23.6028 22.8204 23.6388 22.804 23.6847 22.7876C23.7305 22.7746 23.7665 22.7615 23.7894 22.7549C23.8123 22.7484 23.8516 22.7386 23.9105 22.7287C23.9661 22.7222 24.0021 22.7156 24.0217 22.7124C24.0414 22.7091 24.0807 22.7026 24.1396 22.696C24.2705 22.6796 24.3621 22.6666 24.4112 22.6535C24.457 22.6404 24.4897 22.624 24.5094 22.5978C24.5225 22.5815 24.5323 22.5422 24.5323 22.4767C24.5323 22.3066 24.4145 22.2215 24.1854 22.2215C24.061 22.2215 23.9727 22.2444 23.917 22.2902C23.8581 22.336 23.8221 22.4146 23.809 22.5226H23.4556ZM24.529 22.8433C24.4996 22.8596 24.4668 22.8727 24.4308 22.8858C24.3916 22.8989 24.3621 22.9055 24.3392 22.9087C24.3163 22.912 24.2803 22.9153 24.2312 22.9218C24.1821 22.9284 24.1494 22.9349 24.1363 22.9349C24.0905 22.9415 24.0545 22.948 24.0283 22.9546C24.0021 22.9611 23.9694 22.9676 23.9301 22.9807C23.8908 22.9938 23.8614 23.0102 23.8417 23.0298C23.8221 23.0495 23.8025 23.0724 23.7894 23.1051C23.773 23.1378 23.7665 23.1738 23.7665 23.2164C23.7665 23.2982 23.7927 23.3604 23.845 23.4029C23.8974 23.4487 23.9727 23.4684 24.0708 23.4684C24.2345 23.4684 24.3621 23.4258 24.4537 23.3342C24.5028 23.2851 24.529 23.1869 24.529 23.0429V22.8433ZM26.2461 21.9695V22.3262C26.1807 22.3196 26.1348 22.3164 26.1152 22.3164C25.7879 22.3164 25.6276 22.5291 25.6276 22.948V23.6909H25.2577V22.0022H25.6079V22.3393C25.7257 22.0906 25.9156 21.9629 26.1741 21.9629L26.2461 21.9695ZM27.7796 22.4931H27.4229C27.3999 22.3164 27.2789 22.2247 27.0563 22.2247C26.9581 22.2247 26.8861 22.2444 26.8338 22.2771C26.7814 22.3131 26.7552 22.3622 26.7552 22.4211C26.7552 22.4407 26.7552 22.4604 26.7585 22.4735C26.7618 22.4898 26.7683 22.5029 26.7781 22.516C26.7879 22.5291 26.7978 22.5389 26.8043 22.5455C26.8109 22.5553 26.8272 22.5651 26.8469 22.5716C26.8665 22.5815 26.8796 22.588 26.8927 22.5946C26.9058 22.6011 26.9254 22.6076 26.9549 22.6142C26.981 22.6207 27.0039 22.6273 27.0203 22.6306C27.0367 22.6371 27.0629 22.6436 27.1021 22.6502C27.1381 22.6567 27.1676 22.6633 27.1872 22.6666C27.2723 22.6862 27.3312 22.7026 27.3705 22.7124C27.4098 22.7222 27.4654 22.7418 27.5374 22.7713C27.6094 22.8007 27.665 22.8302 27.701 22.8629C27.7338 22.8956 27.7665 22.9382 27.7959 22.9938C27.8254 23.0495 27.8418 23.1116 27.8418 23.1836C27.8418 23.3538 27.773 23.4913 27.6421 23.5895C27.5079 23.6909 27.3279 23.74 27.1054 23.74C26.8632 23.74 26.6799 23.6909 26.5523 23.5895C26.4214 23.4913 26.3527 23.344 26.3461 23.1509H26.7029C26.7225 23.3636 26.8567 23.4684 27.1119 23.4684C27.2199 23.4684 27.3083 23.4487 27.3738 23.4029C27.4392 23.3571 27.4752 23.2982 27.4752 23.2229C27.4752 23.1869 27.4654 23.1542 27.449 23.128C27.4327 23.1018 27.4065 23.0822 27.3705 23.0626C27.3312 23.0429 27.2952 23.0298 27.2625 23.02C27.2298 23.0102 27.1839 22.9971 27.1283 22.984L27.1087 22.9807C27.1021 22.9807 27.0989 22.9775 27.0923 22.9775C27.0858 22.9775 27.0792 22.9742 27.0727 22.9709C26.8305 22.912 26.6799 22.8662 26.6145 22.8335C26.4574 22.7615 26.3821 22.6371 26.3821 22.4636C26.3821 22.3066 26.441 22.1822 26.5654 22.0906C26.6865 21.9989 26.8567 21.9531 27.0727 21.9531C27.2789 21.9531 27.449 21.9989 27.5799 22.0873C27.7109 22.1789 27.7796 22.3131 27.7796 22.4931Z" fill="black"/>
<circle cx="22.9977" cy="10.5636" r="1.47273" stroke="black" stroke-width="0.327273"/>
<circle cx="31.791" cy="14.2063" r="1.47273" transform="rotate(45 31.791 14.2063)" stroke="black" stroke-width="0.327273"/>
<circle cx="35.4359" cy="23.0011" r="1.47273" transform="rotate(90 35.4359 23.0011)" stroke="black" stroke-width="0.327273"/>
<circle cx="31.7933" cy="31.7944" r="1.47273" transform="rotate(135 31.7933 31.7944)" stroke="black" stroke-width="0.327273"/>
<circle cx="22.9984" cy="35.4354" r="1.47273" transform="rotate(180 22.9984 35.4354)" stroke="black" stroke-width="0.327273"/>
<circle cx="14.2051" cy="31.7928" r="1.47273" transform="rotate(-135 14.2051 31.7928)" stroke="black" stroke-width="0.327273"/>
<circle cx="10.5641" cy="22.9979" r="1.47273" transform="rotate(-90 10.5641 22.9979)" stroke="black" stroke-width="0.327273"/>
<circle cx="14.2067" cy="14.2046" r="1.47273" transform="rotate(-45 14.2067 14.2046)" stroke="black" stroke-width="0.327273"/>
<path d="M12.8181 18.0722C9.61589 10.5484 12.8597 9.54962 19.176 13.5035" stroke="#B02E0C" stroke-width="0.507257" stroke-linecap="round"/>
</svg>
