<svg width="46" height="46" viewBox="0 0 46 46" fill="none" xmlns="http://www.w3.org/2000/svg">
<rect width="46" height="46" rx="11.3448" fill="#F3F3F3"/>
<rect x="0.405172" y="0.405172" width="45.1897" height="45.1897" rx="10.9397" stroke="#B02E0C" stroke-opacity="0.04" stroke-width="0.810345"/>
<path d="M39.5205 12.5906V31.7419H4.92285V12.5906H39.5205Z" stroke="black" stroke-width="0.290718"/>
<path d="M7.70215 13.933H36.7646C37.5433 13.9331 38.1748 14.5645 38.1748 15.3431V28.9886C38.1748 29.7673 37.5433 30.3987 36.7646 30.3988H7.70215C6.92344 30.3988 6.29199 29.7674 6.29199 28.9886V15.3431C6.29199 14.5644 6.92344 13.933 7.70215 13.933Z" stroke="#FF9411" stroke-width="0.290718"/>
<circle cx="8.51437" cy="16.4005" r="1.34707" stroke="black" stroke-width="0.291627"/>
<circle cx="8.51437" cy="28.0186" r="1.34707" stroke="black" stroke-width="0.291627"/>
<circle cx="17.6921" cy="16.3975" r="1.34707" stroke="black" stroke-width="0.291627"/>
<circle cx="17.6921" cy="28.0156" r="1.34707" stroke="black" stroke-width="0.291627"/>
<circle cx="26.4069" cy="16.3975" r="1.34707" stroke="black" stroke-width="0.291627"/>
<circle cx="26.4069" cy="28.0156" r="1.34707" stroke="black" stroke-width="0.291627"/>
<circle cx="35.0671" cy="16.3975" r="1.34707" stroke="black" stroke-width="0.291627"/>
<circle cx="35.0671" cy="28.0156" r="1.34707" stroke="black" stroke-width="0.291627"/>
<path d="M7.12194 18.9594C4.81468 13.5642 7.12203 12.8351 11.6353 15.6542" stroke="#B02E0C" stroke-width="0.363398" stroke-linecap="round"/>
<path d="M25.8284 18.7484H26.1916C26.2573 18.7484 26.315 18.7564 26.3659 18.7699C26.4155 18.7833 26.4611 18.8087 26.504 18.8463C26.5978 18.9307 26.6447 19.0514 26.6447 19.2096C26.6447 19.3785 26.5992 19.5085 26.5107 19.597C26.4705 19.6372 26.4276 19.664 26.382 19.6801C26.3364 19.6962 26.2761 19.7029 26.201 19.7029H25.8284V18.7484ZM25.9946 18.8905V19.5621H26.1916C26.2962 19.5621 26.3699 19.5326 26.4128 19.471C26.4557 19.4106 26.4772 19.3262 26.4772 19.2176C26.4772 19.1157 26.453 19.0353 26.4048 18.9776C26.3565 18.92 26.2815 18.8905 26.1809 18.8905H25.9946ZM27.3669 19.5675V19.7029H26.7261C26.7261 19.6613 26.7328 19.6224 26.7435 19.5876C26.7542 19.5527 26.7663 19.5232 26.7797 19.4991C26.7931 19.475 26.8146 19.4495 26.8414 19.424C26.8682 19.3986 26.8937 19.3771 26.9151 19.361C26.9366 19.345 26.9674 19.3235 27.0063 19.2967C27.009 19.2954 27.021 19.2873 27.0451 19.2712C27.0693 19.2551 27.084 19.2458 27.0894 19.2417C27.0947 19.2377 27.1068 19.2283 27.1256 19.2136C27.1443 19.1988 27.1564 19.1868 27.1618 19.1774C27.1671 19.1693 27.1752 19.1573 27.1859 19.1412C27.1966 19.1264 27.2033 19.1117 27.2074 19.0956C27.21 19.0795 27.2127 19.0634 27.2127 19.0447C27.2127 18.9964 27.198 18.9575 27.1712 18.9294C27.1443 18.9012 27.1068 18.8865 27.0612 18.8865C27.0344 18.8865 27.0103 18.8918 26.9915 18.8999C26.9714 18.9079 26.9553 18.9187 26.9446 18.9321C26.9339 18.9455 26.9245 18.9629 26.9178 18.9843C26.9098 19.0058 26.9057 19.0246 26.903 19.0433C26.9004 19.0621 26.899 19.0849 26.899 19.109H26.7502V19.0849C26.7502 18.9843 26.7784 18.9039 26.8347 18.8449C26.891 18.7859 26.9687 18.7551 27.0653 18.7551C27.1564 18.7551 27.2288 18.7819 27.2851 18.8329C27.3401 18.8838 27.3682 18.9522 27.3682 19.0366C27.3682 19.0715 27.3629 19.1037 27.3521 19.1331C27.3414 19.164 27.3293 19.1881 27.3173 19.2069C27.3052 19.2256 27.2851 19.2484 27.2556 19.2726C27.2261 19.298 27.2033 19.3155 27.1899 19.3248C27.1752 19.3356 27.1484 19.353 27.1108 19.3785C26.9982 19.4509 26.9312 19.5139 26.9098 19.5675H27.3669Z" fill="black"/>
<path d="M34.3186 18.7484H34.6819C34.7476 18.7484 34.8052 18.7564 34.8561 18.7699C34.9057 18.7833 34.9513 18.8087 34.9942 18.8463C35.0881 18.9307 35.135 19.0514 35.135 19.2096C35.135 19.3785 35.0894 19.5085 35.0009 19.597C34.9607 19.6372 34.9178 19.664 34.8722 19.6801C34.8267 19.6962 34.7663 19.7029 34.6913 19.7029H34.3186V18.7484ZM34.4848 18.8905V19.5621H34.6819C34.7864 19.5621 34.8602 19.5326 34.9031 19.471C34.946 19.4106 34.9674 19.3262 34.9674 19.2176C34.9674 19.1157 34.9433 19.0353 34.895 18.9776C34.8468 18.92 34.7717 18.8905 34.6712 18.8905H34.4848ZM35.6909 18.7591V19.7029H35.5273V19.0541H35.2941V18.9414C35.4563 18.9414 35.5474 18.8811 35.5676 18.7591H35.6909Z" fill="black"/>
<path d="M9.37069 21.6532H9.82245C9.91629 21.6532 9.99404 21.6746 10.0544 21.7175C10.1134 21.7604 10.1442 21.8275 10.1442 21.9186C10.1442 21.9763 10.1294 22.0259 10.1026 22.0661C10.0745 22.1063 10.0356 22.1358 9.986 22.1532C10.0088 22.1586 10.0289 22.1666 10.0463 22.1773C10.0624 22.1881 10.0758 22.2001 10.0852 22.2122C10.0946 22.2256 10.1026 22.2417 10.1093 22.2605C10.1147 22.2806 10.1187 22.298 10.1214 22.3127C10.1241 22.3275 10.1254 22.3463 10.1281 22.3704C10.1281 22.3771 10.1294 22.3892 10.1308 22.4066C10.1321 22.4254 10.1335 22.4374 10.1335 22.4428C10.1335 22.4481 10.1348 22.4589 10.1361 22.4723C10.1375 22.487 10.1388 22.4977 10.1402 22.5031C10.1402 22.5085 10.1415 22.5178 10.1442 22.5286C10.1469 22.5393 10.1482 22.5487 10.1509 22.554C10.1522 22.5594 10.1549 22.5661 10.1576 22.5742C10.1603 22.5822 10.163 22.5876 10.167 22.5929C10.1697 22.5983 10.1737 22.6036 10.179 22.6077H9.99941C9.99673 22.605 9.99404 22.601 9.99136 22.5956C9.98868 22.5902 9.98734 22.5849 9.986 22.5795C9.98332 22.5742 9.98198 22.5688 9.98198 22.5634C9.98064 22.5581 9.9793 22.5514 9.97796 22.5433C9.97662 22.5353 9.97662 22.5272 9.97662 22.5219L9.97394 22.4977L9.97125 22.4736C9.97125 22.4682 9.96991 22.4589 9.96991 22.4455C9.96857 22.4321 9.96857 22.4227 9.96857 22.4173C9.96321 22.3396 9.94712 22.2873 9.91897 22.2578C9.89082 22.2283 9.8372 22.2135 9.75945 22.2135H9.53691V22.6077H9.37069V21.6532ZM9.53691 21.7899V22.0889H9.75811C9.79028 22.0889 9.81709 22.0875 9.83988 22.0835C9.86133 22.0808 9.88412 22.0741 9.90691 22.0647C9.9297 22.0554 9.94712 22.0393 9.95919 22.0178C9.97125 21.9964 9.97796 21.9696 9.97796 21.936C9.97796 21.9066 9.9726 21.8811 9.96187 21.861C9.95115 21.8409 9.93506 21.8261 9.91495 21.8154C9.89484 21.806 9.87473 21.7993 9.85329 21.7953C9.83184 21.7926 9.80771 21.7899 9.77956 21.7899H9.53691Z" fill="#060C12"/>
<path d="M6.3681 22.0544L6.88159 21.758V22.3509L6.3681 22.0544ZM8.9375 22.0031H8.98885V22.1058H8.9375V22.0544V22.0031ZM6.83024 22.0544V22.0031H8.9375V22.0544V22.1058H6.83024V22.0544Z" fill="black"/>
<path d="M18.5328 21.6532H18.9846C19.0784 21.6532 19.1562 21.6746 19.2165 21.7175C19.2755 21.7604 19.3063 21.8275 19.3063 21.9186C19.3063 21.9763 19.2915 22.0259 19.2647 22.0661C19.2366 22.1063 19.1977 22.1358 19.1481 22.1532C19.1709 22.1586 19.191 22.1666 19.2084 22.1773C19.2245 22.1881 19.2379 22.2001 19.2473 22.2122C19.2567 22.2256 19.2647 22.2417 19.2714 22.2605C19.2768 22.2806 19.2808 22.298 19.2835 22.3127C19.2862 22.3275 19.2875 22.3463 19.2902 22.3704C19.2902 22.3771 19.2915 22.3892 19.2929 22.4066C19.2942 22.4254 19.2956 22.4374 19.2956 22.4428C19.2956 22.4481 19.2969 22.4589 19.2983 22.4723C19.2996 22.487 19.3009 22.4977 19.3023 22.5031C19.3023 22.5085 19.3036 22.5178 19.3063 22.5286C19.309 22.5393 19.3103 22.5487 19.313 22.554C19.3143 22.5594 19.317 22.5661 19.3197 22.5742C19.3224 22.5822 19.3251 22.5876 19.3291 22.5929C19.3318 22.5983 19.3358 22.6036 19.3412 22.6077H19.1615C19.1588 22.605 19.1562 22.601 19.1535 22.5956C19.1508 22.5902 19.1495 22.5849 19.1481 22.5795C19.1454 22.5742 19.1441 22.5688 19.1441 22.5634C19.1427 22.5581 19.1414 22.5514 19.1401 22.5433C19.1387 22.5353 19.1387 22.5272 19.1387 22.5219L19.136 22.4977L19.1334 22.4736C19.1334 22.4682 19.132 22.4589 19.132 22.4455C19.1307 22.4321 19.1307 22.4227 19.1307 22.4173C19.1253 22.3396 19.1092 22.2873 19.0811 22.2578C19.0529 22.2283 18.9993 22.2135 18.9216 22.2135H18.699V22.6077H18.5328V21.6532ZM18.699 21.7899V22.0889H18.9202C18.9524 22.0889 18.9792 22.0875 19.002 22.0835C19.0234 22.0808 19.0462 22.0741 19.069 22.0647C19.0918 22.0554 19.1092 22.0393 19.1213 22.0178C19.1334 21.9964 19.1401 21.9696 19.1401 21.936C19.1401 21.9066 19.1347 21.8811 19.124 21.861C19.1133 21.8409 19.0972 21.8261 19.0771 21.8154C19.057 21.806 19.0368 21.7993 19.0154 21.7953C18.9939 21.7926 18.9698 21.7899 18.9417 21.7899H18.699ZM20.0491 22.4723V22.6077H19.4083C19.4083 22.5661 19.415 22.5272 19.4257 22.4924C19.4365 22.4575 19.4485 22.428 19.4619 22.4039C19.4753 22.3798 19.4968 22.3543 19.5236 22.3288C19.5504 22.3034 19.5759 22.2819 19.5973 22.2658C19.6188 22.2497 19.6496 22.2283 19.6885 22.2015C19.6912 22.2001 19.7032 22.1921 19.7274 22.176C19.7515 22.1599 19.7662 22.1505 19.7716 22.1465C19.777 22.1425 19.789 22.1331 19.8078 22.1184C19.8266 22.1036 19.8386 22.0916 19.844 22.0822C19.8494 22.0741 19.8574 22.0621 19.8681 22.046C19.8788 22.0312 19.8856 22.0165 19.8896 22.0004C19.8923 21.9843 19.8949 21.9682 19.8949 21.9495C19.8949 21.9012 19.8802 21.8623 19.8534 21.8342C19.8266 21.806 19.789 21.7913 19.7435 21.7913C19.7166 21.7913 19.6925 21.7966 19.6737 21.8047C19.6536 21.8127 19.6375 21.8234 19.6268 21.8368C19.6161 21.8503 19.6067 21.8677 19.6 21.8891C19.592 21.9106 19.5879 21.9293 19.5853 21.9481C19.5826 21.9669 19.5812 21.9897 19.5812 22.0138H19.4324V21.9897C19.4324 21.8891 19.4606 21.8087 19.5169 21.7497C19.5732 21.6907 19.651 21.6599 19.7475 21.6599C19.8386 21.6599 19.911 21.6867 19.9673 21.7376C20.0223 21.7886 20.0504 21.857 20.0504 21.9414C20.0504 21.9763 20.0451 22.0084 20.0344 22.0379C20.0236 22.0688 20.0116 22.0929 19.9995 22.1117C19.9874 22.1304 19.9673 22.1532 19.9378 22.1773C19.9083 22.2028 19.8856 22.2202 19.8721 22.2296C19.8574 22.2404 19.8306 22.2578 19.7931 22.2833C19.6804 22.3556 19.6134 22.4186 19.592 22.4723H20.0491Z" fill="#060C12"/>
<path d="M15.5302 22.0544L16.0437 21.758V22.3509L15.5302 22.0544ZM18.0996 22.0031H18.151V22.1058H18.0996V22.0544V22.0031ZM15.9923 22.0544V22.0031H18.0996V22.0544V22.1058H15.9923V22.0544Z" fill="black"/>
<path d="M21.408 33.5551L21.7485 33.0604L21.4321 32.6006H21.6318L21.849 32.9384L22.0756 32.6006H22.2632L21.9469 33.0604L22.286 33.5551H22.0823L21.8437 33.1904L21.601 33.5551H21.408Z" fill="#060C12"/>
<path d="M4.80426 33.002L5.31775 33.2984V32.7055L4.80426 33.002ZM20.7656 33.0533H20.817V32.9506H20.7656V33.002V33.0533ZM5.2664 33.002V33.0533H20.7656V33.002V32.9506H5.2664V33.002Z" fill="black"/>
<path d="M39.6606 33.002L39.1471 33.2984V32.7055L39.6606 33.002ZM23.6992 33.0533H23.6479V32.9506H23.6992V33.002V33.0533ZM39.1984 33.002V33.0533H23.6992V33.002V32.9506H39.1984V33.002Z" fill="black"/>
<rect x="15.4184" y="13.8992" width="13.1821" height="16.5335" rx="1.45227" stroke="#FF9411" stroke-width="0.223426"/>
<path d="M16.4364 18.9317C14.1291 13.5365 16.4365 12.8074 20.9497 15.6265" stroke="#B02E0C" stroke-width="0.363398" stroke-linecap="round"/>
<path d="M41.2081 21.9371L40.8489 22.5122V22.8916H40.684V22.5122L40.3234 21.9371H40.5164L40.7698 22.3594L41.0205 21.9371H41.2081Z" fill="#060C12"/>
<path d="M40.7773 12.4468L40.4809 12.9603L41.0738 12.9603L40.7773 12.4468ZM40.726 20.937L40.726 20.9884L40.8287 20.9884L40.8287 20.937L40.7773 20.937L40.726 20.937ZM40.7773 12.909L40.726 12.909L40.726 20.937L40.7773 20.937L40.8287 20.937L40.8287 12.909L40.7773 12.909Z" fill="black"/>
<path d="M40.7773 31.885L41.0738 31.3715L40.4809 31.3715L40.7773 31.885ZM40.8287 23.3948L40.8287 23.3434L40.726 23.3434L40.726 23.3948L40.7773 23.3948L40.8287 23.3948ZM40.7773 31.4228L40.8287 31.4228L40.8287 23.3948L40.7773 23.3948L40.726 23.3948L40.726 31.4228L40.7773 31.4228Z" fill="black"/>
</svg>
