<svg width="46" height="46" viewBox="0 0 46 46" fill="none" xmlns="http://www.w3.org/2000/svg">
<rect width="46" height="46" rx="11.3448" fill="#F3F3F3"/>
<rect x="0.405172" y="0.405172" width="45.1897" height="45.1897" rx="10.9397" stroke="#B02E0C" stroke-opacity="0.04" stroke-width="0.810345"/>
<circle cx="23" cy="23" r="18.7236" stroke="black" stroke-width="0.552727"/>
<circle cx="22.9995" cy="23" r="16.6509" stroke="#F7941D" stroke-width="0.552727"/>
<circle cx="23.0685" cy="12.3395" r="1.55455" transform="rotate(-60 23.0685 12.3395)" stroke="black" stroke-width="0.345455"/>
<circle cx="32.1726" cy="17.7584" r="1.55455" stroke="black" stroke-width="0.345455"/>
<circle cx="32.0455" cy="28.3563" r="1.55455" transform="rotate(60 32.0455 28.3563)" stroke="black" stroke-width="0.345455"/>
<circle cx="22.7968" cy="33.5413" r="1.55455" transform="rotate(120 22.7968 33.5413)" stroke="black" stroke-width="0.345455"/>
<circle cx="13.6848" cy="28.1283" r="1.55455" transform="rotate(180 13.6848 28.1283)" stroke="black" stroke-width="0.345455"/>
<circle cx="13.8178" cy="17.5234" r="1.55455" transform="rotate(-120 13.8178 17.5234)" stroke="black" stroke-width="0.345455"/>
<path d="M12.0607 22.6136C4.97926 14.0174 8.83248 11.4632 18.6072 14.196" stroke="#B02E0C" stroke-width="0.690909" stroke-linecap="round"/>
<path d="M9.68268 23.9061H10.3812C10.5263 23.9061 10.6465 23.9392 10.7398 24.0055C10.831 24.0719 10.8786 24.1755 10.8786 24.3165C10.8786 24.4056 10.8558 24.4823 10.8144 24.5445C10.7709 24.6066 10.7108 24.6522 10.6341 24.6792C10.6693 24.6875 10.7004 24.6999 10.7273 24.7165C10.7522 24.7331 10.7729 24.7517 10.7874 24.7704C10.802 24.7911 10.8144 24.816 10.8248 24.845C10.833 24.8761 10.8393 24.903 10.8434 24.9258C10.8476 24.9486 10.8496 24.9777 10.8538 25.015C10.8538 25.0253 10.8558 25.044 10.8579 25.0709C10.86 25.0999 10.8621 25.1186 10.8621 25.1269C10.8621 25.1352 10.8641 25.1518 10.8662 25.1725C10.8683 25.1953 10.8704 25.2119 10.8724 25.2202C10.8724 25.2285 10.8745 25.243 10.8786 25.2595C10.8828 25.2761 10.8849 25.2906 10.889 25.2989C10.8911 25.3072 10.8952 25.3176 10.8994 25.33C10.9035 25.3425 10.9077 25.3507 10.9139 25.359C10.918 25.3673 10.9242 25.3756 10.9325 25.3818H10.6548C10.6506 25.3777 10.6465 25.3715 10.6424 25.3632C10.6382 25.3549 10.6361 25.3466 10.6341 25.3383C10.6299 25.33 10.6278 25.3217 10.6278 25.3134C10.6258 25.3051 10.6237 25.2948 10.6216 25.2823C10.6196 25.2699 10.6196 25.2575 10.6196 25.2492L10.6154 25.2119L10.6113 25.1746C10.6113 25.1663 10.6092 25.1518 10.6092 25.131C10.6071 25.1103 10.6071 25.0958 10.6071 25.0875C10.5988 24.9673 10.574 24.8865 10.5304 24.8409C10.4869 24.7953 10.404 24.7725 10.2838 24.7725H9.9397V25.3818H9.68268V23.9061ZM9.9397 24.1175V24.5797H10.2817C10.3314 24.5797 10.3729 24.5776 10.4081 24.5714C10.4413 24.5673 10.4765 24.5569 10.5118 24.5424C10.547 24.5279 10.574 24.503 10.5926 24.4698C10.6113 24.4367 10.6216 24.3952 10.6216 24.3434C10.6216 24.2978 10.6133 24.2584 10.5968 24.2273C10.5802 24.1962 10.5553 24.1734 10.5242 24.1569C10.4931 24.1423 10.462 24.132 10.4289 24.1258C10.3957 24.1216 10.3584 24.1175 10.3149 24.1175H9.9397Z" fill="#060C12"/>
<path d="M6.418 25.0728L7.21194 25.5311V24.6144L6.418 25.0728ZM9.18164 25.1521H9.26103V24.9934H9.18164V25.0728V25.1521ZM7.13255 25.0728V25.1521H9.18164V25.0728V24.9934H7.13255V25.0728Z" fill="black"/>
<path d="M29.3153 11.2868H30.0642C30.1996 11.2868 30.3185 11.3034 30.4235 11.331C30.5257 11.3587 30.6197 11.4112 30.7081 11.4886C30.9016 11.6627 30.9983 11.9114 30.9983 12.2375C30.9983 12.5857 30.9044 12.8538 30.722 13.0362C30.639 13.1191 30.5506 13.1744 30.4566 13.2075C30.3627 13.2407 30.2383 13.2545 30.0836 13.2545H29.3153V11.2868ZM29.658 11.5798V12.9643H30.0642C30.2798 12.9643 30.4318 12.9035 30.5202 12.7764C30.6086 12.652 30.6529 12.4779 30.6529 12.2541C30.6529 12.044 30.6031 11.8782 30.5036 11.7594C30.4041 11.6406 30.2494 11.5798 30.0421 11.5798H29.658ZM32.1443 11.3089V13.2545H31.8072V11.9169H31.3263V11.6848C31.6607 11.6848 31.8486 11.5604 31.8901 11.3089H32.1443Z" fill="black"/>
<path d="M19.9504 21.8149H19.5704C19.529 21.5938 19.4046 21.4833 19.2042 21.4833C19.1455 21.4833 19.0937 21.4971 19.0453 21.5178C18.997 21.542 18.9555 21.5696 18.9244 21.5973C18.8899 21.6283 18.8622 21.6733 18.838 21.7285C18.8104 21.7838 18.7931 21.8322 18.7793 21.8702C18.7655 21.9082 18.7551 21.9634 18.7413 22.0325C18.7275 22.1051 18.7206 22.1534 18.7206 22.1811C18.7171 22.2087 18.7137 22.2571 18.7068 22.3193C18.838 22.1223 19.0246 22.0222 19.2595 22.0222C19.4806 22.0222 19.6602 22.0982 19.7984 22.2433C19.9366 22.3918 20.0057 22.5853 20.0057 22.8202C20.0057 23.0689 19.9262 23.2693 19.7742 23.4282C19.6222 23.5871 19.4253 23.6665 19.1904 23.6665C18.9106 23.6665 18.6964 23.5629 18.5479 23.3522C18.3959 23.1449 18.3233 22.8443 18.3233 22.454C18.3233 22.0533 18.4028 21.7389 18.5617 21.5109C18.7206 21.2863 18.9382 21.1723 19.2215 21.1723C19.4253 21.1723 19.5911 21.2311 19.7224 21.3416C19.8502 21.4556 19.9262 21.6145 19.9504 21.8149ZM19.18 22.3365C19.0488 22.3365 18.9486 22.3814 18.8726 22.4713C18.7966 22.5611 18.7586 22.6785 18.7586 22.8236C18.7586 22.9791 18.7966 23.1034 18.876 23.1967C18.9555 23.2934 19.0591 23.3383 19.1904 23.3383C19.3148 23.3383 19.4184 23.2934 19.4944 23.2002C19.5704 23.1103 19.6119 22.986 19.6119 22.834C19.6119 22.6854 19.5704 22.5645 19.4944 22.4747C19.415 22.3849 19.3113 22.3365 19.18 22.3365ZM21.3356 21.1585H22.4584C22.714 21.1585 22.9109 21.2173 23.0491 21.3278C23.1873 21.4383 23.2564 21.5903 23.2564 21.7769C23.2564 21.8943 23.2218 22.0014 23.1596 22.0947C23.094 22.188 23.0076 22.2536 22.904 22.2951C23.0456 22.3296 23.1596 22.3987 23.2425 22.5023C23.3254 22.606 23.3669 22.7373 23.3669 22.8927C23.3669 23.1103 23.2944 23.2865 23.1493 23.4178C23.0042 23.5525 22.8176 23.6182 22.5896 23.6182H21.3356V21.1585ZM21.7571 21.5074V22.1845H22.3444C22.5102 22.1845 22.6311 22.1603 22.7105 22.1085C22.7865 22.0567 22.828 21.9703 22.828 21.846C22.828 21.7078 22.7865 21.618 22.7036 21.5731C22.6207 21.5316 22.5067 21.5074 22.3582 21.5074H21.7571ZM21.7571 22.4954V23.2658H22.4031C22.5689 23.2658 22.6967 23.2382 22.7934 23.1829C22.8867 23.1276 22.9351 23.0274 22.9351 22.8823C22.9351 22.8029 22.9178 22.7373 22.8902 22.682C22.8625 22.6267 22.8211 22.5887 22.7658 22.5611C22.7105 22.5369 22.6553 22.5196 22.6 22.5093C22.5413 22.5023 22.4722 22.4954 22.3962 22.4954H21.7571ZM23.7023 22.3849C23.7438 21.9842 24.0029 21.7803 24.4831 21.7803C24.7042 21.7803 24.8838 21.8253 25.0151 21.9116C25.1463 22.0014 25.2154 22.1362 25.2154 22.3193V23.2243C25.2154 23.2762 25.2189 23.3107 25.2327 23.328C25.2465 23.3487 25.2707 23.3556 25.3087 23.3556C25.3363 23.3556 25.364 23.3556 25.3985 23.3487V23.6251C25.2949 23.6527 25.212 23.6631 25.1429 23.6631C24.9736 23.6631 24.8769 23.594 24.8527 23.4489C24.7007 23.594 24.4934 23.6631 24.2274 23.6631C24.0409 23.6631 23.8958 23.6182 23.7887 23.5214C23.6782 23.4247 23.6263 23.2969 23.6263 23.1311C23.6263 23.0827 23.6298 23.0343 23.6436 22.9894C23.654 22.948 23.6678 22.91 23.6816 22.8754C23.6954 22.8443 23.7196 22.8133 23.7542 22.7856C23.7887 22.758 23.8163 22.7373 23.8371 22.7165C23.8578 22.6993 23.8958 22.682 23.9442 22.6647C23.9925 22.6509 24.0305 22.6371 24.0547 22.6302C24.0789 22.6233 24.1203 22.6129 24.1825 22.6025C24.2412 22.5956 24.2792 22.5887 24.3 22.5853C24.3207 22.5818 24.3622 22.5749 24.4243 22.568C24.5625 22.5507 24.6592 22.5369 24.7111 22.5231C24.7594 22.5093 24.794 22.492 24.8147 22.4643C24.8285 22.4471 24.8389 22.4056 24.8389 22.3365C24.8389 22.1569 24.7145 22.0671 24.4727 22.0671C24.3414 22.0671 24.2482 22.0913 24.1894 22.1396C24.1272 22.188 24.0892 22.2709 24.0754 22.3849H23.7023ZM24.8354 22.7234C24.8043 22.7407 24.7698 22.7545 24.7318 22.7683C24.6903 22.7822 24.6592 22.7891 24.6351 22.7925C24.6109 22.796 24.5729 22.7994 24.5211 22.8063C24.4692 22.8133 24.4347 22.8202 24.4209 22.8202C24.3725 22.8271 24.3345 22.834 24.3069 22.8409C24.2792 22.8478 24.2447 22.8547 24.2032 22.8685C24.1618 22.8823 24.1307 22.8996 24.11 22.9203C24.0892 22.9411 24.0685 22.9653 24.0547 22.9998C24.0374 23.0343 24.0305 23.0723 24.0305 23.1173C24.0305 23.2036 24.0582 23.2693 24.1134 23.3142C24.1687 23.3625 24.2482 23.3833 24.3518 23.3833C24.5245 23.3833 24.6592 23.3383 24.756 23.2416C24.8078 23.1898 24.8354 23.0862 24.8354 22.9342V22.7234ZM26.6479 21.8011V22.1776C26.5788 22.1707 26.5305 22.1673 26.5097 22.1673C26.1643 22.1673 25.995 22.3918 25.995 22.834V23.6182H25.6046V21.8356H25.9743V22.1914C26.0986 21.9289 26.299 21.7942 26.5719 21.7942L26.6479 21.8011ZM28.2666 22.3538H27.89C27.8658 22.1673 27.738 22.0705 27.5031 22.0705C27.3995 22.0705 27.3235 22.0913 27.2682 22.1258C27.2129 22.1638 27.1853 22.2156 27.1853 22.2778C27.1853 22.2985 27.1853 22.3193 27.1888 22.3331C27.1922 22.3503 27.1991 22.3642 27.2095 22.378C27.2198 22.3918 27.2302 22.4022 27.2371 22.4091C27.244 22.4194 27.2613 22.4298 27.282 22.4367C27.3028 22.4471 27.3166 22.454 27.3304 22.4609C27.3442 22.4678 27.3649 22.4747 27.396 22.4816C27.4237 22.4885 27.4478 22.4954 27.4651 22.4989C27.4824 22.5058 27.51 22.5127 27.5515 22.5196C27.5895 22.5265 27.6206 22.5334 27.6413 22.5369C27.7311 22.5576 27.7933 22.5749 27.8348 22.5853C27.8762 22.5956 27.9349 22.6163 28.0109 22.6474C28.0869 22.6785 28.1457 22.7096 28.1837 22.7442C28.2182 22.7787 28.2528 22.8236 28.2838 22.8823C28.3149 22.9411 28.3322 23.0067 28.3322 23.0827C28.3322 23.2623 28.2597 23.4074 28.1215 23.5111C27.9798 23.6182 27.7898 23.67 27.5549 23.67C27.2993 23.67 27.1058 23.6182 26.9711 23.5111C26.8329 23.4074 26.7604 23.252 26.7535 23.0482H27.13C27.1508 23.2727 27.2924 23.3833 27.5618 23.3833C27.6758 23.3833 27.7691 23.3625 27.8382 23.3142C27.9073 23.2658 27.9453 23.2036 27.9453 23.1242C27.9453 23.0862 27.9349 23.0516 27.9177 23.024C27.9004 22.9963 27.8728 22.9756 27.8348 22.9549C27.7933 22.9342 27.7553 22.9203 27.7208 22.91C27.6862 22.8996 27.6378 22.8858 27.5791 22.872L27.5584 22.8685C27.5515 22.8685 27.548 22.8651 27.5411 22.8651C27.5342 22.8651 27.5273 22.8616 27.5204 22.8582C27.2648 22.796 27.1058 22.7476 27.0368 22.7131C26.8709 22.6371 26.7915 22.5058 26.7915 22.3227C26.7915 22.1569 26.8537 22.0256 26.9849 21.9289C27.1128 21.8322 27.2924 21.7838 27.5204 21.7838C27.738 21.7838 27.9177 21.8322 28.0558 21.9254C28.194 22.0222 28.2666 22.1638 28.2666 22.3538Z" fill="black"/>
</svg>
