<svg width="46" height="46" viewBox="0 0 46 46" fill="none" xmlns="http://www.w3.org/2000/svg">
<rect width="46" height="46" rx="11.3448" fill="#F3F3F3"/>
<rect x="0.405172" y="0.405172" width="45.1897" height="45.1897" rx="10.9397" stroke="#B02E0C" stroke-opacity="0.04" stroke-width="0.810345"/>
<path d="M5.96094 12.1288H38.7959C39.6494 12.1288 40.3418 12.8211 40.3418 13.6747V30.3466C40.3417 31.2 39.6494 31.8915 38.7959 31.8915H5.96094C5.10743 31.8915 4.41511 31.2 4.41504 30.3466V13.6747C4.41504 12.8211 5.10739 12.1288 5.96094 12.1288Z" stroke="#FF9411" stroke-width="0.318657"/>
<path d="M18.2051 12.1288H26.5498C27.4034 12.1288 28.0957 12.8211 28.0957 13.6747V30.3466C28.0956 31.2 27.4033 31.8915 26.5498 31.8915H18.2051C17.3516 31.8915 16.6593 31.2 16.6592 30.3466V13.6747C16.6592 12.8211 17.3515 12.1288 18.2051 12.1288Z" stroke="#FF9411" stroke-width="0.318657"/>
<path d="M12.084 12.1288H32.9189C33.7725 12.1288 34.4648 12.8211 34.4648 13.6747V30.3466C34.4648 31.2 33.7724 31.8915 32.9189 31.8915H12.084C11.2305 31.8915 10.5382 31.2 10.5381 30.3466V13.6747C10.5381 12.8211 11.2304 12.1288 12.084 12.1288Z" stroke="#FF9411" stroke-width="0.318657"/>
<circle cx="6.9491" cy="14.6635" r="1.06466" stroke="black" stroke-width="0.319653"/>
<circle cx="13.121" cy="14.6632" r="1.06466" stroke="black" stroke-width="0.319653"/>
<circle cx="19.2928" cy="14.6635" r="1.06466" stroke="black" stroke-width="0.319653"/>
<circle cx="25.4628" cy="14.6632" r="1.06466" stroke="black" stroke-width="0.319653"/>
<circle cx="31.6346" cy="14.6635" r="1.06466" stroke="black" stroke-width="0.319653"/>
<circle cx="37.8065" cy="14.6635" r="1.06466" stroke="black" stroke-width="0.319653"/>
<circle cx="6.9491" cy="29.3573" r="1.06466" stroke="black" stroke-width="0.319653"/>
<circle cx="13.121" cy="29.3571" r="1.06466" stroke="black" stroke-width="0.319653"/>
<circle cx="19.2928" cy="29.3573" r="1.06466" stroke="black" stroke-width="0.319653"/>
<circle cx="25.4628" cy="29.3571" r="1.06466" stroke="black" stroke-width="0.319653"/>
<circle cx="31.6346" cy="29.3573" r="1.06466" stroke="black" stroke-width="0.319653"/>
<circle cx="37.8065" cy="29.3573" r="1.06466" stroke="black" stroke-width="0.319653"/>
<circle cx="6.9491" cy="22.0101" r="1.06466" stroke="black" stroke-width="0.319653"/>
<circle cx="37.8065" cy="22.0101" r="1.06466" stroke="black" stroke-width="0.319653"/>
<path d="M41.3203 11.1489V32.8716H3.43457V11.1489H41.3203Z" stroke="black" stroke-width="0.318657"/>
<path d="M5.35734 16.8674C2.90845 11.1122 6.82675 11.7245 9.2756 13.5613" stroke="#B02E0C" stroke-width="0.398321" stroke-linecap="round"/>
<path d="M11.2343 16.8674C8.78541 11.1122 12.7037 11.7245 15.1526 13.5613" stroke="#B02E0C" stroke-width="0.398321" stroke-linecap="round"/>
<path d="M6.81381 24.1679H7.309C7.41185 24.1679 7.49708 24.1914 7.5632 24.2384C7.62785 24.2855 7.66165 24.3589 7.66165 24.4588C7.66165 24.522 7.64549 24.5764 7.6161 24.6205C7.58524 24.6646 7.54263 24.6969 7.48826 24.716C7.51324 24.7219 7.53528 24.7307 7.55438 24.7424C7.57202 24.7542 7.58671 24.7674 7.597 24.7806C7.60728 24.7953 7.6161 24.813 7.62345 24.8335C7.62932 24.8556 7.63373 24.8747 7.63667 24.8908C7.63961 24.907 7.64108 24.9276 7.64402 24.954C7.64402 24.9614 7.64549 24.9746 7.64696 24.9937C7.64843 25.0143 7.64989 25.0275 7.64989 25.0334C7.64989 25.0393 7.65136 25.051 7.65283 25.0657C7.6543 25.0819 7.65577 25.0936 7.65724 25.0995C7.65724 25.1054 7.65871 25.1157 7.66165 25.1274C7.66459 25.1392 7.66606 25.1495 7.669 25.1553C7.67047 25.1612 7.6734 25.1686 7.67634 25.1774C7.67928 25.1862 7.68222 25.1921 7.68663 25.1979C7.68957 25.2038 7.69398 25.2097 7.69985 25.2141H7.50296C7.50002 25.2112 7.49708 25.2068 7.49414 25.2009C7.4912 25.195 7.48973 25.1891 7.48826 25.1833C7.48532 25.1774 7.48385 25.1715 7.48385 25.1656C7.48238 25.1597 7.48091 25.1524 7.47945 25.1436C7.47798 25.1348 7.47798 25.1259 7.47798 25.1201L7.47504 25.0936L7.4721 25.0672C7.4721 25.0613 7.47063 25.051 7.47063 25.0363C7.46916 25.0216 7.46916 25.0113 7.46916 25.0055C7.46328 24.9202 7.44565 24.8629 7.41479 24.8306C7.38394 24.7983 7.32516 24.7821 7.23994 24.7821H6.99602V25.2141H6.81381V24.1679ZM6.99602 24.3178V24.6455H7.23847C7.27373 24.6455 7.30312 24.644 7.3281 24.6396C7.35161 24.6366 7.37659 24.6293 7.40157 24.619C7.42655 24.6087 7.44565 24.5911 7.45887 24.5676C7.4721 24.5441 7.47945 24.5147 7.47945 24.4779C7.47945 24.4456 7.47357 24.4177 7.46181 24.3957C7.45006 24.3736 7.43243 24.3575 7.41038 24.3457C7.38834 24.3354 7.3663 24.3281 7.34279 24.3237C7.31928 24.3207 7.29283 24.3178 7.26198 24.3178H6.99602ZM8.29364 24.1797V25.2141H8.11437V24.5029H7.8587V24.3795C8.03649 24.3795 8.13641 24.3134 8.15845 24.1797H8.29364Z" fill="#060C12"/>
<path d="M4.50175 24.7039L5.06459 25.0288V24.3789L4.50175 24.7039ZM6.46094 24.7601H6.51722V24.6476H6.46094V24.7039V24.7601ZM5.0083 24.7039V24.7601H6.46094V24.7039V24.6476H5.0083V24.7039Z" fill="black"/>
<path d="M12.9388 24.168H13.434C13.5369 24.168 13.6221 24.1915 13.6882 24.2386C13.7529 24.2856 13.7866 24.359 13.7866 24.459C13.7866 24.5222 13.7705 24.5765 13.7411 24.6206C13.7102 24.6647 13.6676 24.697 13.6133 24.7161C13.6382 24.722 13.6603 24.7308 13.6794 24.7426C13.697 24.7543 13.7117 24.7675 13.722 24.7808C13.7323 24.7955 13.7411 24.8131 13.7484 24.8337C13.7543 24.8557 13.7587 24.8748 13.7617 24.891C13.7646 24.9071 13.7661 24.9277 13.769 24.9542C13.769 24.9615 13.7705 24.9747 13.772 24.9938C13.7734 25.0144 13.7749 25.0276 13.7749 25.0335C13.7749 25.0394 13.7764 25.0511 13.7778 25.0658C13.7793 25.082 13.7808 25.0937 13.7822 25.0996C13.7822 25.1055 13.7837 25.1158 13.7866 25.1275C13.7896 25.1393 13.7911 25.1496 13.794 25.1555C13.7955 25.1613 13.7984 25.1687 13.8013 25.1775C13.8043 25.1863 13.8072 25.1922 13.8116 25.1981C13.8146 25.2039 13.819 25.2098 13.8249 25.2142H13.628C13.625 25.2113 13.6221 25.2069 13.6191 25.201C13.6162 25.1951 13.6147 25.1893 13.6133 25.1834C13.6103 25.1775 13.6089 25.1716 13.6089 25.1657C13.6074 25.1599 13.6059 25.1525 13.6044 25.1437C13.603 25.1349 13.603 25.1261 13.603 25.1202L13.6 25.0937L13.5971 25.0673C13.5971 25.0614 13.5956 25.0511 13.5956 25.0364C13.5942 25.0217 13.5942 25.0115 13.5942 25.0056C13.5883 24.9204 13.5706 24.863 13.5398 24.8307C13.5089 24.7984 13.4502 24.7822 13.3649 24.7822H13.121V25.2142H12.9388V24.168ZM13.121 24.3179V24.6456H13.3635C13.3987 24.6456 13.4281 24.6441 13.4531 24.6397C13.4766 24.6368 13.5016 24.6294 13.5266 24.6191C13.5515 24.6088 13.5706 24.5912 13.5839 24.5677C13.5971 24.5442 13.6044 24.5148 13.6044 24.4781C13.6044 24.4457 13.5986 24.4178 13.5868 24.3958C13.5751 24.3737 13.5574 24.3576 13.5354 24.3458C13.5133 24.3355 13.4913 24.3282 13.4678 24.3238C13.4443 24.3208 13.4178 24.3179 13.387 24.3179H13.121ZM14.6008 25.0658V25.2142H13.8985C13.8985 25.1687 13.9058 25.1261 13.9176 25.0879C13.9293 25.0497 13.9426 25.0173 13.9572 24.9909C13.9719 24.9644 13.9955 24.9365 14.0248 24.9086C14.0542 24.8807 14.0821 24.8572 14.1057 24.8395C14.1292 24.8219 14.163 24.7984 14.2056 24.769C14.2085 24.7675 14.2217 24.7587 14.2482 24.7411C14.2746 24.7235 14.2908 24.7132 14.2967 24.7088C14.3026 24.7044 14.3158 24.6941 14.3363 24.6779C14.3569 24.6617 14.3701 24.6485 14.376 24.6382C14.3819 24.6294 14.3907 24.6162 14.4025 24.5986C14.4142 24.5824 14.4216 24.5662 14.426 24.5486C14.4289 24.531 14.4319 24.5133 14.4319 24.4928C14.4319 24.4399 14.4157 24.3973 14.3863 24.3664C14.3569 24.3355 14.3158 24.3194 14.2658 24.3194C14.2364 24.3194 14.21 24.3253 14.1894 24.3341C14.1674 24.3429 14.1497 24.3546 14.138 24.3693C14.1262 24.384 14.1159 24.4031 14.1086 24.4266C14.0998 24.4502 14.0954 24.4707 14.0924 24.4913C14.0895 24.5119 14.088 24.5368 14.088 24.5633H13.9249V24.5368C13.9249 24.4266 13.9558 24.3385 14.0175 24.2738C14.0792 24.2092 14.1644 24.1754 14.2702 24.1754C14.3701 24.1754 14.4495 24.2048 14.5112 24.2606C14.5715 24.3164 14.6023 24.3914 14.6023 24.4839C14.6023 24.5222 14.5964 24.5574 14.5847 24.5897C14.5729 24.6235 14.5597 24.65 14.5465 24.6706C14.5332 24.6911 14.5112 24.7161 14.4789 24.7426C14.4466 24.7705 14.4216 24.7896 14.4069 24.7999C14.3907 24.8116 14.3613 24.8307 14.3202 24.8586C14.1968 24.938 14.1233 25.007 14.0998 25.0658H14.6008Z" fill="#060C12"/>
<path d="M10.6228 24.7039L11.1857 25.0288V24.3789L10.6228 24.7039ZM12.582 24.7601H12.6383V24.6476H12.582V24.7039V24.7601ZM11.1294 24.7039V24.7601H12.582V24.7039V24.6476H11.1294V24.7039Z" fill="black"/>
<path d="M19.056 24.168H19.5512C19.654 24.168 19.7393 24.1915 19.8054 24.2386C19.87 24.2856 19.9038 24.359 19.9038 24.459C19.9038 24.5222 19.8877 24.5765 19.8583 24.6206C19.8274 24.6647 19.7848 24.697 19.7304 24.7161C19.7554 24.722 19.7775 24.7308 19.7966 24.7426C19.8142 24.7543 19.8289 24.7675 19.8392 24.7808C19.8495 24.7955 19.8583 24.8131 19.8656 24.8337C19.8715 24.8557 19.8759 24.8748 19.8789 24.891C19.8818 24.9071 19.8833 24.9277 19.8862 24.9542C19.8862 24.9615 19.8877 24.9747 19.8891 24.9938C19.8906 25.0144 19.8921 25.0276 19.8921 25.0335C19.8921 25.0394 19.8936 25.0511 19.895 25.0658C19.8965 25.082 19.898 25.0937 19.8994 25.0996C19.8994 25.1055 19.9009 25.1158 19.9038 25.1275C19.9068 25.1393 19.9082 25.1496 19.9112 25.1555C19.9127 25.1613 19.9156 25.1687 19.9185 25.1775C19.9215 25.1863 19.9244 25.1922 19.9288 25.1981C19.9318 25.2039 19.9362 25.2098 19.942 25.2142H19.7451C19.7422 25.2113 19.7393 25.2069 19.7363 25.201C19.7334 25.1951 19.7319 25.1893 19.7304 25.1834C19.7275 25.1775 19.726 25.1716 19.726 25.1657C19.7246 25.1599 19.7231 25.1525 19.7216 25.1437C19.7202 25.1349 19.7202 25.1261 19.7202 25.1202L19.7172 25.0937L19.7143 25.0673C19.7143 25.0614 19.7128 25.0511 19.7128 25.0364C19.7113 25.0217 19.7113 25.0115 19.7113 25.0056C19.7055 24.9204 19.6878 24.863 19.657 24.8307C19.6261 24.7984 19.5673 24.7822 19.4821 24.7822H19.2382V25.2142H19.056V24.168ZM19.2382 24.3179V24.6456H19.4807C19.5159 24.6456 19.5453 24.6441 19.5703 24.6397C19.5938 24.6368 19.6188 24.6294 19.6438 24.6191C19.6687 24.6088 19.6878 24.5912 19.7011 24.5677C19.7143 24.5442 19.7216 24.5148 19.7216 24.4781C19.7216 24.4457 19.7158 24.4178 19.704 24.3958C19.6922 24.3737 19.6746 24.3576 19.6526 24.3458C19.6305 24.3355 19.6085 24.3282 19.585 24.3238C19.5615 24.3208 19.535 24.3179 19.5042 24.3179H19.2382ZM20.0465 24.5163C20.0495 24.4105 20.0803 24.3282 20.1406 24.2665C20.1993 24.2062 20.2801 24.1754 20.3815 24.1754C20.4756 24.1754 20.5535 24.2018 20.6122 24.2518C20.671 24.3032 20.7004 24.3693 20.7004 24.4516C20.7004 24.5016 20.6872 24.5457 20.6607 24.5839C20.6343 24.6221 20.6005 24.647 20.5564 24.6617C20.6137 24.6764 20.6593 24.7058 20.693 24.7484C20.7254 24.791 20.743 24.8425 20.743 24.9042C20.743 25.0026 20.7092 25.082 20.6416 25.1437C20.574 25.2054 20.4859 25.2363 20.3786 25.2363C20.2713 25.2363 20.1846 25.2054 20.12 25.1437C20.0539 25.082 20.0215 25.0012 20.0215 24.8983V24.8763H20.1832C20.1876 25.0203 20.2537 25.0923 20.383 25.0923C20.4388 25.0923 20.4844 25.0761 20.5182 25.0438C20.5505 25.0115 20.5681 24.9659 20.5681 24.9086C20.5681 24.8498 20.549 24.8057 20.5108 24.7778C20.4726 24.7514 20.4227 24.7367 20.3624 24.7367C20.3433 24.7367 20.3257 24.7382 20.3095 24.7382V24.6118H20.3242C20.3536 24.6118 20.3801 24.6103 20.4021 24.6074C20.4227 24.6044 20.4447 24.5971 20.4668 24.5883C20.4888 24.5795 20.5064 24.5633 20.5182 24.5427C20.5299 24.5222 20.5358 24.4957 20.5358 24.4634C20.5358 24.4193 20.5211 24.3826 20.4932 24.3546C20.4638 24.3282 20.4256 24.3135 20.3786 24.3135C20.2684 24.3135 20.2111 24.3811 20.2067 24.5163H20.0465Z" fill="#060C12"/>
<path d="M16.7439 24.7039L17.3068 25.0288V24.3789L16.7439 24.7039ZM18.7031 24.7601H18.7594V24.6476H18.7031V24.7039V24.7601ZM17.2505 24.7039V24.7601H18.7031V24.7039V24.6476H17.2505V24.7039Z" fill="black"/>
<path d="M36.7336 16.2275H37.2645C37.3605 16.2275 37.4447 16.2393 37.5192 16.2588C37.5917 16.2784 37.6583 16.3157 37.721 16.3705C37.8581 16.4939 37.9267 16.6703 37.9267 16.9015C37.9267 17.1483 37.8601 17.3384 37.7308 17.4677C37.672 17.5264 37.6093 17.5656 37.5427 17.5891C37.4761 17.6126 37.3879 17.6224 37.2782 17.6224H36.7336V16.2275ZM36.9765 16.4352V17.4167H37.2645C37.4173 17.4167 37.5251 17.3736 37.5878 17.2835C37.6505 17.1953 37.6818 17.0719 37.6818 16.9132C37.6818 16.7643 37.6465 16.6468 37.576 16.5625C37.5055 16.4783 37.3958 16.4352 37.2488 16.4352H36.9765ZM38.7391 16.2432V17.6224H38.5001V16.6742H38.1592V16.5096C38.3963 16.5096 38.5295 16.4215 38.5589 16.2432H38.7391Z" fill="black"/>
<path d="M30.6105 18.1866H31.1414C31.2374 18.1866 31.3217 18.1984 31.3961 18.218C31.4686 18.2375 31.5352 18.2748 31.5979 18.3296C31.7351 18.4531 31.8036 18.6294 31.8036 18.8606C31.8036 19.1074 31.737 19.2975 31.6077 19.4268C31.549 19.4855 31.4863 19.5247 31.4196 19.5482C31.353 19.5717 31.2649 19.5815 31.1552 19.5815H30.6105V18.1866ZM30.8534 18.3943V19.3758H31.1414C31.2943 19.3758 31.402 19.3327 31.4647 19.2426C31.5274 19.1544 31.5588 19.031 31.5588 18.8723C31.5588 18.7234 31.5235 18.6059 31.453 18.5216C31.3824 18.4374 31.2727 18.3943 31.1258 18.3943H30.8534ZM32.859 19.3837V19.5815H31.9225C31.9225 19.5208 31.9323 19.464 31.948 19.4131C31.9637 19.3621 31.9813 19.319 32.0009 19.2837C32.0205 19.2485 32.0518 19.2113 32.091 19.174C32.1302 19.1368 32.1674 19.1055 32.1988 19.082C32.2301 19.0584 32.2752 19.0271 32.332 18.9879C32.3359 18.986 32.3536 18.9742 32.3888 18.9507C32.4241 18.9272 32.4456 18.9135 32.4535 18.9076C32.4613 18.9017 32.4789 18.888 32.5064 18.8664C32.5338 18.8449 32.5514 18.8273 32.5593 18.8135C32.5671 18.8018 32.5789 18.7842 32.5945 18.7606C32.6102 18.7391 32.62 18.7175 32.6259 18.694C32.6298 18.6705 32.6337 18.647 32.6337 18.6196C32.6337 18.5491 32.6122 18.4922 32.573 18.4511C32.5338 18.41 32.4789 18.3884 32.4123 18.3884C32.3731 18.3884 32.3379 18.3962 32.3105 18.408C32.2811 18.4197 32.2576 18.4354 32.2419 18.455C32.2262 18.4746 32.2125 18.5001 32.2027 18.5314C32.1909 18.5628 32.1851 18.5902 32.1811 18.6176C32.1772 18.6451 32.1753 18.6784 32.1753 18.7136H31.9578V18.6784C31.9578 18.5314 31.9989 18.4139 32.0812 18.3277C32.1635 18.2415 32.2771 18.1964 32.4182 18.1964C32.5514 18.1964 32.6572 18.2356 32.7395 18.31C32.8198 18.3845 32.861 18.4844 32.861 18.6078C32.861 18.6588 32.8531 18.7058 32.8375 18.7489C32.8218 18.794 32.8042 18.8292 32.7865 18.8566C32.7689 18.8841 32.7395 18.9174 32.6964 18.9526C32.6533 18.9899 32.62 19.0153 32.6004 19.0291C32.5789 19.0447 32.5397 19.0702 32.4848 19.1074C32.3202 19.2132 32.2223 19.3053 32.1909 19.3837H32.859Z" fill="black"/>
<path d="M24.4875 18.1866H25.0184C25.1144 18.1866 25.1986 18.1984 25.2731 18.218C25.3456 18.2375 25.4122 18.2748 25.4749 18.3296C25.612 18.4531 25.6806 18.6294 25.6806 18.8606C25.6806 19.1074 25.614 19.2975 25.4847 19.4268C25.4259 19.4855 25.3632 19.5247 25.2966 19.5482C25.23 19.5717 25.1418 19.5815 25.0321 19.5815H24.4875V18.1866ZM24.7304 18.3943V19.3758H25.0184C25.1712 19.3758 25.279 19.3327 25.3417 19.2426C25.4044 19.1544 25.4357 19.031 25.4357 18.8723C25.4357 18.7234 25.4004 18.6059 25.3299 18.5216C25.2594 18.4374 25.1497 18.3943 25.0027 18.3943H24.7304ZM26.736 19.3837V19.5815H25.7995C25.7995 19.5208 25.8093 19.464 25.825 19.4131C25.8406 19.3621 25.8583 19.319 25.8779 19.2837C25.8974 19.2485 25.9288 19.2113 25.968 19.174C26.0072 19.1368 26.0444 19.1055 26.0757 19.082C26.1071 19.0584 26.1521 19.0271 26.209 18.9879C26.2129 18.986 26.2305 18.9742 26.2658 18.9507C26.301 18.9272 26.3226 18.9135 26.3304 18.9076C26.3383 18.9017 26.3559 18.888 26.3833 18.8664C26.4108 18.8449 26.4284 18.8273 26.4362 18.8135C26.4441 18.8018 26.4558 18.7842 26.4715 18.7606C26.4872 18.7391 26.497 18.7175 26.5028 18.694C26.5068 18.6705 26.5107 18.647 26.5107 18.6196C26.5107 18.5491 26.4891 18.4922 26.4499 18.4511C26.4108 18.41 26.3559 18.3884 26.2893 18.3884C26.2501 18.3884 26.2148 18.3962 26.1874 18.408C26.158 18.4197 26.1345 18.4354 26.1188 18.455C26.1032 18.4746 26.0894 18.5001 26.0796 18.5314C26.0679 18.5628 26.062 18.5902 26.0581 18.6176C26.0542 18.6451 26.0522 18.6784 26.0522 18.7136H25.8348V18.6784C25.8348 18.5314 25.8759 18.4139 25.9582 18.3277C26.0405 18.2415 26.1541 18.1964 26.2952 18.1964C26.4284 18.1964 26.5342 18.2356 26.6165 18.31C26.6968 18.3845 26.7379 18.4844 26.7379 18.6078C26.7379 18.6588 26.7301 18.7058 26.7144 18.7489C26.6988 18.794 26.6811 18.8292 26.6635 18.8566C26.6459 18.8841 26.6165 18.9174 26.5734 18.9526C26.5303 18.9899 26.497 19.0153 26.4774 19.0291C26.4558 19.0447 26.4166 19.0702 26.3618 19.1074C26.1972 19.2132 26.0992 19.3053 26.0679 19.3837H26.736Z" fill="black"/>
<path d="M21.4756 35.0101L21.8488 34.4679L21.502 33.9639H21.7209L21.959 34.3342L22.2073 33.9639H22.413L22.0663 34.4679L22.438 35.0101H22.2147L21.9531 34.6105L21.6872 35.0101H21.4756Z" fill="#060C12"/>
<path d="M3.27623 34.4999L3.83906 34.8248V34.1749L3.27623 34.4999ZM20.7715 34.5562H20.8278V34.4436H20.7715V34.4999V34.5562ZM3.78278 34.4999V34.5562H20.7715V34.4999V34.4436H3.78278V34.4999Z" fill="black"/>
<path d="M41.4796 34.4999L40.9168 34.8248V34.1749L41.4796 34.4999ZM23.9844 34.5562H23.9281V34.4436H23.9844V34.4999V34.5562ZM40.9731 34.4999V34.5562H23.9844V34.4999V34.4436H40.9731V34.4999Z" fill="black"/>
<path d="M42.6871 21.4745L42.2933 22.1049V22.5208H42.1125V22.1049L41.7173 21.4745H41.9289L42.2066 21.9374L42.4813 21.4745H42.6871Z" fill="#060C12"/>
<path d="M42.1484 10.9898L42.4734 11.5526L41.8235 11.5526L42.1484 10.9898ZM42.2047 21.0833L42.2047 21.1395L42.0922 21.1395L42.0922 21.0833L42.1484 21.0833L42.2047 21.0833ZM42.1484 11.4963L42.2047 11.4963L42.2047 21.0833L42.1484 21.0833L42.0922 21.0833L42.0922 11.4963L42.1484 11.4963Z" fill="black"/>
<path d="M42.1484 33.0305L42.4734 32.4676L41.8235 32.4676L42.1484 33.0305ZM42.2047 22.937L42.2047 22.8807L42.0922 22.8807L42.0922 22.937L42.1484 22.937L42.2047 22.937ZM42.1484 32.5239L42.2047 32.5239L42.2047 22.937L42.1484 22.937L42.0922 22.937L42.0922 32.5239L42.1484 32.5239Z" fill="black"/>
</svg>
