<svg width="46" height="46" viewBox="0 0 46 46" fill="none" xmlns="http://www.w3.org/2000/svg">
<rect width="46" height="46" rx="11.3448" fill="#F3F3F3"/>
<rect x="0.405172" y="0.405172" width="45.1897" height="45.1897" rx="10.9397" stroke="#B02E0C" stroke-opacity="0.04" stroke-width="0.810345"/>
<path d="M41.877 11.177V33.0598H2.34375V11.177H41.877Z" stroke="black" stroke-width="0.332181"/>
<path d="M5.51953 12.7108H38.7266C39.6163 12.7108 40.3379 13.4324 40.3379 14.3221V29.9149C40.3377 30.8045 39.6162 31.5253 38.7266 31.5253H5.51953C4.6299 31.5253 3.90844 30.8045 3.9082 29.9149V14.3221C3.9082 13.4324 4.62976 12.7108 5.51953 12.7108Z" stroke="#FF9411" stroke-width="0.332181"/>
<circle cx="6.44994" cy="15.5305" r="1.53919" stroke="black" stroke-width="0.333219"/>
<circle cx="6.39043" cy="22.3715" r="1.23749" stroke="black" stroke-width="0.333219"/>
<circle cx="6.44994" cy="28.7947" r="1.53919" stroke="black" stroke-width="0.333219"/>
<circle cx="37.0252" cy="22.3715" r="1.23749" stroke="black" stroke-width="0.333219"/>
<circle cx="16.9363" cy="15.5271" r="1.53919" stroke="black" stroke-width="0.333219"/>
<circle cx="16.9363" cy="28.8022" r="1.53919" stroke="black" stroke-width="0.333219"/>
<circle cx="26.8913" cy="15.5271" r="1.53919" stroke="black" stroke-width="0.333219"/>
<circle cx="26.8913" cy="28.8022" r="1.53919" stroke="black" stroke-width="0.333219"/>
<circle cx="37.071" cy="15.5271" r="1.53919" stroke="black" stroke-width="0.333219"/>
<circle cx="37.071" cy="28.8022" r="1.53919" stroke="black" stroke-width="0.333219"/>
<path d="M4.85679 18.4545C2.22045 12.2897 4.85688 11.4567 10.0138 14.6778" stroke="#B02E0C" stroke-width="0.415226" stroke-linecap="round"/>
<path d="M26.0897 18.0706H26.5048C26.5799 18.0706 26.6457 18.0798 26.704 18.0952C26.7606 18.1105 26.8127 18.1396 26.8617 18.1825C26.9689 18.279 27.0226 18.4168 27.0226 18.5976C27.0226 18.7906 26.9705 18.9392 26.8694 19.0402C26.8234 19.0862 26.7744 19.1168 26.7223 19.1352C26.6703 19.1536 26.6013 19.1613 26.5155 19.1613H26.0897V18.0706ZM26.2797 18.233V19.0004H26.5048C26.6243 19.0004 26.7085 18.9667 26.7576 18.8963C26.8066 18.8273 26.8311 18.7308 26.8311 18.6068C26.8311 18.4903 26.8035 18.3984 26.7484 18.3326C26.6932 18.2667 26.6075 18.233 26.4926 18.233H26.2797ZM27.8477 19.0065V19.1613H27.1155C27.1155 19.1138 27.1232 19.0693 27.1354 19.0295C27.1477 18.9897 27.1615 18.956 27.1768 18.9284C27.1921 18.9009 27.2166 18.8718 27.2472 18.8427C27.2779 18.8135 27.307 18.789 27.3315 18.7707C27.356 18.7523 27.3912 18.7278 27.4356 18.6971C27.4387 18.6956 27.4525 18.6864 27.4801 18.668C27.5076 18.6497 27.5245 18.6389 27.5306 18.6343C27.5367 18.6297 27.5505 18.619 27.572 18.6022C27.5934 18.5853 27.6072 18.5715 27.6133 18.5608C27.6194 18.5516 27.6286 18.5378 27.6409 18.5195C27.6531 18.5026 27.6608 18.4858 27.6654 18.4674C27.6685 18.449 27.6715 18.4306 27.6715 18.4092C27.6715 18.354 27.6547 18.3096 27.624 18.2774C27.5934 18.2453 27.5505 18.2284 27.4984 18.2284C27.4678 18.2284 27.4402 18.2345 27.4188 18.2437C27.3958 18.2529 27.3774 18.2652 27.3652 18.2805C27.3529 18.2958 27.3422 18.3157 27.3345 18.3402C27.3254 18.3647 27.3208 18.3862 27.3177 18.4076C27.3146 18.4291 27.3131 18.4551 27.3131 18.4827H27.1431V18.4551C27.1431 18.3402 27.1752 18.2483 27.2396 18.1809C27.3039 18.1135 27.3927 18.0783 27.503 18.0783C27.6072 18.0783 27.6899 18.1089 27.7542 18.1672C27.817 18.2254 27.8492 18.3035 27.8492 18.4C27.8492 18.4398 27.8431 18.4766 27.8308 18.5103C27.8186 18.5455 27.8048 18.5731 27.791 18.5945C27.7772 18.616 27.7542 18.642 27.7205 18.6696C27.6868 18.6987 27.6608 18.7186 27.6455 18.7293C27.6286 18.7416 27.598 18.7615 27.5551 18.7906C27.4264 18.8733 27.3499 18.9453 27.3254 19.0065H27.8477Z" fill="black"/>
<path d="M36.2675 19.3449H36.6826C36.7576 19.3449 36.8235 19.3541 36.8817 19.3694C36.9384 19.3848 36.9904 19.4139 37.0395 19.4568C37.1467 19.5533 37.2003 19.6911 37.2003 19.8719C37.2003 20.0649 37.1482 20.2134 37.0471 20.3145C37.0012 20.3605 36.9521 20.3911 36.9001 20.4095C36.848 20.4279 36.7791 20.4355 36.6933 20.4355H36.2675V19.3449ZM36.4574 19.5073V20.2747H36.6826C36.802 20.2747 36.8863 20.241 36.9353 20.1706C36.9843 20.1016 37.0088 20.0051 37.0088 19.8811C37.0088 19.7646 36.9813 19.6727 36.9261 19.6069C36.871 19.541 36.7852 19.5073 36.6703 19.5073H36.4574ZM37.8355 19.3572V20.4355H37.6486V19.6942H37.3821V19.5655C37.5674 19.5655 37.6716 19.4966 37.6946 19.3572H37.8355Z" fill="black"/>
<path d="M7.43171 25.2188H7.94791C8.05513 25.2188 8.14397 25.2434 8.2129 25.2924C8.2803 25.3414 8.31553 25.418 8.31553 25.5221C8.31553 25.588 8.29868 25.6447 8.26804 25.6906C8.23588 25.7366 8.19146 25.7703 8.13478 25.7902C8.16082 25.7963 8.1838 25.8055 8.20371 25.8178C8.22209 25.83 8.23741 25.8438 8.24813 25.8576C8.25885 25.8729 8.26804 25.8913 8.2757 25.9127C8.28183 25.9357 8.28642 25.9556 8.28949 25.9725C8.29255 25.9893 8.29408 26.0108 8.29715 26.0383C8.29715 26.046 8.29868 26.0598 8.30021 26.0797C8.30174 26.1011 8.30327 26.1149 8.30327 26.121C8.30327 26.1272 8.30481 26.1394 8.30634 26.1547C8.30787 26.1716 8.3094 26.1838 8.31093 26.19C8.31093 26.1961 8.31246 26.2068 8.31553 26.2191C8.31859 26.2313 8.32012 26.2421 8.32319 26.2482C8.32472 26.2543 8.32778 26.262 8.33085 26.2712C8.33391 26.2803 8.33697 26.2865 8.34157 26.2926C8.34463 26.2987 8.34923 26.3049 8.35535 26.3094H8.1501C8.14704 26.3064 8.14397 26.3018 8.14091 26.2957C8.13784 26.2895 8.13631 26.2834 8.13478 26.2773C8.13172 26.2712 8.13019 26.265 8.13019 26.2589C8.12865 26.2528 8.12712 26.2451 8.12559 26.2359C8.12406 26.2267 8.12406 26.2175 8.12406 26.2114L8.121 26.1838L8.11793 26.1563C8.11793 26.1501 8.1164 26.1394 8.1164 26.1241C8.11487 26.1088 8.11487 26.0981 8.11487 26.0919C8.10874 26.0031 8.09036 25.9434 8.05819 25.9097C8.02603 25.876 7.96476 25.8591 7.87592 25.8591H7.62165V26.3094H7.43171V25.2188ZM7.62165 25.3751V25.7167H7.87438C7.91115 25.7167 7.94178 25.7151 7.96782 25.7105C7.99233 25.7075 8.01837 25.6998 8.04441 25.6891C8.07045 25.6784 8.09036 25.66 8.10415 25.6355C8.11793 25.611 8.12559 25.5803 8.12559 25.542C8.12559 25.5083 8.11946 25.4792 8.10721 25.4563C8.09496 25.4333 8.07657 25.4164 8.0536 25.4042C8.03062 25.3935 8.00765 25.3858 7.98314 25.3812C7.95863 25.3781 7.93106 25.3751 7.89889 25.3751H7.62165Z" fill="#060C12"/>
<path d="M3.99774 25.8201L4.58446 25.4813V26.1588L3.99774 25.8201ZM6.93359 25.7614H6.99227V25.8787H6.93359V25.8201V25.7614ZM4.52579 25.8201V25.7614H6.93359V25.8201V25.8787H4.52579V25.8201Z" fill="black"/>
<path d="M17.8985 21.3893H18.4147C18.5219 21.3893 18.6108 21.4138 18.6797 21.4628C18.7471 21.5118 18.7823 21.5884 18.7823 21.6925C18.7823 21.7584 18.7655 21.8151 18.7348 21.861C18.7027 21.907 18.6583 21.9407 18.6016 21.9606C18.6276 21.9667 18.6506 21.9759 18.6705 21.9882C18.6889 22.0004 18.7042 22.0142 18.7149 22.028C18.7256 22.0433 18.7348 22.0617 18.7425 22.0831C18.7486 22.1061 18.7532 22.126 18.7563 22.1429C18.7593 22.1597 18.7609 22.1812 18.7639 22.2087C18.7639 22.2164 18.7655 22.2302 18.767 22.2501C18.7685 22.2715 18.7701 22.2853 18.7701 22.2915C18.7701 22.2976 18.7716 22.3098 18.7731 22.3252C18.7747 22.342 18.7762 22.3543 18.7777 22.3604C18.7777 22.3665 18.7793 22.3772 18.7823 22.3895C18.7854 22.4017 18.7869 22.4125 18.79 22.4186C18.7915 22.4247 18.7946 22.4324 18.7976 22.4416C18.8007 22.4508 18.8038 22.4569 18.8084 22.463C18.8114 22.4691 18.816 22.4753 18.8222 22.4799H18.6169C18.6138 22.4768 18.6108 22.4722 18.6077 22.4661C18.6046 22.4599 18.6031 22.4538 18.6016 22.4477C18.5985 22.4416 18.597 22.4354 18.597 22.4293C18.5955 22.4232 18.5939 22.4155 18.5924 22.4063C18.5909 22.3971 18.5909 22.388 18.5909 22.3818L18.5878 22.3543L18.5847 22.3267C18.5847 22.3206 18.5832 22.3098 18.5832 22.2945C18.5817 22.2792 18.5817 22.2685 18.5817 22.2624C18.5755 22.1735 18.5572 22.1138 18.525 22.0801C18.4928 22.0464 18.4316 22.0295 18.3427 22.0295H18.0884V22.4799H17.8985V21.3893ZM18.0884 21.5455V21.8871H18.3412C18.3779 21.8871 18.4086 21.8855 18.4346 21.8809C18.4591 21.8779 18.4852 21.8702 18.5112 21.8595C18.5372 21.8488 18.5572 21.8304 18.5709 21.8059C18.5847 21.7814 18.5924 21.7507 18.5924 21.7125C18.5924 21.6788 18.5863 21.6497 18.574 21.6267C18.5618 21.6037 18.5434 21.5868 18.5204 21.5746C18.4974 21.5639 18.4744 21.5562 18.4499 21.5516C18.4254 21.5486 18.3979 21.5455 18.3657 21.5455H18.0884ZM19.6311 22.3252V22.4799H18.8989C18.8989 22.4324 18.9066 22.388 18.9188 22.3481C18.9311 22.3083 18.9448 22.2746 18.9602 22.247C18.9755 22.2195 19 22.1904 19.0306 22.1613C19.0613 22.1322 19.0904 22.1076 19.1149 22.0893C19.1394 22.0709 19.1746 22.0464 19.219 22.0157C19.2221 22.0142 19.2359 22.005 19.2634 21.9866C19.291 21.9683 19.3079 21.9575 19.314 21.9529C19.3201 21.9483 19.3339 21.9376 19.3554 21.9208C19.3768 21.9039 19.3906 21.8901 19.3967 21.8794C19.4028 21.8702 19.412 21.8564 19.4243 21.8381C19.4365 21.8212 19.4442 21.8044 19.4488 21.786C19.4519 21.7676 19.4549 21.7492 19.4549 21.7278C19.4549 21.6726 19.4381 21.6282 19.4074 21.596C19.3768 21.5639 19.3339 21.547 19.2818 21.547C19.2512 21.547 19.2236 21.5532 19.2022 21.5623C19.1792 21.5715 19.1608 21.5838 19.1486 21.5991C19.1363 21.6144 19.1256 21.6343 19.1179 21.6588C19.1087 21.6833 19.1041 21.7048 19.1011 21.7262C19.098 21.7477 19.0965 21.7737 19.0965 21.8013H18.9265V21.7737C18.9265 21.6588 18.9586 21.5669 19.023 21.4995C19.0873 21.4321 19.1761 21.3969 19.2864 21.3969C19.3906 21.3969 19.4733 21.4275 19.5376 21.4858C19.6004 21.544 19.6326 21.6221 19.6326 21.7186C19.6326 21.7584 19.6265 21.7952 19.6142 21.8289C19.602 21.8641 19.5882 21.8917 19.5744 21.9131C19.5606 21.9346 19.5376 21.9606 19.5039 21.9882C19.4702 22.0173 19.4442 22.0372 19.4289 22.0479C19.412 22.0602 19.3814 22.0801 19.3385 22.1092C19.2098 22.1919 19.1333 22.2639 19.1087 22.3252H19.6311Z" fill="#060C12"/>
<path d="M14.4645 21.9905L15.0513 21.6517V22.3292L14.4645 21.9905ZM17.4004 21.9318H17.4591V22.0492H17.4004V21.9905V21.9318ZM14.9926 21.9905V21.9318H17.4004V21.9905V22.0492H14.9926V21.9905Z" fill="black"/>
<path d="M21.1861 34.9891L21.5752 34.4239L21.2137 33.8985H21.4419L21.6901 34.2845L21.9489 33.8985H22.1634L21.8019 34.4239L22.1894 34.9891H21.9566L21.6839 34.5725L21.4067 34.9891H21.1861Z" fill="#060C12"/>
<path d="M2.21143 34.4998L2.79815 34.8385V34.161L2.21143 34.4998ZM20.4492 34.5584H20.5079V34.4411H20.4492V34.4998V34.5584ZM2.73948 34.4998V34.5584H20.4492V34.4998V34.4411H2.73948V34.4998Z" fill="black"/>
<path d="M42.0366 34.4998L41.4499 34.8385V34.161L42.0366 34.4998ZM23.7988 34.5584H23.7402V34.4411H23.7988V34.4998V34.5584ZM41.5086 34.4998V34.5584H23.7988V34.4998V34.4411H41.5086V34.4998Z" fill="black"/>
<rect x="14.3366" y="12.6724" width="15.0622" height="18.8916" rx="1.65939" stroke="#FF9411" stroke-width="0.255291"/>
<path d="M15.5013 18.4228C12.865 12.2581 15.5014 11.4251 20.6583 14.6462" stroke="#B02E0C" stroke-width="0.415226" stroke-linecap="round"/>
<path d="M43.8041 21.7184L43.3936 22.3755V22.809H43.2052V22.3755L42.7931 21.7184H43.0137L43.3032 22.2009L43.5896 21.7184H43.8041Z" fill="#060C12"/>
<path d="M43.3125 11.0133L42.9738 11.6L43.6512 11.6L43.3125 11.0133ZM43.2538 20.7144L43.2538 20.773L43.3712 20.773L43.3712 20.7144L43.3125 20.7144L43.2538 20.7144ZM43.3125 11.5413L43.2538 11.5413L43.2538 20.7144L43.3125 20.7144L43.3712 20.7144L43.3712 11.5413L43.3125 11.5413Z" fill="black"/>
<path d="M43.3125 33.2237L43.6512 32.6369L42.9738 32.6369L43.3125 33.2237ZM43.3712 23.5226L43.3712 23.4639L43.2538 23.4639L43.2538 23.5226L43.3125 23.5226L43.3712 23.5226ZM43.3125 32.6956L43.3712 32.6956L43.3712 23.5226L43.3125 23.5226L43.2538 23.5226L43.2538 32.6956L43.3125 32.6956Z" fill="black"/>
</svg>
