<svg width="46" height="46" viewBox="0 0 46 46" fill="none" xmlns="http://www.w3.org/2000/svg">
<rect width="46" height="46" rx="11.3448" fill="#F3F3F3"/>
<rect x="0.405172" y="0.405172" width="45.1897" height="45.1897" rx="10.9397" stroke="#B02E0C" stroke-opacity="0.04" stroke-width="0.810345"/>
<path d="M40.0723 10.4546V33.7329H3.75879V10.4546H40.0723Z" stroke="black" stroke-width="0.353375"/>
<path d="M7.28711 12.2214H36.5479C37.4944 12.2214 38.2617 12.9888 38.2617 13.9353V30.2527C38.2615 31.1991 37.4943 31.9666 36.5479 31.9666H7.28711C6.34069 31.9666 5.57344 31.1991 5.57324 30.2527V13.9353C5.57324 12.9888 6.34057 12.2214 7.28711 12.2214Z" stroke="#FF9411" stroke-width="0.353375"/>
<circle cx="8.21669" cy="28.8298" r="1.51015" stroke="black" stroke-width="0.354479"/>
<circle cx="8.21669" cy="15.3573" r="1.51015" stroke="black" stroke-width="0.354479"/>
<circle cx="21.9159" cy="28.8298" r="1.51015" stroke="black" stroke-width="0.354479"/>
<circle cx="21.9159" cy="15.3573" r="1.51015" stroke="black" stroke-width="0.354479"/>
<circle cx="35.4159" cy="28.8298" r="1.51015" stroke="black" stroke-width="0.354479"/>
<circle cx="35.4159" cy="15.3573" r="1.51015" stroke="black" stroke-width="0.354479"/>
<path d="M6.75214 18.4679C4.32733 11.9098 6.75223 11.0236 11.4954 14.4503" stroke="#B02E0C" stroke-width="0.441719" stroke-linecap="round"/>
<path d="M21.2729 17.7241H21.7145C21.7943 17.7241 21.8644 17.7339 21.9263 17.7502C21.9866 17.7665 22.042 17.7974 22.0942 17.843C22.2082 17.9457 22.2653 18.0924 22.2653 18.2846C22.2653 18.4899 22.2099 18.648 22.1023 18.7555C22.0534 18.8044 22.0013 18.837 21.9459 18.8566C21.8905 18.8761 21.8172 18.8843 21.7259 18.8843H21.2729V17.7241ZM21.475 17.8968V18.7132H21.7145C21.8416 18.7132 21.9312 18.6773 21.9834 18.6024C22.0355 18.5291 22.0616 18.4264 22.0616 18.2944C22.0616 18.1706 22.0323 18.0728 21.9736 18.0027C21.9149 17.9327 21.8237 17.8968 21.7015 17.8968H21.475ZM23.143 18.7197V18.8843H22.3641C22.3641 18.8338 22.3723 18.7865 22.3853 18.7441C22.3984 18.7018 22.413 18.6659 22.4293 18.6366C22.4456 18.6073 22.4717 18.5763 22.5043 18.5453C22.5369 18.5144 22.5678 18.4883 22.5939 18.4688C22.62 18.4492 22.6575 18.4231 22.7047 18.3905C22.708 18.3889 22.7226 18.3791 22.752 18.3596C22.7813 18.34 22.7992 18.3286 22.8057 18.3237C22.8123 18.3188 22.8269 18.3074 22.8497 18.2895C22.8725 18.2716 22.8872 18.2569 22.8937 18.2455C22.9002 18.2357 22.91 18.2211 22.9231 18.2015C22.9361 18.1836 22.9442 18.1657 22.9491 18.1461C22.9524 18.1266 22.9556 18.107 22.9556 18.0842C22.9556 18.0255 22.9377 17.9783 22.9051 17.9441C22.8725 17.9098 22.8269 17.8919 22.7715 17.8919C22.7389 17.8919 22.7096 17.8984 22.6868 17.9082C22.6623 17.918 22.6428 17.931 22.6297 17.9473C22.6167 17.9636 22.6053 17.9848 22.5972 18.0109C22.5874 18.0369 22.5825 18.0598 22.5792 18.0826C22.576 18.1054 22.5743 18.1331 22.5743 18.1624H22.3935V18.1331C22.3935 18.0109 22.4277 17.9131 22.4961 17.8414C22.5646 17.7697 22.6591 17.7322 22.7764 17.7322C22.8872 17.7322 22.9752 17.7648 23.0436 17.8267C23.1104 17.8887 23.1447 17.9718 23.1447 18.0744C23.1447 18.1168 23.1381 18.1559 23.1251 18.1917C23.1121 18.2292 23.0974 18.2586 23.0827 18.2814C23.0681 18.3042 23.0436 18.3319 23.0078 18.3612C22.9719 18.3922 22.9442 18.4134 22.9279 18.4248C22.91 18.4378 22.8774 18.459 22.8318 18.4899C22.6949 18.5779 22.6135 18.6545 22.5874 18.7197H23.143Z" fill="black"/>
<path d="M34.853 17.7241H35.2946C35.3744 17.7241 35.4445 17.7339 35.5064 17.7502C35.5667 17.7665 35.6221 17.7974 35.6743 17.843C35.7883 17.9457 35.8453 18.0924 35.8453 18.2846C35.8453 18.4899 35.7899 18.648 35.6824 18.7555C35.6335 18.8044 35.5814 18.837 35.526 18.8566C35.4706 18.8761 35.3972 18.8843 35.306 18.8843H34.853V17.7241ZM35.055 17.8968V18.7132H35.2946C35.4217 18.7132 35.5113 18.6773 35.5634 18.6024C35.6156 18.5291 35.6417 18.4264 35.6417 18.2944C35.6417 18.1706 35.6123 18.0728 35.5537 18.0027C35.495 17.9327 35.4038 17.8968 35.2815 17.8968H35.055ZM36.5211 17.7371V18.8843H36.3223V18.0956H36.0387V17.9587C36.2359 17.9587 36.3467 17.8854 36.3711 17.7371H36.5211Z" fill="black"/>
<path d="M9.40574 21.2546H9.95487C10.0689 21.2546 10.1634 21.2807 10.2368 21.3328C10.3085 21.385 10.3459 21.4664 10.3459 21.5772C10.3459 21.6473 10.328 21.7076 10.2954 21.7565C10.2612 21.8054 10.214 21.8412 10.1537 21.8624C10.1814 21.8689 10.2058 21.8787 10.227 21.8917C10.2465 21.9048 10.2628 21.9194 10.2743 21.9341C10.2857 21.9504 10.2954 21.9699 10.3036 21.9928C10.3101 22.0172 10.315 22.0384 10.3182 22.0563C10.3215 22.0742 10.3231 22.097 10.3264 22.1264C10.3264 22.1345 10.328 22.1492 10.3297 22.1704C10.3313 22.1932 10.3329 22.2079 10.3329 22.2144C10.3329 22.2209 10.3345 22.2339 10.3362 22.2502C10.3378 22.2681 10.3394 22.2812 10.3411 22.2877C10.3411 22.2942 10.3427 22.3056 10.3459 22.3187C10.3492 22.3317 10.3508 22.3431 10.3541 22.3496C10.3557 22.3561 10.359 22.3643 10.3622 22.3741C10.3655 22.3838 10.3688 22.3904 10.3736 22.3969C10.3769 22.4034 10.3818 22.4099 10.3883 22.4148H10.17C10.1667 22.4115 10.1634 22.4066 10.1602 22.4001C10.1569 22.3936 10.1553 22.3871 10.1537 22.3806C10.1504 22.3741 10.1488 22.3675 10.1488 22.361C10.1472 22.3545 10.1455 22.3464 10.1439 22.3366C10.1423 22.3268 10.1423 22.317 10.1423 22.3105L10.139 22.2812L10.1357 22.2518C10.1357 22.2453 10.1341 22.2339 10.1341 22.2176C10.1325 22.2013 10.1325 22.1899 10.1325 22.1834C10.126 22.0889 10.1064 22.0253 10.0722 21.9895C10.038 21.9537 9.9728 21.9357 9.87829 21.9357H9.60779V22.4148H9.40574V21.2546ZM9.60779 21.4208V21.7842H9.87666C9.91576 21.7842 9.94835 21.7826 9.97606 21.7777C10.0021 21.7744 10.0298 21.7663 10.0575 21.7549C10.0852 21.7434 10.1064 21.7239 10.1211 21.6978C10.1357 21.6718 10.1439 21.6392 10.1439 21.5984C10.1439 21.5626 10.1374 21.5316 10.1243 21.5072C10.1113 21.4827 10.0917 21.4648 10.0673 21.4518C10.0429 21.4404 10.0184 21.4322 9.99235 21.4273C9.96628 21.4241 9.93695 21.4208 9.90273 21.4208H9.60779Z" fill="#060C12"/>
<path d="M5.75574 21.9579L6.37989 21.5975V22.3182L5.75574 21.9579ZM8.87891 21.8955H8.94132V22.0203H8.87891V21.9579V21.8955ZM6.31748 21.9579V21.8955H8.87891V21.9579V22.0203H6.31748V21.9579Z" fill="black"/>
<path d="M21.0469 35.7223L21.4608 35.121L21.0762 34.5621H21.319L21.583 34.9727L21.8583 34.5621H22.0865L21.7019 35.121L22.1142 35.7223H21.8665L21.5764 35.2791L21.2815 35.7223H21.0469Z" fill="#060C12"/>
<path d="M3.58137 35.2655L4.20552 35.6259V34.9051L3.58137 35.2655ZM20.3711 35.3279H20.4335V35.2031H20.3711V35.2655V35.3279ZM4.14311 35.2655V35.3279H20.3711V35.2655V35.2031H4.14311V35.2655Z" fill="black"/>
<path d="M40.2448 35.2655L39.6206 35.6259V34.9051L40.2448 35.2655ZM23.4551 35.3279H23.3927V35.2031H23.4551V35.2655V35.3279ZM39.6831 35.2655V35.3279H23.4551V35.2655V35.2031H39.6831V35.2655Z" fill="black"/>
<path d="M42.3993 21.6003L41.9626 22.2994V22.7605H41.7622V22.2994L41.3239 21.6003H41.5585L41.8665 22.1136L42.1712 21.6003H42.3993Z" fill="#060C12"/>
<path d="M41.875 10.28L41.5146 10.9041L42.2354 10.9041L41.875 10.28ZM41.8126 20.8716L41.8126 20.934L41.9374 20.934L41.9374 20.8716L41.875 20.8716L41.8126 20.8716ZM41.875 10.8417L41.8126 10.8417L41.8126 20.8716L41.875 20.8716L41.9374 20.8716L41.9374 10.8417L41.875 10.8417Z" fill="black"/>
<path d="M41.875 33.9073L42.2354 33.2832L41.5146 33.2832L41.875 33.9073ZM41.9374 23.8589L41.9374 23.7965L41.8126 23.7965L41.8126 23.8589L41.875 23.8589L41.9374 23.8589ZM41.875 33.3456L41.9374 33.3456L41.9374 23.8589L41.875 23.8589L41.8126 23.8589L41.8126 33.3456L41.875 33.3456Z" fill="black"/>
</svg>
