<svg width="40" height="27" viewBox="0 0 40 27" fill="none" xmlns="http://www.w3.org/2000/svg">
<g clip-path="url(#clip0_9029_73630)">
<path fill-rule="evenodd" clip-rule="evenodd" d="M19.1979 19.1441C17.0886 19.1441 15.378 20.8482 15.378 22.9513C15.378 25.0536 17.0886 26.7578 19.1979 26.7578C21.3073 26.7578 23.0171 25.0536 23.0171 22.9513C23.0171 20.8482 21.3073 19.1441 19.1979 19.1441ZM33.0033 19.0378C30.8649 19.0378 29.1305 20.7657 29.1305 22.8978C29.1305 25.0292 30.8649 26.7578 33.0033 26.7578C35.1426 26.7578 36.8762 25.0292 36.8762 22.8978C36.8762 20.7657 35.1426 19.0378 33.0033 19.0378ZM33.0033 21.4137C32.1814 21.4137 31.5151 22.0778 31.5151 22.8978C31.5151 23.7171 32.1814 24.3819 33.0033 24.3819C33.8253 24.3819 34.4924 23.7171 34.4924 22.8978C34.4924 22.0778 33.8253 21.4137 33.0033 21.4137ZM29.4655 5.36089H34.362L39.2194 10.5705L39.2578 10.6668V18.2385C39.2578 18.9515 38.9679 19.5659 38.5002 20.0068C38.1352 20.35 37.6629 20.5869 37.1361 20.6801L37.1292 20.6686L37.1254 20.661L37.1154 20.6427L37.1047 20.6236L37.1024 20.619L37.094 20.6052L37.084 20.5869L37.074 20.5701L37.0733 20.5678L37.0625 20.5494L37.051 20.5311L37.0457 20.5212L37.0403 20.5127L37.0296 20.4944L37.0188 20.4761L37.0165 20.473L37.0073 20.4577L36.9958 20.4394L36.9866 20.4249L36.9851 20.4218L36.9736 20.4035L36.9621 20.3851L36.9567 20.3775L36.9506 20.3675L36.9383 20.3492L36.9268 20.3316L36.9261 20.3301L36.9153 20.3141L36.903 20.2957L36.8946 20.2827L36.8915 20.2781L36.8793 20.2606L36.867 20.243L36.8624 20.2361L36.8547 20.2262L36.8425 20.2086L36.8302 20.191V20.1903L36.8179 20.1734L36.8057 20.1566L36.7926 20.1391L36.7804 20.1222L36.7673 20.1047L36.7635 20.0993L36.7551 20.0879L36.742 20.071L36.7298 20.055L36.729 20.0542L36.716 20.0374L36.7029 20.0206L36.6953 20.0107L36.6899 20.0038L36.6761 19.987L36.6631 19.9702L36.66 19.9663L36.65 19.9534L36.6362 19.9373L36.624 19.9228L36.6224 19.9205L36.6094 19.9044L36.5956 19.8884L36.5887 19.88L36.5818 19.8716L36.568 19.8555L36.5542 19.8395L36.5519 19.8372L36.5396 19.8234L36.5258 19.8074L36.5143 19.7952L36.5112 19.7921L36.4974 19.7761L36.4829 19.76L36.4767 19.7531L36.4691 19.744L36.4545 19.7287L36.4399 19.7134L36.4392 19.7119L36.4254 19.6973L36.4108 19.6821L36.4001 19.6714L36.3962 19.6668L36.3809 19.6515L36.3663 19.6362L36.361 19.6309L36.3518 19.6209L36.3364 19.6056L36.3218 19.5911C35.4723 18.7444 34.2992 18.2209 33.0033 18.2209C31.9759 18.2209 31.0213 18.551 30.2476 19.1127L30.2415 19.1165L30.2377 19.1196L30.2285 19.1265L30.2193 19.1326L30.2101 19.1395L30.2009 19.1471L30.1824 19.1609L30.1732 19.1677L30.164 19.1746L30.1548 19.1815L30.151 19.1838L30.1456 19.1884L30.1364 19.1953L30.1272 19.2029L30.118 19.2098L30.1088 19.2167L30.1065 19.219L30.0996 19.2243L30.0904 19.2312L30.082 19.2381L30.0728 19.2457L30.0636 19.2526L30.0621 19.2533L30.0544 19.2595L30.046 19.2671L30.0368 19.2747L30.0276 19.2816L30.0191 19.2893L30.0099 19.2961L30.0007 19.3038L29.9923 19.3114L29.9831 19.3183L29.9754 19.3252L29.9747 19.3259L29.9655 19.3336L29.957 19.3412L29.9478 19.3481L29.9394 19.3557L29.9325 19.3619L29.931 19.3634L29.9218 19.371L29.9133 19.3787L29.9049 19.3863L29.8957 19.394L29.8903 19.3985L29.8872 19.4016L29.8788 19.4092L29.8696 19.4169L29.8612 19.4245L29.8527 19.4322L29.8481 19.436L29.8443 19.4398L29.8359 19.4474L29.8274 19.4551L29.819 19.4635L29.8106 19.4711L29.8067 19.4742L29.8021 19.4788L29.7937 19.4864L29.7853 19.4948L29.7768 19.5025L29.7684 19.5101L29.7661 19.5124L29.76 19.5185L29.7515 19.5262L29.7431 19.5346L29.7347 19.5422L29.727 19.5506L29.7255 19.5514L29.7101 19.5667L29.7017 19.5743L29.694 19.5827L29.6856 19.5911L29.6703 19.6064L29.6634 19.6125L29.6542 19.6224L29.6457 19.6309L29.6419 19.6347L29.6388 19.6377L29.6235 19.6538L29.6204 19.6568L29.6082 19.6698L29.6074 19.6714L29.5989 19.6798L29.5928 19.6851L29.5782 19.7012L29.5775 19.7019L29.5683 19.7119L29.5629 19.718L29.556 19.7249L29.5483 19.734L29.5353 19.7478L29.533 19.7501L29.5299 19.7531L29.5146 19.7707L29.5031 19.7829L29.4939 19.7936L29.4924 19.7952L29.4885 19.799L29.474 19.8158L29.4732 19.8173L29.4594 19.8326L29.4556 19.8372L29.4525 19.8402L29.4448 19.8487L29.4326 19.8639L29.431 19.8662L29.4188 19.88L29.4165 19.8823L29.4119 19.8876L29.4019 19.8991L29.3919 19.9113L29.3881 19.9167L29.3827 19.9228L29.3743 19.9335L29.372 19.9358L29.3597 19.9503L29.3528 19.9595L29.3475 19.9663L29.3459 19.9679L29.3329 19.9839L29.3321 19.9847L29.3183 20.0023L29.3137 20.0076L29.3122 20.0107L29.2945 20.0328L29.2915 20.0366L29.2777 20.0542V20.055L29.2754 20.0573L29.2646 20.0718L29.257 20.0817L29.2508 20.0894L29.2432 20.0993L29.2378 20.107L29.2248 20.1245L29.2194 20.1314L29.2117 20.1429L29.2102 20.1452L29.201 20.1566L29.1857 20.178L29.1826 20.1818L29.1772 20.1903L29.1726 20.1964L29.165 20.2071L29.1481 20.2308L29.1473 20.2323V20.233L29.1443 20.2361L29.1351 20.2506L29.1297 20.2583L29.122 20.269L29.1128 20.2827L29.1121 20.2843L29.1098 20.2873L29.0975 20.3056L29.0944 20.3102L29.0852 20.324L29.0814 20.3293L29.0768 20.3362L29.073 20.3423L29.0607 20.3614L29.0599 20.3622L29.0507 20.3767L29.0484 20.3798L29.0431 20.3882L29.0262 20.4149L29.0247 20.4172L29.0201 20.4249L29.0101 20.4409L29.0016 20.4547L28.9932 20.4677L28.9909 20.4722L28.9901 20.4738L28.9786 20.4929L28.9771 20.4944L28.9671 20.5112L28.9618 20.5212L28.9556 20.5303L28.9457 20.5479L28.9449 20.5494L28.9334 20.5693L28.9326 20.5701L28.9296 20.5746L28.9227 20.5884L28.9142 20.6022L28.9112 20.6075L28.905 20.619L28.9004 20.6266L28.8989 20.6297L28.8897 20.6465L28.8843 20.6572L28.879 20.6656L28.8774 20.6686L28.869 20.6839L28.8682 20.6855L28.8583 20.7046L28.8544 20.7114L28.8506 20.7183L28.8475 20.7244C28.757 20.8967 28.6771 21.0743 28.6083 21.2563H23.514C23.279 20.667 22.926 20.1316 22.4766 19.6828L22.4781 19.6813C21.6385 18.8453 20.4784 18.3271 19.1979 18.3271C17.9167 18.3271 16.7566 18.8453 15.9178 19.6813L15.871 19.7317C15.4441 20.1703 15.108 20.6883 14.8819 21.2563H13.5347C13.2997 20.667 12.9467 20.1316 12.4973 19.6828L12.4988 19.6813C11.6592 18.8453 10.4999 18.3271 9.21863 18.3271C7.93738 18.3271 6.77728 18.8453 5.93845 19.6813L5.89168 19.7317C5.46477 20.1703 5.12867 20.6883 4.90257 21.2563H4.37351C3.83141 21.2563 3.38746 20.8322 3.38746 20.3202V17.9038C3.38746 17.3917 3.83448 16.9676 4.37351 16.9676H27.5578L28.7916 6.04332C28.8115 5.86221 28.8905 5.6872 29.0116 5.56111C29.1282 5.43884 29.2838 5.36089 29.4655 5.36089ZM19.7331 16.5962H5.85871V13.7488C6.43991 13.9108 6.9797 14.0659 7.48883 14.2134C7.46736 14.1255 7.47273 14.0392 7.4965 13.9612L11.5986 0.497498C11.7343 0.0534964 12.0104 -0.0947591 12.4965 0.0588458L16.6577 1.39849C17.5456 1.74391 17.6123 1.97929 17.2412 3.02701L13.2387 15.6593C14.9562 15.9398 16.9222 16.0827 19.7331 16.0567V16.5962ZM27.1584 15.5982H24.2025C24.1473 15.5982 24.1021 15.644 24.1021 15.699V16.4961C24.1021 16.5511 24.1473 16.5962 24.2025 16.5962H27.1584C27.2136 16.5962 27.2588 16.5511 27.2588 16.4961V15.699C27.2588 15.6432 27.2136 15.5982 27.1584 15.5982ZM27.4137 10.3504H26.6776C26.6186 10.3504 26.568 10.4 26.568 10.4597V10.8074L24.4211 10.4023L24.8566 8.92819C25.2239 7.97064 24.9394 7.66267 23.9756 6.83427C21.8018 4.9658 19.9578 3.57418 18.2272 2.56314C18.1858 2.7733 18.1153 3.00561 18.0217 3.27232L14.0745 15.7319C16.6262 16.0039 19.2853 15.8557 22.0748 15.388C23.1252 15.2115 23.0501 15.0395 23.2403 14.3961L23.2778 14.2715L26.0558 14.7262V15.2107C26.0558 15.2695 26.1049 15.32 26.1654 15.32H26.9015C26.9621 15.32 27.0043 15.2703 27.0112 15.2107L27.5233 10.4597C27.5295 10.3993 27.472 10.3504 27.4137 10.3504ZM10.8119 0.280465C8.66119 0.152079 6.24362 0.353064 3.22108 0.735166C2.46046 0.831455 2.21893 0.935387 1.98507 1.67437L0.232268 7.21408C-0.102804 8.27327 -0.157243 8.24117 0.627913 9.02295C2.61534 11.0038 4.65414 12.497 6.75965 13.5745L10.8119 0.280465ZM34.6519 7.73145L37.3884 10.6668V11.7366H31.3326V7.73145H34.6519ZM9.21863 19.1441C7.10929 19.1441 5.39866 20.8482 5.39866 22.9513C5.39866 25.0536 7.10929 26.7578 9.21863 26.7578C11.328 26.7578 13.0378 25.0536 13.0378 22.9513C13.0378 20.8482 11.328 19.1441 9.21863 19.1441ZM9.21863 21.4863C8.40663 21.4863 7.74876 22.142 7.74876 22.9513C7.74876 23.7598 8.40663 24.4155 9.21863 24.4155C10.0299 24.4155 10.6877 23.7598 10.6877 22.9513C10.6877 22.142 10.0299 21.4863 9.21863 21.4863ZM19.1979 21.4863C18.3859 21.4863 17.7281 22.142 17.7281 22.9513C17.7281 23.7598 18.3859 24.4155 19.1979 24.4155C20.0092 24.4155 20.667 23.7598 20.667 22.9513C20.667 22.142 20.0092 21.4863 19.1979 21.4863Z" fill="#B02E0C"/>
</g>
<defs>
<clipPath id="clip0_9029_73630">
<rect width="39.2578" height="26.7578" fill="white"/>
</clipPath>
</defs>
</svg>
