<svg width="54" height="138" viewBox="0 0 54 138" fill="none" xmlns="http://www.w3.org/2000/svg">
<g clip-path="url(#clip0_7523_76968)">
<path fill-rule="evenodd" clip-rule="evenodd" d="M312.417 0C323.785 0 333 7.22628 333 16.1404V121.86C333 130.774 323.785 138 312.417 138H54.0991V133.688H49.9825V138H0.583091C-10.7846 138 -20 130.774 -20 121.86V16.1404C-20 7.22628 -10.7846 0 0.583091 0H49.9825V4.3125H54.0991V0H312.417ZM49.9825 116.438V125.063H54.0991V116.438H49.9825ZM49.9825 99.1875V107.813H54.0991V99.1875H49.9825ZM49.9825 81.9375V90.5625H54.0991V81.9375H49.9825ZM49.9825 64.6875V73.3125H54.0991V64.6875H49.9825ZM49.9825 47.4375V56.0625H54.0991V47.4375H49.9825ZM49.9825 30.1875V38.8125H54.0991V30.1875H49.9825ZM49.9825 12.9375V21.5625H54.0991V12.9375H49.9825Z" fill="#B02E0C"/>
</g>
<defs>
<clipPath id="clip0_7523_76968">
<rect width="54" height="138" fill="white"/>
</clipPath>
</defs>
</svg>
