<svg width="47" height="47" viewBox="0 0 47 47" fill="none" xmlns="http://www.w3.org/2000/svg">
<rect width="47" height="47" rx="11.3448" fill="#F3F3F3"/>
<rect x="0.405172" y="0.405172" width="46.1897" height="46.1897" rx="10.9397" stroke="#B02E0C" stroke-opacity="0.04" stroke-width="0.810345"/>
<g clip-path="url(#clip0_2414_89454)">
<path d="M34.0331 11.1236V37.4975C34.0331 37.5354 34.0193 37.5719 33.9942 37.6002L30.0512 42.0647C30.0367 42.0815 30.0188 42.0949 29.9987 42.1041C29.9786 42.1133 29.9567 42.118 29.9346 42.118C29.9204 42.1179 29.9063 42.1157 29.8929 42.1113L29.9924 41.8459L29.7781 41.766L29.707 16.0218C29.707 15.9898 29.717 15.9585 29.7355 15.9324L29.8862 15.9866C29.9251 16.0003 29.9677 15.998 30.0049 15.9802C30.042 15.9624 30.0706 15.9305 30.0844 15.8915C30.0905 15.8748 30.0934 15.857 30.0929 15.8392C30.0931 15.807 30.0832 15.7756 30.0647 15.7493C30.0461 15.723 30.0199 15.7032 29.9896 15.6927L29.944 15.6775L33.6197 11.194L33.8245 11.2691L33.9316 10.978C33.9614 10.9889 33.987 11.0088 34.0052 11.0348C34.0233 11.0608 34.0331 11.0918 34.0331 11.1236ZM33.7231 37.4376V11.5621L30.018 16.0808L30.0891 41.5481L33.7231 37.4376Z" fill="#FF9411"/>
<path d="M33.9215 10.9742H33.9291L33.822 11.2653L33.6172 11.1901L33.7556 11.0208C33.7756 10.9975 33.802 10.9806 33.8315 10.9723C33.8611 10.964 33.8924 10.9647 33.9215 10.9742Z" fill="#FF9411"/>
<path d="M17.3221 4.87154L33.9228 10.9742C33.8933 10.9651 33.8617 10.965 33.8322 10.974C33.8026 10.983 33.7764 11.0006 33.7569 11.0246L33.6184 11.1939L17.3164 5.20069L13.3838 9.78217L29.9428 15.6803L29.7418 15.9257L29.7342 15.9352L13.2795 10.0771L13.8796 35.8346L29.7769 41.7659V41.9619C29.7772 41.9935 29.787 42.0242 29.8049 42.0501C29.8228 42.0761 29.848 42.096 29.8774 42.1075H29.8906L29.8821 42.1341L13.6701 36.0867C13.6407 36.076 13.6153 36.0567 13.5972 36.0312C13.5791 36.0057 13.5691 35.9753 13.5687 35.944L12.9609 9.85447V9.84305C12.9615 9.82607 12.965 9.80933 12.9714 9.79359C12.9756 9.78257 12.981 9.77204 12.9875 9.76219L12.9951 9.75173L17.1448 4.91625C17.1659 4.89109 17.1944 4.87323 17.2262 4.86521C17.258 4.85719 17.2916 4.8594 17.3221 4.87154Z" fill="#FF9411"/>
<path d="M33.7236 11.5582V37.4384L30.0897 41.5519L30.0195 16.0769L33.7236 11.5582Z" fill="#E47C00"/>
<path d="M33.6175 11.1939L29.9418 15.6774L13.3828 9.78314L17.3154 5.20166L33.6175 11.1939Z" fill="#E47C00"/>
<path d="M30.0918 15.8391C30.0923 15.8569 30.0894 15.8747 30.0833 15.8914C30.0695 15.9304 30.0409 15.9623 30.0038 15.9801C29.9666 15.9979 29.924 16.0002 29.8851 15.9865L29.7344 15.9323L29.742 15.9228L29.9429 15.6774L29.9885 15.6926C30.0188 15.7031 30.045 15.7229 30.0636 15.7492C30.0821 15.7755 30.092 15.8069 30.0918 15.8391Z" fill="#FF9411"/>
<path d="M29.9916 41.8459L29.8911 42.1113H29.8778C29.8485 42.0999 29.8233 42.0799 29.8054 42.054C29.7874 42.028 29.7777 41.9973 29.7773 41.9657V41.7698L29.9916 41.8459Z" fill="#FF9411"/>
<path d="M29.7075 16.0218L29.7786 41.766L13.8814 35.8346L13.2812 10.0771L29.736 15.9324C29.7174 15.9585 29.7075 15.9898 29.7075 16.0218Z" fill="#FF9411"/>
<path d="M13.3711 14.9913L29.9832 21.0689L34.0349 16.2069" stroke="#FFAE4D" stroke-width="0.324138"/>
<path d="M13.3711 20.2585L29.9832 26.3361L34.0349 21.4741" stroke="#FFAE4D" stroke-width="0.324138"/>
<path d="M13.3711 25.5259L29.9832 31.6035L34.0349 26.7414" stroke="#FFAE4D" stroke-width="0.324138"/>
<path d="M13.8303 30.6413C13.7465 30.6099 13.6531 30.6524 13.6217 30.7362C13.5903 30.82 13.6327 30.9134 13.7165 30.9448L13.8303 30.6413ZM29.9803 36.8707L29.9234 37.0224L30.0312 37.0628L30.1048 36.9744L29.9803 36.8707ZM13.7734 30.7931L13.7165 30.9448L29.9234 37.0224L29.9803 36.8707L30.0372 36.7189L13.8303 30.6413L13.7734 30.7931ZM29.9803 36.8707L30.1048 36.9744L34.1566 32.1124L34.0321 32.0086L33.9076 31.9049L29.8558 36.7669L29.9803 36.8707Z" fill="#FFAE4D"/>
</g>
<defs>
<clipPath id="clip0_2414_89454">
<rect width="21.069" height="37.2759" fill="white" transform="translate(12.9648 4.86206)"/>
</clipPath>
</defs>
</svg>
