<svg width="47" height="47" viewBox="0 0 47 47" fill="none" xmlns="http://www.w3.org/2000/svg">
<rect width="47" height="47" rx="11.3448" fill="#F3F3F3"/>
<rect x="0.405172" y="0.405172" width="46.1897" height="46.1897" rx="10.9397" stroke="#B02E0C" stroke-opacity="0.04" stroke-width="0.810345"/>
<path d="M31.087 10.0674C31.0614 19.0372 31.036 28.0059 31.0106 36.9757C31.0074 38.0876 30.2766 39.198 28.8164 40.0465C25.8778 41.7545 21.0966 41.7545 18.1385 40.0468C16.6502 39.1874 15.9068 38.059 15.9102 36.9326C15.9353 27.9626 15.961 18.9943 15.9862 10.0245C15.983 11.151 16.7266 12.2792 18.215 13.1385C21.173 14.8462 25.9541 14.8462 28.8928 13.1385C30.353 12.2899 31.0838 11.1794 31.087 10.0674Z" fill="#FF9411"/>
<path d="M28.8561 6.95326C31.8141 8.66125 31.8304 11.43 28.8909 13.1383C25.9523 14.8461 21.171 14.8461 18.213 13.1383C15.2551 11.4306 15.2396 8.66112 18.1783 6.95326C21.1178 5.24514 25.8981 5.24565 28.8561 6.95326Z" fill="#E47C00"/>
</svg>
