<svg width="46" height="46" viewBox="0 0 46 46" fill="none" xmlns="http://www.w3.org/2000/svg">
<rect width="46" height="46" rx="11.1034" fill="#F3F3F3"/>
<rect x="0.396552" y="0.396552" width="45.2069" height="45.2069" rx="10.7069" stroke="#B02E0C" stroke-opacity="0.04" stroke-width="0.793103"/>
<path d="M21.543 36.2245L23.3235 38.016L25.0273 39.7294L25.5872 40.2449L28.4768 38.016V29.9513L25.5872 32.1802L21.543 36.2245Z" fill="#F7941D"/>
<path d="M25.5877 40.3191C25.5696 40.3191 25.5516 40.3126 25.5374 40.2991L24.9774 39.7843L21.4905 36.2767C21.4615 36.2477 21.4615 36.2006 21.4905 36.1716L25.5348 32.1273L28.432 29.892C28.4546 29.8745 28.485 29.8713 28.5101 29.8842C28.5353 29.8965 28.5514 29.9223 28.5514 29.9507V38.0153C28.5514 38.0386 28.5404 38.0599 28.5224 38.0741L25.6322 40.303C25.6193 40.3139 25.6032 40.3191 25.5877 40.3191ZM21.6479 36.2251L25.08 39.6778L25.5916 40.1481L28.403 37.9799V30.1029L25.6329 32.2396L21.6479 36.2251Z" fill="#F7941D"/>
<path d="M17.5234 32.1802L20.4129 35.0871L21.5439 36.2245L25.5881 32.1802L28.4776 29.9513H20.4129L17.5234 32.1802Z" fill="#F7941D"/>
<path d="M21.544 36.2987C21.524 36.2987 21.5052 36.2909 21.4911 36.2767L17.4706 32.2325C17.4558 32.217 17.4481 32.1963 17.4494 32.175C17.4506 32.1537 17.4616 32.1338 17.4784 32.1209L20.3679 29.892C20.3808 29.8816 20.3969 29.8765 20.4131 29.8765H28.4777C28.5094 29.8765 28.5377 29.8965 28.5481 29.9268C28.5584 29.9571 28.5481 29.99 28.5229 30.0094L25.6327 32.2383L21.5956 36.2767C21.5827 36.2909 21.5633 36.2987 21.544 36.2987ZM17.6358 32.1873L21.544 36.1187L25.5353 32.1273L28.2597 30.0249H20.4389L17.6358 32.1873Z" fill="#F7941D"/>
<path d="M25.5881 32.1802H17.5234V40.2448H25.5881V32.1802Z" fill="#F7941D"/>
<path d="M25.5881 40.319H17.5234C17.4828 40.319 17.4492 40.2855 17.4492 40.2448V32.1802C17.4492 32.1389 17.4828 32.106 17.5234 32.106H25.5881C25.6294 32.106 25.6623 32.1389 25.6623 32.1802V40.2448C25.6623 40.2861 25.6294 40.319 25.5881 40.319ZM17.5976 40.1707H25.5139V32.2543H17.5976V40.1707Z" fill="#F7941D"/>
<path d="M25.5872 40.2449L28.4768 38.016V29.9513L25.5872 32.1802L21.543 36.2245L23.3235 38.016L25.0273 39.7294L25.5872 40.2449Z" fill="#F7941D"/>
<path opacity="0.5" d="M25.5872 40.2449L28.4768 38.016V29.9513L25.5872 32.1802L21.543 36.2245L23.3235 38.016L25.0273 39.7294L25.5872 40.2449Z" fill="#A85C00"/>
<path d="M25.5877 40.3191C25.5696 40.3191 25.5516 40.3126 25.5374 40.2991L24.9774 39.7843L21.4905 36.2767C21.4615 36.2477 21.4615 36.2006 21.4905 36.1716L25.5348 32.1273L28.432 29.892C28.4546 29.8745 28.485 29.8713 28.5101 29.8842C28.5353 29.8965 28.5514 29.9223 28.5514 29.9507V38.0153C28.5514 38.0386 28.5404 38.0599 28.5224 38.0741L25.6322 40.303C25.6193 40.3139 25.6032 40.3191 25.5877 40.3191ZM21.6479 36.2251L25.08 39.6778L25.5916 40.1481L28.403 37.9799V30.1029L25.6329 32.2396L21.6479 36.2251Z" fill="#F7941D"/>
<path d="M17.5234 32.1802L20.4129 35.0871L21.5439 36.2245L25.5881 32.1802L28.4776 29.9513H20.4129L17.5234 32.1802Z" fill="#F7941D"/>
<path d="M17.5234 32.1802L20.4129 35.0871L21.5439 36.2245L25.5881 32.1802L28.4776 29.9513H20.4129L17.5234 32.1802Z" fill="#F7941D"/>
<path d="M21.544 36.2987C21.524 36.2987 21.5052 36.2909 21.4911 36.2767L17.4706 32.2325C17.4558 32.217 17.4481 32.1963 17.4494 32.175C17.4506 32.1537 17.4616 32.1338 17.4784 32.1209L20.3679 29.892C20.3808 29.8816 20.3969 29.8765 20.4131 29.8765H28.4777C28.5094 29.8765 28.5377 29.8965 28.5481 29.9268C28.5584 29.9571 28.5481 29.99 28.5229 30.0094L25.6327 32.2383L21.5956 36.2767C21.5827 36.2909 21.5633 36.2987 21.544 36.2987ZM17.6358 32.1873L21.544 36.1187L25.5353 32.1273L28.2597 30.0249H20.4389L17.6358 32.1873Z" fill="#F7941D"/>
<path d="M25.5881 40.319H17.5234C17.4828 40.319 17.4492 40.2855 17.4492 40.2448V32.1802C17.4492 32.1389 17.4828 32.106 17.5234 32.106H25.5881C25.6294 32.106 25.6623 32.1389 25.6623 32.1802V40.2448C25.6623 40.2861 25.6294 40.319 25.5881 40.319ZM17.5976 40.1707H25.5139V32.2543H17.5976V40.1707Z" fill="#F7941D"/>
<path d="M25.5877 40.3191C25.5696 40.3191 25.5516 40.3126 25.5374 40.2991L24.9774 39.7843L21.4905 36.2767C21.4615 36.2477 21.4615 36.2006 21.4905 36.1716L25.5348 32.1273L28.432 29.892C28.4546 29.8745 28.485 29.8713 28.5101 29.8842C28.5353 29.8965 28.5514 29.9223 28.5514 29.9507V38.0153C28.5514 38.0386 28.5404 38.0599 28.5224 38.0741L25.6322 40.303C25.6193 40.3139 25.6032 40.3191 25.5877 40.3191ZM21.6479 36.2251L25.08 39.6778L25.5916 40.1481L28.403 37.9799V30.1029L25.6329 32.2396L21.6479 36.2251Z" fill="#F7941D"/>
<path d="M21.544 36.2987C21.524 36.2987 21.5052 36.2909 21.4911 36.2767L17.4706 32.2325C17.4558 32.217 17.4481 32.1963 17.4494 32.175C17.4506 32.1537 17.4616 32.1338 17.4784 32.1209L20.3679 29.892C20.3808 29.8816 20.3969 29.8765 20.4131 29.8765H28.4777C28.5094 29.8765 28.5377 29.8965 28.5481 29.9268C28.5584 29.9571 28.5481 29.99 28.5229 30.0094L25.6327 32.2383L21.5956 36.2767C21.5827 36.2909 21.5633 36.2987 21.544 36.2987ZM17.6358 32.1873L21.544 36.1187L25.5353 32.1273L28.2597 30.0249H20.4389L17.6358 32.1873Z" fill="#F7941D"/>
<path d="M25.5881 40.319H17.5234C17.4828 40.319 17.4492 40.2855 17.4492 40.2448V32.1802C17.4492 32.1389 17.4828 32.106 17.5234 32.106H25.5881C25.6294 32.106 25.6623 32.1389 25.6623 32.1802V40.2448C25.6623 40.2861 25.6294 40.319 25.5881 40.319ZM17.5976 40.1707H25.5139V32.2543H17.5976V40.1707Z" fill="#F7941D"/>
<path d="M25.5877 40.3191C25.5696 40.3191 25.5516 40.3126 25.5374 40.2991L24.9774 39.7843L21.4905 36.2767C21.4615 36.2477 21.4615 36.2006 21.4905 36.1716L25.5348 32.1273L28.432 29.892C28.4546 29.8745 28.485 29.8713 28.5101 29.8842C28.5353 29.8965 28.5514 29.9223 28.5514 29.9507V38.0153C28.5514 38.0386 28.5404 38.0599 28.5224 38.0741L25.6322 40.303C25.6193 40.3139 25.6032 40.3191 25.5877 40.3191ZM21.6479 36.2251L25.08 39.6778L25.5916 40.1481L28.403 37.9799V30.1029L25.6329 32.2396L21.6479 36.2251Z" fill="#F7941D"/>
<path d="M25.5877 40.3191C25.5696 40.3191 25.5516 40.3126 25.5374 40.2991L24.9774 39.7843L21.4905 36.2767C21.4615 36.2477 21.4615 36.2006 21.4905 36.1716L25.5348 32.1273L28.432 29.892C28.4546 29.8745 28.485 29.8713 28.5101 29.8842C28.5353 29.8965 28.5514 29.9223 28.5514 29.9507V38.0153C28.5514 38.0386 28.5404 38.0599 28.5224 38.0741L25.6322 40.303C25.6193 40.3139 25.6032 40.3191 25.5877 40.3191ZM21.6479 36.2251L25.08 39.6778L25.5916 40.1481L28.403 37.9799V30.1029L25.6329 32.2396L21.6479 36.2251Z" fill="#F7941D"/>
<path d="M25.5877 40.3191C25.5696 40.3191 25.5516 40.3126 25.5374 40.2991L24.9774 39.7843L21.4905 36.2767C21.4615 36.2477 21.4615 36.2006 21.4905 36.1716L25.5348 32.1273L28.432 29.892C28.4546 29.8745 28.485 29.8713 28.5101 29.8842C28.5353 29.8965 28.5514 29.9223 28.5514 29.9507V38.0153C28.5514 38.0386 28.5404 38.0599 28.5224 38.0741L25.6322 40.303C25.6193 40.3139 25.6032 40.3191 25.5877 40.3191ZM21.6479 36.2251L25.08 39.6778L25.5916 40.1481L28.403 37.9799V30.1029L25.6329 32.2396L21.6479 36.2251Z" fill="#FFAE4D"/>
<path d="M21.544 36.2987C21.524 36.2987 21.5052 36.2909 21.4911 36.2767L17.4706 32.2325C17.4558 32.217 17.4481 32.1963 17.4494 32.175C17.4506 32.1537 17.4616 32.1338 17.4784 32.1209L20.3679 29.892C20.3808 29.8816 20.3969 29.8765 20.4131 29.8765H28.4777C28.5094 29.8765 28.5377 29.8965 28.5481 29.9268C28.5584 29.9571 28.5481 29.99 28.5229 30.0094L25.6327 32.2383L21.5956 36.2767C21.5827 36.2909 21.5633 36.2987 21.544 36.2987ZM17.6358 32.1873L21.544 36.1187L25.5353 32.1273L28.2597 30.0249H20.4389L17.6358 32.1873Z" fill="#F7941D"/>
<path d="M21.544 36.2987C21.524 36.2987 21.5052 36.2909 21.4911 36.2767L17.4706 32.2325C17.4558 32.217 17.4481 32.1963 17.4494 32.175C17.4506 32.1537 17.4616 32.1338 17.4784 32.1209L20.3679 29.892C20.3808 29.8816 20.3969 29.8765 20.4131 29.8765H28.4777C28.5094 29.8765 28.5377 29.8965 28.5481 29.9268C28.5584 29.9571 28.5481 29.99 28.5229 30.0094L25.6327 32.2383L21.5956 36.2767C21.5827 36.2909 21.5633 36.2987 21.544 36.2987ZM17.6358 32.1873L21.544 36.1187L25.5353 32.1273L28.2597 30.0249H20.4389L17.6358 32.1873Z" fill="#F7941D"/>
<path d="M21.544 36.2987C21.524 36.2987 21.5052 36.2909 21.4911 36.2767L17.4706 32.2325C17.4558 32.217 17.4481 32.1963 17.4494 32.175C17.4506 32.1537 17.4616 32.1338 17.4784 32.1209L20.3679 29.892C20.3808 29.8816 20.3969 29.8765 20.4131 29.8765H28.4777C28.5094 29.8765 28.5377 29.8965 28.5481 29.9268C28.5584 29.9571 28.5481 29.99 28.5229 30.0094L25.6327 32.2383L21.5956 36.2767C21.5827 36.2909 21.5633 36.2987 21.544 36.2987ZM17.6358 32.1873L21.544 36.1187L25.5353 32.1273L28.2597 30.0249H20.4389L17.6358 32.1873Z" fill="#F7941D"/>
<path d="M21.544 36.2987C21.524 36.2987 21.5052 36.2909 21.4911 36.2767L17.4706 32.2325C17.4558 32.217 17.4481 32.1963 17.4494 32.175C17.4506 32.1537 17.4616 32.1338 17.4784 32.1209L20.3679 29.892C20.3808 29.8816 20.3969 29.8765 20.4131 29.8765H28.4777C28.5094 29.8765 28.5377 29.8965 28.5481 29.9268C28.5584 29.9571 28.5481 29.99 28.5229 30.0094L25.6327 32.2383L21.5956 36.2767C21.5827 36.2909 21.5633 36.2987 21.544 36.2987ZM17.6358 32.1873L21.544 36.1187L25.5353 32.1273L28.2597 30.0249H20.4389L17.6358 32.1873Z" fill="#F7941D"/>
<path d="M25.5881 40.319H17.5234C17.4828 40.319 17.4492 40.2855 17.4492 40.2448V32.1802C17.4492 32.1389 17.4828 32.106 17.5234 32.106H25.5881C25.6294 32.106 25.6623 32.1389 25.6623 32.1802V40.2448C25.6623 40.2861 25.6294 40.319 25.5881 40.319ZM17.5976 40.1707H25.5139V32.2543H17.5976V40.1707Z" fill="#F7941D"/>
<path d="M25.5881 32.1802H17.5234V40.2448H25.5881V32.1802Z" fill="#FF9411"/>
<path d="M25.5881 40.319H17.5234C17.4828 40.319 17.4492 40.2855 17.4492 40.2448V32.1802C17.4492 32.1389 17.4828 32.106 17.5234 32.106H25.5881C25.6294 32.106 25.6623 32.1389 25.6623 32.1802V40.2448C25.6623 40.2861 25.6294 40.319 25.5881 40.319ZM17.5976 40.1707H25.5139V32.2543H17.5976V40.1707Z" fill="#F7941D"/>
<path d="M25.5881 40.319H17.5234C17.4828 40.319 17.4492 40.2855 17.4492 40.2448V32.1802C17.4492 32.1389 17.4828 32.106 17.5234 32.106H25.5881C25.6294 32.106 25.6623 32.1389 25.6623 32.1802V40.2448C25.6623 40.2861 25.6294 40.319 25.5881 40.319ZM17.5976 40.1707H25.5139V32.2543H17.5976V40.1707Z" fill="#FFAE4D"/>
<path d="M21.543 28.1598L23.3235 29.9513L25.0273 31.6647L25.5872 32.1802L28.4768 29.9513V21.8866L25.5872 24.1155L21.543 28.1598Z" fill="#F7941D"/>
<path d="M25.5877 32.2544C25.5696 32.2544 25.5516 32.2479 25.5374 32.2344L24.9774 31.7196L21.4905 28.212C21.4615 28.183 21.4615 28.1359 21.4905 28.1069L25.5348 24.0626L28.432 21.8273C28.4546 21.8098 28.485 21.8066 28.5101 21.8195C28.5353 21.8318 28.5514 21.8576 28.5514 21.886V29.9506C28.5514 29.9739 28.5404 29.9952 28.5224 30.0093L25.6322 32.2383C25.6193 32.2492 25.6032 32.2544 25.5877 32.2544ZM21.6479 28.1598L25.08 31.6125L25.5916 32.0828L28.403 29.9145V22.0376L25.6329 24.1742L21.6479 28.1598Z" fill="#F7941D"/>
<path d="M17.5234 24.1155L20.4129 27.0224L21.5439 28.1598L25.5881 24.1155L28.4776 21.8866H20.4129L17.5234 24.1155Z" fill="#F7941D"/>
<path d="M21.544 28.234C21.524 28.234 21.5052 28.2262 21.4911 28.2121L17.4706 24.1678C17.4558 24.1523 17.4481 24.1316 17.4494 24.1104C17.4506 24.0891 17.4616 24.0691 17.4784 24.0562L20.3679 21.8273C20.3808 21.8169 20.3969 21.8118 20.4137 21.8118H28.4784C28.51 21.8118 28.5384 21.8318 28.5487 21.8621C28.559 21.8924 28.5487 21.926 28.5235 21.9447L25.6334 24.1736L21.5962 28.2121C21.5827 28.2262 21.5633 28.234 21.544 28.234ZM17.6358 24.1226L21.544 28.054L25.5353 24.062L28.2597 21.9602H20.4389L17.6358 24.1226Z" fill="#F7941D"/>
<path d="M25.5881 24.1156H17.5234V32.1803H25.5881V24.1156Z" fill="#F7941D"/>
<path d="M25.5881 32.2544H17.5234C17.4828 32.2544 17.4492 32.2209 17.4492 32.1803V24.1156C17.4492 24.0743 17.4828 24.0414 17.5234 24.0414H25.5881C25.6294 24.0414 25.6623 24.0749 25.6623 24.1156V32.1803C25.6623 32.2209 25.6294 32.2544 25.5881 32.2544ZM17.5976 32.1061H25.5139V24.1897H17.5976V32.1061Z" fill="#F7941D"/>
<path d="M25.5872 32.1802L28.4768 29.9513V21.8866L25.5872 24.1155L21.543 28.1598L23.3235 29.9513L25.0273 31.6647L25.5872 32.1802Z" fill="#F7941D"/>
<path opacity="0.5" d="M25.5872 32.1802L28.4768 29.9513V21.8866L25.5872 24.1155L21.543 28.1598L23.3235 29.9513L25.0273 31.6647L25.5872 32.1802Z" fill="#A85C00"/>
<path d="M25.5877 32.2544C25.5696 32.2544 25.5516 32.2479 25.5374 32.2344L24.9774 31.7196L21.4905 28.212C21.4615 28.183 21.4615 28.1359 21.4905 28.1069L25.5348 24.0626L28.432 21.8273C28.4546 21.8098 28.485 21.8066 28.5101 21.8195C28.5353 21.8318 28.5514 21.8576 28.5514 21.886V29.9506C28.5514 29.9739 28.5404 29.9952 28.5224 30.0093L25.6322 32.2383C25.6193 32.2492 25.6032 32.2544 25.5877 32.2544ZM21.6479 28.1598L25.08 31.6125L25.5916 32.0828L28.403 29.9145V22.0376L25.6329 24.1742L21.6479 28.1598Z" fill="#F7941D"/>
<path d="M17.5234 24.1155L20.4129 27.0224L21.5439 28.1598L25.5881 24.1155L28.4776 21.8866H20.4129L17.5234 24.1155Z" fill="#F7941D"/>
<path d="M17.5234 24.1155L20.4129 27.0224L21.5439 28.1598L25.5881 24.1155L28.4776 21.8866H20.4129L17.5234 24.1155Z" fill="#F7941D"/>
<path d="M21.544 28.234C21.524 28.234 21.5052 28.2262 21.4911 28.2121L17.4706 24.1678C17.4558 24.1523 17.4481 24.1316 17.4494 24.1104C17.4506 24.0891 17.4616 24.0691 17.4784 24.0562L20.3679 21.8273C20.3808 21.8169 20.3969 21.8118 20.4137 21.8118H28.4784C28.51 21.8118 28.5384 21.8318 28.5487 21.8621C28.559 21.8924 28.5487 21.926 28.5235 21.9447L25.6334 24.1736L21.5962 28.2121C21.5827 28.2262 21.5633 28.234 21.544 28.234ZM17.6358 24.1226L21.544 28.054L25.5353 24.062L28.2597 21.9602H20.4389L17.6358 24.1226Z" fill="#F7941D"/>
<path d="M25.5881 32.2544H17.5234C17.4828 32.2544 17.4492 32.2209 17.4492 32.1803V24.1156C17.4492 24.0743 17.4828 24.0414 17.5234 24.0414H25.5881C25.6294 24.0414 25.6623 24.0749 25.6623 24.1156V32.1803C25.6623 32.2209 25.6294 32.2544 25.5881 32.2544ZM17.5976 32.1061H25.5139V24.1897H17.5976V32.1061Z" fill="#F7941D"/>
<path d="M25.5877 32.2544C25.5696 32.2544 25.5516 32.2479 25.5374 32.2344L24.9774 31.7196L21.4905 28.212C21.4615 28.183 21.4615 28.1359 21.4905 28.1069L25.5348 24.0626L28.432 21.8273C28.4546 21.8098 28.485 21.8066 28.5101 21.8195C28.5353 21.8318 28.5514 21.8576 28.5514 21.886V29.9506C28.5514 29.9739 28.5404 29.9952 28.5224 30.0093L25.6322 32.2383C25.6193 32.2492 25.6032 32.2544 25.5877 32.2544ZM21.6479 28.1598L25.08 31.6125L25.5916 32.0828L28.403 29.9145V22.0376L25.6329 24.1742L21.6479 28.1598Z" fill="#F7941D"/>
<path d="M21.544 28.234C21.524 28.234 21.5052 28.2262 21.4911 28.2121L17.4706 24.1678C17.4558 24.1523 17.4481 24.1316 17.4494 24.1104C17.4506 24.0891 17.4616 24.0691 17.4784 24.0562L20.3679 21.8273C20.3808 21.8169 20.3969 21.8118 20.4137 21.8118H28.4784C28.51 21.8118 28.5384 21.8318 28.5487 21.8621C28.559 21.8924 28.5487 21.926 28.5235 21.9447L25.6334 24.1736L21.5962 28.2121C21.5827 28.2262 21.5633 28.234 21.544 28.234ZM17.6358 24.1226L21.544 28.054L25.5353 24.062L28.2597 21.9602H20.4389L17.6358 24.1226Z" fill="#F7941D"/>
<path d="M25.5881 32.2544H17.5234C17.4828 32.2544 17.4492 32.2209 17.4492 32.1803V24.1156C17.4492 24.0743 17.4828 24.0414 17.5234 24.0414H25.5881C25.6294 24.0414 25.6623 24.0749 25.6623 24.1156V32.1803C25.6623 32.2209 25.6294 32.2544 25.5881 32.2544ZM17.5976 32.1061H25.5139V24.1897H17.5976V32.1061Z" fill="#F7941D"/>
<path d="M25.5877 32.2544C25.5696 32.2544 25.5516 32.2479 25.5374 32.2344L24.9774 31.7196L21.4905 28.212C21.4615 28.183 21.4615 28.1359 21.4905 28.1069L25.5348 24.0626L28.432 21.8273C28.4546 21.8098 28.485 21.8066 28.5101 21.8195C28.5353 21.8318 28.5514 21.8576 28.5514 21.886V29.9506C28.5514 29.9739 28.5404 29.9952 28.5224 30.0093L25.6322 32.2383C25.6193 32.2492 25.6032 32.2544 25.5877 32.2544ZM21.6479 28.1598L25.08 31.6125L25.5916 32.0828L28.403 29.9145V22.0376L25.6329 24.1742L21.6479 28.1598Z" fill="#F7941D"/>
<path d="M25.5877 32.2544C25.5696 32.2544 25.5516 32.2479 25.5374 32.2344L24.9774 31.7196L21.4905 28.212C21.4615 28.183 21.4615 28.1359 21.4905 28.1069L25.5348 24.0626L28.432 21.8273C28.4546 21.8098 28.485 21.8066 28.5101 21.8195C28.5353 21.8318 28.5514 21.8576 28.5514 21.886V29.9506C28.5514 29.9739 28.5404 29.9952 28.5224 30.0093L25.6322 32.2383C25.6193 32.2492 25.6032 32.2544 25.5877 32.2544ZM21.6479 28.1598L25.08 31.6125L25.5916 32.0828L28.403 29.9145V22.0376L25.6329 24.1742L21.6479 28.1598Z" fill="#F7941D"/>
<path d="M25.5877 32.2544C25.5696 32.2544 25.5516 32.2479 25.5374 32.2344L24.9774 31.7196L21.4905 28.212C21.4615 28.183 21.4615 28.1359 21.4905 28.1069L25.5348 24.0626L28.432 21.8273C28.4546 21.8098 28.485 21.8066 28.5101 21.8195C28.5353 21.8318 28.5514 21.8576 28.5514 21.886V29.9506C28.5514 29.9739 28.5404 29.9952 28.5224 30.0093L25.6322 32.2383C25.6193 32.2492 25.6032 32.2544 25.5877 32.2544ZM21.6479 28.1598L25.08 31.6125L25.5916 32.0828L28.403 29.9145V22.0376L25.6329 24.1742L21.6479 28.1598Z" fill="#FFAE4D"/>
<path d="M21.544 28.234C21.524 28.234 21.5052 28.2262 21.4911 28.2121L17.4706 24.1678C17.4558 24.1523 17.4481 24.1316 17.4494 24.1104C17.4506 24.0891 17.4616 24.0691 17.4784 24.0562L20.3679 21.8273C20.3808 21.8169 20.3969 21.8118 20.4137 21.8118H28.4784C28.51 21.8118 28.5384 21.8318 28.5487 21.8621C28.559 21.8924 28.5487 21.926 28.5235 21.9447L25.6334 24.1736L21.5962 28.2121C21.5827 28.2262 21.5633 28.234 21.544 28.234ZM17.6358 24.1226L21.544 28.054L25.5353 24.062L28.2597 21.9602H20.4389L17.6358 24.1226Z" fill="#F7941D"/>
<path d="M21.544 28.234C21.524 28.234 21.5052 28.2262 21.4911 28.2121L17.4706 24.1678C17.4558 24.1523 17.4481 24.1316 17.4494 24.1104C17.4506 24.0891 17.4616 24.0691 17.4784 24.0562L20.3679 21.8273C20.3808 21.8169 20.3969 21.8118 20.4137 21.8118H28.4784C28.51 21.8118 28.5384 21.8318 28.5487 21.8621C28.559 21.8924 28.5487 21.926 28.5235 21.9447L25.6334 24.1736L21.5962 28.2121C21.5827 28.2262 21.5633 28.234 21.544 28.234ZM17.6358 24.1226L21.544 28.054L25.5353 24.062L28.2597 21.9602H20.4389L17.6358 24.1226Z" fill="#F7941D"/>
<path d="M21.544 28.234C21.524 28.234 21.5052 28.2262 21.4911 28.2121L17.4706 24.1678C17.4558 24.1523 17.4481 24.1316 17.4494 24.1104C17.4506 24.0891 17.4616 24.0691 17.4784 24.0562L20.3679 21.8273C20.3808 21.8169 20.3969 21.8118 20.4137 21.8118H28.4784C28.51 21.8118 28.5384 21.8318 28.5487 21.8621C28.559 21.8924 28.5487 21.926 28.5235 21.9447L25.6334 24.1736L21.5962 28.2121C21.5827 28.2262 21.5633 28.234 21.544 28.234ZM17.6358 24.1226L21.544 28.054L25.5353 24.062L28.2597 21.9602H20.4389L17.6358 24.1226Z" fill="#F7941D"/>
<path d="M21.544 28.234C21.524 28.234 21.5052 28.2262 21.4911 28.2121L17.4706 24.1678C17.4558 24.1523 17.4481 24.1316 17.4494 24.1104C17.4506 24.0891 17.4616 24.0691 17.4784 24.0562L20.3679 21.8273C20.3808 21.8169 20.3969 21.8118 20.4137 21.8118H28.4784C28.51 21.8118 28.5384 21.8318 28.5487 21.8621C28.559 21.8924 28.5487 21.926 28.5235 21.9447L25.6334 24.1736L21.5962 28.2121C21.5827 28.2262 21.5633 28.234 21.544 28.234ZM17.6358 24.1226L21.544 28.054L25.5353 24.062L28.2597 21.9602H20.4389L17.6358 24.1226Z" fill="#F7941D"/>
<path d="M25.5881 32.2544H17.5234C17.4828 32.2544 17.4492 32.2209 17.4492 32.1803V24.1156C17.4492 24.0743 17.4828 24.0414 17.5234 24.0414H25.5881C25.6294 24.0414 25.6623 24.0749 25.6623 24.1156V32.1803C25.6623 32.2209 25.6294 32.2544 25.5881 32.2544ZM17.5976 32.1061H25.5139V24.1897H17.5976V32.1061Z" fill="#F7941D"/>
<path d="M25.5881 24.1155H17.5234V32.1802H25.5881V24.1155Z" fill="#FF9411"/>
<path d="M25.5881 32.2544H17.5234C17.4828 32.2544 17.4492 32.2209 17.4492 32.1803V24.1156C17.4492 24.0743 17.4828 24.0414 17.5234 24.0414H25.5881C25.6294 24.0414 25.6623 24.0749 25.6623 24.1156V32.1803C25.6623 32.2209 25.6294 32.2544 25.5881 32.2544ZM17.5976 32.1061H25.5139V24.1897H17.5976V32.1061Z" fill="#F7941D"/>
<path d="M25.5881 32.2544H17.5234C17.4828 32.2544 17.4492 32.2209 17.4492 32.1803V24.1156C17.4492 24.0743 17.4828 24.0414 17.5234 24.0414H25.5881C25.6294 24.0414 25.6623 24.0749 25.6623 24.1156V32.1803C25.6623 32.2209 25.6294 32.2544 25.5881 32.2544ZM17.5976 32.1061H25.5139V24.1897H17.5976V32.1061Z" fill="#FFAE4D"/>
<path d="M21.543 20.095L23.3235 21.8865L25.0273 23.5999L25.5872 24.1154L28.4768 21.8865V13.8212L25.5872 16.0501L21.543 20.095Z" fill="#F7941D"/>
<path d="M25.5877 24.1896C25.5696 24.1896 25.5516 24.1831 25.5374 24.1696L24.9774 23.6542L21.4905 20.1466C21.4615 20.1176 21.4615 20.0705 21.4905 20.0415L25.5348 15.9972L28.432 13.7618C28.4546 13.7444 28.485 13.7412 28.5101 13.7541C28.5353 13.7663 28.5514 13.7921 28.5514 13.8205V21.8852C28.5514 21.9085 28.5404 21.9297 28.5224 21.9439L25.6322 24.1728C25.6193 24.1844 25.6032 24.1896 25.5877 24.1896ZM21.6479 20.095L25.08 23.5477L25.5916 24.018L28.403 21.8497V13.9728L25.6329 16.1094L21.6479 20.095Z" fill="#F7941D"/>
<path d="M17.5234 16.0502L20.4129 18.9578L21.5439 20.0951L25.5881 16.0502L28.4776 13.8213H20.4129L17.5234 16.0502Z" fill="#F7941D"/>
<path d="M21.544 20.1694C21.524 20.1694 21.5052 20.1617 21.4911 20.1475L17.4706 16.1032C17.4558 16.0877 17.4481 16.0671 17.4494 16.0458C17.4506 16.0245 17.4616 16.0045 17.4784 15.9916L20.3679 13.7627C20.3808 13.7524 20.3969 13.7472 20.4137 13.7472H28.4784C28.51 13.7472 28.5384 13.7672 28.5487 13.7975C28.559 13.8272 28.5487 13.8607 28.5235 13.8801L25.6334 16.109L21.5962 20.1475C21.5827 20.1617 21.5633 20.1694 21.544 20.1694ZM17.6358 16.058L21.544 19.9894L25.5353 15.998L28.2597 13.8962H20.4389L17.6358 16.058Z" fill="#F7941D"/>
<path d="M25.5881 16.0502H17.5234V24.1149H25.5881V16.0502Z" fill="#F7941D"/>
<path d="M25.5881 24.1896H17.5234C17.4828 24.1896 17.4492 24.1561 17.4492 24.1154V16.0507C17.4492 16.0095 17.4828 15.9766 17.5234 15.9766H25.5881C25.6294 15.9766 25.6623 16.0095 25.6623 16.0507V24.1154C25.6623 24.1561 25.6294 24.1896 25.5881 24.1896ZM17.5976 24.0406H25.5139V16.1243H17.5976V24.0406Z" fill="#F7941D"/>
<path d="M25.5872 24.1154L28.4768 21.8865V13.8212L25.5872 16.0501L21.543 20.095L23.3235 21.8865L25.0273 23.5999L25.5872 24.1154Z" fill="#F7941D"/>
<path opacity="0.5" d="M25.5872 24.1154L28.4768 21.8865V13.8212L25.5872 16.0501L21.543 20.095L23.3235 21.8865L25.0273 23.5999L25.5872 24.1154Z" fill="#A85C00"/>
<path d="M25.5877 24.1896C25.5696 24.1896 25.5516 24.1831 25.5374 24.1696L24.9774 23.6542L21.4905 20.1466C21.4615 20.1176 21.4615 20.0705 21.4905 20.0415L25.5348 15.9972L28.432 13.7618C28.4546 13.7444 28.485 13.7412 28.5101 13.7541C28.5353 13.7663 28.5514 13.7921 28.5514 13.8205V21.8852C28.5514 21.9085 28.5404 21.9297 28.5224 21.9439L25.6322 24.1728C25.6193 24.1844 25.6032 24.1896 25.5877 24.1896ZM21.6479 20.095L25.08 23.5477L25.5916 24.018L28.403 21.8497V13.9728L25.6329 16.1094L21.6479 20.095Z" fill="#F7941D"/>
<path d="M17.5234 16.0502L20.4129 18.9578L21.5439 20.0951L25.5881 16.0502L28.4776 13.8213H20.4129L17.5234 16.0502Z" fill="#F7941D"/>
<path d="M17.5234 16.0502L20.4129 18.9578L21.5439 20.0951L25.5881 16.0502L28.4776 13.8213H20.4129L17.5234 16.0502Z" fill="#F7941D"/>
<path d="M21.544 20.1694C21.524 20.1694 21.5052 20.1617 21.4911 20.1475L17.4706 16.1032C17.4558 16.0877 17.4481 16.0671 17.4494 16.0458C17.4506 16.0245 17.4616 16.0045 17.4784 15.9916L20.3679 13.7627C20.3808 13.7524 20.3969 13.7472 20.4137 13.7472H28.4784C28.51 13.7472 28.5384 13.7672 28.5487 13.7975C28.559 13.8272 28.5487 13.8607 28.5235 13.8801L25.6334 16.109L21.5962 20.1475C21.5827 20.1617 21.5633 20.1694 21.544 20.1694ZM17.6358 16.058L21.544 19.9894L25.5353 15.998L28.2597 13.8962H20.4389L17.6358 16.058Z" fill="#F7941D"/>
<path d="M25.5881 24.1896H17.5234C17.4828 24.1896 17.4492 24.1561 17.4492 24.1154V16.0507C17.4492 16.0095 17.4828 15.9766 17.5234 15.9766H25.5881C25.6294 15.9766 25.6623 16.0095 25.6623 16.0507V24.1154C25.6623 24.1561 25.6294 24.1896 25.5881 24.1896ZM17.5976 24.0406H25.5139V16.1243H17.5976V24.0406Z" fill="#F7941D"/>
<path d="M25.5877 24.1896C25.5696 24.1896 25.5516 24.1831 25.5374 24.1696L24.9774 23.6542L21.4905 20.1466C21.4615 20.1176 21.4615 20.0705 21.4905 20.0415L25.5348 15.9972L28.432 13.7618C28.4546 13.7444 28.485 13.7412 28.5101 13.7541C28.5353 13.7663 28.5514 13.7921 28.5514 13.8205V21.8852C28.5514 21.9085 28.5404 21.9297 28.5224 21.9439L25.6322 24.1728C25.6193 24.1844 25.6032 24.1896 25.5877 24.1896ZM21.6479 20.095L25.08 23.5477L25.5916 24.018L28.403 21.8497V13.9728L25.6329 16.1094L21.6479 20.095Z" fill="#F7941D"/>
<path d="M21.544 20.1694C21.524 20.1694 21.5052 20.1617 21.4911 20.1475L17.4706 16.1032C17.4558 16.0877 17.4481 16.0671 17.4494 16.0458C17.4506 16.0245 17.4616 16.0045 17.4784 15.9916L20.3679 13.7627C20.3808 13.7524 20.3969 13.7472 20.4137 13.7472H28.4784C28.51 13.7472 28.5384 13.7672 28.5487 13.7975C28.559 13.8272 28.5487 13.8607 28.5235 13.8801L25.6334 16.109L21.5962 20.1475C21.5827 20.1617 21.5633 20.1694 21.544 20.1694ZM17.6358 16.058L21.544 19.9894L25.5353 15.998L28.2597 13.8962H20.4389L17.6358 16.058Z" fill="#F7941D"/>
<path d="M25.5881 24.1896H17.5234C17.4828 24.1896 17.4492 24.1561 17.4492 24.1154V16.0507C17.4492 16.0095 17.4828 15.9766 17.5234 15.9766H25.5881C25.6294 15.9766 25.6623 16.0095 25.6623 16.0507V24.1154C25.6623 24.1561 25.6294 24.1896 25.5881 24.1896ZM17.5976 24.0406H25.5139V16.1243H17.5976V24.0406Z" fill="#F7941D"/>
<path d="M25.5877 24.1896C25.5696 24.1896 25.5516 24.1831 25.5374 24.1696L24.9774 23.6542L21.4905 20.1466C21.4615 20.1176 21.4615 20.0705 21.4905 20.0415L25.5348 15.9972L28.432 13.7618C28.4546 13.7444 28.485 13.7412 28.5101 13.7541C28.5353 13.7663 28.5514 13.7921 28.5514 13.8205V21.8852C28.5514 21.9085 28.5404 21.9297 28.5224 21.9439L25.6322 24.1728C25.6193 24.1844 25.6032 24.1896 25.5877 24.1896ZM21.6479 20.095L25.08 23.5477L25.5916 24.018L28.403 21.8497V13.9728L25.6329 16.1094L21.6479 20.095Z" fill="#F7941D"/>
<path d="M25.5877 24.1896C25.5696 24.1896 25.5516 24.1831 25.5374 24.1696L24.9774 23.6542L21.4905 20.1466C21.4615 20.1176 21.4615 20.0705 21.4905 20.0415L25.5348 15.9972L28.432 13.7618C28.4546 13.7444 28.485 13.7412 28.5101 13.7541C28.5353 13.7663 28.5514 13.7921 28.5514 13.8205V21.8852C28.5514 21.9085 28.5404 21.9297 28.5224 21.9439L25.6322 24.1728C25.6193 24.1844 25.6032 24.1896 25.5877 24.1896ZM21.6479 20.095L25.08 23.5477L25.5916 24.018L28.403 21.8497V13.9728L25.6329 16.1094L21.6479 20.095Z" fill="#F7941D"/>
<path d="M25.5877 24.1896C25.5696 24.1896 25.5516 24.1831 25.5374 24.1696L24.9774 23.6542L21.4905 20.1466C21.4615 20.1176 21.4615 20.0705 21.4905 20.0415L25.5348 15.9972L28.432 13.7618C28.4546 13.7444 28.485 13.7412 28.5101 13.7541C28.5353 13.7663 28.5514 13.7921 28.5514 13.8205V21.8852C28.5514 21.9085 28.5404 21.9297 28.5224 21.9439L25.6322 24.1728C25.6193 24.1844 25.6032 24.1896 25.5877 24.1896ZM21.6479 20.095L25.08 23.5477L25.5916 24.018L28.403 21.8497V13.9728L25.6329 16.1094L21.6479 20.095Z" fill="#FFAE4D"/>
<path d="M21.544 20.1694C21.524 20.1694 21.5052 20.1617 21.4911 20.1475L17.4706 16.1032C17.4558 16.0877 17.4481 16.0671 17.4494 16.0458C17.4506 16.0245 17.4616 16.0045 17.4784 15.9916L20.3679 13.7627C20.3808 13.7524 20.3969 13.7472 20.4137 13.7472H28.4784C28.51 13.7472 28.5384 13.7672 28.5487 13.7975C28.559 13.8272 28.5487 13.8607 28.5235 13.8801L25.6334 16.109L21.5962 20.1475C21.5827 20.1617 21.5633 20.1694 21.544 20.1694ZM17.6358 16.058L21.544 19.9894L25.5353 15.998L28.2597 13.8962H20.4389L17.6358 16.058Z" fill="#F7941D"/>
<path d="M21.544 20.1694C21.524 20.1694 21.5052 20.1617 21.4911 20.1475L17.4706 16.1032C17.4558 16.0877 17.4481 16.0671 17.4494 16.0458C17.4506 16.0245 17.4616 16.0045 17.4784 15.9916L20.3679 13.7627C20.3808 13.7524 20.3969 13.7472 20.4137 13.7472H28.4784C28.51 13.7472 28.5384 13.7672 28.5487 13.7975C28.559 13.8272 28.5487 13.8607 28.5235 13.8801L25.6334 16.109L21.5962 20.1475C21.5827 20.1617 21.5633 20.1694 21.544 20.1694ZM17.6358 16.058L21.544 19.9894L25.5353 15.998L28.2597 13.8962H20.4389L17.6358 16.058Z" fill="#F7941D"/>
<path d="M21.544 20.1694C21.524 20.1694 21.5052 20.1617 21.4911 20.1475L17.4706 16.1032C17.4558 16.0877 17.4481 16.0671 17.4494 16.0458C17.4506 16.0245 17.4616 16.0045 17.4784 15.9916L20.3679 13.7627C20.3808 13.7524 20.3969 13.7472 20.4137 13.7472H28.4784C28.51 13.7472 28.5384 13.7672 28.5487 13.7975C28.559 13.8272 28.5487 13.8607 28.5235 13.8801L25.6334 16.109L21.5962 20.1475C21.5827 20.1617 21.5633 20.1694 21.544 20.1694ZM17.6358 16.058L21.544 19.9894L25.5353 15.998L28.2597 13.8962H20.4389L17.6358 16.058Z" fill="#F7941D"/>
<path d="M21.544 20.1694C21.524 20.1694 21.5052 20.1617 21.4911 20.1475L17.4706 16.1032C17.4558 16.0877 17.4481 16.0671 17.4494 16.0458C17.4506 16.0245 17.4616 16.0045 17.4784 15.9916L20.3679 13.7627C20.3808 13.7524 20.3969 13.7472 20.4137 13.7472H28.4784C28.51 13.7472 28.5384 13.7672 28.5487 13.7975C28.559 13.8272 28.5487 13.8607 28.5235 13.8801L25.6334 16.109L21.5962 20.1475C21.5827 20.1617 21.5633 20.1694 21.544 20.1694ZM17.6358 16.058L21.544 19.9894L25.5353 15.998L28.2597 13.8962H20.4389L17.6358 16.058Z" fill="#F7941D"/>
<path d="M25.5881 24.1896H17.5234C17.4828 24.1896 17.4492 24.1561 17.4492 24.1154V16.0507C17.4492 16.0095 17.4828 15.9766 17.5234 15.9766H25.5881C25.6294 15.9766 25.6623 16.0095 25.6623 16.0507V24.1154C25.6623 24.1561 25.6294 24.1896 25.5881 24.1896ZM17.5976 24.0406H25.5139V16.1243H17.5976V24.0406Z" fill="#F7941D"/>
<path d="M25.5881 16.0502H17.5234V24.1149H25.5881V16.0502Z" fill="#FF9411"/>
<path d="M25.5881 24.1896H17.5234C17.4828 24.1896 17.4492 24.1561 17.4492 24.1154V16.0507C17.4492 16.0095 17.4828 15.9766 17.5234 15.9766H25.5881C25.6294 15.9766 25.6623 16.0095 25.6623 16.0507V24.1154C25.6623 24.1561 25.6294 24.1896 25.5881 24.1896ZM17.5976 24.0406H25.5139V16.1243H17.5976V24.0406Z" fill="#F7941D"/>
<path d="M25.5881 24.1896H17.5234C17.4828 24.1896 17.4492 24.1561 17.4492 24.1154V16.0507C17.4492 16.0095 17.4828 15.9766 17.5234 15.9766H25.5881C25.6294 15.9766 25.6623 16.0095 25.6623 16.0507V24.1154C25.6623 24.1561 25.6294 24.1896 25.5881 24.1896ZM17.5976 24.0406H25.5139V16.1243H17.5976V24.0406Z" fill="#FFAE4D"/>
<path d="M21.543 12.0296L23.3235 13.8212L25.0273 15.5346L25.5872 16.0501L28.4768 13.8212V5.75647L25.5872 7.98537L21.543 12.0296Z" fill="#F7941D"/>
<path d="M25.5877 16.1243C25.5696 16.1243 25.5516 16.1178 25.5374 16.1043L24.9774 15.5888L21.4905 12.0813C21.4615 12.0523 21.4615 12.0052 21.4905 11.9762L25.5348 7.93188L28.432 5.69652C28.4546 5.6791 28.485 5.67588 28.5101 5.68878C28.5353 5.70104 28.5514 5.72684 28.5514 5.75523V13.8199C28.5514 13.8431 28.5404 13.8644 28.5224 13.8786L25.6322 16.1075C25.6193 16.1191 25.6032 16.1243 25.5877 16.1243ZM21.6479 12.0303L25.08 15.483L25.5916 15.9533L28.403 13.7851V5.90812L25.6329 8.04477L21.6479 12.0303Z" fill="#F7941D"/>
<path d="M17.5234 7.98537L20.4129 10.8923L21.5439 12.0297L25.5881 7.98537L28.4776 5.75647H20.4129L17.5234 7.98537Z" fill="#F7941D"/>
<path d="M21.544 12.1044C21.524 12.1044 21.5052 12.0967 21.4911 12.0825L17.4706 8.03824C17.4558 8.02275 17.4481 8.00211 17.4494 7.98082C17.4506 7.95953 17.4616 7.93953 17.4784 7.92663L20.3679 5.69773C20.3808 5.6874 20.3969 5.68225 20.4137 5.68225H28.4784C28.51 5.68225 28.5384 5.70224 28.5487 5.73256C28.559 5.76288 28.5487 5.79579 28.5235 5.81514L25.6334 8.04405L21.5962 12.0825C21.5827 12.0961 21.5633 12.1044 21.544 12.1044ZM17.6358 7.99308L21.544 11.9245L25.5353 7.93309L28.2597 5.83063H20.4389L17.6358 7.99308Z" fill="#F7941D"/>
<path d="M25.5881 7.98547H17.5234V16.0502H25.5881V7.98547Z" fill="#F7941D"/>
<path d="M25.5881 16.1243H17.5234C17.4828 16.1243 17.4492 16.0914 17.4492 16.0501V7.98545C17.4492 7.94416 17.4828 7.91125 17.5234 7.91125H25.5881C25.6294 7.91125 25.6623 7.9448 25.6623 7.98545V16.0501C25.6623 16.0914 25.6294 16.1243 25.5881 16.1243ZM17.5976 15.9759H25.5139V8.05964H17.5976V15.9759Z" fill="#F7941D"/>
<path d="M25.5872 16.0501L28.4768 13.8212V5.75647L25.5872 7.98537L21.543 12.0296L23.3235 13.8212L25.0273 15.5346L25.5872 16.0501Z" fill="#F7941D"/>
<path opacity="0.5" d="M25.5872 16.0501L28.4768 13.8212V5.75647L25.5872 7.98537L21.543 12.0296L23.3235 13.8212L25.0273 15.5346L25.5872 16.0501Z" fill="#A85C00"/>
<path d="M25.5877 16.1243C25.5696 16.1243 25.5516 16.1178 25.5374 16.1043L24.9774 15.5888L21.4905 12.0813C21.4615 12.0523 21.4615 12.0052 21.4905 11.9762L25.5348 7.93188L28.432 5.69652C28.4546 5.6791 28.485 5.67588 28.5101 5.68878C28.5353 5.70104 28.5514 5.72684 28.5514 5.75523V13.8199C28.5514 13.8431 28.5404 13.8644 28.5224 13.8786L25.6322 16.1075C25.6193 16.1191 25.6032 16.1243 25.5877 16.1243ZM21.6479 12.0303L25.08 15.483L25.5916 15.9533L28.403 13.7851V5.90812L25.6329 8.04477L21.6479 12.0303Z" fill="#F7941D"/>
<path d="M17.5234 7.98537L20.4129 10.8923L21.5439 12.0297L25.5881 7.98537L28.4776 5.75647H20.4129L17.5234 7.98537Z" fill="#F7941D"/>
<path d="M17.5234 7.98537L20.4129 10.8923L21.5439 12.0297L25.5881 7.98537L28.4776 5.75647H20.4129L17.5234 7.98537Z" fill="#F7941D"/>
<path d="M21.544 12.1044C21.524 12.1044 21.5052 12.0967 21.4911 12.0825L17.4706 8.03824C17.4558 8.02275 17.4481 8.00211 17.4494 7.98082C17.4506 7.95953 17.4616 7.93953 17.4784 7.92663L20.3679 5.69773C20.3808 5.6874 20.3969 5.68225 20.4137 5.68225H28.4784C28.51 5.68225 28.5384 5.70224 28.5487 5.73256C28.559 5.76288 28.5487 5.79579 28.5235 5.81514L25.6334 8.04405L21.5962 12.0825C21.5827 12.0961 21.5633 12.1044 21.544 12.1044ZM17.6358 7.99308L21.544 11.9245L25.5353 7.93309L28.2597 5.83063H20.4389L17.6358 7.99308Z" fill="#F7941D"/>
<path d="M25.5881 16.1243H17.5234C17.4828 16.1243 17.4492 16.0914 17.4492 16.0501V7.98545C17.4492 7.94416 17.4828 7.91125 17.5234 7.91125H25.5881C25.6294 7.91125 25.6623 7.9448 25.6623 7.98545V16.0501C25.6623 16.0914 25.6294 16.1243 25.5881 16.1243ZM17.5976 15.9759H25.5139V8.05964H17.5976V15.9759Z" fill="#F7941D"/>
<path d="M25.5877 16.1243C25.5696 16.1243 25.5516 16.1178 25.5374 16.1043L24.9774 15.5888L21.4905 12.0813C21.4615 12.0523 21.4615 12.0052 21.4905 11.9762L25.5348 7.93188L28.432 5.69652C28.4546 5.6791 28.485 5.67588 28.5101 5.68878C28.5353 5.70104 28.5514 5.72684 28.5514 5.75523V13.8199C28.5514 13.8431 28.5404 13.8644 28.5224 13.8786L25.6322 16.1075C25.6193 16.1191 25.6032 16.1243 25.5877 16.1243ZM21.6479 12.0303L25.08 15.483L25.5916 15.9533L28.403 13.7851V5.90812L25.6329 8.04477L21.6479 12.0303Z" fill="#F7941D"/>
<path d="M21.544 12.1044C21.524 12.1044 21.5052 12.0967 21.4911 12.0825L17.4706 8.03824C17.4558 8.02275 17.4481 8.00211 17.4494 7.98082C17.4506 7.95953 17.4616 7.93953 17.4784 7.92663L20.3679 5.69773C20.3808 5.6874 20.3969 5.68225 20.4137 5.68225H28.4784C28.51 5.68225 28.5384 5.70224 28.5487 5.73256C28.559 5.76288 28.5487 5.79579 28.5235 5.81514L25.6334 8.04405L21.5962 12.0825C21.5827 12.0961 21.5633 12.1044 21.544 12.1044ZM17.6358 7.99308L21.544 11.9245L25.5353 7.93309L28.2597 5.83063H20.4389L17.6358 7.99308Z" fill="#F7941D"/>
<path d="M25.5881 16.1243H17.5234C17.4828 16.1243 17.4492 16.0914 17.4492 16.0501V7.98545C17.4492 7.94416 17.4828 7.91125 17.5234 7.91125H25.5881C25.6294 7.91125 25.6623 7.9448 25.6623 7.98545V16.0501C25.6623 16.0914 25.6294 16.1243 25.5881 16.1243ZM17.5976 15.9759H25.5139V8.05964H17.5976V15.9759Z" fill="#F7941D"/>
<path d="M25.5877 16.1243C25.5696 16.1243 25.5516 16.1178 25.5374 16.1043L24.9774 15.5888L21.4905 12.0813C21.4615 12.0523 21.4615 12.0052 21.4905 11.9762L25.5348 7.93188L28.432 5.69652C28.4546 5.6791 28.485 5.67588 28.5101 5.68878C28.5353 5.70104 28.5514 5.72684 28.5514 5.75523V13.8199C28.5514 13.8431 28.5404 13.8644 28.5224 13.8786L25.6322 16.1075C25.6193 16.1191 25.6032 16.1243 25.5877 16.1243ZM21.6479 12.0303L25.08 15.483L25.5916 15.9533L28.403 13.7851V5.90812L25.6329 8.04477L21.6479 12.0303Z" fill="#F7941D"/>
<path d="M25.5877 16.1243C25.5696 16.1243 25.5516 16.1178 25.5374 16.1043L24.9774 15.5888L21.4905 12.0813C21.4615 12.0523 21.4615 12.0052 21.4905 11.9762L25.5348 7.93188L28.432 5.69652C28.4546 5.6791 28.485 5.67588 28.5101 5.68878C28.5353 5.70104 28.5514 5.72684 28.5514 5.75523V13.8199C28.5514 13.8431 28.5404 13.8644 28.5224 13.8786L25.6322 16.1075C25.6193 16.1191 25.6032 16.1243 25.5877 16.1243ZM21.6479 12.0303L25.08 15.483L25.5916 15.9533L28.403 13.7851V5.90812L25.6329 8.04477L21.6479 12.0303Z" fill="#F7941D"/>
<path d="M25.5877 16.1243C25.5696 16.1243 25.5516 16.1178 25.5374 16.1043L24.9774 15.5888L21.4905 12.0813C21.4615 12.0523 21.4615 12.0052 21.4905 11.9762L25.5348 7.93188L28.432 5.69652C28.4546 5.6791 28.485 5.67588 28.5101 5.68878C28.5353 5.70104 28.5514 5.72684 28.5514 5.75523V13.8199C28.5514 13.8431 28.5404 13.8644 28.5224 13.8786L25.6322 16.1075C25.6193 16.1191 25.6032 16.1243 25.5877 16.1243ZM21.6479 12.0303L25.08 15.483L25.5916 15.9533L28.403 13.7851V5.90812L25.6329 8.04477L21.6479 12.0303Z" fill="#FFAE4D"/>
<path d="M21.544 12.1044C21.524 12.1044 21.5052 12.0967 21.4911 12.0825L17.4706 8.03824C17.4558 8.02275 17.4481 8.00211 17.4494 7.98082C17.4506 7.95953 17.4616 7.93953 17.4784 7.92663L20.3679 5.69773C20.3808 5.6874 20.3969 5.68225 20.4137 5.68225H28.4784C28.51 5.68225 28.5384 5.70224 28.5487 5.73256C28.559 5.76288 28.5487 5.79579 28.5235 5.81514L25.6334 8.04405L21.5962 12.0825C21.5827 12.0961 21.5633 12.1044 21.544 12.1044ZM17.6358 7.99308L21.544 11.9245L25.5353 7.93309L28.2597 5.83063H20.4389L17.6358 7.99308Z" fill="#F7941D"/>
<path d="M21.544 12.1044C21.524 12.1044 21.5052 12.0967 21.4911 12.0825L17.4706 8.03824C17.4558 8.02275 17.4481 8.00211 17.4494 7.98082C17.4506 7.95953 17.4616 7.93953 17.4784 7.92663L20.3679 5.69773C20.3808 5.6874 20.3969 5.68225 20.4137 5.68225H28.4784C28.51 5.68225 28.5384 5.70224 28.5487 5.73256C28.559 5.76288 28.5487 5.79579 28.5235 5.81514L25.6334 8.04405L21.5962 12.0825C21.5827 12.0961 21.5633 12.1044 21.544 12.1044ZM17.6358 7.99308L21.544 11.9245L25.5353 7.93309L28.2597 5.83063H20.4389L17.6358 7.99308Z" fill="#F7941D"/>
<path d="M21.544 12.1044C21.524 12.1044 21.5052 12.0967 21.4911 12.0825L17.4706 8.03824C17.4558 8.02275 17.4481 8.00211 17.4494 7.98082C17.4506 7.95953 17.4616 7.93953 17.4784 7.92663L20.3679 5.69773C20.3808 5.6874 20.3969 5.68225 20.4137 5.68225H28.4784C28.51 5.68225 28.5384 5.70224 28.5487 5.73256C28.559 5.76288 28.5487 5.79579 28.5235 5.81514L25.6334 8.04405L21.5962 12.0825C21.5827 12.0961 21.5633 12.1044 21.544 12.1044ZM17.6358 7.99308L21.544 11.9245L25.5353 7.93309L28.2597 5.83063H20.4389L17.6358 7.99308Z" fill="#F7941D"/>
<path d="M21.544 12.1044C21.524 12.1044 21.5052 12.0967 21.4911 12.0825L17.4706 8.03824C17.4558 8.02275 17.4481 8.00211 17.4494 7.98082C17.4506 7.95953 17.4616 7.93953 17.4784 7.92663L20.3679 5.69773C20.3808 5.6874 20.3969 5.68225 20.4137 5.68225H28.4784C28.51 5.68225 28.5384 5.70224 28.5487 5.73256C28.559 5.76288 28.5487 5.79579 28.5235 5.81514L25.6334 8.04405L21.5962 12.0825C21.5827 12.0961 21.5633 12.1044 21.544 12.1044ZM17.6358 7.99308L21.544 11.9245L25.5353 7.93309L28.2597 5.83063H20.4389L17.6358 7.99308Z" fill="#F7941D"/>
<path d="M25.5881 16.1243H17.5234C17.4828 16.1243 17.4492 16.0914 17.4492 16.0501V7.98545C17.4492 7.94416 17.4828 7.91125 17.5234 7.91125H25.5881C25.6294 7.91125 25.6623 7.9448 25.6623 7.98545V16.0501C25.6623 16.0914 25.6294 16.1243 25.5881 16.1243ZM17.5976 15.9759H25.5139V8.05964H17.5976V15.9759Z" fill="#F7941D"/>
<path d="M25.5881 7.98547H17.5234V16.0502H25.5881V7.98547Z" fill="#FF9411"/>
<path d="M25.5881 16.1243H17.5234C17.4828 16.1243 17.4492 16.0914 17.4492 16.0501V7.98545C17.4492 7.94416 17.4828 7.91125 17.5234 7.91125H25.5881C25.6294 7.91125 25.6623 7.9448 25.6623 7.98545V16.0501C25.6623 16.0914 25.6294 16.1243 25.5881 16.1243ZM17.5976 15.9759H25.5139V8.05964H17.5976V15.9759Z" fill="#F7941D"/>
<path d="M25.5881 16.1243H17.5234C17.4828 16.1243 17.4492 16.0914 17.4492 16.0501V7.98545C17.4492 7.94416 17.4828 7.91125 17.5234 7.91125H25.5881C25.6294 7.91125 25.6623 7.9448 25.6623 7.98545V16.0501C25.6623 16.0914 25.6294 16.1243 25.5881 16.1243ZM17.5976 15.9759H25.5139V8.05964H17.5976V15.9759Z" fill="#FFAE4D"/>
</svg>
