<svg width="46" height="46" viewBox="0 0 46 46" fill="none" xmlns="http://www.w3.org/2000/svg">
<rect width="46" height="46" rx="11.1034" fill="#F3F3F3"/>
<rect x="0.396552" y="0.396552" width="45.2069" height="45.2069" rx="10.7069" stroke="#B02E0C" stroke-opacity="0.04" stroke-width="0.793103"/>
<path d="M33.7822 6.12646L39.624 11.8228L39.6836 11.7954V30.1821L39.6406 30.2017L18.3721 39.8823V39.9087H6.32031V15.8062H6.37793L27.5273 6.11279L27.541 6.10596H33.7158L33.7471 6.09131L33.7822 6.12646ZM6.4668 39.7622H18.2246V21.9351L12.2422 15.9526H6.4668V39.7622ZM18.3721 21.9517V39.7222L39.5371 30.0884V12.0259L18.3721 21.9517ZM12.3984 15.9019L18.3135 21.8159L39.4824 11.8892L33.7148 6.26611L12.3984 15.9019ZM27.5732 6.25244L6.72852 15.8062H12.2578L33.3926 6.25244H27.5732Z" fill="black"/>
</svg>
