<svg width="46" height="46" viewBox="0 0 46 46" fill="none" xmlns="http://www.w3.org/2000/svg">
<rect width="46" height="46" rx="11.1034" fill="#F3F3F3"/>
<rect x="0.396552" y="0.396552" width="45.2069" height="45.2069" rx="10.7069" stroke="#B02E0C" stroke-opacity="0.04" stroke-width="0.793103"/>
<path d="M22.5234 22.6387H40.5234" stroke="#F7941D" stroke-width="0.51384"/>
<circle cx="23" cy="22.6387" r="0.74308" fill="#F7941D" stroke="#F7941D" stroke-width="0.51384"/>
<path d="M22.999 15.0499C27.9233 15.0499 32.362 15.9774 35.5537 17.46C38.7794 18.9585 40.5879 20.9467 40.5879 23.0001C40.5879 25.0533 38.7793 27.0407 35.5537 28.5391C32.362 30.0218 27.9234 30.9503 22.999 30.9503C18.0748 30.9502 13.6369 30.0217 10.4453 28.5391C7.21963 27.0407 5.41116 25.0534 5.41113 23.0001C5.41113 20.9467 7.2196 18.9585 10.4453 17.46C13.6369 15.9775 18.0749 15.0499 22.999 15.0499Z" stroke="black" stroke-width="0.822144"/>
<path d="M24.5881 19.2951H25.6271C25.8429 19.2951 26.0217 19.3444 26.1604 19.4431C26.2961 19.5418 26.367 19.6959 26.367 19.9056C26.367 20.0381 26.3331 20.1522 26.2714 20.2447C26.2067 20.3372 26.1173 20.405 26.0032 20.4451C26.0556 20.4574 26.1018 20.4759 26.1419 20.5006C26.1789 20.5252 26.2097 20.553 26.2313 20.5807C26.2529 20.6116 26.2714 20.6486 26.2868 20.6917C26.2992 20.738 26.3084 20.7781 26.3146 20.812C26.3207 20.8459 26.3238 20.889 26.33 20.9445C26.33 20.96 26.3331 20.9877 26.3362 21.0278C26.3392 21.0709 26.3423 21.0987 26.3423 21.111C26.3423 21.1234 26.3454 21.148 26.3485 21.1788C26.3516 21.2128 26.3547 21.2374 26.3577 21.2498C26.3577 21.2621 26.3608 21.2837 26.367 21.3083C26.3732 21.333 26.3762 21.3546 26.3824 21.3669C26.3855 21.3792 26.3916 21.3947 26.3978 21.4132C26.404 21.4317 26.4101 21.444 26.4194 21.4563C26.4256 21.4687 26.4348 21.481 26.4471 21.4902H26.034C26.0279 21.4841 26.0217 21.4748 26.0155 21.4625C26.0094 21.4502 26.0063 21.4378 26.0032 21.4255C25.997 21.4132 25.9939 21.4008 25.9939 21.3885C25.9909 21.3762 25.9878 21.3607 25.9847 21.3422C25.9816 21.3238 25.9816 21.3053 25.9816 21.2929L25.9754 21.2374L25.9693 21.1819C25.9693 21.1696 25.9662 21.148 25.9662 21.1172C25.9631 21.0864 25.9631 21.0648 25.9631 21.0524C25.9508 20.8736 25.9138 20.7534 25.849 20.6856C25.7843 20.6177 25.661 20.5838 25.4822 20.5838H24.9704V21.4902H24.5881V19.2951ZM24.9704 19.6096V20.2971H25.4791C25.5531 20.2971 25.6147 20.294 25.6671 20.2848C25.7165 20.2786 25.7689 20.2632 25.8213 20.2416C25.8737 20.22 25.9138 20.183 25.9415 20.1337C25.9693 20.0844 25.9847 20.0227 25.9847 19.9456C25.9847 19.8778 25.9724 19.8192 25.9477 19.773C25.923 19.7267 25.886 19.6928 25.8398 19.6682C25.7935 19.6466 25.7473 19.6312 25.698 19.6219C25.6486 19.6157 25.5931 19.6096 25.5284 19.6096H24.9704Z" fill="black"/>
</svg>
