<svg width="176" height="136" viewBox="0 0 176 136" fill="none" xmlns="http://www.w3.org/2000/svg">
<path d="M0 16C0 7.16344 7.16344 0 16 0H160C168.837 0 176 7.16344 176 16V120C176 128.837 168.837 136 160 136H16C7.16344 136 0 128.837 0 120V16Z" fill="white"/>
<path d="M16 0.5H160C168.56 0.5 175.5 7.43959 175.5 16V120C175.5 128.56 168.56 135.5 160 135.5H16C7.43959 135.5 0.5 128.56 0.5 120V16C0.5 7.43959 7.43959 0.5 16 0.5Z" stroke="#B02E0C" stroke-opacity="0.16"/>
<path d="M96 10.2288C106.198 10.2288 115.421 11.6834 122.087 14.0286C125.421 15.2016 128.103 16.5934 129.946 18.1272C131.791 19.662 132.771 21.3161 132.771 23.0188C132.771 24.7215 131.791 26.3756 129.946 27.9104C128.103 29.4442 125.421 30.836 122.087 32.009C115.421 34.3542 106.198 35.8088 96 35.8088C85.8017 35.8088 76.5785 34.3542 69.9131 32.009C66.5793 30.836 63.8975 29.4442 62.0537 27.9104C60.2087 26.3756 59.2285 24.7215 59.2285 23.0188C59.2285 21.3161 60.2087 19.662 62.0537 18.1272C63.8975 16.5934 66.5793 15.2016 69.9131 14.0286C76.5785 11.6834 85.8016 10.2288 96 10.2288Z" fill="#55A2F2" stroke="black" stroke-width="0.45679"/>
<rect x="59.4531" y="23.2471" width="73.0864" height="90.4445" fill="#55A2F2"/>
<path d="M96.4531 100.446C96.7554 100.447 97.0569 100.45 97.3574 100.454L97.3555 100.682C97.6568 100.686 97.9574 100.691 98.2568 100.697L98.2607 100.469C98.5632 100.476 98.8646 100.484 99.165 100.493L99.1592 100.72C99.4603 100.729 99.7606 100.739 100.06 100.751L100.067 100.523C100.37 100.535 100.671 100.548 100.972 100.562L100.962 100.79C101.263 100.804 101.563 100.82 101.861 100.837L101.873 100.609C102.175 100.626 102.477 100.643 102.776 100.663L102.763 100.891C103.063 100.911 103.363 100.932 103.661 100.954L103.677 100.726C103.979 100.749 104.28 100.772 104.58 100.797L104.562 101.024C104.862 101.049 105.161 101.076 105.458 101.103L105.479 100.877C105.78 100.905 106.081 100.934 106.38 100.965L106.357 101.191C106.657 101.222 106.956 101.254 107.253 101.288L107.277 101.061C107.579 101.095 107.879 101.13 108.177 101.167L108.149 101.393C108.449 101.43 108.747 101.468 109.043 101.508L109.072 101.282C109.373 101.322 109.671 101.363 109.968 101.406L109.937 101.631C110.236 101.674 110.533 101.718 110.828 101.763L110.862 101.539C111.162 101.585 111.459 101.632 111.754 101.681L111.718 101.906C112.017 101.956 112.313 102.007 112.607 102.059L112.646 101.834C112.944 101.887 113.239 101.941 113.532 101.997L113.49 102.221C113.789 102.278 114.085 102.336 114.379 102.395L114.424 102.172V102.171C114.72 102.231 115.014 102.292 115.305 102.355L115.257 102.579C115.554 102.643 115.848 102.708 116.14 102.775L116.189 102.552C116.485 102.62 116.778 102.69 117.068 102.76L117.016 102.982C117.309 103.054 117.6 103.127 117.888 103.202L117.943 102.981C118.239 103.058 118.532 103.135 118.821 103.215V103.216L118.76 103.435C119.051 103.516 119.339 103.598 119.623 103.681L119.686 103.463C119.978 103.549 120.268 103.636 120.553 103.725L120.486 103.943C120.776 104.034 121.062 104.126 121.344 104.219L121.415 104.003C121.703 104.098 121.987 104.196 122.266 104.295L122.19 104.51C122.477 104.612 122.76 104.715 123.037 104.82L123.117 104.608C123.403 104.717 123.684 104.826 123.96 104.937L123.875 105.149C124.156 105.263 124.432 105.379 124.701 105.496L124.792 105.288C125.071 105.409 125.345 105.532 125.612 105.657L125.517 105.864C125.793 105.994 126.063 106.126 126.326 106.26L126.429 106.056C126.703 106.196 126.97 106.336 127.229 106.479L127.119 106.678C127.386 106.826 127.644 106.976 127.894 107.127L128.011 106.931C128.274 107.091 128.528 107.253 128.772 107.417L128.646 107.605C128.9 107.775 129.143 107.946 129.374 108.12L129.509 107.938C129.756 108.124 129.992 108.312 130.215 108.502L130.068 108.675C130.3 108.872 130.518 109.072 130.722 109.274L130.881 109.113C131.102 109.332 131.306 109.554 131.494 109.778L131.32 109.924C131.515 110.156 131.69 110.391 131.847 110.627L132.037 110.501V110.5C132.208 110.758 132.355 111.022 132.481 111.286L132.278 111.384C132.406 111.65 132.509 111.919 132.588 112.189L132.806 112.125C132.891 112.418 132.947 112.713 132.976 113.011L132.751 113.034C132.765 113.177 132.771 113.32 132.771 113.464C132.771 113.607 132.765 113.751 132.751 113.893L132.976 113.914C132.947 114.212 132.891 114.508 132.806 114.801L132.588 114.738C132.509 115.008 132.406 115.277 132.278 115.544L132.481 115.64C132.355 115.905 132.208 116.168 132.037 116.427L131.847 116.301C131.69 116.537 131.515 116.771 131.32 117.004L131.494 117.148C131.306 117.373 131.102 117.594 130.881 117.813L130.722 117.653C130.518 117.855 130.3 118.055 130.068 118.253L130.215 118.425C129.992 118.615 129.756 118.803 129.509 118.988L129.374 118.807C129.143 118.981 128.9 119.152 128.646 119.321L128.772 119.51C128.528 119.673 128.274 119.835 128.011 119.995L127.894 119.801C127.644 119.952 127.386 120.101 127.119 120.248L127.229 120.447C126.97 120.59 126.703 120.731 126.429 120.87L126.326 120.668C126.063 120.801 125.793 120.933 125.517 121.063L125.612 121.269C125.345 121.395 125.071 121.517 124.792 121.638L124.701 121.431C124.432 121.549 124.156 121.664 123.875 121.778L123.96 121.989C123.684 122.101 123.403 122.21 123.117 122.318L123.037 122.107C122.76 122.212 122.477 122.315 122.19 122.417L122.266 122.632C121.987 122.731 121.703 122.828 121.415 122.924L121.344 122.708C121.062 122.801 120.776 122.894 120.486 122.984L120.553 123.201C120.268 123.29 119.979 123.378 119.686 123.464L119.623 123.246C119.339 123.329 119.051 123.412 118.76 123.492L118.821 123.712C118.532 123.791 118.239 123.868 117.943 123.945L117.888 123.725C117.6 123.8 117.309 123.873 117.016 123.945L117.068 124.165C116.778 124.236 116.485 124.306 116.189 124.374L116.14 124.152C115.848 124.219 115.554 124.284 115.257 124.348L115.305 124.571C115.014 124.634 114.72 124.696 114.424 124.756L114.379 124.532C114.085 124.591 113.789 124.649 113.49 124.706L113.532 124.929C113.239 124.985 112.944 125.04 112.646 125.093L112.607 124.868C112.313 124.92 112.017 124.972 111.718 125.021L111.754 125.245C111.459 125.294 111.162 125.341 110.862 125.387L110.828 125.164C110.533 125.209 110.236 125.254 109.937 125.297L109.968 125.52C109.671 125.563 109.373 125.604 109.072 125.644L109.043 125.42C108.747 125.459 108.449 125.497 108.149 125.534L108.177 125.759C107.879 125.795 107.579 125.831 107.277 125.865L107.253 125.639C106.956 125.673 106.657 125.704 106.357 125.735L106.38 125.962C106.081 125.992 105.78 126.021 105.479 126.05L105.458 125.824C105.161 125.852 104.862 125.878 104.562 125.903L104.58 126.13C104.28 126.155 103.979 126.177 103.677 126.2L103.661 125.973C103.363 125.996 103.063 126.016 102.763 126.036L102.776 126.263C102.477 126.283 102.175 126.3 101.873 126.317L101.861 126.091C101.563 126.107 101.263 126.123 100.962 126.137L100.972 126.364C100.671 126.378 100.37 126.391 100.067 126.403L100.06 126.177C99.7606 126.188 99.4603 126.198 99.1592 126.207L99.165 126.433C98.8646 126.442 98.5632 126.45 98.2607 126.457L98.2568 126.23C97.9574 126.237 97.6568 126.241 97.3555 126.245L97.3574 126.472C97.0569 126.476 96.7554 126.479 96.4531 126.48V126.253C96.3023 126.253 96.1512 126.254 96 126.254C95.8488 126.254 95.6977 126.253 95.5469 126.253L95.5459 126.48C95.2436 126.479 94.9421 126.476 94.6416 126.472L94.6445 126.245C94.3432 126.241 94.0426 126.237 93.7432 126.23L93.7383 126.457C93.4358 126.45 93.1344 126.442 92.834 126.433L92.8408 126.207C92.5397 126.198 92.2394 126.188 91.9404 126.177L91.9316 126.403C91.6291 126.391 91.3277 126.378 91.0273 126.364L91.0381 126.137C90.7372 126.123 90.4372 126.107 90.1387 126.091L90.126 126.317C89.8236 126.3 89.5225 126.283 89.2227 126.263L89.2373 126.036C88.9367 126.016 88.6368 125.996 88.3389 125.973L88.3223 126.2C88.0198 126.177 87.7186 126.155 87.4189 126.13L87.4385 125.903C87.1383 125.878 86.8393 125.852 86.542 125.824L86.5205 126.05C86.2185 126.021 85.918 125.992 85.6191 125.962L85.6426 125.735C85.3426 125.704 85.0438 125.673 84.7471 125.639L84.7217 125.865C84.4201 125.831 84.1204 125.795 83.8223 125.759L83.8506 125.534C83.551 125.497 83.2531 125.459 82.957 125.42L82.9268 125.644C82.6264 125.604 82.3279 125.563 82.0312 125.52L82.0635 125.297C81.7643 125.254 81.467 125.209 81.1719 125.164L81.1367 125.387C80.8374 125.341 80.5402 125.294 80.2451 125.245L80.2822 125.021C79.9834 124.972 79.6869 124.92 79.3926 124.868L79.3525 125.093C79.0549 125.04 78.7597 124.985 78.4668 124.929L78.5098 124.706C78.2112 124.649 77.9146 124.591 77.6211 124.532L77.5762 124.756H77.5752C77.2789 124.696 76.9854 124.634 76.6943 124.571L76.7432 124.348C76.4462 124.284 76.1517 124.219 75.8604 124.152L75.8096 124.374C75.5136 124.306 75.2207 124.236 74.9307 124.165L74.9844 123.945C74.6906 123.873 74.3997 123.8 74.1123 123.725L74.0557 123.945C73.7598 123.868 73.4668 123.791 73.1777 123.712H73.1787L73.2402 123.492C72.9491 123.412 72.6608 123.329 72.377 123.246L72.3135 123.464C72.0205 123.378 71.7315 123.29 71.4463 123.201L71.5137 122.984C71.2238 122.894 70.9378 122.801 70.6562 122.708L70.584 122.924C70.2961 122.828 70.0125 122.731 69.7334 122.632L69.8096 122.417C69.5226 122.315 69.2401 122.212 68.9629 122.107L68.8818 122.318C68.5958 122.21 68.3146 122.101 68.0391 121.989L68.125 121.778C67.844 121.664 67.5683 121.549 67.2988 121.431L67.207 121.638C66.9276 121.517 66.6538 121.395 66.3867 121.269L66.4834 121.063C66.2066 120.933 65.9366 120.801 65.6738 120.668L65.5703 120.87C65.2962 120.731 65.0294 120.59 64.7705 120.447L64.8809 120.248C64.6143 120.101 64.356 119.952 64.1064 119.801L63.9883 119.995C63.7248 119.835 63.4711 119.673 63.2266 119.51L63.3535 119.321C63.1004 119.152 62.8574 118.981 62.626 118.807L62.4902 118.988C62.2427 118.803 62.0072 118.615 61.7842 118.425L61.9316 118.253C61.6997 118.055 61.4817 117.855 61.2783 117.653L61.1182 117.813C60.8974 117.594 60.6927 117.373 60.5049 117.148L60.6797 117.004C60.4852 116.771 60.3095 116.537 60.1533 116.301L59.9619 116.427C59.7908 116.168 59.6441 115.905 59.5176 115.64L59.7217 115.544C59.594 115.277 59.4905 115.008 59.4121 114.738L59.1934 114.801C59.1085 114.508 59.0523 114.213 59.0234 113.915L59.249 113.893C59.2421 113.822 59.2369 113.75 59.2334 113.678L59.2285 113.464C59.2285 113.32 59.2352 113.177 59.249 113.034L59.0234 113.011C59.0524 112.713 59.1084 112.418 59.1934 112.125L59.4121 112.189C59.4905 111.919 59.594 111.65 59.7217 111.384L59.5176 111.286C59.6442 111.022 59.7908 110.758 59.9619 110.5L59.9629 110.501L60.1533 110.627C60.3095 110.391 60.4852 110.156 60.6797 109.924L60.5049 109.778C60.6928 109.554 60.8974 109.332 61.1182 109.113L61.2783 109.274C61.4817 109.072 61.6997 108.872 61.9316 108.675L61.7842 108.502C62.0072 108.312 62.2427 108.124 62.4902 107.938L62.626 108.12C62.8574 107.946 63.1004 107.775 63.3535 107.605L63.2266 107.417C63.4711 107.253 63.7248 107.091 63.9883 106.931L64.1064 107.127C64.356 106.976 64.6142 106.826 64.8809 106.678L64.7705 106.479C65.0294 106.336 65.2962 106.196 65.5703 106.056L65.6738 106.26C65.9366 106.126 66.2066 105.994 66.4834 105.864L66.3867 105.657C66.6538 105.532 66.9276 105.41 67.207 105.288L67.2988 105.496C67.5683 105.379 67.844 105.263 68.125 105.149L68.0391 104.937C68.3146 104.826 68.5958 104.717 68.8818 104.608L68.9629 104.82C69.2401 104.715 69.5226 104.612 69.8096 104.51L69.7334 104.295C70.0125 104.196 70.2961 104.098 70.584 104.003L70.6562 104.219C70.9378 104.126 71.2238 104.034 71.5137 103.943L71.4463 103.725C71.7315 103.636 72.0205 103.549 72.3135 103.463L72.377 103.681C72.6608 103.598 72.9491 103.516 73.2402 103.435L73.1787 103.216L73.1777 103.215C73.4668 103.135 73.7598 103.058 74.0557 102.981L74.1123 103.202C74.3997 103.127 74.6906 103.054 74.9844 102.982L74.9307 102.76C75.2206 102.69 75.5136 102.62 75.8096 102.552L75.8604 102.775C76.1517 102.708 76.4462 102.643 76.7432 102.579L76.6943 102.355C76.9854 102.292 77.2789 102.231 77.5752 102.171L77.5762 102.172L77.6211 102.395C77.9146 102.336 78.2112 102.278 78.5098 102.221L78.4668 101.997C78.7597 101.941 79.0549 101.887 79.3525 101.834L79.3926 102.059C79.6869 102.007 79.9834 101.956 80.2822 101.906L80.2451 101.681C80.5402 101.632 80.8374 101.585 81.1367 101.539L81.1719 101.763C81.467 101.718 81.7643 101.674 82.0635 101.631L82.0312 101.406C82.3279 101.363 82.6264 101.322 82.9268 101.282L82.957 101.508C83.2531 101.468 83.551 101.43 83.8506 101.393L83.8223 101.167C84.1203 101.13 84.4202 101.095 84.7217 101.061L84.7471 101.288C85.0438 101.254 85.3426 101.222 85.6426 101.191L85.6191 100.965C85.918 100.934 86.2185 100.905 86.5205 100.877L86.542 101.103C86.8393 101.076 87.1383 101.049 87.4385 101.024L87.4189 100.797C87.7186 100.772 88.0198 100.749 88.3223 100.726L88.3389 100.954C88.6368 100.932 88.9367 100.911 89.2373 100.891L89.2227 100.663C89.5225 100.643 89.8237 100.626 90.126 100.609L90.1387 100.837C90.4372 100.82 90.7372 100.804 91.0381 100.79L91.0273 100.562C91.3277 100.548 91.6291 100.535 91.9316 100.523L91.9404 100.751C92.2394 100.739 92.5397 100.729 92.8408 100.72L92.834 100.493C93.1344 100.484 93.4358 100.476 93.7383 100.469L93.7432 100.697C94.0426 100.691 94.3432 100.686 94.6445 100.682L94.6416 100.454C94.9421 100.45 95.2436 100.447 95.5459 100.446L95.5469 100.675C95.6977 100.674 95.8488 100.674 96 100.674C96.1512 100.674 96.3023 100.674 96.4531 100.675V100.446Z" fill="#55A2F2" stroke="black" stroke-width="0.45679" stroke-dasharray="0.91 0.91"/>
<path d="M59.2266 23.0186V113.92" stroke="black" stroke-width="0.45679"/>
<path d="M132.773 23.0186V113.92" stroke="black" stroke-width="0.45679"/>
<path d="M96 10.2288C106.198 10.2288 115.421 11.6834 122.087 14.0286C125.421 15.2016 128.103 16.5934 129.946 18.1272C131.791 19.662 132.771 21.3161 132.771 23.0188C132.771 24.7215 131.791 26.3756 129.946 27.9104C128.103 29.4442 125.421 30.836 122.087 32.009C115.421 34.3542 106.198 35.8088 96 35.8088C85.8017 35.8088 76.5785 34.3542 69.9131 32.009C66.5793 30.836 63.8975 29.4442 62.0537 27.9104C60.2087 26.3756 59.2285 24.7215 59.2285 23.0188C59.2285 21.3161 60.2087 19.662 62.0537 18.1272C63.8975 16.5934 66.5793 15.2016 69.9131 14.0286C76.5785 11.6834 85.8016 10.2288 96 10.2288Z" fill="#55A2F2" stroke="black" stroke-width="0.45679"/>
<path d="M83.6975 111.304H86.3935C86.9535 111.304 87.4175 111.432 87.7775 111.688C88.1295 111.944 88.3135 112.344 88.3135 112.888C88.3135 113.232 88.2255 113.528 88.0655 113.768C87.8975 114.008 87.6655 114.184 87.3695 114.288C87.5055 114.32 87.6255 114.368 87.7295 114.432C87.8255 114.496 87.9055 114.568 87.9615 114.64C88.0175 114.72 88.0655 114.816 88.1055 114.928C88.1375 115.048 88.1615 115.152 88.1775 115.24C88.1935 115.328 88.2015 115.44 88.2175 115.584C88.2175 115.624 88.2255 115.696 88.2335 115.8C88.2415 115.912 88.2495 115.984 88.2495 116.016C88.2495 116.048 88.2575 116.112 88.2655 116.192C88.2735 116.28 88.2815 116.344 88.2895 116.376C88.2895 116.408 88.2975 116.464 88.3135 116.528C88.3295 116.592 88.3375 116.648 88.3535 116.68C88.3615 116.712 88.3775 116.752 88.3935 116.8C88.4095 116.848 88.4255 116.88 88.4495 116.912C88.4655 116.944 88.4895 116.976 88.5215 117H87.4495C87.4335 116.984 87.4175 116.96 87.4015 116.928C87.3855 116.896 87.3775 116.864 87.3695 116.832C87.3535 116.8 87.3455 116.768 87.3455 116.736C87.3375 116.704 87.3295 116.664 87.3215 116.616C87.3135 116.568 87.3135 116.52 87.3135 116.488L87.2975 116.344L87.2815 116.2C87.2815 116.168 87.2735 116.112 87.2735 116.032C87.2655 115.952 87.2655 115.896 87.2655 115.864C87.2335 115.4 87.1375 115.088 86.9695 114.912C86.8015 114.736 86.4815 114.648 86.0175 114.648H84.6895V117H83.6975V111.304ZM84.6895 112.12V113.904H86.0095C86.2015 113.904 86.3615 113.896 86.4975 113.872C86.6255 113.856 86.7615 113.816 86.8975 113.76C87.0335 113.704 87.1375 113.608 87.2095 113.48C87.2815 113.352 87.3215 113.192 87.3215 112.992C87.3215 112.816 87.2895 112.664 87.2255 112.544C87.1615 112.424 87.0655 112.336 86.9455 112.272C86.8255 112.216 86.7055 112.176 86.5775 112.152C86.4495 112.136 86.3055 112.12 86.1375 112.12H84.6895ZM89.1783 114.144C89.2743 113.216 89.8743 112.744 90.9863 112.744C91.4983 112.744 91.9143 112.848 92.2183 113.048C92.5223 113.256 92.6823 113.568 92.6823 113.992V116.088C92.6823 116.208 92.6903 116.288 92.7223 116.328C92.7543 116.376 92.8103 116.392 92.8983 116.392C92.9623 116.392 93.0263 116.392 93.1063 116.376V117.016C92.8663 117.08 92.6743 117.104 92.5143 117.104C92.1223 117.104 91.8983 116.944 91.8423 116.608C91.4903 116.944 91.0103 117.104 90.3943 117.104C89.9623 117.104 89.6263 117 89.3783 116.776C89.1223 116.552 89.0023 116.256 89.0023 115.872C89.0023 115.76 89.0103 115.648 89.0423 115.544C89.0663 115.448 89.0983 115.36 89.1303 115.28C89.1623 115.208 89.2183 115.136 89.2983 115.072C89.3783 115.008 89.4423 114.96 89.4903 114.912C89.5383 114.872 89.6263 114.832 89.7383 114.792C89.8503 114.76 89.9383 114.728 89.9943 114.712C90.0503 114.696 90.1463 114.672 90.2903 114.648C90.4263 114.632 90.5143 114.616 90.5623 114.608C90.6103 114.6 90.7063 114.584 90.8503 114.568C91.1703 114.528 91.3943 114.496 91.5143 114.464C91.6263 114.432 91.7063 114.392 91.7543 114.328C91.7863 114.288 91.8103 114.192 91.8103 114.032C91.8103 113.616 91.5223 113.408 90.9623 113.408C90.6583 113.408 90.4423 113.464 90.3063 113.576C90.1623 113.688 90.0743 113.88 90.0423 114.144H89.1783ZM91.8023 114.928C91.7303 114.968 91.6503 115 91.5623 115.032C91.4663 115.064 91.3943 115.08 91.3383 115.088C91.2823 115.096 91.1943 115.104 91.0743 115.12C90.9543 115.136 90.8743 115.152 90.8423 115.152C90.7303 115.168 90.6423 115.184 90.5783 115.2C90.5143 115.216 90.4343 115.232 90.3383 115.264C90.2423 115.296 90.1703 115.336 90.1223 115.384C90.0743 115.432 90.0263 115.488 89.9943 115.568C89.9543 115.648 89.9383 115.736 89.9383 115.84C89.9383 116.04 90.0023 116.192 90.1303 116.296C90.2583 116.408 90.4423 116.456 90.6823 116.456C91.0823 116.456 91.3943 116.352 91.6183 116.128C91.7383 116.008 91.8023 115.768 91.8023 115.416V114.928ZM97.5756 111.304V117H96.7196V116.432C96.4556 116.888 96.0156 117.112 95.3996 117.112C94.8156 117.112 94.3516 116.92 94.0076 116.52C93.6636 116.128 93.4956 115.6 93.4956 114.928C93.4956 114.272 93.6636 113.744 93.9996 113.352C94.3356 112.96 94.7916 112.76 95.3676 112.76C95.9436 112.76 96.3836 112.976 96.6796 113.408V111.304H97.5756ZM95.5356 113.496C95.1836 113.496 94.9116 113.624 94.7116 113.88C94.5116 114.136 94.4156 114.48 94.4156 114.912C94.4156 115.368 94.5116 115.728 94.7196 115.984C94.9276 116.248 95.2076 116.376 95.5676 116.376C95.9196 116.376 96.1996 116.248 96.3996 115.992C96.5996 115.736 96.7036 115.384 96.7036 114.928C96.7036 114.48 96.5996 114.128 96.3916 113.872C96.1836 113.624 95.9036 113.496 95.5356 113.496ZM99.4902 111.28V112.176H98.5782V111.28H99.4902ZM99.4902 112.872V117H98.5782V112.872H99.4902ZM102.396 112.752C103.02 112.752 103.524 112.952 103.9 113.344C104.268 113.744 104.46 114.272 104.46 114.936C104.46 115.608 104.268 116.144 103.9 116.536C103.532 116.936 103.028 117.128 102.396 117.128C101.748 117.128 101.236 116.936 100.86 116.536C100.476 116.144 100.292 115.608 100.292 114.936C100.292 114.272 100.476 113.744 100.86 113.344C101.244 112.952 101.756 112.752 102.396 112.752ZM102.38 113.472C102.012 113.472 101.732 113.608 101.524 113.864C101.316 114.128 101.212 114.488 101.212 114.936C101.212 115.4 101.316 115.768 101.524 116.024C101.732 116.288 102.02 116.416 102.388 116.416C102.74 116.416 103.02 116.288 103.228 116.024C103.436 115.76 103.54 115.392 103.54 114.928C103.54 114.48 103.436 114.12 103.228 113.864C103.02 113.608 102.74 113.472 102.38 113.472ZM108.498 114.072H107.626C107.57 113.64 107.274 113.416 106.73 113.416C106.49 113.416 106.314 113.464 106.186 113.544C106.058 113.632 105.994 113.752 105.994 113.896C105.994 113.944 105.994 113.992 106.002 114.024C106.01 114.064 106.026 114.096 106.05 114.128C106.074 114.16 106.098 114.184 106.114 114.2C106.13 114.224 106.17 114.248 106.218 114.264C106.266 114.288 106.298 114.304 106.33 114.32C106.362 114.336 106.41 114.352 106.482 114.368C106.546 114.384 106.602 114.4 106.642 114.408C106.682 114.424 106.746 114.44 106.842 114.456C106.93 114.472 107.002 114.488 107.05 114.496C107.258 114.544 107.402 114.584 107.498 114.608C107.594 114.632 107.73 114.68 107.906 114.752C108.082 114.824 108.218 114.896 108.306 114.976C108.386 115.056 108.466 115.16 108.538 115.296C108.61 115.432 108.65 115.584 108.65 115.76C108.65 116.176 108.482 116.512 108.162 116.752C107.834 117 107.394 117.12 106.85 117.12C106.258 117.12 105.81 117 105.498 116.752C105.178 116.512 105.01 116.152 104.994 115.68H105.866C105.914 116.2 106.242 116.456 106.866 116.456C107.13 116.456 107.346 116.408 107.506 116.296C107.666 116.184 107.754 116.04 107.754 115.856C107.754 115.768 107.73 115.688 107.69 115.624C107.65 115.56 107.586 115.512 107.498 115.464C107.402 115.416 107.314 115.384 107.234 115.36C107.154 115.336 107.042 115.304 106.906 115.272L106.858 115.264C106.842 115.264 106.834 115.256 106.818 115.256C106.802 115.256 106.786 115.248 106.77 115.24C106.178 115.096 105.81 114.984 105.65 114.904C105.266 114.728 105.082 114.424 105.082 114C105.082 113.616 105.226 113.312 105.53 113.088C105.826 112.864 106.242 112.752 106.77 112.752C107.274 112.752 107.69 112.864 108.01 113.08C108.33 113.304 108.498 113.632 108.498 114.072Z" fill="white"/>
<path d="M43.304 75.3822L49 75.3822L49 76.3822L46.44 76.3822L46.44 78.9902L49 78.9902L49 79.9902L43.304 79.9902L43.304 78.9902L45.568 78.9902L45.568 76.3822L43.304 76.3822L43.304 75.3822ZM47.712 70.6248C48.16 70.7288 48.512 70.9528 48.76 71.2888C49.016 71.6248 49.136 72.0328 49.136 72.4968C49.136 73.1208 48.936 73.6168 48.536 73.9848C48.136 74.3528 47.616 74.5288 46.984 74.5288C46.344 74.5288 45.808 74.3448 45.384 73.9688C44.968 73.5928 44.752 73.1128 44.752 72.5288C44.752 71.9288 44.96 71.4488 45.376 71.0968C45.792 70.7448 46.352 70.5688 47.064 70.5688L47.16 70.5688L47.16 73.6168C47.576 73.6088 47.904 73.5048 48.128 73.3048C48.352 73.1128 48.464 72.8328 48.464 72.4808C48.464 72.2328 48.408 72.0328 48.288 71.8728C48.168 71.7128 47.976 71.5928 47.712 71.4968L47.712 70.6248ZM46.552 71.4808C46.208 71.5128 45.936 71.6168 45.736 71.8088C45.536 72.0008 45.432 72.2408 45.432 72.5368C45.432 72.8408 45.528 73.0808 45.72 73.2648C45.912 73.4488 46.192 73.5608 46.552 73.6008L46.552 71.4808ZM43.28 68.9395L44.176 68.9395L44.176 69.8515L43.28 69.8515L43.28 68.9395ZM44.872 68.9395L49 68.9395L49 69.8515L44.872 69.8515L44.872 68.9395ZM44.872 64.1618L48.52 64.1618C49.232 64.1618 49.76 64.3138 50.096 64.6178C50.44 64.9218 50.608 65.4258 50.608 66.1458C50.608 67.2818 50.192 67.8978 49.352 67.9938L49.352 67.0818C49.768 67.0018 49.968 66.6818 49.968 66.1218C49.968 65.7458 49.872 65.4738 49.68 65.2978C49.488 65.1218 49.184 65.0338 48.752 65.0338L48.264 65.0338C48.728 65.3378 48.96 65.7698 48.96 66.3458C48.96 66.8978 48.776 67.3378 48.408 67.6578C48.04 67.9778 47.536 68.1378 46.904 68.1378C46.264 68.1378 45.744 67.9698 45.352 67.6338C44.96 67.2978 44.76 66.8578 44.76 66.2978C44.76 66.0098 44.816 65.7618 44.928 65.5618C45.04 65.3698 45.208 65.1858 45.448 65.0098L44.872 65.0098L44.872 64.1618ZM45.496 66.1378C45.496 66.4818 45.624 66.7538 45.864 66.9458C46.112 67.1378 46.456 67.2338 46.888 67.2338C47.304 67.2338 47.64 67.1378 47.88 66.9378C48.128 66.7378 48.248 66.4738 48.248 66.1378C48.248 65.8018 48.128 65.5298 47.872 65.3298C47.616 65.1378 47.272 65.0338 46.84 65.0338C46.424 65.0338 46.096 65.1378 45.856 65.3298C45.616 65.5218 45.496 65.7938 45.496 66.1378ZM43.304 62.2916L45.44 62.2916C44.992 61.9876 44.768 61.5556 44.768 60.9876C44.768 60.5396 44.896 60.1956 45.136 59.9396C45.376 59.6916 45.736 59.5636 46.2 59.5636L49 59.5636L49 60.4836L46.496 60.4836C46.184 60.4836 45.944 60.5396 45.776 60.6516C45.616 60.7636 45.528 60.9716 45.528 61.2836C45.528 61.6356 45.648 61.8916 45.872 62.0516C46.104 62.2116 46.408 62.2916 46.784 62.2916L49 62.2916L49 63.1956L43.304 63.1956L43.304 62.2916ZM44.872 56.5938L45.536 56.5938L45.536 57.4258L47.712 57.4258C47.84 57.4258 47.936 57.4258 47.984 57.4178C48.032 57.4178 48.088 57.4018 48.152 57.3698C48.216 57.3458 48.256 57.2978 48.272 57.2338C48.296 57.1698 48.304 57.0738 48.304 56.9538C48.304 56.8098 48.304 56.6898 48.288 56.5938L49.008 56.5938C49.032 56.7778 49.04 56.9858 49.04 57.2098C49.04 57.3698 49.032 57.5138 49.008 57.6338C48.984 57.7538 48.952 57.8498 48.92 57.9298C48.888 58.0098 48.84 58.0818 48.76 58.1298C48.68 58.1858 48.616 58.2258 48.568 58.2578C48.52 58.2898 48.424 58.3058 48.296 58.3218C48.168 58.3378 48.072 58.3378 48.008 58.3378L47.656 58.3378L47.608 58.3378L47.56 58.3378L47.504 58.3378L45.536 58.3378L45.536 59.0258L44.872 59.0258L44.872 58.3378L43.632 58.3378L43.632 57.4258L44.872 57.4258L44.872 56.5938Z" fill="black"/>
<path d="M52 22L49.6906 26H54.3094L52 22ZM52 115.5L54.3094 111.5H49.6906L52 115.5ZM52 25.6H51.6V111.9H52H52.4V25.6H52Z" fill="black"/>
</svg>
