<svg width="58" height="58" viewBox="0 0 58 58" fill="none" xmlns="http://www.w3.org/2000/svg">
<rect width="58" height="58" rx="14" fill="#F3F3F3"/>
<rect x="0.5" y="0.5" width="57" height="57" rx="13.5" stroke="#B02E0C" stroke-opacity="0.04"/>
<path d="M32.3799 4.5061C36.6859 4.5061 40.5802 5.12037 43.3945 6.1106C44.8021 6.60586 45.9344 7.19348 46.7129 7.84106C47.4918 8.48909 47.9062 9.1876 47.9062 9.90649C47.9061 10.6253 47.4918 11.324 46.7129 11.9719C45.9344 12.6194 44.802 13.2072 43.3945 13.7024C40.5802 14.6926 36.6858 15.3069 32.3799 15.3069C28.0739 15.3069 24.1795 14.6926 21.3652 13.7024C19.9577 13.2071 18.8253 12.6195 18.0469 11.9719C17.268 11.324 16.8546 10.6253 16.8545 9.90649C16.8545 9.18766 17.2681 8.48904 18.0469 7.84106C18.8253 7.19352 19.9578 6.60584 21.3652 6.1106C24.1795 5.12039 28.0739 4.50612 32.3799 4.5061Z" fill="#1487FA" stroke="black" stroke-width="0.192867"/>
<rect x="16.9531" y="10.0027" width="30.8587" height="38.1877" fill="#1487FA"/>
<path d="M32.9521 42.6013V42.697C33.0794 42.6986 33.2066 42.7012 33.333 42.7039L33.334 42.6082C33.4617 42.6109 33.589 42.6141 33.7158 42.6179L33.7139 42.7136C33.8409 42.7174 33.9676 42.7215 34.0938 42.7263L34.0967 42.6306C34.2244 42.6355 34.3517 42.6422 34.4785 42.6482L34.4746 42.7429C34.6016 42.7489 34.7285 42.7554 34.8545 42.7625L34.8594 42.6667C34.9872 42.6739 35.1145 42.6819 35.2412 42.6902L35.2354 42.7859C35.3622 42.7941 35.4886 42.8029 35.6143 42.8123L35.6211 42.7156C35.7487 42.725 35.8756 42.7363 36.002 42.7468L35.9951 42.8425C36.1217 42.8531 36.2477 42.8641 36.373 42.8757L36.3818 42.78C36.5091 42.7919 36.6357 42.8052 36.7617 42.8181L36.7529 42.9128C36.8795 42.9258 37.0057 42.9388 37.1309 42.9529L37.1406 42.8582C37.268 42.8725 37.3946 42.8876 37.5205 42.9031L37.5098 42.9978C37.6361 43.0133 37.7619 43.0291 37.8867 43.0457L37.8984 42.9509C38.0256 42.9678 38.1518 42.9856 38.2773 43.0037L38.2646 43.0984C38.3908 43.1165 38.5162 43.1348 38.6406 43.1541L38.6543 43.0593C38.7808 43.0789 38.9065 43.0992 39.0312 43.1199L39.0166 43.2146C39.1427 43.2355 39.2684 43.257 39.3926 43.2791L39.4082 43.1853C39.5338 43.2076 39.6586 43.2292 39.7822 43.2527H39.7832L39.7646 43.3474C39.8906 43.3713 40.0158 43.3956 40.1396 43.4207L40.1582 43.3279C40.2832 43.3532 40.4075 43.3776 40.5303 43.4041L40.5107 43.4978C40.6361 43.5248 40.7608 43.5526 40.8838 43.5808L40.9043 43.488C41.0293 43.5167 41.1529 43.546 41.2754 43.5759L41.2529 43.6687C41.3769 43.699 41.4998 43.73 41.6211 43.7615L41.6445 43.6677C41.7695 43.7002 41.8926 43.7346 42.0146 43.7683L41.9902 43.8601C42.113 43.894 42.2347 43.9285 42.3545 43.9636L42.3799 43.8708C42.5037 43.9072 42.6255 43.9455 42.7461 43.9832L42.7188 44.074C42.8412 44.1122 42.9622 44.1516 43.0811 44.1912L43.1104 44.1013C43.2319 44.1417 43.3519 44.1816 43.4697 44.2234L43.4385 44.3142C43.5595 44.3571 43.679 44.4008 43.7959 44.4451L43.8291 44.3552C43.95 44.401 44.0682 44.4486 44.1846 44.4958L44.1494 44.5837C44.268 44.6318 44.3843 44.6807 44.498 44.7302L44.5361 44.6423C44.6543 44.6938 44.7699 44.7457 44.8828 44.7986L44.8428 44.8855C44.9596 44.9403 45.0737 44.9962 45.1846 45.0525L45.2266 44.9675C45.3423 45.0263 45.4542 45.0869 45.5635 45.1472L45.5195 45.2292C45.6321 45.2914 45.7413 45.3549 45.8467 45.4187L45.8945 45.3376C46.0056 45.4049 46.1127 45.4728 46.2158 45.5417L46.1641 45.6208C46.2708 45.6923 46.3731 45.7645 46.4707 45.8376L46.5273 45.7615C46.6319 45.8398 46.731 45.9195 46.8252 45.9998L46.7646 46.072C46.8625 46.1554 46.9542 46.2398 47.04 46.325L47.1064 46.2576C47.1997 46.3501 47.2868 46.4431 47.3662 46.5378L47.293 46.5994C47.3751 46.6974 47.4497 46.7965 47.5156 46.8962L47.5957 46.8435V46.8425C47.668 46.9518 47.7297 47.0629 47.7832 47.1746L47.6973 47.2156C47.7511 47.328 47.795 47.4414 47.8281 47.5554L47.9209 47.5291V47.5281C47.9569 47.6518 47.979 47.7771 47.9912 47.9031L47.8975 47.9128C47.9033 47.973 47.9062 48.0338 47.9062 48.0945C47.9062 48.1549 47.9033 48.2152 47.8975 48.2751L47.9912 48.2839C47.979 48.41 47.9568 48.5352 47.9209 48.6589L47.8281 48.6326C47.795 48.7466 47.7512 48.8599 47.6973 48.9724L47.7822 49.0134C47.7288 49.1249 47.6679 49.2363 47.5957 49.3455L47.5156 49.2917C47.4497 49.3915 47.3751 49.4905 47.293 49.5886L47.3662 49.6492C47.2868 49.744 47.1997 49.8369 47.1064 49.9294L47.04 49.863C46.9542 49.9482 46.8625 50.0326 46.7646 50.116L46.8252 50.1873C46.731 50.2676 46.6319 50.3472 46.5273 50.4255L46.4707 50.3503C46.3731 50.4235 46.2708 50.4957 46.1641 50.5671L46.2168 50.6453C46.1135 50.7144 46.0058 50.782 45.8945 50.8494L45.8467 50.7693C45.7414 50.833 45.6321 50.8966 45.5195 50.9587L45.5635 51.0408C45.4542 51.1011 45.3423 51.1617 45.2266 51.2205L45.1846 51.1365C45.0737 51.1927 44.9595 51.2477 44.8428 51.3025L44.8828 51.3884C44.7699 51.4414 44.6543 51.4932 44.5361 51.5447L44.498 51.4578C44.3843 51.5073 44.268 51.5561 44.1494 51.6042L44.1846 51.6912C44.0681 51.7384 43.95 51.786 43.8291 51.8318L43.7959 51.7439C43.6789 51.7882 43.5596 51.8318 43.4385 51.8748L43.4697 51.9646C43.3519 52.0064 43.2319 52.0462 43.1104 52.0867L43.0811 51.9978C42.9622 52.0373 42.8412 52.0758 42.7188 52.114L42.7461 52.2039C42.6255 52.2415 42.5037 52.2798 42.3799 52.3162L42.3545 52.2244C42.2348 52.2595 42.113 52.294 41.9902 52.3279L42.0146 52.4187C41.8926 52.4524 41.7695 52.4869 41.6445 52.5193L41.6211 52.4265C41.4998 52.458 41.3769 52.489 41.2529 52.5193L41.2754 52.6111C41.1529 52.641 41.0293 52.6703 40.9043 52.699L40.8838 52.6072C40.7608 52.6354 40.6361 52.6631 40.5107 52.6902L40.5303 52.783C40.4075 52.8094 40.2832 52.8338 40.1582 52.8591L40.1396 52.7673C40.0158 52.7924 39.8906 52.8167 39.7646 52.8406L39.7822 52.9343C39.6586 52.9578 39.5338 52.9794 39.4082 53.0017L39.3926 52.9089C39.2683 52.931 39.1427 52.9534 39.0166 52.9744L39.0312 53.0671C38.9065 53.0878 38.7809 53.1081 38.6543 53.1277L38.6406 53.0339C38.5161 53.0532 38.3908 53.0725 38.2646 53.0906L38.2773 53.1843C38.1518 53.2023 38.0256 53.2202 37.8984 53.2371L37.8867 53.1423C37.7618 53.1589 37.6362 53.1747 37.5098 53.1902L37.5205 53.2839C37.3946 53.2994 37.268 53.3145 37.1406 53.3289L37.1309 53.2351C37.0057 53.2492 36.8795 53.2622 36.7529 53.2751L36.7617 53.3689C36.6357 53.3818 36.5091 53.3951 36.3818 53.407L36.373 53.3132C36.2477 53.3249 36.1217 53.3359 35.9951 53.3464L36.002 53.4402C35.8756 53.4507 35.7487 53.462 35.6211 53.4714L35.6143 53.3757C35.4885 53.3851 35.3622 53.3938 35.2354 53.4021L35.2412 53.4968C35.1145 53.5051 34.9872 53.5131 34.8594 53.5203L34.8545 53.4255C34.7285 53.4326 34.6016 53.4391 34.4746 53.4451L34.4785 53.5388C34.3517 53.5448 34.2245 53.5515 34.0967 53.5564L34.0938 53.4617C33.9676 53.4665 33.8409 53.4706 33.7139 53.4744L33.7158 53.5691C33.589 53.5729 33.4617 53.5762 33.334 53.5789L33.333 53.4841C33.2066 53.4868 33.0794 53.4894 32.9521 53.491V53.5857C32.8256 53.5873 32.6986 53.5881 32.5713 53.5886V53.4939C32.5076 53.4942 32.4437 53.4949 32.3799 53.4949C32.3161 53.4949 32.2521 53.4942 32.1885 53.4939V53.5886C32.0608 53.5881 31.9335 53.5873 31.8066 53.5857L31.8076 53.491C31.6804 53.4894 31.5531 53.4868 31.4268 53.4841L31.4248 53.5789C31.2971 53.5761 31.1698 53.5729 31.043 53.5691L31.0459 53.4744C30.9188 53.4706 30.7922 53.4665 30.666 53.4617L30.6621 53.5564C30.5343 53.5515 30.4071 53.5448 30.2803 53.5388L30.2852 53.4451C30.1581 53.4391 30.0313 53.4326 29.9053 53.4255L29.9004 53.5203C29.7726 53.5131 29.6453 53.5051 29.5186 53.4968L29.5244 53.4021C29.3976 53.3938 29.2713 53.3851 29.1455 53.3757L29.1387 53.4714C29.0108 53.4619 28.8836 53.4508 28.7568 53.4402L28.7646 53.3464C28.6381 53.3359 28.5121 53.3249 28.3867 53.3132L28.3779 53.407C28.2503 53.3951 28.1234 53.3819 27.9971 53.3689L28.0068 53.2751C27.8802 53.2621 27.7542 53.2492 27.6289 53.2351L27.6182 53.3289C27.4908 53.3145 27.3642 53.2994 27.2383 53.2839L27.25 53.1902C27.1236 53.1747 26.9979 53.1589 26.873 53.1423L26.8604 53.2361C26.7336 53.2192 26.6076 53.2023 26.4824 53.1843L26.4961 53.0906C26.3697 53.0724 26.2438 53.0532 26.1191 53.0339L26.1045 53.1277C25.9779 53.1081 25.8523 53.0878 25.7275 53.0671L25.7441 52.9744C25.618 52.9534 25.4925 52.931 25.3682 52.9089L25.3516 53.0017C25.2257 52.9794 25.1004 52.9588 24.9766 52.9353L24.9951 52.8406C24.8691 52.8167 24.744 52.7924 24.6201 52.7673L24.6006 52.8591C24.4756 52.8338 24.3513 52.8094 24.2285 52.783L24.249 52.6902C24.1238 52.6632 23.9998 52.6354 23.877 52.6072L23.8555 52.699C23.7305 52.6703 23.6068 52.641 23.4844 52.6111L23.5068 52.5193C23.3828 52.489 23.26 52.458 23.1387 52.4265L23.1143 52.5183C22.9894 52.4859 22.8661 52.4524 22.7441 52.4187L22.7705 52.3279C22.6477 52.294 22.5261 52.2595 22.4062 52.2244L22.3789 52.3162C22.2551 52.2798 22.1333 52.2415 22.0127 52.2039L22.042 52.114C21.9197 52.0758 21.7985 52.0373 21.6797 51.9978L21.6494 52.0867C21.5279 52.0462 21.4078 52.0064 21.29 51.9646L21.3223 51.8748C21.2012 51.8318 21.0817 51.7882 20.9648 51.7439L20.9307 51.8318C20.8095 51.7859 20.6909 51.7385 20.5742 51.6912L20.6104 51.6042C20.4918 51.5561 20.3755 51.5073 20.2617 51.4578L20.2227 51.5447C20.1049 51.4934 19.9895 51.4422 19.877 51.3894L19.918 51.3025C19.8012 51.2478 19.687 51.1927 19.5762 51.1365L19.5322 51.2205C19.4165 51.1617 19.3046 51.1011 19.1953 51.0408L19.2412 50.9587C19.1286 50.8965 19.0195 50.8331 18.9141 50.7693L18.8652 50.8494C18.7539 50.782 18.6463 50.7144 18.543 50.6453L18.5957 50.5671C18.489 50.4957 18.3867 50.4235 18.2891 50.3503L18.2314 50.4255C18.1269 50.3472 18.0278 50.2676 17.9336 50.1873L17.9951 50.116C17.8973 50.0326 17.8055 49.9482 17.7197 49.863L17.6533 49.9285C17.5601 49.8359 17.4719 49.744 17.3926 49.6492L17.4668 49.5886C17.3847 49.4906 17.3101 49.3915 17.2441 49.2917L17.1641 49.3445C17.092 49.2355 17.0299 49.1248 16.9766 49.0134L17.0625 48.9724C17.0086 48.8599 16.9648 48.7466 16.9316 48.6326L16.8389 48.6589C16.803 48.5352 16.7797 48.41 16.7676 48.2839L16.8633 48.2751L16.8545 48.0945C16.8545 48.0338 16.8575 47.973 16.8633 47.9128L16.7676 47.9031C16.7798 47.777 16.8029 47.6518 16.8389 47.5281L16.8398 47.5291L16.9316 47.5554C16.9648 47.4414 17.0086 47.3281 17.0625 47.2156L16.9756 47.1746C17.0275 47.066 17.0885 46.9586 17.1582 46.8523L17.1641 46.8435L17.2441 46.8962C17.3101 46.7965 17.3847 46.6974 17.4668 46.5994L17.3926 46.5378C17.4719 46.4431 17.5601 46.3511 17.6533 46.2585L17.7197 46.325C17.8055 46.2398 17.8973 46.1554 17.9951 46.072L17.9336 45.9998C18.028 45.9193 18.1277 45.84 18.2324 45.7615L18.2891 45.8376C18.3867 45.7645 18.489 45.6923 18.5957 45.6208L18.543 45.5427C18.6464 45.4735 18.7538 45.4051 18.8652 45.3376L18.9141 45.4187C19.0194 45.3549 19.1286 45.2914 19.2412 45.2292L19.1953 45.1472C19.3046 45.0869 19.4165 45.0263 19.5322 44.9675L19.5762 45.0525C19.6871 44.9962 19.8011 44.9403 19.918 44.8855L19.877 44.7986L19.876 44.7976C19.9887 44.7447 20.1047 44.6937 20.2227 44.6423L20.2617 44.7302C20.3755 44.6807 20.4917 44.6319 20.6104 44.5837L20.5742 44.4958C20.6909 44.4485 20.8095 44.4011 20.9307 44.3552L20.9648 44.4451C21.0818 44.4007 21.2012 44.3572 21.3223 44.3142L21.29 44.2234C21.4079 44.1816 21.5278 44.1408 21.6494 44.1003L21.6797 44.1912C21.7986 44.1516 21.9196 44.1122 22.042 44.074L22.0127 43.9832C22.1332 43.9455 22.2551 43.9072 22.3789 43.8708L22.4062 43.9636C22.526 43.9285 22.6477 43.894 22.7705 43.8601L22.7441 43.7683C22.8661 43.7346 22.9894 43.7011 23.1143 43.6687L23.1387 43.7615C23.26 43.73 23.3828 43.699 23.5068 43.6687L23.4844 43.5759C23.6068 43.546 23.7305 43.5167 23.8555 43.488L23.877 43.5808C23.9998 43.5526 24.1238 43.5248 24.249 43.4978L24.2285 43.4041C24.3513 43.3776 24.4756 43.3532 24.6006 43.3279L24.6201 43.4207C24.744 43.3956 24.8691 43.3713 24.9951 43.3474L24.9775 43.2527L24.9766 43.2517C25.1004 43.2282 25.2257 43.2076 25.3516 43.1853L25.3682 43.2791C25.4924 43.257 25.618 43.2355 25.7441 43.2146L25.7275 43.1199C25.8523 43.0992 25.9779 43.0789 26.1045 43.0593L26.1191 43.1541C26.2438 43.1348 26.3697 43.1165 26.4961 43.0984L26.4824 43.0037C26.6076 42.9857 26.7336 42.9678 26.8604 42.9509L26.873 43.0457C26.9979 43.0291 27.1236 43.0133 27.25 42.9978L27.2383 42.9031C27.3642 42.8876 27.4908 42.8725 27.6182 42.8582L27.6289 42.9529C27.7542 42.9388 27.8802 42.9258 28.0068 42.9128L27.9971 42.8181C28.1234 42.8051 28.2503 42.7919 28.3779 42.78L28.3867 42.8757C28.5121 42.8641 28.6381 42.8531 28.7646 42.8425L28.7568 42.7468C28.8836 42.7362 29.0108 42.7251 29.1387 42.7156L29.1455 42.8123C29.2713 42.8029 29.3976 42.7942 29.5244 42.7859L29.5186 42.6902C29.6453 42.6819 29.7726 42.6739 29.9004 42.6667L29.9053 42.7625C30.0313 42.7554 30.1581 42.7489 30.2852 42.7429L30.2803 42.6482C30.4071 42.6422 30.5343 42.6355 30.6621 42.6306L30.666 42.7263C30.7922 42.7215 30.9188 42.7174 31.0459 42.7136L31.043 42.6179C31.1698 42.6141 31.2971 42.6109 31.4248 42.6082L31.4268 42.7039C31.5532 42.7012 31.6804 42.6986 31.8076 42.697L31.8066 42.6013C31.9335 42.5997 32.0608 42.5989 32.1885 42.5984V42.6941H32.5713V42.5984C32.6986 42.5989 32.8256 42.5997 32.9521 42.6013Z" fill="#1487FA" stroke="black" stroke-width="0.192867" stroke-dasharray="0.39 0.39"/>
<path d="M16.8594 9.90625V48.2868" stroke="black" stroke-width="0.192867"/>
<path d="M47.9062 9.90625V48.2868" stroke="black" stroke-width="0.192867"/>
<path d="M32.3799 4.5061C36.6859 4.5061 40.5802 5.12037 43.3945 6.1106C44.8021 6.60586 45.9344 7.19348 46.7129 7.84106C47.4918 8.48909 47.9062 9.1876 47.9062 9.90649C47.9061 10.6253 47.4918 11.324 46.7129 11.9719C45.9344 12.6194 44.802 13.2072 43.3945 13.7024C40.5802 14.6926 36.6858 15.3069 32.3799 15.3069C28.0739 15.3069 24.1795 14.6926 21.3652 13.7024C19.9577 13.2071 18.8253 12.6195 18.0469 11.9719C17.268 11.324 16.8546 10.6253 16.8545 9.90649C16.8545 9.18766 17.2681 8.48904 18.0469 7.84106C18.8253 7.19352 19.9578 6.60584 21.3652 6.1106C24.1795 5.12039 28.0739 4.50612 32.3799 4.5061Z" fill="#1487FA" stroke="black" stroke-width="0.192867"/>
<path d="M27.1962 46.649H28.3345C28.571 46.649 28.7669 46.703 28.9189 46.8111C29.0675 46.9192 29.1452 47.0881 29.1452 47.3178C29.1452 47.463 29.108 47.588 29.0405 47.6893C28.9696 47.7907 28.8716 47.865 28.7466 47.9089C28.804 47.9224 28.8547 47.9427 28.8986 47.9697C28.9392 47.9967 28.9729 48.0271 28.9966 48.0575C29.0202 48.0913 29.0405 48.1318 29.0574 48.1791C29.0709 48.2298 29.081 48.2737 29.0878 48.3108C29.0945 48.348 29.0979 48.3953 29.1047 48.4561C29.1047 48.473 29.108 48.5034 29.1114 48.5473C29.1148 48.5946 29.1182 48.625 29.1182 48.6385C29.1182 48.652 29.1216 48.679 29.1249 48.7128C29.1283 48.75 29.1317 48.777 29.1351 48.7905C29.1351 48.804 29.1384 48.8276 29.1452 48.8547C29.152 48.8817 29.1553 48.9053 29.1621 48.9188C29.1655 48.9324 29.1722 48.9492 29.179 48.9695C29.1857 48.9898 29.1925 49.0033 29.2026 49.0168C29.2094 49.0303 29.2195 49.0438 29.233 49.054H28.7804C28.7736 49.0472 28.7669 49.0371 28.7601 49.0236C28.7534 49.01 28.75 48.9965 28.7466 48.983C28.7399 48.9695 28.7365 48.956 28.7365 48.9425C28.7331 48.929 28.7297 48.9121 28.7264 48.8918C28.723 48.8716 28.723 48.8513 28.723 48.8378L28.7162 48.777L28.7095 48.7162C28.7095 48.7027 28.7061 48.679 28.7061 48.6452C28.7027 48.6115 28.7027 48.5878 28.7027 48.5743C28.6892 48.3784 28.6487 48.2467 28.5777 48.1724C28.5068 48.098 28.3717 48.0609 28.1758 48.0609H27.6151V49.054H27.1962V46.649ZM27.6151 46.9935V47.7468H28.1724C28.2535 47.7468 28.321 47.7434 28.3784 47.7332C28.4325 47.7265 28.4899 47.7096 28.5473 47.686C28.6048 47.6623 28.6487 47.6218 28.6791 47.5677C28.7095 47.5137 28.7264 47.4461 28.7264 47.3617C28.7264 47.2874 28.7128 47.2232 28.6858 47.1725C28.6588 47.1219 28.6183 47.0847 28.5676 47.0577C28.5169 47.034 28.4663 47.0172 28.4122 47.007C28.3582 47.0003 28.2974 46.9935 28.2264 46.9935H27.6151ZM29.5103 47.8481C29.5509 47.4563 29.8042 47.257 30.2737 47.257C30.4899 47.257 30.6655 47.3009 30.7939 47.3853C30.9223 47.4732 30.9898 47.6049 30.9898 47.7839V48.6689C30.9898 48.7196 30.9932 48.7533 31.0067 48.7702C31.0202 48.7905 31.0439 48.7972 31.081 48.7972C31.108 48.7972 31.1351 48.7972 31.1688 48.7905V49.0607C31.0675 49.0877 30.9864 49.0979 30.9189 49.0979C30.7534 49.0979 30.6588 49.0303 30.6351 48.8884C30.4865 49.0303 30.2839 49.0979 30.0238 49.0979C29.8414 49.0979 29.6995 49.054 29.5948 48.9594C29.4867 48.8648 29.436 48.7398 29.436 48.5777C29.436 48.5304 29.4394 48.4831 29.4529 48.4392C29.4631 48.3987 29.4766 48.3615 29.4901 48.3277C29.5036 48.2973 29.5272 48.2669 29.561 48.2399C29.5948 48.2129 29.6218 48.1926 29.6421 48.1724C29.6623 48.1555 29.6995 48.1386 29.7468 48.1217C29.7941 48.1082 29.8312 48.0947 29.8549 48.0879C29.8785 48.0812 29.9191 48.071 29.9799 48.0609C30.0373 48.0541 30.0744 48.0474 30.0947 48.044C30.115 48.0406 30.1555 48.0339 30.2163 48.0271C30.3514 48.0102 30.446 47.9967 30.4967 47.9832C30.5439 47.9697 30.5777 47.9528 30.598 47.9258C30.6115 47.9089 30.6216 47.8684 30.6216 47.8008C30.6216 47.6252 30.5 47.5373 30.2636 47.5373C30.1352 47.5373 30.044 47.561 29.9866 47.6083C29.9258 47.6556 29.8887 47.7366 29.8751 47.8481H29.5103ZM30.6183 48.1791C30.5879 48.196 30.5541 48.2095 30.5169 48.223C30.4764 48.2365 30.446 48.2433 30.4223 48.2467C30.3987 48.25 30.3615 48.2534 30.3109 48.2602C30.2602 48.2669 30.2264 48.2737 30.2129 48.2737C30.1656 48.2804 30.1285 48.2872 30.1015 48.294C30.0744 48.3007 30.0407 48.3075 30.0001 48.321C29.9596 48.3345 29.9292 48.3514 29.9089 48.3716C29.8887 48.3919 29.8684 48.4156 29.8549 48.4493C29.838 48.4831 29.8312 48.5203 29.8312 48.5642C29.8312 48.6486 29.8583 48.7128 29.9123 48.7567C29.9663 48.804 30.044 48.8243 30.1454 48.8243C30.3143 48.8243 30.446 48.7804 30.5406 48.6858C30.5912 48.6351 30.6183 48.5338 30.6183 48.3852V48.1791ZM33.0559 46.649V49.054H32.6945V48.8141C32.583 49.0067 32.3972 49.1012 32.1371 49.1012C31.8905 49.1012 31.6946 49.0202 31.5494 48.8513C31.4041 48.6858 31.3332 48.4628 31.3332 48.1791C31.3332 47.9021 31.4041 47.6792 31.546 47.5137C31.6879 47.3482 31.8804 47.2637 32.1236 47.2637C32.3668 47.2637 32.5526 47.3549 32.6776 47.5373V46.649H33.0559ZM32.1945 47.5745C32.0459 47.5745 31.9311 47.6285 31.8466 47.7366C31.7622 47.8447 31.7217 47.99 31.7217 48.1724C31.7217 48.3649 31.7622 48.5169 31.85 48.625C31.9378 48.7364 32.0561 48.7905 32.2081 48.7905C32.3567 48.7905 32.4749 48.7364 32.5593 48.6284C32.6438 48.5203 32.6877 48.3716 32.6877 48.1791C32.6877 47.99 32.6438 47.8413 32.556 47.7332C32.4681 47.6285 32.3499 47.5745 32.1945 47.5745ZM33.8643 46.6388V47.0172H33.4792V46.6388H33.8643ZM33.8643 47.311V49.054H33.4792V47.311H33.8643ZM35.0911 47.2604C35.3546 47.2604 35.5674 47.3448 35.7261 47.5103C35.8815 47.6792 35.9626 47.9021 35.9626 48.1825C35.9626 48.4662 35.8815 48.6925 35.7261 48.858C35.5708 49.0269 35.358 49.108 35.0911 49.108C34.8175 49.108 34.6013 49.0269 34.4426 48.858C34.2805 48.6925 34.2028 48.4662 34.2028 48.1825C34.2028 47.9021 34.2805 47.6792 34.4426 47.5103C34.6047 47.3448 34.8209 47.2604 35.0911 47.2604ZM35.0844 47.5644C34.929 47.5644 34.8108 47.6218 34.7229 47.7299C34.6351 47.8413 34.5912 47.9933 34.5912 48.1825C34.5912 48.3784 34.6351 48.5338 34.7229 48.6419C34.8108 48.7533 34.9324 48.8074 35.0877 48.8074C35.2364 48.8074 35.3546 48.7533 35.4424 48.6419C35.5302 48.5304 35.5741 48.375 35.5741 48.1791C35.5741 47.99 35.5302 47.838 35.4424 47.7299C35.3546 47.6218 35.2364 47.5644 35.0844 47.5644ZM37.6676 47.8177H37.2994C37.2758 47.6353 37.1508 47.5407 36.9211 47.5407C36.8198 47.5407 36.7455 47.561 36.6914 47.5948C36.6374 47.6319 36.6104 47.6826 36.6104 47.7434C36.6104 47.7636 36.6104 47.7839 36.6137 47.7974C36.6171 47.8143 36.6239 47.8278 36.634 47.8413C36.6441 47.8548 36.6543 47.865 36.661 47.8717C36.6678 47.8819 36.6847 47.892 36.7049 47.8988C36.7252 47.9089 36.7387 47.9156 36.7522 47.9224C36.7657 47.9292 36.786 47.9359 36.8164 47.9427C36.8434 47.9494 36.8671 47.9562 36.884 47.9596C36.9008 47.9663 36.9279 47.9731 36.9684 47.9798C37.0056 47.9866 37.036 47.9933 37.0562 47.9967C37.144 48.017 37.2048 48.0339 37.2454 48.044C37.2859 48.0541 37.3433 48.0744 37.4176 48.1048C37.492 48.1352 37.5494 48.1656 37.5865 48.1994C37.6203 48.2332 37.6541 48.2771 37.6845 48.3345C37.7149 48.3919 37.7318 48.4561 37.7318 48.5304C37.7318 48.706 37.6608 48.8479 37.5257 48.9492C37.3872 49.054 37.2015 49.1046 36.9718 49.1046C36.7218 49.1046 36.5327 49.054 36.4009 48.9492C36.2658 48.8479 36.1949 48.6959 36.1881 48.4966H36.5563C36.5766 48.7162 36.7151 48.8243 36.9785 48.8243C37.09 48.8243 37.1812 48.804 37.2488 48.7567C37.3163 48.7094 37.3535 48.6486 37.3535 48.5709C37.3535 48.5338 37.3433 48.5 37.3264 48.473C37.3096 48.446 37.2825 48.4257 37.2454 48.4054C37.2048 48.3852 37.1677 48.3716 37.1339 48.3615C37.1001 48.3514 37.0528 48.3379 36.9954 48.3244L36.9752 48.321C36.9684 48.321 36.965 48.3176 36.9583 48.3176C36.9515 48.3176 36.9448 48.3142 36.938 48.3108C36.688 48.25 36.5327 48.2028 36.4651 48.169C36.303 48.0947 36.2253 47.9663 36.2253 47.7873C36.2253 47.6252 36.2861 47.4968 36.4144 47.4022C36.5394 47.3076 36.7151 47.2604 36.938 47.2604C37.1508 47.2604 37.3264 47.3076 37.4616 47.3988C37.5967 47.4934 37.6676 47.6319 37.6676 47.8177Z" fill="white"/>
<path d="M9.59502 31.7933L12 31.7933L12 32.2155L10.9191 32.2155L10.9191 33.3167L12 33.3167L12 33.7389L9.59502 33.7389L9.59502 33.3167L10.5509 33.3167L10.5509 32.2155L9.59502 32.2155L9.59502 31.7933ZM11.4562 29.7846C11.6453 29.8285 11.794 29.9231 11.8987 30.0649C12.0068 30.2068 12.0574 30.3791 12.0574 30.575C12.0574 30.8384 11.973 31.0479 11.8041 31.2032C11.6352 31.3586 11.4156 31.4329 11.1488 31.4329C10.8786 31.4329 10.6523 31.3552 10.4732 31.1965C10.2976 31.0377 10.2064 30.8351 10.2064 30.5885C10.2064 30.3352 10.2942 30.1325 10.4699 29.9839C10.6455 29.8352 10.882 29.7609 11.1826 29.7609L11.2231 29.7609L11.2231 31.0479C11.3988 31.0445 11.5372 31.0006 11.6318 30.9161C11.7264 30.8351 11.7737 30.7168 11.7737 30.5682C11.7737 30.4635 11.75 30.3791 11.6994 30.3115C11.6487 30.244 11.5676 30.1933 11.4562 30.1528L11.4562 29.7846ZM10.9664 30.146C10.8212 30.1595 10.7063 30.2034 10.6219 30.2845C10.5374 30.3656 10.4935 30.4669 10.4935 30.5919C10.4935 30.7202 10.534 30.8216 10.6151 30.8992C10.6962 30.9769 10.8144 31.0242 10.9664 31.0411L10.9664 30.146ZM9.58489 29.073L9.9632 29.073L9.9632 29.4581L9.58489 29.4581L9.58489 29.073ZM10.2571 29.073L12 29.073L12 29.4581L10.2571 29.4581L10.2571 29.073ZM10.2571 27.0558L11.7973 27.0558C12.098 27.0558 12.3209 27.1199 12.4628 27.2483C12.608 27.3766 12.6789 27.5894 12.6789 27.8934C12.6789 28.3731 12.5033 28.6332 12.1486 28.6737L12.1486 28.2886C12.3243 28.2549 12.4087 28.1198 12.4087 27.8833C12.4087 27.7246 12.3682 27.6097 12.2871 27.5354C12.206 27.4611 12.0777 27.4239 11.8953 27.4239L11.6892 27.4239C11.8852 27.5523 11.9831 27.7347 11.9831 27.9779C11.9831 28.211 11.9054 28.3967 11.75 28.5318C11.5947 28.667 11.3819 28.7345 11.115 28.7345C10.8448 28.7345 10.6252 28.6636 10.4597 28.5217C10.2942 28.3798 10.2098 28.1941 10.2098 27.9576C10.2098 27.836 10.2334 27.7313 10.2807 27.6469C10.328 27.5658 10.3989 27.4881 10.5003 27.4138L10.2571 27.4138L10.2571 27.0558ZM10.5205 27.8901C10.5205 28.0353 10.5746 28.1502 10.6759 28.2312C10.7806 28.3123 10.9259 28.3528 11.1083 28.3528C11.2839 28.3528 11.4258 28.3123 11.5271 28.2278C11.6318 28.1434 11.6825 28.0319 11.6825 27.8901C11.6825 27.7482 11.6318 27.6334 11.5237 27.5489C11.4156 27.4678 11.2704 27.4239 11.088 27.4239C10.9124 27.4239 10.7739 27.4678 10.6725 27.5489C10.5712 27.63 10.5205 27.7448 10.5205 27.8901ZM9.59502 26.2661L10.4969 26.2661C10.3077 26.1378 10.2132 25.9554 10.2132 25.7155C10.2132 25.5264 10.2672 25.3811 10.3685 25.2731C10.4699 25.1683 10.6219 25.1143 10.8178 25.1143L12 25.1143L12 25.5027L10.9428 25.5027C10.811 25.5027 10.7097 25.5264 10.6388 25.5737C10.5712 25.621 10.534 25.7088 10.534 25.8405C10.534 25.9891 10.5847 26.0972 10.6793 26.1648C10.7772 26.2323 10.9056 26.2661 11.0644 26.2661L12 26.2661L12 26.6478L9.59502 26.6478L9.59502 26.2661ZM10.2571 23.8604L10.5374 23.8604L10.5374 24.2117L11.4562 24.2117C11.5102 24.2117 11.5508 24.2117 11.571 24.2083C11.5913 24.2083 11.6149 24.2016 11.642 24.1881C11.669 24.1779 11.6859 24.1577 11.6926 24.1306C11.7028 24.1036 11.7061 24.0631 11.7061 24.0124C11.7061 23.9516 11.7061 23.9009 11.6994 23.8604L12.0034 23.8604C12.0135 23.9381 12.0169 24.0259 12.0169 24.1205C12.0169 24.1881 12.0135 24.2489 12.0034 24.2995C11.9932 24.3502 11.9797 24.3907 11.9662 24.4245C11.9527 24.4583 11.9324 24.4887 11.8987 24.5089C11.8649 24.5326 11.8379 24.5495 11.8176 24.563C11.7973 24.5765 11.7568 24.5833 11.7028 24.59C11.6487 24.5968 11.6082 24.5968 11.5812 24.5968L11.4325 24.5968L11.4123 24.5968L11.392 24.5968L11.3684 24.5968L10.5374 24.5968L10.5374 24.8873L10.2571 24.8873L10.2571 24.5968L9.73351 24.5968L9.73351 24.2117L10.2571 24.2117L10.2571 23.8604Z" fill="black"/>
<path d="M13.7969 9.47632L12.8218 11.1652H14.772L13.7969 9.47632ZM13.7969 48.9541L14.772 47.2652H12.8218L13.7969 48.9541ZM13.7969 10.9963H13.628V47.4341H13.7969H13.9658V10.9963H13.7969Z" fill="black"/>
</svg>
