<svg width="19" height="24" viewBox="0 0 19 24" fill="none" xmlns="http://www.w3.org/2000/svg">
<path fill-rule="evenodd" clip-rule="evenodd" d="M0 3.16292V19.5977C0 21.5427 1.57674 23.1194 3.52174 23.1194H15.2609C17.2059 23.1194 18.7826 21.5427 18.7826 19.5977V7.85857C18.7826 5.91357 17.2059 4.33683 15.2609 4.33683H1.17391C0.525579 4.33683 0 3.81125 0 3.16292ZM3.81522 11.3803C3.81522 10.8941 4.2094 10.4999 4.69565 10.4999H14.087C14.5732 10.4999 14.9674 10.8941 14.9674 11.3803C14.9674 11.8666 14.5732 12.2607 14.087 12.2607H4.69565C4.2094 12.2607 3.81522 11.8666 3.81522 11.3803ZM3.81522 15.489C3.81522 15.0028 4.2094 14.6086 4.69565 14.6086H11.1522C11.6384 14.6086 12.0326 15.0028 12.0326 15.489C12.0326 15.9753 11.6384 16.3694 11.1522 16.3694H4.69565C4.2094 16.3694 3.81522 15.9753 3.81522 15.489Z" fill="#B02E0C"/>
<path d="M0.479878 2.09125C0.888966 2.27471 1.17391 2.68554 1.17391 3.16292H15.2609C15.6662 3.16292 16.0596 3.21428 16.4348 3.31085V2.34827C16.4348 0.919499 15.1693 -0.17802 13.7549 0.0240379L1.07952 1.83481C0.853576 1.86709 0.648829 1.95818 0.479878 2.09125Z" fill="#B02E0C"/>
</svg>
