<svg width="18" height="18" viewBox="0 0 18 18" fill="none" xmlns="http://www.w3.org/2000/svg">
<g opacity="0.6">
<path d="M8.4375 5.88561C7.73557 6.07754 7.3125 6.61616 7.3125 7.125C7.3125 7.63384 7.73557 8.17246 8.4375 8.36439V5.88561Z" fill="#060C12"/>
<path d="M9.5625 9.63561V12.1144C10.2644 11.9225 10.6875 11.3838 10.6875 10.875C10.6875 10.3662 10.2644 9.82754 9.5625 9.63561Z" fill="#060C12"/>
<path fill-rule="evenodd" clip-rule="evenodd" d="M16.5 9C16.5 13.1421 13.1421 16.5 9 16.5C4.85786 16.5 1.5 13.1421 1.5 9C1.5 4.85786 4.85786 1.5 9 1.5C13.1421 1.5 16.5 4.85786 16.5 9ZM9 3.9375C9.31066 3.9375 9.5625 4.18934 9.5625 4.5V4.73755C10.7853 4.9565 11.8125 5.87521 11.8125 7.125C11.8125 7.43566 11.5607 7.6875 11.25 7.6875C10.9393 7.6875 10.6875 7.43566 10.6875 7.125C10.6875 6.61616 10.2644 6.07754 9.5625 5.88561V8.48755C10.7853 8.7065 11.8125 9.62521 11.8125 10.875C11.8125 12.1248 10.7853 13.0435 9.5625 13.2624V13.5C9.5625 13.8107 9.31066 14.0625 9 14.0625C8.68934 14.0625 8.4375 13.8107 8.4375 13.5V13.2624C7.21468 13.0435 6.1875 12.1248 6.1875 10.875C6.1875 10.5643 6.43934 10.3125 6.75 10.3125C7.06066 10.3125 7.3125 10.5643 7.3125 10.875C7.3125 11.3838 7.73557 11.9225 8.4375 12.1144V9.51245C7.21468 9.2935 6.1875 8.37479 6.1875 7.125C6.1875 5.87521 7.21468 4.9565 8.4375 4.73755V4.5C8.4375 4.18934 8.68934 3.9375 9 3.9375Z" fill="#060C12"/>
</g>
</svg>
