<svg width="24" height="24" viewBox="0 0 24 24" fill="none" xmlns="http://www.w3.org/2000/svg">
<path fill-rule="evenodd" clip-rule="evenodd" d="M14.3478 23.913H9.56522C5.05613 23.913 2.80159 23.913 1.40079 22.5122C0 21.1115 0 18.8569 0 14.3478V9.56522C0 5.05613 0 2.80159 1.40079 1.40079C2.80159 0 5.068 0 9.60084 0C10.3254 0 10.906 -5.1e-07 11.3946 0.019921C11.3785 0.115491 11.3701 0.212979 11.3697 0.311546L11.3587 3.7005C11.3586 5.01226 11.3585 6.17153 11.4841 7.10595C11.6203 8.11881 11.933 9.13151 12.7595 9.95803C13.586 10.7845 14.5987 11.0972 15.6116 11.2334C16.546 11.359 17.7053 11.3589 19.017 11.3588L19.1304 11.3588H23.8621C23.913 11.9976 23.913 12.7816 23.913 13.8252V14.3478C23.913 18.8569 23.913 21.1115 22.5122 22.5122C21.1115 23.913 18.8569 23.913 14.3478 23.913ZM3.88587 14.9457C3.88587 14.4504 4.28735 14.0489 4.78261 14.0489H14.3478C14.8431 14.0489 15.2446 14.4504 15.2446 14.9457C15.2446 15.4409 14.8431 15.8424 14.3478 15.8424H4.78261C4.28735 15.8424 3.88587 15.4409 3.88587 14.9457ZM3.88587 19.1304C3.88587 18.6352 4.28735 18.2337 4.78261 18.2337H11.3587C11.854 18.2337 12.2554 18.6352 12.2554 19.1304C12.2554 19.6257 11.854 20.0272 11.3587 20.0272H4.78261C4.28735 20.0272 3.88587 19.6257 3.88587 19.1304Z" fill="#B02E0C"/>
<path d="M20.7466 6.71556L16.0133 2.45557C14.6648 1.2419 13.9905 0.635063 13.1632 0.317595L13.1522 3.58708C13.1522 6.40526 13.1522 7.81435 14.0277 8.68985C14.9032 9.56534 16.3123 9.56534 19.1304 9.56534H23.411C22.9775 8.72334 22.2013 8.02479 20.7466 6.71556Z" fill="#B02E0C"/>
</svg>
