<svg width="251" height="200" viewBox="0 0 251 200" fill="none" xmlns="http://www.w3.org/2000/svg">
<rect x="0.5" width="250" height="200" fill="white"/>
<path opacity="0.2" d="M136.5 64C140.366 64 143.5 67.134 143.5 71C143.5 74.866 140.366 78 136.5 78H200.5C204.366 78 207.5 81.134 207.5 85C207.5 88.866 204.366 92 200.5 92H222.5C226.366 92 229.5 95.134 229.5 99C229.5 102.866 226.366 106 222.5 106H203.5C199.634 106 196.5 109.134 196.5 113C196.5 116.866 199.634 120 203.5 120H209.5C213.366 120 216.5 123.134 216.5 127C216.5 130.866 213.366 134 209.5 134H157.5C156.985 134 156.483 133.944 156 133.839C155.517 133.944 155.015 134 154.5 134H63.5C59.634 134 56.5 130.866 56.5 127C56.5 123.134 59.634 120 63.5 120H24.5C20.634 120 17.5 116.866 17.5 113C17.5 109.134 20.634 106 24.5 106H64.5C68.366 106 71.5 102.866 71.5 99C71.5 95.134 68.366 92 64.5 92H39.5C35.634 92 32.5 88.866 32.5 85C32.5 81.134 35.634 78 39.5 78H79.5C75.634 78 72.5 74.866 72.5 71C72.5 67.134 75.634 64 79.5 64H136.5ZM226.5 120C230.366 120 233.5 123.134 233.5 127C233.5 130.866 230.366 134 226.5 134C222.634 134 219.5 130.866 219.5 127C219.5 123.134 222.634 120 226.5 120Z" fill="#E7D7C1"/>
<path fill-rule="evenodd" clip-rule="evenodd" d="M113.619 112.307C113.54 112.86 113.5 113.425 113.5 114C113.5 120.627 118.873 126 125.5 126C132.127 126 137.5 120.627 137.5 114C137.5 113.425 137.46 112.86 137.381 112.307H166.5V139C166.5 140.657 165.157 142 163.5 142H87.5C85.8431 142 84.5 140.657 84.5 139V112.307H113.619Z" fill="white"/>
<path fill-rule="evenodd" clip-rule="evenodd" d="M138.5 112C138.5 119.18 132.68 125 125.5 125C118.32 125 112.5 119.18 112.5 112C112.5 111.767 112.506 111.536 112.518 111.307H84.5L94.0604 83.0389C94.4726 81.8202 95.6159 81 96.9023 81H154.098C155.384 81 156.527 81.8202 156.94 83.0389L166.5 111.307H138.482C138.494 111.536 138.5 111.767 138.5 112Z" fill="white"/>
<path fill-rule="evenodd" clip-rule="evenodd" d="M136.598 112.955C136.598 118.502 131.629 124 125.5 124C119.371 124 114.402 118.502 114.402 112.955C114.402 112.775 114.408 111.596 114.418 111.419H93.5L101.661 91.5755C102.013 90.6338 102.989 90 104.087 90H146.913C148.011 90 148.987 90.6338 149.339 91.5755L157.5 111.419H136.582C136.592 111.596 136.598 112.775 136.598 112.955Z" fill="#E7D7C1"/>
<path fill-rule="evenodd" clip-rule="evenodd" d="M85.75 111.512V138C85.75 138.966 86.5335 139.75 87.5 139.75H163.5C164.466 139.75 165.25 138.966 165.25 138V111.512L155.755 83.4393C155.515 82.7285 154.848 82.25 154.098 82.25H96.9023C96.1519 82.25 95.485 82.7285 95.2446 83.4393L85.75 111.512Z" stroke="#B02E0C" stroke-width="2.5"/>
<path d="M98.5 111C102.437 111 106.685 111 111.245 111C113.121 111 113.121 112.319 113.121 113C113.121 119.627 118.617 125 125.397 125C132.177 125 137.673 119.627 137.673 113C137.673 112.319 137.673 111 139.55 111H164.5M91.0737 111H93.5H91.0737Z" stroke="#B02E0C" stroke-width="2.5" stroke-linecap="round" stroke-linejoin="round"/>
<path d="M150.6 58.3027L139.5 70.7559M124.6 54V70.7559V54ZM98.5 58.3027L109.6 70.7559L98.5 58.3027Z" stroke="#FA9075" stroke-width="2.5" stroke-linecap="round" stroke-linejoin="round"/>
</svg>
