<svg width="430" height="344" viewBox="0 0 430 344" fill="none" xmlns="http://www.w3.org/2000/svg">
<path opacity="0.2" d="M233.918 110.08C240.567 110.08 245.958 115.471 245.958 122.12C245.958 128.77 240.567 134.16 233.918 134.16H343.998C350.648 134.16 356.038 139.551 356.038 146.2C356.038 152.85 350.648 158.24 343.998 158.24H381.838C388.487 158.24 393.878 163.631 393.878 170.28C393.878 176.93 388.487 182.32 381.838 182.32H349.158C342.509 182.32 337.118 187.711 337.118 194.36C337.118 201.01 342.509 206.4 349.158 206.4H359.479C366.128 206.401 371.519 211.791 371.519 218.44C371.518 225.09 366.128 230.48 359.479 230.48H270.038C269.153 230.48 268.289 230.385 267.458 230.203C266.627 230.385 265.763 230.48 264.878 230.48H108.358C101.709 230.48 96.3185 225.09 96.3184 218.44C96.3184 211.791 101.709 206.4 108.358 206.4H41.2783C34.6289 206.4 29.2384 201.01 29.2383 194.36C29.2383 187.711 34.6288 182.32 41.2783 182.32H110.078C116.728 182.32 122.118 176.93 122.118 170.28C122.118 163.631 116.728 158.24 110.078 158.24H67.0781C60.4287 158.24 55.0381 152.85 55.0381 146.2C55.0381 139.551 60.4287 134.16 67.0781 134.16H135.878C129.229 134.16 123.838 128.769 123.838 122.12C123.838 115.471 129.229 110.08 135.878 110.08H233.918ZM388.719 206.4C395.368 206.401 400.758 211.791 400.758 218.44C400.758 225.09 395.368 230.48 388.719 230.48C382.069 230.48 376.679 225.09 376.679 218.44C376.679 211.791 382.069 206.4 388.719 206.4Z" fill="#E7D7C1"/>
<path fill-rule="evenodd" clip-rule="evenodd" d="M194.564 193.167C194.43 194.119 194.36 195.091 194.36 196.08C194.36 207.479 203.601 216.72 215 216.72C226.4 216.72 235.64 207.479 235.64 196.08C235.64 195.091 235.571 194.119 235.437 193.167H285.52V239.08C285.52 241.93 283.21 244.24 280.36 244.24H149.64C146.791 244.24 144.48 241.93 144.48 239.08V193.167H194.564Z" fill="white"/>
<path fill-rule="evenodd" clip-rule="evenodd" d="M237.36 192.64C237.36 204.989 227.35 215 215 215C202.651 215 192.64 204.989 192.64 192.64C192.64 192.24 192.651 191.842 192.672 191.447H144.48L160.924 142.827C161.633 140.731 163.6 139.32 165.812 139.32H264.189C266.401 139.32 268.368 140.731 269.077 142.827L285.52 191.447H237.329C237.35 191.842 237.36 192.24 237.36 192.64Z" fill="white"/>
<path fill-rule="evenodd" clip-rule="evenodd" d="M234.089 194.282C234.089 203.824 225.543 213.28 215.001 213.28C204.459 213.28 195.913 203.824 195.913 194.282C195.913 193.972 195.922 191.945 195.94 191.64H159.961L173.998 157.51C174.604 155.89 176.282 154.8 178.171 154.8H251.831C253.72 154.8 255.398 155.89 256.003 157.51L270.041 191.64H234.062C234.08 191.945 234.089 193.972 234.089 194.282Z" fill="#E7D7C1"/>
<path fill-rule="evenodd" clip-rule="evenodd" d="M146.629 191.801V237.36C146.629 239.023 147.977 240.37 149.639 240.37H280.359C282.021 240.37 283.369 239.023 283.369 237.36V191.801L267.038 143.516C266.625 142.293 265.478 141.47 264.187 141.47H165.811C164.52 141.47 163.373 142.293 162.96 143.516L146.629 191.801Z" stroke="#B02E0C" stroke-width="4.3"/>
<path d="M168.562 190.92C175.333 190.92 182.64 190.92 190.483 190.92C193.711 190.92 193.711 193.188 193.711 194.36C193.711 205.759 203.164 215 214.826 215C226.487 215 235.94 205.759 235.94 194.36C235.94 193.188 235.94 190.92 239.168 190.92H282.082M155.789 190.92H159.962H155.789Z" stroke="#B02E0C" stroke-width="4.3" stroke-linecap="round" stroke-linejoin="round"/>
<path d="M258.17 100.281L239.079 121.7M213.45 92.8799V121.7V92.8799ZM168.559 100.281L187.65 121.7L168.559 100.281Z" stroke="#FA9075" stroke-width="4.3" stroke-linecap="round" stroke-linejoin="round"/>
</svg>
