<svg width="54" height="54" viewBox="0 0 54 54" fill="none" xmlns="http://www.w3.org/2000/svg">
<rect width="54" height="54" rx="10.8" fill="#007AFF" fill-opacity="0.1"/>
<rect x="0.405" y="0.405" width="53.19" height="53.19" rx="10.395" stroke="#007AFF" stroke-opacity="0.1" stroke-width="0.81"/>
<path d="M37.8023 29.3625C37.8023 28.8033 37.349 28.35 36.7898 28.35H32.7398C32.1807 28.35 31.7273 28.8033 31.7273 29.3625V38.475H29.7023V16.5375C29.7023 15.5543 29.7002 14.9187 29.6372 14.4504C29.5782 14.0113 29.4829 13.8736 29.4058 13.7966C29.3287 13.7195 29.1911 13.6242 28.7519 13.5651C28.2836 13.5022 27.6481 13.5 26.6648 13.5C25.6816 13.5 25.0461 13.5022 24.5778 13.5651C24.1386 13.6242 24.001 13.7195 23.9239 13.7966C23.8468 13.8736 23.7515 14.0113 23.6925 14.4504C23.6295 14.9187 23.6273 15.5543 23.6273 16.5375V38.475H21.6023V22.6125C21.6023 22.0533 21.149 21.6 20.5898 21.6H16.5398C15.9807 21.6 15.5273 22.0533 15.5273 22.6125V38.475H13.5023H13.1648C12.6057 38.475 12.1523 38.9283 12.1523 39.4875C12.1523 40.0467 12.6057 40.5 13.1648 40.5H40.1648C40.724 40.5 41.1773 40.0467 41.1773 39.4875C41.1773 38.9283 40.724 38.475 40.1648 38.475H39.8273H37.8023V29.3625Z" fill="#007AFF"/>
</svg>
