<svg width="58" height="58" viewBox="0 0 58 58" fill="none" xmlns="http://www.w3.org/2000/svg">
<circle cx="29" cy="29" r="29" fill="#B02E0C" fill-opacity="0.04"/>
<circle cx="29" cy="29" r="28.5" stroke="#B02E0C" stroke-opacity="0.2"/>
<path fill-rule="evenodd" clip-rule="evenodd" d="M29 39C34.5228 39 39 34.5228 39 29C39 23.4772 34.5228 19 29 19C23.4772 19 19 23.4772 19 29C19 34.5228 23.4772 39 29 39ZM29.75 23C29.75 22.5858 29.4142 22.25 29 22.25C28.5858 22.25 28.25 22.5858 28.25 23V23.3167C26.6196 23.6087 25.25 24.8336 25.25 26.5C25.25 28.4172 27.0628 29.75 29 29.75C30.3765 29.75 31.25 30.6557 31.25 31.5C31.25 32.3443 30.3765 33.25 29 33.25C27.6235 33.25 26.75 32.3443 26.75 31.5C26.75 31.0858 26.4142 30.75 26 30.75C25.5858 30.75 25.25 31.0858 25.25 31.5C25.25 33.1664 26.6196 34.3913 28.25 34.6833V35C28.25 35.4142 28.5858 35.75 29 35.75C29.4142 35.75 29.75 35.4142 29.75 35V34.6833C31.3804 34.3913 32.75 33.1664 32.75 31.5C32.75 29.5828 30.9372 28.25 29 28.25C27.6235 28.25 26.75 27.3443 26.75 26.5C26.75 25.6557 27.6235 24.75 29 24.75C30.3765 24.75 31.25 25.6557 31.25 26.5C31.25 26.9142 31.5858 27.25 32 27.25C32.4142 27.25 32.75 26.9142 32.75 26.5C32.75 24.8336 31.3804 23.6087 29.75 23.3167V23Z" fill="#B02E0C"/>
</svg>
