<svg width="176" height="136" viewBox="0 0 176 136" fill="none" xmlns="http://www.w3.org/2000/svg">
<path d="M0 16C0 7.16344 7.16344 0 16 0H160C168.837 0 176 7.16344 176 16V120C176 128.837 168.837 136 160 136H16C7.16344 136 0 128.837 0 120V16Z" fill="white"/>
<path d="M16 0.5H160C168.56 0.5 175.5 7.43959 175.5 16V120C175.5 128.56 168.56 135.5 160 135.5H16C7.43959 135.5 0.5 128.56 0.5 120V16C0.5 7.43959 7.43959 0.5 16 0.5Z" stroke="#B02E0C" stroke-opacity="0.16"/>
<path d="M86.2766 11L45 52.2766L93.2979 100.574L134.574 59.2979L86.2766 11Z" fill="#FFB050" stroke="#FFB050" stroke-width="0.425532"/>
<path d="M45 52.2766V72.7021L93.2979 121L134.574 79.7234V59.2979" stroke="#FF9411" stroke-width="0.425532"/>
<path d="M93.2969 100.574V121" stroke="#FF9411" stroke-width="0.425532"/>
<path d="M93 100.5L45 52.5V72.5L93 120.5V100.5Z" fill="#E47C00" stroke="#E47C00" stroke-width="0.43"/>
<path d="M134.5 59L93 100.5V121L134.5 79.5V59Z" fill="#FF9411" stroke="#FF9411" stroke-width="0.43"/>
<path d="M37.4662 60.5747H39.1505C39.4551 60.5747 39.7223 60.612 39.9585 60.6741C40.1885 60.7363 40.3998 60.8544 40.5987 61.0284C41.0338 61.42 41.2513 61.9793 41.2513 62.7127C41.2513 63.4959 41.04 64.0988 40.6298 64.509C40.4433 64.6954 40.2444 64.8198 40.0331 64.8943C39.8218 64.9689 39.5421 65 39.194 65H37.4662V60.5747ZM38.2369 61.2335V64.3474H39.1505C39.6353 64.3474 39.9772 64.2106 40.176 63.9247C40.3749 63.6451 40.4744 63.2535 40.4744 62.75C40.4744 62.2777 40.3625 61.9048 40.1388 61.6375C39.915 61.3702 39.5669 61.2335 39.1008 61.2335H38.2369Z" fill="#B02E0C"/>
<path d="M64.493 100.329V101H61.4599V96.5747H62.2431V100.329H64.493Z" fill="#B02E0C"/>
<path d="M116.05 103.575H116.839L117.647 106.943L118.555 103.575H119.344L120.22 106.943L121.053 103.575H121.842L120.618 108H119.829L118.934 104.6L118.02 108H117.218L116.05 103.575Z" fill="#B02E0C"/>
<path d="M43 52L40.9282 53.1961V50.8039L43 52ZM39 52H38.7928V51.7928H39V52ZM41.1354 52V52.2072H39V52V51.7928H41.1354V52ZM39 52H39.2072V59H39H38.7928V52H39Z" fill="#B02E0C"/>
<path d="M43 73L40.9282 71.8039V74.1961L43 73ZM39 73H38.7928V73.2072H39V73ZM41.1354 73V72.7928H39V73V73.2072H41.1354V73ZM39 73H39.2072V66H39H38.7928V73H39Z" fill="#B02E0C"/>
<path d="M44.5 74L42.2355 74.7715L44.0359 76.3468L44.5 74ZM41 78L40.8441 77.8636L40.7164 78.0094L40.8535 78.1465L41 78ZM43.2721 75.4033L43.1162 75.2668L40.8441 77.8636L41 78L41.1559 78.1364L43.4281 75.5397L43.2721 75.4033ZM41 78L40.8535 78.1465L60.3535 97.6465L60.5 97.5L60.6465 97.3535L41.1465 77.8535L41 78Z" fill="#B02E0C"/>
<path d="M92.5 122.5L91.8808 124.811L90.1892 123.119L92.5 122.5ZM89.5 125.5L89.6465 125.646L89.5 125.793L89.3535 125.646L89.5 125.5ZM91.1815 123.818L91.328 123.965L89.6465 125.646L89.5 125.5L89.3535 125.354L91.035 123.672L91.1815 123.818ZM89.5 125.5L89.3535 125.646L65.3535 101.646L65.5 101.5L65.6465 101.354L89.6465 125.354L89.5 125.5Z" fill="#B02E0C"/>
<path d="M93.5 122L94.1192 124.311L95.8108 122.619L93.5 122ZM97.5 126L97.3535 126.146L97.5 126.293L97.6465 126.146L97.5 126ZM94.8185 123.318L94.672 123.465L97.3535 126.146L97.5 126L97.6465 125.854L94.965 123.172L94.8185 123.318ZM97.5 126L97.6465 126.146L115.646 108.146L115.5 108L115.354 107.854L97.3535 125.854L97.5 126Z" fill="#B02E0C"/>
<path d="M135 81L137.311 81.6192L135.619 83.3108L135 81ZM139 85L139.146 84.8535L139.293 85L139.146 85.1465L139 85ZM136.318 82.3185L136.465 82.172L139.146 84.8535L139 85L138.853 85.1465L136.172 82.465L136.318 82.3185ZM139 85L139.146 85.1465L122.646 101.646L122.5 101.5L122.354 101.354L138.853 84.8535L139 85Z" fill="#B02E0C"/>
</svg>
