<svg width="176" height="136" viewBox="0 0 176 136" fill="none" xmlns="http://www.w3.org/2000/svg">
<path d="M0 16C0 7.16344 7.16344 0 16 0H160C168.837 0 176 7.16344 176 16V120C176 128.837 168.837 136 160 136H16C7.16344 136 0 128.837 0 120V16Z" fill="white"/>
<path d="M16 0.5H160C168.56 0.5 175.5 7.43959 175.5 16V120C175.5 128.56 168.56 135.5 160 135.5H16C7.43959 135.5 0.5 128.56 0.5 120V16C0.5 7.43959 7.43959 0.5 16 0.5Z" stroke="#B02E0C" stroke-opacity="0.16"/>
<path d="M76.6453 43.4937L10 65.2151H98.8604L165.999 43L76.6453 43.4937Z" fill="#F26722" stroke="black" stroke-width="0.698936"/>
<path d="M165.998 42.9999L98.8594 65.215V67.6834L165.998 45.962V42.9999Z" fill="#F26722" stroke="black" stroke-width="0.698936"/>
<path d="M10 67.6834V65.2151H98.8604V67.6834H10Z" fill="#F26722" stroke="black" stroke-width="0.698936"/>
<path d="M17.1562 99.0314V67.6834H98.8584V67.9302V99.0314H17.1562Z" fill="#949599" stroke="black" stroke-width="0.698936"/>
<path d="M161.062 47.443L98.8594 67.6834V99.0314L161.062 79.0378V47.443Z" fill="#949599" stroke="black" stroke-width="0.698936"/>
<path d="M16.8867 103.101L21.3185 105.659L21.3185 100.542L16.8867 103.101ZM98.8992 103.101L94.4674 100.542L94.4674 105.659L98.8992 103.101ZM20.8753 103.101L20.8753 103.544L94.9106 103.544L94.9106 103.101L94.9106 102.658L20.8753 102.658L20.8753 103.101Z" fill="black"/>
<path d="M58.6739 104.923L60.6239 109.979H59.6738L59.1916 108.639H57.1919L56.6956 109.979H55.7809L57.7309 104.923H58.6739ZM58.9576 107.972L58.2059 105.845L57.4189 107.972H58.9576Z" fill="black"/>
<path d="M15.4306 74.2506C15.381 74.8745 15.1612 75.3709 14.7641 75.7396C14.367 76.1084 13.8565 76.2927 13.2325 76.2927C12.5163 76.2927 11.9419 76.0516 11.5165 75.5695C11.0839 75.0873 10.8712 74.4491 10.8712 73.6478C10.8712 73.1656 10.9634 72.7331 11.1477 72.336C11.3321 71.9389 11.6087 71.6198 11.9774 71.3787C12.3461 71.1377 12.7786 71.01 13.275 71.01C13.8068 71.01 14.2748 71.1589 14.6719 71.4567C15.069 71.7546 15.303 72.18 15.3881 72.7331H14.5088C14.445 72.4353 14.3032 72.1942 14.0834 72.024C13.8565 71.8538 13.587 71.7617 13.2608 71.7617C12.9205 71.7617 12.6368 71.8609 12.4028 72.0453C12.1688 72.2367 12.0057 72.4707 11.9065 72.7473C11.8072 73.0238 11.7647 73.3216 11.7647 73.6478C11.7647 73.896 11.793 74.13 11.8497 74.3427C11.9065 74.5626 11.9916 74.7611 12.105 74.9455C12.2185 75.1298 12.3674 75.2716 12.5659 75.378C12.7645 75.4915 12.9914 75.5411 13.2537 75.5411C14.0054 75.5411 14.4308 75.1156 14.5443 74.2506H15.4306Z" fill="black"/>
<path d="M131.36 94.2873H133.664C134.189 94.2873 134.593 94.4078 134.877 94.6347C135.16 94.8617 135.302 95.1737 135.302 95.5566C135.302 95.7976 135.231 96.0175 135.104 96.2089C134.969 96.4004 134.792 96.5351 134.579 96.6202C134.87 96.6911 135.104 96.8329 135.274 97.0456C135.444 97.2584 135.529 97.5278 135.529 97.8469C135.529 98.2936 135.38 98.6553 135.082 98.9247C134.785 99.2013 134.402 99.336 133.934 99.336H131.36V94.2873ZM132.225 95.0035V96.3933H133.43C133.771 96.3933 134.019 96.3436 134.182 96.2373C134.338 96.1309 134.423 95.9536 134.423 95.6984C134.423 95.4147 134.338 95.2304 134.168 95.1382C133.997 95.0531 133.763 95.0035 133.459 95.0035H132.225ZM132.225 97.0315V98.6127H133.551C133.891 98.6127 134.153 98.556 134.352 98.4425C134.543 98.3291 134.643 98.1235 134.643 97.8256C134.643 97.6626 134.607 97.5278 134.551 97.4144C134.494 97.3009 134.409 97.2229 134.295 97.1662C134.182 97.1166 134.068 97.0811 133.955 97.0598C133.834 97.0456 133.693 97.0315 133.537 97.0315H132.225Z" fill="black"/>
<path d="M100.152 103.101L105.151 104.195L103.6 99.3188L100.152 103.101ZM162.131 83.3802L157.132 82.2857L158.684 87.1622L162.131 83.3802ZM103.953 101.891L104.088 102.314L158.465 85.0119L158.33 84.5896L158.196 84.1672L103.819 101.469L103.953 101.891Z" fill="black"/>
<path d="M10 69.6071L11.7727 70.6306V68.5836L10 69.6071ZM16.5735 69.6071L14.8008 68.5836V70.6306L16.5735 69.6071ZM11.5954 69.6071V69.7844H14.9781V69.6071V69.4298H11.5954V69.6071Z" fill="black"/>
</svg>
