<svg width="46" height="46" viewBox="0 0 46 46" fill="none" xmlns="http://www.w3.org/2000/svg">
<rect width="46" height="46" rx="11.1034" fill="#F3F3F3"/>
<rect x="0.396552" y="0.396552" width="45.2069" height="45.2069" rx="10.7069" stroke="#B02E0C" stroke-opacity="0.04" stroke-width="0.793103"/>
<path d="M42.9395 15.0205H42.958V15.0801L42.9795 15.1484L42.958 15.1543V21.0029L42.9033 21.0195L16.7627 29.2871V29.3086H16.6953L16.6338 29.3281L16.6279 29.3086H4.60645V23.3965L4.58594 23.332L4.60645 23.3252V23.3057H4.66992L31.0381 15.0234L31.0498 15.0205H42.8682L42.9326 15L42.9395 15.0205ZM4.76074 29.1533H16.6074V23.46H4.76074V29.1533ZM16.7627 23.4395V29.125L42.8027 20.8887V15.2041L16.7627 23.4395ZM5.18848 23.3057H16.6719L42.3799 15.1748H31.0752L5.18848 23.3057Z" fill="black"/>
<path d="M3.60938 23.328L3.26619 23.9224L3.95256 23.9224L3.60938 23.328ZM3.54993 25.3971L3.54993 25.4565L3.66882 25.4565L3.66882 25.3971L3.60938 25.3971L3.54993 25.3971ZM3.60938 23.863L3.54993 23.863L3.54993 25.3971L3.60938 25.3971L3.66882 25.3971L3.66882 23.863L3.60938 23.863Z" fill="black"/>
<path d="M3.60938 29.2768L3.95256 28.6823L3.26619 28.6823L3.60938 29.2768ZM3.66882 27.2076L3.66882 27.1482L3.54993 27.1482L3.54993 27.2076L3.60938 27.2076L3.66882 27.2076ZM3.60938 28.7418L3.66882 28.7418L3.66882 27.2076L3.60938 27.2076L3.54993 27.2076L3.54993 28.7418L3.60938 28.7418Z" fill="black"/>
<rect width="0.590176" height="2" transform="translate(4.38281 25.9144) rotate(90)" fill="white"/>
<path d="M2.50011 25.5809H3.01527C3.13257 25.5809 3.22292 25.6078 3.28632 25.6585C3.34973 25.7093 3.38143 25.779 3.38143 25.8646C3.38143 25.9185 3.36558 25.9676 3.33705 26.0104C3.30693 26.0532 3.2673 26.0834 3.21975 26.1024C3.28474 26.1182 3.33705 26.1499 3.37509 26.1975C3.41313 26.245 3.43215 26.3053 3.43215 26.3766C3.43215 26.4765 3.39887 26.5573 3.33229 26.6175C3.26572 26.6794 3.18012 26.7095 3.07551 26.7095H2.50011V25.5809ZM2.69349 25.741V26.0517H2.96296C3.03905 26.0517 3.09453 26.0406 3.13098 26.0168C3.16586 25.993 3.18488 25.9534 3.18488 25.8963C3.18488 25.8329 3.16586 25.7917 3.12781 25.7711C3.08977 25.7521 3.03746 25.741 2.9693 25.741H2.69349ZM2.69349 26.1943V26.5478H2.98991C3.06599 26.5478 3.12464 26.5351 3.16903 26.5097C3.21182 26.4844 3.23402 26.4384 3.23402 26.3718C3.23402 26.3354 3.22609 26.3053 3.21341 26.2799C3.20073 26.2545 3.18171 26.2371 3.15635 26.2244C3.13098 26.2133 3.10562 26.2054 3.08026 26.2007C3.05331 26.1975 3.02161 26.1943 2.98674 26.1943H2.69349Z" fill="#060C12"/>
<path d="M4.64752 30.3112L5.24193 30.6543V29.968L4.64752 30.3112ZM9.82031 30.3706H9.87975V30.2517H9.82031V30.3112V30.3706ZM5.18249 30.3112V30.3706H9.82031V30.3112V30.2517H5.18249V30.3112Z" fill="black"/>
<path d="M16.7986 30.3112L16.2042 29.968L16.2042 30.6543L16.7986 30.3112ZM11.3672 30.2517L11.3077 30.2517L11.3077 30.3706L11.3672 30.3706L11.3672 30.3112L11.3672 30.2517ZM16.2636 30.3112L16.2636 30.2517L11.3672 30.2517L11.3672 30.3112L11.3672 30.3706L16.2636 30.3706L16.2636 30.3112Z" fill="black"/>
<rect width="1.20601" height="1.03456" transform="translate(11.1094 29.7939) rotate(90)" fill="white"/>
<path d="M10.7122 29.7495L11.1481 30.8796H10.9357L10.8279 30.5801L10.3809 30.5801L10.2699 30.8796H10.0654L10.5013 29.7495L10.7122 29.7495ZM10.7756 30.4311L10.6076 29.9555L10.4316 30.4311L10.7756 30.4311Z" fill="#060C12"/>
<path d="M43.4785 22.0406L42.8082 21.8931L43.0156 22.5474L43.4785 22.0406ZM31.568 25.754L31.5113 25.772L31.5472 25.8853L31.6039 25.8673L31.5859 25.8107L31.568 25.754ZM42.9686 22.2023L42.9506 22.1456L31.568 25.754L31.5859 25.8107L31.6039 25.8673L42.9865 22.2589L42.9686 22.2023Z" fill="black"/>
<path d="M17.4873 30.3613L18.1574 30.5098L17.951 29.8552L17.4873 30.3613ZM29.4241 26.6597L29.4808 26.6418L29.4451 26.5285L29.3884 26.5463L29.4062 26.603L29.4241 26.6597ZM17.9975 30.2004L18.0154 30.2571L29.4241 26.6597L29.4062 26.603L29.3884 26.5463L17.9797 30.1437L17.9975 30.2004Z" fill="black"/>
<path d="M30.9586 26.3471L31.0141 26.5091L30.2789 26.7499L29.9136 25.682L30.1034 25.6199L30.4133 26.5257L30.9586 26.3471Z" fill="#060C12"/>
</svg>
