<svg width="58" height="58" viewBox="0 0 58 58" fill="none" xmlns="http://www.w3.org/2000/svg">
<rect width="58" height="58" rx="14" fill="#F3F3F3"/>
<rect x="0.5" y="0.5" width="57" height="57" rx="13.5" stroke="#B02E0C" stroke-opacity="0.04"/>
<path d="M25.1992 18.165L2.89453 25.4347H32.6341L55.1039 17.9998L25.1992 18.165Z" fill="#F26722" stroke="black" stroke-width="0.233918"/>
<path d="M55.1027 17.9998L32.6328 25.4347V26.2608L55.1027 18.9911V17.9998Z" fill="#F26722" stroke="black" stroke-width="0.233918"/>
<path d="M2.89453 26.2608V25.4347H32.6341V26.2608H2.89453Z" fill="#F26722" stroke="black" stroke-width="0.233918"/>
<path d="M5.28906 36.7522V26.2608H32.6329V26.3434V36.7522H5.28906Z" fill="#949599" stroke="black" stroke-width="0.233918"/>
<path d="M53.4505 19.4868L32.6328 26.2608V36.7523L53.4505 30.0609V19.4868Z" fill="#949599" stroke="black" stroke-width="0.233918"/>
<path d="M5.19922 38.1141L6.68244 38.9705L6.68244 37.2578L5.19922 38.1141ZM32.6469 38.1141L31.1637 37.2578L31.1637 38.9705L32.6469 38.1141ZM6.53412 38.1141L6.53412 38.2625L31.312 38.2625L31.312 38.1141L31.312 37.9658L6.53412 37.9658L6.53412 38.1141Z" fill="black"/>
<path d="M19.1848 39.0507L19.8375 40.7427H19.5194L19.3581 40.2942H18.6888L18.5227 40.7427H18.2166L18.8692 39.0507H19.1848ZM19.2798 40.0711L19.0282 39.3592L18.7648 40.0711H19.2798Z" fill="black"/>
<path d="M4.71426 28.7853C4.69765 28.9941 4.62408 29.1602 4.49118 29.2836C4.35829 29.407 4.18742 29.4687 3.97858 29.4687C3.73889 29.4687 3.54667 29.3881 3.40428 29.2267C3.25952 29.0653 3.18832 28.8517 3.18832 28.5836C3.18832 28.4222 3.21917 28.2774 3.28088 28.1445C3.34258 28.0116 3.43513 27.9048 3.55854 27.8242C3.68194 27.7435 3.8267 27.7007 3.99282 27.7007C4.17081 27.7007 4.32744 27.7506 4.46033 27.8503C4.59323 27.9499 4.67154 28.0923 4.70002 28.2774H4.40575C4.38439 28.1778 4.33693 28.0971 4.26336 28.0401C4.18742 27.9832 4.09724 27.9523 3.98808 27.9523C3.87416 27.9523 3.77924 27.9855 3.70092 28.0472C3.62261 28.1113 3.56803 28.1896 3.5348 28.2822C3.50158 28.3747 3.48734 28.4744 3.48734 28.5836C3.48734 28.6666 3.49683 28.7449 3.51582 28.8161C3.5348 28.8897 3.56328 28.9561 3.60125 29.0178C3.63922 29.0796 3.68906 29.127 3.75551 29.1626C3.82196 29.2006 3.8979 29.2172 3.9857 29.2172C4.23726 29.2172 4.37965 29.0748 4.41762 28.7853H4.71426Z" fill="black"/>
<path d="M43.5117 35.4911H44.283C44.4586 35.4911 44.5938 35.5314 44.6888 35.6074C44.7837 35.6833 44.8312 35.7877 44.8312 35.9159C44.8312 35.9966 44.8074 36.0701 44.7647 36.1342C44.7196 36.1983 44.6603 36.2434 44.5891 36.2719C44.6864 36.2956 44.7647 36.3431 44.8217 36.4143C44.8786 36.4855 44.9071 36.5756 44.9071 36.6824C44.9071 36.8319 44.8573 36.953 44.7576 37.0431C44.6579 37.1357 44.5298 37.1808 44.3731 37.1808H43.5117V35.4911ZM43.8012 35.7308V36.1959H44.2046C44.3186 36.1959 44.4016 36.1793 44.4562 36.1437C44.5084 36.1081 44.5369 36.0488 44.5369 35.9634C44.5369 35.8684 44.5084 35.8067 44.4515 35.7759C44.3945 35.7474 44.3162 35.7308 44.2141 35.7308H43.8012ZM43.8012 36.4095V36.9387H44.245C44.3589 36.9387 44.4467 36.9197 44.5132 36.8818C44.5772 36.8438 44.6105 36.775 44.6105 36.6753C44.6105 36.6207 44.5986 36.5756 44.5796 36.5377C44.5606 36.4997 44.5321 36.4736 44.4942 36.4546C44.4562 36.438 44.4182 36.4261 44.3803 36.419C44.3399 36.4143 44.2925 36.4095 44.2402 36.4095H43.8012Z" fill="black"/>
<path d="M33.0664 38.1142L34.7395 38.4805L34.2202 36.8484L33.0664 38.1142ZM53.8093 31.5142L52.1363 31.1479L52.6556 32.7799L53.8093 31.5142ZM34.3385 37.7094L34.3834 37.8508L52.5822 32.0602L52.5373 31.9189L52.4923 31.7776L34.2935 37.5681L34.3385 37.7094Z" fill="black"/>
<path d="M2.89453 26.9046L3.48782 27.2471V26.5621L2.89453 26.9046ZM5.09454 26.9046L4.50125 26.5621V27.2471L5.09454 26.9046ZM3.42849 26.9046V26.9639H4.56058V26.9046V26.8453H3.42849V26.9046Z" fill="black"/>
</svg>
