<svg width="176" height="136" viewBox="0 0 176 136" fill="none" xmlns="http://www.w3.org/2000/svg">
<path d="M0 16C0 7.16344 7.16344 0 16 0H160C168.837 0 176 7.16344 176 16V120C176 128.837 168.837 136 160 136H16C7.16344 136 0 128.837 0 120V16Z" fill="white"/>
<path d="M16 0.5H160C168.56 0.5 175.5 7.43959 175.5 16V120C175.5 128.56 168.56 135.5 160 135.5H16C7.43959 135.5 0.5 128.56 0.5 120V16C0.5 7.43959 7.43959 0.5 16 0.5Z" stroke="#B02E0C" stroke-opacity="0.16"/>
<path d="M162.076 40.8779H162.155V41.126L162.233 41.373L162.155 41.3975V64.0088L161.945 64.0752L60.874 96.041V96.123H60.6182L60.3779 96.1992L60.3535 96.123H13.873V73.2568L13.7969 73.0146L13.873 72.9902V72.9111H14.127L116.071 40.8916L116.115 40.8779H161.81L162.052 40.8008L162.076 40.8779ZM14.4727 95.5225H60.2734V73.5107H14.4727V95.5225ZM60.874 73.4307V95.4121L161.556 63.5684V41.5869L60.874 73.4307ZM16.1279 72.9111H60.5273L159.914 41.4775H116.207L16.1279 72.9111Z" fill="black"/>
<path d="M10 73L8.67311 75.2982L11.3269 75.2982L10 73ZM9.77018 81L9.77018 81.2298L10.2298 81.2298L10.2298 81L9.77018 81ZM10 75.0684L9.77018 75.0684L9.77018 81L10 81L10.2298 81L10.2298 75.0684L10 75.0684Z" fill="black"/>
<path d="M10 96L11.3269 93.7018L8.67311 93.7018L10 96ZM10.2298 88L10.2298 87.7702L9.77018 87.7702L9.77018 88L10.2298 88ZM10 93.9316L10.2298 93.9316L10.2298 88L10 88L9.77018 88L9.77018 93.9316L10 93.9316Z" fill="black"/>
<rect width="2.28185" height="5" transform="translate(13 83) rotate(90)" fill="white"/>
<path d="M8.45352 81.7775H10.4453C10.8988 81.7775 11.2482 81.8817 11.4933 82.0778C11.7385 82.2739 11.861 82.5436 11.861 82.8745C11.861 83.0829 11.7998 83.2729 11.6894 83.4384C11.573 83.6039 11.4198 83.7203 11.2359 83.7938C11.4872 83.8551 11.6894 83.9777 11.8365 84.1616C11.9836 84.3454 12.0572 84.5783 12.0572 84.8541C12.0572 85.2402 11.9285 85.5528 11.6711 85.7857C11.4137 86.0247 11.0827 86.1411 10.6782 86.1411H8.45352V81.7775ZM9.20121 82.3965V83.5977H10.2431C10.5373 83.5977 10.7518 83.5548 10.8927 83.4629C11.0275 83.371 11.1011 83.2178 11.1011 82.9971C11.1011 82.752 11.0275 82.5926 10.8805 82.513C10.7334 82.4394 10.5311 82.3965 10.2676 82.3965H9.20121ZM9.20121 84.1493V85.516H10.3473C10.6414 85.516 10.8682 85.467 11.0398 85.3689C11.2053 85.2708 11.2911 85.0931 11.2911 84.8357C11.2911 84.6948 11.2604 84.5783 11.2114 84.4803C11.1624 84.3822 11.0888 84.3148 10.9908 84.2657C10.8927 84.2228 10.7947 84.1922 10.6966 84.1738C10.5924 84.1616 10.4698 84.1493 10.335 84.1493H9.20121Z" fill="#060C12"/>
<path d="M14 100L16.2982 101.327V98.6731L14 100ZM34 100.23H34.2298V99.7702H34V100.23ZM16.0684 100V100.23H34V100V99.7702H16.0684V100Z" fill="black"/>
<path d="M61 100L58.7018 98.6731L58.7018 101.327L61 100ZM40 99.7702L39.7702 99.7702L39.7702 100.23L40 100.23L40 99.7702ZM58.9316 100L58.9316 99.7702L40 99.7702L40 100L40 100.23L58.9316 100.23L58.9316 100Z" fill="black"/>
<rect width="4.6629" height="4" transform="translate(39 98) rotate(90)" fill="white"/>
<path d="M37.4515 97.9618L39.1368 102.332H38.3156L37.8988 101.173L36.1706 101.173L35.7416 102.332H34.951L36.6363 97.9618L37.4515 97.9618ZM37.6966 100.597L37.047 98.7585L36.3667 100.597L37.6966 100.597Z" fill="#060C12"/>
<path d="M164.138 68.0221L161.546 67.4518L162.348 69.9815L164.138 68.0221ZM118.087 82.3796L117.868 82.449L118.007 82.8872L118.226 82.8177L118.087 82.3796ZM162.166 68.6472L162.096 68.4281L118.087 82.3796L118.156 82.5986L118.226 82.8177L162.235 68.8663L162.166 68.6472Z" fill="black"/>
<path d="M63.6513 100.193L66.2421 100.768L65.4441 98.2368L63.6513 100.193ZM109.803 85.8818L110.023 85.8127L109.884 85.3743L109.665 85.4434L109.803 85.8818ZM65.6239 99.5714L65.693 99.7906L109.803 85.8818L109.734 85.6626L109.665 85.4434L65.5548 99.3522L65.6239 99.5714Z" fill="black"/>
<path d="M115.784 84.7998L115.998 85.426L113.156 86.3568L111.743 82.2282L112.477 81.9879L113.675 85.4902L115.784 84.7998Z" fill="#060C12"/>
</svg>
