<svg width="35" height="35" viewBox="0 0 35 35" fill="none" xmlns="http://www.w3.org/2000/svg">
<path d="M15.2471 32.7079C14.6319 33.3231 15.0676 34.375 15.9376 34.375H22.4297C22.6887 34.375 22.9371 34.2721 23.1202 34.089L34.089 23.1202C34.2721 22.9371 34.375 22.6887 34.375 22.4297V15.9376C34.375 15.0676 33.3231 14.6319 32.7079 15.2471L15.2471 32.7079ZM5.73997 7.1819C5.3586 6.80053 4.74027 6.80053 4.3589 7.1819L0.286028 11.2548C0.102887 11.4379 0 11.6863 0 11.9453V18.4374C0 19.3074 1.05189 19.7431 1.66709 19.1279L8.98602 11.809C9.3674 11.4277 9.3674 10.8093 8.98603 10.428L5.73997 7.1819ZM17.878 19.32C17.4967 18.9386 16.8783 18.9386 16.497 19.32L3.10903 32.7079C2.49383 33.3231 2.92954 34.375 3.79957 34.375H10.2916C10.5506 34.375 10.799 34.2721 10.9822 34.089L21.1241 23.947C21.5055 23.5657 21.5055 22.9473 21.1241 22.566L17.878 19.32ZM30.0161 31.458C29.6347 31.0767 29.0164 31.0767 28.635 31.458L27.3851 32.7079C26.7699 33.3231 27.2056 34.375 28.0757 34.375H30.5754C31.4455 34.375 31.8812 33.3231 31.266 32.7079L30.0161 31.458ZM31.458 28.635C31.0767 29.0164 31.0767 29.6347 31.458 30.0161L32.7079 31.266C33.3231 31.8812 34.375 31.4455 34.375 30.5754V28.0757C34.375 27.2056 33.3231 26.7699 32.7079 27.3851L31.458 28.635ZM11.9453 0C11.6863 0 11.4379 0.102888 11.2548 0.286029L7.1819 4.3589C6.80053 4.74027 6.80053 5.35859 7.1819 5.73997L10.428 8.98603C10.8093 9.3674 11.4277 9.3674 11.809 8.98602L19.1279 1.66709C19.7431 1.05189 19.3074 0 18.4374 0H11.9453ZM1.6671 27.3851C1.0519 26.7699 0 27.2056 0 28.0757V30.5754C0 31.4455 1.0519 31.8812 1.6671 31.266L2.91697 30.0161C3.29834 29.6347 3.29834 29.0164 2.91697 28.635L1.6671 27.3851ZM19.32 16.497C18.9386 16.8783 18.9386 17.4967 19.32 17.878L22.566 21.1241C22.9473 21.5055 23.5657 21.5055 23.947 21.1241L34.089 10.9822C34.2721 10.799 34.375 10.5506 34.375 10.2916V3.79957C34.375 2.92954 33.3231 2.49383 32.7079 3.10903L19.32 16.497ZM0.976563 0C0.437223 0 0 0.437222 0 0.976562V6.29936C0 7.16939 1.0519 7.6051 1.6671 6.9899L6.9899 1.6671C7.6051 1.0519 7.16939 0 6.29936 0H0.976563ZM28.0757 0C27.2056 0 26.7699 1.05191 27.3851 1.6671L28.635 2.91697C29.0164 3.29834 29.6347 3.29834 30.0161 2.91697L31.266 1.6671C31.8812 1.0519 31.4455 0 30.5754 0H28.0757ZM1.11244 23.9466C0.731067 23.5652 0.731065 22.9469 1.11244 22.5655L22.5652 1.1127C22.9466 0.731326 23.5649 0.731325 23.9463 1.11269L27.1923 4.35863C27.5737 4.74 27.5737 5.35833 27.1923 5.7397L5.73949 27.1925C5.35812 27.5739 4.7398 27.5739 4.35843 27.1925L1.11244 23.9466Z" fill="#B02E0C"/>
</svg>
