<svg width="176" height="136" viewBox="0 0 176 136" fill="none" xmlns="http://www.w3.org/2000/svg">
<path d="M0 16C0 7.16344 7.16344 0 16 0H160C168.837 0 176 7.16344 176 16V120C176 128.837 168.837 136 160 136H16C7.16344 136 0 128.837 0 120V16Z" fill="white"/>
<path d="M16 0.5H160C168.56 0.5 175.5 7.43959 175.5 16V120C175.5 128.56 168.56 135.5 160 135.5H16C7.43959 135.5 0.5 128.56 0.5 120V16C0.5 7.43959 7.43959 0.5 16 0.5Z" stroke="#B02E0C" stroke-opacity="0.16"/>
<rect x="6.23265" y="52.7629" width="22.8" height="22.8" rx="2.86939" fill="white" stroke="black" stroke-width="0.465306"/>
<path d="M16.5325 78.0337V78.6526H15.5368V81.3467H14.8062V78.6526H13.8105V78.0337H16.5325ZM17.5252 78.0337V78.5921H16.8644V78.0337H17.5252ZM17.5252 78.9457V81.3467H16.8644V78.9457H17.5252ZM18.7248 78.0337V81.3467H18.064V78.0337H18.7248ZM21.5018 80.6022C21.4273 80.8628 21.2877 81.0628 21.0877 81.2024C20.8876 81.3467 20.6503 81.4165 20.3711 81.4165C20.0035 81.4165 19.7057 81.3048 19.4824 81.0721C19.259 80.8441 19.1473 80.5417 19.1473 80.1601C19.1473 79.7879 19.259 79.4808 19.487 79.2388C19.7104 78.9969 19.9988 78.8759 20.3525 78.8759C20.7154 78.8759 21.0039 79.0015 21.2179 79.2481C21.432 79.4948 21.539 79.8298 21.539 80.2486V80.3137H19.8174C19.8174 80.5231 19.8686 80.6813 19.9663 80.7883C20.064 80.9 20.2036 80.9512 20.3804 80.9512C20.613 80.9512 20.7759 80.8348 20.869 80.6022H21.5018ZM20.8643 79.8949C20.8504 79.7367 20.7992 79.6111 20.7108 79.5087C20.627 79.4064 20.506 79.3552 20.3478 79.3552C20.2036 79.3552 20.0826 79.4064 19.9849 79.4994C19.8918 79.5971 19.8313 79.7274 19.8127 79.8949H20.8643Z" fill="black"/>
<path d="M18.7443 47.3765V48H16.3992V44.687H17.1251V47.3765H18.7443Z" fill="black"/>
<path d="M6 49.4286L7.55102 50.3241V48.5331L6 49.4286ZM29.2653 49.4286L27.7143 48.5331V50.3241L29.2653 49.4286ZM7.39592 49.4286V49.5837H27.8694V49.4286V49.2735H7.39592V49.4286Z" fill="black" fill-opacity="0.9"/>
<path d="M31.6077 62.5239H32.3382L32.8687 64.776L33.4503 62.5239H34.1343L34.7066 64.8039L35.2557 62.5239H35.9723L35.0789 65.8369H34.353L33.7853 63.5755L33.227 65.8369H32.4871L31.6077 62.5239Z" fill="black"/>
<path d="M30.8125 52.5303L29.917 54.0813H31.708L30.8125 52.5303ZM30.8125 75.7956L31.708 74.2446H29.917L30.8125 75.7956ZM30.8125 53.9262H30.6574V74.3997H30.8125H30.9676V53.9262H30.8125Z" fill="black" fill-opacity="0.9"/>
<rect x="39.2" y="18.2" width="119.6" height="89.6" rx="4.8" stroke="black" stroke-width="0.4"/>
<path d="M39 28H159" stroke="black" stroke-opacity="0.4" stroke-width="0.4"/>
<path d="M39 38H159" stroke="black" stroke-opacity="0.4" stroke-width="0.4"/>
<path d="M39 48H159" stroke="black" stroke-opacity="0.4" stroke-width="0.4"/>
<path d="M39 58H159" stroke="black" stroke-opacity="0.4" stroke-width="0.4"/>
<path d="M39 68H159" stroke="black" stroke-opacity="0.4" stroke-width="0.4"/>
<path d="M39 78H159" stroke="black" stroke-opacity="0.4" stroke-width="0.4"/>
<path d="M39 88H159" stroke="black" stroke-opacity="0.4" stroke-width="0.4"/>
<path d="M39 98H159" stroke="black" stroke-opacity="0.4" stroke-width="0.4"/>
<path d="M51.5 18V108" stroke="black" stroke-opacity="0.4" stroke-width="0.4"/>
<path d="M63.5 18V108" stroke="black" stroke-opacity="0.4" stroke-width="0.4"/>
<path d="M75.5 18V108" stroke="black" stroke-opacity="0.4" stroke-width="0.4"/>
<path d="M87.5 18V108" stroke="black" stroke-opacity="0.4" stroke-width="0.4"/>
<path d="M99.5 18V108" stroke="black" stroke-opacity="0.4" stroke-width="0.4"/>
<path d="M111.5 18V108" stroke="black" stroke-opacity="0.4" stroke-width="0.4"/>
<path d="M123.5 18V108" stroke="black" stroke-opacity="0.4" stroke-width="0.4"/>
<path d="M135.5 18V108" stroke="black" stroke-opacity="0.4" stroke-width="0.4"/>
<path d="M147.5 18V108" stroke="black" stroke-opacity="0.4" stroke-width="0.4"/>
<rect width="48" height="28" transform="translate(75.5 49)" fill="white"/>
<path d="M80.55 57.032L85.506 57.046C86.486 57.046 87.298 57.27 87.928 57.746C88.544 58.208 88.866 58.922 88.866 59.874C88.866 60.448 88.726 60.952 88.446 61.386C88.166 61.82 87.774 62.128 87.284 62.324C88.138 62.492 88.628 63.276 88.754 64.648C88.754 64.69 88.754 64.83 88.782 65.082C88.796 65.32 88.81 65.516 88.838 65.656C88.852 65.796 88.88 65.978 88.908 66.188C88.936 66.384 88.978 66.566 89.034 66.706C89.09 66.846 89.146 66.944 89.23 67.014H86.962C86.878 66.86 86.822 66.664 86.794 66.44C86.752 66.216 86.724 65.922 86.696 65.558C86.668 65.194 86.654 64.998 86.654 64.956C86.57 64.256 86.402 63.78 86.122 63.5C85.842 63.234 85.366 63.094 84.666 63.094H82.72V67H80.55V57.032ZM82.72 58.768V61.526H84.792C85.394 61.526 85.87 61.428 86.206 61.232C86.542 61.036 86.724 60.672 86.724 60.112C86.724 59.58 86.556 59.23 86.22 59.048C85.884 58.852 85.45 58.768 84.89 58.768H82.72ZM93.9155 59.566C95.0215 59.566 95.9175 59.916 96.5895 60.616C97.2615 61.316 97.6115 62.24 97.6115 63.388C97.6115 64.55 97.2615 65.474 96.5895 66.174C95.9175 66.874 95.0075 67.224 93.8875 67.224C92.7535 67.224 91.8435 66.874 91.1715 66.174C90.4855 65.474 90.1495 64.55 90.1495 63.388C90.1495 62.24 90.4855 61.316 91.1855 60.616C91.8715 59.916 92.7815 59.566 93.9155 59.566ZM93.8595 61.078C93.3275 61.078 92.9075 61.288 92.5995 61.708C92.2915 62.114 92.1375 62.674 92.1375 63.402C92.1375 64.13 92.2915 64.704 92.5995 65.124C92.9075 65.53 93.3275 65.74 93.8875 65.74C94.4335 65.74 94.8535 65.53 95.1615 65.11C95.4695 64.69 95.6235 64.116 95.6235 63.374C95.6235 62.66 95.4555 62.1 95.1475 61.694C94.8395 61.288 94.4055 61.078 93.8595 61.078ZM102.474 59.566C103.58 59.566 104.476 59.916 105.148 60.616C105.82 61.316 106.17 62.24 106.17 63.388C106.17 64.55 105.82 65.474 105.148 66.174C104.476 66.874 103.566 67.224 102.446 67.224C101.312 67.224 100.402 66.874 99.7301 66.174C99.0441 65.474 98.7081 64.55 98.7081 63.388C98.7081 62.24 99.0441 61.316 99.7441 60.616C100.43 59.916 101.34 59.566 102.474 59.566ZM102.418 61.078C101.886 61.078 101.466 61.288 101.158 61.708C100.85 62.114 100.696 62.674 100.696 63.402C100.696 64.13 100.85 64.704 101.158 65.124C101.466 65.53 101.886 65.74 102.446 65.74C102.992 65.74 103.412 65.53 103.72 65.11C104.028 64.69 104.182 64.116 104.182 63.374C104.182 62.66 104.014 62.1 103.706 61.694C103.398 61.288 102.964 61.078 102.418 61.078ZM118.607 67H116.591V62.688C116.591 62.212 116.507 61.848 116.367 61.596C116.213 61.344 115.905 61.204 115.443 61.204C114.519 61.204 114.057 61.792 114.057 62.94V67H112.069V62.604C112.069 62.156 111.985 61.82 111.845 61.568C111.691 61.316 111.397 61.19 110.977 61.19C110.011 61.19 109.535 61.82 109.535 63.08V67H107.547V59.776H109.437V60.77C109.997 59.986 110.767 59.58 111.733 59.58C112.727 59.58 113.413 59.986 113.777 60.77C114.351 59.986 115.135 59.58 116.143 59.58C116.927 59.58 117.543 59.818 117.963 60.28C118.383 60.742 118.607 61.358 118.607 62.142V67Z" fill="black"/>
<path d="M164.018 62.728H164.96L165.644 65.632L166.394 62.728H167.276L168.014 65.668L168.722 62.728H169.646L168.494 67H167.558L166.826 64.084L166.106 67H165.152L164.018 62.728Z" fill="black"/>
<path d="M162 18L160.845 20L163.155 20L162 18ZM162 108L163.155 106L160.845 106L162 108ZM162 19.8L161.8 19.8L161.8 106.2L162 106.2L162.2 106.2L162.2 19.8L162 19.8Z" fill="black" fill-opacity="0.9"/>
<path d="M39 114L41 115.155V112.845L39 114ZM159 114L157 112.845V115.155L159 114ZM40.8 114V114.2H157.2V114V113.8H40.8V114Z" fill="black" fill-opacity="0.9"/>
<path d="M100.438 119.196V120H97.414V115.728H98.35V119.196H100.438Z" fill="black"/>
</svg>
