<svg width="46" height="46" viewBox="0 0 46 46" fill="none" xmlns="http://www.w3.org/2000/svg">
<rect width="46" height="46" rx="11.1034" fill="#F3F3F3"/>
<rect x="0.396552" y="0.396552" width="45.2069" height="45.2069" rx="10.7069" stroke="#B02E0C" stroke-opacity="0.04" stroke-width="0.793103"/>
<g clip-path="url(#clip0_2414_89484)">
<path d="M36.3726 28.363L23.4018 35.8606L23.3984 35.8587V25.5865L36.3696 18.0892L36.3726 18.0912V28.363Z" fill="#FF9411"/>
<path d="M23.4073 35.9821L23.2969 35.9244V25.5225L36.3724 17.9675L36.4815 18.0273V28.4273L23.4073 35.9821ZM23.5078 25.648V35.68L36.2707 28.3029V18.2705L23.5078 25.648Z" fill="#FF9411"/>
<path d="M23.3981 35.8607L9.62109 27.9058V17.6341L9.62427 17.6322L23.4016 25.5865V35.8587L23.3981 35.8607Z" fill="#E47C00"/>
<path d="M23.395 35.9837L9.51562 27.9678V17.5731L9.62037 17.5098L23.5067 25.5256V35.9227L23.395 35.9837ZM9.72652 27.8453L23.2956 35.6793V25.6473L9.72652 17.8132V27.8453Z" fill="#FF9411"/>
<path d="M9.625 17.6321L23.4023 25.5865L36.3735 18.0892V18.0853L22.5961 10.1361L9.625 17.6283V17.6321Z" fill="#FFB050"/>
<path d="M23.404 25.7059L9.51562 17.6942V17.568L22.5883 10.0162L36.4767 18.0243V18.1465L23.404 25.7059ZM9.83002 17.6299L23.3994 25.4643L36.1625 18.0869L22.5931 10.2578L9.83002 17.6299Z" fill="#FF9411"/>
</g>
<defs>
<clipPath id="clip0_2414_89484">
<rect width="26.9655" height="25.9675" fill="white" transform="translate(9.51562 10.0162)"/>
</clipPath>
</defs>
</svg>
