<svg width="176" height="136" viewBox="0 0 176 136" fill="none" xmlns="http://www.w3.org/2000/svg">
<path d="M0 16C0 7.16344 7.16344 0 16 0H160C168.837 0 176 7.16344 176 16V120C176 128.837 168.837 136 160 136H16C7.16344 136 0 128.837 0 120V16Z" fill="white"/>
<path d="M16 0.5H160C168.56 0.5 175.5 7.43959 175.5 16V120C175.5 128.56 168.56 135.5 160 135.5H16C7.43959 135.5 0.5 128.56 0.5 120V16C0.5 7.43959 7.43959 0.5 16 0.5Z" stroke="#B02E0C" stroke-opacity="0.16"/>
<rect x="29.6781" y="12.6781" width="116.976" height="31.5327" stroke="black" stroke-width="1.35625"/>
<circle cx="132.414" cy="36.7515" r="1.69531" fill="#FF0000"/>
<path d="M35 30.5V38H141V30.5" stroke="black" stroke-width="0.678123"/>
<circle cx="43.918" cy="36.7515" r="1.69531" fill="#B02E0C"/>
<circle cx="53.75" cy="36.7515" r="1.69531" fill="#B02E0C"/>
<circle cx="63.582" cy="36.7515" r="1.69531" fill="#B02E0C"/>
<circle cx="73.418" cy="36.7515" r="1.69531" fill="#B02E0C"/>
<circle cx="83.25" cy="36.7515" r="1.69531" fill="#B02E0C"/>
<circle cx="93.082" cy="36.7515" r="1.69531" fill="#B02E0C"/>
<circle cx="102.914" cy="36.7515" r="1.69531" fill="#B02E0C"/>
<circle cx="112.746" cy="36.7515" r="1.69531" fill="#B02E0C"/>
<circle cx="122.582" cy="36.7515" r="1.69531" fill="#B02E0C"/>
<circle cx="132.414" cy="36.7515" r="1.69531" fill="#B02E0C"/>
<path d="M35 26.5V18.4468H141V26.5" stroke="black" stroke-width="0.678123"/>
<circle cx="1.69531" cy="1.69531" r="1.69531" transform="matrix(1 0 0 -1 42.2227 21.3906)" fill="#B02E0C"/>
<circle cx="1.69531" cy="1.69531" r="1.69531" transform="matrix(1 0 0 -1 52.0547 21.3906)" fill="#B02E0C"/>
<circle cx="1.69531" cy="1.69531" r="1.69531" transform="matrix(1 0 0 -1 61.8867 21.3906)" fill="#B02E0C"/>
<circle cx="1.69531" cy="1.69531" r="1.69531" transform="matrix(1 0 0 -1 71.7227 21.3906)" fill="#B02E0C"/>
<circle cx="1.69531" cy="1.69531" r="1.69531" transform="matrix(1 0 0 -1 81.5547 21.3906)" fill="#B02E0C"/>
<circle cx="1.69531" cy="1.69531" r="1.69531" transform="matrix(1 0 0 -1 91.3867 21.3906)" fill="#B02E0C"/>
<circle cx="1.69531" cy="1.69531" r="1.69531" transform="matrix(1 0 0 -1 101.219 21.3906)" fill="#B02E0C"/>
<circle cx="1.69531" cy="1.69531" r="1.69531" transform="matrix(1 0 0 -1 111.051 21.3906)" fill="#B02E0C"/>
<circle cx="1.69531" cy="1.69531" r="1.69531" transform="matrix(1 0 0 -1 120.887 21.3906)" fill="#B02E0C"/>
<circle cx="1.69531" cy="1.69531" r="1.69531" transform="matrix(1 0 0 -1 130.719 21.3906)" fill="#B02E0C"/>
<rect x="29.6791" y="54.7406" width="117.143" height="70.2858" stroke="black" stroke-width="1.35818"/>
<path d="M45.2969 61.7013V118.066" stroke="#B02E0C" stroke-width="0.67909" stroke-linecap="round"/>
<path d="M55.1445 61.7013V118.066" stroke="#B02E0C" stroke-width="0.67909" stroke-linecap="round"/>
<path d="M64.6484 61.7013V118.066" stroke="#B02E0C" stroke-width="0.67909" stroke-linecap="round"/>
<path d="M74.1562 61.7013V118.066" stroke="#B02E0C" stroke-width="0.67909" stroke-linecap="round"/>
<path d="M83.6641 61.7013V118.066" stroke="#B02E0C" stroke-width="0.67909" stroke-linecap="round"/>
<path d="M93.1719 61.7013V118.066" stroke="#B02E0C" stroke-width="0.67909" stroke-linecap="round"/>
<path d="M102.68 61.7013V118.066" stroke="#B02E0C" stroke-width="0.67909" stroke-linecap="round"/>
<path d="M112.188 61.7013V118.066" stroke="#B02E0C" stroke-width="0.67909" stroke-linecap="round"/>
<path d="M121.695 61.7013V118.066" stroke="#B02E0C" stroke-width="0.67909" stroke-linecap="round"/>
<path d="M131.203 61.7013V118.066" stroke="#B02E0C" stroke-width="0.67909" stroke-linecap="round"/>
<path d="M36.8086 70.869H141.219" stroke="#B02E0C" stroke-width="0.67909" stroke-linecap="round"/>
<path d="M36.8086 80.3763H141.219" stroke="#B02E0C" stroke-width="0.67909" stroke-linecap="round"/>
<path d="M36.8086 89.8835H141.219" stroke="#B02E0C" stroke-width="0.67909" stroke-linecap="round"/>
<path d="M36.8086 99.7302H141.219" stroke="#B02E0C" stroke-width="0.67909" stroke-linecap="round"/>
<path d="M36.8086 109.238H141.219" stroke="#B02E0C" stroke-width="0.67909" stroke-linecap="round"/>
<path d="M14 109L15.3269 106.702H12.6731L14 109ZM14 103V102.77H13.7702V103H14ZM45 103.23H45.2298V102.77H45V103.23ZM14 106.932H14.2298V103H14H13.7702V106.932H14ZM14 103V103.23H45V103V102.77H14V103Z" fill="black"/>
<path d="M147 48L144.702 46.6731L144.702 49.3269L147 48ZM92 47.7702L91.7702 47.7702L91.7702 48.2298L92 48.2298L92 47.7702ZM144.932 48L144.932 47.7702L92 47.7702L92 48L92 48.2298L144.932 48.2298L144.932 48Z" fill="black"/>
<path d="M29 48L31.2982 49.3269V46.6731L29 48ZM84 48.2298H84.2298V47.7702H84V48.2298ZM31.0684 48V48.2298H84V48V47.7702H31.0684V48Z" fill="black"/>
<path d="M85.964 50L87.488 47.786L86.072 45.728H86.966L87.938 47.24L88.952 45.728H89.792L88.376 47.786L89.894 50H88.982L87.914 48.368L86.828 50H85.964Z" fill="#060C12"/>
<path d="M147 130L144.702 128.673L144.702 131.327L147 130ZM92 129.77L91.7702 129.77L91.7702 130.23L92 130.23L92 129.77ZM144.932 130L144.932 129.77L92 129.77L92 130L92 130.23L144.932 130.23L144.932 130Z" fill="black"/>
<path d="M29 130L31.2982 131.327V128.673L29 130ZM84 130.23H84.2298V129.77H84V130.23ZM31.0684 130V130.23H84V130V129.77H31.0684V130Z" fill="black"/>
<path d="M85.964 132L87.488 129.786L86.072 127.728H86.966L87.938 129.24L88.952 127.728H89.792L88.376 129.786L89.894 132H88.982L87.914 130.368L86.828 132H85.964Z" fill="#060C12"/>
<path d="M60.45 5.228H62.076C62.37 5.228 62.628 5.264 62.856 5.324C63.078 5.384 63.282 5.498 63.474 5.666C63.894 6.044 64.104 6.584 64.104 7.292C64.104 8.048 63.9 8.63 63.504 9.026C63.324 9.206 63.132 9.326 62.928 9.398C62.724 9.47 62.454 9.5 62.118 9.5H60.45V5.228ZM61.194 5.864V8.87H62.076C62.544 8.87 62.874 8.738 63.066 8.462C63.258 8.192 63.354 7.814 63.354 7.328C63.354 6.872 63.246 6.512 63.03 6.254C62.814 5.996 62.478 5.864 62.028 5.864H61.194ZM67.3361 8.894V9.5H64.4681C64.4681 9.314 64.4981 9.14 64.5461 8.984C64.5941 8.828 64.6481 8.696 64.7081 8.588C64.7681 8.48 64.8641 8.366 64.9841 8.252C65.1041 8.138 65.2181 8.042 65.3141 7.97C65.4101 7.898 65.5481 7.802 65.7221 7.682C65.7341 7.676 65.7881 7.64 65.8961 7.568C66.0041 7.496 66.0701 7.454 66.0941 7.436C66.1181 7.418 66.1721 7.376 66.2561 7.31C66.3401 7.244 66.3941 7.19 66.4181 7.148C66.4421 7.112 66.4781 7.058 66.5261 6.986C66.5741 6.92 66.6041 6.854 66.6221 6.782C66.6341 6.71 66.6461 6.638 66.6461 6.554C66.6461 6.338 66.5801 6.164 66.4601 6.038C66.3401 5.912 66.1721 5.846 65.9681 5.846C65.8481 5.846 65.7401 5.87 65.6561 5.906C65.5661 5.942 65.4941 5.99 65.4461 6.05C65.3981 6.11 65.3561 6.188 65.3261 6.284C65.2901 6.38 65.2721 6.464 65.2601 6.548C65.2481 6.632 65.2421 6.734 65.2421 6.842H64.5761V6.734C64.5761 6.284 64.7021 5.924 64.9541 5.66C65.2061 5.396 65.5541 5.258 65.9861 5.258C66.3941 5.258 66.7181 5.378 66.9701 5.606C67.2161 5.834 67.3421 6.14 67.3421 6.518C67.3421 6.674 67.3181 6.818 67.2701 6.95C67.2221 7.088 67.1681 7.196 67.1141 7.28C67.0601 7.364 66.9701 7.466 66.8381 7.574C66.7061 7.688 66.6041 7.766 66.5441 7.808C66.4781 7.856 66.3581 7.934 66.1901 8.048C65.6861 8.372 65.3861 8.654 65.2901 8.894H67.3361Z" fill="#060C12"/>
<path d="M26 12L24.6731 14.2982L27.3269 14.2982L26 12ZM25.7702 25L25.7702 25.2298L26.2298 25.2298L26.2298 25L25.7702 25ZM26 14.0684L25.7702 14.0684L25.7702 25L26 25L26.2298 25L26.2298 14.0684L26 14.0684Z" fill="black"/>
<path d="M26 45L27.3269 42.7018L24.6731 42.7018L26 45ZM26.2298 33L26.2298 32.7702L25.7702 32.7702L25.7702 33L26.2298 33ZM26 42.9316L26.2298 42.9316L26.2298 33L26 33L25.7702 33L25.7702 42.9316L26 42.9316Z" fill="black"/>
<path d="M25.212 26.728V31H24.456V26.728H25.212Z" fill="#060C12"/>
<path d="M27.212 26.728V31H26.456V26.728H27.212Z" fill="#060C12"/>
<path d="M26 54L24.6731 56.2982L27.3269 56.2982L26 54ZM25.7702 83L25.7702 83.2298L26.2298 83.2298L26.2298 83L25.7702 83ZM26 56.0684L25.7702 56.0684L25.7702 83L26 83L26.2298 83L26.2298 56.0684L26 56.0684Z" fill="black"/>
<path d="M26 126L27.3269 123.702L24.6731 123.702L26 126ZM26.2298 93L26.2298 92.7702L25.7702 92.7702L25.7702 93L26.2298 93ZM26 123.932L26.2298 123.932L26.2298 93L26 93L25.7702 93L25.7702 123.932L26 123.932Z" fill="black"/>
<path d="M27.93 85.728L26.322 88.302V90H25.584V88.302L23.97 85.728H24.834L25.968 87.618L27.09 85.728H27.93Z" fill="#060C12"/>
<path d="M38 19L36.6731 21.2982L39.3269 21.2982L38 19ZM37.7702 26.4848L37.7702 26.7146L38.2298 26.7146L38.2298 26.4848L37.7702 26.4848ZM38 21.0684L37.7702 21.0684L37.7702 26.4848L38 26.4848L38.2298 26.4848L38.2298 21.0684L38 21.0684Z" fill="black"/>
<path d="M38 38L39.3269 35.7017L36.6731 35.7017L38 38ZM38.2298 31.0909L38.2298 30.8611L37.7702 30.8611L37.7702 31.0909L38.2298 31.0909ZM38 35.9316L38.2298 35.9316L38.2298 31.0909L38 31.0909L37.7702 31.0909L37.7702 35.9316L38 35.9316Z" fill="black"/>
<path d="M38.6562 29.568V30H36.7042V27.152H37.2082V29.568H38.6562ZM39.0051 27.152H40.0891C40.2851 27.152 40.4571 27.176 40.6091 27.216C40.7571 27.256 40.8931 27.332 41.0211 27.444C41.3011 27.696 41.4411 28.056 41.4411 28.528C41.4411 29.032 41.3051 29.42 41.0411 29.684C40.9211 29.804 40.7931 29.884 40.6571 29.932C40.5211 29.98 40.3411 30 40.1171 30H39.0051V27.152ZM39.5011 27.576V29.58H40.0891C40.4011 29.58 40.6211 29.492 40.7491 29.308C40.8771 29.128 40.9411 28.876 40.9411 28.552C40.9411 28.248 40.8691 28.008 40.7251 27.836C40.5811 27.664 40.3571 27.576 40.0571 27.576H39.5011Z" fill="#060C12"/>
<path d="M136 80L134.673 82.2982L137.327 82.2982L136 80ZM136 90L137.327 87.7018L134.673 87.7018L136 90ZM136 82.0684L135.77 82.0684L135.77 87.9316L136 87.9316L136.23 87.9316L136.23 82.0684L136 82.0684Z" fill="black"/>
<path d="M55 66L52.7018 64.6731L52.7018 67.3269L55 66ZM45 66L47.2982 67.3269L47.2982 64.6731L45 66ZM52.9316 66L52.9316 65.7702L47.0684 65.7702L47.0684 66L47.0684 66.2298L52.9316 66.2298L52.9316 66Z" fill="black"/>
<path d="M121.45 23.728H123.076C123.37 23.728 123.628 23.764 123.856 23.824C124.078 23.884 124.282 23.998 124.474 24.166C124.894 24.544 125.104 25.084 125.104 25.792C125.104 26.548 124.9 27.13 124.504 27.526C124.324 27.706 124.132 27.826 123.928 27.898C123.724 27.97 123.454 28 123.118 28H121.45V23.728ZM122.194 24.364V27.37H123.076C123.544 27.37 123.874 27.238 124.066 26.962C124.258 26.692 124.354 26.314 124.354 25.828C124.354 25.372 124.246 25.012 124.03 24.754C123.814 24.496 123.478 24.364 123.028 24.364H122.194ZM127.592 23.776V28H126.86V25.096H125.816V24.592C126.542 24.592 126.95 24.322 127.04 23.776H127.592Z" fill="#060C12"/>
<path d="M140 26L137.702 24.6731V27.3269L140 26ZM128.5 25.7702H128.27V26.2298H128.5V25.7702ZM137.932 26V25.7702H128.5V26V26.2298H137.932V26Z" fill="black"/>
<path d="M79.45 3.728H81.076C81.37 3.728 81.628 3.764 81.856 3.824C82.078 3.884 82.282 3.998 82.474 4.166C82.894 4.544 83.104 5.084 83.104 5.792C83.104 6.548 82.9 7.13 82.504 7.526C82.324 7.706 82.132 7.826 81.928 7.898C81.724 7.97 81.454 8 81.118 8H79.45V3.728ZM80.194 4.364V7.37H81.076C81.544 7.37 81.874 7.238 82.066 6.962C82.258 6.692 82.354 6.314 82.354 5.828C82.354 5.372 82.246 5.012 82.03 4.754C81.814 4.496 81.478 4.364 81.028 4.364H80.194ZM86.4621 6.428V7.004H85.9281V8H85.2681L85.2621 7.004H83.4801V6.326L85.2801 3.764H85.9281V6.428H86.4621ZM85.2741 6.428V4.61L84.0441 6.428H85.2741Z" fill="#060C12"/>
<path d="M83 18L84.3269 15.7018L81.6731 15.7018L83 18ZM83.2298 9L83.2298 8.77018L82.7702 8.77018L82.7702 9L83.2298 9ZM83 15.9316L83.2298 15.9316L83.2298 9L83 9L82.7702 9L82.7702 15.9316L83 15.9316Z" fill="black"/>
<path d="M48.45 22.728H50.076C50.37 22.728 50.628 22.764 50.856 22.824C51.078 22.884 51.282 22.998 51.474 23.166C51.894 23.544 52.104 24.084 52.104 24.792C52.104 25.548 51.9 26.13 51.504 26.526C51.324 26.706 51.132 26.826 50.928 26.898C50.724 26.97 50.454 27 50.118 27H48.45V22.728ZM49.194 23.364V26.37H50.076C50.544 26.37 50.874 26.238 51.066 25.962C51.258 25.692 51.354 25.314 51.354 24.828C51.354 24.372 51.246 24.012 51.03 23.754C50.814 23.496 50.478 23.364 50.028 23.364H49.194ZM52.5941 24.15C52.6061 23.718 52.7321 23.382 52.9781 23.13C53.2181 22.884 53.5481 22.758 53.9621 22.758C54.3461 22.758 54.6641 22.866 54.9041 23.07C55.1441 23.28 55.2641 23.55 55.2641 23.886C55.2641 24.09 55.2101 24.27 55.1021 24.426C54.9941 24.582 54.8561 24.684 54.6761 24.744C54.9101 24.804 55.0961 24.924 55.2341 25.098C55.3661 25.272 55.4381 25.482 55.4381 25.734C55.4381 26.136 55.3001 26.46 55.0241 26.712C54.7481 26.964 54.3881 27.09 53.9501 27.09C53.5121 27.09 53.1581 26.964 52.8941 26.712C52.6241 26.46 52.4921 26.13 52.4921 25.71V25.62H53.1521C53.1701 26.208 53.4401 26.502 53.9681 26.502C54.1961 26.502 54.3821 26.436 54.5201 26.304C54.6521 26.172 54.7241 25.986 54.7241 25.752C54.7241 25.512 54.6461 25.332 54.4901 25.218C54.3341 25.11 54.1301 25.05 53.8841 25.05C53.8061 25.05 53.7341 25.056 53.6681 25.056V24.54H53.7281C53.8481 24.54 53.9561 24.534 54.0461 24.522C54.1301 24.51 54.2201 24.48 54.3101 24.444C54.4001 24.408 54.4721 24.342 54.5201 24.258C54.5681 24.174 54.5921 24.066 54.5921 23.934C54.5921 23.754 54.5321 23.604 54.4181 23.49C54.2981 23.382 54.1421 23.322 53.9501 23.322C53.5001 23.322 53.2661 23.598 53.2481 24.15H52.5941Z" fill="#060C12"/>
<path d="M35 25L37.2982 23.6731V26.3269L35 25ZM46.5 24.7702H46.7298V25.2298H46.5V24.7702ZM37.0684 25V24.7702H46.5V25V25.2298H37.0684V25Z" fill="black"/>
<path d="M136 70L137.327 67.7018H134.673L136 70ZM136 64V63.7702H135.77V64H136ZM149.5 64.2298H149.73V63.7702H149.5V64.2298ZM136 67.9316H136.23V64H136H135.77V67.9316H136ZM136 64V64.2298H149.5V64V63.7702H136V64Z" fill="black"/>
<path d="M150.45 61.728H152.076C152.37 61.728 152.628 61.764 152.856 61.824C153.078 61.884 153.282 61.998 153.474 62.166C153.894 62.544 154.104 63.084 154.104 63.792C154.104 64.548 153.9 65.13 153.504 65.526C153.324 65.706 153.132 65.826 152.928 65.898C152.724 65.97 152.454 66 152.118 66H150.45V61.728ZM151.194 62.364V65.37H152.076C152.544 65.37 152.874 65.238 153.066 64.962C153.258 64.692 153.354 64.314 153.354 63.828C153.354 63.372 153.246 63.012 153.03 62.754C152.814 62.496 152.478 62.364 152.028 62.364H151.194ZM156.592 61.776V66H155.86V63.096H154.816V62.592C155.542 62.592 155.95 62.322 156.04 61.776H156.592ZM158.804 63.132C158.64 63.444 158.52 63.74 158.44 64.02C158.36 64.3 158.32 64.616 158.32 64.964C158.32 65.58 158.48 66.18 158.808 66.764H158.44C158.244 66.448 158.1 66.156 158.004 65.884C157.908 65.616 157.864 65.312 157.864 64.972C157.864 64.296 158.056 63.684 158.44 63.132H158.804ZM159.073 63.152H160.373C160.669 63.152 160.897 63.22 161.057 63.348C161.217 63.476 161.297 63.652 161.297 63.868C161.297 64.004 161.257 64.128 161.185 64.236C161.109 64.344 161.009 64.42 160.889 64.468C161.053 64.508 161.185 64.588 161.281 64.708C161.377 64.828 161.425 64.98 161.425 65.16C161.425 65.412 161.341 65.616 161.173 65.768C161.005 65.924 160.789 66 160.525 66H159.073V63.152ZM159.561 63.556V64.34H160.241C160.433 64.34 160.573 64.312 160.665 64.252C160.753 64.192 160.801 64.092 160.801 63.948C160.801 63.788 160.753 63.684 160.657 63.632C160.561 63.584 160.429 63.556 160.257 63.556H159.561ZM159.561 64.7V65.592H160.309C160.501 65.592 160.649 65.56 160.761 65.496C160.869 65.432 160.925 65.316 160.925 65.148C160.925 65.056 160.905 64.98 160.873 64.916C160.841 64.852 160.793 64.808 160.729 64.776C160.665 64.748 160.601 64.728 160.537 64.716C160.469 64.708 160.389 64.7 160.301 64.7H159.561ZM162.79 63.876C163.102 63.876 163.354 63.976 163.542 64.172C163.726 64.372 163.822 64.636 163.822 64.968C163.822 65.304 163.726 65.572 163.542 65.768C163.358 65.968 163.106 66.064 162.79 66.064C162.466 66.064 162.21 65.968 162.022 65.768C161.83 65.572 161.738 65.304 161.738 64.968C161.738 64.636 161.83 64.372 162.022 64.172C162.214 63.976 162.47 63.876 162.79 63.876ZM162.782 64.236C162.598 64.236 162.458 64.304 162.354 64.432C162.25 64.564 162.198 64.744 162.198 64.968C162.198 65.2 162.25 65.384 162.354 65.512C162.458 65.644 162.602 65.708 162.786 65.708C162.962 65.708 163.102 65.644 163.206 65.512C163.31 65.38 163.362 65.196 163.362 64.964C163.362 64.74 163.31 64.56 163.206 64.432C163.102 64.304 162.962 64.236 162.782 64.236ZM165.213 63.936V64.268H164.797V65.356C164.797 65.42 164.797 65.468 164.801 65.492C164.801 65.516 164.809 65.544 164.825 65.576C164.837 65.608 164.861 65.628 164.893 65.636C164.925 65.648 164.973 65.652 165.033 65.652C165.105 65.652 165.165 65.652 165.213 65.644V66.004C165.121 66.016 165.017 66.02 164.905 66.02C164.825 66.02 164.753 66.016 164.693 66.004C164.633 65.992 164.585 65.976 164.545 65.96C164.505 65.944 164.469 65.92 164.445 65.88C164.417 65.84 164.397 65.808 164.381 65.784C164.365 65.76 164.357 65.712 164.349 65.648C164.341 65.584 164.341 65.536 164.341 65.504V65.328V65.304V65.28V65.252V64.268H163.997V63.936H164.341V63.316H164.797V63.936H165.213ZM166.545 63.936V64.268H166.129V65.356C166.129 65.42 166.129 65.468 166.133 65.492C166.133 65.516 166.141 65.544 166.157 65.576C166.169 65.608 166.193 65.628 166.225 65.636C166.257 65.648 166.305 65.652 166.365 65.652C166.437 65.652 166.497 65.652 166.545 65.644V66.004C166.453 66.016 166.349 66.02 166.237 66.02C166.157 66.02 166.085 66.016 166.025 66.004C165.965 65.992 165.917 65.976 165.877 65.96C165.837 65.944 165.801 65.92 165.777 65.88C165.749 65.84 165.729 65.808 165.713 65.784C165.697 65.76 165.689 65.712 165.681 65.648C165.673 65.584 165.673 65.536 165.673 65.504V65.328V65.304V65.28V65.252V64.268H165.329V63.936H165.673V63.316H166.129V63.936H166.545ZM167.825 63.876C168.137 63.876 168.389 63.976 168.577 64.172C168.761 64.372 168.857 64.636 168.857 64.968C168.857 65.304 168.761 65.572 168.577 65.768C168.393 65.968 168.141 66.064 167.825 66.064C167.501 66.064 167.245 65.968 167.057 65.768C166.865 65.572 166.773 65.304 166.773 64.968C166.773 64.636 166.865 64.372 167.057 64.172C167.249 63.976 167.505 63.876 167.825 63.876ZM167.817 64.236C167.633 64.236 167.493 64.304 167.389 64.432C167.285 64.564 167.233 64.744 167.233 64.968C167.233 65.2 167.285 65.384 167.389 65.512C167.493 65.644 167.637 65.708 167.821 65.708C167.997 65.708 168.137 65.644 168.241 65.512C168.345 65.38 168.397 65.196 168.397 64.964C168.397 64.74 168.345 64.56 168.241 64.432C168.137 64.304 167.997 64.236 167.817 64.236ZM169.676 63.936V64.228C169.844 63.996 170.06 63.88 170.324 63.88C170.46 63.88 170.576 63.912 170.676 63.972C170.776 64.036 170.852 64.12 170.9 64.232C171.064 64 171.288 63.88 171.568 63.88C171.76 63.88 171.924 63.94 172.052 64.056C172.18 64.172 172.244 64.332 172.244 64.536V66H171.788V64.732C171.788 64.588 171.76 64.472 171.712 64.388C171.66 64.308 171.564 64.264 171.42 64.264C171.272 64.264 171.16 64.312 171.084 64.404C171.004 64.496 170.968 64.624 170.968 64.788V66H170.512V64.708C170.512 64.564 170.488 64.452 170.444 64.376C170.4 64.304 170.308 64.264 170.172 64.264C170.016 64.264 169.9 64.316 169.82 64.416C169.74 64.516 169.7 64.648 169.7 64.812V66H169.244V63.936H169.676ZM173.388 64.972C173.388 65.312 173.34 65.616 173.244 65.884C173.148 66.156 173.004 66.448 172.812 66.764H172.444C172.768 66.18 172.932 65.58 172.932 64.964C172.932 64.616 172.892 64.3 172.812 64.02C172.732 63.74 172.608 63.444 172.448 63.132H172.812C173.196 63.684 173.388 64.296 173.388 64.972Z" fill="#060C12"/>
<path d="M150.45 67.728H152.076C152.37 67.728 152.628 67.764 152.856 67.824C153.078 67.884 153.282 67.998 153.474 68.166C153.894 68.544 154.104 69.084 154.104 69.792C154.104 70.548 153.9 71.13 153.504 71.526C153.324 71.706 153.132 71.826 152.928 71.898C152.724 71.97 152.454 72 152.118 72H150.45V67.728ZM151.194 68.364V71.37H152.076C152.544 71.37 152.874 71.238 153.066 70.962C153.258 70.692 153.354 70.314 153.354 69.828C153.354 69.372 153.246 69.012 153.03 68.754C152.814 68.496 152.478 68.364 152.028 68.364H151.194ZM154.594 69.15C154.606 68.718 154.732 68.382 154.978 68.13C155.218 67.884 155.548 67.758 155.962 67.758C156.346 67.758 156.664 67.866 156.904 68.07C157.144 68.28 157.264 68.55 157.264 68.886C157.264 69.09 157.21 69.27 157.102 69.426C156.994 69.582 156.856 69.684 156.676 69.744C156.91 69.804 157.096 69.924 157.234 70.098C157.366 70.272 157.438 70.482 157.438 70.734C157.438 71.136 157.3 71.46 157.024 71.712C156.748 71.964 156.388 72.09 155.95 72.09C155.512 72.09 155.158 71.964 154.894 71.712C154.624 71.46 154.492 71.13 154.492 70.71V70.62H155.152C155.17 71.208 155.44 71.502 155.968 71.502C156.196 71.502 156.382 71.436 156.52 71.304C156.652 71.172 156.724 70.986 156.724 70.752C156.724 70.512 156.646 70.332 156.49 70.218C156.334 70.11 156.13 70.05 155.884 70.05C155.806 70.05 155.734 70.056 155.668 70.056V69.54H155.728C155.848 69.54 155.956 69.534 156.046 69.522C156.13 69.51 156.22 69.48 156.31 69.444C156.4 69.408 156.472 69.342 156.52 69.258C156.568 69.174 156.592 69.066 156.592 68.934C156.592 68.754 156.532 68.604 156.418 68.49C156.298 68.382 156.142 68.322 155.95 68.322C155.5 68.322 155.266 68.598 155.248 69.15H154.594ZM158.804 69.132C158.64 69.444 158.52 69.74 158.44 70.02C158.36 70.3 158.32 70.616 158.32 70.964C158.32 71.58 158.48 72.18 158.808 72.764H158.44C158.244 72.448 158.1 72.156 158.004 71.884C157.908 71.616 157.864 71.312 157.864 70.972C157.864 70.296 158.056 69.684 158.44 69.132H158.804ZM161.121 69.152V69.584H160.213V72H159.713V69.584H158.805V69.152H161.121ZM161.899 69.876C162.211 69.876 162.463 69.976 162.651 70.172C162.835 70.372 162.931 70.636 162.931 70.968C162.931 71.304 162.835 71.572 162.651 71.768C162.467 71.968 162.215 72.064 161.899 72.064C161.575 72.064 161.319 71.968 161.131 71.768C160.939 71.572 160.847 71.304 160.847 70.968C160.847 70.636 160.939 70.372 161.131 70.172C161.323 69.976 161.579 69.876 161.899 69.876ZM161.891 70.236C161.707 70.236 161.567 70.304 161.463 70.432C161.359 70.564 161.307 70.744 161.307 70.968C161.307 71.2 161.359 71.384 161.463 71.512C161.567 71.644 161.711 71.708 161.895 71.708C162.071 71.708 162.211 71.644 162.315 71.512C162.419 71.38 162.471 71.196 162.471 70.964C162.471 70.74 162.419 70.56 162.315 70.432C162.211 70.304 162.071 70.236 161.891 70.236ZM163.75 69.936V70.212C163.886 69.988 164.11 69.876 164.422 69.876C164.706 69.876 164.934 69.976 165.106 70.176C165.274 70.376 165.362 70.644 165.362 70.976C165.362 71.304 165.278 71.564 165.11 71.76C164.942 71.956 164.722 72.052 164.446 72.052C164.15 72.052 163.926 71.944 163.774 71.728V72.764H163.322V69.936H163.75ZM164.33 70.244C164.15 70.244 164.01 70.308 163.91 70.436C163.806 70.564 163.758 70.744 163.758 70.968C163.758 71.192 163.806 71.368 163.91 71.496C164.014 71.624 164.154 71.688 164.338 71.688C164.51 71.688 164.646 71.624 164.75 71.496C164.85 71.368 164.902 71.196 164.902 70.976C164.902 70.752 164.85 70.576 164.746 70.444C164.642 70.312 164.506 70.244 164.33 70.244ZM166.428 70.972C166.428 71.312 166.38 71.616 166.284 71.884C166.188 72.156 166.044 72.448 165.852 72.764H165.484C165.808 72.18 165.972 71.58 165.972 70.964C165.972 70.616 165.932 70.3 165.852 70.02C165.772 69.74 165.648 69.444 165.488 69.132H165.852C166.236 69.684 166.428 70.296 166.428 70.972Z" fill="#060C12"/>
<path d="M154.522 83.988H153.808C153.76 83.49 153.454 83.238 152.878 83.238C152.62 83.238 152.422 83.292 152.278 83.4C152.134 83.508 152.062 83.652 152.062 83.832C152.062 84.006 152.11 84.126 152.218 84.186C152.326 84.252 152.56 84.33 152.926 84.42C153.022 84.45 153.094 84.468 153.148 84.48C153.622 84.6 153.946 84.708 154.12 84.804C154.498 85.008 154.69 85.326 154.69 85.758C154.69 85.95 154.654 86.118 154.594 86.268C154.528 86.424 154.444 86.55 154.336 86.652C154.228 86.754 154.096 86.838 153.952 86.904C153.802 86.976 153.646 87.024 153.49 87.054C153.328 87.084 153.16 87.096 152.992 87.096C152.452 87.096 152.02 86.97 151.69 86.712C151.354 86.46 151.192 86.082 151.192 85.584H151.93C151.93 85.896 152.032 86.13 152.236 86.28C152.44 86.43 152.704 86.502 153.034 86.502C153.322 86.502 153.544 86.448 153.706 86.328C153.868 86.208 153.952 86.046 153.952 85.83C153.952 85.698 153.904 85.584 153.82 85.5C153.736 85.416 153.64 85.35 153.544 85.314C153.442 85.278 153.268 85.23 153.022 85.164C152.992 85.158 152.968 85.152 152.956 85.146C152.422 85.014 152.074 84.9 151.906 84.81C151.558 84.63 151.372 84.354 151.348 83.976V83.892C151.348 83.514 151.486 83.214 151.774 82.986C152.062 82.758 152.446 82.644 152.926 82.644C153.388 82.644 153.766 82.758 154.06 82.974C154.348 83.196 154.504 83.532 154.522 83.988ZM157.153 82.776V87H156.421V84.096H155.377V83.592C156.103 83.592 156.511 83.322 156.601 82.776H157.153ZM159.365 84.132C159.201 84.444 159.081 84.74 159.001 85.02C158.921 85.3 158.881 85.616 158.881 85.964C158.881 86.58 159.041 87.18 159.369 87.764H159.001C158.805 87.448 158.661 87.156 158.565 86.884C158.469 86.616 158.425 86.312 158.425 85.972C158.425 85.296 158.617 84.684 159.001 84.132H159.365ZM159.634 84.152H160.934C161.23 84.152 161.458 84.22 161.618 84.348C161.778 84.476 161.858 84.652 161.858 84.868C161.858 85.004 161.818 85.128 161.746 85.236C161.67 85.344 161.57 85.42 161.45 85.468C161.614 85.508 161.746 85.588 161.842 85.708C161.938 85.828 161.986 85.98 161.986 86.16C161.986 86.412 161.902 86.616 161.734 86.768C161.566 86.924 161.35 87 161.086 87H159.634V84.152ZM160.122 84.556V85.34H160.802C160.994 85.34 161.134 85.312 161.226 85.252C161.314 85.192 161.362 85.092 161.362 84.948C161.362 84.788 161.314 84.684 161.218 84.632C161.122 84.584 160.99 84.556 160.818 84.556H160.122ZM160.122 85.7V86.592H160.87C161.062 86.592 161.21 86.56 161.322 86.496C161.43 86.432 161.486 86.316 161.486 86.148C161.486 86.056 161.466 85.98 161.434 85.916C161.402 85.852 161.354 85.808 161.29 85.776C161.226 85.748 161.162 85.728 161.098 85.716C161.03 85.708 160.95 85.7 160.862 85.7H160.122ZM163.35 84.876C163.662 84.876 163.914 84.976 164.102 85.172C164.286 85.372 164.382 85.636 164.382 85.968C164.382 86.304 164.286 86.572 164.102 86.768C163.918 86.968 163.666 87.064 163.35 87.064C163.026 87.064 162.77 86.968 162.582 86.768C162.39 86.572 162.298 86.304 162.298 85.968C162.298 85.636 162.39 85.372 162.582 85.172C162.774 84.976 163.03 84.876 163.35 84.876ZM163.342 85.236C163.158 85.236 163.018 85.304 162.914 85.432C162.81 85.564 162.758 85.744 162.758 85.968C162.758 86.2 162.81 86.384 162.914 86.512C163.018 86.644 163.162 86.708 163.346 86.708C163.522 86.708 163.662 86.644 163.766 86.512C163.87 86.38 163.922 86.196 163.922 85.964C163.922 85.74 163.87 85.56 163.766 85.432C163.662 85.304 163.522 85.236 163.342 85.236ZM165.773 84.936V85.268H165.357V86.356C165.357 86.42 165.357 86.468 165.361 86.492C165.361 86.516 165.369 86.544 165.385 86.576C165.397 86.608 165.421 86.628 165.453 86.636C165.485 86.648 165.533 86.652 165.593 86.652C165.665 86.652 165.725 86.652 165.773 86.644V87.004C165.681 87.016 165.577 87.02 165.465 87.02C165.385 87.02 165.313 87.016 165.253 87.004C165.193 86.992 165.145 86.976 165.105 86.96C165.065 86.944 165.029 86.92 165.005 86.88C164.977 86.84 164.957 86.808 164.941 86.784C164.925 86.76 164.917 86.712 164.909 86.648C164.901 86.584 164.901 86.536 164.901 86.504V86.328V86.304V86.28V86.252V85.268H164.557V84.936H164.901V84.316H165.357V84.936H165.773ZM167.105 84.936V85.268H166.689V86.356C166.689 86.42 166.689 86.468 166.693 86.492C166.693 86.516 166.701 86.544 166.717 86.576C166.729 86.608 166.753 86.628 166.785 86.636C166.817 86.648 166.865 86.652 166.925 86.652C166.997 86.652 167.057 86.652 167.105 86.644V87.004C167.013 87.016 166.909 87.02 166.797 87.02C166.717 87.02 166.645 87.016 166.585 87.004C166.525 86.992 166.477 86.976 166.437 86.96C166.397 86.944 166.361 86.92 166.337 86.88C166.309 86.84 166.289 86.808 166.273 86.784C166.257 86.76 166.249 86.712 166.241 86.648C166.233 86.584 166.233 86.536 166.233 86.504V86.328V86.304V86.28V86.252V85.268H165.889V84.936H166.233V84.316H166.689V84.936H167.105ZM168.385 84.876C168.697 84.876 168.949 84.976 169.137 85.172C169.321 85.372 169.417 85.636 169.417 85.968C169.417 86.304 169.321 86.572 169.137 86.768C168.953 86.968 168.701 87.064 168.385 87.064C168.061 87.064 167.805 86.968 167.617 86.768C167.425 86.572 167.333 86.304 167.333 85.968C167.333 85.636 167.425 85.372 167.617 85.172C167.809 84.976 168.065 84.876 168.385 84.876ZM168.377 85.236C168.193 85.236 168.053 85.304 167.949 85.432C167.845 85.564 167.793 85.744 167.793 85.968C167.793 86.2 167.845 86.384 167.949 86.512C168.053 86.644 168.197 86.708 168.381 86.708C168.557 86.708 168.697 86.644 168.801 86.512C168.905 86.38 168.957 86.196 168.957 85.964C168.957 85.74 168.905 85.56 168.801 85.432C168.697 85.304 168.557 85.236 168.377 85.236ZM170.237 84.936V85.228C170.405 84.996 170.621 84.88 170.885 84.88C171.021 84.88 171.137 84.912 171.237 84.972C171.337 85.036 171.413 85.12 171.461 85.232C171.625 85 171.849 84.88 172.129 84.88C172.321 84.88 172.485 84.94 172.613 85.056C172.741 85.172 172.805 85.332 172.805 85.536V87H172.349V85.732C172.349 85.588 172.321 85.472 172.273 85.388C172.221 85.308 172.125 85.264 171.981 85.264C171.833 85.264 171.721 85.312 171.645 85.404C171.565 85.496 171.529 85.624 171.529 85.788V87H171.073V85.708C171.073 85.564 171.049 85.452 171.005 85.376C170.961 85.304 170.869 85.264 170.733 85.264C170.577 85.264 170.461 85.316 170.381 85.416C170.301 85.516 170.261 85.648 170.261 85.812V87H169.805V84.936H170.237ZM173.949 85.972C173.949 86.312 173.901 86.616 173.805 86.884C173.709 87.156 173.565 87.448 173.373 87.764H173.005C173.329 87.18 173.493 86.58 173.493 85.964C173.493 85.616 173.453 85.3 173.373 85.02C173.293 84.74 173.169 84.444 173.009 84.132H173.373C173.757 84.684 173.949 85.296 173.949 85.972Z" fill="#060C12"/>
<path d="M154.522 89.988H153.808C153.76 89.49 153.454 89.238 152.878 89.238C152.62 89.238 152.422 89.292 152.278 89.4C152.134 89.508 152.062 89.652 152.062 89.832C152.062 90.006 152.11 90.126 152.218 90.186C152.326 90.252 152.56 90.33 152.926 90.42C153.022 90.45 153.094 90.468 153.148 90.48C153.622 90.6 153.946 90.708 154.12 90.804C154.498 91.008 154.69 91.326 154.69 91.758C154.69 91.95 154.654 92.118 154.594 92.268C154.528 92.424 154.444 92.55 154.336 92.652C154.228 92.754 154.096 92.838 153.952 92.904C153.802 92.976 153.646 93.024 153.49 93.054C153.328 93.084 153.16 93.096 152.992 93.096C152.452 93.096 152.02 92.97 151.69 92.712C151.354 92.46 151.192 92.082 151.192 91.584H151.93C151.93 91.896 152.032 92.13 152.236 92.28C152.44 92.43 152.704 92.502 153.034 92.502C153.322 92.502 153.544 92.448 153.706 92.328C153.868 92.208 153.952 92.046 153.952 91.83C153.952 91.698 153.904 91.584 153.82 91.5C153.736 91.416 153.64 91.35 153.544 91.314C153.442 91.278 153.268 91.23 153.022 91.164C152.992 91.158 152.968 91.152 152.956 91.146C152.422 91.014 152.074 90.9 151.906 90.81C151.558 90.63 151.372 90.354 151.348 89.976V89.892C151.348 89.514 151.486 89.214 151.774 88.986C152.062 88.758 152.446 88.644 152.926 88.644C153.388 88.644 153.766 88.758 154.06 88.974C154.348 89.196 154.504 89.532 154.522 89.988ZM155.155 90.15C155.167 89.718 155.293 89.382 155.539 89.13C155.779 88.884 156.109 88.758 156.523 88.758C156.907 88.758 157.225 88.866 157.465 89.07C157.705 89.28 157.825 89.55 157.825 89.886C157.825 90.09 157.771 90.27 157.663 90.426C157.555 90.582 157.417 90.684 157.237 90.744C157.471 90.804 157.657 90.924 157.795 91.098C157.927 91.272 157.999 91.482 157.999 91.734C157.999 92.136 157.861 92.46 157.585 92.712C157.309 92.964 156.949 93.09 156.511 93.09C156.073 93.09 155.719 92.964 155.455 92.712C155.185 92.46 155.053 92.13 155.053 91.71V91.62H155.713C155.731 92.208 156.001 92.502 156.529 92.502C156.757 92.502 156.943 92.436 157.081 92.304C157.213 92.172 157.285 91.986 157.285 91.752C157.285 91.512 157.207 91.332 157.051 91.218C156.895 91.11 156.691 91.05 156.445 91.05C156.367 91.05 156.295 91.056 156.229 91.056V90.54H156.289C156.409 90.54 156.517 90.534 156.607 90.522C156.691 90.51 156.781 90.48 156.871 90.444C156.961 90.408 157.033 90.342 157.081 90.258C157.129 90.174 157.153 90.066 157.153 89.934C157.153 89.754 157.093 89.604 156.979 89.49C156.859 89.382 156.703 89.322 156.511 89.322C156.061 89.322 155.827 89.598 155.809 90.15H155.155ZM159.365 90.132C159.201 90.444 159.081 90.74 159.001 91.02C158.921 91.3 158.881 91.616 158.881 91.964C158.881 92.58 159.041 93.18 159.369 93.764H159.001C158.805 93.448 158.661 93.156 158.565 92.884C158.469 92.616 158.425 92.312 158.425 91.972C158.425 91.296 158.617 90.684 159.001 90.132H159.365ZM161.682 90.152V90.584H160.774V93H160.274V90.584H159.366V90.152H161.682ZM162.46 90.876C162.772 90.876 163.024 90.976 163.212 91.172C163.396 91.372 163.492 91.636 163.492 91.968C163.492 92.304 163.396 92.572 163.212 92.768C163.028 92.968 162.776 93.064 162.46 93.064C162.136 93.064 161.88 92.968 161.692 92.768C161.5 92.572 161.408 92.304 161.408 91.968C161.408 91.636 161.5 91.372 161.692 91.172C161.884 90.976 162.14 90.876 162.46 90.876ZM162.452 91.236C162.268 91.236 162.128 91.304 162.024 91.432C161.92 91.564 161.868 91.744 161.868 91.968C161.868 92.2 161.92 92.384 162.024 92.512C162.128 92.644 162.272 92.708 162.456 92.708C162.632 92.708 162.772 92.644 162.876 92.512C162.98 92.38 163.032 92.196 163.032 91.964C163.032 91.74 162.98 91.56 162.876 91.432C162.772 91.304 162.632 91.236 162.452 91.236ZM164.311 90.936V91.212C164.447 90.988 164.671 90.876 164.983 90.876C165.267 90.876 165.495 90.976 165.667 91.176C165.835 91.376 165.923 91.644 165.923 91.976C165.923 92.304 165.839 92.564 165.671 92.76C165.503 92.956 165.283 93.052 165.007 93.052C164.711 93.052 164.487 92.944 164.335 92.728V93.764H163.883V90.936H164.311ZM164.891 91.244C164.711 91.244 164.571 91.308 164.471 91.436C164.367 91.564 164.319 91.744 164.319 91.968C164.319 92.192 164.367 92.368 164.471 92.496C164.575 92.624 164.715 92.688 164.899 92.688C165.071 92.688 165.207 92.624 165.311 92.496C165.411 92.368 165.463 92.196 165.463 91.976C165.463 91.752 165.411 91.576 165.307 91.444C165.203 91.312 165.067 91.244 164.891 91.244ZM166.988 91.972C166.988 92.312 166.94 92.616 166.844 92.884C166.748 93.156 166.604 93.448 166.412 93.764H166.044C166.368 93.18 166.532 92.58 166.532 91.964C166.532 91.616 166.492 91.3 166.412 91.02C166.332 90.74 166.208 90.444 166.048 90.132H166.412C166.796 90.684 166.988 91.296 166.988 91.972Z" fill="#060C12"/>
<path d="M139 85L141.298 83.6731V86.3269L139 85ZM150.5 84.7702H150.73V85.2298H150.5V84.7702ZM141.068 85V84.7702H150.5V85V85.2298H141.068V85Z" fill="black"/>
<path d="M5.522 66.988H4.808C4.76 66.49 4.454 66.238 3.878 66.238C3.62 66.238 3.422 66.292 3.278 66.4C3.134 66.508 3.062 66.652 3.062 66.832C3.062 67.006 3.11 67.126 3.218 67.186C3.326 67.252 3.56 67.33 3.926 67.42C4.022 67.45 4.094 67.468 4.148 67.48C4.622 67.6 4.946 67.708 5.12 67.804C5.498 68.008 5.69 68.326 5.69 68.758C5.69 68.95 5.654 69.118 5.594 69.268C5.528 69.424 5.444 69.55 5.336 69.652C5.228 69.754 5.096 69.838 4.952 69.904C4.802 69.976 4.646 70.024 4.49 70.054C4.328 70.084 4.16 70.096 3.992 70.096C3.452 70.096 3.02 69.97 2.69 69.712C2.354 69.46 2.192 69.082 2.192 68.584H2.93C2.93 68.896 3.032 69.13 3.236 69.28C3.44 69.43 3.704 69.502 4.034 69.502C4.322 69.502 4.544 69.448 4.706 69.328C4.868 69.208 4.952 69.046 4.952 68.83C4.952 68.698 4.904 68.584 4.82 68.5C4.736 68.416 4.64 68.35 4.544 68.314C4.442 68.278 4.268 68.23 4.022 68.164C3.992 68.158 3.968 68.152 3.956 68.146C3.422 68.014 3.074 67.9 2.906 67.81C2.558 67.63 2.372 67.354 2.348 66.976V66.892C2.348 66.514 2.486 66.214 2.774 65.986C3.062 65.758 3.446 65.644 3.926 65.644C4.388 65.644 4.766 65.758 5.06 65.974C5.348 66.196 5.504 66.532 5.522 66.988ZM8.89663 69.394V70H6.02863C6.02863 69.814 6.05863 69.64 6.10663 69.484C6.15463 69.328 6.20863 69.196 6.26863 69.088C6.32863 68.98 6.42463 68.866 6.54463 68.752C6.66463 68.638 6.77863 68.542 6.87463 68.47C6.97063 68.398 7.10863 68.302 7.28263 68.182C7.29463 68.176 7.34863 68.14 7.45663 68.068C7.56463 67.996 7.63063 67.954 7.65462 67.936C7.67863 67.918 7.73263 67.876 7.81663 67.81C7.90063 67.744 7.95463 67.69 7.97863 67.648C8.00263 67.612 8.03863 67.558 8.08663 67.486C8.13463 67.42 8.16463 67.354 8.18263 67.282C8.19463 67.21 8.20663 67.138 8.20663 67.054C8.20663 66.838 8.14063 66.664 8.02063 66.538C7.90063 66.412 7.73263 66.346 7.52863 66.346C7.40863 66.346 7.30063 66.37 7.21663 66.406C7.12663 66.442 7.05463 66.49 7.00663 66.55C6.95863 66.61 6.91663 66.688 6.88663 66.784C6.85063 66.88 6.83263 66.964 6.82063 67.048C6.80863 67.132 6.80263 67.234 6.80263 67.342H6.13663V67.234C6.13663 66.784 6.26263 66.424 6.51463 66.16C6.76663 65.896 7.11463 65.758 7.54663 65.758C7.95463 65.758 8.27863 65.878 8.53063 66.106C8.77663 66.334 8.90263 66.64 8.90263 67.018C8.90263 67.174 8.87863 67.318 8.83063 67.45C8.78263 67.588 8.72863 67.696 8.67463 67.78C8.62063 67.864 8.53063 67.966 8.39863 68.074C8.26663 68.188 8.16463 68.266 8.10463 68.308C8.03863 68.356 7.91863 68.434 7.75063 68.548C7.24663 68.872 6.94663 69.154 6.85063 69.394H8.89663ZM10.3646 67.132C10.2006 67.444 10.0806 67.74 10.0006 68.02C9.92061 68.3 9.88061 68.616 9.88061 68.964C9.88061 69.58 10.0406 70.18 10.3686 70.764H10.0006C9.80461 70.448 9.66061 70.156 9.56461 69.884C9.46861 69.616 9.42461 69.312 9.42461 68.972C9.42461 68.296 9.61661 67.684 10.0006 67.132H10.3646ZM10.6339 67.152H11.9339C12.2299 67.152 12.4579 67.22 12.6179 67.348C12.7779 67.476 12.8579 67.652 12.8579 67.868C12.8579 68.004 12.8179 68.128 12.7459 68.236C12.6699 68.344 12.5699 68.42 12.4499 68.468C12.6139 68.508 12.7459 68.588 12.8419 68.708C12.9379 68.828 12.9859 68.98 12.9859 69.16C12.9859 69.412 12.9019 69.616 12.7339 69.768C12.5659 69.924 12.3499 70 12.0859 70H10.6339V67.152ZM11.1219 67.556V68.34H11.8019C11.9939 68.34 12.1339 68.312 12.2259 68.252C12.3139 68.192 12.3619 68.092 12.3619 67.948C12.3619 67.788 12.3139 67.684 12.2179 67.632C12.1219 67.584 11.9899 67.556 11.8179 67.556H11.1219ZM11.1219 68.7V69.592H11.8699C12.0619 69.592 12.2099 69.56 12.3219 69.496C12.4299 69.432 12.4859 69.316 12.4859 69.148C12.4859 69.056 12.4659 68.98 12.4339 68.916C12.4019 68.852 12.3539 68.808 12.2899 68.776C12.2259 68.748 12.1619 68.728 12.0979 68.716C12.0299 68.708 11.9499 68.7 11.8619 68.7H11.1219ZM14.3503 67.876C14.6623 67.876 14.9143 67.976 15.1023 68.172C15.2863 68.372 15.3823 68.636 15.3823 68.968C15.3823 69.304 15.2863 69.572 15.1023 69.768C14.9183 69.968 14.6663 70.064 14.3503 70.064C14.0263 70.064 13.7703 69.968 13.5823 69.768C13.3903 69.572 13.2983 69.304 13.2983 68.968C13.2983 68.636 13.3903 68.372 13.5823 68.172C13.7743 67.976 14.0303 67.876 14.3503 67.876ZM14.3423 68.236C14.1583 68.236 14.0183 68.304 13.9143 68.432C13.8103 68.564 13.7583 68.744 13.7583 68.968C13.7583 69.2 13.8103 69.384 13.9143 69.512C14.0183 69.644 14.1623 69.708 14.3463 69.708C14.5223 69.708 14.6623 69.644 14.7663 69.512C14.8703 69.38 14.9223 69.196 14.9223 68.964C14.9223 68.74 14.8703 68.56 14.7663 68.432C14.6623 68.304 14.5223 68.236 14.3423 68.236ZM16.7734 67.936V68.268H16.3574V69.356C16.3574 69.42 16.3574 69.468 16.3614 69.492C16.3614 69.516 16.3694 69.544 16.3854 69.576C16.3974 69.608 16.4214 69.628 16.4534 69.636C16.4854 69.648 16.5334 69.652 16.5934 69.652C16.6654 69.652 16.7254 69.652 16.7734 69.644V70.004C16.6814 70.016 16.5774 70.02 16.4654 70.02C16.3854 70.02 16.3134 70.016 16.2534 70.004C16.1934 69.992 16.1454 69.976 16.1054 69.96C16.0654 69.944 16.0294 69.92 16.0054 69.88C15.9774 69.84 15.9574 69.808 15.9414 69.784C15.9254 69.76 15.9174 69.712 15.9094 69.648C15.9014 69.584 15.9014 69.536 15.9014 69.504V69.328V69.304V69.28V69.252V68.268H15.5574V67.936H15.9014V67.316H16.3574V67.936H16.7734ZM18.1054 67.936V68.268H17.6894V69.356C17.6894 69.42 17.6894 69.468 17.6934 69.492C17.6934 69.516 17.7014 69.544 17.7174 69.576C17.7294 69.608 17.7534 69.628 17.7854 69.636C17.8174 69.648 17.8654 69.652 17.9254 69.652C17.9974 69.652 18.0574 69.652 18.1054 69.644V70.004C18.0134 70.016 17.9094 70.02 17.7974 70.02C17.7174 70.02 17.6454 70.016 17.5854 70.004C17.5254 69.992 17.4774 69.976 17.4374 69.96C17.3974 69.944 17.3614 69.92 17.3374 69.88C17.3094 69.84 17.2894 69.808 17.2734 69.784C17.2574 69.76 17.2494 69.712 17.2414 69.648C17.2334 69.584 17.2334 69.536 17.2334 69.504V69.328V69.304V69.28V69.252V68.268H16.8894V67.936H17.2334V67.316H17.6894V67.936H18.1054ZM19.3855 67.876C19.6975 67.876 19.9495 67.976 20.1375 68.172C20.3215 68.372 20.4175 68.636 20.4175 68.968C20.4175 69.304 20.3215 69.572 20.1375 69.768C19.9535 69.968 19.7015 70.064 19.3855 70.064C19.0615 70.064 18.8055 69.968 18.6175 69.768C18.4255 69.572 18.3335 69.304 18.3335 68.968C18.3335 68.636 18.4255 68.372 18.6175 68.172C18.8095 67.976 19.0655 67.876 19.3855 67.876ZM19.3775 68.236C19.1935 68.236 19.0535 68.304 18.9495 68.432C18.8455 68.564 18.7935 68.744 18.7935 68.968C18.7935 69.2 18.8455 69.384 18.9495 69.512C19.0535 69.644 19.1975 69.708 19.3815 69.708C19.5575 69.708 19.6975 69.644 19.8015 69.512C19.9055 69.38 19.9575 69.196 19.9575 68.964C19.9575 68.74 19.9055 68.56 19.8015 68.432C19.6975 68.304 19.5575 68.236 19.3775 68.236ZM21.2365 67.936V68.228C21.4045 67.996 21.6205 67.88 21.8845 67.88C22.0205 67.88 22.1365 67.912 22.2365 67.972C22.3365 68.036 22.4125 68.12 22.4605 68.232C22.6245 68 22.8485 67.88 23.1285 67.88C23.3205 67.88 23.4845 67.94 23.6125 68.056C23.7405 68.172 23.8045 68.332 23.8045 68.536V70H23.3485V68.732C23.3485 68.588 23.3205 68.472 23.2725 68.388C23.2205 68.308 23.1245 68.264 22.9805 68.264C22.8325 68.264 22.7205 68.312 22.6445 68.404C22.5645 68.496 22.5285 68.624 22.5285 68.788V70H22.0725V68.708C22.0725 68.564 22.0485 68.452 22.0045 68.376C21.9605 68.304 21.8685 68.264 21.7325 68.264C21.5765 68.264 21.4605 68.316 21.3805 68.416C21.3005 68.516 21.2605 68.648 21.2605 68.812V70H20.8045V67.936H21.2365ZM24.949 68.972C24.949 69.312 24.901 69.616 24.805 69.884C24.709 70.156 24.565 70.448 24.373 70.764H24.005C24.329 70.18 24.493 69.58 24.493 68.964C24.493 68.616 24.453 68.3 24.373 68.02C24.293 67.74 24.169 67.444 24.009 67.132H24.373C24.757 67.684 24.949 68.296 24.949 68.972Z" fill="#060C12"/>
<path d="M5.522 71.988H4.808C4.76 71.49 4.454 71.238 3.878 71.238C3.62 71.238 3.422 71.292 3.278 71.4C3.134 71.508 3.062 71.652 3.062 71.832C3.062 72.006 3.11 72.126 3.218 72.186C3.326 72.252 3.56 72.33 3.926 72.42C4.022 72.45 4.094 72.468 4.148 72.48C4.622 72.6 4.946 72.708 5.12 72.804C5.498 73.008 5.69 73.326 5.69 73.758C5.69 73.95 5.654 74.118 5.594 74.268C5.528 74.424 5.444 74.55 5.336 74.652C5.228 74.754 5.096 74.838 4.952 74.904C4.802 74.976 4.646 75.024 4.49 75.054C4.328 75.084 4.16 75.096 3.992 75.096C3.452 75.096 3.02 74.97 2.69 74.712C2.354 74.46 2.192 74.082 2.192 73.584H2.93C2.93 73.896 3.032 74.13 3.236 74.28C3.44 74.43 3.704 74.502 4.034 74.502C4.322 74.502 4.544 74.448 4.706 74.328C4.868 74.208 4.952 74.046 4.952 73.83C4.952 73.698 4.904 73.584 4.82 73.5C4.736 73.416 4.64 73.35 4.544 73.314C4.442 73.278 4.268 73.23 4.022 73.164C3.992 73.158 3.968 73.152 3.956 73.146C3.422 73.014 3.074 72.9 2.906 72.81C2.558 72.63 2.372 72.354 2.348 71.976V71.892C2.348 71.514 2.486 71.214 2.774 70.986C3.062 70.758 3.446 70.644 3.926 70.644C4.388 70.644 4.766 70.758 5.06 70.974C5.348 71.196 5.504 71.532 5.522 71.988ZM6.15463 72.15C6.16663 71.718 6.29263 71.382 6.53863 71.13C6.77863 70.884 7.10863 70.758 7.52263 70.758C7.90663 70.758 8.22463 70.866 8.46463 71.07C8.70463 71.28 8.82463 71.55 8.82463 71.886C8.82463 72.09 8.77063 72.27 8.66263 72.426C8.55463 72.582 8.41663 72.684 8.23663 72.744C8.47063 72.804 8.65663 72.924 8.79463 73.098C8.92663 73.272 8.99863 73.482 8.99863 73.734C8.99863 74.136 8.86063 74.46 8.58463 74.712C8.30863 74.964 7.94863 75.09 7.51063 75.09C7.07263 75.09 6.71863 74.964 6.45463 74.712C6.18463 74.46 6.05263 74.13 6.05263 73.71V73.62H6.71263C6.73063 74.208 7.00063 74.502 7.52863 74.502C7.75663 74.502 7.94263 74.436 8.08063 74.304C8.21263 74.172 8.28463 73.986 8.28463 73.752C8.28463 73.512 8.20663 73.332 8.05063 73.218C7.89463 73.11 7.69063 73.05 7.44463 73.05C7.36663 73.05 7.29463 73.056 7.22863 73.056V72.54H7.28863C7.40863 72.54 7.51663 72.534 7.60663 72.522C7.69063 72.51 7.78063 72.48 7.87063 72.444C7.96063 72.408 8.03263 72.342 8.08063 72.258C8.12863 72.174 8.15263 72.066 8.15263 71.934C8.15263 71.754 8.09263 71.604 7.97863 71.49C7.85863 71.382 7.70263 71.322 7.51063 71.322C7.06063 71.322 6.82663 71.598 6.80863 72.15H6.15463ZM10.3646 72.132C10.2006 72.444 10.0806 72.74 10.0006 73.02C9.92061 73.3 9.88061 73.616 9.88061 73.964C9.88061 74.58 10.0406 75.18 10.3686 75.764H10.0006C9.80461 75.448 9.66061 75.156 9.56461 74.884C9.46861 74.616 9.42461 74.312 9.42461 73.972C9.42461 73.296 9.61661 72.684 10.0006 72.132H10.3646ZM12.6819 72.152V72.584H11.7739V75H11.2739V72.584H10.3659V72.152H12.6819ZM13.4597 72.876C13.7717 72.876 14.0237 72.976 14.2117 73.172C14.3957 73.372 14.4917 73.636 14.4917 73.968C14.4917 74.304 14.3957 74.572 14.2117 74.768C14.0277 74.968 13.7757 75.064 13.4597 75.064C13.1357 75.064 12.8797 74.968 12.6917 74.768C12.4997 74.572 12.4077 74.304 12.4077 73.968C12.4077 73.636 12.4997 73.372 12.6917 73.172C12.8837 72.976 13.1397 72.876 13.4597 72.876ZM13.4517 73.236C13.2677 73.236 13.1277 73.304 13.0237 73.432C12.9197 73.564 12.8677 73.744 12.8677 73.968C12.8677 74.2 12.9197 74.384 13.0237 74.512C13.1277 74.644 13.2717 74.708 13.4557 74.708C13.6317 74.708 13.7717 74.644 13.8757 74.512C13.9797 74.38 14.0317 74.196 14.0317 73.964C14.0317 73.74 13.9797 73.56 13.8757 73.432C13.7717 73.304 13.6317 73.236 13.4517 73.236ZM15.3108 72.936V73.212C15.4468 72.988 15.6708 72.876 15.9828 72.876C16.2668 72.876 16.4948 72.976 16.6668 73.176C16.8348 73.376 16.9228 73.644 16.9228 73.976C16.9228 74.304 16.8388 74.564 16.6708 74.76C16.5028 74.956 16.2828 75.052 16.0068 75.052C15.7108 75.052 15.4868 74.944 15.3348 74.728V75.764H14.8828V72.936H15.3108ZM15.8908 73.244C15.7108 73.244 15.5708 73.308 15.4708 73.436C15.3668 73.564 15.3188 73.744 15.3188 73.968C15.3188 74.192 15.3668 74.368 15.4708 74.496C15.5748 74.624 15.7148 74.688 15.8988 74.688C16.0708 74.688 16.2068 74.624 16.3108 74.496C16.4108 74.368 16.4628 74.196 16.4628 73.976C16.4628 73.752 16.4108 73.576 16.3068 73.444C16.2028 73.312 16.0668 73.244 15.8908 73.244ZM17.9881 73.972C17.9881 74.312 17.9401 74.616 17.8441 74.884C17.7481 75.156 17.6041 75.448 17.4121 75.764H17.0441C17.3681 75.18 17.5321 74.58 17.5321 73.964C17.5321 73.616 17.4921 73.3 17.4121 73.02C17.3321 72.74 17.2081 72.444 17.0481 72.132H17.4121C17.7961 72.684 17.9881 73.296 17.9881 73.972Z" fill="#060C12"/>
<path d="M2.45 109.728H4.076C4.37 109.728 4.628 109.764 4.856 109.824C5.078 109.884 5.282 109.998 5.474 110.166C5.894 110.544 6.104 111.084 6.104 111.792C6.104 112.548 5.9 113.13 5.504 113.526C5.324 113.706 5.132 113.826 4.928 113.898C4.724 113.97 4.454 114 4.118 114H2.45V109.728ZM3.194 110.364V113.37H4.076C4.544 113.37 4.874 113.238 5.066 112.962C5.258 112.692 5.354 112.314 5.354 111.828C5.354 111.372 5.246 111.012 5.03 110.754C4.814 110.496 4.478 110.364 4.028 110.364H3.194ZM9.33608 113.394V114H6.46808C6.46808 113.814 6.49808 113.64 6.54608 113.484C6.59408 113.328 6.64808 113.196 6.70808 113.088C6.76808 112.98 6.86408 112.866 6.98408 112.752C7.10408 112.638 7.21808 112.542 7.31408 112.47C7.41008 112.398 7.54808 112.302 7.72208 112.182C7.73408 112.176 7.78808 112.14 7.89608 112.068C8.00408 111.996 8.07008 111.954 8.09408 111.936C8.11808 111.918 8.17208 111.876 8.25608 111.81C8.34008 111.744 8.39408 111.69 8.41808 111.648C8.44208 111.612 8.47808 111.558 8.52608 111.486C8.57408 111.42 8.60408 111.354 8.62208 111.282C8.63408 111.21 8.64608 111.138 8.64608 111.054C8.64608 110.838 8.58008 110.664 8.46008 110.538C8.34008 110.412 8.17208 110.346 7.96808 110.346C7.84808 110.346 7.74008 110.37 7.65608 110.406C7.56608 110.442 7.49408 110.49 7.44608 110.55C7.39808 110.61 7.35608 110.688 7.32608 110.784C7.29008 110.88 7.27208 110.964 7.26008 111.048C7.24808 111.132 7.24208 111.234 7.24208 111.342H6.57608V111.234C6.57608 110.784 6.70208 110.424 6.95408 110.16C7.20608 109.896 7.55408 109.758 7.98608 109.758C8.39408 109.758 8.71808 109.878 8.97008 110.106C9.21608 110.334 9.34208 110.64 9.34208 111.018C9.34208 111.174 9.31808 111.318 9.27008 111.45C9.22208 111.588 9.16808 111.696 9.11408 111.78C9.06008 111.864 8.97008 111.966 8.83808 112.074C8.70608 112.188 8.60408 112.266 8.54408 112.308C8.47808 112.356 8.35808 112.434 8.19008 112.548C7.68608 112.872 7.38608 113.154 7.29008 113.394H9.33608ZM10.8041 111.132C10.6401 111.444 10.5201 111.74 10.4401 112.02C10.3601 112.3 10.3201 112.616 10.3201 112.964C10.3201 113.58 10.4801 114.18 10.8081 114.764H10.4401C10.2441 114.448 10.1001 114.156 10.0041 113.884C9.90806 113.616 9.86406 113.312 9.86406 112.972C9.86406 112.296 10.0561 111.684 10.4401 111.132H10.8041ZM11.0733 111.152H12.3733C12.6693 111.152 12.8973 111.22 13.0573 111.348C13.2173 111.476 13.2973 111.652 13.2973 111.868C13.2973 112.004 13.2573 112.128 13.1853 112.236C13.1093 112.344 13.0093 112.42 12.8893 112.468C13.0533 112.508 13.1853 112.588 13.2813 112.708C13.3773 112.828 13.4253 112.98 13.4253 113.16C13.4253 113.412 13.3413 113.616 13.1733 113.768C13.0053 113.924 12.7893 114 12.5253 114H11.0733V111.152ZM11.5613 111.556V112.34H12.2413C12.4333 112.34 12.5733 112.312 12.6653 112.252C12.7533 112.192 12.8013 112.092 12.8013 111.948C12.8013 111.788 12.7533 111.684 12.6573 111.632C12.5613 111.584 12.4293 111.556 12.2573 111.556H11.5613ZM11.5613 112.7V113.592H12.3093C12.5013 113.592 12.6493 113.56 12.7613 113.496C12.8693 113.432 12.9253 113.316 12.9253 113.148C12.9253 113.056 12.9053 112.98 12.8733 112.916C12.8413 112.852 12.7933 112.808 12.7293 112.776C12.6653 112.748 12.6013 112.728 12.5373 112.716C12.4693 112.708 12.3893 112.7 12.3013 112.7H11.5613ZM14.7898 111.876C15.1018 111.876 15.3538 111.976 15.5418 112.172C15.7258 112.372 15.8218 112.636 15.8218 112.968C15.8218 113.304 15.7258 113.572 15.5418 113.768C15.3578 113.968 15.1058 114.064 14.7898 114.064C14.4658 114.064 14.2098 113.968 14.0218 113.768C13.8298 113.572 13.7378 113.304 13.7378 112.968C13.7378 112.636 13.8298 112.372 14.0218 112.172C14.2138 111.976 14.4698 111.876 14.7898 111.876ZM14.7818 112.236C14.5978 112.236 14.4578 112.304 14.3538 112.432C14.2498 112.564 14.1978 112.744 14.1978 112.968C14.1978 113.2 14.2498 113.384 14.3538 113.512C14.4578 113.644 14.6018 113.708 14.7858 113.708C14.9618 113.708 15.1018 113.644 15.2058 113.512C15.3098 113.38 15.3618 113.196 15.3618 112.964C15.3618 112.74 15.3098 112.56 15.2058 112.432C15.1018 112.304 14.9618 112.236 14.7818 112.236ZM17.2128 111.936V112.268H16.7968V113.356C16.7968 113.42 16.7968 113.468 16.8008 113.492C16.8008 113.516 16.8088 113.544 16.8248 113.576C16.8368 113.608 16.8608 113.628 16.8928 113.636C16.9248 113.648 16.9728 113.652 17.0328 113.652C17.1048 113.652 17.1648 113.652 17.2128 113.644V114.004C17.1208 114.016 17.0168 114.02 16.9048 114.02C16.8248 114.02 16.7528 114.016 16.6928 114.004C16.6328 113.992 16.5848 113.976 16.5448 113.96C16.5048 113.944 16.4688 113.92 16.4448 113.88C16.4168 113.84 16.3968 113.808 16.3808 113.784C16.3648 113.76 16.3568 113.712 16.3488 113.648C16.3408 113.584 16.3408 113.536 16.3408 113.504V113.328V113.304V113.28V113.252V112.268H15.9968V111.936H16.3408V111.316H16.7968V111.936H17.2128ZM18.5449 111.936V112.268H18.1289V113.356C18.1289 113.42 18.1289 113.468 18.1329 113.492C18.1329 113.516 18.1409 113.544 18.1569 113.576C18.1689 113.608 18.1929 113.628 18.2249 113.636C18.2569 113.648 18.3049 113.652 18.3649 113.652C18.4369 113.652 18.4969 113.652 18.5449 113.644V114.004C18.4529 114.016 18.3489 114.02 18.2369 114.02C18.1569 114.02 18.0849 114.016 18.0249 114.004C17.9649 113.992 17.9169 113.976 17.8769 113.96C17.8369 113.944 17.8009 113.92 17.7769 113.88C17.7489 113.84 17.7289 113.808 17.7129 113.784C17.6969 113.76 17.6889 113.712 17.6809 113.648C17.6729 113.584 17.6729 113.536 17.6729 113.504V113.328V113.304V113.28V113.252V112.268H17.3289V111.936H17.6729V111.316H18.1289V111.936H18.5449ZM19.8249 111.876C20.1369 111.876 20.3889 111.976 20.5769 112.172C20.7609 112.372 20.8569 112.636 20.8569 112.968C20.8569 113.304 20.7609 113.572 20.5769 113.768C20.3929 113.968 20.1409 114.064 19.8249 114.064C19.5009 114.064 19.2449 113.968 19.0569 113.768C18.8649 113.572 18.7729 113.304 18.7729 112.968C18.7729 112.636 18.8649 112.372 19.0569 112.172C19.2489 111.976 19.5049 111.876 19.8249 111.876ZM19.8169 112.236C19.6329 112.236 19.4929 112.304 19.3889 112.432C19.2849 112.564 19.2329 112.744 19.2329 112.968C19.2329 113.2 19.2849 113.384 19.3889 113.512C19.4929 113.644 19.6369 113.708 19.8209 113.708C19.9969 113.708 20.1369 113.644 20.2409 113.512C20.3449 113.38 20.3969 113.196 20.3969 112.964C20.3969 112.74 20.3449 112.56 20.2409 112.432C20.1369 112.304 19.9969 112.236 19.8169 112.236ZM21.676 111.936V112.228C21.844 111.996 22.06 111.88 22.324 111.88C22.46 111.88 22.576 111.912 22.676 111.972C22.776 112.036 22.852 112.12 22.9 112.232C23.064 112 23.288 111.88 23.568 111.88C23.76 111.88 23.924 111.94 24.052 112.056C24.18 112.172 24.244 112.332 24.244 112.536V114H23.788V112.732C23.788 112.588 23.76 112.472 23.712 112.388C23.66 112.308 23.564 112.264 23.42 112.264C23.272 112.264 23.16 112.312 23.084 112.404C23.004 112.496 22.968 112.624 22.968 112.788V114H22.512V112.708C22.512 112.564 22.488 112.452 22.444 112.376C22.4 112.304 22.308 112.264 22.172 112.264C22.016 112.264 21.9 112.316 21.82 112.416C21.74 112.516 21.7 112.648 21.7 112.812V114H21.244V111.936H21.676ZM25.3885 112.972C25.3885 113.312 25.3405 113.616 25.2445 113.884C25.1485 114.156 25.0045 114.448 24.8125 114.764H24.4445C24.7685 114.18 24.9325 113.58 24.9325 112.964C24.9325 112.616 24.8925 112.3 24.8125 112.02C24.7325 111.74 24.6085 111.444 24.4485 111.132H24.8125C25.1965 111.684 25.3885 112.296 25.3885 112.972Z" fill="#060C12"/>
<path d="M2.45 115.728H4.076C4.37 115.728 4.628 115.764 4.856 115.824C5.078 115.884 5.282 115.998 5.474 116.166C5.894 116.544 6.104 117.084 6.104 117.792C6.104 118.548 5.9 119.13 5.504 119.526C5.324 119.706 5.132 119.826 4.928 119.898C4.724 119.97 4.454 120 4.118 120H2.45V115.728ZM3.194 116.364V119.37H4.076C4.544 119.37 4.874 119.238 5.066 118.962C5.258 118.692 5.354 118.314 5.354 117.828C5.354 117.372 5.246 117.012 5.03 116.754C4.814 116.496 4.478 116.364 4.028 116.364H3.194ZM9.46208 118.428V119.004H8.92808V120H8.26808L8.26208 119.004H6.48008V118.326L8.28008 115.764H8.92808V118.428H9.46208ZM8.27408 118.428V116.61L7.04408 118.428H8.27408ZM10.8041 117.132C10.6401 117.444 10.5201 117.74 10.4401 118.02C10.3601 118.3 10.3201 118.616 10.3201 118.964C10.3201 119.58 10.4801 120.18 10.8081 120.764H10.4401C10.2441 120.448 10.1001 120.156 10.0041 119.884C9.90806 119.616 9.86406 119.312 9.86406 118.972C9.86406 118.296 10.0561 117.684 10.4401 117.132H10.8041ZM13.1213 117.152V117.584H12.2133V120H11.7133V117.584H10.8053V117.152H13.1213ZM13.8991 117.876C14.2111 117.876 14.4631 117.976 14.6511 118.172C14.8351 118.372 14.9311 118.636 14.9311 118.968C14.9311 119.304 14.8351 119.572 14.6511 119.768C14.4671 119.968 14.2151 120.064 13.8991 120.064C13.5751 120.064 13.3191 119.968 13.1311 119.768C12.9391 119.572 12.8471 119.304 12.8471 118.968C12.8471 118.636 12.9391 118.372 13.1311 118.172C13.3231 117.976 13.5791 117.876 13.8991 117.876ZM13.8911 118.236C13.7071 118.236 13.5671 118.304 13.4631 118.432C13.3591 118.564 13.3071 118.744 13.3071 118.968C13.3071 119.2 13.3591 119.384 13.4631 119.512C13.5671 119.644 13.7111 119.708 13.8951 119.708C14.0711 119.708 14.2111 119.644 14.3151 119.512C14.4191 119.38 14.4711 119.196 14.4711 118.964C14.4711 118.74 14.4191 118.56 14.3151 118.432C14.2111 118.304 14.0711 118.236 13.8911 118.236ZM15.7502 117.936V118.212C15.8862 117.988 16.1102 117.876 16.4222 117.876C16.7062 117.876 16.9342 117.976 17.1062 118.176C17.2742 118.376 17.3622 118.644 17.3622 118.976C17.3622 119.304 17.2782 119.564 17.1102 119.76C16.9422 119.956 16.7222 120.052 16.4462 120.052C16.1502 120.052 15.9262 119.944 15.7742 119.728V120.764H15.3222V117.936H15.7502ZM16.3302 118.244C16.1502 118.244 16.0102 118.308 15.9102 118.436C15.8062 118.564 15.7582 118.744 15.7582 118.968C15.7582 119.192 15.8062 119.368 15.9102 119.496C16.0142 119.624 16.1542 119.688 16.3382 119.688C16.5102 119.688 16.6462 119.624 16.7502 119.496C16.8502 119.368 16.9022 119.196 16.9022 118.976C16.9022 118.752 16.8502 118.576 16.7462 118.444C16.6422 118.312 16.5062 118.244 16.3302 118.244ZM18.4275 118.972C18.4275 119.312 18.3795 119.616 18.2835 119.884C18.1875 120.156 18.0435 120.448 17.8515 120.764H17.4835C17.8075 120.18 17.9715 119.58 17.9715 118.964C17.9715 118.616 17.9315 118.3 17.8515 118.02C17.7715 117.74 17.6475 117.444 17.4875 117.132H17.8515C18.2355 117.684 18.4275 118.296 18.4275 118.972Z" fill="#060C12"/>
<path d="M44 66L41.7018 64.6731L41.7018 67.3269L44 66ZM19 65.7702L18.7702 65.7702L18.7702 66.2298L19 66.2298L19 65.7702ZM41.9316 66L41.9316 65.7702L19 65.7702L19 66L19 66.2298L41.9316 66.2298L41.9316 66Z" fill="black"/>
<path d="M64 34L65.3269 31.7018L62.6731 31.7018L64 34ZM64.2298 11L64.2298 10.7702L63.7702 10.7702L63.7702 11L64.2298 11ZM64 31.9316L64.2298 31.9316L64.2298 11L64 11L63.7702 11L63.7702 31.9316L64 31.9316Z" fill="black"/>
</svg>
