<svg width="27" height="26" viewBox="0 0 27 26" fill="none" xmlns="http://www.w3.org/2000/svg">
<g clip-path="url(#clip0_9036_14563)">
<path d="M26.8589 18.3468L13.8881 25.8444L13.8848 25.8425V15.5703L26.8559 8.073L26.8589 8.07494V18.3468Z" fill="#FF9411"/>
<path d="M13.8897 25.9659L13.7793 25.9082V15.5062L26.8548 7.95129L26.964 8.01107V18.4111L13.8897 25.9659ZM13.9902 15.6318V25.6638L26.7531 18.2866V8.25423L13.9902 15.6318Z" fill="#FF9411"/>
<path d="M13.8824 25.8444L0.105469 17.8896V7.61791L0.108643 7.61597L13.886 15.5703V25.8425L13.8824 25.8444Z" fill="#E47C00"/>
<path d="M13.8794 25.9675L0 17.9516V7.55689L0.104741 7.49359L13.991 15.5095V25.9065L13.8794 25.9675ZM0.210892 17.8291L13.78 25.6632V15.6311L0.210892 7.79706V17.8291Z" fill="#FF9411"/>
<path d="M0.107422 7.61597L13.8847 15.5703L26.8559 8.07302V8.06914L13.0786 0.119934L0.107422 7.61209V7.61597Z" fill="#FFB050"/>
<path d="M13.8904 15.6896L0.00195312 7.67801V7.55176L13.0747 0L26.9631 8.0081V8.1303L13.8904 15.6896ZM0.316352 7.61365L13.8858 15.4481L26.6488 8.0707L13.0794 0.241575L0.316352 7.61365Z" fill="#FF9411"/>
</g>
<defs>
<clipPath id="clip0_9036_14563">
<rect width="26.9655" height="25.9675" fill="white"/>
</clipPath>
</defs>
</svg>
