<svg width="176" height="136" viewBox="0 0 176 136" fill="none" xmlns="http://www.w3.org/2000/svg">
<path d="M0 16C0 7.16344 7.16344 0 16 0H160C168.837 0 176 7.16344 176 16V120C176 128.837 168.837 136 160 136H16C7.16344 136 0 128.837 0 120V16Z" fill="white"/>
<path d="M16 0.5H160C168.56 0.5 175.5 7.43959 175.5 16V120C175.5 128.56 168.56 135.5 160 135.5H16C7.43959 135.5 0.5 128.56 0.5 120V16C0.5 7.43959 7.43959 0.5 16 0.5Z" stroke="#B02E0C" stroke-opacity="0.16"/>
<rect x="29.6781" y="12.6781" width="116.976" height="31.5327" stroke="black" stroke-width="1.35625"/>
<circle cx="132.414" cy="36.7515" r="1.69531" fill="#FF0000"/>
<path d="M35.4414 19.2899V38.1078H140.72V19.1204" stroke="black" stroke-width="0.678123"/>
<circle cx="43.9141" cy="36.7515" r="1.69531" fill="#B02E0C"/>
<circle cx="53.7461" cy="36.7515" r="1.69531" fill="#B02E0C"/>
<circle cx="63.5781" cy="36.7515" r="1.69531" fill="#B02E0C"/>
<circle cx="73.4141" cy="36.7515" r="1.69531" fill="#B02E0C"/>
<circle cx="83.2461" cy="36.7515" r="1.69531" fill="#B02E0C"/>
<circle cx="93.0781" cy="36.7515" r="1.69531" fill="#B02E0C"/>
<circle cx="102.91" cy="36.7515" r="1.69531" fill="#B02E0C"/>
<circle cx="112.742" cy="36.7515" r="1.69531" fill="#B02E0C"/>
<circle cx="122.578" cy="36.7515" r="1.69531" fill="#B02E0C"/>
<circle cx="132.41" cy="36.7515" r="1.69531" fill="#B02E0C"/>
<rect x="29.6791" y="54.7406" width="117.143" height="70.2858" stroke="black" stroke-width="1.35818"/>
<path d="M45.2969 61.7013V118.066" stroke="#B02E0C" stroke-width="0.67909" stroke-linecap="round"/>
<path d="M55.1445 61.7013V118.066" stroke="#B02E0C" stroke-width="0.67909" stroke-linecap="round"/>
<path d="M64.6484 61.7013V118.066" stroke="#B02E0C" stroke-width="0.67909" stroke-linecap="round"/>
<path d="M74.1562 61.7013V118.066" stroke="#B02E0C" stroke-width="0.67909" stroke-linecap="round"/>
<path d="M83.6641 61.7013V118.066" stroke="#B02E0C" stroke-width="0.67909" stroke-linecap="round"/>
<path d="M93.1719 61.7013V118.066" stroke="#B02E0C" stroke-width="0.67909" stroke-linecap="round"/>
<path d="M102.68 61.7013V118.066" stroke="#B02E0C" stroke-width="0.67909" stroke-linecap="round"/>
<path d="M112.188 61.7013V118.066" stroke="#B02E0C" stroke-width="0.67909" stroke-linecap="round"/>
<path d="M121.695 61.7013V118.066" stroke="#B02E0C" stroke-width="0.67909" stroke-linecap="round"/>
<path d="M131.203 61.7013V118.066" stroke="#B02E0C" stroke-width="0.67909" stroke-linecap="round"/>
<path d="M36.8086 70.869H141.219" stroke="#B02E0C" stroke-width="0.67909" stroke-linecap="round"/>
<path d="M36.8086 80.3763H141.219" stroke="#B02E0C" stroke-width="0.67909" stroke-linecap="round"/>
<path d="M36.8086 89.8835H141.219" stroke="#B02E0C" stroke-width="0.67909" stroke-linecap="round"/>
<path d="M36.8086 99.7302H141.219" stroke="#B02E0C" stroke-width="0.67909" stroke-linecap="round"/>
<path d="M36.8086 109.238H141.219" stroke="#B02E0C" stroke-width="0.67909" stroke-linecap="round"/>
<path d="M136 69.5L137.327 67.2018H134.673L136 69.5ZM136 64V63.7702H135.77V64H136ZM154.5 64.2298H154.73V63.7702H154.5V64.2298ZM136 67.4316H136.23V64H136H135.77V67.4316H136ZM136 64V64.2298H154.5V64V63.7702H136V64Z" fill="black"/>
<path d="M14 109L15.3269 106.702H12.6731L14 109ZM14 103V102.77H13.7702V103H14ZM45 103.23H45.2298V102.77H45V103.23ZM14 106.932H14.2298V103H14H13.7702V106.932H14ZM14 103V103.23H45V103V102.77H14V103Z" fill="black"/>
<path d="M147 48L144.702 46.6731L144.702 49.3269L147 48ZM92 47.7702L91.7702 47.7702L91.7702 48.2298L92 48.2298L92 47.7702ZM144.932 48L144.932 47.7702L92 47.7702L92 48L92 48.2298L144.932 48.2298L144.932 48Z" fill="black"/>
<path d="M29 48L31.2982 49.3269V46.6731L29 48ZM84 48.2298H84.2298V47.7702H84V48.2298ZM31.0684 48V48.2298H84V48V47.7702H31.0684V48Z" fill="black"/>
<path d="M85.964 50L87.488 47.786L86.072 45.728H86.966L87.938 47.24L88.952 45.728H89.792L88.376 47.786L89.894 50H88.982L87.914 48.368L86.828 50H85.964Z" fill="#060C12"/>
<path d="M147 130L144.702 128.673L144.702 131.327L147 130ZM92 129.77L91.7702 129.77L91.7702 130.23L92 130.23L92 129.77ZM144.932 130L144.932 129.77L92 129.77L92 130L92 130.23L144.932 130.23L144.932 130Z" fill="black"/>
<path d="M29 130L31.2982 131.327V128.673L29 130ZM84 130.23H84.2298V129.77H84V130.23ZM31.0684 130V130.23H84V130V129.77H31.0684V130Z" fill="black"/>
<path d="M85.964 132L87.488 129.786L86.072 127.728H86.966L87.938 129.24L88.952 127.728H89.792L88.376 129.786L89.894 132H88.982L87.914 130.368L86.828 132H85.964Z" fill="#060C12"/>
<path d="M70.45 16.728H72.076C72.37 16.728 72.628 16.764 72.856 16.824C73.078 16.884 73.282 16.998 73.474 17.166C73.894 17.544 74.104 18.084 74.104 18.792C74.104 19.548 73.9 20.13 73.504 20.526C73.324 20.706 73.132 20.826 72.928 20.898C72.724 20.97 72.454 21 72.118 21H70.45V16.728ZM71.194 17.364V20.37H72.076C72.544 20.37 72.874 20.238 73.066 19.962C73.258 19.692 73.354 19.314 73.354 18.828C73.354 18.372 73.246 18.012 73.03 17.754C72.814 17.496 72.478 17.364 72.028 17.364H71.194ZM77.3361 20.394V21H74.4681C74.4681 20.814 74.4981 20.64 74.5461 20.484C74.5941 20.328 74.6481 20.196 74.7081 20.088C74.7681 19.98 74.8641 19.866 74.9841 19.752C75.1041 19.638 75.2181 19.542 75.3141 19.47C75.4101 19.398 75.5481 19.302 75.7221 19.182C75.7341 19.176 75.7881 19.14 75.8961 19.068C76.0041 18.996 76.0701 18.954 76.0941 18.936C76.1181 18.918 76.1721 18.876 76.2561 18.81C76.3401 18.744 76.3941 18.69 76.4181 18.648C76.4421 18.612 76.4781 18.558 76.5261 18.486C76.5741 18.42 76.6041 18.354 76.6221 18.282C76.6341 18.21 76.6461 18.138 76.6461 18.054C76.6461 17.838 76.5801 17.664 76.4601 17.538C76.3401 17.412 76.1721 17.346 75.9681 17.346C75.8481 17.346 75.7401 17.37 75.6561 17.406C75.5661 17.442 75.4941 17.49 75.4461 17.55C75.3981 17.61 75.3561 17.688 75.3261 17.784C75.2901 17.88 75.2721 17.964 75.2601 18.048C75.2481 18.132 75.2421 18.234 75.2421 18.342H74.5761V18.234C74.5761 17.784 74.7021 17.424 74.9541 17.16C75.2061 16.896 75.5541 16.758 75.9861 16.758C76.3941 16.758 76.7181 16.878 76.9701 17.106C77.2161 17.334 77.3421 17.64 77.3421 18.018C77.3421 18.174 77.3181 18.318 77.2701 18.45C77.2221 18.588 77.1681 18.696 77.1141 18.78C77.0601 18.864 76.9701 18.966 76.8381 19.074C76.7061 19.188 76.6041 19.266 76.5441 19.308C76.4781 19.356 76.3581 19.434 76.1901 19.548C75.6861 19.872 75.3861 20.154 75.2901 20.394H77.3361Z" fill="#060C12"/>
<path d="M26 12L24.6731 14.2982L27.3269 14.2982L26 12ZM25.7702 25L25.7702 25.2298L26.2298 25.2298L26.2298 25L25.7702 25ZM26 14.0684L25.7702 14.0684L25.7702 25L26 25L26.2298 25L26.2298 14.0684L26 14.0684Z" fill="black"/>
<path d="M26 45L27.3269 42.7018L24.6731 42.7018L26 45ZM26.2298 33L26.2298 32.7702L25.7702 32.7702L25.7702 33L26.2298 33ZM26 42.9316L26.2298 42.9316L26.2298 33L26 33L25.7702 33L25.7702 42.9316L26 42.9316Z" fill="black"/>
<path d="M25.212 26.728V31H24.456V26.728H25.212Z" fill="#060C12"/>
<path d="M27.212 26.728V31H26.456V26.728H27.212Z" fill="#060C12"/>
<path d="M26 54L24.6731 56.2982L27.3269 56.2982L26 54ZM25.7702 83L25.7702 83.2298L26.2298 83.2298L26.2298 83L25.7702 83ZM26 56.0684L25.7702 56.0684L25.7702 83L26 83L26.2298 83L26.2298 56.0684L26 56.0684Z" fill="black"/>
<path d="M26 126L27.3269 123.702L24.6731 123.702L26 126ZM26.2298 93L26.2298 92.7702L25.7702 92.7702L25.7702 93L26.2298 93ZM26 123.932L26.2298 123.932L26.2298 93L26 93L25.7702 93L25.7702 123.932L26 123.932Z" fill="black"/>
<path d="M27.93 85.728L26.322 88.302V90H25.584V88.302L23.97 85.728H24.834L25.968 87.618L27.09 85.728H27.93Z" fill="#060C12"/>
<path d="M38 19L36.6731 21.2982L39.3269 21.2982L38 19ZM37.7702 26.4848L37.7702 26.7146L38.2298 26.7146L38.2298 26.4848L37.7702 26.4848ZM38 21.0684L37.7702 21.0684L37.7702 26.4848L38 26.4848L38.2298 26.4848L38.2298 21.0684L38 21.0684Z" fill="black"/>
<path d="M38 38L39.3269 35.7017L36.6731 35.7017L38 38ZM38.2298 31.0909L38.2298 30.8611L37.7702 30.8611L37.7702 31.0909L38.2298 31.0909ZM38 35.9316L38.2298 35.9316L38.2298 31.0909L38 31.0909L37.7702 31.0909L37.7702 35.9316L38 35.9316Z" fill="black"/>
<path d="M38.6562 29.568V30H36.7042V27.152H37.2082V29.568H38.6562ZM39.0051 27.152H40.0891C40.2851 27.152 40.4571 27.176 40.6091 27.216C40.7571 27.256 40.8931 27.332 41.0211 27.444C41.3011 27.696 41.4411 28.056 41.4411 28.528C41.4411 29.032 41.3051 29.42 41.0411 29.684C40.9211 29.804 40.7931 29.884 40.6571 29.932C40.5211 29.98 40.3411 30 40.1171 30H39.0051V27.152ZM39.5011 27.576V29.58H40.0891C40.4011 29.58 40.6211 29.492 40.7491 29.308C40.8771 29.128 40.9411 28.876 40.9411 28.552C40.9411 28.248 40.8691 28.008 40.7251 27.836C40.5811 27.664 40.3571 27.576 40.0571 27.576H39.5011Z" fill="#060C12"/>
<path d="M136 80L134.673 82.2982L137.327 82.2982L136 80ZM136 90L137.327 87.7018L134.673 87.7018L136 90ZM136 82.0684L135.77 82.0684L135.77 87.9316L136 87.9316L136.23 87.9316L136.23 82.0684L136 82.0684Z" fill="black"/>
<path d="M55 66L52.7018 64.6731L52.7018 67.3269L55 66ZM45 66L47.2982 67.3269L47.2982 64.6731L45 66ZM52.9316 66L52.9316 65.7702L47.0684 65.7702L47.0684 66L47.0684 66.2298L52.9316 66.2298L52.9316 66Z" fill="black"/>
<path d="M121.45 19.728H123.076C123.37 19.728 123.628 19.764 123.856 19.824C124.078 19.884 124.282 19.998 124.474 20.166C124.894 20.544 125.104 21.084 125.104 21.792C125.104 22.548 124.9 23.13 124.504 23.526C124.324 23.706 124.132 23.826 123.928 23.898C123.724 23.97 123.454 24 123.118 24H121.45V19.728ZM122.194 20.364V23.37H123.076C123.544 23.37 123.874 23.238 124.066 22.962C124.258 22.692 124.354 22.314 124.354 21.828C124.354 21.372 124.246 21.012 124.03 20.754C123.814 20.496 123.478 20.364 123.028 20.364H122.194ZM127.592 19.776V24H126.86V21.096H125.816V20.592C126.542 20.592 126.95 20.322 127.04 19.776H127.592Z" fill="#060C12"/>
<path d="M140 22L137.702 20.6731V23.3269L140 22ZM128.5 21.7702H128.27V22.2298H128.5V21.7702ZM137.932 22V21.7702H128.5V22V22.2298H137.932V22Z" fill="black"/>
<path d="M154.522 83.988H153.808C153.76 83.49 153.454 83.238 152.878 83.238C152.62 83.238 152.422 83.292 152.278 83.4C152.134 83.508 152.062 83.652 152.062 83.832C152.062 84.006 152.11 84.126 152.218 84.186C152.326 84.252 152.56 84.33 152.926 84.42C153.022 84.45 153.094 84.468 153.148 84.48C153.622 84.6 153.946 84.708 154.12 84.804C154.498 85.008 154.69 85.326 154.69 85.758C154.69 85.95 154.654 86.118 154.594 86.268C154.528 86.424 154.444 86.55 154.336 86.652C154.228 86.754 154.096 86.838 153.952 86.904C153.802 86.976 153.646 87.024 153.49 87.054C153.328 87.084 153.16 87.096 152.992 87.096C152.452 87.096 152.02 86.97 151.69 86.712C151.354 86.46 151.192 86.082 151.192 85.584H151.93C151.93 85.896 152.032 86.13 152.236 86.28C152.44 86.43 152.704 86.502 153.034 86.502C153.322 86.502 153.544 86.448 153.706 86.328C153.868 86.208 153.952 86.046 153.952 85.83C153.952 85.698 153.904 85.584 153.82 85.5C153.736 85.416 153.64 85.35 153.544 85.314C153.442 85.278 153.268 85.23 153.022 85.164C152.992 85.158 152.968 85.152 152.956 85.146C152.422 85.014 152.074 84.9 151.906 84.81C151.558 84.63 151.372 84.354 151.348 83.976V83.892C151.348 83.514 151.486 83.214 151.774 82.986C152.062 82.758 152.446 82.644 152.926 82.644C153.388 82.644 153.766 82.758 154.06 82.974C154.348 83.196 154.504 83.532 154.522 83.988ZM157.153 82.776V87H156.421V84.096H155.377V83.592C156.103 83.592 156.511 83.322 156.601 82.776H157.153Z" fill="#060C12"/>
<path d="M156.45 61.728H158.076C158.37 61.728 158.628 61.764 158.856 61.824C159.078 61.884 159.282 61.998 159.474 62.166C159.894 62.544 160.104 63.084 160.104 63.792C160.104 64.548 159.9 65.13 159.504 65.526C159.324 65.706 159.132 65.826 158.928 65.898C158.724 65.97 158.454 66 158.118 66H156.45V61.728ZM157.194 62.364V65.37H158.076C158.544 65.37 158.874 65.238 159.066 64.962C159.258 64.692 159.354 64.314 159.354 63.828C159.354 63.372 159.246 63.012 159.03 62.754C158.814 62.496 158.478 62.364 158.028 62.364H157.194ZM162.592 61.776V66H161.86V63.096H160.816V62.592C161.542 62.592 161.95 62.322 162.04 61.776H162.592Z" fill="#060C12"/>
<path d="M139 85L141.298 83.6731V86.3269L139 85ZM150.5 84.7702H150.73V85.2298H150.5V84.7702ZM141.068 85V84.7702H150.5V85V85.2298H141.068V85Z" fill="black"/>
<path d="M14.522 64.988H13.808C13.76 64.49 13.454 64.238 12.878 64.238C12.62 64.238 12.422 64.292 12.278 64.4C12.134 64.508 12.062 64.652 12.062 64.832C12.062 65.006 12.11 65.126 12.218 65.186C12.326 65.252 12.56 65.33 12.926 65.42C13.022 65.45 13.094 65.468 13.148 65.48C13.622 65.6 13.946 65.708 14.12 65.804C14.498 66.008 14.69 66.326 14.69 66.758C14.69 66.95 14.654 67.118 14.594 67.268C14.528 67.424 14.444 67.55 14.336 67.652C14.228 67.754 14.096 67.838 13.952 67.904C13.802 67.976 13.646 68.024 13.49 68.054C13.328 68.084 13.16 68.096 12.992 68.096C12.452 68.096 12.02 67.97 11.69 67.712C11.354 67.46 11.192 67.082 11.192 66.584H11.93C11.93 66.896 12.032 67.13 12.236 67.28C12.44 67.43 12.704 67.502 13.034 67.502C13.322 67.502 13.544 67.448 13.706 67.328C13.868 67.208 13.952 67.046 13.952 66.83C13.952 66.698 13.904 66.584 13.82 66.5C13.736 66.416 13.64 66.35 13.544 66.314C13.442 66.278 13.268 66.23 13.022 66.164C12.992 66.158 12.968 66.152 12.956 66.146C12.422 66.014 12.074 65.9 11.906 65.81C11.558 65.63 11.372 65.354 11.348 64.976V64.892C11.348 64.514 11.486 64.214 11.774 63.986C12.062 63.758 12.446 63.644 12.926 63.644C13.388 63.644 13.766 63.758 14.06 63.974C14.348 64.196 14.504 64.532 14.522 64.988ZM17.8966 67.394V68H15.0286C15.0286 67.814 15.0586 67.64 15.1066 67.484C15.1546 67.328 15.2086 67.196 15.2686 67.088C15.3286 66.98 15.4246 66.866 15.5446 66.752C15.6646 66.638 15.7786 66.542 15.8746 66.47C15.9706 66.398 16.1086 66.302 16.2826 66.182C16.2946 66.176 16.3486 66.14 16.4566 66.068C16.5646 65.996 16.6306 65.954 16.6546 65.936C16.6786 65.918 16.7326 65.876 16.8166 65.81C16.9006 65.744 16.9546 65.69 16.9786 65.648C17.0026 65.612 17.0386 65.558 17.0866 65.486C17.1346 65.42 17.1646 65.354 17.1826 65.282C17.1946 65.21 17.2066 65.138 17.2066 65.054C17.2066 64.838 17.1406 64.664 17.0206 64.538C16.9006 64.412 16.7326 64.346 16.5286 64.346C16.4086 64.346 16.3006 64.37 16.2166 64.406C16.1266 64.442 16.0546 64.49 16.0066 64.55C15.9586 64.61 15.9166 64.688 15.8866 64.784C15.8506 64.88 15.8326 64.964 15.8206 65.048C15.8086 65.132 15.8026 65.234 15.8026 65.342H15.1366V65.234C15.1366 64.784 15.2626 64.424 15.5146 64.16C15.7666 63.896 16.1146 63.758 16.5466 63.758C16.9546 63.758 17.2786 63.878 17.5306 64.106C17.7766 64.334 17.9026 64.64 17.9026 65.018C17.9026 65.174 17.8786 65.318 17.8306 65.45C17.7826 65.588 17.7286 65.696 17.6746 65.78C17.6206 65.864 17.5306 65.966 17.3986 66.074C17.2666 66.188 17.1646 66.266 17.1046 66.308C17.0386 66.356 16.9186 66.434 16.7506 66.548C16.2466 66.872 15.9466 67.154 15.8506 67.394H17.8966Z" fill="#060C12"/>
<path d="M10.45 110.728H12.076C12.37 110.728 12.628 110.764 12.856 110.824C13.078 110.884 13.282 110.998 13.474 111.166C13.894 111.544 14.104 112.084 14.104 112.792C14.104 113.548 13.9 114.13 13.504 114.526C13.324 114.706 13.132 114.826 12.928 114.898C12.724 114.97 12.454 115 12.118 115H10.45V110.728ZM11.194 111.364V114.37H12.076C12.544 114.37 12.874 114.238 13.066 113.962C13.258 113.692 13.354 113.314 13.354 112.828C13.354 112.372 13.246 112.012 13.03 111.754C12.814 111.496 12.478 111.364 12.028 111.364H11.194ZM17.3361 114.394V115H14.4681C14.4681 114.814 14.4981 114.64 14.5461 114.484C14.5941 114.328 14.6481 114.196 14.7081 114.088C14.7681 113.98 14.8641 113.866 14.9841 113.752C15.1041 113.638 15.2181 113.542 15.3141 113.47C15.4101 113.398 15.5481 113.302 15.7221 113.182C15.7341 113.176 15.7881 113.14 15.8961 113.068C16.0041 112.996 16.0701 112.954 16.0941 112.936C16.1181 112.918 16.1721 112.876 16.2561 112.81C16.3401 112.744 16.3941 112.69 16.4181 112.648C16.4421 112.612 16.4781 112.558 16.5261 112.486C16.5741 112.42 16.6041 112.354 16.6221 112.282C16.6341 112.21 16.6461 112.138 16.6461 112.054C16.6461 111.838 16.5801 111.664 16.4601 111.538C16.3401 111.412 16.1721 111.346 15.9681 111.346C15.8481 111.346 15.7401 111.37 15.6561 111.406C15.5661 111.442 15.4941 111.49 15.4461 111.55C15.3981 111.61 15.3561 111.688 15.3261 111.784C15.2901 111.88 15.2721 111.964 15.2601 112.048C15.2481 112.132 15.2421 112.234 15.2421 112.342H14.5761V112.234C14.5761 111.784 14.7021 111.424 14.9541 111.16C15.2061 110.896 15.5541 110.758 15.9861 110.758C16.3941 110.758 16.7181 110.878 16.9701 111.106C17.2161 111.334 17.3421 111.64 17.3421 112.018C17.3421 112.174 17.3181 112.318 17.2701 112.45C17.2221 112.588 17.1681 112.696 17.1141 112.78C17.0601 112.864 16.9701 112.966 16.8381 113.074C16.7061 113.188 16.6041 113.266 16.5441 113.308C16.4781 113.356 16.3581 113.434 16.1901 113.548C15.6861 113.872 15.3861 114.154 15.2901 114.394H17.3361Z" fill="#060C12"/>
<path d="M44 66L41.7018 64.6731L41.7018 67.3269L44 66ZM19 65.7702L18.7702 65.7702L18.7702 66.2298L19 66.2298L19 65.7702ZM41.9316 66L41.9316 65.7702L19 65.7702L19 66L19 66.2298L41.9316 66.2298L41.9316 66Z" fill="black"/>
<path d="M74 33.5L75.3269 31.2018L72.6731 31.2018L74 33.5ZM74.2298 22L74.2298 21.7702L73.7702 21.7702L73.7702 22L74.2298 22ZM74 31.4316L74.2298 31.4316L74.2298 22L74 22L73.7702 22L73.7702 31.4316L74 31.4316Z" fill="black"/>
</svg>
