<svg width="176" height="136" viewBox="0 0 176 136" fill="none" xmlns="http://www.w3.org/2000/svg">
<path d="M0 16C0 7.16344 7.16344 0 16 0H160C168.837 0 176 7.16344 176 16V120C176 128.837 168.837 136 160 136H16C7.16344 136 0 128.837 0 120V16Z" fill="white"/>
<path d="M16 0.5H160C168.56 0.5 175.5 7.43959 175.5 16V120C175.5 128.56 168.56 135.5 160 135.5H16C7.43959 135.5 0.5 128.56 0.5 120V16C0.5 7.43959 7.43959 0.5 16 0.5Z" stroke="#B02E0C" stroke-opacity="0.16"/>
<path d="M94.2766 13.0002L53 54.0002L101 102.5L129 75.0002L94.2766 13.0002Z" fill="#FFB050"/>
<path d="M101 102.5L53 54V74.5001L101 123V102.5Z" fill="#E47C00"/>
<path d="M129 75.0002L101 102.5V123L129 95.5002V75.0002Z" fill="#FF9411"/>
<path d="M43.4662 62.5747H45.1505C45.4551 62.5747 45.7223 62.612 45.9585 62.6741C46.1885 62.7363 46.3998 62.8544 46.5987 63.0284C47.0338 63.42 47.2513 63.9793 47.2513 64.7127C47.2513 65.4959 47.04 66.0988 46.6298 66.509C46.4433 66.6954 46.2444 66.8198 46.0331 66.8943C45.8218 66.9689 45.5421 67 45.194 67H43.4662V62.5747ZM44.2369 63.2335V66.3474H45.1505C45.6353 66.3474 45.9772 66.2106 46.176 65.9247C46.3749 65.6451 46.4744 65.2535 46.4744 64.75C46.4744 64.2777 46.3625 63.9048 46.1388 63.6375C45.915 63.3702 45.5669 63.2335 45.1008 63.2335H44.2369ZM49.8287 62.6244V67H49.0704V63.9918H47.9889V63.4697C48.741 63.4697 49.1636 63.19 49.2569 62.6244H49.8287Z" fill="#B02E0C"/>
<path d="M64.0497 25.5747H64.8391L65.6471 28.9434L66.5545 25.5747H67.3439L68.2202 28.9434L69.0531 25.5747H69.8424L68.618 30H67.8287L66.9337 26.6002L66.02 30H65.2182L64.0497 25.5747ZM72.2126 25.6244V30H71.4543V26.9918H70.3728V26.4697C71.1249 26.4697 71.5475 26.19 71.6408 25.6244H72.2126Z" fill="#B02E0C"/>
<path d="M72.493 102.329V103H69.4599V98.5747H70.2431V102.329H72.493Z" fill="#B02E0C"/>
<path d="M114.05 111.575H114.839L115.647 114.943L116.555 111.575H117.344L118.22 114.943L119.053 111.575H119.842L118.618 116H117.829L116.934 112.6L116.02 116H115.218L114.05 111.575ZM122.983 115.372V116H120.012C120.012 115.807 120.043 115.627 120.093 115.465C120.143 115.304 120.199 115.167 120.261 115.055C120.323 114.943 120.423 114.825 120.547 114.707C120.671 114.589 120.789 114.49 120.889 114.415C120.988 114.34 121.131 114.241 121.311 114.117C121.324 114.111 121.38 114.073 121.492 113.999C121.603 113.924 121.672 113.881 121.697 113.862C121.722 113.843 121.778 113.8 121.865 113.731C121.952 113.663 122.007 113.607 122.032 113.564C122.057 113.526 122.094 113.47 122.144 113.396C122.194 113.327 122.225 113.259 122.244 113.184C122.256 113.11 122.269 113.035 122.269 112.948C122.269 112.725 122.2 112.544 122.076 112.414C121.952 112.283 121.778 112.215 121.566 112.215C121.442 112.215 121.33 112.24 121.243 112.277C121.15 112.314 121.075 112.364 121.025 112.426C120.976 112.488 120.932 112.569 120.901 112.669C120.864 112.768 120.845 112.855 120.833 112.942C120.82 113.029 120.814 113.135 120.814 113.247H120.124V113.135C120.124 112.669 120.255 112.296 120.516 112.022C120.777 111.749 121.137 111.606 121.585 111.606C122.007 111.606 122.343 111.73 122.604 111.966C122.859 112.202 122.989 112.519 122.989 112.911C122.989 113.073 122.965 113.222 122.915 113.358C122.865 113.501 122.809 113.613 122.753 113.7C122.697 113.787 122.604 113.893 122.467 114.005C122.331 114.123 122.225 114.204 122.163 114.247C122.094 114.297 121.97 114.378 121.796 114.496C121.274 114.832 120.963 115.124 120.864 115.372H122.983Z" fill="#B02E0C"/>
<path d="M51 54L48.9282 55.1961V52.8039L51 54ZM47 54H46.7928V53.7928H47V54ZM49.1354 54V54.2072H47V54V53.7928H49.1354V54ZM47 54H47.2072V61H47H46.7928V54H47Z" fill="#B02E0C"/>
<path d="M51 75L48.9282 73.8039V76.1961L51 75ZM47 75H46.7928V75.2072H47V75ZM49.1354 75V74.7928H47V75V75.2072H49.1354V75ZM47 75H47.2072V68H47H46.7928V75H47Z" fill="#B02E0C"/>
<path d="M52.5 76L50.2355 76.7715L52.0359 78.3468L52.5 76ZM49 80L48.8441 79.8636L48.7164 80.0094L48.8535 80.1465L49 80ZM51.2721 77.4033L51.1162 77.2668L48.8441 79.8636L49 80L49.1559 80.1364L51.4281 77.5397L51.2721 77.4033ZM49 80L48.8535 80.1465L68.3535 99.6465L68.5 99.5L68.6465 99.3535L49.1465 79.8535L49 80Z" fill="#B02E0C"/>
<path d="M100.5 124.5L99.8808 126.811L98.1892 125.119L100.5 124.5ZM97.5 127.5L97.6465 127.646L97.5 127.793L97.3535 127.646L97.5 127.5ZM99.1815 125.818L99.328 125.965L97.6465 127.646L97.5 127.5L97.3535 127.354L99.035 125.672L99.1815 125.818ZM97.5 127.5L97.3535 127.646L73.3535 103.646L73.5 103.5L73.6465 103.354L97.6465 127.354L97.5 127.5Z" fill="#B02E0C"/>
<path d="M101.5 124L102.119 126.311L103.811 124.619L101.5 124ZM105.5 128L105.354 128.146L105.5 128.293L105.646 128.146L105.5 128ZM102.818 125.318L102.672 125.465L105.354 128.146L105.5 128L105.646 127.854L102.965 125.172L102.818 125.318ZM105.5 128L105.646 128.146L116.146 117.646L116 117.5L115.854 117.354L105.354 127.854L105.5 128Z" fill="#B02E0C"/>
<path d="M52 52.5L49.6892 51.8808L51.3808 50.1892L52 52.5ZM48 48.5L47.8535 48.6465L47.707 48.5L47.8535 48.3535L48 48.5ZM50.6815 51.1815L50.535 51.328L47.8535 48.6465L48 48.5L48.1465 48.3535L50.828 51.035L50.6815 51.1815ZM48 48.5L47.8535 48.3535L64.3535 31.8535L64.5 32L64.6465 32.1465L48.1465 48.6465L48 48.5Z" fill="#B02E0C"/>
<path d="M93.5 12L92.8808 9.68921L91.1892 11.3808L93.5 12ZM89.5 7.99998L89.6465 7.85349L89.5 7.70699L89.3535 7.85349L89.5 7.99998ZM92.1815 10.6815L92.328 10.535L89.6465 7.85349L89.5 7.99998L89.3535 8.14648L92.035 10.828L92.1815 10.6815ZM89.5 7.99998L89.3535 7.85349L73.3535 23.8535L73.5 24L73.6465 24.1465L89.6465 8.14648L89.5 7.99998Z" fill="#B02E0C"/>
<path d="M129.5 96L131.811 96.6192L130.119 98.3108L129.5 96ZM133.5 100L133.646 99.8535L133.793 100L133.646 100.146L133.5 100ZM130.818 97.3185L130.965 97.172L133.646 99.8535L133.5 100L133.353 100.146L130.672 97.465L130.818 97.3185ZM133.5 100L133.646 100.146L123.146 110.646L123 110.5L122.854 110.354L133.353 99.8535L133.5 100Z" fill="#B02E0C"/>
</svg>
