<svg width="176" height="136" viewBox="0 0 176 136" fill="none" xmlns="http://www.w3.org/2000/svg">
<path d="M0 16C0 7.16344 7.16344 0 16 0H160C168.837 0 176 7.16344 176 16V120C176 128.837 168.837 136 160 136H16C7.16344 136 0 128.837 0 120V16Z" fill="white"/>
<path d="M16 0.5H160C168.56 0.5 175.5 7.43959 175.5 16V120C175.5 128.56 168.56 135.5 160 135.5H16C7.43959 135.5 0.5 128.56 0.5 120V16C0.5 7.43959 7.43959 0.5 16 0.5Z" stroke="#B02E0C" stroke-opacity="0.16"/>
<path d="M13.5195 68.4739V65.6126L58.3458 52.0217V54.6445L13.5195 68.4739Z" fill="#F26722" stroke="black" stroke-width="0.19075"/>
<path d="M120.818 71.3351L58.3477 52.0217V54.6445L120.818 73.7195V71.3351Z" fill="#F26722" stroke="black" stroke-width="0.19075"/>
<path d="M168.738 56.3134L120.812 71.335V73.7194L168.738 58.4594V56.3134Z" fill="#F26722" stroke="black" stroke-width="0.19075"/>
<path d="M106.035 37L58.3477 52.0216L120.818 71.335L168.744 56.3134L106.035 37Z" fill="#F26722" stroke="black" stroke-width="0.19075"/>
<path d="M17.5703 89.2178V67.2815L58.3431 54.6443L120.814 73.7193V95.6556L17.5703 89.2178Z" fill="#949599" stroke="black" stroke-width="0.19075"/>
<path d="M165.4 59.6516L120.812 73.7194V95.6557L165.4 81.5879V59.6516Z" fill="#949599" stroke="black" stroke-width="0.19075"/>
<path d="M17.6602 91.1702L18.984 92.0573L19.0904 90.4672L17.6602 91.1702ZM120.825 98.0708L119.501 97.1837L119.395 98.7738L120.825 98.0708ZM18.8995 91.2531L18.8903 91.3908L119.576 98.1256L119.586 97.9879L119.595 97.8502L18.9087 91.1154L18.8995 91.2531Z" fill="black"/>
<path d="M69.2428 96.3776L70.8928 100.656H70.0888L69.6808 99.5216H67.9888L67.5688 100.656H66.7948L68.4448 96.3776H69.2428ZM69.4828 98.9576L68.8468 97.1576L68.1808 98.9576H69.4828Z" fill="black"/>
<path d="M63.9829 59.5003V63.7723H63.2329V61.8523H61.2769V63.7723H60.5269V59.5003H61.2769V61.1983H63.2329V59.5003H63.9829Z" fill="black"/>
<path d="M11.445 71.8071C11.403 72.3351 11.217 72.7551 10.881 73.0671C10.545 73.3791 10.113 73.5351 9.58496 73.5351C8.97896 73.5351 8.49296 73.3311 8.13296 72.9231C7.76696 72.5151 7.58696 71.9751 7.58696 71.2971C7.58696 70.8891 7.66496 70.5231 7.82096 70.1871C7.97696 69.8511 8.21096 69.5811 8.52296 69.3771C8.83496 69.1731 9.20096 69.0651 9.62096 69.0651C10.071 69.0651 10.467 69.1911 10.803 69.4431C11.139 69.6951 11.337 70.0551 11.409 70.5231H10.665C10.611 70.2711 10.491 70.0671 10.305 69.9231C10.113 69.7791 9.88496 69.7011 9.60896 69.7011C9.32096 69.7011 9.08096 69.7851 8.88296 69.9411C8.68496 70.1031 8.54696 70.3011 8.46296 70.5351C8.37896 70.7691 8.34296 71.0211 8.34296 71.2971C8.34296 71.5071 8.36696 71.7051 8.41496 71.8851C8.46296 72.0711 8.53496 72.2391 8.63096 72.3951C8.72696 72.5511 8.85296 72.6711 9.02096 72.7611C9.18896 72.8571 9.38096 72.8991 9.60296 72.8991C10.239 72.8991 10.599 72.5391 10.695 71.8071H11.445Z" fill="black"/>
<path d="M142.707 92.9333H144.657C145.101 92.9333 145.443 93.0353 145.683 93.2273C145.923 93.4193 146.043 93.6833 146.043 94.0073C146.043 94.2113 145.983 94.3973 145.875 94.5593C145.761 94.7213 145.611 94.8353 145.431 94.9073C145.677 94.9673 145.875 95.0873 146.019 95.2673C146.163 95.4473 146.235 95.6753 146.235 95.9453C146.235 96.3233 146.109 96.6293 145.857 96.8573C145.605 97.0913 145.281 97.2053 144.885 97.2053H142.707V92.9333ZM143.439 93.5393V94.7153H144.459C144.747 94.7153 144.957 94.6733 145.095 94.5833C145.227 94.4933 145.299 94.3433 145.299 94.1273C145.299 93.8873 145.227 93.7313 145.083 93.6533C144.939 93.5813 144.741 93.5393 144.483 93.5393H143.439ZM143.439 95.2553V96.5933H144.561C144.849 96.5933 145.071 96.5453 145.239 96.4493C145.401 96.3533 145.485 96.1793 145.485 95.9273C145.485 95.7893 145.455 95.6753 145.407 95.5793C145.359 95.4833 145.287 95.4173 145.191 95.3693C145.095 95.3273 144.999 95.2973 144.903 95.2793C144.801 95.2673 144.681 95.2553 144.549 95.2553H143.439Z" fill="black"/>
<path d="M121.172 98.0709L122.728 98.4157L122.248 96.8959L121.172 98.0709ZM166.026 83.9246L164.47 83.5798L164.95 85.0996L166.026 83.9246ZM122.356 97.6973L122.398 97.8289L164.883 84.4298L164.842 84.2982L164.8 84.1665L122.315 97.5657L122.356 97.6973Z" fill="black"/>
<path opacity="0.2" d="M17.6602 67.363L120.825 73.9186" stroke="black" stroke-width="0.276026"/>
<path d="M58.375 54.9417L57.5782 56.3218H59.1718L58.375 54.9417ZM58.375 69.4331L59.1718 68.053H57.5782L58.375 69.4331ZM58.375 56.1838H58.237V68.191H58.375H58.513V56.1838H58.375Z" fill="black"/>
<path d="M13.5195 73.5735H13.3815V73.7115H13.5195V73.5735ZM17.3149 73.5735L15.9348 72.7767V74.3703L17.3149 73.5735ZM13.5195 68.743H13.3815V73.5735H13.5195H13.6575V68.743H13.5195ZM13.5195 73.5735V73.7115H16.0728V73.5735V73.4355H13.5195V73.5735Z" fill="black"/>
</svg>
