<svg width="58" height="58" viewBox="0 0 58 58" fill="none" xmlns="http://www.w3.org/2000/svg">
<rect width="58" height="58" rx="14" fill="#F3F3F3"/>
<rect x="0.5" y="0.5" width="57" height="57" rx="13.5" stroke="#B02E0C" stroke-opacity="0.04"/>
<path d="M5.09375 29.029V28.1091L19.5046 23.7399V24.5831L5.09375 29.029Z" fill="#F26722" stroke="black" stroke-width="0.0613229"/>
<path d="M39.5871 29.9488L19.5039 23.7399V24.5831L39.5871 30.7153V29.9488Z" fill="#F26722" stroke="black" stroke-width="0.0613229"/>
<path d="M54.9933 25.1196L39.5859 29.9487V30.7153L54.9933 25.8095V25.1196Z" fill="#F26722" stroke="black" stroke-width="0.0613229"/>
<path d="M34.8346 18.9106L19.5039 23.7398L39.5871 29.9488L54.9945 25.1196L34.8346 18.9106Z" fill="#F26722" stroke="black" stroke-width="0.0613229"/>
<path d="M6.39453 35.6978V28.6456L19.5023 24.583L39.5855 30.7153V37.7674L6.39453 35.6978Z" fill="#949599" stroke="black" stroke-width="0.0613229"/>
<path d="M53.9202 26.1927L39.5859 30.7153V37.7674L53.9202 33.2449V26.1927Z" fill="#949599" stroke="black" stroke-width="0.0613229"/>
<path d="M6.42578 36.3254L6.85138 36.6106L6.88558 36.0995L6.42578 36.3254ZM39.5915 38.5439L39.1659 38.2587L39.1317 38.7699L39.5915 38.5439ZM6.82421 36.3521L6.82125 36.3964L39.1901 38.5615L39.1931 38.5172L39.1961 38.473L6.82717 36.3078L6.82421 36.3521Z" fill="black"/>
<path d="M23.2025 37.7136L23.7329 39.0889H23.4745L23.3433 38.7244H22.7994L22.6643 39.0889H22.4155L22.946 37.7136H23.2025ZM23.2797 38.5431L23.0752 37.9644L22.8611 38.5431H23.2797Z" fill="black"/>
<path d="M21.5129 25.8582V27.2316H21.2718V26.6143H20.6429V27.2316H20.4018V25.8582H20.6429V26.4041H21.2718V25.8582H21.5129Z" fill="black"/>
<path d="M4.62527 29.8146C4.61177 29.9844 4.55197 30.1194 4.44396 30.2197C4.33594 30.32 4.19706 30.3701 4.02731 30.3701C3.83249 30.3701 3.67625 30.3046 3.56052 30.1734C3.44286 30.0422 3.38499 29.8686 3.38499 29.6507C3.38499 29.5195 3.41007 29.4018 3.46022 29.2938C3.51037 29.1858 3.5856 29.099 3.6859 29.0334C3.7862 28.9678 3.90386 28.9331 4.03889 28.9331C4.18355 28.9331 4.31086 28.9736 4.41888 29.0546C4.5269 29.1356 4.59055 29.2514 4.6137 29.4018H4.37452C4.35716 29.3208 4.31858 29.2552 4.25878 29.2089C4.19706 29.1626 4.12376 29.1376 4.03503 29.1376C3.94244 29.1376 3.86529 29.1646 3.80163 29.2147C3.73798 29.2668 3.69361 29.3305 3.66661 29.4057C3.63961 29.4809 3.62803 29.5619 3.62803 29.6507C3.62803 29.7182 3.63575 29.7818 3.65118 29.8397C3.66661 29.8995 3.68976 29.9535 3.72062 30.0036C3.75148 30.0538 3.79199 30.0924 3.846 30.1213C3.90001 30.1522 3.96173 30.1657 4.0331 30.1657C4.23756 30.1657 4.3533 30.0499 4.38416 29.8146H4.62527Z" fill="black"/>
<path d="M46.823 36.6063H47.4499C47.5927 36.6063 47.7026 36.6391 47.7798 36.7008C47.8569 36.7625 47.8955 36.8474 47.8955 36.9516C47.8955 37.0172 47.8762 37.077 47.8415 37.129C47.8049 37.1811 47.7566 37.2178 47.6988 37.2409C47.7778 37.2602 47.8415 37.2988 47.8878 37.3566C47.9341 37.4145 47.9572 37.4878 47.9572 37.5746C47.9572 37.6961 47.9167 37.7945 47.8357 37.8678C47.7547 37.943 47.6505 37.9797 47.5232 37.9797H46.823V36.6063ZM47.0584 36.8011V37.1792H47.3863C47.4789 37.1792 47.5464 37.1657 47.5907 37.1367C47.6332 37.1078 47.6563 37.0596 47.6563 36.9902C47.6563 36.913 47.6332 36.8628 47.5869 36.8378C47.5406 36.8146 47.4769 36.8011 47.394 36.8011H47.0584ZM47.0584 37.3528V37.7829H47.4191C47.5117 37.7829 47.583 37.7675 47.637 37.7366C47.6891 37.7058 47.7161 37.6498 47.7161 37.5688C47.7161 37.5245 47.7065 37.4878 47.691 37.4569C47.6756 37.4261 47.6525 37.4049 47.6216 37.3894C47.5907 37.3759 47.5599 37.3663 47.529 37.3605C47.4962 37.3566 47.4577 37.3528 47.4152 37.3528H47.0584Z" fill="black"/>
<path d="M39.7031 38.544L40.2033 38.6548L40.0492 38.1662L39.7031 38.544ZM54.123 33.9962L53.6228 33.8853L53.7769 34.3739L54.123 33.9962ZM40.084 38.4239L40.0973 38.4662L53.7555 34.1586L53.7422 34.1163L53.7288 34.0739L40.0706 38.3815L40.084 38.4239Z" fill="black"/>
<path opacity="0.2" d="M6.42578 28.6718L39.5915 30.7793" stroke="black" stroke-width="0.0887378"/>
<path d="M19.5156 24.6786L19.2595 25.1223H19.7718L19.5156 24.6786ZM19.5156 29.3373L19.7718 28.8936H19.2595L19.5156 29.3373ZM19.5156 25.0779H19.4713V28.938H19.5156H19.56V25.0779H19.5156Z" fill="black"/>
<path d="M5.09375 30.6684H5.04938V30.7128H5.09375V30.6684ZM6.31389 30.6684L5.87021 30.4122V30.9246L6.31389 30.6684ZM5.09375 29.1155H5.04938V30.6684H5.09375H5.13812V29.1155H5.09375ZM5.09375 30.6684V30.7128H5.91457V30.6684V30.624H5.09375V30.6684Z" fill="black"/>
</svg>
