<svg width="18" height="18" viewBox="0 0 18 18" fill="none" xmlns="http://www.w3.org/2000/svg">
<g opacity="0.6" clip-path="url(#clip0_2896_116725)">
<path d="M13.5 6C13.5 6.82843 12.8284 7.5 12 7.5C11.1716 7.5 10.5 6.82843 10.5 6C10.5 5.17157 11.1716 4.5 12 4.5C12.8284 4.5 13.5 5.17157 13.5 6Z" fill="#060C12"/>
<path fill-rule="evenodd" clip-rule="evenodd" d="M8.95697 0.9375H9.04303C10.7743 0.937491 12.1311 0.937484 13.1897 1.07981C14.2733 1.22549 15.1283 1.5295 15.7994 2.2006C16.4705 2.87171 16.7745 3.72673 16.9202 4.81028C17.0625 5.8689 17.0625 7.22567 17.0625 8.95697V9.02318C17.0625 10.4548 17.0625 11.6267 16.9848 12.5809C16.9066 13.5398 16.7465 14.3411 16.3882 15.0065C16.2301 15.3001 16.0359 15.5629 15.7994 15.7994C15.1283 16.4705 14.2733 16.7745 13.1897 16.9202C12.1311 17.0625 10.7743 17.0625 9.04303 17.0625H8.95697C7.22567 17.0625 5.8689 17.0625 4.81028 16.9202C3.72673 16.7745 2.87171 16.4705 2.2006 15.7994C1.60564 15.2044 1.2984 14.4639 1.13501 13.5453C0.974512 12.6429 0.945152 11.5202 0.939052 10.1261C0.9375 9.7715 0.9375 9.39644 0.9375 9.00075V8.95697C0.937491 7.22568 0.937484 5.86889 1.07981 4.81028C1.22549 3.72673 1.5295 2.87171 2.2006 2.2006C2.87171 1.5295 3.72673 1.22549 4.81028 1.07981C5.86889 0.937484 7.22568 0.937491 8.95697 0.9375ZM4.96018 2.19478C4.00138 2.32369 3.42334 2.56886 2.9961 2.9961C2.56886 3.42334 2.32369 4.00138 2.19478 4.96018C2.0637 5.93517 2.0625 7.21633 2.0625 9C2.0625 9.21789 2.0625 9.4286 2.06276 9.63262L2.81361 8.97563C3.49706 8.37762 4.52713 8.41192 5.16928 9.05407L8.38658 12.2714C8.902 12.7868 9.71335 12.8571 10.3097 12.4379L10.5334 12.2808C11.3915 11.6777 12.5526 11.7475 13.3323 12.4492L15.4551 14.3598C15.6688 13.911 15.7957 13.3214 15.8635 12.4895C15.9371 11.5862 15.9375 10.4594 15.9375 9C15.9375 7.21633 15.9363 5.93517 15.8052 4.96018C15.6763 4.00138 15.4311 3.42334 15.0039 2.9961C14.5767 2.56886 13.9986 2.32369 13.0398 2.19478C12.0648 2.0637 10.7837 2.0625 9 2.0625C7.21633 2.0625 5.93517 2.0637 4.96018 2.19478Z" fill="#060C12"/>
</g>
<defs>
<clipPath id="clip0_2896_116725">
<rect width="18" height="18" fill="white"/>
</clipPath>
</defs>
</svg>
