<svg width="29" height="29" viewBox="0 0 29 29" fill="none" xmlns="http://www.w3.org/2000/svg">
<path d="M20.3391 9.77332C20.3391 10.9404 19.3929 11.8866 18.2258 11.8866C17.0587 11.8866 16.1126 10.9404 16.1126 9.77332C16.1126 8.6062 17.0587 7.66007 18.2258 7.66007C19.3929 7.66007 20.3391 8.6062 20.3391 9.77332Z" fill="#B02E0C"/>
<path fill-rule="evenodd" clip-rule="evenodd" d="M13.9387 2.64111H14.0599C16.499 2.6411 18.4105 2.64109 19.9019 2.8416C21.4285 3.04684 22.633 3.47513 23.5785 4.42061C24.524 5.36609 24.9523 6.57066 25.1575 8.0972C25.358 9.58861 25.358 11.5001 25.358 13.9392V14.0325C25.358 16.0493 25.358 17.7004 25.2485 19.0447C25.1384 20.3956 24.9128 21.5245 24.408 22.462C24.1853 22.8755 23.9117 23.2458 23.5785 23.579C22.633 24.5245 21.4285 24.9528 19.9019 25.158C18.4105 25.3585 16.499 25.3585 14.0599 25.3585H13.9387C11.4996 25.3585 9.58812 25.3585 8.09671 25.158C6.57017 24.9528 5.3656 24.5245 4.42012 23.579C3.58193 22.7408 3.14907 21.6975 2.91889 20.4034C2.69277 19.1321 2.65141 17.5504 2.64281 15.5863C2.64063 15.0867 2.64063 14.5583 2.64063 14.0009V13.9392C2.64061 11.5001 2.6406 9.58861 2.84112 8.0972C3.04635 6.57066 3.47465 5.36609 4.42012 4.42061C5.3656 3.47513 6.57017 3.04684 8.09671 2.8416C9.58812 2.64109 11.4996 2.6411 13.9387 2.64111ZM8.3079 4.41241C6.95711 4.59401 6.14275 4.93942 5.54084 5.54133C4.93893 6.14324 4.59353 6.9576 4.41192 8.30839C4.22724 9.68198 4.22556 11.4869 4.22556 13.9998C4.22556 14.3068 4.22556 14.6036 4.22592 14.8911L5.28374 13.9655C6.24661 13.123 7.6978 13.1713 8.60249 14.076L13.1351 18.6086C13.8613 19.3348 15.0043 19.4338 15.8445 18.8433L16.1596 18.6219C17.3686 17.7722 19.0044 17.8706 20.1028 18.8592L23.0935 21.5508C23.3945 20.9186 23.5733 20.0879 23.6688 18.916C23.7725 17.6433 23.7731 16.0559 23.7731 13.9998C23.7731 11.4869 23.7714 9.68198 23.5867 8.30839C23.4051 6.9576 23.0597 6.14324 22.4578 5.54133C21.8559 4.93942 21.0415 4.59401 19.6907 4.41241C18.3172 4.22773 16.5122 4.22605 13.9993 4.22605C11.4864 4.22605 9.68149 4.22773 8.3079 4.41241Z" fill="#B02E0C"/>
</svg>
