<svg width="58" height="58" viewBox="0 0 58 58" fill="none" xmlns="http://www.w3.org/2000/svg">
<rect width="58" height="58" rx="14" fill="#F3F3F3"/>
<rect x="0.5" y="0.5" width="57" height="57" rx="13.5" stroke="#B02E0C" stroke-opacity="0.04"/>
<mask id="path-3-inside-1_2436_115321" fill="white">
<path d="M50.5645 25.1021V34.4526L45.1201 39.5581H12.2393L7.53906 34.4526V25.1021L12.2393 19.1353H45.1201L50.5645 25.1021Z"/>
</mask>
<path d="M50.5645 25.1021V34.4526L45.1201 39.5581H12.2393L7.53906 34.4526V25.1021L12.2393 19.1353H45.1201L50.5645 25.1021Z" fill="#55A2F2"/>
<path d="M50.5645 25.1021H51.0546V24.912L50.9265 24.7717L50.5645 25.1021ZM50.5645 34.4526L50.8997 34.8102L51.0546 34.6649V34.4526H50.5645ZM45.1201 39.5581V40.0483H45.314L45.4554 39.9156L45.1201 39.5581ZM12.2393 39.5581L11.8786 39.8901L12.0243 40.0483H12.2393V39.5581ZM7.53906 34.4526H7.04891V34.6439L7.17845 34.7846L7.53906 34.4526ZM7.53906 25.1021L7.15402 24.7987L7.04891 24.9322V25.1021H7.53906ZM12.2393 19.1353V18.6451H12.0014L11.8542 18.8319L12.2393 19.1353ZM45.1201 19.1353L45.4822 18.8049L45.3364 18.6451H45.1201V19.1353ZM50.5645 25.1021H50.0743V34.4526H50.5645H51.0546V25.1021H50.5645ZM50.5645 34.4526L50.2292 34.0951L44.7848 39.2006L45.1201 39.5581L45.4554 39.9156L50.8997 34.8102L50.5645 34.4526ZM45.1201 39.5581V39.068H12.2393V39.5581V40.0483H45.1201V39.5581ZM12.2393 39.5581L12.5999 39.2261L7.89967 34.1207L7.53906 34.4526L7.17845 34.7846L11.8786 39.8901L12.2393 39.5581ZM7.53906 34.4526H8.02922V25.1021H7.53906H7.04891V34.4526H7.53906ZM7.53906 25.1021L7.9241 25.4054L12.6243 19.4386L12.2393 19.1353L11.8542 18.8319L7.15402 24.7987L7.53906 25.1021ZM12.2393 19.1353V19.6254H45.1201V19.1353V18.6451H12.2393V19.1353ZM45.1201 19.1353L44.758 19.4656L50.2024 25.4324L50.5645 25.1021L50.9265 24.7717L45.4822 18.8049L45.1201 19.1353Z" fill="black" mask="url(#path-3-inside-1_2436_115321)"/>
<path d="M12.3906 17.0581L14.1214 18.0574V16.0588L12.3906 17.0581ZM45.2752 17.0581L43.5445 16.0588V18.0574L45.2752 17.0581ZM13.9483 17.0581V17.2312H43.7175V17.0581V16.885H13.9483V17.0581Z" fill="black"/>
<path d="M30.2471 14.3124C30.2229 14.617 30.1156 14.8593 29.9217 15.0393C29.7279 15.2193 29.4786 15.3093 29.174 15.3093C28.8244 15.3093 28.544 15.1916 28.3363 14.9563C28.1252 14.7209 28.0213 14.4093 28.0213 14.0182C28.0213 13.7828 28.0663 13.5716 28.1563 13.3778C28.2463 13.1839 28.3813 13.0282 28.5613 12.9105C28.7413 12.7928 28.9525 12.7305 29.1948 12.7305C29.4544 12.7305 29.6829 12.8032 29.8767 12.9486C30.0706 13.0939 30.1848 13.3016 30.2263 13.5716H29.7971C29.7659 13.4263 29.6967 13.3086 29.5894 13.2255C29.4786 13.1424 29.3471 13.0974 29.1879 13.0974C29.0217 13.0974 28.8832 13.1459 28.769 13.2359C28.6548 13.3293 28.5752 13.4436 28.5267 13.5786C28.4782 13.7136 28.4575 13.8589 28.4575 14.0182C28.4575 14.1393 28.4713 14.2536 28.499 14.3574C28.5267 14.4647 28.5682 14.5616 28.6236 14.6516C28.679 14.7416 28.7517 14.8109 28.8486 14.8628C28.9456 14.9182 29.0563 14.9424 29.1844 14.9424C29.5513 14.9424 29.759 14.7347 29.8144 14.3124H30.2471Z" fill="black"/>
<path d="M12.3906 40.9429L14.1214 41.9421V39.9436L12.3906 40.9429ZM45.2752 40.9429L43.5445 39.9436V41.9421L45.2752 40.9429ZM13.9483 40.9429V41.1159H43.7175V40.9429V40.7698H13.9483V40.9429Z" fill="black"/>
<path d="M29.0631 41.8596L30.0151 44.3276H29.5512L29.3158 43.6734H28.3397L28.0974 44.3276H27.6508L28.6028 41.8596H29.0631ZM29.2016 43.348L28.8347 42.3096L28.4504 43.348H29.2016Z" fill="black"/>
<path d="M2.1668 28.4011H3.10488C3.2745 28.4011 3.42334 28.4219 3.55488 28.4565C3.68296 28.4911 3.80065 28.5569 3.91142 28.6538C4.15373 28.8719 4.27488 29.1834 4.27488 29.5919C4.27488 30.028 4.15719 30.3638 3.92873 30.5923C3.82488 30.6961 3.71411 30.7653 3.59642 30.8069C3.47873 30.8484 3.32296 30.8657 3.12911 30.8657H2.1668V28.4011ZM2.59604 28.768V30.5023H3.10488C3.37488 30.5023 3.56527 30.4261 3.67604 30.2669C3.7868 30.1111 3.84219 29.893 3.84219 29.6126C3.84219 29.3496 3.77988 29.1419 3.65527 28.993C3.53065 28.8442 3.3368 28.768 3.07719 28.768H2.59604Z" fill="black"/>
<path d="M5.69531 25.0195L4.69605 26.7503H6.69457L5.69531 25.0195ZM5.69531 34.7118L6.69457 32.9811H4.69605L5.69531 34.7118ZM5.69531 26.5772H5.52224V33.1541H5.69531H5.86839V26.5772H5.69531Z" fill="black"/>
<path d="M52.5391 25.0195L51.5398 26.7503H53.5383L52.5391 25.0195ZM52.5391 34.7118L53.5383 32.9811H51.5398L52.5391 34.7118ZM52.5391 26.5772H52.366V33.1541H52.5391H52.7121V26.5772H52.5391Z" fill="black"/>
<path d="M54.1156 28.4011H55.2406C55.4968 28.4011 55.6941 28.46 55.8326 28.5707C55.971 28.6815 56.0403 28.8338 56.0403 29.0207C56.0403 29.1384 56.0056 29.2457 55.9433 29.3392C55.8776 29.4326 55.791 29.4984 55.6872 29.54C55.8291 29.5746 55.9433 29.6438 56.0264 29.7476C56.1095 29.8515 56.151 29.983 56.151 30.1388C56.151 30.3569 56.0783 30.5334 55.9329 30.665C55.7876 30.8 55.6006 30.8657 55.3722 30.8657H54.1156V28.4011ZM54.5379 28.7507V29.4292H55.1264C55.2926 29.4292 55.4137 29.405 55.4933 29.353C55.5695 29.3011 55.611 29.2146 55.611 29.09C55.611 28.9515 55.5695 28.8615 55.4864 28.8165C55.4033 28.775 55.2891 28.7507 55.1403 28.7507H54.5379ZM54.5379 29.7407V30.5126H55.1853C55.3514 30.5126 55.4795 30.485 55.5764 30.4296C55.6699 30.3742 55.7183 30.2738 55.7183 30.1284C55.7183 30.0488 55.701 29.983 55.6733 29.9276C55.6456 29.8723 55.6041 29.8342 55.5487 29.8065C55.4933 29.7823 55.4379 29.765 55.3826 29.7546C55.3237 29.7476 55.2545 29.7407 55.1783 29.7407H54.5379Z" fill="black"/>
</svg>
