<svg width="176" height="136" viewBox="0 0 176 136" fill="none" xmlns="http://www.w3.org/2000/svg">
<path d="M0 16C0 7.16344 7.16344 0 16 0H160C168.837 0 176 7.16344 176 16V120C176 128.837 168.837 136 160 136H16C7.16344 136 0 128.837 0 120V16Z" fill="white"/>
<path d="M16 0.5H160C168.56 0.5 175.5 7.43959 175.5 16V120C175.5 128.56 168.56 135.5 160 135.5H16C7.43959 135.5 0.5 128.56 0.5 120V16C0.5 7.43959 7.43959 0.5 16 0.5Z" stroke="#B02E0C" stroke-opacity="0.16"/>
<mask id="path-3-inside-1_2436_116440" fill="white">
<path d="M150.293 57.2373V84.25L134.564 99H39.5771L26 84.25V57.2373L39.5771 40H134.564L150.293 57.2373Z"/>
</mask>
<path d="M150.293 57.2373V84.25L134.564 99H39.5771L26 84.25V57.2373L39.5771 40H134.564L150.293 57.2373Z" fill="#55A2F2"/>
<path d="M150.293 57.2373H151.709V56.6884L151.339 56.2829L150.293 57.2373ZM150.293 84.25L151.262 85.2829L151.709 84.8633V84.25H150.293ZM134.564 99V100.416H135.125L135.533 100.033L134.564 99ZM39.5771 99L38.5353 99.959L38.956 100.416H39.5771V99ZM26 84.25H24.584V84.8025L24.9582 85.209L26 84.25ZM26 57.2373L24.8876 56.3611L24.584 56.7466V57.2373H26ZM39.5771 40V38.584H38.89L38.4648 39.1238L39.5771 40ZM134.564 40L135.61 39.0456L135.189 38.584H134.564V40ZM150.293 57.2373H148.877V84.25H150.293H151.709V57.2373H150.293ZM150.293 84.25L149.324 83.2171L133.596 97.9671L134.564 99L135.533 100.033L151.262 85.2829L150.293 84.25ZM134.564 99V97.584H39.5771V99V100.416H134.564V99ZM39.5771 99L40.619 98.041L27.0418 83.291L26 84.25L24.9582 85.209L38.5353 99.959L39.5771 99ZM26 84.25H27.416V57.2373H26H24.584V84.25H26ZM26 57.2373L27.1124 58.1135L40.6895 40.8762L39.5771 40L38.4648 39.1238L24.8876 56.3611L26 57.2373ZM39.5771 40V41.416H134.564V40V38.584H39.5771V40ZM134.564 40L133.518 40.9544L149.247 58.1917L150.293 57.2373L151.339 56.2829L135.61 39.0456L134.564 40Z" fill="black" mask="url(#path-3-inside-1_2436_116440)"/>
<path d="M40 34L45 36.8868V31.1132L40 34ZM135 34L130 31.1132V36.8868L135 34ZM44.5 34V34.5H130.5V34V33.5H44.5V34Z" fill="black"/>
<path d="M91.2416 27.29C91.1716 28.17 90.8616 28.87 90.3016 29.39C89.7416 29.91 89.0216 30.17 88.1416 30.17C87.1316 30.17 86.3216 29.83 85.7216 29.15C85.1116 28.47 84.8116 27.57 84.8116 26.44C84.8116 25.76 84.9416 25.15 85.2016 24.59C85.4616 24.03 85.8516 23.58 86.3716 23.24C86.8916 22.9 87.5016 22.72 88.2016 22.72C88.9516 22.72 89.6116 22.93 90.1716 23.35C90.7316 23.77 91.0616 24.37 91.1816 25.15H89.9416C89.8516 24.73 89.6516 24.39 89.3416 24.15C89.0216 23.91 88.6416 23.78 88.1816 23.78C87.7016 23.78 87.3016 23.92 86.9716 24.18C86.6416 24.45 86.4116 24.78 86.2716 25.17C86.1316 25.56 86.0716 25.98 86.0716 26.44C86.0716 26.79 86.1116 27.12 86.1916 27.42C86.2716 27.73 86.3916 28.01 86.5516 28.27C86.7116 28.53 86.9216 28.73 87.2016 28.88C87.4816 29.04 87.8016 29.11 88.1716 29.11C89.2316 29.11 89.8316 28.51 89.9916 27.29H91.2416Z" fill="black"/>
<path d="M40 103L45 105.887V100.113L40 103ZM135 103L130 100.113V105.887L135 103ZM44.5 103V103.5H130.5V103V102.5H44.5V103Z" fill="black"/>
<path d="M88.165 106.87L90.915 114H89.575L88.895 112.11H86.075L85.375 114H84.085L86.835 106.87H88.165ZM88.565 111.17L87.505 108.17L86.395 111.17H88.565Z" fill="black"/>
<path d="M10.1416 67.38H12.8516C13.3416 67.38 13.7716 67.44 14.1516 67.54C14.5216 67.64 14.8616 67.83 15.1816 68.11C15.8816 68.74 16.2316 69.64 16.2316 70.82C16.2316 72.08 15.8916 73.05 15.2316 73.71C14.9316 74.01 14.6116 74.21 14.2716 74.33C13.9316 74.45 13.4816 74.5 12.9216 74.5H10.1416V67.38ZM11.3816 68.44V73.45H12.8516C13.6316 73.45 14.1816 73.23 14.5016 72.77C14.8216 72.32 14.9816 71.69 14.9816 70.88C14.9816 70.12 14.8016 69.52 14.4416 69.09C14.0816 68.66 13.5216 68.44 12.7716 68.44H11.3816Z" fill="black"/>
<path d="M20 57L17.1132 62H22.8868L20 57ZM20 85L22.8868 80H17.1132L20 85ZM20 61.5H19.5V80.5H20H20.5V61.5H20Z" fill="black"/>
<path d="M156 57L153.113 62H158.887L156 57ZM156 85L158.887 80H153.113L156 85ZM156 61.5H155.5V80.5H156H156.5V61.5H156Z" fill="black"/>
<path d="M160.219 67.38H163.469C164.209 67.38 164.779 67.55 165.179 67.87C165.579 68.19 165.779 68.63 165.779 69.17C165.779 69.51 165.679 69.82 165.499 70.09C165.309 70.36 165.059 70.55 164.759 70.67C165.169 70.77 165.499 70.97 165.739 71.27C165.979 71.57 166.099 71.95 166.099 72.4C166.099 73.03 165.889 73.54 165.469 73.92C165.049 74.31 164.509 74.5 163.849 74.5H160.219V67.38ZM161.439 68.39V70.35H163.139C163.619 70.35 163.969 70.28 164.199 70.13C164.419 69.98 164.539 69.73 164.539 69.37C164.539 68.97 164.419 68.71 164.179 68.58C163.939 68.46 163.609 68.39 163.179 68.39H161.439ZM161.439 71.25V73.48H163.309C163.789 73.48 164.159 73.4 164.439 73.24C164.709 73.08 164.849 72.79 164.849 72.37C164.849 72.14 164.799 71.95 164.719 71.79C164.639 71.63 164.519 71.52 164.359 71.44C164.199 71.37 164.039 71.32 163.879 71.29C163.709 71.27 163.509 71.25 163.289 71.25H161.439Z" fill="black"/>
</svg>
