<svg width="46" height="46" viewBox="0 0 46 46" fill="none" xmlns="http://www.w3.org/2000/svg">
<rect width="46" height="46" rx="11.1034" fill="#F3F3F3"/>
<rect x="0.396552" y="0.396552" width="45.2069" height="45.2069" rx="10.7069" stroke="#B02E0C" stroke-opacity="0.04" stroke-width="0.793103"/>
<path d="M24.9521 14.5376L24.9199 14.5513V19.2944L35.6406 14.4263L35.6533 14.4204H42.5957L42.6211 14.5376L42.5928 14.5503V25.1382L42.5566 25.1538L28.2305 31.5562V31.5796H3.37891V21.0317H3.42578L17.9717 14.4263L17.9844 14.4204H24.9268L24.9521 14.5376ZM3.50195 31.4565H28.1064V21.1548H21.1738V23.1763L21.1826 23.1958L21.1738 23.1997V28.104H10.3076V21.1548H3.50195V31.4565ZM28.2305 21.1304V31.4204L42.4697 25.0571V14.6069L28.2305 21.1304ZM10.6992 27.9731H21.0508V23.2554L10.6992 27.9731ZM10.4307 21.1323V27.9595L21.0508 23.1206V21.0317H21.0947L24.7969 19.3501V14.6079L10.4307 21.1323ZM3.72363 21.0317H10.3545L24.6436 14.5435H18.0107L3.72363 21.0317ZM21.3926 21.0317H28.1504L42.3135 14.5435H35.6797L21.3926 21.0317Z" fill="black"/>
</svg>
