<svg width="47" height="47" viewBox="0 0 47 47" fill="none" xmlns="http://www.w3.org/2000/svg">
<rect width="47" height="47" rx="11.3448" fill="#F3F3F3"/>
<rect x="0.405172" y="0.405172" width="46.1897" height="46.1897" rx="10.9397" stroke="#B02E0C" stroke-opacity="0.04" stroke-width="0.810345"/>
<path d="M25.46 14.9248L25.4316 14.9375V19.7461L36.2988 14.8115L36.3115 14.8057H43.3486L43.374 14.9248L43.3457 14.9375V25.6699L43.3096 25.6865L28.7461 32.1943L28.7207 32.1377L28.6953 32.0801L43.2217 25.5879V14.9941L28.7471 21.627L28.7207 21.5693L28.6953 21.5127L43.0625 14.9307H36.3379L21.5938 21.627L21.5684 21.5693L21.543 21.5127L25.3066 19.8027V14.9941L10.7041 21.627L10.6777 21.5693L10.6523 21.5127L25.1455 14.9307H18.4238L3.67969 21.627L3.6543 21.5693L3.62891 21.5127L18.3848 14.8115L18.3975 14.8057H25.4346L25.46 14.9248Z" fill="black"/>
<path d="M3.62891 21.5151V32.1633H28.7585V21.5151H21.5178V24.3546C19.1042 29.8917 12.0054 29.0398 10.7277 24.3546V21.5151H3.62891Z" stroke="black" stroke-width="0.11358"/>
</svg>
