<svg width="58" height="58" viewBox="0 0 58 58" fill="none" xmlns="http://www.w3.org/2000/svg">
<rect width="58" height="58" rx="14" fill="#F3F3F3"/>
<rect x="0.5" y="0.5" width="57" height="57" rx="13.5" stroke="#B02E0C" stroke-opacity="0.04"/>
<path d="M29.4163 9.04443L4.28125 23.8576L14.9183 30.0034L29.4163 9.04443Z" fill="#F26722" stroke="black" stroke-width="0.0630346"/>
<path d="M29.4159 9.04443L14.918 30.0034L42.2592 30.0822L29.4159 9.04443Z" fill="#F26722" stroke="black" stroke-width="0.0630346"/>
<path d="M52.8196 23.8576L29.418 9.04443L42.2613 30.0822L52.8196 23.8576Z" fill="#F26722" stroke="black" stroke-width="0.0630346"/>
<path d="M4.28125 40.4041V23.8575L14.9183 30.0034V45.8409L4.28125 40.4041Z" fill="#949599" stroke="black" stroke-width="0.0630346"/>
<path d="M42.1804 30.0822L14.918 30.0034V45.8409H42.1804V30.0822Z" fill="#949599" stroke="black" stroke-width="0.0630346"/>
<path d="M52.8168 23.8575L42.1797 30.0822V45.8409L52.8168 40.4829V23.8575Z" fill="#949599" stroke="black" stroke-width="0.0630346"/>
<path d="M30.3008 8.11523L30.7026 8.87373L31.1586 8.14649L30.3008 8.11523ZM53.7167 22.7966L53.3149 22.0381L52.8589 22.7654L53.7167 22.7966ZM30.8676 8.47063L30.8281 8.53361L53.1104 22.5042L53.1499 22.4413L53.1894 22.3783L30.9071 8.40765L30.8676 8.47063Z" fill="black"/>
<path d="M42.4884 12.1536H42.1346C42.1108 11.9068 41.9591 11.7819 41.6737 11.7819C41.5458 11.7819 41.4477 11.8086 41.3763 11.8622C41.305 11.9157 41.2693 11.9871 41.2693 12.0763C41.2693 12.1625 41.2931 12.222 41.3466 12.2517C41.4001 12.2844 41.5161 12.3231 41.6975 12.3677C41.745 12.3825 41.7807 12.3914 41.8075 12.3974C42.0424 12.4569 42.2029 12.5104 42.2892 12.558C42.4765 12.6591 42.5717 12.8166 42.5717 13.0307C42.5717 13.1259 42.5538 13.2091 42.5241 13.2835C42.4914 13.3608 42.4497 13.4232 42.3962 13.4738C42.3427 13.5243 42.2773 13.566 42.2059 13.5987C42.1316 13.6343 42.0543 13.6581 41.977 13.673C41.8967 13.6879 41.8134 13.6938 41.7302 13.6938C41.4626 13.6938 41.2485 13.6314 41.0849 13.5035C40.9184 13.3786 40.8381 13.1913 40.8381 12.9445H41.2039C41.2039 13.0991 41.2544 13.2151 41.3555 13.2894C41.4566 13.3638 41.5874 13.3994 41.751 13.3994C41.8937 13.3994 42.0037 13.3727 42.084 13.3132C42.1643 13.2537 42.2059 13.1735 42.2059 13.0664C42.2059 13.001 42.1821 12.9445 42.1405 12.9029C42.0989 12.8612 42.0513 12.8285 42.0037 12.8107C41.9532 12.7929 41.8669 12.7691 41.745 12.7364C41.7302 12.7334 41.7183 12.7304 41.7123 12.7274C41.4477 12.662 41.2752 12.6055 41.192 12.5609C41.0195 12.4717 40.9273 12.3349 40.9154 12.1476V12.106C40.9154 11.9187 40.9838 11.77 41.1266 11.657C41.2693 11.544 41.4596 11.4875 41.6975 11.4875C41.9264 11.4875 42.1137 11.544 42.2594 11.6511C42.4022 11.7611 42.4795 11.9276 42.4884 12.1536Z" fill="black"/>
<path d="M28.897 47.7651L29.7147 49.8851H29.3162L29.114 49.3231H28.2755L28.0674 49.8851H27.6838L28.5015 47.7651H28.897ZM29.0159 49.0436L28.7007 48.1516L28.3707 49.0436H29.0159Z" fill="black"/>
<path d="M15.0625 47.1418L15.8059 47.571V46.7127L15.0625 47.1418ZM42.3811 47.1418L41.6377 46.7127V47.571L42.3811 47.1418ZM15.7315 47.1418V47.2162H41.7121V47.1418V47.0675H15.7315V47.1418Z" fill="black"/>
</svg>
