<svg width="176" height="136" viewBox="0 0 176 136" fill="none" xmlns="http://www.w3.org/2000/svg">
<path d="M0 16C0 7.16344 7.16344 0 16 0H160C168.837 0 176 7.16344 176 16V120C176 128.837 168.837 136 160 136H16C7.16344 136 0 128.837 0 120V16Z" fill="white"/>
<path d="M16 0.5H160C168.56 0.5 175.5 7.43959 175.5 16V120C175.5 128.56 168.56 135.5 160 135.5H16C7.43959 135.5 0.5 128.56 0.5 120V16C0.5 7.43959 7.43959 0.5 16 0.5Z" stroke="#B02E0C" stroke-opacity="0.16"/>
<path d="M140.394 23.8984L163.767 37.3916L163.927 37.3418L163.982 37.5166L164.032 37.5459V37.6709L164.109 37.9131L164.032 37.9375V64.793L164.109 65.0332L163.859 65.1133L140.641 79.1416L140.61 79.1602L140.576 79.1709L36.2344 112.095L36.1172 112.163L36.082 112.143L35.9209 112.194L35.8662 112.021L11.9961 98.5186L11.8438 98.4316V70.7188L11.9961 70.6328L36.2412 56.9482L36.2246 56.8965L36.4756 56.8164L36.6045 56.7441L36.6387 56.7646L140.152 23.8721L140.279 23.832L140.394 23.8984ZM12.4434 71.0684V98.082L36.1162 111.473L59.4863 98.1172L59.4697 98.0635L59.5479 98.0381V71.0635L36.5977 57.4375L12.4434 71.0684ZM59.9688 98.5332L38.6924 110.69L140.361 78.6084L161.375 65.9121L59.9688 98.5332ZM60.1484 71.1123V97.8447L163.433 64.6211V38.1289L60.1484 71.1123ZM37.3291 57.1738L59.8848 70.5664L162.994 37.6387L140.208 24.4844L37.3291 57.1738Z" fill="black"/>
<path d="M10.7015 67.2331L13.3551 67.2691L12.0594 64.9531L10.7015 67.2331ZM20.9247 61.7772L21.1253 61.665L20.9009 61.2639L20.7003 61.3761L20.9247 61.7772ZM12.5067 66.2233L12.6189 66.4238L20.9247 61.7772L20.8125 61.5767L20.7003 61.3761L12.3945 66.0227L12.5067 66.2233Z" fill="black"/>
<path d="M34.4681 53.9401L31.8145 53.9042L33.1102 56.2202L34.4681 53.9401ZM23.7394 59.6788L23.5388 59.791L23.7632 60.1922L23.9638 60.08L23.7394 59.6788ZM32.6629 54.95L32.5507 54.7494L23.7394 59.6788L23.8516 59.8794L23.9638 60.08L32.7751 55.1505L32.6629 54.95Z" fill="black"/>
<rect width="4.6629" height="4" transform="translate(23.8359 57.5957) rotate(60.7756)" fill="white"/>
<path d="M22.4667 58.3184L26.071 61.309L25.3543 61.71L24.4251 60.9026L22.9168 61.7464L23.1079 62.9667L22.4179 63.3527L21.7554 58.7163L22.4667 58.3184ZM23.9673 60.4985L22.5027 59.2112L22.8067 61.1479L23.9673 60.4985Z" fill="#060C12"/>
<path d="M168.821 75.7499L166.158 75.1417L166.963 77.7523L168.821 75.7499ZM120.235 90.4839L120.009 90.5536L120.148 91.0058L120.374 90.936L120.235 90.4839ZM166.787 76.3773L166.717 76.1512L120.235 90.4839L120.305 90.71L120.374 90.936L166.856 76.6034L166.787 76.3773Z" fill="black"/>
<path d="M62.7833 108.77L65.4454 109.382L64.6449 106.771L62.7833 108.77ZM111.476 94.0836L111.702 94.0142L111.563 93.5619L111.337 93.6312L111.476 94.0836ZM64.819 108.146L64.8883 108.372L111.476 94.0836L111.406 93.8574L111.337 93.6312L64.7496 107.92L64.819 108.146Z" fill="black"/>
<path d="M117.339 93.3901L117.338 94.0714L114.26 94.0666L114.264 89.5747L115.059 89.576L115.055 93.3865L117.339 93.3901Z" fill="#060C12"/>
<path d="M164 66L168.236 74.5033" stroke="black" stroke-width="0.473167" stroke-linecap="square"/>
<path d="M62 105L63 108" stroke="black" stroke-width="0.473167" stroke-linecap="square"/>
</svg>
