<svg width="46" height="46" viewBox="0 0 46 46" fill="none" xmlns="http://www.w3.org/2000/svg">
<rect width="46" height="46" rx="11.1034" fill="#F3F3F3"/>
<rect x="0.396552" y="0.396552" width="45.2069" height="45.2069" rx="10.7069" stroke="#B02E0C" stroke-opacity="0.04" stroke-width="0.793103"/>
<path d="M35.6387 12.0166L41.458 15.376L41.499 15.3633L41.5127 15.4072L41.5244 15.4141V15.4434L41.5439 15.5059L41.5244 15.5117V22.1943L41.5449 22.2578L41.4766 22.2793L35.7002 25.7705L35.6934 25.7754L35.6846 25.7783L9.70312 33.9756L9.67578 33.9922L9.66699 33.9873L9.62793 34L9.61426 33.9561L3.66992 30.5947L3.63281 30.5732V23.6729L3.66992 23.6514L9.70703 20.2441L9.70312 20.2324L9.76367 20.2119L9.79688 20.1943L9.80469 20.1982L35.5791 12.0098L35.6104 12L35.6387 12.0166ZM3.78125 23.7607V30.4854L9.6748 33.8193L15.4951 30.4932L15.4922 30.4814L15.5098 30.4756V23.7598L9.79492 20.3662L3.78125 23.7607ZM15.6094 30.6006L10.3154 33.626L35.6279 25.6387L40.8574 22.4785L15.6094 30.6006ZM15.6592 23.7715V30.4277L41.375 22.1553V15.5596L15.6592 23.7715ZM9.97852 20.3008L15.5938 23.6348L41.2646 15.4375L35.5928 12.1621L9.97852 20.3008Z" fill="black"/>
<path d="M3.34981 22.8059L4.01047 22.8148L3.68789 22.2382L3.34981 22.8059ZM5.89512 21.4475L5.94506 21.4196L5.88919 21.3197L5.83925 21.3476L5.86719 21.3976L5.89512 21.4475ZM3.79924 22.5545L3.82718 22.6044L5.89512 21.4475L5.86719 21.3976L5.83925 21.3476L3.77131 22.5045L3.79924 22.5545Z" fill="black"/>
<path d="M9.26825 19.4962L8.60758 19.4873L8.93017 20.0639L9.26825 19.4962ZM6.59706 20.925L6.54713 20.953L6.603 21.0528L6.65294 21.0249L6.625 20.975L6.59706 20.925ZM8.81881 19.7477L8.79088 19.6977L6.59706 20.925L6.625 20.975L6.65294 21.0249L8.84675 19.7976L8.81881 19.7477Z" fill="black"/>
<rect width="1.16095" height="0.9959" transform="translate(6.625 20.4064) rotate(60.7756)" fill="white"/>
<path d="M6.2866 20.59L7.18397 21.3346L7.00553 21.4344L6.77418 21.2334L6.39865 21.4435L6.44624 21.7473L6.27445 21.8434L6.10949 20.6891L6.2866 20.59ZM6.6602 21.1328L6.29556 20.8123L6.37124 21.2944L6.6602 21.1328Z" fill="#060C12"/>
<path d="M42.7123 24.9262L42.0492 24.7748L42.2495 25.4248L42.7123 24.9262ZM30.6155 28.5946L30.5592 28.6119L30.5939 28.7245L30.6502 28.7072L30.6328 28.6509L30.6155 28.5946ZM42.2057 25.0824L42.1883 25.0261L30.6155 28.5946L30.6328 28.6509L30.6502 28.7072L42.223 25.1387L42.2057 25.0824Z" fill="black"/>
<path d="M16.316 33.1474L16.9788 33.2998L16.7795 32.6495L16.316 33.1474ZM28.4391 29.4908L28.4954 29.4735L28.4609 29.3609L28.4046 29.3781L28.4219 29.4344L28.4391 29.4908ZM16.8228 32.9919L16.8401 33.0482L28.4391 29.4908L28.4219 29.4344L28.4046 29.3781L16.8055 32.9356L16.8228 32.9919Z" fill="black"/>
<path d="M29.8975 29.3222L29.8973 29.4919L29.1308 29.4907L29.132 28.3723L29.3299 28.3726L29.3289 29.3213L29.8975 29.3222Z" fill="#060C12"/>
<path d="M41.5156 22.4988L42.5703 24.6159" stroke="black" stroke-width="0.117807" stroke-linecap="square"/>
<path d="M16.1172 32.2087L16.3662 32.9557" stroke="black" stroke-width="0.117807" stroke-linecap="square"/>
</svg>
