<svg width="176" height="136" viewBox="0 0 176 136" fill="none" xmlns="http://www.w3.org/2000/svg">
<path d="M0 16C0 7.16344 7.16344 0 16 0H160C168.837 0 176 7.16344 176 16V120C176 128.837 168.837 136 160 136H16C7.16344 136 0 128.837 0 120V16Z" fill="white"/>
<path d="M16 0.5H160C168.56 0.5 175.5 7.43959 175.5 16V120C175.5 128.56 168.56 135.5 160 135.5H16C7.43959 135.5 0.5 128.56 0.5 120V16C0.5 7.43959 7.43959 0.5 16 0.5Z" stroke="#B02E0C" stroke-opacity="0.16"/>
<path d="M89.6253 14.5L22 54.3544L50.6188 70.8897L89.6253 14.5Z" fill="#F26722" stroke="black" stroke-width="0.169593"/>
<path d="M89.6236 14.5L50.6172 70.8897L124.178 71.1017L89.6236 14.5Z" fill="#F26722" stroke="black" stroke-width="0.169593"/>
<path d="M152.586 54.3544L89.625 14.5L124.18 71.1017L152.586 54.3544Z" fill="#F26722" stroke="black" stroke-width="0.169593"/>
<path d="M22 98.8727V54.3545L50.6188 70.8898V113.5L22 98.8727Z" fill="#949599" stroke="black" stroke-width="0.169593"/>
<path d="M123.966 71.1016L50.6172 70.8896V113.5H123.966V71.1016Z" fill="#949599" stroke="black" stroke-width="0.169593"/>
<path d="M152.584 54.3545L123.965 71.1018V113.5L152.584 99.0847V54.3545Z" fill="#949599" stroke="black" stroke-width="0.169593"/>
<path d="M92 12L93.0811 14.0407L94.3079 12.0841L92 12ZM155 51.5L153.919 49.4593L152.692 51.4159L155 51.5ZM93.525 12.9562L93.4188 13.1256L153.369 50.7133L153.475 50.5438L153.581 50.3744L93.6313 12.7867L93.525 12.9562Z" fill="black"/>
<path d="M125.102 23.484H124.15C124.086 22.82 123.678 22.484 122.91 22.484C122.566 22.484 122.302 22.556 122.11 22.7C121.918 22.844 121.822 23.036 121.822 23.276C121.822 23.508 121.886 23.668 122.03 23.748C122.174 23.836 122.486 23.94 122.974 24.06C123.102 24.1 123.198 24.124 123.27 24.14C123.902 24.3 124.334 24.444 124.566 24.572C125.07 24.844 125.326 25.268 125.326 25.844C125.326 26.1 125.278 26.324 125.198 26.524C125.11 26.732 124.998 26.9 124.854 27.036C124.71 27.172 124.534 27.284 124.342 27.372C124.142 27.468 123.934 27.532 123.726 27.572C123.51 27.612 123.286 27.628 123.062 27.628C122.342 27.628 121.766 27.46 121.326 27.116C120.878 26.78 120.662 26.276 120.662 25.612H121.646C121.646 26.028 121.782 26.34 122.054 26.54C122.326 26.74 122.678 26.836 123.118 26.836C123.502 26.836 123.798 26.764 124.014 26.604C124.23 26.444 124.342 26.228 124.342 25.94C124.342 25.764 124.278 25.612 124.166 25.5C124.054 25.388 123.926 25.3 123.798 25.252C123.662 25.204 123.43 25.14 123.102 25.052C123.062 25.044 123.03 25.036 123.014 25.028C122.302 24.852 121.838 24.7 121.614 24.58C121.15 24.34 120.902 23.972 120.87 23.468V23.356C120.87 22.852 121.054 22.452 121.438 22.148C121.822 21.844 122.334 21.692 122.974 21.692C123.59 21.692 124.094 21.844 124.486 22.132C124.87 22.428 125.078 22.876 125.102 23.484Z" fill="black"/>
<path d="M88.532 119.296L90.732 125H89.66L89.116 123.488H86.86L86.3 125H85.268L87.468 119.296H88.532ZM88.852 122.736L88.004 120.336L87.116 122.736H88.852Z" fill="black"/>
<path d="M51 117L53 118.155V115.845L51 117ZM124.5 117L122.5 115.845V118.155L124.5 117ZM52.8 117V117.2H122.7V117V116.8H52.8V117Z" fill="black"/>
</svg>
