<svg width="15" height="15" viewBox="0 0 15 15" fill="none" xmlns="http://www.w3.org/2000/svg">
<path fill-rule="evenodd" clip-rule="evenodd" d="M0.3894 4.36706C0 5.07846 0 5.93662 0 7.65294V8.79371C0 11.7194 0 13.1822 0.87868 14.0911C1.75736 15 3.17157 15 6 15H9C11.8284 15 13.2426 15 14.1213 14.0911C15 13.1822 15 11.7194 15 8.79371V7.65294C15 5.93662 15 5.07846 14.6106 4.36706C14.2212 3.65566 13.5098 3.21413 12.087 2.33109L10.587 1.40015C9.08296 0.466717 8.33095 0 7.5 0C6.66905 0 5.91704 0.466718 4.41302 1.40015L2.91303 2.33109C1.49021 3.21414 0.778801 3.65566 0.3894 4.36706ZM5.58496 10.0481C5.33539 9.86311 4.9831 9.91547 4.79811 10.165C4.61311 10.4146 4.66547 10.7669 4.91504 10.9519C5.64435 11.4925 6.53627 11.8125 7.5 11.8125C8.46373 11.8125 9.35565 11.4925 10.085 10.9519C10.3345 10.7669 10.3869 10.4146 10.2019 10.165C10.0169 9.91547 9.66461 9.86311 9.41504 10.0481C8.86879 10.453 8.20942 10.6875 7.5 10.6875C6.79058 10.6875 6.13121 10.453 5.58496 10.0481Z" fill="white"/>
</svg>
