<svg width="47" height="47" viewBox="0 0 47 47" fill="none" xmlns="http://www.w3.org/2000/svg">
<rect width="47" height="47" rx="11.3448" fill="#F3F3F3"/>
<rect x="0.405172" y="0.405172" width="46.1897" height="46.1897" rx="10.9397" stroke="#B02E0C" stroke-opacity="0.04" stroke-width="0.810345"/>
<path d="M2.88477 27.8536H36.3319C38.4692 27.8536 40.2018 26.121 40.2018 23.9837V15.1382" stroke="black" stroke-width="1.10569"/>
<path d="M33.8399 24.82L34.0693 24.8228C34.0831 24.9168 34.1218 24.9914 34.1854 25.0467C34.249 25.102 34.3291 25.1296 34.4286 25.1296C34.6857 25.1296 34.8322 24.9168 34.8654 24.4911C34.8709 24.4524 34.8709 24.4082 34.8709 24.3612C34.7603 24.5381 34.6028 24.6293 34.3927 24.6293C34.2158 24.6293 34.0693 24.5685 33.9587 24.4524C33.8482 24.3363 33.7929 24.1815 33.7929 23.9935C33.7929 23.7973 33.8537 23.6397 33.9725 23.5181C34.0942 23.3965 34.249 23.3357 34.4397 23.3357C34.8903 23.3357 35.1142 23.6535 35.1142 24.2921C35.1142 24.3888 35.1086 24.4828 35.0976 24.5713C35.0865 24.6597 35.0644 24.7537 35.0312 24.8477C35.0008 24.9417 34.9594 25.0246 34.9096 25.0937C34.8599 25.1656 34.7935 25.2209 34.7106 25.2651C34.6277 25.3093 34.5309 25.3314 34.4231 25.3314C34.2573 25.3314 34.119 25.2872 34.014 25.196C33.909 25.1075 33.8509 24.9804 33.8399 24.82ZM34.4286 23.5457C34.3125 23.5457 34.2213 23.5844 34.1495 23.6646C34.0776 23.7448 34.0416 23.8526 34.0416 23.9852C34.0416 24.1096 34.0776 24.2119 34.1439 24.2948C34.2103 24.3778 34.307 24.4192 34.4286 24.4192C34.5503 24.4192 34.647 24.3778 34.7189 24.3004C34.7935 24.223 34.8295 24.1179 34.8295 23.9908C34.8295 23.8553 34.7935 23.7475 34.7189 23.6674C34.647 23.5844 34.5503 23.5457 34.4286 23.5457ZM36.0033 23.3329C36.1194 23.3329 36.2217 23.355 36.3046 23.3992C36.3875 23.4435 36.4539 23.496 36.4981 23.5568C36.5423 23.6204 36.5755 23.7033 36.6032 23.8028C36.628 23.9023 36.6446 23.9935 36.6502 24.0737C36.6557 24.1539 36.6584 24.2506 36.6584 24.3612C36.6584 24.4662 36.6529 24.5574 36.6446 24.6404C36.6363 24.7233 36.6197 24.8117 36.5921 24.9002C36.5645 24.9914 36.5285 25.0661 36.4843 25.1269C36.4373 25.1877 36.3737 25.2347 36.2963 25.2734C36.2162 25.3121 36.1222 25.3314 36.0144 25.3314C35.8983 25.3314 35.7988 25.3121 35.7158 25.2734C35.6329 25.2347 35.5666 25.1849 35.5223 25.1269C35.4754 25.0661 35.4394 24.9914 35.4118 24.9002C35.3841 24.809 35.3675 24.7233 35.3593 24.6404C35.3537 24.5574 35.3482 24.4635 35.3482 24.3557C35.3482 24.2644 35.351 24.1843 35.3565 24.1152C35.362 24.0488 35.3703 23.9714 35.3841 23.8857C35.398 23.8 35.4201 23.7282 35.4477 23.6674C35.4781 23.6065 35.5168 23.5513 35.5638 23.496C35.608 23.4435 35.6688 23.402 35.7435 23.3744C35.8181 23.3467 35.9038 23.3329 36.0033 23.3329ZM36.0033 23.543C35.9453 23.543 35.8955 23.554 35.8513 23.5761C35.8071 23.5983 35.7711 23.6204 35.7435 23.648C35.7158 23.6757 35.691 23.7171 35.6716 23.7724C35.6495 23.8277 35.6357 23.8719 35.6274 23.9078C35.6191 23.9465 35.6136 23.9991 35.608 24.0682C35.6025 24.1373 35.5997 24.187 35.5997 24.2147V24.3557C35.5997 24.422 35.5997 24.4745 35.6025 24.516C35.6025 24.5602 35.608 24.6155 35.6163 24.6818C35.6219 24.7509 35.6357 24.809 35.655 24.8532C35.6716 24.8974 35.6965 24.9444 35.7241 24.9887C35.7518 25.0329 35.7877 25.0688 35.8375 25.0909C35.8872 25.113 35.9425 25.1241 36.0088 25.1241C36.0641 25.1241 36.1111 25.1158 36.1554 25.0937C36.1996 25.0744 36.2355 25.0495 36.2632 25.0218C36.2908 24.9942 36.3129 24.9555 36.3323 24.9057C36.3516 24.856 36.3654 24.8117 36.3765 24.773C36.3848 24.7344 36.3903 24.6846 36.3958 24.621C36.4014 24.5574 36.4041 24.5104 36.4041 24.48C36.4041 24.4496 36.4069 24.4054 36.4069 24.3446V24.2064C36.4069 24.1787 36.4041 24.1317 36.3986 24.0626C36.3931 23.9963 36.3848 23.9438 36.3765 23.9051C36.3682 23.8691 36.3544 23.8249 36.335 23.7696C36.3129 23.7171 36.2908 23.6757 36.2632 23.648C36.2355 23.6204 36.1996 23.5983 36.1554 23.5761C36.1111 23.554 36.0586 23.543 36.0033 23.543ZM37.3265 23.3301C37.4426 23.3301 37.5393 23.3716 37.6222 23.4545C37.7024 23.5374 37.7439 23.6342 37.7439 23.7475C37.7439 23.8636 37.7024 23.9631 37.6222 24.0461C37.5393 24.129 37.4426 24.1677 37.3265 24.1677C37.2104 24.1677 37.1108 24.129 37.0307 24.0461C36.9478 23.9631 36.9091 23.8636 36.9091 23.7475C36.9091 23.6342 36.9478 23.5374 37.0307 23.4545C37.1108 23.3716 37.2104 23.3301 37.3265 23.3301ZM37.3265 23.4849C37.2546 23.4849 37.191 23.5126 37.1413 23.5623C37.0887 23.6148 37.0639 23.6757 37.0639 23.7475C37.0639 23.8222 37.0887 23.8857 37.1413 23.9355C37.191 23.9852 37.2546 24.0101 37.3265 24.0101C37.3983 24.0101 37.4591 23.9852 37.5117 23.9355C37.5614 23.8857 37.5891 23.8222 37.5891 23.7475C37.5891 23.6757 37.5614 23.6148 37.5117 23.5623C37.4591 23.5126 37.3983 23.4849 37.3265 23.4849Z" fill="black"/>
<path d="M2.88477 32L4.26688 32.798V31.202L2.88477 32ZM40.2018 32L38.8197 31.202V32.798L40.2018 32ZM4.12867 32V32.1382H38.9579V32V31.8618H4.12867V32Z" fill="black"/>
<path d="M20.5613 29.1295H21.4596C21.6642 29.1295 21.8217 29.1765 21.9323 29.265C22.0429 29.3534 22.0982 29.4751 22.0982 29.6243C22.0982 29.7183 22.0705 29.804 22.0208 29.8786C21.9683 29.9533 21.8991 30.0058 21.8162 30.039C21.9296 30.0666 22.0208 30.1219 22.0871 30.2048C22.1535 30.2877 22.1866 30.3928 22.1866 30.5172C22.1866 30.6913 22.1286 30.8323 22.0125 30.9373C21.8964 31.0451 21.7471 31.0977 21.5647 31.0977H20.5613V29.1295ZM20.8985 29.4087V29.9505H21.3684C21.5011 29.9505 21.5978 29.9312 21.6614 29.8897C21.7222 29.8482 21.7554 29.7791 21.7554 29.6796C21.7554 29.569 21.7222 29.4972 21.6559 29.4612C21.5896 29.4281 21.4983 29.4087 21.3795 29.4087H20.8985ZM20.8985 30.1993V30.8157H21.4154C21.5481 30.8157 21.6504 30.7936 21.7278 30.7494C21.8024 30.7051 21.8411 30.625 21.8411 30.5089C21.8411 30.4453 21.8273 30.3928 21.8052 30.3486C21.783 30.3043 21.7499 30.2739 21.7057 30.2518C21.6614 30.2325 21.6172 30.2186 21.573 30.2103C21.526 30.2048 21.4707 30.1993 21.4099 30.1993H20.8985Z" fill="black"/>
<path d="M42.6192 20.8016L43.3793 22.7725H43.0089L42.8209 22.25H42.0414L41.8479 22.7725H41.4914L42.2515 20.8016H42.6192ZM42.7297 21.9902L42.4367 21.1609L42.1299 21.9902H42.7297Z" fill="black"/>
<path d="M44.1152 15L43.3173 16.3821H44.9132L44.1152 15ZM44.1152 28.5447L44.9132 27.1626H43.3173L44.1152 28.5447ZM44.1152 16.2439H43.977V27.3008H44.1152H44.2534V16.2439H44.1152Z" fill="black"/>
</svg>
