<svg width="58" height="58" viewBox="0 0 58 58" fill="none" xmlns="http://www.w3.org/2000/svg">
<rect width="58" height="58" rx="14" fill="#F3F3F3"/>
<rect x="0.5" y="0.5" width="57" height="57" rx="13.5" stroke="#B02E0C" stroke-opacity="0.04"/>
<mask id="path-3-inside-1_2436_115340" fill="white">
<path d="M54.0078 45.4819H10.6328V25.1226H38.5166V12.729H54.0078V45.4819Z"/>
</mask>
<path d="M54.0078 45.4819H10.6328V25.1226H38.5166V12.729H54.0078V45.4819Z" fill="#55A2F2"/>
<path d="M54.0078 45.4819V46.2786H54.8045V45.4819H54.0078ZM10.6328 45.4819H9.83612V46.2786H10.6328V45.4819ZM10.6328 25.1226V24.3259H9.83612V25.1226H10.6328ZM38.5166 25.1226V25.9192H39.3133V25.1226H38.5166ZM38.5166 12.729V11.9323H37.7199V12.729H38.5166ZM54.0078 12.729H54.8045V11.9323H54.0078V12.729ZM54.0078 45.4819V44.6852H10.6328V45.4819V46.2786H54.0078V45.4819ZM10.6328 45.4819H11.4295V25.1226H10.6328H9.83612V45.4819H10.6328ZM10.6328 25.1226V25.9192H38.5166V25.1226V24.3259H10.6328V25.1226ZM38.5166 25.1226H39.3133V12.729H38.5166H37.7199V25.1226H38.5166ZM38.5166 12.729V13.5257H54.0078V12.729V11.9323H38.5166V12.729ZM54.0078 12.729H53.2111V45.4819H54.0078H54.8045V12.729H54.0078Z" fill="black" mask="url(#path-3-inside-1_2436_115340)"/>
<path d="M10.6328 48.1382L12.8458 49.4159V46.8605L10.6328 48.1382ZM54.0081 48.1382L51.7951 46.8605V49.4159L54.0081 48.1382ZM12.6245 48.1382V48.3595H52.0164V48.1382V47.9169H12.6245V48.1382Z" fill="black"/>
<path d="M32.4085 48.4988L33.3823 51.0234H32.9078L32.667 50.3542H31.6685L31.4206 51.0234H30.9639L31.9376 48.4988H32.4085ZM32.5502 50.0214L32.1748 48.9591L31.7818 50.0214H32.5502Z" fill="black"/>
<path d="M4.25421 33.4535H5.40498C5.667 33.4535 5.86883 33.5137 6.01047 33.627C6.1521 33.7403 6.22292 33.8961 6.22292 34.0873C6.22292 34.2077 6.18751 34.3175 6.12377 34.4131C6.0565 34.5087 5.96798 34.576 5.86175 34.6185C6.00693 34.6539 6.12377 34.7247 6.20875 34.8309C6.29373 34.9371 6.33622 35.0717 6.33622 35.231C6.33622 35.4541 6.26187 35.6347 6.11315 35.7692C5.96444 35.9073 5.77323 35.9746 5.53953 35.9746H4.25421V33.4535ZM4.68619 33.8112V34.5052H5.28814C5.4581 34.5052 5.58202 34.4804 5.66346 34.4273C5.74136 34.3741 5.78385 34.2856 5.78385 34.1582C5.78385 34.0165 5.74136 33.9245 5.65638 33.8784C5.5714 33.8359 5.45455 33.8112 5.3023 33.8112H4.68619ZM4.68619 34.8238V35.6134H5.34833C5.51829 35.6134 5.6493 35.5851 5.74844 35.5285C5.84405 35.4718 5.89362 35.3691 5.89362 35.2204C5.89362 35.139 5.87591 35.0717 5.84759 35.015C5.81926 34.9584 5.77677 34.9194 5.72012 34.8911C5.66346 34.8663 5.60681 34.8486 5.55016 34.838C5.48996 34.8309 5.41915 34.8238 5.34125 34.8238H4.68619Z" fill="black"/>
<path d="M33.0312 17.0776H33.9908C34.1643 17.0776 34.3165 17.0988 34.4511 17.1342C34.5821 17.1696 34.7025 17.2369 34.8158 17.336C35.0636 17.5591 35.1876 17.8778 35.1876 18.2956C35.1876 18.7417 35.0672 19.0852 34.8335 19.3189C34.7273 19.4251 34.6139 19.4959 34.4936 19.5384C34.3732 19.5809 34.2138 19.5986 34.0155 19.5986H33.0312V17.0776ZM33.4703 17.4529V19.2268H33.9908C34.2669 19.2268 34.4617 19.1489 34.575 18.9861C34.6883 18.8267 34.745 18.6037 34.745 18.3168C34.745 18.0477 34.6812 17.8353 34.5537 17.683C34.4263 17.5308 34.228 17.4529 33.9624 17.4529H33.4703Z" fill="black"/>
<path d="M47.5817 8.01602C47.5569 8.32761 47.4472 8.57547 47.2489 8.75959C47.0506 8.94372 46.7957 9.03578 46.4841 9.03578C46.1264 9.03578 45.8396 8.91539 45.6272 8.67461C45.4112 8.43384 45.305 8.11516 45.305 7.71505C45.305 7.47427 45.351 7.25828 45.4431 7.05999C45.5351 6.8617 45.6732 6.70237 45.8573 6.58198C46.0415 6.46159 46.2575 6.39785 46.5053 6.39785C46.7709 6.39785 47.0046 6.47221 47.2029 6.62093C47.4011 6.76964 47.518 6.98209 47.5605 7.25828H47.1214C47.0895 7.10956 47.0187 6.98917 46.909 6.90419C46.7957 6.81921 46.6611 6.77318 46.4982 6.77318C46.3283 6.77318 46.1866 6.82275 46.0698 6.91482C45.9529 7.01042 45.8715 7.12727 45.8219 7.26536C45.7724 7.40345 45.7511 7.55217 45.7511 7.71505C45.7511 7.83898 45.7653 7.95582 45.7936 8.06205C45.8219 8.17182 45.8644 8.27096 45.9211 8.36302C45.9777 8.45508 46.0521 8.5259 46.1512 8.57901C46.2504 8.63567 46.3637 8.66045 46.4947 8.66045C46.87 8.66045 47.0825 8.448 47.1391 8.01602H47.5817Z" fill="black"/>
<path d="M7.53125 25.1226L6.25356 27.3356H8.80894L7.53125 25.1226ZM7.53125 45.4824L8.80894 43.2694H6.25356L7.53125 45.4824ZM7.53125 27.1143H7.30995V43.4907H7.53125H7.75255V27.1143H7.53125Z" fill="black"/>
<path d="M36.3047 12.73L35.027 14.943H37.5824L36.3047 12.73ZM36.3047 24.6803L37.5824 22.4673H35.027L36.3047 24.6803ZM36.3047 14.7217H36.0834V22.6886H36.3047H36.526V14.7217H36.3047Z" fill="black"/>
<path d="M38.5156 10.5166L40.7287 11.7943V9.23891L38.5156 10.5166ZM54.0068 10.5166L51.7938 9.23891V11.7943L54.0068 10.5166ZM40.5073 10.5166V10.7379H52.0151V10.5166V10.2953H40.5073V10.5166Z" fill="black"/>
</svg>
