<svg width="176" height="136" viewBox="0 0 176 136" fill="none" xmlns="http://www.w3.org/2000/svg">
<path d="M0 16C0 7.16344 7.16344 0 16 0H160C168.837 0 176 7.16344 176 16V120C176 128.837 168.837 136 160 136H16C7.16344 136 0 128.837 0 120V16Z" fill="white"/>
<path d="M16 0.5H160C168.56 0.5 175.5 7.43959 175.5 16V120C175.5 128.56 168.56 135.5 160 135.5H16C7.43959 135.5 0.5 128.56 0.5 120V16C0.5 7.43959 7.43959 0.5 16 0.5Z" stroke="#B02E0C" stroke-opacity="0.16"/>
<mask id="path-3-inside-1_2436_116546" fill="white">
<path d="M151.001 109.008H41.7266V57.7158H111.975V26.4941H151.001V109.008Z"/>
</mask>
<path d="M151.001 109.008H41.7266V57.7158H111.975V26.4941H151.001V109.008Z" fill="#55A2F2"/>
<path d="M151.001 109.008V111.015H153.008V109.008H151.001ZM41.7266 109.008H39.7195V111.015H41.7266V109.008ZM41.7266 57.7158V55.7087H39.7195V57.7158H41.7266ZM111.975 57.7158V59.7229H113.982V57.7158H111.975ZM111.975 26.4941V24.4871H109.968V26.4941H111.975ZM151.001 26.4941H153.008V24.4871H151.001V26.4941ZM151.001 109.008V107.001H41.7266V109.008V111.015H151.001V109.008ZM41.7266 109.008H43.7336V57.7158H41.7266H39.7195V109.008H41.7266ZM41.7266 57.7158V59.7229H111.975V57.7158V55.7087H41.7266V57.7158ZM111.975 57.7158H113.982V26.4941H111.975H109.968V57.7158H111.975ZM111.975 26.4941V28.5012H151.001V26.4941V24.4871H111.975V26.4941ZM151.001 26.4941H148.994V109.008H151.001H153.008V26.4941H151.001Z" fill="black" mask="url(#path-3-inside-1_2436_116546)"/>
<path d="M41.7266 115.699L47.3018 118.918V112.48L41.7266 115.699ZM151.001 115.699L145.426 112.48V118.918L151.001 115.699ZM46.7443 115.699V116.257H145.983V115.699V115.142H46.7443V115.699Z" fill="black"/>
<path d="M96.5838 117.569L99.0369 123.93H97.8415L97.235 122.244H94.7194L94.095 123.93H92.9443L95.3974 117.569H96.5838ZM96.9406 121.405L95.995 118.729L95.0049 121.405H96.9406Z" fill="black"/>
<path d="M25.6601 79.6663H28.5592C29.2193 79.6663 29.7278 79.8179 30.0846 80.1034C30.4414 80.3888 30.6198 80.7813 30.6198 81.263C30.6198 81.5663 30.5306 81.8429 30.3701 82.0837C30.2006 82.3246 29.9776 82.494 29.7099 82.6011C30.0757 82.6903 30.3701 82.8687 30.5841 83.1363C30.7982 83.4039 30.9053 83.7429 30.9053 84.1443C30.9053 84.7063 30.7179 85.1612 30.3433 85.5002C29.9686 85.8481 29.4869 86.0176 28.8982 86.0176H25.6601V79.6663ZM26.7484 80.5672V82.3156H28.2648C28.693 82.3156 29.0052 82.2532 29.2104 82.1194C29.4067 81.9856 29.5137 81.7626 29.5137 81.4414C29.5137 81.0846 29.4067 80.8527 29.1926 80.7367C28.9785 80.6297 28.6841 80.5672 28.3005 80.5672H26.7484ZM26.7484 83.1185V85.1077H28.4165C28.8447 85.1077 29.1747 85.0363 29.4245 84.8936C29.6653 84.7509 29.7902 84.4922 29.7902 84.1175C29.7902 83.9124 29.7456 83.7429 29.6743 83.6002C29.6029 83.4574 29.4959 83.3593 29.3531 83.2879C29.2104 83.2255 29.0677 83.1809 28.925 83.1541C28.7733 83.1363 28.5949 83.1185 28.3987 83.1185H26.7484Z" fill="black"/>
<path d="M98.1456 38.4095H100.563C101 38.4095 101.384 38.463 101.723 38.5522C102.053 38.6414 102.356 38.8109 102.641 39.0606C103.266 39.6226 103.578 40.4254 103.578 41.4781C103.578 42.602 103.275 43.4673 102.686 44.056C102.418 44.3236 102.133 44.5021 101.83 44.6091C101.526 44.7161 101.125 44.7607 100.625 44.7607H98.1456V38.4095ZM99.2517 39.355V43.8241H100.563C101.259 43.8241 101.749 43.6279 102.035 43.2175C102.32 42.8161 102.463 42.2541 102.463 41.5316C102.463 40.8536 102.302 40.3184 101.981 39.9348C101.66 39.5513 101.161 39.355 100.492 39.355H99.2517Z" fill="black"/>
<path d="M134.806 15.5826C134.743 16.3676 134.467 16.992 133.967 17.4559C133.468 17.9197 132.825 18.1516 132.04 18.1516C131.139 18.1516 130.417 17.8484 129.882 17.2418C129.338 16.6352 129.07 15.8324 129.07 14.8244C129.07 14.2178 129.186 13.6736 129.418 13.1741C129.65 12.6745 129.998 12.2731 130.462 11.9698C130.925 11.6665 131.47 11.506 132.094 11.506C132.763 11.506 133.352 11.6933 133.851 12.068C134.351 12.4426 134.645 12.9778 134.752 13.6736H133.646C133.566 13.299 133.387 12.9957 133.111 12.7816C132.825 12.5675 132.486 12.4515 132.076 12.4515C131.648 12.4515 131.291 12.5764 130.997 12.8084C130.702 13.0492 130.497 13.3436 130.372 13.6915C130.247 14.0394 130.194 14.414 130.194 14.8244C130.194 15.1366 130.23 15.4309 130.301 15.6985C130.372 15.9751 130.479 16.2248 130.622 16.4568C130.765 16.6887 130.952 16.8671 131.202 17.0009C131.452 17.1436 131.737 17.2061 132.067 17.2061C133.013 17.2061 133.548 16.6709 133.691 15.5826H134.806Z" fill="black"/>
<path d="M33.9219 57.7168L30.703 63.292H37.1407L33.9219 57.7168ZM33.9219 109.009L37.1407 103.434H30.703L33.9219 109.009ZM33.9219 62.7345H33.3644V103.991H33.9219H34.4794V62.7345H33.9219Z" fill="black"/>
<path d="M106.398 26.4951L103.18 32.0703H109.617L106.398 26.4951ZM106.398 56.6013L109.617 51.0261H103.18L106.398 56.6013ZM106.398 31.5128H105.841V51.5836H106.398H106.956V31.5128H106.398Z" fill="black"/>
<path d="M111.977 20.9199L117.552 24.1388V17.7011L111.977 20.9199ZM151.003 20.9199L145.428 17.7011V24.1388L151.003 20.9199ZM116.994 20.9199V21.4774H145.985V20.9199V20.3624H116.994V20.9199Z" fill="black"/>
</svg>
