<svg width="176" height="136" viewBox="0 0 176 136" fill="none" xmlns="http://www.w3.org/2000/svg">
<path d="M0 16C0 7.16344 7.16344 0 16 0H160C168.837 0 176 7.16344 176 16V120C176 128.837 168.837 136 160 136H16C7.16344 136 0 128.837 0 120V16Z" fill="white"/>
<path d="M16 0.5H160C168.56 0.5 175.5 7.43959 175.5 16V120C175.5 128.56 168.56 135.5 160 135.5H16C7.43959 135.5 0.5 128.56 0.5 120V16C0.5 7.43959 7.43959 0.5 16 0.5Z" stroke="#B02E0C" stroke-opacity="0.16"/>
<path d="M12 84.5H133C140.732 84.5 147 78.232 147 70.5V38.5" stroke="black" stroke-width="4"/>
<path d="M122.941 73.29L123.771 73.3C123.821 73.64 123.961 73.91 124.191 74.11C124.421 74.31 124.711 74.41 125.071 74.41C126.001 74.41 126.531 73.64 126.651 72.1C126.671 71.96 126.671 71.8 126.671 71.63C126.271 72.27 125.701 72.6 124.941 72.6C124.301 72.6 123.771 72.38 123.371 71.96C122.971 71.54 122.771 70.98 122.771 70.3C122.771 69.59 122.991 69.02 123.421 68.58C123.861 68.14 124.421 67.92 125.111 67.92C126.741 67.92 127.551 69.07 127.551 71.38C127.551 71.73 127.531 72.07 127.491 72.39C127.451 72.71 127.371 73.05 127.251 73.39C127.141 73.73 126.991 74.03 126.811 74.28C126.631 74.54 126.391 74.74 126.091 74.9C125.791 75.06 125.441 75.14 125.051 75.14C124.451 75.14 123.951 74.98 123.571 74.65C123.191 74.33 122.981 73.87 122.941 73.29ZM125.071 68.68C124.651 68.68 124.321 68.82 124.061 69.11C123.801 69.4 123.671 69.79 123.671 70.27C123.671 70.72 123.801 71.09 124.041 71.39C124.281 71.69 124.631 71.84 125.071 71.84C125.511 71.84 125.861 71.69 126.121 71.41C126.391 71.13 126.521 70.75 126.521 70.29C126.521 69.8 126.391 69.41 126.121 69.12C125.861 68.82 125.511 68.68 125.071 68.68ZM130.768 67.91C131.188 67.91 131.558 67.99 131.858 68.15C132.158 68.31 132.398 68.5 132.558 68.72C132.718 68.95 132.838 69.25 132.938 69.61C133.028 69.97 133.088 70.3 133.108 70.59C133.128 70.88 133.138 71.23 133.138 71.63C133.138 72.01 133.118 72.34 133.088 72.64C133.058 72.94 132.998 73.26 132.898 73.58C132.798 73.91 132.668 74.18 132.508 74.4C132.338 74.62 132.108 74.79 131.828 74.93C131.538 75.07 131.198 75.14 130.808 75.14C130.388 75.14 130.028 75.07 129.728 74.93C129.428 74.79 129.188 74.61 129.028 74.4C128.858 74.18 128.728 73.91 128.628 73.58C128.528 73.25 128.468 72.94 128.438 72.64C128.418 72.34 128.398 72 128.398 71.61C128.398 71.28 128.408 70.99 128.428 70.74C128.448 70.5 128.478 70.22 128.528 69.91C128.578 69.6 128.658 69.34 128.758 69.12C128.868 68.9 129.008 68.7 129.178 68.5C129.338 68.31 129.558 68.16 129.828 68.06C130.098 67.96 130.408 67.91 130.768 67.91ZM130.768 68.67C130.558 68.67 130.378 68.71 130.218 68.79C130.058 68.87 129.928 68.95 129.828 69.05C129.728 69.15 129.638 69.3 129.568 69.5C129.488 69.7 129.438 69.86 129.408 69.99C129.378 70.13 129.358 70.32 129.338 70.57C129.318 70.82 129.308 71 129.308 71.1V71.61C129.308 71.85 129.308 72.04 129.318 72.19C129.318 72.35 129.338 72.55 129.368 72.79C129.388 73.04 129.438 73.25 129.508 73.41C129.568 73.57 129.658 73.74 129.758 73.9C129.858 74.06 129.988 74.19 130.168 74.27C130.348 74.35 130.548 74.39 130.788 74.39C130.988 74.39 131.158 74.36 131.318 74.28C131.478 74.21 131.608 74.12 131.708 74.02C131.808 73.92 131.888 73.78 131.958 73.6C132.028 73.42 132.078 73.26 132.118 73.12C132.148 72.98 132.168 72.8 132.188 72.57C132.208 72.34 132.218 72.17 132.218 72.06C132.218 71.95 132.228 71.79 132.228 71.57V71.07C132.228 70.97 132.218 70.8 132.198 70.55C132.178 70.31 132.148 70.12 132.118 69.98C132.088 69.85 132.038 69.69 131.968 69.49C131.888 69.3 131.808 69.15 131.708 69.05C131.608 68.95 131.478 68.87 131.318 68.79C131.158 68.71 130.968 68.67 130.768 68.67ZM135.555 67.9C135.975 67.9 136.325 68.05 136.625 68.35C136.915 68.65 137.065 69 137.065 69.41C137.065 69.83 136.915 70.19 136.625 70.49C136.325 70.79 135.975 70.93 135.555 70.93C135.135 70.93 134.775 70.79 134.485 70.49C134.185 70.19 134.045 69.83 134.045 69.41C134.045 69 134.185 68.65 134.485 68.35C134.775 68.05 135.135 67.9 135.555 67.9ZM135.555 68.46C135.295 68.46 135.065 68.56 134.885 68.74C134.695 68.93 134.605 69.15 134.605 69.41C134.605 69.68 134.695 69.91 134.885 70.09C135.065 70.27 135.295 70.36 135.555 70.36C135.815 70.36 136.035 70.27 136.225 70.09C136.405 69.91 136.505 69.68 136.505 69.41C136.505 69.15 136.405 68.93 136.225 68.74C136.035 68.56 135.815 68.46 135.555 68.46Z" fill="black"/>
<path d="M12 99.5L17 102.387V96.6132L12 99.5ZM147 99.5L142 96.6132V102.387L147 99.5ZM16.5 99.5V100H142.5V99.5V99H16.5V99.5Z" fill="black"/>
<path d="M75.9478 88.88H79.1978C79.9378 88.88 80.5078 89.05 80.9078 89.37C81.3078 89.69 81.5078 90.13 81.5078 90.67C81.5078 91.01 81.4078 91.32 81.2278 91.59C81.0378 91.86 80.7878 92.05 80.4878 92.17C80.8978 92.27 81.2278 92.47 81.4678 92.77C81.7078 93.07 81.8278 93.45 81.8278 93.9C81.8278 94.53 81.6178 95.04 81.1978 95.42C80.7778 95.81 80.2378 96 79.5778 96H75.9478V88.88ZM77.1678 89.89V91.85H78.8678C79.3478 91.85 79.6978 91.78 79.9278 91.63C80.1478 91.48 80.2678 91.23 80.2678 90.87C80.2678 90.47 80.1478 90.21 79.9078 90.08C79.6678 89.96 79.3378 89.89 78.9078 89.89H77.1678ZM77.1678 92.75V94.98H79.0378C79.5178 94.98 79.8878 94.9 80.1678 94.74C80.4378 94.58 80.5778 94.29 80.5778 93.87C80.5778 93.64 80.5278 93.45 80.4478 93.29C80.3678 93.13 80.2478 93.02 80.0878 92.94C79.9278 92.87 79.7678 92.82 79.6078 92.79C79.4378 92.77 79.2378 92.75 79.0178 92.75H77.1678Z" fill="black"/>
<path d="M155.745 58.87L158.495 66H157.155L156.475 64.11H153.655L152.955 66H151.665L154.415 58.87H155.745ZM156.145 63.17L155.085 60.17L153.975 63.17H156.145Z" fill="black"/>
<path d="M161.16 38L158.273 43H164.047L161.16 38ZM161.16 87L164.047 82H158.273L161.16 87ZM161.16 42.5H160.66V82.5H161.16H161.66V42.5H161.16Z" fill="black"/>
</svg>
