<svg width="40" height="40" viewBox="0 0 40 40" fill="none" xmlns="http://www.w3.org/2000/svg">
<g clip-path="url(#clip0_9029_73695)">
<path d="M16.7169 26.9827C16.6286 26.6495 16.4327 26.3548 16.1595 26.1446C15.8863 25.9343 15.5512 25.8203 15.2065 25.8203H3.62707C3.28234 25.8203 2.9473 25.9343 2.67411 26.1446C2.40093 26.3548 2.20494 26.6495 2.11667 26.9827L0.0794092 34.6733C-0.314497 36.1603 0.806675 37.6172 2.34503 37.6172H16.4885C18.0268 37.6172 19.148 36.1603 18.7541 34.6733L16.7169 26.9827ZM39.9206 34.6733L37.8833 26.9827C37.795 26.6495 37.5991 26.3548 37.3259 26.1446C37.0527 25.9343 36.7176 25.8203 36.3729 25.8203H24.7935C24.4488 25.8203 24.1138 25.9343 23.8406 26.1446C23.5674 26.3548 23.3714 26.6495 23.2832 26.9827L21.2459 34.6733C20.852 36.1603 21.9732 37.6172 23.5115 37.6172H37.655C39.1933 37.6172 40.3146 36.1603 39.9206 34.6733ZM13.2064 12.9177L11.1767 20.5289C10.7799 22.0168 11.9014 23.4766 13.4413 23.4766H26.5587C28.0986 23.4766 29.2201 22.0168 28.8233 20.5289L26.7936 12.9177C26.7049 12.5851 26.5088 12.291 26.2358 12.0813C25.9628 11.8715 25.6281 11.7578 25.2839 11.7578H14.7161C14.3718 11.7578 14.0372 11.8715 13.7642 12.0813C13.4912 12.291 13.2951 12.5851 13.2064 12.9177ZM20 7.07031C20.6472 7.07031 21.1719 6.54563 21.1719 5.89844V3.55469C21.1719 2.9075 20.6472 2.38281 20 2.38281C19.3528 2.38281 18.8282 2.9075 18.8282 3.55469V5.89844C18.8282 6.54563 19.3528 7.07031 20 7.07031ZM26.4453 8.79727C27.0033 9.11953 27.7212 8.93125 28.0461 8.36836L30.4653 4.1782C30.7889 3.61773 30.5969 2.90102 30.0364 2.57742C29.4759 2.25367 28.7592 2.44578 28.4357 3.00633L26.0164 7.19648C25.6928 7.75703 25.8849 8.47367 26.4453 8.79727ZM32.7645 13.9445L34.7942 12.7727C35.3546 12.4491 35.5467 11.7323 35.2231 11.1719C34.8995 10.6113 34.1828 10.4193 33.6223 10.743L31.5926 11.9148C31.0321 12.2384 30.8401 12.9552 31.1637 13.5156C31.4889 14.0789 32.2066 14.2666 32.7645 13.9445ZM11.9539 8.36836C12.2792 8.93164 12.9969 9.11938 13.5547 8.79727C14.1152 8.47367 14.3072 7.75695 13.9836 7.19648L11.5644 3.00633C11.2408 2.44586 10.5241 2.25375 9.96363 2.57742C9.40316 2.90102 9.21113 3.61773 9.53472 4.1782L11.9539 8.36836ZM5.20589 12.7727L7.23558 13.9445C7.79347 14.2667 8.51136 14.0786 8.83636 13.5156C9.15996 12.9552 8.96792 12.2384 8.40746 11.9148L6.37777 10.743C5.81722 10.4192 5.10058 10.6114 4.77699 11.1719C4.45339 11.7323 4.64535 12.4491 5.20589 12.7727Z" fill="#B02E0C"/>
</g>
<defs>
<clipPath id="clip0_9029_73695">
<rect width="40" height="40" fill="white"/>
</clipPath>
</defs>
</svg>
