<svg width="58" height="58" viewBox="0 0 58 58" fill="none" xmlns="http://www.w3.org/2000/svg">
<rect width="58" height="58" rx="14" fill="#F3F3F3"/>
<rect x="0.5" y="0.5" width="57" height="57" rx="13.5" stroke="#B02E0C" stroke-opacity="0.04"/>
<path d="M11.4969 22.5361L1.87109 28.1984H2.67998L11.4969 23.1832L20.7182 28.441H21.7698L11.4969 22.5361Z" fill="#F26722" stroke="black" stroke-width="0.0647112"/>
<path d="M32.1233 22.4552L21.7695 28.441H22.6593L32.1233 23.1023L41.0211 28.3601V27.713L32.1233 22.4552Z" fill="#F26722" stroke="black" stroke-width="0.0647112"/>
<path d="M55.2599 23.1832L41.0234 27.713V28.3601L55.2599 23.9921V23.1832Z" fill="#F26722" stroke="black" stroke-width="0.0647112"/>
<path d="M46.0379 18.0063L32.125 22.4552L41.0228 27.713L55.2593 23.1832L46.0379 18.0063Z" fill="#F26722" stroke="black" stroke-width="0.0647112"/>
<path d="M25.4899 18.0063L11.4961 22.5361L21.769 28.441L32.6081 22.2935L25.4899 18.0063Z" fill="#F26722" stroke="black" stroke-width="0.0647112"/>
<path d="M2.84375 37.4198V28.1175L11.4989 23.1833L20.7202 28.4411H22.6616L32.1256 23.1024L40.4571 28.0366V37.4198H2.84375Z" fill="#949599" stroke="black" stroke-width="0.0647112"/>
<path d="M41.0233 28.3602L40.457 28.0366V37.4197L53.8846 33.618V24.3966L41.0233 28.3602Z" fill="#949599" stroke="black" stroke-width="0.0647112"/>
<path opacity="0.4" d="M2.92188 28.1853L40.4894 29.0248" stroke="black" stroke-width="0.0839497"/>
<path d="M13.4291 24.9466V26.1421H13.2193V25.6048H12.6719V26.1421H12.462V24.9466H12.6719V25.4218H13.2193V24.9466H13.4291Z" fill="black"/>
<path d="M11.5273 23.2533L11.285 23.673L11.7697 23.673L11.5273 23.2533ZM11.5273 28.2903L11.7697 27.8705L11.285 27.8705L11.5273 28.2903ZM11.5273 23.6311L11.4854 23.6311L11.4854 27.9125L11.5273 27.9125L11.5693 27.9125L11.5693 23.6311L11.5273 23.6311Z" fill="black"/>
<path d="M33.9955 24.9466V26.1421H33.7857V25.6048H33.2383V26.1421H33.0284V24.9466H33.2383V25.4218H33.7857V24.9466H33.9955Z" fill="black"/>
<path d="M32.0938 23.2533L31.8514 23.673L32.3361 23.673L32.0938 23.2533ZM32.0938 28.71L32.3361 28.2903L31.8514 28.2903L32.0938 28.71ZM32.0938 23.6311L32.0518 23.6311L32.0518 28.3323L32.0938 28.3323L32.1357 28.3323L32.1357 23.6311L32.0938 23.6311Z" fill="black"/>
<path d="M22.0804 38.7965L22.5421 39.9937H22.3171L22.203 39.6763H21.7295L21.612 39.9937H21.3954L21.8571 38.7965H22.0804ZM22.1476 39.5185L21.9696 39.0148L21.7832 39.5185H22.1476Z" fill="black"/>
<path d="M48.1582 36.6996H48.7038C48.8281 36.6996 48.9238 36.7281 48.9909 36.7818C49.0581 36.8356 49.0917 36.9095 49.0917 37.0001C49.0917 37.0572 49.0749 37.1093 49.0447 37.1546C49.0128 37.1999 48.9708 37.2318 48.9204 37.252C48.9893 37.2688 49.0447 37.3023 49.085 37.3527C49.1253 37.4031 49.1454 37.4669 49.1454 37.5424C49.1454 37.6482 49.1101 37.7338 49.0396 37.7976C48.9691 37.8631 48.8784 37.895 48.7676 37.895H48.1582V36.6996ZM48.363 36.8692V37.1982H48.6484C48.729 37.1982 48.7878 37.1865 48.8264 37.1613C48.8633 37.1361 48.8835 37.0941 48.8835 37.0337C48.8835 36.9665 48.8633 36.9229 48.823 36.9011C48.7827 36.8809 48.7273 36.8692 48.6551 36.8692H48.363ZM48.363 37.3493V37.7238H48.677C48.7576 37.7238 48.8197 37.7103 48.8667 37.6835C48.912 37.6566 48.9355 37.6079 48.9355 37.5374C48.9355 37.4988 48.9271 37.4669 48.9137 37.44C48.9003 37.4131 48.8801 37.3947 48.8533 37.3812C48.8264 37.3695 48.7995 37.3611 48.7727 37.3561C48.7441 37.3527 48.7105 37.3493 48.6736 37.3493H48.363Z" fill="black"/>
<path d="M55.6732 26.9464C55.6614 27.0941 55.6094 27.2116 55.5153 27.2989C55.4213 27.3863 55.3004 27.4299 55.1527 27.4299C54.9831 27.4299 54.8471 27.3728 54.7464 27.2587C54.6439 27.1445 54.5936 26.9934 54.5936 26.8036C54.5936 26.6895 54.6154 26.5871 54.6591 26.493C54.7027 26.399 54.7682 26.3235 54.8555 26.2664C54.9428 26.2093 55.0452 26.1791 55.1628 26.1791C55.2887 26.1791 55.3995 26.2143 55.4935 26.2848C55.5875 26.3554 55.6429 26.4561 55.6631 26.5871H55.4549C55.4398 26.5165 55.4062 26.4595 55.3542 26.4192C55.3004 26.3789 55.2366 26.357 55.1594 26.357C55.0788 26.357 55.0116 26.3805 54.9562 26.4242C54.9008 26.4695 54.8622 26.5249 54.8387 26.5904C54.8152 26.6559 54.8051 26.7264 54.8051 26.8036C54.8051 26.8624 54.8118 26.9178 54.8253 26.9682C54.8387 27.0202 54.8589 27.0672 54.8857 27.1109C54.9126 27.1546 54.9478 27.1881 54.9949 27.2133C55.0419 27.2402 55.0956 27.2519 55.1577 27.2519C55.3357 27.2519 55.4364 27.1512 55.4633 26.9464H55.6732Z" fill="black"/>
<path d="M55.2866 25.8766V25.9291H55.3391V25.8766H55.2866ZM54.0273 25.8766L54.552 26.1796V25.5737L54.0273 25.8766ZM55.2866 24.1976H55.2341V25.8766H55.2866H55.3391V24.1976H55.2866ZM55.2866 25.8766V25.8242H54.4996V25.8766V25.9291H55.2866V25.8766Z" fill="black"/>
<path d="M2.92188 38.469L3.76137 38.9537V37.9843L2.92188 38.469ZM40.5943 38.469L39.7548 37.9843V38.9537L40.5943 38.469ZM3.67742 38.469V38.5529H39.8387V38.469V38.385H3.67742V38.469Z" fill="black"/>
<path d="M41.0117 38.4691L41.9513 38.7075L41.688 37.7746L41.0117 38.4691ZM54.0239 34.7963L53.0843 34.5579L53.3476 35.4908L54.0239 34.7963ZM41.7389 38.2638L41.7617 38.3446L53.3196 35.0823L53.2968 35.0015L53.274 34.9207L41.7161 38.183L41.7389 38.2638Z" fill="black"/>
</svg>
