<svg width="176" height="136" viewBox="0 0 176 136" fill="none" xmlns="http://www.w3.org/2000/svg">
<path d="M0 16C0 7.16344 7.16344 0 16 0H160C168.837 0 176 7.16344 176 16V120C176 128.837 168.837 136 160 136H16C7.16344 136 0 128.837 0 120V16Z" fill="white"/>
<path d="M16 0.5H160C168.56 0.5 175.5 7.43959 175.5 16V120C175.5 128.56 168.56 135.5 160 135.5H16C7.43959 135.5 0.5 128.56 0.5 120V16C0.5 7.43959 7.43959 0.5 16 0.5Z" stroke="#B02E0C" stroke-opacity="0.16"/>
<path d="M37.5182 48.4204L9 65.1958H11.3965L37.5182 50.3376L64.8382 65.9148H67.9537L37.5182 48.4204Z" fill="#F26722" stroke="black" stroke-width="0.191719"/>
<path d="M98.6282 48.1807L67.9531 65.9147H70.5893L98.6282 50.0979L124.99 65.6751V63.7579L98.6282 48.1807Z" fill="#F26722" stroke="black" stroke-width="0.191719"/>
<path d="M167.17 50.3376L124.992 63.758V65.6752L167.17 52.7341V50.3376Z" fill="#F26722" stroke="black" stroke-width="0.191719"/>
<path d="M139.849 35L98.6289 48.1807L124.99 63.7579L167.169 50.3375L139.849 35Z" fill="#F26722" stroke="black" stroke-width="0.191719"/>
<path d="M78.9788 35L37.5195 48.4204L67.955 65.9147L100.068 47.7014L78.9788 35Z" fill="#F26722" stroke="black" stroke-width="0.191719"/>
<path d="M11.8789 92.5158V64.9561L37.5214 50.3375L64.8414 65.9147H70.5929L98.6319 50.0979L123.316 64.7165V92.5158H11.8789Z" fill="#949599" stroke="black" stroke-width="0.191719"/>
<path d="M124.99 65.6749L123.312 64.7163V92.5156L163.094 81.2521V53.9321L124.99 65.6749Z" fill="#949599" stroke="black" stroke-width="0.191719"/>
<path opacity="0.4" d="M12.1094 65.157L123.41 67.6442" stroke="black" stroke-width="0.248717"/>
<path d="M42.2811 55.5991V59.1409H41.6593V57.5491H40.0376V59.1409H39.4158V55.5991H40.0376V57.0069H41.6593V55.5991H42.2811Z" fill="black"/>
<path d="M37.6055 50.5449L36.8875 51.7885L38.3235 51.7885L37.6055 50.5449ZM37.6055 65.4679L38.3235 64.2244L36.8875 64.2244L37.6055 65.4679ZM37.6055 51.6641L37.4811 51.6641L37.4811 64.3487L37.6055 64.3487L37.7298 64.3487L37.7298 51.6641L37.6055 51.6641Z" fill="black"/>
<path d="M103.215 55.5991V59.1409H102.593V57.5491H100.971V59.1409H100.349V55.5991H100.971V57.0069H102.593V55.5991H103.215Z" fill="black"/>
<path d="M98.5391 50.5449L97.8211 51.7885L99.257 51.7885L98.5391 50.5449ZM98.5391 66.7115L99.257 65.4679L97.8211 65.4679L98.5391 66.7115ZM98.5391 51.6641L98.4147 51.6641L98.4147 65.5923L98.5391 65.5923L98.6634 65.5923L98.6634 51.6641L98.5391 51.6641Z" fill="black"/>
<path d="M67.9168 96.6325L69.2847 100.179H68.6181L68.2799 99.239H66.8771L66.5289 100.179H65.8872L67.2552 96.6325H67.9168ZM68.1157 98.7715L67.5884 97.2792L67.0363 98.7715H68.1157Z" fill="black"/>
<path d="M145.168 90.4197H146.784C147.152 90.4197 147.436 90.5043 147.635 90.6634C147.834 90.8226 147.933 91.0415 147.933 91.3101C147.933 91.4792 147.884 91.6334 147.794 91.7677C147.7 91.902 147.575 91.9966 147.426 92.0563C147.63 92.106 147.794 92.2055 147.913 92.3547C148.033 92.5039 148.093 92.693 148.093 92.9168C148.093 93.2302 147.988 93.4839 147.779 93.6729C147.57 93.8669 147.302 93.9614 146.973 93.9614H145.168V90.4197ZM145.775 90.9221V91.8971H146.62C146.859 91.8971 147.033 91.8623 147.147 91.7876C147.257 91.713 147.317 91.5887 147.317 91.4096C147.317 91.2106 147.257 91.0813 147.138 91.0166C147.018 90.9569 146.854 90.9221 146.64 90.9221H145.775ZM145.775 92.3448V93.454H146.705C146.944 93.454 147.128 93.4142 147.267 93.3347C147.401 93.2551 147.471 93.1108 147.471 92.9019C147.471 92.7875 147.446 92.693 147.406 92.6134C147.366 92.5338 147.307 92.4791 147.227 92.4393C147.147 92.4045 147.068 92.3796 146.988 92.3647C146.904 92.3547 146.804 92.3448 146.695 92.3448H145.775Z" fill="black"/>
<path d="M167.441 61.5238C167.406 61.9615 167.252 62.3097 166.973 62.5684C166.694 62.8271 166.336 62.9564 165.899 62.9564C165.396 62.9564 164.993 62.7873 164.695 62.449C164.391 62.1108 164.242 61.6631 164.242 61.101C164.242 60.7627 164.307 60.4593 164.436 60.1807C164.565 59.9021 164.759 59.6783 165.018 59.5092C165.277 59.34 165.58 59.2505 165.928 59.2505C166.301 59.2505 166.63 59.355 166.908 59.5639C167.187 59.7728 167.351 60.0713 167.411 60.4593H166.794C166.749 60.2503 166.65 60.0812 166.495 59.9618C166.336 59.8425 166.147 59.7778 165.918 59.7778C165.68 59.7778 165.481 59.8474 165.317 59.9768C165.152 60.1111 165.038 60.2752 164.968 60.4692C164.899 60.6632 164.869 60.8721 164.869 61.101C164.869 61.2751 164.889 61.4392 164.929 61.5884C164.968 61.7427 165.028 61.8819 165.108 62.0113C165.187 62.1406 165.292 62.2401 165.431 62.3147C165.57 62.3943 165.729 62.4291 165.913 62.4291C166.441 62.4291 166.739 62.1306 166.819 61.5238H167.441Z" fill="black"/>
<path d="M167.25 58.3174V58.4728H167.406V58.3174H167.25ZM163.52 58.3174L165.074 59.2148V57.4199L163.52 58.3174ZM167.25 53.343H167.095V58.3174H167.25H167.406V53.343H167.25ZM167.25 58.3174V58.1619H164.919V58.3174V58.4728H167.25V58.3174Z" fill="black"/>
<path d="M12.1094 95.6248L14.5965 97.0607V94.1888L12.1094 95.6248ZM123.721 95.6248L121.234 94.1888V97.0607L123.721 95.6248ZM14.3478 95.6248V95.8735H121.483V95.6248V95.376H14.3478V95.6248Z" fill="black"/>
<path d="M124.965 95.6248L127.749 96.3311L126.968 93.5672L124.965 95.6248ZM163.516 84.7434L160.732 84.0371L161.512 86.801L163.516 84.7434ZM127.119 95.0167L127.187 95.2561L161.429 85.5908L161.362 85.3515L161.294 85.1121L127.052 94.7773L127.119 95.0167Z" fill="black"/>
</svg>
