<svg width="176" height="136" viewBox="0 0 176 136" fill="none" xmlns="http://www.w3.org/2000/svg">
<path d="M0 16C0 7.16344 7.16344 0 16 0H160C168.837 0 176 7.16344 176 16V120C176 128.837 168.837 136 160 136H16C7.16344 136 0 128.837 0 120V16Z" fill="white"/>
<path d="M16 0.5H160C168.56 0.5 175.5 7.43959 175.5 16V120C175.5 128.56 168.56 135.5 160 135.5H16C7.43959 135.5 0.5 128.56 0.5 120V16C0.5 7.43959 7.43959 0.5 16 0.5Z" stroke="#B02E0C" stroke-opacity="0.16"/>
<path d="M88 31.9004C104.427 31.9004 119.256 36.0636 129.949 42.7471C140.655 49.4385 147.1 58.567 147.1 68.5C147.1 78.433 140.655 87.5615 129.949 94.2529C119.256 100.936 104.427 105.1 88 105.1C71.5732 105.1 56.7443 100.936 46.0508 94.2529C35.3446 87.5615 28.9004 78.433 28.9004 68.5C28.9004 58.567 35.3446 49.4385 46.0508 42.7471C56.7443 36.0636 71.5732 31.9004 88 31.9004Z" fill="#55A2F2" stroke="black" stroke-width="1.8"/>
<path d="M88 68.5V33" stroke="white" stroke-linecap="round" stroke-linejoin="round"/>
<path d="M88 69L31 69" stroke="white" stroke-linecap="round" stroke-linejoin="round"/>
<path d="M95.165 49.87L97.915 57H96.575L95.895 55.11H93.075L92.375 57H91.085L93.835 49.87H95.165ZM95.565 54.17L94.505 51.17L93.395 54.17H95.565Z" fill="white"/>
<path d="M57.2195 71.88H60.4695C61.2095 71.88 61.7795 72.05 62.1795 72.37C62.5795 72.69 62.7795 73.13 62.7795 73.67C62.7795 74.01 62.6795 74.32 62.4995 74.59C62.3095 74.86 62.0595 75.05 61.7595 75.17C62.1695 75.27 62.4995 75.47 62.7395 75.77C62.9795 76.07 63.0995 76.45 63.0995 76.9C63.0995 77.53 62.8895 78.04 62.4695 78.42C62.0495 78.81 61.5095 79 60.8495 79H57.2195V71.88ZM58.4395 72.89V74.85H60.1395C60.6195 74.85 60.9695 74.78 61.1995 74.63C61.4195 74.48 61.5395 74.23 61.5395 73.87C61.5395 73.47 61.4195 73.21 61.1795 73.08C60.9395 72.96 60.6095 72.89 60.1795 72.89H58.4395ZM58.4395 75.75V77.98H60.3095C60.7895 77.98 61.1595 77.9 61.4395 77.74C61.7095 77.58 61.8495 77.29 61.8495 76.87C61.8495 76.64 61.7995 76.45 61.7195 76.29C61.6395 76.13 61.5195 76.02 61.3595 75.94C61.1995 75.87 61.0395 75.82 60.8795 75.79C60.7095 75.77 60.5095 75.75 60.2895 75.75H58.4395Z" fill="white"/>
</svg>
