<svg width="58" height="58" viewBox="0 0 58 58" fill="none" xmlns="http://www.w3.org/2000/svg">
<rect width="58" height="58" rx="14" fill="#F3F3F3"/>
<rect x="0.5" y="0.5" width="57" height="57" rx="13.5" stroke="#B02E0C" stroke-opacity="0.04"/>
<path d="M28.998 13.3838C36.0067 13.3838 42.3339 15.1602 46.8965 18.0117C51.4645 20.8667 54.2148 24.7619 54.2148 29C54.2148 33.2381 51.4645 37.1333 46.8965 39.9883C42.3339 42.8398 36.0067 44.6162 28.998 44.6162C21.9894 44.6161 15.6621 42.8398 11.0996 39.9883C6.53174 37.1333 3.78223 33.238 3.78223 29C3.78223 24.762 6.53174 20.8667 11.0996 18.0117C15.6621 15.1602 21.9894 13.3839 28.998 13.3838Z" fill="#55A2F2" stroke="black" stroke-width="0.768"/>
<path d="M29 29.0002V13.8535" stroke="white" stroke-width="0.426667" stroke-linecap="round" stroke-linejoin="round"/>
<path d="M28.9997 29.2134L4.67969 29.2134" stroke="white" stroke-width="0.426667" stroke-linecap="round" stroke-linejoin="round"/>
<path d="M32.065 21.0643L33.2383 24.1064H32.6666L32.3765 23.3H31.1733L30.8746 24.1064H30.3242L31.4975 21.0643H32.065ZM32.2357 22.899L31.7834 21.619L31.3098 22.899H32.2357Z" fill="white"/>
<path d="M16.1574 30.4553H17.5441C17.8598 30.4553 18.103 30.5278 18.2737 30.6644C18.4443 30.8009 18.5297 30.9886 18.5297 31.219C18.5297 31.3641 18.487 31.4964 18.4102 31.6116C18.3291 31.7268 18.2225 31.8078 18.0945 31.859C18.2694 31.9017 18.4102 31.987 18.5126 32.115C18.615 32.243 18.6662 32.4052 18.6662 32.5972C18.6662 32.866 18.5766 33.0836 18.3974 33.2457C18.2182 33.4121 17.9878 33.4932 17.7062 33.4932H16.1574V30.4553ZM16.6779 30.8862V31.7225H17.4033C17.6081 31.7225 17.7574 31.6926 17.8555 31.6286C17.9494 31.5646 18.0006 31.458 18.0006 31.3044C18.0006 31.1337 17.9494 31.0228 17.847 30.9673C17.7446 30.9161 17.6038 30.8862 17.4203 30.8862H16.6779ZM16.6779 32.1065V33.058H17.4758C17.6806 33.058 17.8385 33.0238 17.9579 32.9556C18.0731 32.8873 18.1329 32.7636 18.1329 32.5844C18.1329 32.4862 18.1115 32.4052 18.0774 32.3369C18.0433 32.2686 17.9921 32.2217 17.9238 32.1876C17.8555 32.1577 17.7873 32.1364 17.719 32.1236C17.6465 32.115 17.5611 32.1065 17.4673 32.1065H16.6779Z" fill="white"/>
</svg>
