<svg width="54" height="54" viewBox="0 0 54 54" fill="none" xmlns="http://www.w3.org/2000/svg">
<rect width="54" height="54" rx="10.8" fill="#B02E0C" fill-opacity="0.1"/>
<rect x="0.405" y="0.405" width="53.19" height="53.19" rx="10.395" stroke="#B02E0C" stroke-opacity="0.1" stroke-width="0.81"/>
<path fill-rule="evenodd" clip-rule="evenodd" d="M23.074 15.1204C22.7452 15.4005 22.5808 15.5406 22.4053 15.6583C22.0028 15.928 21.5509 16.1152 21.0756 16.2091C20.8682 16.25 20.6529 16.2672 20.2223 16.3016C19.1405 16.3879 18.5995 16.4311 18.1482 16.5905C17.1044 16.9591 16.2834 17.7802 15.9147 18.824C15.7553 19.2753 15.7121 19.8162 15.6258 20.8981C15.5914 21.3287 15.5742 21.544 15.5333 21.7513C15.4395 22.2266 15.2523 22.6786 14.9825 23.081C14.8648 23.2566 14.7248 23.421 14.4446 23.7497C13.7406 24.5758 13.3887 24.9888 13.1823 25.4206C12.7049 26.4194 12.7049 27.5806 13.1823 28.5794C13.3887 29.0112 13.7406 29.4242 14.4446 30.2503C14.7247 30.579 14.8649 30.7434 14.9825 30.919C15.2523 31.3214 15.4395 31.7734 15.5333 32.2487C15.5742 32.456 15.5914 32.6713 15.6258 33.1019C15.7121 34.1838 15.7553 34.7247 15.9147 35.176C16.2834 36.2198 17.1044 37.0409 18.1482 37.4095C18.5995 37.5689 19.1405 37.6121 20.2223 37.6984C20.6529 37.7328 20.8682 37.75 21.0756 37.7909C21.5509 37.8848 22.0028 38.072 22.4052 38.3417C22.5808 38.4594 22.7452 38.5995 23.074 38.8796C23.9 39.5836 24.313 39.9356 24.7449 40.142C25.7437 40.6193 26.9048 40.6193 27.9036 40.142C28.3354 39.9356 28.7484 39.5836 29.5745 38.8796C29.9032 38.5995 30.0676 38.4594 30.2432 38.3417C30.6456 38.072 31.0976 37.8848 31.5729 37.7909C31.7802 37.75 31.9955 37.7328 32.4261 37.6984C33.508 37.6121 34.0489 37.5689 34.5002 37.4095C35.544 37.0409 36.3651 36.2198 36.7338 35.176C36.8932 34.7247 36.9363 34.1838 37.0227 33.1019C37.057 32.6713 37.0742 32.456 37.1151 32.2487C37.209 31.7734 37.3962 31.3214 37.6659 30.919C37.7836 30.7434 37.9237 30.579 38.2038 30.2503C38.9078 29.4242 39.2598 29.0112 39.4662 28.5794C39.9436 27.5806 39.9436 26.4194 39.4662 25.4206C39.2598 24.9888 38.9078 24.5758 38.2038 23.7497C37.9237 23.421 37.7836 23.2566 37.6659 23.081C37.3962 22.6786 37.209 22.2266 37.1151 21.7513C37.0742 21.544 37.057 21.3287 37.0227 20.8981C36.9363 19.8162 36.8932 19.2753 36.7338 18.824C36.3651 17.7802 35.544 16.9591 34.5002 16.5905C34.0489 16.4311 33.508 16.3879 32.4261 16.3016C31.9955 16.2672 31.7802 16.25 31.5729 16.2091C31.0976 16.1152 30.6456 15.928 30.2432 15.6583C30.0676 15.5406 29.9032 15.4005 29.5745 15.1204C28.7484 14.4164 28.3354 14.0644 27.9036 13.858C26.9048 13.3807 25.7437 13.3807 24.7449 13.858C24.313 14.0644 23.9 14.4164 23.074 15.1204ZM32.2284 24.1152C32.6575 23.6862 32.6575 22.9905 32.2284 22.5614C31.7994 22.1323 31.1037 22.1323 30.6746 22.5614L24.1268 29.1093L21.9738 26.9563C21.5447 26.5272 20.8491 26.5272 20.42 26.9563C19.9909 27.3853 19.9909 28.081 20.42 28.5101L23.3499 31.44C23.7789 31.869 24.4746 31.869 24.9037 31.44L32.2284 24.1152Z" fill="#B02E0C"/>
</svg>
