<svg width="54" height="54" viewBox="0 0 54 54" fill="none" xmlns="http://www.w3.org/2000/svg">
<rect width="54" height="54" rx="10.8" fill="#B02E0C" fill-opacity="0.1"/>
<rect x="0.405" y="0.405" width="53.19" height="53.19" rx="10.395" stroke="#B02E0C" stroke-opacity="0.1" stroke-width="0.81"/>
<path d="M35.7758 14.8496H32.4008C32.028 14.8496 31.7258 15.1518 31.7258 15.5246V15.6041L36.4508 19.3841V15.5246C36.4508 15.1518 36.1486 14.8496 35.7758 14.8496Z" fill="#B02E0C"/>
<path fill-rule="evenodd" clip-rule="evenodd" d="M25.3133 23.6246C25.3133 22.6926 26.0688 21.9371 27.0008 21.9371C27.9328 21.9371 28.6883 22.6926 28.6883 23.6246C28.6883 24.5566 27.9328 25.3121 27.0008 25.3121C26.0688 25.3121 25.3133 24.5566 25.3133 23.6246Z" fill="#B02E0C"/>
<path fill-rule="evenodd" clip-rule="evenodd" d="M38.8133 25.5962L39.8683 26.4402C40.305 26.7896 40.9421 26.7188 41.2914 26.2821C41.6408 25.8455 41.57 25.2083 41.1333 24.859L30.1633 16.083C28.3144 14.6039 25.6872 14.6039 23.8383 16.083L12.8683 24.859C12.4317 25.2083 12.3609 25.8455 12.7102 26.2821C13.0595 26.7188 13.6967 26.7896 14.1333 26.4402L15.1883 25.5962V39.4871H13.5008C12.9416 39.4871 12.4883 39.9404 12.4883 40.4996C12.4883 41.0588 12.9416 41.5121 13.5008 41.5121H40.5008C41.06 41.5121 41.5133 41.0588 41.5133 40.4996C41.5133 39.9404 41.06 39.4871 40.5008 39.4871H38.8133V25.5962ZM23.2883 23.6246C23.2883 21.5743 24.9505 19.9121 27.0008 19.9121C29.0512 19.9121 30.7133 21.5743 30.7133 23.6246C30.7133 25.675 29.0512 27.3371 27.0008 27.3371C24.9505 27.3371 23.2883 25.675 23.2883 23.6246ZM27.0675 28.6871C27.965 28.6871 28.7384 28.687 29.3577 28.7703C30.0214 28.8595 30.6576 29.0607 31.1737 29.5768C31.6897 30.0928 31.8909 30.729 31.9802 31.3927C32.0582 31.9733 32.0631 32.6893 32.0633 33.5161C32.0633 33.5712 32.0633 33.6269 32.0633 33.683L32.0633 39.4871H30.0383V33.7496C30.0383 32.7664 30.0362 32.1308 29.9732 31.6625C29.9142 31.2234 29.8188 31.0857 29.7418 31.0087C29.6647 30.9316 29.527 30.8363 29.0879 30.7772C28.6196 30.7143 27.984 30.7121 27.0008 30.7121C26.0176 30.7121 25.382 30.7143 24.9138 30.7772C24.4746 30.8363 24.3369 30.9316 24.2599 31.0087C24.1828 31.0857 24.0875 31.2234 24.0284 31.6625C23.9655 32.1308 23.9633 32.7664 23.9633 33.7496V39.4871H21.9383L21.9383 33.683C21.9383 32.7854 21.9382 32.012 22.0215 31.3927C22.1107 30.729 22.3119 30.0928 22.828 29.5768C23.344 29.0607 23.9802 28.8595 24.6439 28.7703C25.2632 28.687 26.0366 28.6871 26.9342 28.6871H27.0675Z" fill="#B02E0C"/>
<path fill-rule="evenodd" clip-rule="evenodd" d="M25.3133 23.6246C25.3133 22.6926 26.0688 21.9371 27.0008 21.9371C27.9328 21.9371 28.6883 22.6926 28.6883 23.6246C28.6883 24.5566 27.9328 25.3121 27.0008 25.3121C26.0688 25.3121 25.3133 24.5566 25.3133 23.6246Z" fill="#B02E0C"/>
</svg>
