<svg width="58" height="58" viewBox="0 0 58 58" fill="none" xmlns="http://www.w3.org/2000/svg">
<circle cx="29" cy="29" r="29" fill="#B02E0C" fill-opacity="0.04"/>
<circle cx="29" cy="29" r="28.5" stroke="#B02E0C" stroke-opacity="0.2"/>
<path fill-rule="evenodd" clip-rule="evenodd" d="M26.8424 20.2003C26.5989 20.4078 26.4771 20.5116 26.3471 20.5987C26.049 20.7985 25.7142 20.9372 25.3621 21.0067C25.2085 21.037 25.049 21.0498 24.7301 21.0752C23.9287 21.1392 23.528 21.1712 23.1937 21.2892C22.4205 21.5623 21.8123 22.1705 21.5392 22.9437C21.4212 23.278 21.3892 23.6787 21.3252 24.4801C21.2998 24.799 21.287 24.9585 21.2567 25.1121C21.1872 25.4642 21.0485 25.799 20.8487 26.0971C20.7616 26.2271 20.6578 26.3489 20.4503 26.5924C19.9288 27.2043 19.6681 27.5102 19.5152 27.8301C19.1616 28.57 19.1616 29.43 19.5152 30.1699C19.6681 30.4898 19.9288 30.7957 20.4503 31.4076C20.6578 31.6511 20.7616 31.7729 20.8487 31.9029C21.0485 32.201 21.1872 32.5358 21.2567 32.8879C21.287 33.0415 21.2998 33.201 21.3252 33.5199C21.3892 34.3213 21.4212 34.722 21.5392 35.0563C21.8123 35.8295 22.4205 36.4377 23.1937 36.7108C23.528 36.8288 23.9287 36.8608 24.7301 36.9248C25.049 36.9502 25.2085 36.963 25.3621 36.9933C25.7142 37.0628 26.049 37.2015 26.3471 37.4013C26.4771 37.4884 26.5989 37.5922 26.8424 37.7997C27.4543 38.3212 27.7602 38.5819 28.0801 38.7348C28.82 39.0884 29.68 39.0884 30.4199 38.7348C30.7398 38.5819 31.0457 38.3212 31.6576 37.7997C31.9011 37.5922 32.0229 37.4884 32.1529 37.4013C32.451 37.2015 32.7858 37.0628 33.1379 36.9933C33.2915 36.963 33.451 36.9502 33.7699 36.9248C34.5713 36.8608 34.972 36.8288 35.3063 36.7108C36.0795 36.4377 36.6877 35.8295 36.9608 35.0563C37.0788 34.722 37.1108 34.3213 37.1748 33.5199C37.2002 33.201 37.213 33.0415 37.2433 32.8879C37.3128 32.5358 37.4515 32.201 37.6513 31.9029C37.7384 31.7729 37.8422 31.6511 38.0497 31.4076C38.5712 30.7957 38.8319 30.4898 38.9848 30.1699C39.3384 29.43 39.3384 28.57 38.9848 27.8301C38.8319 27.5102 38.5712 27.2043 38.0497 26.5924C37.8422 26.3489 37.7384 26.2271 37.6513 26.0971C37.4515 25.799 37.3128 25.4642 37.2433 25.1121C37.213 24.9585 37.2002 24.799 37.1748 24.4801C37.1108 23.6787 37.0788 23.278 36.9608 22.9437C36.6877 22.1705 36.0795 21.5623 35.3063 21.2892C34.972 21.1712 34.5713 21.1392 33.7699 21.0752C33.451 21.0498 33.2915 21.037 33.1379 21.0067C32.7858 20.9372 32.451 20.7985 32.1529 20.5987C32.0229 20.5116 31.9011 20.4078 31.6576 20.2003C31.0457 19.6788 30.7398 19.4181 30.4199 19.2652C29.68 18.9116 28.82 18.9116 28.0801 19.2652C27.7602 19.4181 27.4543 19.6788 26.8424 20.2003ZM33.6235 26.8631C33.9413 26.5453 33.9413 26.03 33.6235 25.7122C33.3057 25.3943 32.7903 25.3943 32.4725 25.7122L27.6223 30.5624L26.0275 28.9676C25.7096 28.6498 25.1943 28.6498 24.8765 28.9676C24.5587 29.2854 24.5587 29.8007 24.8765 30.1186L27.0468 32.2889C27.3646 32.6067 27.8799 32.6067 28.1978 32.2889L33.6235 26.8631Z" fill="#B02E0C"/>
</svg>
