<svg width="54" height="54" viewBox="0 0 54 54" fill="none" xmlns="http://www.w3.org/2000/svg">
<rect width="54" height="54" rx="10.8" fill="#B02E0C" fill-opacity="0.1"/>
<rect x="0.405" y="0.405" width="53.19" height="53.19" rx="10.395" stroke="#B02E0C" stroke-opacity="0.1" stroke-width="0.81"/>
<path d="M25.3117 18.8996H22.2742C19.7286 18.8996 18.4558 18.8996 17.665 19.6904C16.8742 20.4812 16.8742 21.754 16.8742 24.2996L16.8743 32.7371H35.7741L35.7742 24.2996C35.7742 21.754 35.7742 20.4812 34.9834 19.6904C34.1926 18.8996 32.9198 18.8996 30.3742 18.8996H27.3367V25.6126L28.2555 24.5407C28.6194 24.1161 29.2586 24.0669 29.6832 24.4309C30.1077 24.7948 30.1569 25.434 29.793 25.8585L27.093 29.0085C26.9006 29.233 26.6198 29.3621 26.3242 29.3621C26.0287 29.3621 25.7478 29.233 25.5555 29.0085L22.8555 25.8585C22.4916 25.434 22.5407 24.7948 22.9653 24.4309C23.3899 24.0669 24.0291 24.1161 24.393 24.5407L25.3117 25.6126V18.8996Z" fill="#B02E0C"/>
<path d="M16.9155 34.7621H35.7329C35.6637 35.8294 35.4786 36.5136 34.9834 37.0088C34.1926 37.7996 32.9198 37.7996 30.3742 37.7996H22.2742C19.7286 37.7996 18.4558 37.7996 17.665 37.0088C17.1698 36.5136 16.9847 35.8294 16.9155 34.7621Z" fill="#B02E0C"/>
<path d="M18.0742 14.8496H34.5742C37.4737 14.8496 39.8242 17.2796 39.8242 20.2771C39.8242 22.0177 39.0316 23.567 37.7992 24.5602L37.7992 24.1788C37.7993 23.0102 37.7995 21.9388 37.6823 21.0672C37.5532 20.1074 37.2496 19.0929 36.4153 18.2585C35.5809 17.4242 34.5664 17.1206 33.6066 16.9915C32.7351 16.8744 31.6636 16.8745 30.495 16.8746H22.1534C20.9848 16.8745 19.9133 16.8744 19.0417 16.9915C18.0819 17.1206 17.0675 17.4242 16.2331 18.2585C15.3987 19.0929 15.0951 20.1074 14.9661 21.0672C14.8489 21.9388 14.849 23.0102 14.8492 24.1788L14.8492 24.5601C13.6168 23.5669 12.8242 22.0177 12.8242 20.2771C12.8242 17.2796 15.1747 14.8496 18.0742 14.8496Z" fill="#B02E0C"/>
</svg>
