<svg width="36" height="36" viewBox="0 0 36 36" fill="none" xmlns="http://www.w3.org/2000/svg">
<g clip-path="url(#clip0_9029_73717)">
<path d="M32.3182 18.7761C32.5442 18.4513 32.7021 18.0688 32.7247 17.6053C32.8333 15.2778 30.1156 10.9224 25.9614 6.76757C21.8504 2.65666 17.6435 0 15.2229 0C14.4193 0.0111989 13.94 0.329216 13.6811 0.588861C13.6777 0.592236 11.4965 3.29017 11.4965 3.29017C7.42193 3.47127 1.64208 6.35191 1.64208 10.6364C1.64208 11.7774 2.04954 12.7921 2.85478 13.6519C3.07845 13.8914 3.34247 14.1141 3.6275 14.327C3.64016 14.3375 4.31386 14.7769 4.32605 14.7832C6.45169 16.0142 9.30924 16.3637 10.6406 16.3637C12.8871 16.3637 14.5199 16.3029 16.6577 15.492C17.0747 15.3353 17.5588 15.5598 17.7106 15.9674C17.7494 16.0676 17.7678 16.1745 17.7648 16.2819C17.7617 16.3893 17.7374 16.4951 17.6931 16.593C17.6492 16.6913 17.5862 16.7799 17.5077 16.8537C17.4293 16.9275 17.337 16.985 17.2361 17.0228C14.8443 17.9297 12.9941 18 10.6406 18C8.28708 18 4.93509 17.368 2.58317 15.5942C2.23324 15.329 1.73321 15.3889 1.45515 15.734L0.522119 16.8966C0.301593 17.1179 0.0315929 17.5198 0.00282868 18.1742C-0.0898305 20.1493 2.1007 23.6737 5.57895 27.1526C8.96937 30.5435 12.4445 32.7336 14.4304 32.7336H14.48C15.183 32.72 15.6064 32.4396 15.771 32.267L31.8779 19.2664C31.8826 19.2631 32.2782 18.875 32.3182 18.7761ZM4.04378 12.5263C3.52925 11.9737 3.27819 11.3555 3.27819 10.6364C3.27819 7.93225 6.8583 5.78652 10.0161 5.12494L4.04378 12.5263ZM22.1748 10.5549C19.3771 7.75752 17.7857 5.41803 16.9933 3.90795C18.5719 4.73175 20.9573 6.39126 23.6479 9.08152C26.4312 11.866 28.0193 14.2127 28.8085 15.7261C27.2379 14.9022 24.8621 13.2435 22.1748 10.5549ZM32.5819 24.8986C32.2783 24.456 31.54 24.456 31.2363 24.8986C30.6658 25.7248 27.8181 29.9459 27.8181 31.9091C27.8181 34.1647 29.6527 36 31.909 36C34.1654 36 35.9999 34.1647 35.9999 31.9091C36 29.9459 33.1523 25.7248 32.5819 24.8986Z" fill="#B02E0C"/>
</g>
<defs>
<clipPath id="clip0_9029_73717">
<rect width="36" height="36" fill="white"/>
</clipPath>
</defs>
</svg>
