<svg width="176" height="136" viewBox="0 0 176 136" fill="none" xmlns="http://www.w3.org/2000/svg">
<path d="M0 16C0 7.16344 7.16344 0 16 0H160C168.837 0 176 7.16344 176 16V120C176 128.837 168.837 136 160 136H16C7.16344 136 0 128.837 0 120V16Z" fill="white"/>
<path d="M16 0.5H160C168.56 0.5 175.5 7.43959 175.5 16V120C175.5 128.56 168.56 135.5 160 135.5H16C7.43959 135.5 0.5 128.56 0.5 120V16C0.5 7.43959 7.43959 0.5 16 0.5Z" stroke="#B02E0C" stroke-opacity="0.16"/>
<path d="M103.284 28.5999H56V117.655H103.284V28.5999Z" stroke="black" stroke-width="0.424074"/>
<path d="M120.668 11.2131L103.281 28.6002V117.656L120.668 101.117V11.2131Z" stroke="black" stroke-width="0.424074"/>
<path d="M73.175 11.0005L56 28.5996H103.284L120.781 11.0005H73.175Z" stroke="black" stroke-width="0.424074"/>
<path d="M103.284 76.7322H56V117.655H103.284V76.7322Z" fill="#55A2F2" stroke="black" stroke-width="0.424074"/>
<path d="M120.668 62.5256L103.281 76.7321V117.655L120.668 101.116V62.5256Z" fill="#55A2F2" stroke="black" stroke-width="0.424074"/>
<path d="M54 122L57 123.732L57 120.268L54 122ZM104 122L101 120.268L101 123.732L104 122ZM56.7 122L56.7 122.3L101.3 122.3L101.3 122L101.3 121.7L56.7 121.7L56.7 122Z" fill="black"/>
<path d="M70.496 129.136V130H66.592V124.304H67.6V129.136H70.496ZM74.7698 128.712C74.6658 129.16 74.4418 129.512 74.1058 129.76C73.7698 130.016 73.3618 130.136 72.8978 130.136C72.2738 130.136 71.7778 129.936 71.4098 129.536C71.0418 129.136 70.8658 128.616 70.8658 127.984C70.8658 127.344 71.0498 126.808 71.4258 126.384C71.8018 125.968 72.2818 125.752 72.8658 125.752C73.4658 125.752 73.9458 125.96 74.2978 126.376C74.6498 126.792 74.8258 127.352 74.8258 128.064V128.16H71.7778C71.7858 128.576 71.8898 128.904 72.0898 129.128C72.2818 129.352 72.5618 129.464 72.9138 129.464C73.1618 129.464 73.3618 129.408 73.5218 129.288C73.6818 129.168 73.8018 128.976 73.8978 128.712H74.7698ZM73.9138 127.552C73.8818 127.208 73.7778 126.936 73.5858 126.736C73.3938 126.536 73.1538 126.432 72.8578 126.432C72.5538 126.432 72.3138 126.528 72.1298 126.72C71.9458 126.912 71.8338 127.192 71.7938 127.552H73.9138ZM76.3911 125.872V126.48C76.7191 126 77.1751 125.76 77.7591 125.76C78.2231 125.76 78.5751 125.888 78.8071 126.144C79.0391 126.4 79.1591 126.768 79.1591 127.248V130H78.2471V127.6C78.2471 127.44 78.2391 127.304 78.2231 127.192C78.2071 127.08 78.1671 126.968 78.1191 126.856C78.0711 126.744 77.9911 126.664 77.8791 126.608C77.7671 126.552 77.6231 126.52 77.4471 126.52C76.7751 126.52 76.4391 126.944 76.4391 127.776V130H75.5271V125.872H76.3911ZM83.8968 125.872V129.52C83.8968 130.232 83.7448 130.76 83.4408 131.096C83.1368 131.44 82.6328 131.608 81.9128 131.608C80.7768 131.608 80.1608 131.192 80.0648 130.352H80.9768C81.0568 130.768 81.3768 130.968 81.9368 130.968C82.3128 130.968 82.5848 130.872 82.7608 130.68C82.9368 130.488 83.0248 130.184 83.0248 129.752V129.264C82.7208 129.728 82.2888 129.96 81.7128 129.96C81.1608 129.96 80.7208 129.776 80.4008 129.408C80.0808 129.04 79.9208 128.536 79.9208 127.904C79.9208 127.264 80.0888 126.744 80.4248 126.352C80.7608 125.96 81.2008 125.76 81.7608 125.76C82.0488 125.76 82.2968 125.816 82.4968 125.928C82.6888 126.04 82.8728 126.208 83.0488 126.448V125.872H83.8968ZM81.9208 126.496C81.5768 126.496 81.3048 126.624 81.1128 126.864C80.9208 127.112 80.8248 127.456 80.8248 127.888C80.8248 128.304 80.9208 128.64 81.1208 128.88C81.3208 129.128 81.5848 129.248 81.9208 129.248C82.2568 129.248 82.5288 129.128 82.7288 128.872C82.9208 128.616 83.0248 128.272 83.0248 127.84C83.0248 127.424 82.9208 127.096 82.7288 126.856C82.5368 126.616 82.2648 126.496 81.9208 126.496ZM86.871 125.872V126.536H86.039V128.712C86.039 128.84 86.039 128.936 86.047 128.984C86.047 129.032 86.063 129.088 86.095 129.152C86.119 129.216 86.167 129.256 86.231 129.272C86.295 129.296 86.391 129.304 86.511 129.304C86.655 129.304 86.775 129.304 86.871 129.288V130.008C86.687 130.032 86.479 130.04 86.255 130.04C86.095 130.04 85.951 130.032 85.831 130.008C85.711 129.984 85.615 129.952 85.535 129.92C85.455 129.888 85.383 129.84 85.335 129.76C85.279 129.68 85.239 129.616 85.207 129.568C85.175 129.52 85.159 129.424 85.143 129.296C85.127 129.168 85.127 129.072 85.127 129.008V128.656V128.608V128.56V128.504V126.536H84.439V125.872H85.127V124.632H86.039V125.872H86.871ZM88.4311 124.304V126.44C88.7351 125.992 89.1671 125.768 89.7351 125.768C90.1831 125.768 90.5271 125.896 90.7831 126.136C91.0311 126.376 91.1591 126.736 91.1591 127.2V130H90.2391V127.496C90.2391 127.184 90.1831 126.944 90.0711 126.776C89.9591 126.616 89.7511 126.528 89.4391 126.528C89.0871 126.528 88.8311 126.648 88.6711 126.872C88.5111 127.104 88.4311 127.408 88.4311 127.784V130H87.5271V124.304H88.4311Z" fill="black"/>
<path d="M109.26 123.725L109.979 123.007L113.78 125.338L111.54 121.446L112.258 120.727L116.122 122.996L113.814 119.172L114.532 118.453L117.446 123.595L116.727 124.314L112.818 122.034L115.081 125.96L114.351 126.69L109.26 123.725ZM115.541 117.41L116.175 118.044L115.53 118.689L114.896 118.055L115.541 117.41ZM116.667 118.536L119.586 121.455L118.941 122.1L116.022 119.181L116.667 118.536ZM119.027 113.959L123.055 117.986L122.449 118.592L122.048 118.19C122.184 118.699 122.031 119.169 121.595 119.604C121.182 120.017 120.718 120.209 120.192 120.17C119.672 120.136 119.18 119.881 118.705 119.406C118.241 118.942 117.986 118.45 117.947 117.935C117.907 117.421 118.088 116.957 118.495 116.549C118.903 116.142 119.366 115.984 119.881 116.08L118.393 114.592L119.027 113.959ZM119.135 116.951C118.886 117.2 118.784 117.483 118.823 117.805C118.863 118.128 119.038 118.439 119.344 118.744C119.666 119.067 119.989 119.253 120.317 119.287C120.651 119.327 120.939 119.219 121.194 118.965C121.443 118.716 121.55 118.427 121.51 118.105C121.471 117.783 121.295 117.46 120.973 117.138C120.656 116.821 120.334 116.646 120.006 116.612C119.683 116.583 119.395 116.691 119.135 116.951ZM122.253 112.95L122.723 113.419L122.135 114.008L123.673 115.546C123.764 115.637 123.832 115.705 123.871 115.733C123.905 115.767 123.956 115.795 124.024 115.818C124.086 115.846 124.148 115.84 124.205 115.806C124.267 115.778 124.341 115.716 124.426 115.631C124.527 115.529 124.612 115.444 124.669 115.365L125.178 115.874C125.065 116.021 124.923 116.174 124.765 116.333C124.652 116.446 124.544 116.542 124.443 116.61C124.341 116.678 124.25 116.723 124.171 116.757C124.092 116.791 124.007 116.808 123.916 116.785C123.82 116.768 123.747 116.751 123.69 116.74C123.634 116.729 123.554 116.672 123.453 116.593C123.351 116.514 123.283 116.446 123.238 116.4L122.989 116.152L122.955 116.118L122.921 116.084L122.881 116.044L121.49 114.652L121.003 115.139L120.534 114.669L121.02 114.183L120.143 113.306L120.788 112.661L121.665 113.538L122.253 112.95ZM122.248 110.738L123.758 112.248C123.656 111.717 123.803 111.253 124.205 110.851C124.522 110.534 124.855 110.382 125.206 110.37C125.551 110.365 125.896 110.529 126.224 110.857L128.204 112.837L127.554 113.487L125.783 111.717C125.563 111.496 125.353 111.366 125.155 111.326C124.963 111.292 124.754 111.377 124.533 111.598C124.284 111.847 124.188 112.113 124.233 112.384C124.284 112.661 124.443 112.933 124.708 113.199L126.275 114.766L125.636 115.405L121.608 111.377L122.248 110.738Z" fill="black"/>
<path d="M42.304 79.808L48 79.808L48 80.808L45.44 80.808L45.44 83.416L48 83.416L48 84.416L42.304 84.416L42.304 83.416L44.568 83.416L44.568 80.808L42.304 80.808L42.304 79.808ZM46.712 75.0506C47.16 75.1546 47.512 75.3786 47.76 75.7146C48.016 76.0506 48.136 76.4586 48.136 76.9226C48.136 77.5466 47.936 78.0426 47.536 78.4106C47.136 78.7786 46.616 78.9546 45.984 78.9546C45.344 78.9546 44.808 78.7706 44.384 78.3946C43.968 78.0186 43.752 77.5386 43.752 76.9546C43.752 76.3546 43.96 75.8746 44.376 75.5226C44.792 75.1706 45.352 74.9946 46.064 74.9946L46.16 74.9946L46.16 78.0426C46.576 78.0346 46.904 77.9306 47.128 77.7306C47.352 77.5386 47.464 77.2586 47.464 76.9066C47.464 76.6586 47.408 76.4586 47.288 76.2986C47.168 76.1386 46.976 76.0186 46.712 75.9226L46.712 75.0506ZM45.552 75.9066C45.208 75.9386 44.936 76.0426 44.736 76.2346C44.536 76.4266 44.432 76.6666 44.432 76.9626C44.432 77.2666 44.528 77.5066 44.72 77.6906C44.912 77.8746 45.192 77.9866 45.552 78.0266L45.552 75.9066ZM42.28 73.3652L43.176 73.3652L43.176 74.2772L42.28 74.2772L42.28 73.3652ZM43.872 73.3652L48 73.3652L48 74.2772L43.872 74.2772L43.872 73.3652ZM43.872 68.5876L47.52 68.5876C48.232 68.5876 48.76 68.7396 49.096 69.0436C49.44 69.3476 49.608 69.8516 49.608 70.5716C49.608 71.7076 49.192 72.3236 48.352 72.4196L48.352 71.5076C48.768 71.4276 48.968 71.1076 48.968 70.5476C48.968 70.1716 48.872 69.8996 48.68 69.7236C48.488 69.5476 48.184 69.4596 47.752 69.4596L47.264 69.4596C47.728 69.7636 47.96 70.1956 47.96 70.7716C47.96 71.3236 47.776 71.7636 47.408 72.0836C47.04 72.4036 46.536 72.5636 45.904 72.5636C45.264 72.5636 44.744 72.3956 44.352 72.0596C43.96 71.7236 43.76 71.2836 43.76 70.7236C43.76 70.4356 43.816 70.1876 43.928 69.9876C44.04 69.7956 44.208 69.6116 44.448 69.4356L43.872 69.4356L43.872 68.5876ZM44.496 70.5636C44.496 70.9076 44.624 71.1796 44.864 71.3716C45.112 71.5636 45.456 71.6596 45.888 71.6596C46.304 71.6596 46.64 71.5636 46.88 71.3636C47.128 71.1636 47.248 70.8996 47.248 70.5636C47.248 70.2276 47.128 69.9556 46.872 69.7556C46.616 69.5636 46.272 69.4596 45.84 69.4596C45.424 69.4596 45.096 69.5636 44.856 69.7556C44.616 69.9476 44.496 70.2196 44.496 70.5636ZM42.304 66.7174L44.44 66.7174C43.992 66.4134 43.768 65.9814 43.768 65.4134C43.768 64.9654 43.896 64.6214 44.136 64.3654C44.376 64.1174 44.736 63.9894 45.2 63.9894L48 63.9894L48 64.9094L45.496 64.9094C45.184 64.9094 44.944 64.9654 44.776 65.0774C44.616 65.1894 44.528 65.3974 44.528 65.7094C44.528 66.0614 44.648 66.3174 44.872 66.4774C45.104 66.6374 45.408 66.7174 45.784 66.7174L48 66.7174L48 67.6214L42.304 67.6214L42.304 66.7174ZM43.872 61.0196L44.536 61.0196L44.536 61.8516L46.712 61.8516C46.84 61.8516 46.936 61.8516 46.984 61.8436C47.032 61.8436 47.088 61.8276 47.152 61.7956C47.216 61.7716 47.256 61.7236 47.272 61.6596C47.296 61.5956 47.304 61.4996 47.304 61.3796C47.304 61.2356 47.304 61.1156 47.288 61.0196L48.008 61.0196C48.032 61.2036 48.04 61.4116 48.04 61.6356C48.04 61.7956 48.032 61.9396 48.008 62.0596C47.984 62.1796 47.952 62.2756 47.92 62.3556C47.888 62.4356 47.84 62.5076 47.76 62.5556C47.68 62.6116 47.616 62.6516 47.568 62.6836C47.52 62.7156 47.424 62.7316 47.296 62.7476C47.168 62.7636 47.072 62.7636 47.008 62.7636L46.656 62.7636L46.608 62.7636L46.56 62.7636L46.504 62.7636L44.536 62.7636L44.536 63.4516L43.872 63.4516L43.872 62.7636L42.632 62.7636L42.632 61.8516L43.872 61.8516L43.872 61.0196Z" fill="black"/>
<path d="M131.304 102.936L131.304 101.92L135.64 100.88L131.304 99.712L131.304 98.696L135.64 97.568L131.304 96.496L131.304 95.48L137 97.056L137 98.072L132.624 99.224L137 100.4L137 101.432L131.304 102.936ZM134.144 95.3022C133.216 95.2062 132.744 94.6062 132.744 93.4942C132.744 92.9822 132.848 92.5662 133.048 92.2622C133.256 91.9582 133.568 91.7982 133.992 91.7982L136.088 91.7982C136.208 91.7982 136.288 91.7902 136.328 91.7582C136.376 91.7262 136.392 91.6702 136.392 91.5822C136.392 91.5182 136.392 91.4542 136.376 91.3742L137.016 91.3742C137.08 91.6142 137.104 91.8062 137.104 91.9662C137.104 92.3582 136.944 92.5822 136.608 92.6382C136.944 92.9902 137.104 93.4702 137.104 94.0862C137.104 94.5182 137 94.8542 136.776 95.1022C136.552 95.3582 136.256 95.4782 135.872 95.4782C135.76 95.4782 135.648 95.4702 135.544 95.4382C135.448 95.4142 135.36 95.3822 135.28 95.3502C135.208 95.3182 135.136 95.2622 135.072 95.1822C135.008 95.1022 134.96 95.0382 134.912 94.9902C134.872 94.9422 134.832 94.8542 134.792 94.7422C134.76 94.6302 134.728 94.5422 134.712 94.4862C134.696 94.4302 134.672 94.3342 134.648 94.1902C134.632 94.0542 134.616 93.9662 134.608 93.9182C134.6 93.8702 134.584 93.7742 134.568 93.6302C134.528 93.3102 134.496 93.0862 134.464 92.9662C134.432 92.8542 134.392 92.7742 134.328 92.7262C134.288 92.6942 134.192 92.6702 134.032 92.6702C133.616 92.6702 133.408 92.9582 133.408 93.5182C133.408 93.8222 133.464 94.0382 133.576 94.1742C133.688 94.3182 133.88 94.4062 134.144 94.4382L134.144 95.3022ZM134.928 92.6782C134.968 92.7502 135 92.8302 135.032 92.9182C135.064 93.0142 135.08 93.0862 135.088 93.1422C135.096 93.1982 135.104 93.2862 135.12 93.4062C135.136 93.5262 135.152 93.6062 135.152 93.6382C135.168 93.7502 135.184 93.8382 135.2 93.9022C135.216 93.9662 135.232 94.0462 135.264 94.1422C135.296 94.2382 135.336 94.3102 135.384 94.3582C135.432 94.4062 135.488 94.4542 135.568 94.4862C135.648 94.5262 135.736 94.5422 135.84 94.5422C136.04 94.5422 136.192 94.4782 136.296 94.3502C136.408 94.2222 136.456 94.0382 136.456 93.7982C136.456 93.3982 136.352 93.0862 136.128 92.8622C136.008 92.7422 135.768 92.6782 135.416 92.6782L134.928 92.6782ZM132.872 88.8009L133.536 88.8009L133.536 89.6329L135.712 89.6329C135.84 89.6329 135.936 89.6329 135.984 89.6249C136.032 89.6249 136.088 89.6089 136.152 89.5769C136.216 89.5529 136.256 89.5049 136.272 89.4409C136.296 89.3769 136.304 89.2809 136.304 89.1609C136.304 89.0169 136.304 88.8969 136.288 88.8009L137.008 88.8009C137.032 88.9849 137.04 89.1929 137.04 89.4169C137.04 89.5769 137.032 89.7209 137.008 89.8409C136.984 89.9609 136.952 90.0569 136.92 90.1369C136.888 90.2169 136.84 90.2889 136.76 90.3369C136.68 90.3929 136.616 90.4329 136.568 90.4649C136.52 90.4969 136.424 90.5129 136.296 90.5289C136.168 90.5449 136.072 90.5449 136.008 90.5449L135.656 90.5449L135.608 90.5449L135.56 90.5449L135.504 90.5449L133.536 90.5449L133.536 91.2329L132.872 91.2329L132.872 90.5449L131.632 90.5449L131.632 89.6329L132.872 89.6329L132.872 88.8009ZM135.712 84.4568C136.16 84.5608 136.512 84.7848 136.76 85.1208C137.016 85.4568 137.136 85.8648 137.136 86.3288C137.136 86.9528 136.936 87.4488 136.536 87.8168C136.136 88.1848 135.616 88.3608 134.984 88.3608C134.344 88.3608 133.808 88.1768 133.384 87.8008C132.968 87.4248 132.752 86.9448 132.752 86.3608C132.752 85.7608 132.96 85.2808 133.376 84.9288C133.792 84.5768 134.352 84.4008 135.064 84.4008L135.16 84.4008L135.16 87.4488C135.576 87.4408 135.904 87.3368 136.128 87.1368C136.352 86.9448 136.464 86.6648 136.464 86.3128C136.464 86.0648 136.408 85.8648 136.288 85.7048C136.168 85.5448 135.976 85.4248 135.712 85.3288L135.712 84.4568ZM134.552 85.3128C134.208 85.3448 133.936 85.4488 133.736 85.6408C133.536 85.8328 133.432 86.0728 133.432 86.3688C133.432 86.6728 133.528 86.9128 133.72 87.0968C133.912 87.2808 134.192 87.3928 134.552 87.4328L134.552 85.3128ZM132.792 81.3715L133.664 81.3715C133.648 81.5315 133.64 81.6435 133.64 81.6915C133.64 82.4915 134.16 82.8835 135.184 82.8835L137 82.8835L137 83.7875L132.872 83.7875L132.872 82.9315L133.696 82.9315C133.088 82.6435 132.776 82.1795 132.776 81.5475L132.792 81.3715ZM136.136 74.6524L137 74.6524L137 78.5564L131.304 78.5564L131.304 77.5484L136.136 77.5484L136.136 74.6524ZM135.712 70.3787C136.16 70.4827 136.512 70.7067 136.76 71.0427C137.016 71.3787 137.136 71.7867 137.136 72.2507C137.136 72.8747 136.936 73.3707 136.536 73.7387C136.136 74.1067 135.616 74.2827 134.984 74.2827C134.344 74.2827 133.808 74.0987 133.384 73.7227C132.968 73.3467 132.752 72.8667 132.752 72.2827C132.752 71.6827 132.96 71.2027 133.376 70.8507C133.792 70.4987 134.352 70.3227 135.064 70.3227L135.16 70.3227L135.16 73.3707C135.576 73.3627 135.904 73.2587 136.128 73.0587C136.352 72.8667 136.464 72.5867 136.464 72.2347C136.464 71.9867 136.408 71.7867 136.288 71.6267C136.168 71.4667 135.976 71.3467 135.712 71.2507L135.712 70.3787ZM134.552 71.2347C134.208 71.2667 133.936 71.3707 133.736 71.5627C133.536 71.7547 133.432 71.9947 133.432 72.2907C133.432 72.5947 133.528 72.8347 133.72 73.0187C133.912 73.2027 134.192 73.3147 134.552 73.3547L134.552 71.2347ZM132.872 70.0454L132.872 69.0534L136.048 67.9974L132.872 66.9814L132.872 66.0374L137.008 67.5174L137.008 68.5414L132.872 70.0454ZM135.712 61.7849C136.16 61.8889 136.512 62.1129 136.76 62.4489C137.016 62.7849 137.136 63.1929 137.136 63.6569C137.136 64.2809 136.936 64.7769 136.536 65.1449C136.136 65.5129 135.616 65.6889 134.984 65.6889C134.344 65.6889 133.808 65.5049 133.384 65.1289C132.968 64.7529 132.752 64.2729 132.752 63.6889C132.752 63.0889 132.96 62.6089 133.376 62.2569C133.792 61.9049 134.352 61.7289 135.064 61.7289L135.16 61.7289L135.16 64.7769C135.576 64.7689 135.904 64.6649 136.128 64.4649C136.352 64.2729 136.464 63.9929 136.464 63.6409C136.464 63.3929 136.408 63.1929 136.288 63.0329C136.168 62.8729 135.976 62.7529 135.712 62.6569L135.712 61.7849ZM134.552 62.6409C134.208 62.6729 133.936 62.7769 133.736 62.9689C133.536 63.1609 133.432 63.4009 133.432 63.6969C133.432 64.0009 133.528 64.2409 133.72 64.4249C133.912 64.6089 134.192 64.7209 134.552 64.7609L134.552 62.6409ZM131.304 60.0996L137 60.0996L137 61.0036L131.304 61.0036L131.304 60.0996Z" fill="black"/>
<path d="M126 62L124.268 65H127.732L126 62ZM126 101L127.732 98H124.268L126 101ZM126 64.7H125.7V98.3H126H126.3V64.7H126Z" fill="black"/>
<path d="M105 122L108.359 121.152L105.945 118.667L105 122ZM122.5 105L119.141 105.848L121.555 108.333L122.5 105ZM106.937 120.119L107.146 120.334L120.772 107.097L120.563 106.881L120.354 106.666L106.728 119.903L106.937 120.119Z" fill="black"/>
<path d="M50.5 29L48.7679 32H52.2321L50.5 29ZM50.5 118L52.2321 115H48.7679L50.5 118ZM50.5 31.7H50.2V115.3H50.5H50.8V31.7H50.5Z" fill="black"/>
</svg>
