<svg width="58" height="58" viewBox="0 0 58 58" fill="none" xmlns="http://www.w3.org/2000/svg">
<rect width="58" height="58" rx="14" fill="#F3F3F3"/>
<rect x="0.5" y="0.5" width="57" height="57" rx="13.5" stroke="#B02E0C" stroke-opacity="0.04"/>
<path d="M29.6533 5.09326C33.8559 5.09326 37.6566 5.69323 40.4033 6.65967C41.7769 7.14296 42.8818 7.71623 43.6416 8.34814C44.4018 8.98051 44.8065 9.66225 44.8066 10.3638C44.8066 11.0654 44.4019 11.7479 43.6416 12.3804C42.8818 13.0123 41.7769 13.5856 40.4033 14.0688C37.6566 15.0353 33.8559 15.6353 29.6533 15.6353C25.4507 15.6353 21.65 15.0353 18.9033 14.0688C17.5298 13.5856 16.4248 13.0123 15.665 12.3804C14.9047 11.7479 14.5 11.0654 14.5 10.3638C14.5002 9.66225 14.9049 8.98051 15.665 8.34814C16.4248 7.71623 17.5297 7.14296 18.9033 6.65967C21.65 5.69323 25.4507 5.09326 29.6533 5.09326Z" stroke="black" stroke-width="0.188235"/>
<path d="M30.2119 42.2739V42.3677C30.336 42.3693 30.4597 42.3709 30.583 42.3735L30.584 42.2798C30.7088 42.2824 30.8331 42.2868 30.957 42.2905L30.9551 42.3833C31.0792 42.387 31.2029 42.3913 31.3262 42.396L31.3291 42.3022C31.4536 42.307 31.5776 42.313 31.7012 42.3188L31.6982 42.4116C31.8221 42.4175 31.9455 42.4243 32.0684 42.4312L32.0732 42.3374C32.1978 42.3444 32.3218 42.3528 32.4453 42.3608L32.4404 42.4536C32.5642 42.4617 32.6878 42.4709 32.8105 42.48L32.8164 42.3862C32.941 42.3955 33.065 42.4062 33.1885 42.4165L33.1816 42.5093C33.3053 42.5196 33.4283 42.5301 33.5508 42.5415L33.5586 42.4478C33.6829 42.4593 33.8066 42.4722 33.9297 42.4849L33.9219 42.5776C34.0453 42.5903 34.168 42.6039 34.29 42.6177L34.2998 42.5239C34.4239 42.5379 34.5472 42.5528 34.6699 42.5679L34.6602 42.6606C34.7836 42.6758 34.9064 42.6913 35.0283 42.7075L35.0391 42.6147C35.1632 42.6312 35.2866 42.6489 35.4092 42.6665L35.3965 42.7583C35.5197 42.776 35.6421 42.7942 35.7637 42.813L35.7773 42.7212C35.9006 42.7402 36.023 42.7596 36.1445 42.7798L36.1299 42.8726C36.2531 42.893 36.3757 42.9135 36.4971 42.9351L36.5127 42.8433C36.6354 42.865 36.7572 42.8868 36.8779 42.9097L36.8613 43.0015C36.9841 43.0248 37.1058 43.0493 37.2266 43.0737L37.2441 42.9819C37.3663 43.0066 37.4875 43.0313 37.6074 43.0571L37.5889 43.1489C37.7111 43.1753 37.8322 43.2025 37.9521 43.23L37.9727 43.1392C38.0947 43.1672 38.2154 43.1959 38.335 43.2251L38.3135 43.3159C38.4345 43.3455 38.5544 43.375 38.6729 43.4058L38.6953 43.3149C38.8172 43.3466 38.9375 43.3797 39.0566 43.4126L39.0322 43.5024C39.1522 43.5356 39.2707 43.5697 39.3877 43.604L39.4131 43.5132C39.5339 43.5486 39.6529 43.5858 39.7705 43.6226L39.7432 43.7114C39.8626 43.7487 39.9806 43.7871 40.0967 43.8257L40.126 43.7368C40.2446 43.7763 40.3616 43.8162 40.4766 43.8569L40.4463 43.9448C40.5645 43.9867 40.6807 44.0295 40.7949 44.0728L40.8271 43.9858C40.9453 44.0306 41.061 44.0764 41.1748 44.1226L41.1406 44.2085C41.2562 44.2554 41.3696 44.3028 41.4805 44.3511L41.5176 44.2661C41.6327 44.3162 41.7454 44.3669 41.8555 44.4185L41.8164 44.5034C41.9305 44.5569 42.0421 44.6106 42.1504 44.6655L42.1914 44.5825C42.3045 44.6399 42.4137 44.6993 42.5205 44.7583L42.4766 44.8394C42.5863 44.9 42.6932 44.9608 42.7959 45.0229L42.8428 44.9448C42.9514 45.0106 43.0564 45.0766 43.1572 45.144L43.1064 45.2212C43.2107 45.291 43.3109 45.3617 43.4062 45.4331L43.4609 45.3589C43.5629 45.4353 43.6601 45.512 43.752 45.5903L43.6924 45.6616C43.7879 45.7431 43.8781 45.8255 43.9619 45.9087L44.0254 45.8433C44.1163 45.9335 44.2019 46.0234 44.2793 46.1157L44.208 46.1763C44.2882 46.272 44.3614 46.368 44.4258 46.4653L44.5029 46.4136C44.5734 46.5201 44.6344 46.628 44.6865 46.7368L44.6025 46.7778C44.6551 46.8877 44.6982 46.9985 44.7305 47.1099L44.8203 47.0835C44.8553 47.2041 44.8777 47.3259 44.8896 47.4487L44.7979 47.4575C44.8035 47.5162 44.8066 47.5752 44.8066 47.6343C44.8066 47.6935 44.8035 47.7532 44.7979 47.812L44.8896 47.8198C44.8778 47.943 44.8554 48.0651 44.8203 48.186L44.7305 48.1597C44.6982 48.271 44.6551 48.3818 44.6025 48.4917L44.6865 48.5317C44.6344 48.6406 44.5734 48.7484 44.5029 48.855L44.4248 48.8042C44.3605 48.9013 44.288 48.9977 44.208 49.0933L44.2793 49.1528C44.2019 49.2452 44.1163 49.335 44.0254 49.4253L43.9619 49.3608C43.8781 49.444 43.7879 49.5264 43.6924 49.6079L43.752 49.6782C43.6601 49.7565 43.5629 49.8333 43.4609 49.9097L43.4062 49.8364C43.3109 49.9079 43.2107 49.9785 43.1064 50.0483L43.1572 50.1245C43.0564 50.192 42.9514 50.258 42.8428 50.3237L42.7959 50.2456C42.693 50.3079 42.5865 50.3695 42.4766 50.4302L42.5205 50.5103C42.4137 50.5692 42.3045 50.6286 42.1914 50.686L42.1504 50.604C42.0421 50.659 41.9305 50.7126 41.8164 50.7661L41.8555 50.8501C41.7454 50.9017 41.6327 50.9523 41.5176 51.0024L41.4805 50.9185C41.3696 50.9667 41.2562 51.0141 41.1406 51.061L41.1748 51.146C41.061 51.1921 40.9453 51.238 40.8271 51.2827L40.7949 51.1968C40.6807 51.24 40.5645 51.2828 40.4463 51.3247L40.4766 51.4116C40.3616 51.4524 40.2446 51.4923 40.126 51.5317L40.0967 51.4438C39.9807 51.4824 39.8626 51.5208 39.7432 51.5581L39.7705 51.646C39.6529 51.6827 39.5339 51.719 39.4131 51.7544L39.3877 51.6655C39.2707 51.6999 39.1522 51.734 39.0322 51.7671L39.0566 51.855C38.9374 51.8879 38.8173 51.9219 38.6953 51.9536L38.6729 51.8638C38.5544 51.8945 38.4345 51.9241 38.3135 51.9536L38.335 52.0435C38.2154 52.0726 38.0947 52.1014 37.9727 52.1294L37.9521 52.0396C37.8322 52.0671 37.7111 52.0942 37.5889 52.1206L37.6074 52.2114C37.4875 52.2373 37.3663 52.2619 37.2441 52.2866L37.2266 52.1958C37.1058 52.2202 36.9841 52.2448 36.8613 52.2681L36.8779 52.3589C36.7572 52.3818 36.6354 52.4035 36.5127 52.4253L36.4971 52.3345C36.3757 52.356 36.2531 52.3765 36.1299 52.397L36.1445 52.4888C36.023 52.5089 35.9006 52.5283 35.7773 52.5474L35.7637 52.4556C35.6421 52.4744 35.5197 52.4935 35.3965 52.5112L35.4092 52.6021C35.2866 52.6197 35.1632 52.6373 35.0391 52.6538L35.0283 52.562C34.9064 52.5782 34.7836 52.5938 34.6602 52.6089L34.6699 52.7007C34.5472 52.7157 34.4239 52.7307 34.2998 52.7446L34.29 52.6519C34.168 52.6656 34.0453 52.6792 33.9219 52.6919L33.9297 52.7837C33.8066 52.7963 33.683 52.8092 33.5586 52.8208L33.5508 52.728C33.4283 52.7394 33.3053 52.7499 33.1816 52.7603L33.1885 52.8521C33.065 52.8624 32.941 52.8731 32.8164 52.8823L32.8105 52.7896C32.6878 52.7987 32.5642 52.8079 32.4404 52.8159L32.4453 52.9077C32.3218 52.9158 32.1978 52.9242 32.0732 52.9312L32.0684 52.8384C31.9455 52.8453 31.8221 52.8511 31.6982 52.8569L31.7012 52.9497C31.5776 52.9555 31.4536 52.9615 31.3291 52.9663L31.3262 52.8735C31.2029 52.8783 31.0792 52.8825 30.9551 52.8862L30.957 52.978C30.8331 52.9817 30.7088 52.9861 30.584 52.9888L30.583 52.895C30.4597 52.8976 30.336 52.9003 30.2119 52.9019V52.9946C30.0883 52.9962 29.9642 52.997 29.8398 52.9976V52.9048C29.7778 52.905 29.7156 52.9058 29.6533 52.9058C29.5911 52.9058 29.5289 52.905 29.4668 52.9048L29.4658 52.9976C29.3414 52.997 29.2174 52.9962 29.0938 52.9946L29.0947 52.9019C28.9706 52.9003 28.8469 52.8976 28.7236 52.895L28.7217 52.9888C28.5969 52.9861 28.4726 52.9817 28.3486 52.978L28.3516 52.8862C28.2275 52.8825 28.1037 52.8783 27.9805 52.8735L27.9766 52.9663C27.8521 52.9615 27.7281 52.9555 27.6045 52.9497L27.6084 52.8569C27.4846 52.8511 27.3612 52.8453 27.2383 52.8384L27.2324 52.9312C27.1079 52.9242 26.9839 52.9158 26.8604 52.9077L26.8662 52.8159C26.7424 52.8079 26.6188 52.7987 26.4961 52.7896L26.4893 52.8823C26.3646 52.8731 26.2407 52.8624 26.1172 52.8521L26.125 52.7603C26.0014 52.7499 25.8783 52.7394 25.7559 52.728L25.7471 52.8208C25.6227 52.8092 25.4991 52.7963 25.376 52.7837L25.3848 52.6919C25.2614 52.6792 25.1387 52.6656 25.0166 52.6519L25.0059 52.7446C24.8818 52.7307 24.7584 52.7157 24.6357 52.7007L24.6465 52.6089C24.5231 52.5938 24.4002 52.5782 24.2783 52.562L24.2666 52.6538C24.1424 52.6373 24.0191 52.6197 23.8965 52.6021L23.9102 52.5112C23.7869 52.4935 23.6646 52.4744 23.543 52.4556L23.5283 52.5474C23.4051 52.5283 23.2827 52.5089 23.1611 52.4888L23.1768 52.397C23.0536 52.3765 22.9309 52.356 22.8096 52.3345L22.793 52.4253C22.6703 52.4035 22.5485 52.3818 22.4277 52.3589L22.4453 52.2681C22.3225 52.2448 22.2008 52.2202 22.0801 52.1958L22.0615 52.2866C21.9394 52.2619 21.8182 52.2373 21.6982 52.2114L21.7178 52.1206C21.5955 52.0942 21.4744 52.0671 21.3545 52.0396L21.333 52.1294C21.211 52.1014 21.0903 52.0727 20.9707 52.0435L20.9932 51.9536C20.8721 51.9241 20.7522 51.8945 20.6338 51.8638L20.6104 51.9536C20.4883 51.9219 20.3682 51.8879 20.249 51.855L20.2744 51.7671C20.1545 51.734 20.0359 51.6999 19.9189 51.6655L19.8926 51.7544C19.7718 51.7189 19.6527 51.6827 19.5352 51.646L19.5635 51.5581C19.444 51.5208 19.326 51.4824 19.21 51.4438L19.1797 51.5317C19.061 51.4923 18.9441 51.4524 18.8291 51.4116L18.8604 51.3247C18.7421 51.2828 18.6259 51.24 18.5117 51.1968L18.4785 51.2827C18.3604 51.238 18.2446 51.1922 18.1309 51.146L18.166 51.061C18.0504 51.0141 17.9371 50.9667 17.8262 50.9185L17.7881 51.0024C17.6729 50.9523 17.5602 50.9017 17.4502 50.8501L17.4902 50.7661C17.3762 50.7126 17.2646 50.659 17.1562 50.604L17.1143 50.686C17.0012 50.6286 16.8919 50.5692 16.7852 50.5103L16.8301 50.4302C16.7202 50.3695 16.6136 50.3079 16.5107 50.2456L16.4629 50.3237C16.3543 50.258 16.2492 50.192 16.1484 50.1245L16.2002 50.0483C16.0959 49.9785 15.9957 49.9079 15.9004 49.8364L15.8447 49.9097C15.7428 49.8333 15.6455 49.7565 15.5537 49.6782L15.6143 49.6079C15.5187 49.5264 15.4285 49.444 15.3447 49.3608L15.2803 49.4253C15.1894 49.335 15.1037 49.2452 15.0264 49.1528L15.0986 49.0933C15.0186 48.9977 14.9461 48.9013 14.8818 48.8042L14.8027 48.855C14.7323 48.7485 14.6712 48.6406 14.6191 48.5317L14.7041 48.4917C14.6515 48.3818 14.6085 48.271 14.5762 48.1597L14.4854 48.186C14.4503 48.0652 14.4279 47.9429 14.416 47.8198L14.5088 47.812C14.5031 47.7532 14.5 47.6935 14.5 47.6343C14.5 47.5752 14.5031 47.5162 14.5088 47.4575L14.416 47.4487C14.4279 47.3256 14.4502 47.2034 14.4854 47.0825L14.4863 47.0835L14.5762 47.1099C14.6085 46.9985 14.6515 46.8877 14.7041 46.7778L14.6191 46.7368C14.6713 46.628 14.7323 46.5201 14.8027 46.4136L14.8818 46.4653C14.9461 46.3682 15.0186 46.2718 15.0986 46.1763L15.0264 46.1157C15.1037 46.0234 15.1894 45.9335 15.2803 45.8433L15.3447 45.9087C15.4285 45.8255 15.5187 45.7431 15.6143 45.6616L15.5537 45.5903C15.6455 45.512 15.7428 45.4353 15.8447 45.3589L15.9004 45.4331C15.9957 45.3617 16.0959 45.291 16.2002 45.2212L16.1484 45.144C16.2492 45.0766 16.3543 45.0106 16.4629 44.9448L16.5107 45.0229C16.6135 44.9608 16.7203 44.9 16.8301 44.8394L16.7852 44.7583C16.8919 44.6993 17.0012 44.6399 17.1143 44.5825L17.1562 44.6655C17.2646 44.6106 17.3762 44.5569 17.4902 44.5034L17.4502 44.4185C17.5602 44.3669 17.673 44.3162 17.7881 44.2661L17.8262 44.3511C17.9371 44.3028 18.0504 44.2554 18.166 44.2085L18.1309 44.1226C18.2446 44.0764 18.3604 44.0306 18.4785 43.9858L18.5117 44.0728C18.6259 44.0295 18.7421 43.9867 18.8604 43.9448L18.8291 43.8569C18.9441 43.8161 19.061 43.7763 19.1797 43.7368L19.21 43.8257C19.326 43.7871 19.444 43.7487 19.5635 43.7114L19.5352 43.6226C19.6528 43.5858 19.7717 43.5487 19.8926 43.5132L19.9189 43.604C20.0359 43.5697 20.1545 43.5356 20.2744 43.5024L20.249 43.4126C20.3681 43.3797 20.4884 43.3466 20.6104 43.3149L20.6338 43.4058C20.7522 43.375 20.8721 43.3455 20.9932 43.3159L20.9707 43.2251C21.0903 43.1959 21.211 43.1672 21.333 43.1392L21.3545 43.23C21.4744 43.2025 21.5955 43.1753 21.7178 43.1489L21.6982 43.0571C21.8182 43.0313 21.9394 43.0067 22.0615 42.9819L22.0801 43.0737C22.2008 43.0493 22.3225 43.0248 22.4453 43.0015L22.4277 42.9097C22.5485 42.8868 22.6703 42.865 22.793 42.8433L22.8096 42.9351C22.9309 42.9135 23.0536 42.893 23.1768 42.8726L23.1611 42.7798C23.2826 42.7596 23.4051 42.7402 23.5283 42.7212L23.543 42.813C23.6645 42.7942 23.7869 42.776 23.9102 42.7583L23.8965 42.6665C24.0191 42.6489 24.1424 42.6313 24.2666 42.6147L24.2783 42.7075C24.4002 42.6913 24.5231 42.6758 24.6465 42.6606L24.6357 42.5679C24.7584 42.5528 24.8818 42.5379 25.0059 42.5239L25.0166 42.6177C25.1387 42.6039 25.2614 42.5903 25.3848 42.5776L25.376 42.4849C25.4991 42.4722 25.6227 42.4593 25.7471 42.4478L25.7559 42.5415C25.8783 42.5301 26.0014 42.5196 26.125 42.5093L26.1172 42.4165C26.2407 42.4062 26.3646 42.3955 26.4893 42.3862L26.4961 42.48C26.6188 42.4709 26.7424 42.4617 26.8662 42.4536L26.8604 42.3608C26.9839 42.3528 27.1079 42.3444 27.2324 42.3374L27.2383 42.4312C27.3612 42.4243 27.4845 42.4175 27.6084 42.4116L27.6045 42.3188C27.7281 42.313 27.8521 42.307 27.9766 42.3022L27.9805 42.396C28.1037 42.3913 28.2275 42.387 28.3516 42.3833L28.3486 42.2905C28.4726 42.2868 28.5969 42.2824 28.7217 42.2798L28.7236 42.3735C28.8469 42.3709 28.9706 42.3693 29.0947 42.3677L29.0938 42.2739C29.2174 42.2724 29.3414 42.2715 29.4658 42.271L29.4668 42.3647C29.5289 42.3645 29.5911 42.3638 29.6533 42.3638C29.7156 42.3638 29.7778 42.3645 29.8398 42.3647V42.271C29.9642 42.2715 30.0883 42.2724 30.2119 42.2739Z" fill="#1487FA" stroke="black" stroke-width="0.188235" stroke-dasharray="0.38 0.38"/>
<path d="M29.6533 5.09326C33.8559 5.09326 37.6566 5.69323 40.4033 6.65967C41.7769 7.14296 42.8818 7.71623 43.6416 8.34814C44.4018 8.98051 44.8065 9.66225 44.8066 10.3638C44.8066 11.0654 44.4019 11.7479 43.6416 12.3804C42.8818 13.0123 41.7769 13.5856 40.4033 14.0688C37.6566 15.0353 33.8559 15.6353 29.6533 15.6353C25.4507 15.6353 21.65 15.0353 18.9033 14.0688C17.5298 13.5856 16.4248 13.0123 15.665 12.3804C14.9047 11.7479 14.5 11.0654 14.5 10.3638C14.5002 9.66225 14.9049 8.98051 15.665 8.34814C16.4248 7.71623 17.5297 7.14296 18.9033 6.65967C21.65 5.69323 25.4507 5.09326 29.6533 5.09326Z" stroke="black" stroke-width="0.188235"/>
<rect x="14.4062" y="29.7244" width="30.4941" height="18.1317" fill="#1487FA"/>
<path d="M44.8047 10.364V47.8229" stroke="black" stroke-width="0.188235"/>
<path d="M14.5 10.364V47.8229" stroke="black" stroke-width="0.188235"/>
<path d="M24.7194 8.36103H25.8304C26.0611 8.36103 26.2523 8.41377 26.4007 8.51927C26.5457 8.62476 26.6216 8.78959 26.6216 9.01377C26.6216 9.15552 26.5853 9.2775 26.5194 9.3764C26.4501 9.4753 26.3545 9.54783 26.2326 9.59068C26.2886 9.60387 26.3381 9.62365 26.3809 9.65002C26.4205 9.6764 26.4534 9.70607 26.4765 9.73574C26.4996 9.7687 26.5194 9.80826 26.5359 9.85442C26.549 9.90387 26.5589 9.94672 26.5655 9.98299C26.5721 10.0192 26.5754 10.0654 26.582 10.1247C26.582 10.1412 26.5853 10.1709 26.5886 10.2138C26.5919 10.2599 26.5952 10.2896 26.5952 10.3028C26.5952 10.3159 26.5985 10.3423 26.6018 10.3753C26.6051 10.4116 26.6084 10.4379 26.6117 10.4511C26.6117 10.4643 26.615 10.4874 26.6216 10.5137C26.6282 10.5401 26.6315 10.5632 26.6381 10.5764C26.6414 10.5896 26.6479 10.6061 26.6545 10.6258C26.6611 10.6456 26.6677 10.6588 26.6776 10.672C26.6842 10.6852 26.6941 10.6984 26.7073 10.7083H26.2655C26.2589 10.7017 26.2523 10.6918 26.2458 10.6786C26.2392 10.6654 26.2359 10.6522 26.2326 10.639C26.226 10.6258 26.2227 10.6126 26.2227 10.5995C26.2194 10.5863 26.2161 10.5698 26.2128 10.55C26.2095 10.5302 26.2095 10.5105 26.2095 10.4973L26.2029 10.4379L26.1963 10.3786C26.1963 10.3654 26.193 10.3423 26.193 10.3094C26.1897 10.2764 26.1897 10.2533 26.1897 10.2401C26.1765 10.0489 26.137 9.92035 26.0677 9.84782C25.9985 9.7753 25.8666 9.73903 25.6754 9.73903H25.1282V10.7083H24.7194V8.36103ZM25.1282 8.69729V9.43244H25.6721C25.7513 9.43244 25.8172 9.42915 25.8732 9.41926C25.926 9.41266 25.982 9.39618 26.0381 9.3731C26.0941 9.35003 26.137 9.31047 26.1666 9.25772C26.1963 9.20497 26.2128 9.13904 26.2128 9.05662C26.2128 8.9841 26.1996 8.92146 26.1732 8.87201C26.1469 8.82256 26.1073 8.7863 26.0578 8.75992C26.0084 8.73685 25.9589 8.72036 25.9062 8.71047C25.8535 8.70388 25.7941 8.69729 25.7249 8.69729H25.1282ZM26.9779 9.53134C27.0175 9.14893 27.2648 8.95443 27.723 8.95443C27.934 8.95443 28.1054 8.99728 28.2307 9.0797C28.356 9.16541 28.4219 9.29398 28.4219 9.46871V10.3324C28.4219 10.3819 28.4252 10.4148 28.4384 10.4313C28.4516 10.4511 28.4746 10.4577 28.5109 10.4577C28.5373 10.4577 28.5636 10.4577 28.5966 10.4511V10.7148C28.4977 10.7412 28.4186 10.7511 28.3527 10.7511C28.1911 10.7511 28.0988 10.6852 28.0757 10.5467C27.9307 10.6852 27.7329 10.7511 27.479 10.7511C27.301 10.7511 27.1626 10.7083 27.0604 10.6159C26.9549 10.5236 26.9054 10.4017 26.9054 10.2434C26.9054 10.1973 26.9087 10.1511 26.9219 10.1083C26.9318 10.0687 26.945 10.0324 26.9582 9.99947C26.9714 9.9698 26.9944 9.94013 27.0274 9.91376C27.0604 9.88738 27.0867 9.8676 27.1065 9.84782C27.1263 9.83134 27.1626 9.81486 27.2087 9.79837C27.2549 9.78519 27.2911 9.772 27.3142 9.76541C27.3373 9.75881 27.3768 9.74892 27.4362 9.73903C27.4922 9.73244 27.5285 9.72585 27.5483 9.72255C27.5681 9.71925 27.6076 9.71266 27.667 9.70607C27.7988 9.68958 27.8911 9.6764 27.9406 9.66321C27.9867 9.65002 28.0197 9.63354 28.0395 9.60717C28.0527 9.59068 28.0626 9.55112 28.0626 9.48519C28.0626 9.31376 27.9439 9.22805 27.7131 9.22805C27.5878 9.22805 27.4988 9.25113 27.4428 9.29728C27.3834 9.34343 27.3472 9.42255 27.334 9.53134H26.9779ZM28.0593 9.85442C28.0296 9.8709 27.9966 9.88409 27.9604 9.89727C27.9208 9.91046 27.8911 9.91705 27.868 9.92035C27.845 9.92365 27.8087 9.92694 27.7593 9.93354C27.7098 9.94013 27.6768 9.94672 27.6637 9.94672C27.6175 9.95332 27.5812 9.95991 27.5549 9.9665C27.5285 9.9731 27.4955 9.97969 27.456 9.99288C27.4164 10.0061 27.3867 10.0225 27.367 10.0423C27.3472 10.0621 27.3274 10.0852 27.3142 10.1181C27.2977 10.1511 27.2911 10.1874 27.2911 10.2302C27.2911 10.3127 27.3175 10.3753 27.3703 10.4181C27.423 10.4643 27.4988 10.4841 27.5977 10.4841C27.7626 10.4841 27.8911 10.4412 27.9834 10.3489C28.0329 10.2995 28.0593 10.2006 28.0593 10.0555V9.85442ZM30.4383 8.36103V10.7083H30.0856V10.4742C29.9768 10.6621 29.7955 10.7544 29.5416 10.7544C29.301 10.7544 29.1098 10.6753 28.968 10.5105C28.8263 10.3489 28.757 10.1313 28.757 9.85442C28.757 9.58409 28.8263 9.36651 28.9647 9.20497C29.1032 9.04344 29.2911 8.96102 29.5285 8.96102C29.7658 8.96102 29.9471 9.05003 30.0691 9.22805V8.36103H30.4383ZM29.5977 9.26431C29.4526 9.26431 29.3405 9.31706 29.2581 9.42255C29.1757 9.52805 29.1362 9.6698 29.1362 9.84782C29.1362 10.0357 29.1757 10.1841 29.2614 10.2896C29.3471 10.3984 29.4625 10.4511 29.6109 10.4511C29.7559 10.4511 29.8713 10.3984 29.9537 10.2929C30.0361 10.1874 30.079 10.0423 30.079 9.85442C30.079 9.6698 30.0361 9.52475 29.9504 9.41926C29.8647 9.31706 29.7493 9.26431 29.5977 9.26431ZM31.2273 8.35114V8.72036H30.8515V8.35114H31.2273ZM31.2273 9.00717V10.7083H30.8515V9.00717H31.2273ZM32.4247 8.95772C32.6818 8.95772 32.8895 9.04014 33.0445 9.20168C33.1961 9.36651 33.2752 9.58409 33.2752 9.85771C33.2752 10.1346 33.1961 10.3555 33.0445 10.517C32.8928 10.6819 32.6851 10.761 32.4247 10.761C32.1577 10.761 31.9467 10.6819 31.7917 10.517C31.6335 10.3555 31.5577 10.1346 31.5577 9.85771C31.5577 9.58409 31.6335 9.36651 31.7917 9.20168C31.95 9.04014 32.161 8.95772 32.4247 8.95772ZM32.4181 9.25442C32.2665 9.25442 32.1511 9.31047 32.0654 9.41596C31.9797 9.52475 31.9368 9.6731 31.9368 9.85771C31.9368 10.0489 31.9797 10.2006 32.0654 10.3061C32.1511 10.4148 32.2698 10.4676 32.4214 10.4676C32.5665 10.4676 32.6818 10.4148 32.7676 10.3061C32.8533 10.1973 32.8961 10.0456 32.8961 9.85442C32.8961 9.6698 32.8533 9.52145 32.7676 9.41596C32.6818 9.31047 32.5665 9.25442 32.4181 9.25442ZM34.9393 9.50167H34.58C34.5569 9.32365 34.4349 9.23135 34.2108 9.23135C34.1119 9.23135 34.0393 9.25113 33.9866 9.28409C33.9338 9.32036 33.9075 9.36981 33.9075 9.42915C33.9075 9.44893 33.9075 9.46871 33.9108 9.48189C33.9141 9.49838 33.9206 9.51156 33.9305 9.52475C33.9404 9.53794 33.9503 9.54783 33.9569 9.55442C33.9635 9.56431 33.98 9.5742 33.9998 9.58079C34.0195 9.59068 34.0327 9.59728 34.0459 9.60387C34.0591 9.61046 34.0789 9.61706 34.1086 9.62365C34.1349 9.63024 34.158 9.63684 34.1745 9.64013C34.191 9.64673 34.2173 9.65332 34.2569 9.65991C34.2932 9.66651 34.3228 9.6731 34.3426 9.6764C34.4283 9.69618 34.4877 9.71266 34.5272 9.72255C34.5668 9.73244 34.6228 9.75222 34.6954 9.78189C34.7679 9.81156 34.8239 9.84123 34.8602 9.8742C34.8932 9.90716 34.9261 9.95002 34.9558 10.0061C34.9855 10.0621 35.002 10.1247 35.002 10.1973C35.002 10.3687 34.9327 10.5072 34.8009 10.6061C34.6657 10.7083 34.4844 10.7577 34.2602 10.7577C34.0163 10.7577 33.8316 10.7083 33.7031 10.6061C33.5712 10.5072 33.502 10.3588 33.4954 10.1643H33.8547C33.8745 10.3786 34.0097 10.4841 34.2668 10.4841C34.3756 10.4841 34.4646 10.4643 34.5305 10.4181C34.5965 10.372 34.6327 10.3127 34.6327 10.2368C34.6327 10.2006 34.6228 10.1676 34.6064 10.1412C34.5899 10.1149 34.5635 10.0951 34.5272 10.0753C34.4877 10.0555 34.4514 10.0423 34.4184 10.0324C34.3855 10.0225 34.3393 10.0094 34.2833 9.99617L34.2635 9.99288C34.2569 9.99288 34.2536 9.98958 34.247 9.98958C34.2404 9.98958 34.2338 9.98628 34.2272 9.98299C33.9833 9.92365 33.8316 9.87749 33.7657 9.84453C33.6075 9.772 33.5316 9.64673 33.5316 9.472C33.5316 9.31376 33.591 9.18849 33.7163 9.09618C33.8382 9.00388 34.0097 8.95772 34.2272 8.95772C34.4349 8.95772 34.6064 9.00388 34.7382 9.09289C34.8701 9.18519 34.9393 9.32036 34.9393 9.50167Z" fill="black"/>
<path d="M7.46527 32.0934L9.8125 32.0934L9.8125 32.5055L8.75757 32.5055L8.75757 33.5802L9.8125 33.5802L9.8125 33.9922L7.46527 33.9922L7.46527 33.5802L8.39823 33.5802L8.39823 32.5055L7.46527 32.5055L7.46527 32.0934ZM9.28174 30.1329C9.46635 30.1758 9.6114 30.2681 9.7136 30.4065C9.81909 30.545 9.86854 30.7131 9.86854 30.9043C9.86854 31.1615 9.78613 31.3659 9.62129 31.5175C9.45646 31.6692 9.24218 31.7417 8.98174 31.7417C8.71801 31.7417 8.49713 31.6659 8.32241 31.5109C8.15098 31.356 8.06197 31.1582 8.06197 30.9175C8.06197 30.6703 8.14768 30.4725 8.31911 30.3274C8.49054 30.1824 8.7213 30.1098 9.01471 30.1098L9.05427 30.1098L9.05427 31.3659C9.22569 31.3626 9.36086 31.3197 9.45316 31.2373C9.54547 31.1582 9.59162 31.0428 9.59162 30.8977C9.59162 30.7955 9.56855 30.7131 9.5191 30.6472C9.46965 30.5813 9.39053 30.5318 9.28174 30.4922L9.28174 30.1329ZM8.80372 30.4857C8.66196 30.4988 8.54988 30.5417 8.46746 30.6208C8.38504 30.6999 8.34219 30.7988 8.34219 30.9208C8.34219 31.0461 8.38175 31.145 8.46087 31.2208C8.53999 31.2966 8.65537 31.3428 8.80372 31.3593L8.80372 30.4857ZM7.45538 29.4384L7.82461 29.4384L7.82461 29.8142L7.45538 29.8142L7.45538 29.4384ZM8.11142 29.4384L9.8125 29.4384L9.8125 29.8142L8.11142 29.8142L8.11142 29.4384ZM8.11142 27.4696L9.6147 27.4696C9.9081 27.4696 10.1257 27.5323 10.2641 27.6575C10.4059 27.7828 10.4751 27.9905 10.4751 28.2872C10.4751 28.7553 10.3037 29.0092 9.95755 29.0487L9.95755 28.6729C10.129 28.6399 10.2114 28.5081 10.2114 28.2773C10.2114 28.1224 10.1718 28.0103 10.0927 27.9377C10.0136 27.8652 9.88832 27.829 9.7103 27.829L9.50921 27.829C9.70041 27.9542 9.79602 28.1322 9.79602 28.3696C9.79602 28.5971 9.72019 28.7784 9.56855 28.9103C9.4169 29.0421 9.20921 29.1081 8.94877 29.1081C8.68504 29.1081 8.47076 29.0388 8.30922 28.9004C8.14768 28.7619 8.06527 28.5806 8.06527 28.3498C8.06527 28.2311 8.08834 28.129 8.1345 28.0465C8.18065 27.9674 8.24988 27.8916 8.34878 27.8191L8.11142 27.8191L8.11142 27.4696ZM8.36856 28.2839C8.36856 28.4257 8.42131 28.5377 8.52021 28.6169C8.6224 28.696 8.76416 28.7355 8.94218 28.7355C9.11361 28.7355 9.25207 28.696 9.35097 28.6136C9.45316 28.5311 9.50261 28.4224 9.50261 28.2839C9.50261 28.1454 9.45316 28.0333 9.34767 27.9509C9.24218 27.8718 9.10042 27.829 8.9224 27.829C8.75097 27.829 8.61581 27.8718 8.51691 27.9509C8.41801 28.0301 8.36856 28.1421 8.36856 28.2839ZM7.46527 26.6989L8.34548 26.6989C8.16087 26.5737 8.06856 26.3957 8.06856 26.1616C8.06856 25.977 8.12131 25.8352 8.22021 25.7297C8.31911 25.6275 8.46746 25.5748 8.65867 25.5748L9.8125 25.5748L9.8125 25.9539L8.78064 25.9539C8.65207 25.9539 8.55317 25.977 8.48394 26.0231C8.41801 26.0693 8.38175 26.155 8.38175 26.2836C8.38175 26.4286 8.4312 26.5341 8.5235 26.6C8.61911 26.666 8.74438 26.6989 8.89932 26.6989L9.8125 26.6989L9.8125 27.0715L7.46527 27.0715L7.46527 26.6989ZM8.11142 24.351L8.38504 24.351L8.38504 24.6939L9.28174 24.6939C9.33448 24.6939 9.37404 24.6939 9.39382 24.6906C9.4136 24.6906 9.43668 24.684 9.46305 24.6708C9.48943 24.6609 9.50591 24.6411 9.5125 24.6147C9.52239 24.5884 9.52569 24.5488 9.52569 24.4993C9.52569 24.44 9.52569 24.3906 9.5191 24.351L9.8158 24.351C9.82569 24.4268 9.82898 24.5125 9.82898 24.6048C9.82898 24.6708 9.82569 24.7301 9.8158 24.7796C9.80591 24.829 9.79272 24.8686 9.77953 24.9015C9.76635 24.9345 9.74657 24.9642 9.7136 24.984C9.68063 25.007 9.65426 25.0235 9.63448 25.0367C9.6147 25.0499 9.57514 25.0565 9.52239 25.0631C9.46965 25.0697 9.43009 25.0697 9.40371 25.0697L9.25866 25.0697L9.23888 25.0697L9.2191 25.0697L9.19602 25.0697L8.38504 25.0697L8.38504 25.3532L8.11142 25.3532L8.11142 25.0697L7.60044 25.0697L7.60044 24.6939L8.11142 24.6939L8.11142 24.351Z" fill="black"/>
<path d="M11.5234 9.94482L10.5718 11.5932H12.4751L11.5234 9.94482ZM11.5234 48.4746L12.4751 46.8263H10.5718L11.5234 48.4746ZM11.5234 11.4283H11.3586V46.9911H11.5234H11.6883V11.4283H11.5234Z" fill="black"/>
<path d="M47.8481 48.1873L47.8481 47.7686L49.6349 47.34L47.8481 46.8587L47.8481 46.44L49.6349 45.9752L47.8481 45.5335L47.8481 45.1148L50.1953 45.7642L50.1953 46.1829L48.392 46.6576L50.1953 47.1422L50.1953 47.5675L47.8481 48.1873ZM49.0184 45.0415C48.636 45.002 48.4415 44.7547 48.4415 44.2965C48.4415 44.0855 48.4843 43.9141 48.5668 43.7888C48.6525 43.6635 48.781 43.5976 48.9558 43.5976L49.8195 43.5976C49.8689 43.5976 49.9019 43.5943 49.9184 43.5811C49.9382 43.5679 49.9448 43.5448 49.9448 43.5086C49.9448 43.4822 49.9448 43.4558 49.9382 43.4229L50.2019 43.4229C50.2283 43.5218 50.2382 43.6009 50.2382 43.6668C50.2382 43.8283 50.1722 43.9207 50.0338 43.9437C50.1722 44.0888 50.2382 44.2866 50.2382 44.5404C50.2382 44.7184 50.1953 44.8569 50.103 44.9591C50.0107 45.0646 49.8887 45.114 49.7305 45.114C49.6843 45.114 49.6382 45.1107 49.5953 45.0976C49.5558 45.0877 49.5195 45.0745 49.4865 45.0613C49.4569 45.0481 49.4272 45.025 49.4008 44.9921C49.3744 44.9591 49.3547 44.9327 49.3349 44.9129C49.3184 44.8932 49.3019 44.8569 49.2854 44.8108C49.2722 44.7646 49.2591 44.7283 49.2525 44.7053C49.2459 44.6822 49.236 44.6426 49.2261 44.5833C49.2195 44.5272 49.2129 44.491 49.2096 44.4712C49.2063 44.4514 49.1997 44.4119 49.1931 44.3525C49.1766 44.2206 49.1635 44.1283 49.1503 44.0789C49.1371 44.0327 49.1206 43.9998 49.0942 43.98C49.0777 43.9668 49.0382 43.9569 48.9722 43.9569C48.8008 43.9569 48.7151 44.0756 48.7151 44.3064C48.7151 44.4316 48.7382 44.5206 48.7843 44.5767C48.8305 44.636 48.9096 44.6723 49.0184 44.6855L49.0184 45.0415ZM49.3415 43.9602C49.358 43.9899 49.3711 44.0228 49.3843 44.0591C49.3975 44.0987 49.4041 44.1283 49.4074 44.1514C49.4107 44.1745 49.414 44.2108 49.4206 44.2602C49.4272 44.3097 49.4338 44.3426 49.4338 44.3558C49.4404 44.402 49.447 44.4382 49.4536 44.4646C49.4602 44.491 49.4667 44.5239 49.4799 44.5635C49.4931 44.6031 49.5096 44.6327 49.5294 44.6525C49.5492 44.6723 49.5722 44.6921 49.6052 44.7053C49.6382 44.7217 49.6744 44.7283 49.7173 44.7283C49.7997 44.7283 49.8623 44.702 49.9052 44.6492C49.9514 44.5965 49.9711 44.5206 49.9711 44.4217C49.9711 44.2569 49.9283 44.1283 49.836 44.036C49.7865 43.9866 49.6876 43.9602 49.5426 43.9602L49.3415 43.9602ZM48.4942 42.3624L48.7679 42.3624L48.7679 42.7053L49.6645 42.7053C49.7173 42.7053 49.7569 42.7053 49.7766 42.702C49.7964 42.702 49.8195 42.6954 49.8459 42.6822C49.8722 42.6723 49.8887 42.6525 49.8953 42.6262C49.9052 42.5998 49.9085 42.5602 49.9085 42.5108C49.9085 42.4514 49.9085 42.402 49.9019 42.3624L50.1986 42.3624C50.2085 42.4383 50.2118 42.524 50.2118 42.6163C50.2118 42.6822 50.2085 42.7416 50.1986 42.791C50.1887 42.8405 50.1755 42.88 50.1623 42.913C50.1492 42.9459 50.1294 42.9756 50.0964 42.9954C50.0634 43.0185 50.0371 43.035 50.0173 43.0481C49.9975 43.0613 49.958 43.0679 49.9052 43.0745C49.8525 43.0811 49.8129 43.0811 49.7865 43.0811L49.6415 43.0811L49.6217 43.0811L49.6019 43.0811L49.5788 43.0811L48.7679 43.0811L48.7679 43.3646L48.4942 43.3646L48.4942 43.0811L47.9833 43.0811L47.9833 42.7053L48.4942 42.7053L48.4942 42.3624ZM49.6645 40.5723C49.8492 40.6152 49.9942 40.7075 50.0964 40.8459C50.2019 40.9844 50.2514 41.1525 50.2514 41.3437C50.2514 41.6009 50.1689 41.8053 50.0041 41.9569C49.8393 42.1086 49.625 42.1811 49.3646 42.1811C49.1008 42.1811 48.8799 42.1053 48.7052 41.9503C48.5338 41.7954 48.4448 41.5976 48.4448 41.3569C48.4448 41.1097 48.5305 40.9119 48.7019 40.7668C48.8733 40.6218 49.1041 40.5492 49.3975 40.5492L49.4371 40.5492L49.4371 41.8053C49.6085 41.802 49.7437 41.7591 49.836 41.6767C49.9283 41.5976 49.9744 41.4822 49.9744 41.3371C49.9744 41.235 49.9514 41.1525 49.9019 41.0866C49.8525 41.0207 49.7733 40.9712 49.6645 40.9317L49.6645 40.5723ZM49.1865 40.9251C49.0448 40.9383 48.9327 40.9811 48.8503 41.0602C48.7679 41.1393 48.725 41.2382 48.725 41.3602C48.725 41.4855 48.7646 41.5844 48.8437 41.6602C48.9228 41.736 49.0382 41.7822 49.1865 41.7987L49.1865 40.9251ZM48.4613 39.3009L48.8206 39.3009C48.814 39.3668 48.8107 39.413 48.8107 39.4328C48.8107 39.7624 49.025 39.924 49.447 39.924L50.1953 39.924L50.1953 40.2965L48.4942 40.2965L48.4942 39.9438L48.8338 39.9438C48.5832 39.8251 48.4547 39.6339 48.4547 39.3734L48.4613 39.3009ZM49.8393 36.5321L50.1953 36.5321L50.1953 38.1409L47.8481 38.1409L47.8481 37.7255L49.8393 37.7255L49.8393 36.5321ZM49.6645 34.771C49.8492 34.8138 49.9942 34.9061 50.0964 35.0446C50.2019 35.183 50.2514 35.3512 50.2514 35.5424C50.2514 35.7995 50.1689 36.0039 50.0041 36.1556C49.8393 36.3072 49.625 36.3797 49.3646 36.3797C49.1008 36.3797 48.8799 36.3039 48.7052 36.149C48.5338 35.994 48.4448 35.7962 48.4448 35.5556C48.4448 35.3083 48.5305 35.1105 48.7019 34.9655C48.8733 34.8204 49.1041 34.7479 49.3975 34.7479L49.4371 34.7479L49.4371 36.0039C49.6085 36.0006 49.7437 35.9578 49.836 35.8753C49.9283 35.7962 49.9744 35.6808 49.9744 35.5358C49.9744 35.4336 49.9514 35.3512 49.9019 35.2852C49.8525 35.2193 49.7733 35.1699 49.6645 35.1303L49.6645 34.771ZM49.1865 35.1237C49.0448 35.1369 48.9327 35.1798 48.8503 35.2589C48.7679 35.338 48.725 35.4369 48.725 35.5589C48.725 35.6841 48.7646 35.783 48.8437 35.8589C48.9228 35.9347 49.0382 35.9808 49.1865 35.9973L49.1865 35.1237ZM48.4942 34.6336L48.4942 34.2248L49.803 33.7897L48.4942 33.371L48.4942 32.982L50.1986 33.5919L50.1986 34.0138L48.4942 34.6336ZM49.6645 31.2296C49.8492 31.2725 49.9942 31.3648 50.0964 31.5032C50.2019 31.6417 50.2514 31.8098 50.2514 32.001C50.2514 32.2582 50.1689 32.4626 50.0041 32.6142C49.8393 32.7659 49.625 32.8384 49.3646 32.8384C49.1008 32.8384 48.8799 32.7626 48.7052 32.6076C48.5338 32.4527 48.4448 32.2549 48.4448 32.0142C48.4448 31.767 48.5305 31.5692 48.7019 31.4241C48.8733 31.2791 49.1041 31.2065 49.3975 31.2065L49.4371 31.2065L49.4371 32.4626C49.6085 32.4593 49.7437 32.4164 49.836 32.334C49.9283 32.2549 49.9744 32.1395 49.9744 31.9945C49.9744 31.8923 49.9514 31.8098 49.9019 31.7439C49.8525 31.678 49.7733 31.6285 49.6645 31.589L49.6645 31.2296ZM49.1865 31.5824C49.0448 31.5956 48.9327 31.6384 48.8503 31.7175C48.7679 31.7967 48.725 31.8956 48.725 32.0175C48.725 32.1428 48.7646 32.2417 48.8437 32.3175C48.9228 32.3933 49.0382 32.4395 49.1865 32.456L49.1865 31.5824ZM47.8481 30.5351L50.1953 30.5351L50.1953 30.9077L47.8481 30.9077L47.8481 30.5351Z" fill="black"/>
<path d="M46.9609 30.1372L46.0093 31.7855L47.9126 31.7855L46.9609 30.1372ZM46.9609 47.8568L47.9126 46.2084L46.0093 46.2084L46.9609 47.8568ZM46.9609 31.6207L46.7961 31.6207L46.7961 46.3733L46.9609 46.3733L47.1258 46.3733L47.1258 31.6207L46.9609 31.6207Z" fill="black"/>
</svg>
