<svg width="58" height="58" viewBox="0 0 58 58" fill="none" xmlns="http://www.w3.org/2000/svg">
<rect width="58" height="58" rx="14" fill="#F3F3F3"/>
<rect x="0.5" y="0.5" width="57" height="57" rx="13.5" stroke="#B02E0C" stroke-opacity="0.04"/>
<path d="M35.2583 11.179H14.8125V49.6867H35.2583V11.179Z" stroke="black" stroke-width="0.18337"/>
<path d="M42.776 3.66089L35.2578 11.1791V49.6868L42.776 42.5354V3.66089Z" stroke="black" stroke-width="0.18337"/>
<path d="M22.239 3.56885L14.8125 11.1787H35.2583L42.824 3.56885H22.239Z" stroke="black" stroke-width="0.18337"/>
<path d="M35.2583 31.9915H14.8125V49.6867H35.2583V31.9915Z" fill="#00A3E8" stroke="black" stroke-width="0.18337"/>
<path d="M42.776 25.8484L35.2578 31.9913V49.6865L42.776 42.5351V25.8484Z" fill="#00A3E8" stroke="black" stroke-width="0.18337"/>
<path d="M13.9453 51.5654L15.2425 52.3144L15.2425 50.8165L13.9453 51.5654ZM35.5654 51.5654L34.2682 50.8165L34.2682 52.3144L35.5654 51.5654ZM15.1128 51.5654L15.1128 51.6952L34.3979 51.6952L34.3979 51.5654L34.3979 51.4357L15.1128 51.4357L15.1128 51.5654Z" fill="black"/>
<path d="M21.0769 54.0568V54.4304H19.3888V51.9675H19.8247V54.0568H21.0769ZM22.9249 53.8735C22.8799 54.0672 22.783 54.2194 22.6377 54.3266C22.4925 54.4373 22.316 54.4892 22.1154 54.4892C21.8456 54.4892 21.6311 54.4027 21.472 54.2298C21.3129 54.0568 21.2368 53.832 21.2368 53.5587C21.2368 53.282 21.3163 53.0502 21.4789 52.8669C21.6415 52.687 21.849 52.5936 22.1016 52.5936C22.361 52.5936 22.5686 52.6835 22.7208 52.8634C22.873 53.0433 22.9491 53.2854 22.9491 53.5933V53.6348H21.6311C21.6346 53.8147 21.6795 53.9565 21.766 54.0534C21.849 54.1502 21.9701 54.1987 22.1223 54.1987C22.2296 54.1987 22.316 54.1744 22.3852 54.1226C22.4544 54.0707 22.5063 53.9876 22.5478 53.8735H22.9249ZM22.5547 53.3719C22.5409 53.2232 22.4959 53.1055 22.4129 53.0191C22.3299 52.9326 22.2261 52.8876 22.0981 52.8876C21.9667 52.8876 21.8629 52.9291 21.7833 53.0121C21.7038 53.0952 21.6553 53.2162 21.638 53.3719H22.5547ZM23.6259 52.6455V52.9084C23.7677 52.7008 23.9649 52.597 24.2174 52.597C24.4181 52.597 24.5703 52.6524 24.6706 52.7631C24.7709 52.8738 24.8228 53.0329 24.8228 53.2405V54.4304H24.4285V53.3927C24.4285 53.3235 24.425 53.2647 24.4181 53.2162C24.4112 53.1678 24.3939 53.1194 24.3731 53.071C24.3524 53.0225 24.3178 52.9879 24.2693 52.9637C24.2209 52.9395 24.1586 52.9257 24.0825 52.9257C23.792 52.9257 23.6467 53.109 23.6467 53.4688V54.4304H23.2523V52.6455H23.6259ZM26.8714 52.6455V54.2229C26.8714 54.5307 26.8057 54.759 26.6742 54.9043C26.5428 55.0531 26.3249 55.1257 26.0135 55.1257C25.5223 55.1257 25.256 54.9458 25.2145 54.5826H25.6088C25.6434 54.7625 25.7818 54.849 26.0239 54.849C26.1865 54.849 26.3041 54.8075 26.3802 54.7245C26.4563 54.6414 26.4944 54.51 26.4944 54.3232V54.1122C26.3629 54.3128 26.1761 54.4131 25.9271 54.4131C25.6884 54.4131 25.4981 54.3336 25.3597 54.1744C25.2214 54.0153 25.1522 53.7974 25.1522 53.5241C25.1522 53.2474 25.2248 53.0225 25.3701 52.853C25.5154 52.6835 25.7057 52.597 25.9478 52.597C26.0723 52.597 26.1796 52.6213 26.2661 52.6697C26.3491 52.7181 26.4286 52.7908 26.5047 52.8945V52.6455H26.8714ZM26.017 52.9153C25.8682 52.9153 25.7506 52.9706 25.6676 53.0744C25.5846 53.1816 25.5431 53.3304 25.5431 53.5172C25.5431 53.6971 25.5846 53.8424 25.6711 53.9461C25.7576 54.0534 25.8717 54.1053 26.017 54.1053C26.1623 54.1053 26.2799 54.0534 26.3664 53.9427C26.4494 53.832 26.4944 53.6832 26.4944 53.4964C26.4944 53.3166 26.4494 53.1747 26.3664 53.071C26.2834 52.9672 26.1657 52.9153 26.017 52.9153ZM28.1575 52.6455V52.9326H27.7977V53.8735C27.7977 53.9288 27.7977 53.9703 27.8012 53.9911C27.8012 54.0119 27.8081 54.0361 27.8219 54.0637C27.8323 54.0914 27.8531 54.1087 27.8807 54.1156C27.9084 54.126 27.9499 54.1295 28.0018 54.1295C28.0641 54.1295 28.116 54.1295 28.1575 54.1226V54.4339C28.0779 54.4443 27.988 54.4477 27.8911 54.4477C27.8219 54.4477 27.7597 54.4443 27.7078 54.4339C27.6559 54.4235 27.6144 54.4097 27.5798 54.3958C27.5452 54.382 27.514 54.3612 27.4933 54.3266C27.4691 54.2921 27.4518 54.2644 27.4379 54.2436C27.4241 54.2229 27.4172 54.1814 27.4103 54.126C27.4034 54.0707 27.4034 54.0292 27.4034 54.0015V53.8493V53.8285V53.8078V53.7835V52.9326H27.1059V52.6455H27.4034V52.1093H27.7977V52.6455H28.1575ZM28.832 51.9675V52.8911C28.9635 52.6974 29.1503 52.6005 29.3959 52.6005C29.5896 52.6005 29.7383 52.6558 29.849 52.7596C29.9563 52.8634 30.0116 53.0191 30.0116 53.2197V54.4304H29.6138V53.3477C29.6138 53.2128 29.5896 53.109 29.5412 53.0364C29.4927 52.9672 29.4028 52.9291 29.2679 52.9291C29.1157 52.9291 29.005 52.981 28.9358 53.0779C28.8666 53.1782 28.832 53.3096 28.832 53.4722V54.4304H28.4411V51.9675H28.832Z" fill="black"/>
<path d="M37.4188 51.8914L37.7294 51.5807L39.3731 52.5885L38.4045 50.9056L38.7152 50.595L40.3858 51.5758L39.3878 49.9223L39.6985 49.6117L40.9582 51.8351L40.6475 52.1457L38.9573 51.16L39.9357 52.8575L39.6202 53.1731L37.4188 51.8914ZM40.1347 49.1608L40.4086 49.4347L40.1298 49.7136L39.8558 49.4396L40.1347 49.1608ZM40.6214 49.6475L41.8836 50.9097L41.6048 51.1885L40.3426 49.9264L40.6214 49.6475ZM41.642 47.6682L43.3835 49.4097L43.1218 49.6715L42.9481 49.4978C43.0068 49.7179 42.9408 49.921 42.7525 50.1093C42.5739 50.2879 42.3733 50.371 42.1458 50.3539C41.9208 50.3392 41.708 50.2292 41.5025 50.0237C41.302 49.8231 41.1919 49.6103 41.1748 49.3877C41.1576 49.1651 41.2359 48.9646 41.412 48.7884C41.5881 48.6123 41.7887 48.5438 42.0113 48.5854L41.368 47.9421L41.642 47.6682ZM41.6884 48.9621C41.5808 49.0697 41.5368 49.192 41.5539 49.3315C41.571 49.4709 41.6468 49.6054 41.7789 49.7375C41.9184 49.8769 42.0578 49.9577 42.1997 49.9723C42.344 49.9894 42.4687 49.943 42.5788 49.8329C42.6864 49.7253 42.7329 49.6005 42.7158 49.4611C42.6986 49.3217 42.6228 49.1823 42.4834 49.0428C42.3464 48.9059 42.207 48.83 42.0651 48.8154C41.9257 48.8031 41.8009 48.8496 41.6884 48.9621ZM43.037 47.232L43.24 47.435L42.9856 47.6894L43.651 48.3547C43.6901 48.3938 43.7194 48.4232 43.7366 48.4354C43.7512 48.4501 43.7733 48.4623 43.8026 48.4721C43.8295 48.4843 43.8564 48.4819 43.8809 48.4672C43.9078 48.455 43.9396 48.4281 43.9763 48.3914C44.0203 48.3474 44.057 48.3107 44.0815 48.2764L44.3016 48.4966C44.2527 48.5602 44.1915 48.6262 44.123 48.6947C44.0741 48.7436 44.0276 48.7852 43.9836 48.8146C43.9396 48.8439 43.9004 48.8635 43.8662 48.8781C43.832 48.8928 43.7953 48.9002 43.7561 48.8904C43.7145 48.883 43.6828 48.8757 43.6583 48.8708C43.6338 48.8659 43.5996 48.8415 43.5556 48.8072C43.5115 48.773 43.4822 48.7436 43.4626 48.724L43.355 48.6164L43.3403 48.6017L43.3256 48.5871L43.3085 48.5699L42.7068 47.9682L42.4964 48.1786L42.2934 47.9756L42.5038 47.7652L42.1246 47.3861L42.4035 47.1072L42.7826 47.4864L43.037 47.232ZM43.0346 46.2756L43.6877 46.9286C43.6436 46.6987 43.7072 46.4981 43.8809 46.3245C44.0179 46.1875 44.1622 46.1215 44.3138 46.1166C44.4631 46.1141 44.6123 46.185 44.7541 46.3269L45.6102 47.183L45.3289 47.4643L44.5633 46.6987C44.4679 46.6033 44.3774 46.5471 44.2918 46.5299C44.2087 46.5153 44.1182 46.552 44.0228 46.6473C43.9151 46.755 43.8736 46.8699 43.8931 46.9873C43.9151 47.1072 43.9836 47.2246 44.0986 47.3396L44.7761 48.0171L44.4997 48.2935L42.7582 46.552L43.0346 46.2756Z" fill="black"/>
<path d="M8.29485 33.3216L10.7578 33.3216L10.7578 33.754L9.65086 33.754L9.65086 34.8817L10.7578 34.8817L10.7578 35.3141L8.29485 35.3141L8.29485 34.8817L9.27381 34.8817L9.27381 33.754L8.29485 33.754L8.29485 33.3216ZM10.2009 31.2645C10.3946 31.3095 10.5468 31.4063 10.654 31.5516C10.7647 31.6969 10.8166 31.8733 10.8166 32.074C10.8166 32.3438 10.7301 32.5582 10.5572 32.7174C10.3842 32.8765 10.1594 32.9526 9.88609 32.9526C9.60935 32.9526 9.37759 32.873 9.19425 32.7105C9.01437 32.5479 8.92097 32.3403 8.92097 32.0878C8.92097 31.8284 9.01091 31.6208 9.19079 31.4686C9.37067 31.3164 9.61281 31.2403 9.92068 31.2403L9.96219 31.2403L9.96219 32.5582C10.1421 32.5548 10.2839 32.5098 10.3808 32.4233C10.4776 32.3403 10.526 32.2192 10.526 32.067C10.526 31.9598 10.5018 31.8733 10.4499 31.8041C10.3981 31.735 10.315 31.6831 10.2009 31.6416L10.2009 31.2645ZM9.69929 31.6346C9.55055 31.6485 9.43293 31.6934 9.34645 31.7765C9.25997 31.8595 9.215 31.9633 9.215 32.0913C9.215 32.2227 9.25651 32.3265 9.33954 32.406C9.42256 32.4856 9.54363 32.534 9.69929 32.5513L9.69929 31.6346ZM8.28448 30.5358L8.67191 30.5358L8.67191 30.9301L8.28448 30.9301L8.28448 30.5358ZM8.97286 30.5358L10.7578 30.5358L10.7578 30.9301L8.97286 30.9301L8.97286 30.5358ZM8.97286 28.4699L10.5503 28.4699C10.8581 28.4699 11.0864 28.5356 11.2317 28.6671C11.3805 28.7985 11.4531 29.0164 11.4531 29.3278C11.4531 29.819 11.2732 30.0853 10.91 30.1269L10.91 29.7325C11.0899 29.6979 11.1764 29.5595 11.1764 29.3174C11.1764 29.1548 11.1349 29.0372 11.0518 28.9611C10.9688 28.885 10.8374 28.8469 10.6506 28.8469L10.4396 28.8469C10.6402 28.9784 10.7405 29.1652 10.7405 29.4143C10.7405 29.6529 10.661 29.8432 10.5018 29.9816C10.3427 30.1199 10.1248 30.1891 9.8515 30.1891C9.57476 30.1891 9.34991 30.1165 9.18041 29.9712C9.01091 29.8259 8.92443 29.6356 8.92443 29.3935C8.92443 29.269 8.94865 29.1617 8.99707 29.0753C9.0455 28.9922 9.11815 28.9127 9.22192 28.8366L8.97286 28.8366L8.97286 28.4699ZM9.24268 29.3243C9.24268 29.4731 9.29803 29.5907 9.4018 29.6737C9.50904 29.7567 9.65778 29.7982 9.84458 29.7982C10.0245 29.7982 10.1697 29.7567 10.2735 29.6702C10.3808 29.5838 10.4326 29.4696 10.4326 29.3243C10.4326 29.179 10.3808 29.0614 10.2701 28.9749C10.1594 28.8919 10.0106 28.8469 9.82383 28.8469C9.64395 28.8469 9.50212 28.8919 9.39834 28.9749C9.29457 29.058 9.24268 29.1756 9.24268 29.3243ZM8.29485 27.6612L9.21846 27.6612C9.02475 27.5298 8.92789 27.343 8.92789 27.0974C8.92789 26.9037 8.98324 26.7549 9.08701 26.6442C9.19079 26.537 9.34645 26.4816 9.54709 26.4816L10.7578 26.4816L10.7578 26.8794L9.67508 26.8794C9.54017 26.8794 9.43639 26.9037 9.36375 26.9521C9.29457 27.0005 9.25651 27.0904 9.25651 27.2254C9.25651 27.3776 9.3084 27.4883 9.40526 27.5574C9.50558 27.6266 9.63703 27.6612 9.79961 27.6612L10.7578 27.6612L10.7578 28.0521L8.29485 28.0521L8.29485 27.6612ZM8.97286 25.1975L9.25997 25.1975L9.25997 25.5573L10.2009 25.5573C10.2562 25.5573 10.2977 25.5573 10.3185 25.5538C10.3392 25.5538 10.3635 25.5469 10.3911 25.533C10.4188 25.5227 10.4361 25.5019 10.443 25.4742C10.4534 25.4466 10.4569 25.4051 10.4569 25.3532C10.4569 25.2909 10.4569 25.239 10.4499 25.1975L10.7613 25.1975C10.7716 25.2771 10.7751 25.367 10.7751 25.4639C10.7751 25.533 10.7716 25.5953 10.7613 25.6472C10.7509 25.6991 10.7371 25.7406 10.7232 25.7752C10.7094 25.8098 10.6886 25.8409 10.654 25.8617C10.6194 25.8859 10.5918 25.9032 10.571 25.917C10.5503 25.9309 10.5087 25.9378 10.4534 25.9447C10.3981 25.9516 10.3565 25.9516 10.3289 25.9516L10.1767 25.9516L10.1559 25.9516L10.1352 25.9516L10.1109 25.9516L9.25997 25.9516L9.25997 26.2491L8.97286 26.2491L8.97286 25.9516L8.43668 25.9516L8.43668 25.5573L8.97286 25.5573L8.97286 25.1975Z" fill="black"/>
<path d="M46.7792 43.3222L46.7792 42.8829L48.6541 42.4332L46.7792 41.9281L46.7792 41.4888L48.6541 41.001L46.7792 40.5375L46.7792 40.0982L49.2422 40.7797L49.2422 41.219L47.35 41.7171L49.2422 42.2256L49.2422 42.6718L46.7792 43.3222ZM48.0072 40.0213C47.606 39.9798 47.4019 39.7204 47.4019 39.2395C47.4019 39.0181 47.4469 38.8383 47.5333 38.7068C47.6233 38.5754 47.7582 38.5062 47.9415 38.5062L48.8478 38.5062C48.8997 38.5062 48.9343 38.5027 48.9516 38.4889C48.9724 38.475 48.9793 38.4508 48.9793 38.4128C48.9793 38.3851 48.9793 38.3574 48.9724 38.3228L49.2491 38.3228C49.2768 38.4266 49.2872 38.5096 49.2872 38.5788C49.2872 38.7483 49.218 38.8452 49.0727 38.8694C49.218 39.0216 49.2872 39.2291 49.2872 39.4955C49.2872 39.6823 49.2422 39.8276 49.1453 39.9348C49.0485 40.0455 48.9205 40.0974 48.7544 40.0974C48.706 40.0974 48.6576 40.094 48.6126 40.0801C48.5711 40.0697 48.533 40.0559 48.4985 40.0421C48.4673 40.0282 48.4362 40.004 48.4085 39.9694C48.3808 39.9348 48.3601 39.9072 48.3393 39.8864C48.322 39.8656 48.3047 39.8276 48.2874 39.7792C48.2736 39.7307 48.2598 39.6927 48.2529 39.6685C48.2459 39.6443 48.2356 39.6027 48.2252 39.5405C48.2183 39.4817 48.2113 39.4436 48.2079 39.4229C48.2044 39.4021 48.1975 39.3606 48.1906 39.2983C48.1733 39.16 48.1595 39.0631 48.1456 39.0112C48.1318 38.9628 48.1145 38.9282 48.0868 38.9074C48.0695 38.8936 48.028 38.8832 47.9588 38.8832C47.7789 38.8832 47.689 39.0078 47.689 39.2499C47.689 39.3814 47.7132 39.4748 47.7616 39.5336C47.8101 39.5958 47.8931 39.6339 48.0072 39.6477L48.0072 40.0213ZM48.3463 38.8867C48.3635 38.9178 48.3774 38.9524 48.3912 38.9905C48.4051 39.032 48.412 39.0631 48.4154 39.0873C48.4189 39.1115 48.4224 39.1496 48.4293 39.2015C48.4362 39.2534 48.4431 39.288 48.4431 39.3018C48.45 39.3502 48.4569 39.3883 48.4639 39.4159C48.4708 39.4436 48.4777 39.4782 48.4915 39.5197C48.5054 39.5612 48.5227 39.5924 48.5434 39.6131C48.5642 39.6339 48.5884 39.6546 48.623 39.6685C48.6576 39.6858 48.6956 39.6927 48.7406 39.6927C48.8271 39.6927 48.8928 39.665 48.9378 39.6097C48.9862 39.5543 49.007 39.4748 49.007 39.371C49.007 39.198 48.962 39.0631 48.8651 38.9662C48.8132 38.9144 48.7095 38.8867 48.5573 38.8867L48.3463 38.8867ZM47.4572 37.2101L47.7443 37.2101L47.7443 37.5699L48.6853 37.5699C48.7406 37.5699 48.7821 37.5699 48.8029 37.5664C48.8236 37.5664 48.8478 37.5595 48.8755 37.5457C48.9032 37.5353 48.9205 37.5145 48.9274 37.4869C48.9378 37.4592 48.9412 37.4177 48.9412 37.3658C48.9412 37.3035 48.9412 37.2516 48.9343 37.2101L49.2456 37.2101C49.256 37.2897 49.2595 37.3796 49.2595 37.4765C49.2595 37.5457 49.256 37.6079 49.2456 37.6598C49.2353 37.7117 49.2214 37.7532 49.2076 37.7878C49.1938 37.8224 49.173 37.8535 49.1384 37.8743C49.1038 37.8985 49.0761 37.9158 49.0554 37.9296C49.0346 37.9435 48.9931 37.9504 48.9378 37.9573C48.8824 37.9642 48.8409 37.9642 48.8132 37.9642L48.661 37.9642L48.6403 37.9642L48.6195 37.9642L48.5953 37.9642L47.7443 37.9642L47.7443 38.2617L47.4572 38.2617L47.4572 37.9642L46.9211 37.9642L46.9211 37.5699L47.4572 37.5699L47.4572 37.2101ZM48.6853 35.3318C48.879 35.3767 49.0312 35.4736 49.1384 35.6189C49.2491 35.7642 49.301 35.9406 49.301 36.1412C49.301 36.411 49.2145 36.6255 49.0416 36.7846C48.8686 36.9437 48.6437 37.0198 48.3705 37.0198C48.0937 37.0198 47.862 36.9403 47.6786 36.7777C47.4987 36.6151 47.4053 36.4076 47.4053 36.155C47.4053 35.8956 47.4953 35.6881 47.6752 35.5358C47.855 35.3836 48.0972 35.3075 48.4051 35.3075L48.4466 35.3075L48.4466 36.6255C48.6264 36.622 48.7683 36.5771 48.8651 36.4906C48.962 36.4076 49.0104 36.2865 49.0104 36.1343C49.0104 36.0271 48.9862 35.9406 48.9343 35.8714C48.8824 35.8022 48.7994 35.7503 48.6853 35.7088L48.6853 35.3318ZM48.1837 35.7019C48.0349 35.7157 47.9173 35.7607 47.8308 35.8437C47.7443 35.9267 47.6994 36.0305 47.6994 36.1585C47.6994 36.29 47.7409 36.3937 47.8239 36.4733C47.9069 36.5529 48.028 36.6013 48.1837 36.6186L48.1837 35.7019ZM47.4226 33.9977L47.7997 33.9977C47.7928 34.0668 47.7893 34.1153 47.7893 34.136C47.7893 34.482 48.0142 34.6515 48.4569 34.6515L49.2422 34.6515L49.2422 35.0423L47.4572 35.0423L47.4572 34.6722L47.8135 34.6722C47.5506 34.5477 47.4157 34.347 47.4157 34.0738L47.4226 33.9977ZM48.8686 31.0923L49.2422 31.0923L49.2422 32.7804L46.7792 32.7804L46.7792 32.3446L48.8686 32.3446L48.8686 31.0923ZM48.6853 29.2444C48.879 29.2893 49.0312 29.3862 49.1384 29.5315C49.2491 29.6768 49.301 29.8532 49.301 30.0538C49.301 30.3236 49.2145 30.5381 49.0416 30.6972C48.8686 30.8563 48.6437 30.9324 48.3705 30.9324C48.0937 30.9324 47.862 30.8529 47.6786 30.6903C47.4987 30.5277 47.4053 30.3202 47.4053 30.0676C47.4053 29.8082 47.4953 29.6007 47.6752 29.4484C47.855 29.2962 48.0972 29.2201 48.4051 29.2201L48.4466 29.2201L48.4466 30.5381C48.6264 30.5346 48.7683 30.4897 48.8651 30.4032C48.962 30.3202 49.0104 30.1991 49.0104 30.0469C49.0104 29.9397 48.9862 29.8532 48.9343 29.784C48.8824 29.7148 48.7994 29.6629 48.6853 29.6214L48.6853 29.2444ZM48.1837 29.6145C48.0349 29.6283 47.9173 29.6733 47.8308 29.7563C47.7443 29.8393 47.6994 29.9431 47.6994 30.0711C47.6994 30.2026 47.7409 30.3063 47.8239 30.3859C47.9069 30.4655 48.028 30.5139 48.1837 30.5312L48.1837 29.6145ZM47.4572 29.1002L47.4572 28.6713L48.8305 28.2147L47.4572 27.7754L47.4572 27.3672L49.2456 28.0071L49.2456 28.4499L47.4572 29.1002ZM48.6853 25.5284C48.879 25.5734 49.0312 25.6702 49.1384 25.8155C49.2491 25.9608 49.301 26.1372 49.301 26.3379C49.301 26.6077 49.2145 26.8222 49.0416 26.9813C48.8686 27.1404 48.6437 27.2165 48.3705 27.2165C48.0937 27.2165 47.862 27.1369 47.6786 26.9744C47.4987 26.8118 47.4053 26.6042 47.4053 26.3517C47.4053 26.0923 47.4953 25.8847 47.6752 25.7325C47.855 25.5803 48.0972 25.5042 48.4051 25.5042L48.4466 25.5042L48.4466 26.8222C48.6264 26.8187 48.7683 26.7737 48.8651 26.6872C48.962 26.6042 49.0104 26.4831 49.0104 26.3309C49.0104 26.2237 48.9862 26.1372 48.9343 26.068C48.8824 25.9989 48.7994 25.947 48.6853 25.9055L48.6853 25.5284ZM48.1837 25.8985C48.0349 25.9124 47.9173 25.9573 47.8308 26.0404C47.7443 26.1234 47.6994 26.2272 47.6994 26.3552C47.6994 26.4866 47.7409 26.5904 47.8239 26.6699C47.9069 26.7495 48.028 26.7979 48.1837 26.8152L48.1837 25.8985ZM46.7792 24.7997L49.2422 24.7997L49.2422 25.1906L46.7792 25.1906L46.7792 24.7997Z" fill="black"/>
<path d="M45.0781 25.6216L44.3292 26.9188H45.8271L45.0781 25.6216ZM45.0781 42.4852L45.8271 41.188H44.3292L45.0781 42.4852ZM45.0781 26.7891H44.9484V41.3177H45.0781H45.2078V26.7891H45.0781Z" fill="black"/>
<path d="M36 51.5657L37.4523 51.199L36.4086 50.1246L36 51.5657ZM43.567 44.2148L42.1147 44.5815L43.1584 45.6559L43.567 44.2148ZM36.8374 50.7522L36.9278 50.8452L42.82 45.1214L42.7296 45.0283L42.6392 44.9353L36.747 50.6591L36.8374 50.7522Z" fill="black"/>
<path d="M12.4297 11.3523L11.6807 12.6495H13.1786L12.4297 11.3523ZM12.4297 49.836L13.1786 48.5388H11.6807L12.4297 49.836ZM12.4297 12.5198H12.3V48.6685H12.4297H12.5594V12.5198H12.4297Z" fill="black"/>
</svg>
