<svg width="176" height="136" viewBox="0 0 176 136" fill="none" xmlns="http://www.w3.org/2000/svg">
<path d="M0 16C0 7.16344 7.16344 0 16 0H160C168.837 0 176 7.16344 176 16V120C176 128.837 168.837 136 160 136H16C7.16344 136 0 128.837 0 120V16Z" fill="white"/>
<path d="M16 0.5H160C168.56 0.5 175.5 7.43959 175.5 16V120C175.5 128.56 168.56 135.5 160 135.5H16C7.43959 135.5 0.5 128.56 0.5 120V16C0.5 7.43959 7.43959 0.5 16 0.5Z" stroke="#B02E0C" stroke-opacity="0.16"/>
<path d="M89 10.2288C99.1984 10.2288 108.421 11.6834 115.087 14.0286C118.421 15.2016 121.103 16.5934 122.946 18.1272C124.791 19.662 125.771 21.3161 125.771 23.0188C125.771 24.7215 124.791 26.3756 122.946 27.9104C121.103 29.4442 118.421 30.836 115.087 32.009C108.421 34.3542 99.1983 35.8088 89 35.8088C78.8017 35.8088 69.5785 34.3542 62.9131 32.009C59.5793 30.836 56.8975 29.4442 55.0537 27.9104C53.2087 26.3756 52.2285 24.7215 52.2285 23.0188C52.2285 21.3161 53.2087 19.662 55.0537 18.1272C56.8975 16.5934 59.5793 15.2016 62.9131 14.0286C69.5785 11.6834 78.8016 10.2288 89 10.2288Z" stroke="black" stroke-width="0.45679"/>
<path d="M89.4531 100.446C89.7554 100.447 90.0569 100.45 90.3574 100.454L90.3555 100.682C90.6568 100.686 90.9574 100.691 91.2568 100.697L91.2607 100.469C91.5632 100.476 91.8646 100.484 92.165 100.493L92.1592 100.72C92.4603 100.729 92.7606 100.739 93.0596 100.751L93.0674 100.523C93.3699 100.535 93.6714 100.548 93.9717 100.562L93.9619 100.79C94.2628 100.804 94.5628 100.82 94.8613 100.837L94.873 100.609C95.1754 100.626 95.4765 100.643 95.7764 100.663L95.7627 100.891C96.0633 100.911 96.3632 100.932 96.6611 100.954L96.6768 100.726C96.9792 100.749 97.2804 100.772 97.5801 100.797L97.5615 101.024C97.8617 101.049 98.1607 101.076 98.458 101.103L98.4785 100.877C98.7805 100.905 99.081 100.934 99.3799 100.965L99.3574 101.191C99.6574 101.222 99.9562 101.254 100.253 101.288L100.277 101.061C100.579 101.095 100.879 101.13 101.177 101.167L101.149 101.393C101.449 101.43 101.747 101.468 102.043 101.508L102.072 101.282C102.373 101.322 102.671 101.363 102.968 101.406L102.937 101.631C103.236 101.674 103.533 101.718 103.828 101.763L103.862 101.539C104.162 101.585 104.459 101.632 104.754 101.681L104.718 101.906C105.017 101.956 105.313 102.007 105.607 102.059L105.646 101.834C105.944 101.887 106.239 101.941 106.532 101.997L106.49 102.221C106.789 102.278 107.085 102.336 107.379 102.395L107.424 102.172V102.171C107.72 102.231 108.014 102.292 108.305 102.355L108.257 102.579C108.554 102.643 108.848 102.708 109.14 102.775L109.189 102.552C109.485 102.62 109.778 102.69 110.068 102.76L110.016 102.982C110.309 103.054 110.6 103.127 110.888 103.202L110.943 102.981C111.239 103.058 111.532 103.135 111.821 103.215V103.216L111.76 103.435C112.051 103.516 112.339 103.598 112.623 103.681L112.686 103.463C112.978 103.549 113.268 103.636 113.553 103.725L113.486 103.943C113.776 104.034 114.062 104.126 114.344 104.219L114.415 104.003C114.703 104.098 114.987 104.196 115.266 104.295L115.19 104.51C115.477 104.612 115.76 104.715 116.037 104.82L116.117 104.608C116.403 104.717 116.684 104.826 116.96 104.937L116.875 105.149C117.156 105.263 117.432 105.379 117.701 105.496L117.792 105.288C118.071 105.409 118.345 105.532 118.612 105.657L118.517 105.864C118.793 105.994 119.063 106.126 119.326 106.26L119.429 106.056C119.703 106.196 119.97 106.336 120.229 106.479L120.119 106.678C120.386 106.826 120.644 106.976 120.894 107.127L121.011 106.931C121.274 107.091 121.528 107.253 121.772 107.417L121.646 107.605C121.9 107.775 122.143 107.946 122.374 108.12L122.509 107.938C122.756 108.124 122.992 108.312 123.215 108.502L123.068 108.675C123.3 108.872 123.518 109.072 123.722 109.274L123.881 109.113C124.102 109.332 124.306 109.554 124.494 109.778L124.32 109.924C124.515 110.156 124.69 110.391 124.847 110.627L125.037 110.501V110.5C125.208 110.758 125.355 111.022 125.481 111.286L125.278 111.384C125.406 111.65 125.509 111.919 125.588 112.189L125.806 112.125C125.891 112.418 125.947 112.713 125.976 113.011L125.751 113.034C125.765 113.177 125.771 113.32 125.771 113.464C125.771 113.607 125.765 113.751 125.751 113.893L125.976 113.914C125.947 114.212 125.891 114.508 125.806 114.801L125.588 114.738C125.509 115.008 125.406 115.277 125.278 115.544L125.481 115.64C125.355 115.905 125.208 116.168 125.037 116.427L124.847 116.301C124.69 116.537 124.515 116.771 124.32 117.004L124.494 117.148C124.306 117.373 124.102 117.594 123.881 117.813L123.722 117.653C123.518 117.855 123.3 118.055 123.068 118.253L123.215 118.425C122.992 118.615 122.756 118.803 122.509 118.988L122.374 118.807C122.143 118.981 121.9 119.152 121.646 119.321L121.772 119.51C121.528 119.673 121.274 119.835 121.011 119.995L120.894 119.801C120.644 119.952 120.386 120.101 120.119 120.248L120.229 120.447C119.97 120.59 119.703 120.731 119.429 120.87L119.326 120.668C119.063 120.801 118.793 120.933 118.517 121.063L118.612 121.269C118.345 121.395 118.071 121.517 117.792 121.638L117.701 121.431C117.432 121.549 117.156 121.664 116.875 121.778L116.96 121.989C116.684 122.101 116.403 122.21 116.117 122.318L116.037 122.107C115.76 122.212 115.477 122.315 115.19 122.417L115.266 122.632C114.987 122.731 114.703 122.828 114.415 122.924L114.344 122.708C114.062 122.801 113.776 122.894 113.486 122.984L113.553 123.201C113.268 123.29 112.979 123.378 112.686 123.464L112.623 123.246C112.339 123.329 112.051 123.412 111.76 123.492L111.821 123.712C111.532 123.791 111.239 123.868 110.943 123.945L110.888 123.725C110.6 123.8 110.309 123.873 110.016 123.945L110.068 124.165C109.778 124.236 109.485 124.306 109.189 124.374L109.14 124.152C108.848 124.219 108.554 124.284 108.257 124.348L108.305 124.571C108.014 124.634 107.72 124.696 107.424 124.756L107.379 124.532C107.085 124.591 106.789 124.649 106.49 124.706L106.532 124.929C106.239 124.985 105.944 125.04 105.646 125.093L105.607 124.868C105.313 124.92 105.017 124.972 104.718 125.021L104.754 125.245C104.459 125.294 104.162 125.341 103.862 125.387L103.828 125.164C103.533 125.209 103.236 125.254 102.937 125.297L102.968 125.52C102.671 125.563 102.373 125.604 102.072 125.644L102.043 125.42C101.747 125.459 101.449 125.497 101.149 125.534L101.177 125.759C100.879 125.795 100.579 125.831 100.277 125.865L100.253 125.639C99.9562 125.673 99.6574 125.704 99.3574 125.735L99.3799 125.962C99.081 125.992 98.7805 126.021 98.4785 126.05L98.458 125.824C98.1607 125.852 97.8617 125.878 97.5615 125.903L97.5801 126.13C97.2804 126.155 96.9792 126.177 96.6768 126.2L96.6611 125.973C96.3632 125.996 96.0633 126.016 95.7627 126.036L95.7764 126.263C95.4765 126.283 95.1754 126.3 94.873 126.317L94.8613 126.091C94.5628 126.107 94.2628 126.123 93.9619 126.137L93.9717 126.364C93.6714 126.378 93.3699 126.391 93.0674 126.403L93.0596 126.177C92.7606 126.188 92.4603 126.198 92.1592 126.207L92.165 126.433C91.8646 126.442 91.5632 126.45 91.2607 126.457L91.2568 126.23C90.9574 126.237 90.6568 126.241 90.3555 126.245L90.3574 126.472C90.0569 126.476 89.7554 126.479 89.4531 126.48V126.253C89.3023 126.253 89.1512 126.254 89 126.254C88.8488 126.254 88.6977 126.253 88.5469 126.253L88.5459 126.48C88.2436 126.479 87.9421 126.476 87.6416 126.472L87.6445 126.245C87.3432 126.241 87.0426 126.237 86.7432 126.23L86.7383 126.457C86.4358 126.45 86.1344 126.442 85.834 126.433L85.8408 126.207C85.5397 126.198 85.2394 126.188 84.9404 126.177L84.9316 126.403C84.6291 126.391 84.3277 126.378 84.0273 126.364L84.0381 126.137C83.7372 126.123 83.4372 126.107 83.1387 126.091L83.126 126.317C82.8236 126.3 82.5225 126.283 82.2227 126.263L82.2373 126.036C81.9367 126.016 81.6368 125.996 81.3389 125.973L81.3223 126.2C81.0198 126.177 80.7186 126.155 80.4189 126.13L80.4385 125.903C80.1383 125.878 79.8393 125.852 79.542 125.824L79.5205 126.05C79.2185 126.021 78.918 125.992 78.6191 125.962L78.6426 125.735C78.3426 125.704 78.0438 125.673 77.7471 125.639L77.7217 125.865C77.4201 125.831 77.1204 125.795 76.8223 125.759L76.8506 125.534C76.551 125.497 76.2531 125.459 75.957 125.42L75.9268 125.644C75.6264 125.604 75.3279 125.563 75.0312 125.52L75.0635 125.297C74.7643 125.254 74.467 125.209 74.1719 125.164L74.1367 125.387C73.8374 125.341 73.5402 125.294 73.2451 125.245L73.2822 125.021C72.9834 124.972 72.6869 124.92 72.3926 124.868L72.3525 125.093C72.0549 125.04 71.7597 124.985 71.4668 124.929L71.5098 124.706C71.2112 124.649 70.9146 124.591 70.6211 124.532L70.5762 124.756H70.5752C70.2789 124.696 69.9854 124.634 69.6943 124.571L69.7432 124.348C69.4462 124.284 69.1517 124.219 68.8604 124.152L68.8096 124.374C68.5136 124.306 68.2207 124.236 67.9307 124.165L67.9844 123.945C67.6906 123.873 67.3997 123.8 67.1123 123.725L67.0557 123.945C66.7598 123.868 66.4668 123.791 66.1777 123.712H66.1787L66.2402 123.492C65.9491 123.412 65.6608 123.329 65.377 123.246L65.3135 123.464C65.0205 123.378 64.7315 123.29 64.4463 123.201L64.5137 122.984C64.2238 122.894 63.9378 122.801 63.6562 122.708L63.584 122.924C63.2961 122.828 63.0125 122.731 62.7334 122.632L62.8096 122.417C62.5226 122.315 62.2401 122.212 61.9629 122.107L61.8818 122.318C61.5958 122.21 61.3146 122.101 61.0391 121.989L61.125 121.778C60.844 121.664 60.5683 121.549 60.2988 121.431L60.207 121.638C59.9276 121.517 59.6538 121.395 59.3867 121.269L59.4834 121.063C59.2066 120.933 58.9366 120.801 58.6738 120.668L58.5703 120.87C58.2962 120.731 58.0294 120.59 57.7705 120.447L57.8809 120.248C57.6143 120.101 57.356 119.952 57.1064 119.801L56.9883 119.995C56.7248 119.835 56.4711 119.673 56.2266 119.51L56.3535 119.321C56.1004 119.152 55.8574 118.981 55.626 118.807L55.4902 118.988C55.2427 118.803 55.0072 118.615 54.7842 118.425L54.9316 118.253C54.6997 118.055 54.4817 117.855 54.2783 117.653L54.1182 117.813C53.8974 117.594 53.6927 117.373 53.5049 117.148L53.6797 117.004C53.4852 116.771 53.3095 116.537 53.1533 116.301L52.9619 116.427C52.7908 116.168 52.6441 115.905 52.5176 115.64L52.7217 115.544C52.594 115.277 52.4905 115.008 52.4121 114.738L52.1934 114.801C52.1085 114.508 52.0523 114.213 52.0234 113.915L52.249 113.893C52.2421 113.822 52.2369 113.75 52.2334 113.678L52.2285 113.464C52.2285 113.32 52.2352 113.177 52.249 113.034L52.0234 113.011C52.0524 112.713 52.1084 112.418 52.1934 112.125L52.4121 112.189C52.4905 111.919 52.594 111.65 52.7217 111.384L52.5176 111.286C52.6442 111.022 52.7908 110.758 52.9619 110.5L52.9629 110.501L53.1533 110.627C53.3095 110.391 53.4852 110.156 53.6797 109.924L53.5049 109.778C53.6928 109.554 53.8974 109.332 54.1182 109.113L54.2783 109.274C54.4817 109.072 54.6997 108.872 54.9316 108.675L54.7842 108.502C55.0072 108.312 55.2427 108.124 55.4902 107.938L55.626 108.12C55.8574 107.946 56.1004 107.775 56.3535 107.605L56.2266 107.417C56.4711 107.253 56.7248 107.091 56.9883 106.931L57.1064 107.127C57.356 106.976 57.6142 106.826 57.8809 106.678L57.7705 106.479C58.0294 106.336 58.2962 106.196 58.5703 106.056L58.6738 106.26C58.9366 106.126 59.2066 105.994 59.4834 105.864L59.3867 105.657C59.6538 105.532 59.9276 105.41 60.207 105.288L60.2988 105.496C60.5683 105.379 60.844 105.263 61.125 105.149L61.0391 104.937C61.3146 104.826 61.5958 104.717 61.8818 104.608L61.9629 104.82C62.2401 104.715 62.5226 104.612 62.8096 104.51L62.7334 104.295C63.0125 104.196 63.2961 104.098 63.584 104.003L63.6562 104.219C63.9378 104.126 64.2238 104.034 64.5137 103.943L64.4463 103.725C64.7315 103.636 65.0205 103.549 65.3135 103.463L65.377 103.681C65.6608 103.598 65.9491 103.516 66.2402 103.435L66.1787 103.216L66.1777 103.215C66.4668 103.135 66.7598 103.058 67.0557 102.981L67.1123 103.202C67.3997 103.127 67.6906 103.054 67.9844 102.982L67.9307 102.76C68.2206 102.69 68.5136 102.62 68.8096 102.552L68.8604 102.775C69.1517 102.708 69.4462 102.643 69.7432 102.579L69.6943 102.355C69.9854 102.292 70.2789 102.231 70.5752 102.171L70.5762 102.172L70.6211 102.395C70.9146 102.336 71.2112 102.278 71.5098 102.221L71.4668 101.997C71.7597 101.941 72.0549 101.887 72.3525 101.834L72.3926 102.059C72.6869 102.007 72.9834 101.956 73.2822 101.906L73.2451 101.681C73.5402 101.632 73.8374 101.585 74.1367 101.539L74.1719 101.763C74.467 101.718 74.7643 101.674 75.0635 101.631L75.0312 101.406C75.3279 101.363 75.6264 101.322 75.9268 101.282L75.957 101.508C76.2531 101.468 76.551 101.43 76.8506 101.393L76.8223 101.167C77.1203 101.13 77.4202 101.095 77.7217 101.061L77.7471 101.288C78.0438 101.254 78.3426 101.222 78.6426 101.191L78.6191 100.965C78.918 100.934 79.2185 100.905 79.5205 100.877L79.542 101.103C79.8393 101.076 80.1383 101.049 80.4385 101.024L80.4189 100.797C80.7186 100.772 81.0198 100.749 81.3223 100.726L81.3389 100.954C81.6368 100.932 81.9367 100.911 82.2373 100.891L82.2227 100.663C82.5225 100.643 82.8237 100.626 83.126 100.609L83.1387 100.837C83.4372 100.82 83.7372 100.804 84.0381 100.79L84.0273 100.562C84.3277 100.548 84.6291 100.535 84.9316 100.523L84.9404 100.751C85.2394 100.739 85.5397 100.729 85.8408 100.72L85.834 100.493C86.1344 100.484 86.4358 100.476 86.7383 100.469L86.7432 100.697C87.0426 100.691 87.3432 100.686 87.6445 100.682L87.6416 100.454C87.9421 100.45 88.2436 100.447 88.5459 100.446L88.5469 100.675C88.6977 100.674 88.8488 100.674 89 100.674C89.1512 100.674 89.3023 100.674 89.4531 100.675V100.446Z" fill="#55A2F2" stroke="black" stroke-width="0.45679" stroke-dasharray="0.91 0.91"/>
<path d="M89 10.2288C99.1984 10.2288 108.421 11.6834 115.087 14.0286C118.421 15.2016 121.103 16.5934 122.946 18.1272C124.791 19.662 125.771 21.3161 125.771 23.0188C125.771 24.7215 124.791 26.3756 122.946 27.9104C121.103 29.4442 118.421 30.836 115.087 32.009C108.421 34.3542 99.1983 35.8088 89 35.8088C78.8017 35.8088 69.5785 34.3542 62.9131 32.009C59.5793 30.836 56.8975 29.4442 55.0537 27.9104C53.2087 26.3756 52.2285 24.7215 52.2285 23.0188C52.2285 21.3161 53.2087 19.662 55.0537 18.1272C56.8975 16.5934 59.5793 15.2016 62.9131 14.0286C69.5785 11.6834 78.8016 10.2288 89 10.2288Z" stroke="black" stroke-width="0.45679"/>
<rect x="52" y="70" width="74" height="44" fill="#55A2F2"/>
<path d="M125.773 23.0186V113.92" stroke="black" stroke-width="0.45679"/>
<path d="M52.2266 23.0186V113.92" stroke="black" stroke-width="0.45679"/>
<path d="M76.6975 19.304H79.3935C79.9535 19.304 80.4175 19.432 80.7775 19.688C81.1295 19.944 81.3135 20.344 81.3135 20.888C81.3135 21.232 81.2255 21.528 81.0655 21.768C80.8975 22.008 80.6655 22.184 80.3695 22.288C80.5055 22.32 80.6255 22.368 80.7295 22.432C80.8255 22.496 80.9055 22.568 80.9615 22.64C81.0175 22.72 81.0655 22.816 81.1055 22.928C81.1375 23.048 81.1615 23.152 81.1775 23.24C81.1935 23.328 81.2015 23.44 81.2175 23.584C81.2175 23.624 81.2255 23.696 81.2335 23.8C81.2415 23.912 81.2495 23.984 81.2495 24.016C81.2495 24.048 81.2575 24.112 81.2655 24.192C81.2735 24.28 81.2815 24.344 81.2895 24.376C81.2895 24.408 81.2975 24.464 81.3135 24.528C81.3295 24.592 81.3375 24.648 81.3535 24.68C81.3615 24.712 81.3775 24.752 81.3935 24.8C81.4095 24.848 81.4255 24.88 81.4495 24.912C81.4655 24.944 81.4895 24.976 81.5215 25H80.4495C80.4335 24.984 80.4175 24.96 80.4015 24.928C80.3855 24.896 80.3775 24.864 80.3695 24.832C80.3535 24.8 80.3455 24.768 80.3455 24.736C80.3375 24.704 80.3295 24.664 80.3215 24.616C80.3135 24.568 80.3135 24.52 80.3135 24.488L80.2975 24.344L80.2815 24.2C80.2815 24.168 80.2735 24.112 80.2735 24.032C80.2655 23.952 80.2655 23.896 80.2655 23.864C80.2335 23.4 80.1375 23.088 79.9695 22.912C79.8015 22.736 79.4815 22.648 79.0175 22.648H77.6895V25H76.6975V19.304ZM77.6895 20.12V21.904H79.0095C79.2015 21.904 79.3615 21.896 79.4975 21.872C79.6255 21.856 79.7615 21.816 79.8975 21.76C80.0335 21.704 80.1375 21.608 80.2095 21.48C80.2815 21.352 80.3215 21.192 80.3215 20.992C80.3215 20.816 80.2895 20.664 80.2255 20.544C80.1615 20.424 80.0655 20.336 79.9455 20.272C79.8255 20.216 79.7055 20.176 79.5775 20.152C79.4495 20.136 79.3055 20.12 79.1375 20.12H77.6895ZM82.1783 22.144C82.2743 21.216 82.8743 20.744 83.9863 20.744C84.4983 20.744 84.9143 20.848 85.2183 21.048C85.5223 21.256 85.6823 21.568 85.6823 21.992V24.088C85.6823 24.208 85.6903 24.288 85.7223 24.328C85.7543 24.376 85.8103 24.392 85.8983 24.392C85.9623 24.392 86.0263 24.392 86.1063 24.376V25.016C85.8663 25.08 85.6743 25.104 85.5143 25.104C85.1223 25.104 84.8983 24.944 84.8423 24.608C84.4903 24.944 84.0103 25.104 83.3943 25.104C82.9623 25.104 82.6263 25 82.3783 24.776C82.1223 24.552 82.0023 24.256 82.0023 23.872C82.0023 23.76 82.0103 23.648 82.0423 23.544C82.0663 23.448 82.0983 23.36 82.1303 23.28C82.1623 23.208 82.2183 23.136 82.2983 23.072C82.3783 23.008 82.4423 22.96 82.4903 22.912C82.5383 22.872 82.6263 22.832 82.7383 22.792C82.8503 22.76 82.9383 22.728 82.9943 22.712C83.0503 22.696 83.1463 22.672 83.2903 22.648C83.4263 22.632 83.5143 22.616 83.5623 22.608C83.6103 22.6 83.7063 22.584 83.8503 22.568C84.1703 22.528 84.3943 22.496 84.5143 22.464C84.6263 22.432 84.7063 22.392 84.7543 22.328C84.7863 22.288 84.8103 22.192 84.8103 22.032C84.8103 21.616 84.5223 21.408 83.9623 21.408C83.6583 21.408 83.4423 21.464 83.3063 21.576C83.1623 21.688 83.0743 21.88 83.0423 22.144H82.1783ZM84.8023 22.928C84.7303 22.968 84.6503 23 84.5623 23.032C84.4663 23.064 84.3943 23.08 84.3383 23.088C84.2823 23.096 84.1943 23.104 84.0743 23.12C83.9543 23.136 83.8743 23.152 83.8423 23.152C83.7303 23.168 83.6423 23.184 83.5783 23.2C83.5143 23.216 83.4343 23.232 83.3383 23.264C83.2423 23.296 83.1703 23.336 83.1223 23.384C83.0743 23.432 83.0263 23.488 82.9943 23.568C82.9543 23.648 82.9383 23.736 82.9383 23.84C82.9383 24.04 83.0023 24.192 83.1303 24.296C83.2583 24.408 83.4423 24.456 83.6823 24.456C84.0823 24.456 84.3943 24.352 84.6183 24.128C84.7383 24.008 84.8023 23.768 84.8023 23.416V22.928ZM90.5756 19.304V25H89.7196V24.432C89.4556 24.888 89.0156 25.112 88.3996 25.112C87.8156 25.112 87.3516 24.92 87.0076 24.52C86.6636 24.128 86.4956 23.6 86.4956 22.928C86.4956 22.272 86.6636 21.744 86.9996 21.352C87.3356 20.96 87.7916 20.76 88.3676 20.76C88.9436 20.76 89.3836 20.976 89.6796 21.408V19.304H90.5756ZM88.5356 21.496C88.1836 21.496 87.9116 21.624 87.7116 21.88C87.5116 22.136 87.4156 22.48 87.4156 22.912C87.4156 23.368 87.5116 23.728 87.7196 23.984C87.9276 24.248 88.2076 24.376 88.5676 24.376C88.9196 24.376 89.1996 24.248 89.3996 23.992C89.5996 23.736 89.7036 23.384 89.7036 22.928C89.7036 22.48 89.5996 22.128 89.3916 21.872C89.1836 21.624 88.9036 21.496 88.5356 21.496ZM92.4902 19.28V20.176H91.5782V19.28H92.4902ZM92.4902 20.872V25H91.5782V20.872H92.4902ZM95.3959 20.752C96.0199 20.752 96.5239 20.952 96.8999 21.344C97.2679 21.744 97.4599 22.272 97.4599 22.936C97.4599 23.608 97.2679 24.144 96.8999 24.536C96.5319 24.936 96.0279 25.128 95.3959 25.128C94.7479 25.128 94.2359 24.936 93.8599 24.536C93.4759 24.144 93.2919 23.608 93.2919 22.936C93.2919 22.272 93.4759 21.744 93.8599 21.344C94.2439 20.952 94.7559 20.752 95.3959 20.752ZM95.3799 21.472C95.0119 21.472 94.7319 21.608 94.5239 21.864C94.3159 22.128 94.2119 22.488 94.2119 22.936C94.2119 23.4 94.3159 23.768 94.5239 24.024C94.7319 24.288 95.0199 24.416 95.3879 24.416C95.7399 24.416 96.0199 24.288 96.2279 24.024C96.4359 23.76 96.5399 23.392 96.5399 22.928C96.5399 22.48 96.4359 22.12 96.2279 21.864C96.0199 21.608 95.7399 21.472 95.3799 21.472ZM101.498 22.072H100.626C100.57 21.64 100.274 21.416 99.7301 21.416C99.4901 21.416 99.3141 21.464 99.1861 21.544C99.0581 21.632 98.9941 21.752 98.9941 21.896C98.9941 21.944 98.9941 21.992 99.0021 22.024C99.0101 22.064 99.0261 22.096 99.0501 22.128C99.0741 22.16 99.0981 22.184 99.1141 22.2C99.1301 22.224 99.1701 22.248 99.2181 22.264C99.2661 22.288 99.2981 22.304 99.3301 22.32C99.3621 22.336 99.4101 22.352 99.4821 22.368C99.5461 22.384 99.6021 22.4 99.6421 22.408C99.6821 22.424 99.7461 22.44 99.8421 22.456C99.9301 22.472 100.002 22.488 100.05 22.496C100.258 22.544 100.402 22.584 100.498 22.608C100.594 22.632 100.73 22.68 100.906 22.752C101.082 22.824 101.218 22.896 101.306 22.976C101.386 23.056 101.466 23.16 101.538 23.296C101.61 23.432 101.65 23.584 101.65 23.76C101.65 24.176 101.482 24.512 101.162 24.752C100.834 25 100.394 25.12 99.8501 25.12C99.2581 25.12 98.8101 25 98.4981 24.752C98.1781 24.512 98.0101 24.152 97.9941 23.68H98.8661C98.9141 24.2 99.2421 24.456 99.8661 24.456C100.13 24.456 100.346 24.408 100.506 24.296C100.666 24.184 100.754 24.04 100.754 23.856C100.754 23.768 100.73 23.688 100.69 23.624C100.65 23.56 100.586 23.512 100.498 23.464C100.402 23.416 100.314 23.384 100.234 23.36C100.154 23.336 100.042 23.304 99.9061 23.272L99.8581 23.264C99.8421 23.264 99.8341 23.256 99.8181 23.256C99.8021 23.256 99.7861 23.248 99.7701 23.24C99.1781 23.096 98.8101 22.984 98.6501 22.904C98.2661 22.728 98.0821 22.424 98.0821 22C98.0821 21.616 98.2261 21.312 98.5301 21.088C98.8261 20.864 99.2421 20.752 99.7701 20.752C100.274 20.752 100.69 20.864 101.01 21.08C101.33 21.304 101.498 21.632 101.498 22.072Z" fill="black"/>
<path d="M36.304 75.3822L42 75.3822L42 76.3822L39.44 76.3822L39.44 78.9902L42 78.9902L42 79.9902L36.304 79.9902L36.304 78.9902L38.568 78.9902L38.568 76.3822L36.304 76.3822L36.304 75.3822ZM40.712 70.6248C41.16 70.7288 41.512 70.9528 41.76 71.2888C42.016 71.6248 42.136 72.0328 42.136 72.4968C42.136 73.1208 41.936 73.6168 41.536 73.9848C41.136 74.3528 40.616 74.5288 39.984 74.5288C39.344 74.5288 38.808 74.3448 38.384 73.9688C37.968 73.5928 37.752 73.1128 37.752 72.5288C37.752 71.9288 37.96 71.4488 38.376 71.0968C38.792 70.7448 39.352 70.5688 40.064 70.5688L40.16 70.5688L40.16 73.6168C40.576 73.6088 40.904 73.5048 41.128 73.3048C41.352 73.1128 41.464 72.8328 41.464 72.4808C41.464 72.2328 41.408 72.0328 41.288 71.8728C41.168 71.7128 40.976 71.5928 40.712 71.4968L40.712 70.6248ZM39.552 71.4808C39.208 71.5128 38.936 71.6168 38.736 71.8088C38.536 72.0008 38.432 72.2408 38.432 72.5368C38.432 72.8408 38.528 73.0808 38.72 73.2648C38.912 73.4488 39.192 73.5608 39.552 73.6008L39.552 71.4808ZM36.28 68.9395L37.176 68.9395L37.176 69.8515L36.28 69.8515L36.28 68.9395ZM37.872 68.9395L42 68.9395L42 69.8515L37.872 69.8515L37.872 68.9395ZM37.872 64.1618L41.52 64.1618C42.232 64.1618 42.76 64.3138 43.096 64.6178C43.44 64.9218 43.608 65.4258 43.608 66.1458C43.608 67.2818 43.192 67.8978 42.352 67.9938L42.352 67.0818C42.768 67.0018 42.968 66.6818 42.968 66.1218C42.968 65.7458 42.872 65.4738 42.68 65.2978C42.488 65.1218 42.184 65.0338 41.752 65.0338L41.264 65.0338C41.728 65.3378 41.96 65.7698 41.96 66.3458C41.96 66.8978 41.776 67.3378 41.408 67.6578C41.04 67.9778 40.536 68.1378 39.904 68.1378C39.264 68.1378 38.744 67.9698 38.352 67.6338C37.96 67.2978 37.76 66.8578 37.76 66.2978C37.76 66.0098 37.816 65.7618 37.928 65.5618C38.04 65.3698 38.208 65.1858 38.448 65.0098L37.872 65.0098L37.872 64.1618ZM38.496 66.1378C38.496 66.4818 38.624 66.7538 38.864 66.9458C39.112 67.1378 39.456 67.2338 39.888 67.2338C40.304 67.2338 40.64 67.1378 40.88 66.9378C41.128 66.7378 41.248 66.4738 41.248 66.1378C41.248 65.8018 41.128 65.5298 40.872 65.3298C40.616 65.1378 40.272 65.0338 39.84 65.0338C39.424 65.0338 39.096 65.1378 38.856 65.3298C38.616 65.5218 38.496 65.7938 38.496 66.1378ZM36.304 62.2916L38.44 62.2916C37.992 61.9876 37.768 61.5556 37.768 60.9876C37.768 60.5396 37.896 60.1956 38.136 59.9396C38.376 59.6916 38.736 59.5636 39.2 59.5636L42 59.5636L42 60.4836L39.496 60.4836C39.184 60.4836 38.944 60.5396 38.776 60.6516C38.616 60.7636 38.528 60.9716 38.528 61.2836C38.528 61.6356 38.648 61.8916 38.872 62.0516C39.104 62.2116 39.408 62.2916 39.784 62.2916L42 62.2916L42 63.1956L36.304 63.1956L36.304 62.2916ZM37.872 56.5938L38.536 56.5938L38.536 57.4258L40.712 57.4258C40.84 57.4258 40.936 57.4258 40.984 57.4178C41.032 57.4178 41.088 57.4018 41.152 57.3698C41.216 57.3458 41.256 57.2978 41.272 57.2338C41.296 57.1698 41.304 57.0738 41.304 56.9538C41.304 56.8098 41.304 56.6898 41.288 56.5938L42.008 56.5938C42.032 56.7778 42.04 56.9858 42.04 57.2098C42.04 57.3698 42.032 57.5138 42.008 57.6338C41.984 57.7538 41.952 57.8498 41.92 57.9298C41.888 58.0098 41.84 58.0818 41.76 58.1298C41.68 58.1858 41.616 58.2258 41.568 58.2578C41.52 58.2898 41.424 58.3058 41.296 58.3218C41.168 58.3378 41.072 58.3378 41.008 58.3378L40.656 58.3378L40.608 58.3378L40.56 58.3378L40.504 58.3378L38.536 58.3378L38.536 59.0258L37.872 59.0258L37.872 58.3378L36.632 58.3378L36.632 57.4258L37.872 57.4258L37.872 56.5938Z" fill="black"/>
<path d="M45 22L42.6906 26H47.3094L45 22ZM45 115.5L47.3094 111.5H42.6906L45 115.5ZM45 25.6H44.6V111.9H45H45.4V25.6H45Z" fill="black"/>
<path d="M134.304 114.643L134.304 113.627L138.64 112.587L134.304 111.419L134.304 110.403L138.64 109.275L134.304 108.203L134.304 107.187L140 108.763L140 109.779L135.624 110.931L140 112.107L140 113.139L134.304 114.643ZM137.144 107.009C136.216 106.913 135.744 106.313 135.744 105.201C135.744 104.689 135.848 104.273 136.048 103.969C136.256 103.665 136.568 103.505 136.992 103.505L139.088 103.505C139.208 103.505 139.288 103.497 139.328 103.465C139.376 103.433 139.392 103.377 139.392 103.289C139.392 103.225 139.392 103.161 139.376 103.081L140.016 103.081C140.08 103.321 140.104 103.513 140.104 103.673C140.104 104.065 139.944 104.289 139.608 104.345C139.944 104.697 140.104 105.177 140.104 105.793C140.104 106.225 140 106.561 139.776 106.809C139.552 107.065 139.256 107.185 138.872 107.185C138.76 107.185 138.648 107.177 138.544 107.145C138.448 107.121 138.36 107.089 138.28 107.057C138.208 107.025 138.136 106.969 138.072 106.889C138.008 106.809 137.96 106.745 137.912 106.697C137.872 106.649 137.832 106.561 137.792 106.449C137.76 106.337 137.728 106.249 137.712 106.193C137.696 106.137 137.672 106.041 137.648 105.897C137.632 105.761 137.616 105.673 137.608 105.625C137.6 105.577 137.584 105.481 137.568 105.337C137.528 105.017 137.496 104.793 137.464 104.673C137.432 104.561 137.392 104.481 137.328 104.433C137.288 104.401 137.192 104.377 137.032 104.377C136.616 104.377 136.408 104.665 136.408 105.225C136.408 105.529 136.464 105.745 136.576 105.881C136.688 106.025 136.88 106.113 137.144 106.145L137.144 107.009ZM137.928 104.385C137.968 104.457 138 104.537 138.032 104.625C138.064 104.721 138.08 104.793 138.088 104.849C138.096 104.905 138.104 104.993 138.12 105.113C138.136 105.233 138.152 105.313 138.152 105.345C138.168 105.457 138.184 105.545 138.2 105.609C138.216 105.673 138.232 105.753 138.264 105.849C138.296 105.945 138.336 106.017 138.384 106.065C138.432 106.113 138.488 106.161 138.568 106.193C138.648 106.233 138.736 106.249 138.84 106.249C139.04 106.249 139.192 106.185 139.296 106.057C139.408 105.929 139.456 105.745 139.456 105.505C139.456 105.105 139.352 104.793 139.128 104.569C139.008 104.449 138.768 104.385 138.416 104.385L137.928 104.385ZM135.872 100.508L136.536 100.508L136.536 101.34L138.712 101.34C138.84 101.34 138.936 101.34 138.984 101.332C139.032 101.332 139.088 101.316 139.152 101.284C139.216 101.26 139.256 101.212 139.272 101.148C139.296 101.084 139.304 100.988 139.304 100.868C139.304 100.724 139.304 100.604 139.288 100.508L140.008 100.508C140.032 100.692 140.04 100.9 140.04 101.124C140.04 101.284 140.032 101.428 140.008 101.548C139.984 101.668 139.952 101.764 139.92 101.844C139.888 101.924 139.84 101.996 139.76 102.044C139.68 102.1 139.616 102.14 139.568 102.172C139.52 102.204 139.424 102.22 139.296 102.236C139.168 102.252 139.072 102.252 139.008 102.252L138.656 102.252L138.608 102.252L138.56 102.252L138.504 102.252L136.536 102.252L136.536 102.94L135.872 102.94L135.872 102.252L134.632 102.252L134.632 101.34L135.872 101.34L135.872 100.508ZM138.712 96.1638C139.16 96.2678 139.512 96.4918 139.76 96.8278C140.016 97.1638 140.136 97.5718 140.136 98.0358C140.136 98.6598 139.936 99.1558 139.536 99.5238C139.136 99.8918 138.616 100.068 137.984 100.068C137.344 100.068 136.808 99.8838 136.384 99.5078C135.968 99.1318 135.752 98.6518 135.752 98.0678C135.752 97.4678 135.96 96.9878 136.376 96.6358C136.792 96.2838 137.352 96.1078 138.064 96.1078L138.16 96.1078L138.16 99.1558C138.576 99.1478 138.904 99.0438 139.128 98.8438C139.352 98.6518 139.464 98.3718 139.464 98.0198C139.464 97.7718 139.408 97.5718 139.288 97.4118C139.168 97.2518 138.976 97.1318 138.712 97.0358L138.712 96.1638ZM137.552 97.0198C137.208 97.0518 136.936 97.1558 136.736 97.3478C136.536 97.5398 136.432 97.7798 136.432 98.0758C136.432 98.3798 136.528 98.6198 136.72 98.8038C136.912 98.9878 137.192 99.0998 137.552 99.1398L137.552 97.0198ZM135.792 93.0785L136.664 93.0785C136.648 93.2385 136.64 93.3505 136.64 93.3985C136.64 94.1985 137.16 94.5905 138.184 94.5905L140 94.5905L140 95.4945L135.872 95.4945L135.872 94.6385L136.696 94.6385C136.088 94.3505 135.776 93.8865 135.776 93.2545L135.792 93.0785ZM139.136 86.3595L140 86.3595L140 90.2635L134.304 90.2635L134.304 89.2555L139.136 89.2555L139.136 86.3595ZM138.712 82.0857C139.16 82.1897 139.512 82.4137 139.76 82.7497C140.016 83.0857 140.136 83.4937 140.136 83.9577C140.136 84.5817 139.936 85.0777 139.536 85.4457C139.136 85.8137 138.616 85.9897 137.984 85.9897C137.344 85.9897 136.808 85.8057 136.384 85.4297C135.968 85.0537 135.752 84.5737 135.752 83.9897C135.752 83.3897 135.96 82.9097 136.376 82.5577C136.792 82.2057 137.352 82.0297 138.064 82.0297L138.16 82.0297L138.16 85.0777C138.576 85.0697 138.904 84.9657 139.128 84.7657C139.352 84.5737 139.464 84.2937 139.464 83.9417C139.464 83.6937 139.408 83.4937 139.288 83.3337C139.168 83.1737 138.976 83.0537 138.712 82.9577L138.712 82.0857ZM137.552 82.9417C137.208 82.9737 136.936 83.0777 136.736 83.2697C136.536 83.4617 136.432 83.7017 136.432 83.9977C136.432 84.3017 136.528 84.5417 136.72 84.7257C136.912 84.9097 137.192 85.0217 137.552 85.0617L137.552 82.9417ZM135.872 81.7524L135.872 80.7604L139.048 79.7044L135.872 78.6884L135.872 77.7444L140.008 79.2244L140.008 80.2484L135.872 81.7524ZM138.712 73.492C139.16 73.596 139.512 73.82 139.76 74.156C140.016 74.492 140.136 74.9 140.136 75.364C140.136 75.988 139.936 76.484 139.536 76.852C139.136 77.22 138.616 77.396 137.984 77.396C137.344 77.396 136.808 77.212 136.384 76.836C135.968 76.46 135.752 75.98 135.752 75.396C135.752 74.796 135.96 74.316 136.376 73.964C136.792 73.612 137.352 73.436 138.064 73.436L138.16 73.436L138.16 76.484C138.576 76.476 138.904 76.372 139.128 76.172C139.352 75.98 139.464 75.7 139.464 75.348C139.464 75.1 139.408 74.9 139.288 74.74C139.168 74.58 138.976 74.46 138.712 74.364L138.712 73.492ZM137.552 74.348C137.208 74.38 136.936 74.484 136.736 74.676C136.536 74.868 136.432 75.108 136.432 75.404C136.432 75.708 136.528 75.948 136.72 76.132C136.912 76.316 137.192 76.428 137.552 76.468L137.552 74.348ZM134.304 71.8067L140 71.8067L140 72.7107L134.304 72.7107L134.304 71.8067Z" fill="black"/>
<path d="M131 71L128.691 75L133.309 75L131 71ZM131 114L133.309 110L128.691 110L131 114ZM131 74.6L130.6 74.6L130.6 110.4L131 110.4L131.4 110.4L131.4 74.6L131 74.6Z" fill="black"/>
</svg>
