<svg width="176" height="136" viewBox="0 0 176 136" fill="none" xmlns="http://www.w3.org/2000/svg">
<path d="M0 16C0 7.16344 7.16344 0 16 0H160C168.837 0 176 7.16344 176 16V120C176 128.837 168.837 136 160 136H16C7.16344 136 0 128.837 0 120V16Z" fill="white"/>
<path d="M16 0.5H160C168.56 0.5 175.5 7.43959 175.5 16V120C175.5 128.56 168.56 135.5 160 135.5H16C7.43959 135.5 0.5 128.56 0.5 120V16C0.5 7.43959 7.43959 0.5 16 0.5Z" stroke="#B02E0C" stroke-opacity="0.16"/>
<rect x="13.2327" y="53.2327" width="9.53469" height="22.5347" rx="2.86939" fill="white" stroke="black" stroke-width="0.465306"/>
<path d="M9.42 78.728H11.262C11.742 78.728 12.12 78.848 12.402 79.076C12.684 79.304 12.828 79.646 12.828 80.102C12.828 80.552 12.684 80.894 12.408 81.122C12.126 81.35 11.76 81.464 11.31 81.464H10.35V83H9.42V78.728ZM10.35 79.496V80.726H11.184C11.67 80.726 11.916 80.522 11.916 80.114C11.916 79.706 11.67 79.496 11.19 79.496H10.35ZM16.206 83H15.336C15.312 82.922 15.288 82.82 15.276 82.7C15.018 82.964 14.682 83.09 14.274 83.09C13.932 83.09 13.662 83.012 13.464 82.844C13.272 82.676 13.17 82.448 13.17 82.154C13.17 82.022 13.188 81.908 13.224 81.806C13.26 81.71 13.314 81.626 13.392 81.554C13.47 81.488 13.542 81.434 13.614 81.386C13.686 81.344 13.782 81.308 13.902 81.278C14.028 81.254 14.13 81.23 14.202 81.218C14.28 81.206 14.388 81.188 14.526 81.17C14.826 81.134 15.024 81.092 15.126 81.044C15.228 81.002 15.282 80.918 15.282 80.798C15.282 80.522 15.096 80.384 14.724 80.384C14.526 80.384 14.382 80.42 14.292 80.492C14.196 80.564 14.136 80.684 14.112 80.858H13.314C13.362 80.162 13.836 79.814 14.748 79.814C15.648 79.814 16.098 80.15 16.098 80.822V82.16C16.098 82.556 16.134 82.832 16.206 83ZM15.27 81.494C15.174 81.554 14.97 81.614 14.67 81.662C14.418 81.698 14.256 81.752 14.178 81.812C14.094 81.884 14.046 81.992 14.046 82.124C14.046 82.25 14.088 82.352 14.172 82.424C14.256 82.496 14.37 82.532 14.514 82.532C14.742 82.532 14.928 82.472 15.066 82.352C15.204 82.232 15.27 82.058 15.27 81.842V81.494ZM18.6973 79.904H19.5433L18.4933 83H17.5393L16.4773 79.904H17.3773L18.0373 82.016L18.6973 79.904ZM22.7985 82.04C22.7025 82.376 22.5225 82.634 22.2645 82.814C22.0065 83 21.7005 83.09 21.3405 83.09C20.8665 83.09 20.4825 82.946 20.1945 82.646C19.9065 82.352 19.7625 81.962 19.7625 81.47C19.7625 80.99 19.9065 80.594 20.2005 80.282C20.4885 79.97 20.8605 79.814 21.3165 79.814C21.7845 79.814 22.1565 79.976 22.4325 80.294C22.7085 80.612 22.8465 81.044 22.8465 81.584V81.668H20.6265C20.6265 81.938 20.6925 82.142 20.8185 82.28C20.9445 82.424 21.1245 82.49 21.3525 82.49C21.6525 82.49 21.8625 82.34 21.9825 82.04H22.7985ZM21.9765 81.128C21.9585 80.924 21.8925 80.762 21.7785 80.63C21.6705 80.498 21.5145 80.432 21.3105 80.432C21.1245 80.432 20.9685 80.498 20.8425 80.618C20.7225 80.744 20.6445 80.912 20.6205 81.128H21.9765ZM25.3438 79.85V80.636C25.2238 80.612 25.1098 80.6 25.0138 80.6C24.7318 80.6 24.5278 80.69 24.3958 80.87C24.2638 81.05 24.1978 81.284 24.1978 81.584V83H23.3458V79.904H24.1558V80.474C24.3598 80.048 24.6898 79.832 25.1578 79.832C25.1938 79.832 25.2598 79.838 25.3438 79.85Z" fill="black"/>
<path d="M19.6662 48.3765V49H17.3211V45.687H18.0469V48.3765H19.6662Z" fill="black"/>
<path d="M13 51L14.551 51.8955L14.551 50.1045L13 51ZM23 51L21.449 50.1045L21.449 51.8955L23 51ZM14.3959 51L14.3959 51.1551L21.6041 51.1551L21.6041 51L21.6041 50.8449L14.3959 50.8449L14.3959 51Z" fill="black" fill-opacity="0.9"/>
<path d="M26.7952 62.5239H27.5257L28.0562 64.776L28.6378 62.5239H29.3218L29.8941 64.8039L30.4432 62.5239H31.1598L30.2664 65.8369H29.5405L28.9728 63.5755L28.4145 65.8369H27.6746L26.7952 62.5239Z" fill="black"/>
<path d="M25 53L24.1045 54.551L25.8955 54.551L25 53ZM25 76L25.8955 74.449L24.1045 74.449L25 76ZM25 54.3959L24.8449 54.3959L24.8449 74.6041L25 74.6041L25.1551 74.6041L25.1551 54.3959L25 54.3959Z" fill="black" fill-opacity="0.9"/>
<rect x="39.2" y="18.2" width="119.6" height="89.6" rx="4.8" stroke="black" stroke-width="0.4"/>
<path d="M39 28H159" stroke="black" stroke-opacity="0.4" stroke-width="0.4"/>
<path d="M39 38H159" stroke="black" stroke-opacity="0.4" stroke-width="0.4"/>
<path d="M39 48H159" stroke="black" stroke-opacity="0.4" stroke-width="0.4"/>
<path d="M39 58H159" stroke="black" stroke-opacity="0.4" stroke-width="0.4"/>
<path d="M39 68H159" stroke="black" stroke-opacity="0.4" stroke-width="0.4"/>
<path d="M39 78H159" stroke="black" stroke-opacity="0.4" stroke-width="0.4"/>
<path d="M39 88H159" stroke="black" stroke-opacity="0.4" stroke-width="0.4"/>
<path d="M39 98H159" stroke="black" stroke-opacity="0.4" stroke-width="0.4"/>
<path d="M51.5 18V108" stroke="black" stroke-opacity="0.4" stroke-width="0.4"/>
<path d="M63.5 18V108" stroke="black" stroke-opacity="0.4" stroke-width="0.4"/>
<path d="M75.5 18V108" stroke="black" stroke-opacity="0.4" stroke-width="0.4"/>
<path d="M87.5 18V108" stroke="black" stroke-opacity="0.4" stroke-width="0.4"/>
<path d="M99.5 18V108" stroke="black" stroke-opacity="0.4" stroke-width="0.4"/>
<path d="M111.5 18V108" stroke="black" stroke-opacity="0.4" stroke-width="0.4"/>
<path d="M123.5 18V108" stroke="black" stroke-opacity="0.4" stroke-width="0.4"/>
<path d="M135.5 18V108" stroke="black" stroke-opacity="0.4" stroke-width="0.4"/>
<path d="M147.5 18V108" stroke="black" stroke-opacity="0.4" stroke-width="0.4"/>
<rect width="60" height="28" transform="translate(69.5 49)" fill="white"/>
<path d="M81.844 60L79.758 60.014C79.674 59.02 79.044 58.53 77.868 58.53C77.364 58.53 76.972 58.628 76.692 58.824C76.412 59.02 76.258 59.3 76.258 59.664C76.258 59.776 76.286 59.888 76.314 59.986C76.356 60.07 76.426 60.154 76.524 60.238C76.636 60.322 76.734 60.378 76.832 60.434C76.944 60.49 77.098 60.546 77.294 60.602C77.49 60.658 77.672 60.714 77.84 60.77C78.008 60.812 78.232 60.868 78.526 60.952C78.834 61.022 79.086 61.092 79.31 61.162C80.29 61.442 81.032 61.792 81.508 62.212C81.984 62.632 82.222 63.234 82.222 64.018C82.222 64.578 82.11 65.082 81.872 65.502C81.648 65.922 81.326 66.258 80.934 66.51C80.542 66.762 80.108 66.944 79.632 67.056C79.156 67.168 78.652 67.238 78.12 67.238C76.776 67.238 75.712 66.916 74.956 66.3C74.2 65.684 73.808 64.802 73.794 63.682H75.964C76.006 64.928 76.762 65.558 78.218 65.558C78.792 65.558 79.24 65.432 79.576 65.194C79.912 64.956 80.066 64.634 80.066 64.228C80.066 63.878 79.926 63.626 79.618 63.472C79.31 63.304 78.68 63.094 77.7 62.814C77.644 62.8 77.602 62.786 77.574 62.786C77.546 62.772 77.518 62.758 77.462 62.744C77.42 62.73 77.378 62.716 77.336 62.716C77 62.618 76.776 62.548 76.636 62.506C76.51 62.464 76.3 62.394 76.02 62.296C75.74 62.184 75.53 62.1 75.404 62.016C75.264 61.932 75.11 61.806 74.914 61.666C74.718 61.512 74.592 61.358 74.508 61.19C74.424 61.022 74.34 60.826 74.27 60.588C74.2 60.35 74.172 60.098 74.172 59.818C74.172 58.908 74.522 58.18 75.222 57.634C75.922 57.102 76.846 56.822 78.008 56.822C79.128 56.822 80.038 57.088 80.752 57.62C81.452 58.152 81.816 58.936 81.844 60ZM90.1238 59.776V67H88.2338V65.978C87.6738 66.804 86.8898 67.21 85.8818 67.21C85.0838 67.21 84.4678 67 84.0198 66.566C83.5718 66.132 83.3618 65.488 83.3618 64.634V59.776H85.3638V63.906C85.3638 64.186 85.3638 64.396 85.3918 64.564C85.4198 64.732 85.4618 64.886 85.5458 65.054C85.6158 65.222 85.7418 65.348 85.9098 65.432C86.0778 65.516 86.3018 65.544 86.5818 65.544C87.6178 65.544 88.1498 64.872 88.1498 63.5V59.776H90.1238ZM96.3366 59.65V61.484C96.0566 61.428 95.7906 61.4 95.5666 61.4C94.9086 61.4 94.4326 61.61 94.1246 62.03C93.8166 62.45 93.6626 62.996 93.6626 63.696V67H91.6746V59.776H93.5646V61.106C94.0406 60.112 94.8106 59.608 95.9026 59.608C95.9866 59.608 96.1406 59.622 96.3366 59.65ZM101.022 57.032V58.488C100.602 58.474 100.392 58.46 100.364 58.46C100 58.46 99.762 58.516 99.65 58.614C99.538 58.712 99.482 58.908 99.482 59.202V59.776H100.896V61.12H99.496V67H97.508V61.12H96.332V59.776H97.508V59.398C97.508 58.558 97.69 57.942 98.082 57.564C98.46 57.186 99.09 56.99 99.986 56.99C100.084 56.99 100.196 57.004 100.308 57.004C100.42 57.004 100.56 57.018 100.7 57.018C100.84 57.032 100.938 57.032 101.022 57.032ZM108.47 67H106.44C106.384 66.818 106.328 66.58 106.3 66.3C105.698 66.916 104.914 67.21 103.962 67.21C103.164 67.21 102.534 67.028 102.072 66.636C101.624 66.244 101.386 65.712 101.386 65.026C101.386 64.718 101.428 64.452 101.512 64.214C101.596 63.99 101.722 63.794 101.904 63.626C102.086 63.472 102.254 63.346 102.422 63.234C102.59 63.136 102.814 63.052 103.094 62.982C103.388 62.926 103.626 62.87 103.794 62.842C103.976 62.814 104.228 62.772 104.55 62.73C105.25 62.646 105.712 62.548 105.95 62.436C106.188 62.338 106.314 62.142 106.314 61.862C106.314 61.218 105.88 60.896 105.012 60.896C104.55 60.896 104.214 60.98 104.004 61.148C103.78 61.316 103.64 61.596 103.584 62.002H101.722C101.834 60.378 102.94 59.566 105.068 59.566C107.168 59.566 108.218 60.35 108.218 61.918V65.04C108.218 65.964 108.302 66.608 108.47 67ZM106.286 63.486C106.062 63.626 105.586 63.766 104.886 63.878C104.298 63.962 103.92 64.088 103.738 64.228C103.542 64.396 103.43 64.648 103.43 64.956C103.43 65.25 103.528 65.488 103.724 65.656C103.92 65.824 104.186 65.908 104.522 65.908C105.054 65.908 105.488 65.768 105.81 65.488C106.132 65.208 106.286 64.802 106.286 64.298V63.486ZM116.677 64.214C116.551 65.152 116.187 65.88 115.571 66.412C114.955 66.93 114.171 67.196 113.219 67.196C112.099 67.196 111.217 66.846 110.545 66.174C109.873 65.488 109.537 64.578 109.537 63.444C109.537 62.282 109.873 61.344 110.545 60.63C111.217 59.93 112.127 59.566 113.247 59.566C114.199 59.566 114.983 59.818 115.599 60.308C116.201 60.798 116.551 61.456 116.635 62.296H114.689C114.535 61.47 114.059 61.05 113.261 61.05C112.715 61.05 112.295 61.26 111.987 61.68C111.679 62.1 111.539 62.674 111.539 63.416C111.539 64.13 111.679 64.69 111.973 65.082C112.267 65.474 112.687 65.67 113.219 65.67C114.087 65.67 114.591 65.194 114.759 64.214H116.677ZM124.618 64.76C124.394 65.544 123.974 66.146 123.372 66.566C122.77 67 122.056 67.21 121.216 67.21C120.11 67.21 119.214 66.874 118.542 66.174C117.87 65.488 117.534 64.578 117.534 63.43C117.534 62.31 117.87 61.386 118.556 60.658C119.228 59.93 120.096 59.566 121.16 59.566C122.252 59.566 123.12 59.944 123.764 60.686C124.408 61.428 124.73 62.436 124.73 63.696V63.892H119.55C119.55 64.522 119.704 64.998 119.998 65.32C120.292 65.656 120.712 65.81 121.244 65.81C121.944 65.81 122.434 65.46 122.714 64.76H124.618ZM122.7 62.632C122.658 62.156 122.504 61.778 122.238 61.47C121.986 61.162 121.622 61.008 121.146 61.008C120.712 61.008 120.348 61.162 120.054 61.442C119.774 61.736 119.592 62.128 119.536 62.632H122.7Z" fill="black"/>
<path d="M165.018 62.728H165.96L166.644 65.632L167.394 62.728H168.276L169.014 65.668L169.722 62.728H170.646L169.494 67H168.558L167.826 64.084L167.106 67H166.152L165.018 62.728Z" fill="black"/>
<path d="M163 18L161.845 20L164.155 20L163 18ZM163 108L164.155 106L161.845 106L163 108ZM163 19.8L162.8 19.8L162.8 106.2L163 106.2L163.2 106.2L163.2 19.8L163 19.8Z" fill="black" fill-opacity="0.9"/>
<path d="M39 113L41 114.155V111.845L39 113ZM159 113L157 111.845V114.155L159 113ZM40.8 113V113.2H157.2V113V112.8H40.8V113Z" fill="black" fill-opacity="0.9"/>
<path d="M100.438 118.196V119H97.414V114.728H98.35V118.196H100.438Z" fill="black"/>
</svg>
