<svg width="58" height="58" viewBox="0 0 58 58" fill="none" xmlns="http://www.w3.org/2000/svg">
<rect width="58" height="58" rx="14" fill="#F3F3F3"/>
<rect x="0.5" y="0.5" width="57" height="57" rx="13.5" stroke="#B02E0C" stroke-opacity="0.04"/>
<g clip-path="url(#clip0_2436_114861)">
<mask id="path-3-inside-1_2436_114861" fill="white">
<path d="M36.7502 24.4H32.2407C31.7856 24.4004 31.3414 24.2604 30.9688 23.999L24.0757 19.169C23.9448 19.0812 23.7909 19.034 23.6333 19.0333H20.4555C19.9841 19.0345 19.5248 18.8846 19.1447 18.6058C18.7646 18.327 18.4838 17.9339 18.3433 17.4839L15.6255 8.88421C15.5201 8.55216 15.4945 8.19993 15.5508 7.85613C15.6071 7.51233 15.7438 7.18668 15.9497 6.90564C16.1556 6.62461 16.4249 6.39612 16.7357 6.23876C17.0465 6.08139 17.3901 5.99959 17.7384 6.00001H28.5944C29.1518 5.9993 29.6889 6.20935 30.0979 6.58804L38.2529 14.1136C38.4776 14.3214 38.657 14.5734 38.7798 14.8537C38.9026 15.1341 38.9662 15.4367 38.9667 15.7428V22.1828C38.9663 22.7706 38.7326 23.3342 38.3171 23.7499C37.9015 24.1656 37.338 24.3994 36.7502 24.4ZM40.5161 13.3086C39.9576 13.3088 39.4194 13.0992 39.0081 12.7214L35.8931 9.84407C35.5662 9.54133 35.338 9.1471 35.2384 8.71278C35.1388 8.27846 35.1724 7.82421 35.3348 7.40926C35.4971 6.99431 35.7808 6.6379 36.1487 6.38652C36.5166 6.13514 36.9517 6.00045 37.3973 6.00001H49.7836C50.3712 6.00062 50.9346 6.23433 51.3502 6.64986C51.7657 7.06539 51.9994 7.62879 52 8.21644V8.36517C51.9979 8.84337 51.8421 9.30823 51.5557 9.69116C51.2692 10.0741 50.8673 10.3548 50.4092 10.4919C40.3727 13.4443 40.9707 13.3086 40.5161 13.3086ZM42.7164 24.4C42.1288 24.3994 41.5654 24.1657 41.1499 23.7502C40.7343 23.3346 40.5006 22.7712 40.5 22.1836V16.6636C40.502 16.1855 40.6576 15.7208 40.9439 15.338C41.2303 14.9552 41.6321 14.6746 42.0901 14.5376L49.158 12.4553C49.4889 12.3578 49.838 12.3389 50.1776 12.4001C50.5171 12.4614 50.8377 12.601 51.1137 12.808C51.3897 13.015 51.6135 13.2836 51.7674 13.5924C51.9213 13.9012 52.0009 14.2417 52 14.5867V21.7251C51.997 22.2805 51.7868 22.8147 51.4106 23.2232C51.0344 23.6318 50.5193 23.8852 49.966 23.9339C43.1695 24.4935 44.7719 24.4 42.7164 24.4ZM48.2157 41.7696L43.0515 36.6C42.7729 36.3201 42.5738 35.9711 42.4748 35.5889C42.3757 35.2066 42.3803 34.8049 42.488 34.4249L44.502 27.3616C44.6271 26.9294 44.88 26.5452 45.2276 26.2595C45.5752 25.9737 46.0011 25.7999 46.4493 25.7608L49.5996 25.4994C49.905 25.474 50.2124 25.5121 50.5024 25.6116C50.7923 25.711 51.0585 25.8694 51.2841 26.0769C51.5097 26.2844 51.6898 26.5365 51.813 26.8171C51.9362 27.0977 51.9999 27.4009 52 27.7074V40.2041C52.0001 40.6426 51.8702 41.0713 51.6265 41.4359C51.3829 41.8004 51.0365 42.0845 50.6313 42.2522C50.2261 42.4198 49.7803 42.4634 49.3503 42.3775C48.9203 42.2916 48.5254 42.0801 48.2157 41.7696ZM14.1949 19.0333H8.2149C7.62752 19.0323 7.06451 18.7984 6.64931 18.3829C6.23411 17.9675 6.00061 17.4043 6 16.8169V8.21644C6.00061 7.62879 6.23432 7.06539 6.64985 6.64986C7.06538 6.23433 7.62879 6.00062 8.21643 6.00001H11.4778C11.9492 5.99889 12.4085 6.1487 12.7886 6.42751C13.1687 6.70633 13.4495 7.09949 13.59 7.54944L16.3071 16.1491C16.4125 16.4811 16.4381 16.8333 16.3818 17.177C16.3255 17.5208 16.1889 17.8464 15.9831 18.1274C15.7773 18.4084 15.5081 18.6369 15.1974 18.7943C14.8867 18.9517 14.5432 19.0336 14.1949 19.0333ZM6 37.6005V22.7831C6.00004 22.2381 6.20086 21.7122 6.56412 21.3059C6.92737 20.8997 7.42758 20.6415 7.96917 20.5807C8.51077 20.5199 9.05578 20.6607 9.50007 20.9764C9.94436 21.292 10.2568 21.7603 10.3777 22.2917L13.2557 34.9509C13.3498 35.3683 13.3215 35.804 13.1741 36.2058C13.0267 36.6075 12.7664 36.9581 12.4247 37.2156L9.54583 39.3738C9.21645 39.6203 8.82496 39.7704 8.41517 39.8071C8.00538 39.8438 7.59345 39.7658 7.22547 39.5818C6.85748 39.3978 6.54796 39.115 6.33154 38.7651C6.11511 38.4151 6.00032 38.0119 6 37.6005ZM15.6508 52H8.21413C7.62688 51.9988 7.06407 51.7648 6.64904 51.3493C6.234 50.9339 6.00061 50.3708 6 49.7836V45.0578C6.00097 44.7141 6.08141 44.3753 6.23502 44.0678C6.38863 43.7603 6.61125 43.4925 6.8855 43.2853L13.7579 38.1318C14.0213 37.9328 14.326 37.7956 14.6495 37.7304C14.9731 37.6651 15.3071 37.6733 15.627 37.7546L18.8654 38.5672C19.2128 38.6546 19.5339 38.825 19.8009 39.0638C20.068 39.3026 20.2731 39.6026 20.3988 39.938L21.6116 43.1695C21.735 43.4984 21.7784 43.8519 21.7384 44.2008C21.6984 44.5498 21.5762 44.8842 21.3816 45.1767L17.4931 51.0125C17.2914 51.3164 17.0176 51.5656 16.6961 51.7379C16.3746 51.9102 16.0155 52.0003 15.6508 52ZM29.8502 52H22.8168C22.4158 51.9996 22.0224 51.8905 21.6784 51.6842C21.3345 51.478 21.0529 51.1823 20.8636 50.8287C20.6744 50.4752 20.5845 50.0769 20.6037 49.6763C20.6228 49.2757 20.7502 48.8878 20.9722 48.5538L22.619 46.0859C22.8212 45.7825 23.0953 45.5336 23.4168 45.3616C23.7384 45.1896 24.0974 45.0997 24.4621 45.1H29.8502C30.4379 45.1006 31.0013 45.3343 31.4168 45.7499C31.8323 46.1654 32.0661 46.7288 32.0667 47.3164V49.7836C32.0661 50.3712 31.8323 50.9346 31.4168 51.3502C31.0013 51.7657 30.4379 51.9994 29.8502 52ZM49.7836 52H35.8164C35.2288 51.9994 34.6654 51.7657 34.2499 51.3502C33.8343 50.9346 33.6006 50.3712 33.6 49.7836V45.5669C33.5993 45.2757 33.6563 44.9873 33.7677 44.7183C33.8792 44.4493 34.0429 44.2051 34.2494 43.9998L39.6996 38.5488C40.1161 38.135 40.6795 37.9027 41.2667 37.9027C41.8539 37.9027 42.4172 38.135 42.8337 38.5488L51.3499 47.0588C51.7647 47.4753 51.9984 48.0388 52 48.6267V49.7805C52.0002 50.3687 51.7669 50.9329 51.3512 51.3491C50.9356 51.7653 50.3717 51.9994 49.7836 52Z"/>
</mask>
<path d="M36.7502 24.4H32.2407C31.7856 24.4004 31.3414 24.2604 30.9688 23.999L24.0757 19.169C23.9448 19.0812 23.7909 19.034 23.6333 19.0333H20.4555C19.9841 19.0345 19.5248 18.8846 19.1447 18.6058C18.7646 18.327 18.4838 17.9339 18.3433 17.4839L15.6255 8.88421C15.5201 8.55216 15.4945 8.19993 15.5508 7.85613C15.6071 7.51233 15.7438 7.18668 15.9497 6.90564C16.1556 6.62461 16.4249 6.39612 16.7357 6.23876C17.0465 6.08139 17.3901 5.99959 17.7384 6.00001H28.5944C29.1518 5.9993 29.6889 6.20935 30.0979 6.58804L38.2529 14.1136C38.4776 14.3214 38.657 14.5734 38.7798 14.8537C38.9026 15.1341 38.9662 15.4367 38.9667 15.7428V22.1828C38.9663 22.7706 38.7326 23.3342 38.3171 23.7499C37.9015 24.1656 37.338 24.3994 36.7502 24.4ZM40.5161 13.3086C39.9576 13.3088 39.4194 13.0992 39.0081 12.7214L35.8931 9.84407C35.5662 9.54133 35.338 9.1471 35.2384 8.71278C35.1388 8.27846 35.1724 7.82421 35.3348 7.40926C35.4971 6.99431 35.7808 6.6379 36.1487 6.38652C36.5166 6.13514 36.9517 6.00045 37.3973 6.00001H49.7836C50.3712 6.00062 50.9346 6.23433 51.3502 6.64986C51.7657 7.06539 51.9994 7.62879 52 8.21644V8.36517C51.9979 8.84337 51.8421 9.30823 51.5557 9.69116C51.2692 10.0741 50.8673 10.3548 50.4092 10.4919C40.3727 13.4443 40.9707 13.3086 40.5161 13.3086ZM42.7164 24.4C42.1288 24.3994 41.5654 24.1657 41.1499 23.7502C40.7343 23.3346 40.5006 22.7712 40.5 22.1836V16.6636C40.502 16.1855 40.6576 15.7208 40.9439 15.338C41.2303 14.9552 41.6321 14.6746 42.0901 14.5376L49.158 12.4553C49.4889 12.3578 49.838 12.3389 50.1776 12.4001C50.5171 12.4614 50.8377 12.601 51.1137 12.808C51.3897 13.015 51.6135 13.2836 51.7674 13.5924C51.9213 13.9012 52.0009 14.2417 52 14.5867V21.7251C51.997 22.2805 51.7868 22.8147 51.4106 23.2232C51.0344 23.6318 50.5193 23.8852 49.966 23.9339C43.1695 24.4935 44.7719 24.4 42.7164 24.4ZM48.2157 41.7696L43.0515 36.6C42.7729 36.3201 42.5738 35.9711 42.4748 35.5889C42.3757 35.2066 42.3803 34.8049 42.488 34.4249L44.502 27.3616C44.6271 26.9294 44.88 26.5452 45.2276 26.2595C45.5752 25.9737 46.0011 25.7999 46.4493 25.7608L49.5996 25.4994C49.905 25.474 50.2124 25.5121 50.5024 25.6116C50.7923 25.711 51.0585 25.8694 51.2841 26.0769C51.5097 26.2844 51.6898 26.5365 51.813 26.8171C51.9362 27.0977 51.9999 27.4009 52 27.7074V40.2041C52.0001 40.6426 51.8702 41.0713 51.6265 41.4359C51.3829 41.8004 51.0365 42.0845 50.6313 42.2522C50.2261 42.4198 49.7803 42.4634 49.3503 42.3775C48.9203 42.2916 48.5254 42.0801 48.2157 41.7696ZM14.1949 19.0333H8.2149C7.62752 19.0323 7.06451 18.7984 6.64931 18.3829C6.23411 17.9675 6.00061 17.4043 6 16.8169V8.21644C6.00061 7.62879 6.23432 7.06539 6.64985 6.64986C7.06538 6.23433 7.62879 6.00062 8.21643 6.00001H11.4778C11.9492 5.99889 12.4085 6.1487 12.7886 6.42751C13.1687 6.70633 13.4495 7.09949 13.59 7.54944L16.3071 16.1491C16.4125 16.4811 16.4381 16.8333 16.3818 17.177C16.3255 17.5208 16.1889 17.8464 15.9831 18.1274C15.7773 18.4084 15.5081 18.6369 15.1974 18.7943C14.8867 18.9517 14.5432 19.0336 14.1949 19.0333ZM6 37.6005V22.7831C6.00004 22.2381 6.20086 21.7122 6.56412 21.3059C6.92737 20.8997 7.42758 20.6415 7.96917 20.5807C8.51077 20.5199 9.05578 20.6607 9.50007 20.9764C9.94436 21.292 10.2568 21.7603 10.3777 22.2917L13.2557 34.9509C13.3498 35.3683 13.3215 35.804 13.1741 36.2058C13.0267 36.6075 12.7664 36.9581 12.4247 37.2156L9.54583 39.3738C9.21645 39.6203 8.82496 39.7704 8.41517 39.8071C8.00538 39.8438 7.59345 39.7658 7.22547 39.5818C6.85748 39.3978 6.54796 39.115 6.33154 38.7651C6.11511 38.4151 6.00032 38.0119 6 37.6005ZM15.6508 52H8.21413C7.62688 51.9988 7.06407 51.7648 6.64904 51.3493C6.234 50.9339 6.00061 50.3708 6 49.7836V45.0578C6.00097 44.7141 6.08141 44.3753 6.23502 44.0678C6.38863 43.7603 6.61125 43.4925 6.8855 43.2853L13.7579 38.1318C14.0213 37.9328 14.326 37.7956 14.6495 37.7304C14.9731 37.6651 15.3071 37.6733 15.627 37.7546L18.8654 38.5672C19.2128 38.6546 19.5339 38.825 19.8009 39.0638C20.068 39.3026 20.2731 39.6026 20.3988 39.938L21.6116 43.1695C21.735 43.4984 21.7784 43.8519 21.7384 44.2008C21.6984 44.5498 21.5762 44.8842 21.3816 45.1767L17.4931 51.0125C17.2914 51.3164 17.0176 51.5656 16.6961 51.7379C16.3746 51.9102 16.0155 52.0003 15.6508 52ZM29.8502 52H22.8168C22.4158 51.9996 22.0224 51.8905 21.6784 51.6842C21.3345 51.478 21.0529 51.1823 20.8636 50.8287C20.6744 50.4752 20.5845 50.0769 20.6037 49.6763C20.6228 49.2757 20.7502 48.8878 20.9722 48.5538L22.619 46.0859C22.8212 45.7825 23.0953 45.5336 23.4168 45.3616C23.7384 45.1896 24.0974 45.0997 24.4621 45.1H29.8502C30.4379 45.1006 31.0013 45.3343 31.4168 45.7499C31.8323 46.1654 32.0661 46.7288 32.0667 47.3164V49.7836C32.0661 50.3712 31.8323 50.9346 31.4168 51.3502C31.0013 51.7657 30.4379 51.9994 29.8502 52ZM49.7836 52H35.8164C35.2288 51.9994 34.6654 51.7657 34.2499 51.3502C33.8343 50.9346 33.6006 50.3712 33.6 49.7836V45.5669C33.5993 45.2757 33.6563 44.9873 33.7677 44.7183C33.8792 44.4493 34.0429 44.2051 34.2494 43.9998L39.6996 38.5488C40.1161 38.135 40.6795 37.9027 41.2667 37.9027C41.8539 37.9027 42.4172 38.135 42.8337 38.5488L51.3499 47.0588C51.7647 47.4753 51.9984 48.0388 52 48.6267V49.7805C52.0002 50.3687 51.7669 50.9329 51.3512 51.3491C50.9356 51.7653 50.3717 51.9994 49.7836 52Z" fill="white" stroke="black" stroke-opacity="0.4" stroke-width="1.2" mask="url(#path-3-inside-1_2436_114861)"/>
<path d="M19.4587 37.0634C19.0685 37.0634 19.0079 37.0182 16.4028 36.3688C16.0041 36.2712 15.6406 36.0642 15.3533 35.771C15.066 35.4779 14.8663 35.1103 14.7767 34.7098L12.18 23.2742C12.1063 22.9497 12.1067 22.6128 12.181 22.2885C12.2553 21.9641 12.4017 21.6607 12.6093 21.4007C12.8169 21.1406 13.0804 20.9307 13.3802 20.7864C13.68 20.6421 14.0085 20.5671 14.3412 20.5671H22.6979C23.153 20.5666 23.5972 20.7067 23.9698 20.968L28.2225 23.9465C28.4727 24.1219 28.684 24.3472 28.8431 24.6081C29.0021 24.8691 29.1055 25.1601 29.1468 25.4629C29.188 25.7656 29.1662 26.0737 29.0828 26.3677C28.9993 26.6616 28.856 26.9352 28.6618 27.1711L21.1738 36.2569C20.965 36.5094 20.703 36.7126 20.4065 36.8521C20.11 36.9915 19.7864 37.0637 19.4587 37.0634ZM31.5981 43.5671H24.9381C24.4874 43.5661 24.0477 43.4282 23.6772 43.1716C23.3067 42.915 23.0229 42.5519 22.8635 42.1303L21.8929 39.5451C21.7564 39.1807 21.718 38.7867 21.7815 38.4028C21.845 38.0188 22.0082 37.6582 22.2548 37.3571L30.9948 26.741C31.2024 26.488 31.4638 26.2843 31.7599 26.1447C32.0559 26.005 32.3794 25.933 32.7067 25.9337H40.3811C40.7242 25.9336 41.0626 26.0131 41.3698 26.166C41.6769 26.3189 41.9444 26.5411 42.151 26.815C42.3576 27.0889 42.4978 27.4071 42.5605 27.7444C42.6233 28.0818 42.6068 28.429 42.5124 28.7589L40.7437 34.9451C40.64 35.3061 40.4464 35.6348 40.181 35.9004L33.1652 42.9154C32.9601 43.1223 32.716 43.2864 32.447 43.3983C32.178 43.5102 31.8895 43.5675 31.5981 43.5671Z" fill="#F8A89A"/>
</g>
<defs>
<clipPath id="clip0_2436_114861">
<rect width="46" height="46" fill="white" transform="translate(6 6)"/>
</clipPath>
</defs>
</svg>
