<svg width="54" height="54" viewBox="0 0 54 54" fill="none" xmlns="http://www.w3.org/2000/svg">
<rect width="54" height="54" rx="10.8" fill="#B02E0C" fill-opacity="0.1"/>
<rect x="0.405" y="0.405" width="53.19" height="53.19" rx="10.395" stroke="#B02E0C" stroke-opacity="0.1" stroke-width="0.81"/>
<path fill-rule="evenodd" clip-rule="evenodd" d="M35.7341 38.5161C36.1295 38.9115 36.7705 38.9115 37.1659 38.5161L39.8659 35.8161C40.2614 35.4207 40.2614 34.7797 39.8659 34.3842C39.4705 33.9888 38.8295 33.9888 38.4341 34.3842L37.4625 35.3558V29.7002C37.4625 29.141 37.0092 28.6877 36.45 28.6877C35.8908 28.6877 35.4375 29.141 35.4375 29.7002V35.3558L34.4659 34.3842C34.0705 33.9888 33.4295 33.9888 33.0341 34.3842C32.6386 34.7797 32.6386 35.4207 33.0341 35.8161L35.7341 38.5161Z" fill="#B02E0C"/>
<path d="M24.3 16.2002H29.7C34.7912 16.2002 37.3368 16.2002 38.9184 17.7818C40.0572 18.9206 40.376 20.5591 40.4653 23.2877H13.5347C13.624 20.5591 13.9428 18.9206 15.0816 17.7818C16.6632 16.2002 19.2088 16.2002 24.3 16.2002Z" fill="#B02E0C"/>
<path fill-rule="evenodd" clip-rule="evenodd" d="M24.3 37.8002H29.7C30.5903 37.8002 31.4028 37.8002 32.1459 37.7917L31.6022 37.248C30.4159 36.0618 30.4159 34.1386 31.6022 32.9524C32.1093 32.4452 32.7511 32.1549 33.4125 32.0814V29.7002C33.4125 28.0226 34.7724 26.6627 36.45 26.6627C38.1276 26.6627 39.4875 28.0226 39.4875 29.7002V32.0814C39.7897 32.115 40.0878 32.1938 40.3709 32.318C40.5 30.9383 40.5 29.2088 40.5 27.0002C40.5 26.4036 40.5 25.8419 40.4975 25.3127H13.5025C13.5 25.8419 13.5 26.4036 13.5 27.0002C13.5 32.0914 13.5 34.6369 15.0816 36.2186C16.6632 37.8002 19.2088 37.8002 24.3 37.8002ZM18.9 31.3877C18.3408 31.3877 17.8875 31.841 17.8875 32.4002C17.8875 32.9594 18.3408 33.4127 18.9 33.4127H24.3C24.8592 33.4127 25.3125 32.9594 25.3125 32.4002C25.3125 31.841 24.8592 31.3877 24.3 31.3877H18.9ZM27.675 31.3877C27.1158 31.3877 26.6625 31.841 26.6625 32.4002C26.6625 32.9594 27.1158 33.4127 27.675 33.4127H29.7C30.2592 33.4127 30.7125 32.9594 30.7125 32.4002C30.7125 31.841 30.2592 31.3877 29.7 31.3877H27.675Z" fill="#B02E0C"/>
</svg>
