<svg width="58" height="58" viewBox="0 0 58 58" fill="none" xmlns="http://www.w3.org/2000/svg">
<circle cx="29" cy="29" r="29" fill="#B02E0C" fill-opacity="0.04"/>
<circle cx="29" cy="29" r="28.5" stroke="#B02E0C" stroke-opacity="0.2"/>
<path fill-rule="evenodd" clip-rule="evenodd" d="M35.7197 37.5303C36.0126 37.8232 36.4874 37.8232 36.7803 37.5303L38.7803 35.5303C39.0732 35.2374 39.0732 34.7626 38.7803 34.4697C38.4874 34.1768 38.0126 34.1768 37.7197 34.4697L37 35.1893V31C37 30.5858 36.6642 30.25 36.25 30.25C35.8358 30.25 35.5 30.5858 35.5 31V35.1893L34.7803 34.4697C34.4874 34.1768 34.0126 34.1768 33.7197 34.4697C33.4268 34.7626 33.4268 35.2374 33.7197 35.5303L35.7197 37.5303Z" fill="#B02E0C"/>
<path d="M27.25 21H31.25C35.0212 21 36.9069 21 38.0784 22.1716C38.922 23.0151 39.1582 24.2288 39.2243 26.25H19.2757C19.3418 24.2288 19.578 23.0151 20.4216 22.1716C21.5931 21 23.4788 21 27.25 21Z" fill="#B02E0C"/>
<path fill-rule="evenodd" clip-rule="evenodd" d="M27.25 37H31.25C31.9095 37 32.5113 37 33.0618 36.9937L32.659 36.591C31.7803 35.7123 31.7803 34.2877 32.659 33.409C33.0347 33.0334 33.5101 32.8183 34 32.7638V31C34 29.7574 35.0074 28.75 36.25 28.75C37.4926 28.75 38.5 29.7574 38.5 31V32.7638C38.7239 32.7887 38.9447 32.8471 39.1544 32.9391C39.25 31.9172 39.25 30.636 39.25 29C39.25 28.5581 39.25 28.142 39.2481 27.75H19.2519C19.25 28.142 19.25 28.5581 19.25 29C19.25 32.7712 19.25 34.6569 20.4216 35.8284C21.5931 37 23.4788 37 27.25 37ZM23.25 32.25C22.8358 32.25 22.5 32.5858 22.5 33C22.5 33.4142 22.8358 33.75 23.25 33.75H27.25C27.6642 33.75 28 33.4142 28 33C28 32.5858 27.6642 32.25 27.25 32.25H23.25ZM29.75 32.25C29.3358 32.25 29 32.5858 29 33C29 33.4142 29.3358 33.75 29.75 33.75H31.25C31.6642 33.75 32 33.4142 32 33C32 32.5858 31.6642 32.25 31.25 32.25H29.75Z" fill="#B02E0C"/>
</svg>
