<svg width="34" height="34" viewBox="0 0 34 34" fill="none" xmlns="http://www.w3.org/2000/svg">
<path fill-rule="evenodd" clip-rule="evenodd" d="M9.39726 1.41699H19.8173L28.6486 10.6221V28.5262C28.6486 30.7691 26.8341 32.5837 24.599 32.5837H9.39726C7.15439 32.5837 5.33984 30.7691 5.33984 28.5262V5.47441C5.3398 3.23154 7.15435 1.41699 9.39726 1.41699Z" fill="#B02E0C"/>
<path opacity="0.302" fill-rule="evenodd" clip-rule="evenodd" d="M19.8086 1.41699V10.5521H28.6477L19.8086 1.41699Z" fill="white"/>
<path d="M9.84766 24.6714V18.9785H12.2697C12.8693 18.9785 13.3444 19.1421 13.7026 19.4769C14.0609 19.804 14.24 20.2479 14.24 20.8009C14.24 21.3538 14.0609 21.7977 13.7026 22.1248C13.3444 22.4597 12.8693 22.6232 12.2697 22.6232H11.304V24.6714H9.84766ZM11.304 21.385H12.1061C12.3242 21.385 12.4955 21.3382 12.6123 21.2292C12.7291 21.128 12.7915 20.9878 12.7915 20.8009C12.7915 20.614 12.7292 20.4738 12.6123 20.3726C12.4955 20.2635 12.3242 20.2168 12.1061 20.2168H11.304V21.385ZM14.8396 24.6714V18.9785H16.8566C17.2538 18.9785 17.6276 19.033 17.9781 19.1499C18.3285 19.2667 18.6478 19.4302 18.9282 19.6561C19.2086 19.8741 19.4344 20.17 19.5979 20.5439C19.7537 20.9177 19.8394 21.346 19.8394 21.8288C19.8394 22.3039 19.7537 22.7322 19.5979 23.106C19.4344 23.4798 19.2086 23.7758 18.9282 23.9938C18.6478 24.2197 18.3285 24.3832 17.9781 24.5C17.6276 24.6168 17.2538 24.6714 16.8566 24.6714H14.8396ZM16.2648 23.4331H16.6853C16.9111 23.4331 17.1214 23.4098 17.3161 23.3553C17.503 23.3008 17.6821 23.2151 17.8535 23.0983C18.017 22.9815 18.1494 22.8179 18.2429 22.5998C18.3363 22.3818 18.3831 22.1248 18.3831 21.8288C18.3831 21.5251 18.3363 21.2681 18.2429 21.0501C18.1494 20.832 18.017 20.6685 17.8535 20.5517C17.6821 20.4349 17.5031 20.3492 17.3161 20.2947C17.1214 20.2402 16.9111 20.2168 16.6853 20.2168H16.2648V23.4331ZM20.5714 24.6714V18.9785H24.6211V20.2168H22.0277V21.1279H24.0993V22.3584H22.0277V24.6714H20.5714Z" fill="white"/>
</svg>
