<svg width="24" height="24" viewBox="0 0 24 24" fill="none" xmlns="http://www.w3.org/2000/svg">
<path opacity="0.3" d="M22.0923 8.0864L19.782 10.4075L13.5925 4.21799L15.9136 1.90769C16.1141 1.69969 16.3544 1.53425 16.6203 1.42124C16.8862 1.30824 17.1721 1.25 17.461 1.25C17.7498 1.25 18.0358 1.30824 18.3016 1.42124C18.5675 1.53425 18.8078 1.69969 19.0083 1.90769L22.0923 4.99167C22.3003 5.19215 22.4658 5.4325 22.5788 5.69837C22.6918 5.96424 22.75 6.25015 22.75 6.53904C22.75 6.82792 22.6918 7.11384 22.5788 7.37971C22.4658 7.64557 22.3003 7.88593 22.0923 8.0864ZM3.06186 22.6789L9.72413 20.4653L3.53467 14.2759L1.32108 20.9381C1.23994 21.1806 1.22801 21.4409 1.28662 21.6898C1.34522 21.9387 1.47205 22.1663 1.65286 22.3471C1.83366 22.528 2.06129 22.6548 2.31018 22.7134C2.55907 22.772 2.81938 22.7601 3.06186 22.6789Z" fill="#B02E0C"/>
<path d="M5.08203 22.0021L3.06186 22.6791C2.81938 22.7602 2.55907 22.7721 2.31018 22.7135C2.06129 22.6549 1.83366 22.5281 1.65286 22.3473C1.47205 22.1665 1.34522 21.9389 1.28662 21.69C1.22801 21.4411 1.23994 21.1808 1.32108 20.9383L1.99805 18.9181L5.08203 22.0021ZM3.53467 14.276L9.72413 20.4655L19.782 10.4076L13.5925 4.21814L3.53467 14.276Z" fill="#B02E0C"/>
</svg>
