<svg width="54" height="54" viewBox="0 0 54 54" fill="none" xmlns="http://www.w3.org/2000/svg">
<rect width="54" height="54" rx="10.8" fill="#B02E0C" fill-opacity="0.1"/>
<rect x="0.405" y="0.405" width="53.19" height="53.19" rx="10.395" stroke="#B02E0C" stroke-opacity="0.1" stroke-width="0.81"/>
<path d="M40.5 27C40.5 34.4558 34.4558 40.5 27 40.5C19.5442 40.5 13.5 34.4558 13.5 27C13.5 19.5442 19.5442 13.5 27 13.5C34.4558 13.5 40.5 19.5442 40.5 27Z" fill="#B02E0C"/>
<path fill-rule="evenodd" clip-rule="evenodd" d="M27 20.5875C27.5592 20.5875 28.0125 21.0408 28.0125 21.6V26.5806L31.0909 29.6591C31.4864 30.0545 31.4864 30.6955 31.0909 31.0909C30.6955 31.4864 30.0545 31.4864 29.6591 31.0909L26.2841 27.7159C26.0942 27.5261 25.9875 27.2685 25.9875 27V21.6C25.9875 21.0408 26.4408 20.5875 27 20.5875Z" fill="#F8EBE7"/>
</svg>
