<svg width="54" height="54" viewBox="0 0 54 54" fill="none" xmlns="http://www.w3.org/2000/svg">
<rect width="54" height="54" rx="10.8" fill="#B02E0C" fill-opacity="0.1"/>
<rect x="0.405" y="0.405" width="53.19" height="53.19" rx="10.395" stroke="#B02E0C" stroke-opacity="0.1" stroke-width="0.81"/>
<path fill-rule="evenodd" clip-rule="evenodd" d="M20.5823 13.5H33.4208C34.9853 13.5 35.7675 13.5 36.3984 13.7195C37.5947 14.1358 38.534 15.1027 38.9383 16.3343C39.1516 16.9837 39.1516 17.789 39.1516 19.3996V38.3052C39.1516 39.4638 37.8218 40.0785 36.9806 39.3088C36.4864 38.8565 35.7417 38.8565 35.2475 39.3088L34.5953 39.9056C33.7292 40.6981 32.424 40.6981 31.5578 39.9056C30.6917 39.113 29.3865 39.113 28.5203 39.9056C27.6542 40.6981 26.349 40.6981 25.4828 39.9056C24.6167 39.113 23.3115 39.113 22.4453 39.9056C21.5792 40.6981 20.274 40.6981 19.4078 39.9056L18.7556 39.3088C18.2614 38.8565 17.5167 38.8565 17.0225 39.3088C16.1813 40.0785 14.8516 39.4638 14.8516 38.3052V19.3996C14.8516 17.789 14.8516 16.9837 15.0648 16.3343C15.4692 15.1027 16.4084 14.1358 17.6047 13.7195C18.2356 13.5 19.0179 13.5 20.5823 13.5ZM20.2516 19.9125C19.6924 19.9125 19.2391 20.3658 19.2391 20.925C19.2391 21.4842 19.6924 21.9375 20.2516 21.9375H20.9266C21.4858 21.9375 21.9391 21.4842 21.9391 20.925C21.9391 20.3658 21.4858 19.9125 20.9266 19.9125H20.2516ZM24.9766 19.9125C24.4174 19.9125 23.9641 20.3658 23.9641 20.925C23.9641 21.4842 24.4174 21.9375 24.9766 21.9375H33.7516C34.3108 21.9375 34.7641 21.4842 34.7641 20.925C34.7641 20.3658 34.3108 19.9125 33.7516 19.9125H24.9766ZM20.2516 24.6375C19.6924 24.6375 19.2391 25.0908 19.2391 25.65C19.2391 26.2092 19.6924 26.6625 20.2516 26.6625H20.9266C21.4858 26.6625 21.9391 26.2092 21.9391 25.65C21.9391 25.0908 21.4858 24.6375 20.9266 24.6375H20.2516ZM24.9766 24.6375C24.4174 24.6375 23.9641 25.0908 23.9641 25.65C23.9641 26.2092 24.4174 26.6625 24.9766 26.6625H33.7516C34.3108 26.6625 34.7641 26.2092 34.7641 25.65C34.7641 25.0908 34.3108 24.6375 33.7516 24.6375H24.9766ZM20.2516 29.3625C19.6924 29.3625 19.2391 29.8158 19.2391 30.375C19.2391 30.9342 19.6924 31.3875 20.2516 31.3875H20.9266C21.4858 31.3875 21.9391 30.9342 21.9391 30.375C21.9391 29.8158 21.4858 29.3625 20.9266 29.3625H20.2516ZM24.9766 29.3625C24.4174 29.3625 23.9641 29.8158 23.9641 30.375C23.9641 30.9342 24.4174 31.3875 24.9766 31.3875H33.7516C34.3108 31.3875 34.7641 30.9342 34.7641 30.375C34.7641 29.8158 34.3108 29.3625 33.7516 29.3625H24.9766Z" fill="#B02E0C"/>
</svg>
