<svg width="18" height="18" viewBox="0 0 18 18" fill="none" xmlns="http://www.w3.org/2000/svg">
<g opacity="0.6">
<path d="M1.3125 7.50026V10.5003C1.3125 12.6216 1.3125 13.6822 1.97151 14.3413C2.13451 14.5043 2.32209 14.6269 2.54421 14.7193C2.53917 14.6859 2.53441 14.6525 2.52991 14.619C2.43739 13.9309 2.43744 13.0716 2.4375 12.0743L2.4375 6.00022L2.4375 5.92616V5.92616C2.43744 4.92886 2.43739 4.06957 2.52991 3.38146C2.53441 3.34799 2.53916 3.31458 2.5442 3.28125C2.32208 3.37359 2.13451 3.49627 1.97151 3.65927C1.3125 4.31828 1.3125 5.37894 1.3125 7.50026Z" fill="#060C12"/>
<path d="M16.3125 7.50026V10.5003C16.3125 12.6216 16.3125 13.6822 15.6535 14.3413C15.4905 14.5043 15.3029 14.6269 15.0808 14.7193C15.0858 14.6859 15.0906 14.6525 15.0951 14.619C15.1876 13.9309 15.1876 13.0716 15.1875 12.0743V5.92617C15.1876 4.92887 15.1876 4.06958 15.0951 3.38146C15.0906 3.34799 15.0858 3.31458 15.0808 3.28125C15.3029 3.37359 15.4905 3.49627 15.6535 3.65927C16.3125 4.31828 16.3125 5.37894 16.3125 7.50026Z" fill="#060C12"/>
<path fill-rule="evenodd" clip-rule="evenodd" d="M4.22151 2.15901C3.5625 2.81802 3.5625 3.87868 3.5625 6V12C3.5625 14.1213 3.5625 15.182 4.22151 15.841C4.88052 16.5 5.94118 16.5 8.0625 16.5H9.5625C11.6838 16.5 12.7445 16.5 13.4035 15.841C14.0625 15.182 14.0625 14.1213 14.0625 12V6C14.0625 3.87868 14.0625 2.81802 13.4035 2.15901C12.7445 1.5 11.6838 1.5 9.5625 1.5H8.0625C5.94118 1.5 4.88052 1.5 4.22151 2.15901ZM6 12.75C6 12.4393 6.25184 12.1875 6.5625 12.1875H8.8125C9.12316 12.1875 9.375 12.4393 9.375 12.75C9.375 13.0607 9.12316 13.3125 8.8125 13.3125H6.5625C6.25184 13.3125 6 13.0607 6 12.75ZM6.5625 9.1875C6.25184 9.1875 6 9.43934 6 9.75C6 10.0607 6.25184 10.3125 6.5625 10.3125H11.0625C11.3732 10.3125 11.625 10.0607 11.625 9.75C11.625 9.43934 11.3732 9.1875 11.0625 9.1875H6.5625ZM6 6.75C6 6.43934 6.25184 6.1875 6.5625 6.1875H11.0625C11.3732 6.1875 11.625 6.43934 11.625 6.75C11.625 7.06066 11.3732 7.3125 11.0625 7.3125H6.5625C6.25184 7.3125 6 7.06066 6 6.75Z" fill="#060C12"/>
</g>
</svg>
