<svg width="18" height="18" viewBox="0 0 18 18" fill="none" xmlns="http://www.w3.org/2000/svg">
<path fill-rule="evenodd" clip-rule="evenodd" d="M11.25 1.5H12.75C14.1642 1.5 14.8713 1.5 15.3107 1.93934C15.75 2.37868 15.75 3.08579 15.75 4.5V15.9375H16.5C16.8107 15.9375 17.0625 16.1893 17.0625 16.5C17.0625 16.8107 16.8107 17.0625 16.5 17.0625H1.5C1.18934 17.0625 0.9375 16.8107 0.9375 16.5C0.9375 16.1893 1.18934 15.9375 1.5 15.9375H2.25V6.75C2.25 5.33579 2.25 4.62868 2.68934 4.18934C3.12868 3.75 3.83579 3.75 5.25 3.75H8.25C9.66421 3.75 10.3713 3.75 10.8107 4.18934C11.25 4.62868 11.25 5.33579 11.25 6.75V15.9375H12.375V6.75L12.375 6.68288C12.3751 6.03366 12.3752 5.43841 12.3101 4.95419C12.2384 4.42097 12.0697 3.85738 11.6062 3.39385C11.1426 2.93031 10.579 2.76164 10.0458 2.68995C9.56841 2.62576 8.98308 2.62493 8.34451 2.62499C8.40773 2.33456 8.51324 2.11544 8.68934 1.93934C9.12868 1.5 9.83579 1.5 11.25 1.5ZM3.9375 6C3.9375 5.68934 4.18934 5.4375 4.5 5.4375H9C9.31066 5.4375 9.5625 5.68934 9.5625 6C9.5625 6.31066 9.31066 6.5625 9 6.5625H4.5C4.18934 6.5625 3.9375 6.31066 3.9375 6ZM3.9375 8.25C3.9375 7.93934 4.18934 7.6875 4.5 7.6875H9C9.31066 7.6875 9.5625 7.93934 9.5625 8.25C9.5625 8.56066 9.31066 8.8125 9 8.8125H4.5C4.18934 8.8125 3.9375 8.56066 3.9375 8.25ZM3.9375 10.5C3.9375 10.1893 4.18934 9.9375 4.5 9.9375H9C9.31066 9.9375 9.5625 10.1893 9.5625 10.5C9.5625 10.8107 9.31066 11.0625 9 11.0625H4.5C4.18934 11.0625 3.9375 10.8107 3.9375 10.5ZM6.75 13.6875C7.06066 13.6875 7.3125 13.9393 7.3125 14.25V15.9375H6.1875V14.25C6.1875 13.9393 6.43934 13.6875 6.75 13.6875Z" fill="white"/>
</svg>
