<svg width="17" height="16" viewBox="0 0 17 16" fill="none" xmlns="http://www.w3.org/2000/svg">
<path fill-rule="evenodd" clip-rule="evenodd" d="M10.3125 0H11.8125C13.2267 0 13.9338 0 14.3732 0.43934C14.8125 0.87868 14.8125 1.58579 14.8125 3V14.4375H15.5625C15.8732 14.4375 16.125 14.6893 16.125 15C16.125 15.3107 15.8732 15.5625 15.5625 15.5625H0.5625C0.25184 15.5625 0 15.3107 0 15C0 14.6893 0.25184 14.4375 0.5625 14.4375H1.3125V5.25C1.3125 3.83579 1.3125 3.12868 1.75184 2.68934C2.19118 2.25 2.89829 2.25 4.3125 2.25H7.3125C8.72671 2.25 9.43382 2.25 9.87316 2.68934C10.3125 3.12868 10.3125 3.83579 10.3125 5.25V14.4375H11.4375V5.25L11.4375 5.18288C11.4376 4.53366 11.4377 3.93841 11.3726 3.45419C11.3009 2.92097 11.1322 2.35738 10.6687 1.89385C10.2051 1.43031 9.64153 1.26164 9.10831 1.18995C8.63091 1.12576 8.04558 1.12493 7.40701 1.12499C7.47023 0.834559 7.57574 0.615439 7.75184 0.43934C8.19118 0 8.89829 0 10.3125 0ZM3 4.5C3 4.18934 3.25184 3.9375 3.5625 3.9375H8.0625C8.37316 3.9375 8.625 4.18934 8.625 4.5C8.625 4.81066 8.37316 5.0625 8.0625 5.0625H3.5625C3.25184 5.0625 3 4.81066 3 4.5ZM3 6.75C3 6.43934 3.25184 6.1875 3.5625 6.1875H8.0625C8.37316 6.1875 8.625 6.43934 8.625 6.75C8.625 7.06066 8.37316 7.3125 8.0625 7.3125H3.5625C3.25184 7.3125 3 7.06066 3 6.75ZM3 9C3 8.68934 3.25184 8.4375 3.5625 8.4375H8.0625C8.37316 8.4375 8.625 8.68934 8.625 9C8.625 9.31066 8.37316 9.5625 8.0625 9.5625H3.5625C3.25184 9.5625 3 9.31066 3 9ZM5.8125 12.1875C6.12316 12.1875 6.375 12.4393 6.375 12.75V14.4375H5.25V12.75C5.25 12.4393 5.50184 12.1875 5.8125 12.1875Z" fill="#060C12"/>
</svg>
