<svg width="176" height="136" viewBox="0 0 176 136" fill="none" xmlns="http://www.w3.org/2000/svg">
<path d="M0 16C0 7.16344 7.16344 0 16 0H160C168.837 0 176 7.16344 176 16V120C176 128.837 168.837 136 160 136H16C7.16344 136 0 128.837 0 120V16Z" fill="white"/>
<path d="M16 0.5H160C168.56 0.5 175.5 7.43959 175.5 16V120C175.5 128.56 168.56 135.5 160 135.5H16C7.43959 135.5 0.5 128.56 0.5 120V16C0.5 7.43959 7.43959 0.5 16 0.5Z" stroke="#B02E0C" stroke-opacity="0.16"/>
<path d="M32 54.1929L97.1766 10L91.7717 83.7609L32 54.1929Z" fill="#F16823" stroke="black" stroke-width="0.254348"/>
<path d="M91.7734 83.7609L97.1783 10L151.863 53.2391L91.7734 83.7609Z" fill="#F16823" stroke="black" stroke-width="0.254348"/>
<path d="M32 96.7961V54.1929L91.7717 83.7608V127L32 96.7961Z" fill="#949599" stroke="black" stroke-width="0.254348"/>
<path d="M151.863 53.2393L91.7734 83.761V127L151.863 97.1143V53.2393Z" fill="#949599" stroke="black" stroke-width="0.254348"/>
<path d="M32 100.5L33.2531 102.44L34.3065 100.385L32 100.5ZM91.5 131L90.2469 129.06L89.1935 131.115L91.5 131ZM33.6018 101.321L33.5106 101.499L89.807 130.357L89.8982 130.179L89.9894 130.001L33.693 101.143L33.6018 101.321Z" fill="black"/>
<path d="M53.7756 116.304H56.3756C56.9676 116.304 57.4236 116.44 57.7436 116.696C58.0636 116.952 58.2236 117.304 58.2236 117.736C58.2236 118.008 58.1436 118.256 57.9996 118.472C57.8476 118.688 57.6476 118.84 57.4076 118.936C57.7356 119.016 57.9996 119.176 58.1916 119.416C58.3836 119.656 58.4796 119.96 58.4796 120.32C58.4796 120.824 58.3116 121.232 57.9756 121.536C57.6396 121.848 57.2076 122 56.6796 122H53.7756V116.304ZM54.7516 117.112V118.68H56.1116C56.4956 118.68 56.7756 118.624 56.9596 118.504C57.1356 118.384 57.2316 118.184 57.2316 117.896C57.2316 117.576 57.1356 117.368 56.9436 117.264C56.7516 117.168 56.4876 117.112 56.1436 117.112H54.7516ZM54.7516 119.4V121.184H56.2476C56.6316 121.184 56.9276 121.12 57.1516 120.992C57.3676 120.864 57.4796 120.632 57.4796 120.296C57.4796 120.112 57.4396 119.96 57.3756 119.832C57.3116 119.704 57.2156 119.616 57.0876 119.552C56.9596 119.496 56.8316 119.456 56.7036 119.432C56.5676 119.416 56.4076 119.4 56.2316 119.4H54.7516Z" fill="black"/>
<path d="M29.3053 29.304V35H28.3053V32.44H25.6973V35H24.6973V29.304H25.6973V31.568H28.3053V29.304H29.3053Z" fill="black"/>
<path d="M125.532 118.296L127.732 124H126.66L126.116 122.488H123.86L123.3 124H122.268L124.468 118.296H125.532ZM125.852 121.736L125.004 119.336L124.116 121.736H125.852Z" fill="black"/>
<path d="M92.5 130.5L94.8038 130.661L93.7916 128.586L92.5 130.5ZM153 101L150.696 100.839L151.708 102.914L153 101ZM94.1179 129.711L94.2056 129.891L151.47 101.969L151.382 101.789L151.294 101.609L94.0303 129.531L94.1179 129.711Z" fill="black"/>
<path d="M32 10H96" stroke="black" stroke-width="0.4"/>
<path d="M32 53L33.1547 51H30.8453L32 53ZM32 11L30.8453 13H33.1547L32 11ZM32 51.2H32.2V12.8H32H31.8V51.2H32Z" fill="black"/>
</svg>
