<svg width="58" height="58" viewBox="0 0 58 58" fill="none" xmlns="http://www.w3.org/2000/svg">
<rect width="58" height="58" rx="14" fill="#F3F3F3"/>
<rect x="0.5" y="0.5" width="57" height="57" rx="13.5" stroke="#B02E0C" stroke-opacity="0.04"/>
<path d="M7.51953 22.8006L32.2974 6L30.2427 34.0413L7.51953 22.8006Z" fill="#F16823" stroke="black" stroke-width="0.0966942"/>
<path d="M30.2461 34.0413L32.3008 6L53.0901 22.438L30.2461 34.0413Z" fill="#F16823" stroke="black" stroke-width="0.0966942"/>
<path d="M7.51953 38.9968V22.8005L30.2427 34.0412V50.4793L7.51953 38.9968Z" fill="#949599" stroke="black" stroke-width="0.0966942"/>
<path d="M53.0901 22.438L30.2461 34.0413V50.4793L53.0901 39.1177V22.438Z" fill="#949599" stroke="black" stroke-width="0.0966942"/>
<path d="M7.51953 40.4049L7.9959 41.1424L8.39639 40.3611L7.51953 40.4049ZM30.1394 51.9999L29.663 51.2625L29.2625 52.0438L30.1394 51.9999ZM8.12848 40.7171L8.0938 40.7847L29.4957 51.7555L29.5304 51.6878L29.5651 51.6201L8.16317 40.6494L8.12848 40.7171Z" fill="black"/>
<path d="M16.1583 46.1321H17.1467C17.3718 46.1321 17.5451 46.1838 17.6668 46.2811C17.7884 46.3784 17.8492 46.5122 17.8492 46.6765C17.8492 46.7799 17.8188 46.8741 17.7641 46.9563C17.7063 47.0384 17.6303 47.0962 17.539 47.1327C17.6637 47.1631 17.7641 47.2239 17.8371 47.3151C17.9101 47.4064 17.9466 47.5219 17.9466 47.6588C17.9466 47.8504 17.8827 48.0055 17.755 48.1211C17.6272 48.2397 17.463 48.2975 17.2623 48.2975H16.1583V46.1321ZM16.5293 46.4392V47.0353H17.0463C17.1923 47.0353 17.2988 47.014 17.3687 46.9684C17.4356 46.9228 17.4721 46.8468 17.4721 46.7373C17.4721 46.6156 17.4356 46.5366 17.3626 46.497C17.2896 46.4605 17.1893 46.4392 17.0585 46.4392H16.5293ZM16.5293 47.3091V47.9873H17.098C17.244 47.9873 17.3565 47.9629 17.4417 47.9143C17.5238 47.8656 17.5664 47.7774 17.5664 47.6497C17.5664 47.5797 17.5512 47.5219 17.5269 47.4733C17.5025 47.4246 17.466 47.3912 17.4174 47.3668C17.3687 47.3456 17.32 47.3303 17.2714 47.3212C17.2197 47.3151 17.1589 47.3091 17.092 47.3091H16.5293Z" fill="black"/>
<path d="M6.85686 13.0577V15.2231H6.47669V14.2499H5.48522V15.2231H5.10506V13.0577H5.48522V13.9184H6.47669V13.0577H6.85686Z" fill="black"/>
<path d="M43.4366 46.8894L44.273 49.0579H43.8655L43.6587 48.4831H42.801L42.5881 49.0579H42.1958L43.0321 46.8894H43.4366ZM43.5583 48.1972L43.2359 47.2848L42.8983 48.1972H43.5583Z" fill="black"/>
<path d="M30.5195 51.81L31.3953 51.8713L31.0106 51.0822L30.5195 51.81ZM53.5195 40.5951L52.6437 40.5338L53.0285 41.3229L53.5195 40.5951ZM31.1346 51.5101L31.1679 51.5784L52.9378 40.9633L52.9045 40.895L52.8711 40.8267L31.1013 51.4417L31.1346 51.5101Z" fill="black"/>
<path d="M7.51953 6H31.8501" stroke="black" stroke-width="0.152066"/>
<path d="M7.51953 22.3471L7.95851 21.5867H7.08055L7.51953 22.3471ZM7.51953 6.38013L7.08055 7.14046H7.95851L7.51953 6.38013ZM7.51953 21.6628H7.59556V7.06442H7.51953H7.4435V21.6628H7.51953Z" fill="black"/>
</svg>
