<svg width="39" height="25" viewBox="0 0 39 25" fill="none" xmlns="http://www.w3.org/2000/svg">
<path d="M9.29958 2.73438H11.4058L10.0871 6.01875H8.59333C8.42417 6.01922 8.2579 5.97495 8.11136 5.89043C7.96483 5.80591 7.84325 5.68416 7.75895 5.5375C7.58395 5.23438 7.58395 4.875 7.75895 4.575L8.58083 3.15313C8.73395 2.89063 9.0027 2.73438 9.29958 2.73438ZM23.7374 6.01875H15.0093L15.9249 2.73438H22.8218L23.7374 6.01875ZM30.9877 5.5375C30.9034 5.68416 30.7818 5.80591 30.6353 5.89043C30.4888 5.97495 30.3225 6.01922 30.1533 6.01875H28.6564L27.3377 2.73438H29.4471C29.7502 2.73438 30.0283 2.89688 30.169 3.15938L30.9877 4.575C31.1596 4.875 31.1596 5.23438 30.9877 5.5375ZM6.75895 7.95344H9.31208L7.68083 12.0191H5.2152C4.9152 12.0191 4.64645 11.8628 4.49645 11.6034C4.34333 11.3441 4.3402 11.0316 4.48708 10.7722L5.74958 8.54094C5.94958 8.17844 6.33708 7.95344 6.75895 7.95344ZM25.4061 12.0191H13.3405L14.4718 7.95344H24.2749L25.4061 12.0191ZM34.2471 11.6097C34.1734 11.7347 34.0683 11.8383 33.9422 11.9101C33.8161 11.9819 33.6734 12.0195 33.5283 12.0191H31.0658L29.4346 7.95344H31.9939C32.4127 7.95344 32.7971 8.17844 32.9971 8.54719L34.2596 10.7691C34.4064 11.0378 34.4002 11.3503 34.2471 11.6097ZM2.79958 14.7378H6.5902L4.44333 20.0816H1.05895C0.683951 20.0816 0.346451 19.8909 0.152701 19.5691C-0.0410487 19.2472 -0.0504237 18.8566 0.124576 18.5222L1.83708 15.3128C2.03083 14.9566 2.39958 14.7378 2.79958 14.7378ZM27.6502 20.0819H11.0965L12.584 14.7378H26.1627L27.6502 20.0819ZM38.6005 19.5631C38.5064 19.722 38.3724 19.8534 38.2118 19.9444C38.0511 20.0354 37.8695 20.0828 37.6849 20.0819H34.3036L32.1568 14.7381H35.9505C36.3474 14.7381 36.713 14.9569 36.9036 15.31L38.6224 18.5225C38.8005 18.8538 38.7911 19.2413 38.6005 19.5631ZM34.269 23.635C34.1173 23.8593 33.9129 24.043 33.6737 24.1699C33.4345 24.2969 33.1679 24.3632 32.8971 24.3631H30.9221C30.0814 24.3631 29.3346 23.7944 29.1096 22.985L22.9905 1.00625C22.9249 0.765629 22.9718 0.512503 23.1249 0.312503C23.2749 0.115628 23.5061 3.13712e-06 23.7561 3.13712e-06H25.0311C25.3593 3.13712e-06 25.6468 0.196878 25.7686 0.496878L34.4346 22.0913C34.5352 22.3425 34.5727 22.6146 34.5439 22.8837C34.515 23.1529 34.4206 23.4108 34.269 23.635ZM15.6218 0.315628C15.7749 0.512503 15.8218 0.765629 15.7561 1.00625L9.63739 22.985C9.52612 23.3805 9.28901 23.729 8.96196 23.9776C8.63491 24.2263 8.23574 24.3616 7.82489 24.3631H5.84989C5.57913 24.3633 5.31247 24.297 5.07328 24.1701C4.83408 24.0433 4.62966 23.8597 4.4779 23.6354C4.32615 23.4112 4.23171 23.1532 4.20286 22.884C4.174 22.6147 4.21161 22.3426 4.31239 22.0913L12.978 0.500003C13.0364 0.352186 13.1381 0.225411 13.2696 0.136218C13.4012 0.0470252 13.5566 -0.000444512 13.7155 3.13712e-06H14.9905C15.2405 3.13712e-06 15.4718 0.115628 15.6218 0.315628Z" fill="#B02E0C"/>
</svg>
