<svg width="28" height="33" viewBox="0 0 28 33" fill="none" xmlns="http://www.w3.org/2000/svg">
<path fill-rule="evenodd" clip-rule="evenodd" d="M2.9518 32.6764H25.0447C26.4727 32.6764 28.2943 30.8389 27.9566 29.4508L24.2496 14.216C23.4465 10.9132 22.3243 9.10497 18.6599 9.10497H15.8384C17.5244 8.37634 18.7051 6.69836 18.7051 4.74649C18.7051 2.12448 16.5804 -0.000244141 13.9584 -0.000244141C11.3364 -0.000244141 9.21164 2.12448 9.21164 4.74649C9.21164 6.70102 10.3923 8.379 12.0783 9.10497H9.59191C5.94078 9.10497 4.4064 11.1579 3.65384 14.3064L0.0372826 29.4508C-0.292462 30.8389 1.52379 32.6764 2.9518 32.6764ZM9.6052 18.7234H10.9162V23.6696H9.6052V18.7234ZM11.5385 18.7234H12.8628V20.4306C12.9931 20.287 13.142 20.1807 13.3095 20.1062C13.4744 20.0344 13.6579 19.9998 13.86 19.9998C14.2748 19.9998 14.6205 20.1567 14.8918 20.4705C15.163 20.7843 15.2986 21.2364 15.2986 21.8241C15.2986 22.215 15.2348 22.5607 15.1125 22.8612C14.9875 23.159 14.8173 23.3824 14.5966 23.5313C14.3759 23.6776 14.1339 23.752 13.8653 23.752C13.6366 23.752 13.4265 23.6988 13.2351 23.5978C13.0915 23.5153 12.9346 23.3638 12.7644 23.1404V23.6722H11.5385V18.7234ZM12.8521 21.8613C12.8521 22.1698 12.908 22.3958 13.017 22.5341C13.126 22.6724 13.267 22.7415 13.4345 22.7415C13.5914 22.7415 13.7217 22.6724 13.8281 22.5368C13.9344 22.3985 13.9876 22.1698 13.9876 21.848C13.9876 21.5635 13.9371 21.3534 13.8307 21.2204C13.727 21.0875 13.602 21.021 13.4531 21.021C13.2749 21.021 13.1313 21.0901 13.0197 21.2284C12.908 21.3694 12.8521 21.5794 12.8521 21.8613ZM15.4741 22.675L16.7718 22.55C16.825 22.7123 16.8995 22.8266 16.9979 22.8957C17.0936 22.9649 17.2239 22.9995 17.3835 22.9995C17.559 22.9995 17.6946 22.9596 17.7903 22.8798C17.8648 22.8213 17.9047 22.7495 17.9047 22.6617C17.9047 22.5633 17.8541 22.4862 17.7558 22.4304C17.6866 22.3932 17.4978 22.3453 17.1947 22.2894C16.7399 22.207 16.4261 22.1299 16.248 22.0581C16.0725 21.9889 15.9235 21.8666 15.8012 21.6991C15.6815 21.5289 15.6204 21.3374 15.6204 21.122C15.6204 20.8854 15.6842 20.6833 15.8145 20.5131C15.9448 20.3402 16.1256 20.2126 16.3543 20.1301C16.583 20.045 16.8915 20.0025 17.2771 20.0025C17.684 20.0025 17.9844 20.0344 18.1759 20.1009C18.37 20.1674 18.5322 20.2684 18.6599 20.404C18.7902 20.5423 18.8966 20.7285 18.9817 20.9625L17.7425 21.0875C17.7105 20.9731 17.6574 20.8907 17.5829 20.8348C17.4819 20.763 17.3569 20.7285 17.2106 20.7285C17.0644 20.7285 16.9553 20.7551 16.8888 20.8109C16.8224 20.8668 16.7878 20.9332 16.7878 21.0104C16.7878 21.0981 16.8303 21.1646 16.9154 21.2098C17.0005 21.255 17.1867 21.2949 17.4739 21.3321C17.91 21.3826 18.2318 21.4571 18.4445 21.5475C18.6572 21.6406 18.8194 21.7709 18.9311 21.9411C19.0428 22.1139 19.1013 22.3001 19.1013 22.5048C19.1013 22.7123 19.0428 22.9144 18.9232 23.1085C18.8035 23.3053 18.6173 23.4595 18.3621 23.5765C18.1068 23.6935 17.7584 23.7494 17.317 23.7494C16.6947 23.7494 16.248 23.6563 15.9847 23.4675C15.7188 23.284 15.5486 23.0181 15.4741 22.675ZM13.9983 14.1229C17.7877 14.1229 20.8591 17.1944 20.8591 20.9838C20.8591 24.7732 17.7877 27.8446 13.9983 27.8446C10.2088 27.8446 7.13743 24.7732 7.13743 20.9838C7.13743 17.1944 10.2115 14.1229 13.9983 14.1229ZM13.9584 2.76802C15.0513 2.76802 15.9368 3.65354 15.9368 4.74649C15.9368 5.83943 15.0513 6.72496 13.9584 6.72496C12.8654 6.72496 11.9799 5.83943 11.9799 4.74649C11.9826 3.65354 12.8681 2.76802 13.9584 2.76802Z" fill="#FF9411"/>
</svg>
