<svg width="58" height="58" viewBox="0 0 58 58" fill="none" xmlns="http://www.w3.org/2000/svg">
<rect width="58" height="58" rx="14" fill="#F3F3F3"/>
<rect x="0.5" y="0.5" width="57" height="57" rx="13.5" stroke="#B02E0C" stroke-opacity="0.04"/>
<path d="M39.4186 20.552H4V39.2603H39.4186V20.552Z" fill="#55A2F2" stroke="black" stroke-width="0.21796"/>
<path d="M14.1576 13.6499L4 20.552H39.4047L49.7578 13.6499H14.1576Z" fill="#55A2F2" stroke="black" stroke-width="0.21796"/>
<path d="M49.775 13.6499L39.4219 20.552V39.2603L49.775 32.1765V13.6499Z" fill="#55A2F2" stroke="black" stroke-width="0.21796"/>
<path d="M4 39.2603L14.1715 31.9949V13.6499" stroke="black" stroke-width="0.21796" stroke-dasharray="0.29 0.29"/>
<path d="M14.1719 31.9951L49.7721 32.1768" stroke="black" stroke-width="0.21796" stroke-dasharray="0.29 0.29"/>
<path d="M4 41.2588L4.72653 41.6783L4.72653 40.8393L4 41.2588ZM39.6002 41.2588L38.8737 40.8393L38.8737 41.6783L39.6002 41.2588ZM4.65388 41.2588L4.65388 41.3314L38.9463 41.3314L38.9463 41.2588L38.9463 41.1861L4.65388 41.1861L4.65388 41.2588Z" fill="black"/>
<path d="M18.7776 44.0348V44.3486H17.3594V42.2795H17.7255V44.0348H18.7776ZM20.3301 43.8807C20.2923 44.0435 20.2109 44.1714 20.0889 44.2614C19.9668 44.3544 19.8186 44.398 19.65 44.398C19.4234 44.398 19.2432 44.3254 19.1095 44.1801C18.9758 44.0348 18.9119 43.8459 18.9119 43.6163C18.9119 43.3838 18.9787 43.1891 19.1153 43.0351C19.2519 42.8839 19.4263 42.8055 19.6384 42.8055C19.8564 42.8055 20.0308 42.881 20.1586 43.0322C20.2865 43.1833 20.3504 43.3867 20.3504 43.6453V43.6802H19.2432C19.2461 43.8313 19.2839 43.9505 19.3565 44.0319C19.4263 44.1132 19.528 44.1539 19.6559 44.1539C19.7459 44.1539 19.8186 44.1336 19.8767 44.09C19.9348 44.0464 19.9784 43.9766 20.0133 43.8807H20.3301ZM20.0191 43.4594C20.0075 43.3344 19.9697 43.2356 19.9 43.1629C19.8302 43.0903 19.743 43.0525 19.6355 43.0525C19.5251 43.0525 19.4379 43.0874 19.3711 43.1571C19.3042 43.2269 19.2635 43.3286 19.249 43.4594H20.0191ZM20.9191 42.8491V43.0699C21.0382 42.8956 21.2039 42.8084 21.416 42.8084C21.5846 42.8084 21.7124 42.8549 21.7967 42.9479C21.881 43.0409 21.9246 43.1746 21.9246 43.3489V44.3486H21.5933V43.4768C21.5933 43.4187 21.5904 43.3693 21.5846 43.3286C21.5787 43.2879 21.5642 43.2472 21.5468 43.2065C21.5293 43.1658 21.5003 43.1368 21.4596 43.1164C21.4189 43.0961 21.3666 43.0845 21.3027 43.0845C21.0585 43.0845 20.9365 43.2385 20.9365 43.5407V44.3486H20.6052V42.8491H20.9191ZM23.6456 42.8491V44.1743C23.6456 44.4329 23.5904 44.6247 23.48 44.7468C23.3696 44.8717 23.1865 44.9328 22.9249 44.9328C22.5123 44.9328 22.2885 44.7816 22.2536 44.4765H22.5849C22.614 44.6276 22.7302 44.7003 22.9336 44.7003C23.0702 44.7003 23.169 44.6654 23.233 44.5957C23.2969 44.5259 23.3289 44.4155 23.3289 44.2585V44.0813C23.2184 44.2498 23.0615 44.3341 22.8523 44.3341C22.6517 44.3341 22.4919 44.2673 22.3757 44.1336C22.2594 43.9999 22.2013 43.8168 22.2013 43.5872C22.2013 43.3547 22.2623 43.1658 22.3844 43.0234C22.5064 42.881 22.6663 42.8084 22.8697 42.8084C22.9743 42.8084 23.0644 42.8287 23.1371 42.8694C23.2068 42.9101 23.2737 42.9711 23.3376 43.0583V42.8491H23.6456ZM22.9278 43.0757C22.8029 43.0757 22.7041 43.1222 22.6343 43.2094C22.5646 43.2995 22.5297 43.4245 22.5297 43.5814C22.5297 43.7325 22.5646 43.8546 22.6372 43.9418C22.7099 44.0319 22.8058 44.0755 22.9278 44.0755C23.0499 44.0755 23.1487 44.0319 23.2214 43.9389C23.2911 43.8459 23.3289 43.7209 23.3289 43.564C23.3289 43.4129 23.2911 43.2937 23.2214 43.2065C23.1516 43.1193 23.0528 43.0757 22.9278 43.0757ZM24.7261 42.8491V43.0903H24.4238V43.8807C24.4238 43.9272 24.4238 43.9621 24.4267 43.9796C24.4267 43.997 24.4326 44.0173 24.4442 44.0406C24.4529 44.0638 24.4703 44.0784 24.4936 44.0842C24.5168 44.0929 24.5517 44.0958 24.5953 44.0958C24.6476 44.0958 24.6912 44.0958 24.7261 44.09V44.3515C24.6592 44.3603 24.5837 44.3632 24.5023 44.3632C24.4442 44.3632 24.3919 44.3603 24.3483 44.3515C24.3047 44.3428 24.2698 44.3312 24.2407 44.3196C24.2117 44.3079 24.1855 44.2905 24.1681 44.2614C24.1478 44.2324 24.1332 44.2091 24.1216 44.1917C24.11 44.1743 24.1042 44.1394 24.0983 44.0929C24.0925 44.0464 24.0925 44.0115 24.0925 43.9883V43.8604V43.843V43.8255V43.8052V43.0903H23.8426V42.8491H24.0925V42.3986H24.4238V42.8491H24.7261ZM25.2928 42.2795V43.0554C25.4032 42.8927 25.5602 42.8113 25.7665 42.8113C25.9292 42.8113 26.0542 42.8578 26.1472 42.945C26.2373 43.0322 26.2838 43.1629 26.2838 43.3315V44.3486H25.9496V43.439C25.9496 43.3257 25.9292 43.2385 25.8886 43.1775C25.8479 43.1193 25.7723 43.0874 25.659 43.0874C25.5311 43.0874 25.4381 43.131 25.38 43.2123C25.3219 43.2966 25.2928 43.407 25.2928 43.5436V44.3486H24.9644V42.2795H25.2928Z" fill="black"/>
<path d="M42.5423 40.8135L42.839 40.5941L44.0793 41.6359L43.4839 40.1172L43.7807 39.8977L45.0467 40.9205L44.4233 39.4225L44.72 39.2031L45.49 41.2072L45.1932 41.4266L43.9116 40.3973L44.5133 41.9295L44.2118 42.1524L42.5423 40.8135ZM45.1385 38.8827L45.3321 39.1445L45.0657 39.3414L44.8722 39.0797L45.1385 38.8827ZM45.4824 39.3477L46.374 40.5534L46.1076 40.7504L45.216 39.5447L45.4824 39.3477ZM46.5766 37.8302L47.8069 39.4938L47.5568 39.6787L47.4342 39.5128C47.4555 39.703 47.3754 39.8635 47.1955 39.9966C47.0249 40.1227 46.8479 40.1668 46.6611 40.1243C46.4759 40.0841 46.3128 39.9662 46.1676 39.7699C46.026 39.5783 45.961 39.3878 45.9745 39.2007C45.9879 39.0137 46.0779 38.8568 46.2461 38.7323C46.4144 38.6079 46.5896 38.576 46.7693 38.6382L46.3149 38.0237L46.5766 37.8302ZM46.4542 38.911C46.3514 38.9871 46.2996 39.0832 46.2965 39.2012C46.2933 39.3191 46.3396 39.4403 46.4329 39.5665C46.5314 39.6997 46.6372 39.7841 46.7532 39.814C46.871 39.8462 46.9804 39.8231 47.0856 39.7453C47.1884 39.6693 47.2425 39.5714 47.2457 39.4534C47.2488 39.3355 47.2031 39.2102 47.1046 39.077C47.0079 38.9462 46.9015 38.8658 46.7854 38.836C46.6711 38.8085 46.5617 38.8315 46.4542 38.911ZM47.7899 37.6413L47.9333 37.8353L47.6903 38.015L48.1603 38.6505C48.188 38.6879 48.2087 38.716 48.2214 38.7283C48.2318 38.7423 48.2485 38.7552 48.2717 38.767C48.2926 38.7805 48.3152 38.7818 48.3374 38.7726C48.3612 38.7658 48.391 38.7474 48.4261 38.7215C48.4681 38.6904 48.5032 38.6645 48.5277 38.6391L48.6833 38.8494C48.6347 38.8961 48.5757 38.9434 48.5103 38.9918C48.4635 39.0263 48.4197 39.0551 48.3795 39.074C48.3393 39.0929 48.3043 39.1043 48.274 39.1122C48.2438 39.1202 48.2124 39.1217 48.1811 39.1087C48.1474 39.0974 48.1219 39.0874 48.1022 39.0803C48.0825 39.0732 48.0571 39.0486 48.0248 39.0146C47.9924 38.9807 47.9717 38.9527 47.9579 38.934L47.8819 38.8312L47.8715 38.8171L47.8611 38.8031L47.849 38.7868L47.4239 38.212L47.223 38.3606L47.0796 38.1666L47.2805 38.018L47.0127 37.6558L47.2791 37.4589L47.5469 37.821L47.7899 37.6413ZM47.9069 36.8464L48.3683 37.4703C48.3603 37.2738 48.4381 37.115 48.604 36.9923C48.7348 36.8956 48.863 36.8587 48.9896 36.8735C49.1138 36.89 49.229 36.9675 49.3292 37.103L49.934 37.9208L49.6653 38.1196L49.1244 37.3882C49.057 37.2971 48.9888 37.2391 48.9198 37.2142C48.8526 37.1916 48.7728 37.2109 48.6817 37.2782C48.5789 37.3543 48.53 37.4446 48.5317 37.5446C48.535 37.6469 48.5773 37.753 48.6586 37.8628L49.1372 38.5101L48.8732 38.7053L47.6429 37.0416L47.9069 36.8464Z" fill="black"/>
<path d="M39.7812 41.2587L40.616 41.175L40.1261 40.494L39.7812 41.2587ZM50.1344 33.8118L49.2996 33.8955L49.7895 34.5765L50.1344 33.8118ZM40.3121 40.8769L40.3545 40.9359L49.646 34.2526L49.6035 34.1936L49.5611 34.1346L40.2696 40.8179L40.3121 40.8769Z" fill="black"/>
<path d="M54.0692 19.3912L54.0692 20.1787C54.0692 20.3211 54.0517 20.4461 54.0227 20.5565C53.9936 20.6641 53.9384 20.7629 53.857 20.8559C53.6739 21.0593 53.4124 21.161 53.0695 21.161C52.7033 21.161 52.4214 21.0622 52.2296 20.8704C52.1424 20.7832 52.0843 20.6902 52.0494 20.5914C52.0145 20.4926 52 20.3618 52 20.1991L52 19.3912L54.0692 19.3912ZM53.7611 19.7515L52.3051 19.7515L52.3051 20.1787C52.3051 20.4054 52.3691 20.5652 52.5028 20.6582C52.6335 20.7512 52.8166 20.7977 53.052 20.7977C53.2729 20.7977 53.4473 20.7454 53.5722 20.6408C53.6972 20.5362 53.7611 20.3734 53.7611 20.1555L53.7611 19.7515ZM52.4679 22.7875C52.3051 22.7497 52.1773 22.6684 52.0872 22.5463C51.9942 22.4242 51.9506 22.276 51.9506 22.1075C51.9506 21.8808 52.0232 21.7006 52.1686 21.5669C52.3139 21.4333 52.5028 21.3693 52.7323 21.3693C52.9648 21.3693 53.1595 21.4362 53.3136 21.5727C53.4647 21.7093 53.5432 21.8837 53.5432 22.0958C53.5432 22.3138 53.4676 22.4882 53.3165 22.616C53.1654 22.7439 52.9619 22.8079 52.7033 22.8079L52.6684 22.8079L52.6684 21.7006C52.5173 21.7035 52.3981 21.7413 52.3168 21.814C52.2354 21.8837 52.1947 21.9854 52.1947 22.1133C52.1947 22.2034 52.2151 22.276 52.2586 22.3342C52.3022 22.3923 52.372 22.4359 52.4679 22.4707L52.4679 22.7875ZM52.8893 22.4766C53.0142 22.4649 53.1131 22.4271 53.1857 22.3574C53.2584 22.2877 53.2961 22.2005 53.2961 22.0929C53.2961 21.9825 53.2613 21.8953 53.1915 21.8285C53.1218 21.7616 53.0201 21.721 52.8893 21.7064L52.8893 22.4766ZM53.4996 23.3765L53.299 23.3765C53.4618 23.4753 53.5432 23.638 53.5432 23.8647C53.5432 24.071 53.4705 24.2367 53.3252 24.3617C53.1799 24.4837 52.9852 24.5477 52.744 24.5477C52.5057 24.5477 52.3168 24.4866 52.1744 24.3646C52.032 24.2425 51.9622 24.0827 51.9622 23.8821C51.9622 23.6671 52.0407 23.5044 52.1976 23.3939L51.4449 23.3939L51.4449 23.0655L53.4996 23.0655L53.4996 23.3765ZM53.2758 23.7979C53.2758 23.6671 53.2293 23.5654 53.1363 23.4927C53.0433 23.4172 52.9125 23.3823 52.7498 23.3823C52.587 23.3823 52.4592 23.4172 52.3662 23.4927C52.2732 23.5683 52.2267 23.67 52.2267 23.8037C52.2267 23.9286 52.2732 24.0275 52.3662 24.103C52.4592 24.1757 52.5841 24.2134 52.744 24.2134C52.9067 24.2134 53.0346 24.1757 53.1305 24.1001C53.2264 24.0246 53.2758 23.9257 53.2758 23.7979ZM53.4996 25.5687L53.2584 25.5687L53.2584 25.2664L52.4679 25.2664C52.4214 25.2664 52.3865 25.2664 52.3691 25.2693C52.3516 25.2693 52.3313 25.2751 52.3081 25.2868C52.2848 25.2955 52.2703 25.3129 52.2645 25.3362C52.2557 25.3594 52.2528 25.3943 52.2528 25.4379C52.2528 25.4902 52.2528 25.5338 52.2586 25.5687L51.9971 25.5687C51.9884 25.5018 51.9855 25.4263 51.9855 25.3449C51.9855 25.2868 51.9884 25.2345 51.9971 25.1909C52.0058 25.1473 52.0174 25.1124 52.0291 25.0833C52.0407 25.0543 52.0581 25.0281 52.0872 25.0107C52.1162 24.9903 52.1395 24.9758 52.1569 24.9642C52.1744 24.9526 52.2092 24.9467 52.2557 24.9409C52.3022 24.9351 52.3371 24.9351 52.3604 24.9351L52.4882 24.9351L52.5057 24.9351L52.5231 24.9351L52.5434 24.9351L53.2584 24.9351L53.2584 24.6852L53.4996 24.6852L53.4996 24.9351L53.95 24.9351L53.95 25.2664L53.4996 25.2664L53.4996 25.5687ZM54.0692 26.1354L53.2932 26.1354C53.456 26.2458 53.5373 26.4027 53.5373 26.6091C53.5373 26.7718 53.4908 26.8968 53.4037 26.9898C53.3165 27.0799 53.1857 27.1264 53.0171 27.1264L52 27.1264L52 26.7922L52.9096 26.7922C53.023 26.7922 53.1101 26.7718 53.1712 26.7311C53.2293 26.6905 53.2613 26.6149 53.2613 26.5016C53.2613 26.3737 53.2177 26.2807 53.1363 26.2226C53.052 26.1644 52.9416 26.1354 52.805 26.1354L52 26.1354L52 25.807L54.0692 25.807L54.0692 26.1354Z" fill="black"/>
<path d="M51.2266 13.6499L50.8071 14.3764L51.646 14.3764L51.2266 13.6499ZM51.2266 32.1765L51.646 31.45L50.8071 31.45L51.2266 32.1765ZM51.2266 14.3038L51.1539 14.3038L51.1539 31.5227L51.2266 31.5227L51.2992 31.5227L51.2992 14.3038L51.2266 14.3038Z" fill="black"/>
</svg>
