<svg width="176" height="136" viewBox="0 0 176 136" fill="none" xmlns="http://www.w3.org/2000/svg">
<path d="M0 16C0 7.16344 7.16344 0 16 0H160C168.837 0 176 7.16344 176 16V120C176 128.837 168.837 136 160 136H16C7.16344 136 0 128.837 0 120V16Z" fill="white"/>
<path d="M16 0.5H160C168.56 0.5 175.5 7.43959 175.5 16V120C175.5 128.56 168.56 135.5 160 135.5H16C7.43959 135.5 0.5 128.56 0.5 120V16C0.5 7.43959 7.43959 0.5 16 0.5Z" stroke="#B02E0C" stroke-opacity="0.16"/>
<rect x="11.9" y="40.9" width="138.2" height="69.2" rx="5.1" fill="#55A2F2" stroke="black" stroke-width="1.8"/>
<path d="M11 35L14 36.7321V33.2679L11 35ZM151 35L148 33.2679V36.7321L151 35ZM13.7 35V35.3H148.3V35V34.7H13.7V35Z" fill="black"/>
<path d="M83.6991 31.136V32H79.7951V26.304H80.8031V31.136H83.6991Z" fill="black"/>
<path d="M158.287 72.304H159.303L160.343 76.64L161.511 72.304H162.527L163.655 76.64L164.727 72.304H165.743L164.167 78H163.151L161.999 73.624L160.823 78H159.791L158.287 72.304Z" fill="black"/>
<path d="M156 40L154.268 43H157.732L156 40ZM156 111L157.732 108H154.268L156 111ZM156 42.7H155.7V108.3H156H156.3V42.7H156Z" fill="black"/>
</svg>
