<svg width="58" height="58" viewBox="0 0 58 58" fill="none" xmlns="http://www.w3.org/2000/svg">
<rect width="58" height="58" rx="14" fill="#F3F3F3"/>
<rect x="0.5" y="0.5" width="57" height="57" rx="13.5" stroke="#B02E0C" stroke-opacity="0.04"/>
<rect x="3.16114" y="19.7466" width="46.3376" height="23.2024" rx="1.71" fill="#55A2F2" stroke="black" stroke-width="0.603529"/>
<path d="M2.85938 17.7681L3.86526 18.3488V17.1873L2.85938 17.7681ZM49.8006 17.7681L48.7947 17.1873V18.3488L49.8006 17.7681ZM3.76467 17.7681V17.8687H48.8953V17.7681V17.6675H3.76467V17.7681Z" fill="black"/>
<path d="M27.3936 16.4608V16.7505H26.0846V14.8407H26.4226V16.4608H27.3936Z" fill="black"/>
<path d="M52.4034 30.265H52.744L53.0927 31.7188L53.4844 30.265H53.825L54.2032 31.7188L54.5627 30.265H54.9033L54.3749 32.1748H54.0342L53.648 30.7076L53.2537 32.1748H52.9077L52.4034 30.265Z" fill="black"/>
<path d="M51.4766 19.4458L50.8958 20.4517H52.0573L51.4766 19.4458ZM51.4766 43.2517L52.0573 42.2458H50.8958L51.4766 43.2517ZM51.4766 20.3511H51.376V42.3464H51.4766H51.5772V20.3511H51.4766Z" fill="black"/>
</svg>
