<svg width="15" height="15" viewBox="0 0 15 15" fill="none" xmlns="http://www.w3.org/2000/svg">
<path d="M6.9375 4.38561C6.23557 4.57754 5.8125 5.11616 5.8125 5.625C5.8125 6.13384 6.23557 6.67246 6.9375 6.86439V4.38561Z" fill="white"/>
<path d="M8.0625 8.13561V10.6144C8.76443 10.4225 9.1875 9.88384 9.1875 9.375C9.1875 8.86616 8.76443 8.32754 8.0625 8.13561Z" fill="white"/>
<path fill-rule="evenodd" clip-rule="evenodd" d="M15 7.5C15 11.6421 11.6421 15 7.5 15C3.35786 15 0 11.6421 0 7.5C0 3.35786 3.35786 0 7.5 0C11.6421 0 15 3.35786 15 7.5ZM7.5 2.4375C7.81066 2.4375 8.0625 2.68934 8.0625 3V3.23755C9.28532 3.4565 10.3125 4.37521 10.3125 5.625C10.3125 5.93566 10.0607 6.1875 9.75 6.1875C9.43934 6.1875 9.1875 5.93566 9.1875 5.625C9.1875 5.11616 8.76443 4.57754 8.0625 4.38561V6.98755C9.28532 7.2065 10.3125 8.12521 10.3125 9.375C10.3125 10.6248 9.28532 11.5435 8.0625 11.7624V12C8.0625 12.3107 7.81066 12.5625 7.5 12.5625C7.18934 12.5625 6.9375 12.3107 6.9375 12V11.7624C5.71468 11.5435 4.6875 10.6248 4.6875 9.375C4.6875 9.06434 4.93934 8.8125 5.25 8.8125C5.56066 8.8125 5.8125 9.06434 5.8125 9.375C5.8125 9.88384 6.23557 10.4225 6.9375 10.6144V8.01245C5.71468 7.7935 4.6875 6.87479 4.6875 5.625C4.6875 4.37521 5.71468 3.4565 6.9375 3.23755V3C6.9375 2.68934 7.18934 2.4375 7.5 2.4375Z" fill="white"/>
</svg>
