<svg width="38" height="38" viewBox="0 0 38 38" fill="none" xmlns="http://www.w3.org/2000/svg">
<path d="M7.62549 37.9963V0.0215234C7.62549 0.01425 7.62645 0.00719922 7.6266 0H5.7335C4.87754 0 4.18359 0.693945 4.18359 1.54991V36.4501C4.18359 37.3061 4.87754 38 5.7335 38H7.62571C7.62571 37.9987 7.62549 37.9976 7.62549 37.9963ZM28.0072 0H9.98757C9.98772 0.00719922 9.98869 0.01425 9.98869 0.0215234V37.9963C9.98869 37.9976 9.98854 37.9987 9.98847 38H28.0063C28.0063 37.9987 28.0061 37.9976 28.0061 37.9963V0.0215234C28.0061 0.01425 28.0071 0.00719922 28.0072 0ZM20.0847 33.4378C20.0847 34.0904 19.5556 34.6194 18.9031 34.6194C18.2506 34.6194 17.7215 34.0904 17.7215 33.4378V30.0276C17.7215 29.3751 18.2506 28.8461 18.9031 28.8461C19.5556 28.8461 20.0847 29.3751 20.0847 30.0276V33.4378ZM20.0847 24.8529C20.0847 25.5054 19.5556 26.0345 18.9031 26.0345C18.2506 26.0345 17.7215 25.5054 17.7215 24.8529V21.4427C17.7215 20.7902 18.2506 20.2611 18.9031 20.2611C19.5556 20.2611 20.0847 20.7902 20.0847 21.4427V24.8529ZM20.0847 16.268C20.0847 16.9205 19.5556 17.4496 18.9031 17.4496C18.2506 17.4496 17.7215 16.9205 17.7215 16.268V12.8578C17.7215 12.2053 18.2506 11.6762 18.9031 11.6762C19.5556 11.6762 20.0847 12.2053 20.0847 12.8578V16.268ZM20.0847 7.68305C20.0847 8.33558 19.5556 8.86461 18.9031 8.86461C18.2506 8.86461 17.7215 8.33558 17.7215 7.68305V4.27285C17.7215 3.62032 18.2506 3.09129 18.9031 3.09129C19.5556 3.09129 20.0847 3.62032 20.0847 4.27285V7.68305ZM30.3682 0C30.3683 0.00719922 30.3693 0.01425 30.3693 0.0215234V37.9963C30.3693 37.9976 30.3692 37.9987 30.3691 38H32.266C33.1219 38 33.8159 37.3061 33.8159 36.4501V1.54991C33.8159 0.693945 33.1219 0 32.266 0H30.3682Z" fill="#B02E0C"/>
</svg>
