<svg width="176" height="136" viewBox="0 0 176 136" fill="none" xmlns="http://www.w3.org/2000/svg">
<path d="M0 16C0 7.16344 7.16344 0 16 0H160C168.837 0 176 7.16344 176 16V120C176 128.837 168.837 136 160 136H16C7.16344 136 0 128.837 0 120V16Z" fill="white"/>
<path d="M16 0.5H160C168.56 0.5 175.5 7.43959 175.5 16V120C175.5 128.56 168.56 135.5 160 135.5H16C7.43959 135.5 0.5 128.56 0.5 120V16C0.5 7.43959 7.43959 0.5 16 0.5Z" stroke="#B02E0C" stroke-opacity="0.16"/>
<rect x="15.9" y="33.9" width="129.2" height="73.2" rx="36.6" fill="#55A2F2" stroke="black" stroke-width="1.8"/>
<path d="M42 26.5L47 29.3868V23.6132L42 26.5ZM119.5 26.5L114.5 23.6132V29.3868L119.5 26.5ZM46.5 26.5V27H115V26.5V26H46.5V26.5Z" fill="black"/>
<path d="M82.7489 21.92V23H77.8689V15.88H79.1289V21.92H82.7489Z" fill="black"/>
<path d="M155.358 66.88H156.628L157.928 72.3L159.388 66.88H160.658L162.068 72.3L163.408 66.88H164.678L162.708 74H161.438L159.998 68.53L158.528 74H157.238L155.358 66.88Z" fill="black"/>
<path d="M153 33L150.113 38L155.887 38L153 33ZM153 108L155.887 103L150.113 103L153 108ZM153 37.5L152.5 37.5L152.5 103.5L153 103.5L153.5 103.5L153.5 37.5L153 37.5Z" fill="black"/>
</svg>
