<svg width="58" height="58" viewBox="0 0 58 58" fill="none" xmlns="http://www.w3.org/2000/svg">
<rect width="58" height="58" rx="14" fill="#F3F3F3"/>
<rect x="0.5" y="0.5" width="57" height="57" rx="13.5" stroke="#B02E0C" stroke-opacity="0.04"/>
<rect x="3.3394" y="19.3785" width="44.2372" height="25.0632" rx="12.5316" fill="#55A2F2" stroke="black" stroke-width="0.616307"/>
<path d="M12.2734 16.8442L13.9854 17.8326V15.8558L12.2734 16.8442ZM38.8089 16.8442L37.0969 15.8558V17.8326L38.8089 16.8442ZM13.8142 16.8442V17.0154H37.2681V16.8442V16.673H13.8142V16.8442Z" fill="black"/>
<path d="M26.199 14.8802V15.25H24.5281V12.8122H24.9596V14.8802H26.199Z" fill="black"/>
<path d="M51.3795 30.2736H51.8143L52.2594 32.1294L52.7593 30.2736H53.1942L53.6769 32.1294L54.1357 30.2736H54.5706L53.8961 32.7114H53.4612L52.9682 30.8385L52.4649 32.7114H52.0232L51.3795 30.2736Z" fill="black"/>
<path d="M50.2812 19.0703L49.2928 20.7823L51.2697 20.7823L50.2812 19.0703ZM50.2813 44.7498L51.2697 43.0378L49.2928 43.0378L50.2813 44.7498ZM50.2813 20.6111L50.1101 20.6111L50.1101 43.209L50.2813 43.209L50.4524 43.209L50.4524 20.6111L50.2813 20.6111Z" fill="black"/>
</svg>
