<svg width="50" height="50" viewBox="0 0 50 50" fill="none" xmlns="http://www.w3.org/2000/svg">
<path fill-rule="evenodd" clip-rule="evenodd" d="M0.34375 31.4447C0.34375 31.2932 0.429351 31.1547 0.564865 31.0869L17.5167 22.611C17.6293 22.5547 17.7619 22.5547 17.8745 22.611L37.5751 32.4604C37.8193 32.5825 37.8722 32.908 37.6791 33.101L35.984 34.7961C35.8623 34.9179 35.6763 34.9481 35.5223 34.8711L18.1042 26.162C17.9773 26.0986 17.8374 26.0656 17.6956 26.0656C17.5538 26.0656 17.4139 26.0986 17.287 26.162L0.922636 34.3442C0.656675 34.4772 0.34375 34.2838 0.34375 33.9864V31.4447ZM48.976 18.9087C49.228 18.6567 49.6588 18.8352 49.6588 19.1915V20.9556C49.6588 21.0617 49.6167 21.1635 49.5417 21.2385L39.6368 31.1433C39.5151 31.265 39.3291 31.2952 39.1751 31.2182L37.999 30.6302C37.7548 30.5081 37.702 30.1826 37.8951 29.9896L48.976 18.9087ZM48.5337 16.0227C48.7779 16.1448 48.8307 16.4702 48.6376 16.6633L35.984 29.3169C35.8623 29.4386 35.6763 29.4688 35.5223 29.3918L19.7332 21.4981C19.4889 21.376 19.4361 21.0505 19.6292 20.8575L32.2845 8.20383C32.4062 8.08211 32.5922 8.05193 32.7462 8.12892L48.5337 16.0227ZM14.6415 16.742C14.6031 16.7612 14.568 16.7865 14.5376 16.8169L5.79768 25.5554C5.4768 25.8762 5.85347 26.3989 6.25934 26.196L17.0968 20.7787C17.1353 20.7595 17.1704 20.7342 17.2008 20.7038L25.9393 11.9639C26.2601 11.643 25.8833 11.1203 25.4775 11.3233L14.6415 16.742Z" fill="#B02E0C"/>
</svg>
