<svg width="176" height="136" viewBox="0 0 176 136" fill="none" xmlns="http://www.w3.org/2000/svg">
<path d="M0 16C0 7.16344 7.16344 0 16 0H160C168.837 0 176 7.16344 176 16V120C176 128.837 168.837 136 160 136H16C7.16344 136 0 128.837 0 120V16Z" fill="white"/>
<path d="M16 0.5H160C168.56 0.5 175.5 7.43959 175.5 16V120C175.5 128.56 168.56 135.5 160 135.5H16C7.43959 135.5 0.5 128.56 0.5 120V16C0.5 7.43959 7.43959 0.5 16 0.5Z" stroke="#B02E0C" stroke-opacity="0.16"/>
<path d="M134.622 34.0391L159.985 48.4033H160.206V55.3047H126.472L75.6885 93.5049L75.6094 93.5645L75.5098 93.5654L42.0498 93.7871V94.0186L41.5957 93.748L15.9395 78.4434L15.793 78.3564V71.5889L16.1738 71.8096H49.5518V65.7412L49.8438 65.7334L58.1045 65.5156V59.6562H66.6562V53.3555H75.209V46.8281H83.7607V40.3018H91.8633V34H134.554L134.622 34.0391ZM118.119 55.1543L118 55.2441L101.237 67.9053V68.3584H100.638L92.9102 74.1943V74.6602H92.2949L84.3584 80.6543V80.9619H83.9512L75.6885 87.2031L75.6084 87.2637H42.0498V93.1875L75.4072 92.9648L126.191 54.7646L126.271 54.7051H159.605V49.0029H118.119V55.1543ZM16.3926 78.0156L41.4492 92.9609V87.1348L16.3926 72.6289V78.0156ZM41.8291 86.6631H74.3896L49.7705 72.4102H17.2109L41.8291 86.6631ZM50.1514 71.9365L75.2061 86.4414V80.8359L50.1514 66.5498V71.9365ZM75.8057 86.3604L82.9541 80.9619H75.8057V86.3604ZM50.9307 66.3047L75.585 80.3613H82.9424L58.3262 66.1104L50.9307 66.3047ZM58.7041 65.6348L83.7578 80.1396V74.5342L58.7041 60.4688V65.6348ZM84.3584 79.9004L91.2979 74.6602H84.3584V79.9004ZM84.1387 74.0605H91.4678L66.8789 60.2568H59.5508L84.1387 74.0605ZM67.2568 59.7803L92.3105 73.8457V68.2314L67.2568 54.167V59.7803ZM92.9102 73.4414L99.6416 68.3584H92.9102V73.4414ZM92.6924 67.7588H99.8008L75.4287 53.9551H68.1045L92.6924 67.7588ZM75.8086 53.4814L100.638 67.543V61.4814L75.8086 47.6396V53.4814ZM101.237 67.1523L108.581 61.6064H101.237V67.1523ZM101.016 61.0068H108.12L83.9805 47.4287H76.6611L101.016 61.0068ZM109.564 60.8633L116.925 55.3047H109.564V60.8633ZM84.3613 46.9531L108.965 60.793V55.1777L84.3613 41.1182V46.9531ZM109.346 54.7051H116.675L92.0859 40.9014H85.1895L109.346 54.7051ZM92.4629 40.4248L117.52 54.4912V48.8779L92.4629 34.8115V40.4248ZM117.897 48.4033H158.768L134.396 34.5996H93.3096L117.897 48.4033Z" fill="black"/>
<path d="M14.5 71.707L13.9226 72.707H15.0774L14.5 71.707ZM14.5 78.207L15.0774 77.207H13.9226L14.5 78.207ZM14.5 72.607H14.4V77.307H14.5H14.6V72.607H14.5Z" fill="black"/>
<path d="M6.45 72.935H8.076C8.37 72.935 8.628 72.971 8.856 73.031C9.078 73.091 9.282 73.205 9.474 73.373C9.894 73.751 10.104 74.291 10.104 74.999C10.104 75.755 9.9 76.337 9.504 76.733C9.324 76.913 9.132 77.033 8.928 77.105C8.724 77.177 8.454 77.207 8.118 77.207H6.45V72.935ZM7.194 73.571V76.577H8.076C8.544 76.577 8.874 76.445 9.066 76.169C9.258 75.899 9.354 75.521 9.354 75.035C9.354 74.579 9.246 74.219 9.03 73.961C8.814 73.703 8.478 73.571 8.028 73.571H7.194ZM12.5921 72.983V77.207H11.8601V74.303H10.8161V73.799C11.5421 73.799 11.9501 73.529 12.0401 72.983H12.5921Z" fill="black"/>
<path d="M161 48.207L160.423 49.207H161.577L161 48.207ZM161 55.207L161.577 54.207H160.423L161 55.207ZM161 49.107H160.9V54.307H161H161.1V49.107H161Z" fill="black"/>
<path d="M162.45 49.435H164.076C164.37 49.435 164.628 49.471 164.856 49.531C165.078 49.591 165.282 49.705 165.474 49.873C165.894 50.251 166.104 50.791 166.104 51.499C166.104 52.255 165.9 52.837 165.504 53.233C165.324 53.413 165.132 53.533 164.928 53.605C164.724 53.677 164.454 53.707 164.118 53.707H162.45V49.435ZM163.194 50.071V53.077H164.076C164.544 53.077 164.874 52.945 165.066 52.669C165.258 52.399 165.354 52.021 165.354 51.535C165.354 51.079 165.246 50.719 165.03 50.461C164.814 50.203 164.478 50.071 164.028 50.071H163.194ZM169.336 53.101V53.707H166.468C166.468 53.521 166.498 53.347 166.546 53.191C166.594 53.035 166.648 52.903 166.708 52.795C166.768 52.687 166.864 52.573 166.984 52.459C167.104 52.345 167.218 52.249 167.314 52.177C167.41 52.105 167.548 52.009 167.722 51.889C167.734 51.883 167.788 51.847 167.896 51.775C168.004 51.703 168.07 51.661 168.094 51.643C168.118 51.625 168.172 51.583 168.256 51.517C168.34 51.451 168.394 51.397 168.418 51.355C168.442 51.319 168.478 51.265 168.526 51.193C168.574 51.127 168.604 51.061 168.622 50.989C168.634 50.917 168.646 50.845 168.646 50.761C168.646 50.545 168.58 50.371 168.46 50.245C168.34 50.119 168.172 50.053 167.968 50.053C167.848 50.053 167.74 50.077 167.656 50.113C167.566 50.149 167.494 50.197 167.446 50.257C167.398 50.317 167.356 50.395 167.326 50.491C167.29 50.587 167.272 50.671 167.26 50.755C167.248 50.839 167.242 50.941 167.242 51.049H166.576V50.941C166.576 50.491 166.702 50.131 166.954 49.867C167.206 49.603 167.554 49.465 167.986 49.465C168.394 49.465 168.718 49.585 168.97 49.813C169.216 50.041 169.342 50.347 169.342 50.725C169.342 50.881 169.318 51.025 169.27 51.157C169.222 51.295 169.168 51.403 169.114 51.487C169.06 51.571 168.97 51.673 168.838 51.781C168.706 51.895 168.604 51.973 168.544 52.015C168.478 52.063 168.358 52.141 168.19 52.255C167.686 52.579 167.386 52.861 167.29 53.101H169.336Z" fill="black"/>
<path d="M29.444 61.935H31.466C31.886 61.935 32.234 62.031 32.504 62.223C32.768 62.415 32.906 62.715 32.906 63.123C32.906 63.381 32.84 63.603 32.72 63.783C32.594 63.963 32.42 64.095 32.198 64.173C32.3 64.197 32.39 64.233 32.468 64.281C32.54 64.329 32.6 64.383 32.642 64.437C32.684 64.497 32.72 64.569 32.75 64.653C32.774 64.743 32.792 64.821 32.804 64.887C32.816 64.953 32.822 65.037 32.834 65.145C32.834 65.175 32.84 65.229 32.846 65.307C32.852 65.391 32.858 65.445 32.858 65.469C32.858 65.493 32.864 65.541 32.87 65.601C32.876 65.667 32.882 65.715 32.888 65.739C32.888 65.763 32.894 65.805 32.906 65.853C32.918 65.901 32.924 65.943 32.936 65.967C32.942 65.991 32.954 66.021 32.966 66.057C32.978 66.093 32.99 66.117 33.008 66.141C33.02 66.165 33.038 66.189 33.062 66.207H32.258C32.246 66.195 32.234 66.177 32.222 66.153C32.21 66.129 32.204 66.105 32.198 66.081C32.186 66.057 32.18 66.033 32.18 66.009C32.174 65.985 32.168 65.955 32.162 65.919C32.156 65.883 32.156 65.847 32.156 65.823L32.144 65.715L32.132 65.607C32.132 65.583 32.126 65.541 32.126 65.481C32.12 65.421 32.12 65.379 32.12 65.355C32.096 65.007 32.024 64.773 31.898 64.641C31.772 64.509 31.532 64.443 31.184 64.443H30.188V66.207H29.444V61.935ZM30.188 62.547V63.885H31.178C31.322 63.885 31.442 63.879 31.544 63.861C31.64 63.849 31.742 63.819 31.844 63.777C31.946 63.735 32.024 63.663 32.078 63.567C32.132 63.471 32.162 63.351 32.162 63.201C32.162 63.069 32.138 62.955 32.09 62.865C32.042 62.775 31.97 62.709 31.88 62.661C31.79 62.619 31.7 62.589 31.604 62.571C31.508 62.559 31.4 62.547 31.274 62.547H30.188Z" fill="black"/>
<path d="M49.516 50.935V51.583H48.154V55.207H47.404V51.583H46.042V50.935H49.516Z" fill="black"/>
<path d="M56 67.207L55.9373 66.054L54.9701 66.6848L56 67.207ZM55.5084 66.4532L55.5921 66.3986L48.5838 55.6524L48.5 55.707L48.4162 55.7617L55.4246 66.5078L55.5084 66.4532Z" fill="black"/>
<path d="M20.048 86.935H20.81L21.59 90.187L22.466 86.935H23.228L24.074 90.187L24.878 86.935H25.64L24.458 91.207H23.696L22.832 87.925L21.95 91.207H21.176L20.048 86.935Z" fill="black"/>
<path d="M60.372 101.559V102.207H57.444V97.935H58.2V101.559H60.372ZM62.7073 97.983V102.207H61.9753V99.303H60.9313V98.799C61.6573 98.799 62.0653 98.529 62.1553 97.983H62.7073Z" fill="black"/>
<path d="M116.912 37.935V42.207H116.138L114.146 39.063V42.207H113.438V37.935H114.224L116.192 41.085V37.935H116.912Z" fill="black"/>
<path d="M120.45 74.935H122.076C122.37 74.935 122.628 74.971 122.856 75.031C123.078 75.091 123.282 75.205 123.474 75.373C123.894 75.751 124.104 76.291 124.104 76.999C124.104 77.755 123.9 78.337 123.504 78.733C123.324 78.913 123.132 79.033 122.928 79.105C122.724 79.177 122.454 79.207 122.118 79.207H120.45V74.935ZM121.194 75.571V78.577H122.076C122.544 78.577 122.874 78.445 123.066 78.169C123.258 77.899 123.354 77.521 123.354 77.035C123.354 76.579 123.246 76.219 123.03 75.961C122.814 75.703 122.478 75.571 122.028 75.571H121.194ZM124.594 76.357C124.606 75.925 124.732 75.589 124.978 75.337C125.218 75.091 125.548 74.965 125.962 74.965C126.346 74.965 126.664 75.073 126.904 75.277C127.144 75.487 127.264 75.757 127.264 76.093C127.264 76.297 127.21 76.477 127.102 76.633C126.994 76.789 126.856 76.891 126.676 76.951C126.91 77.011 127.096 77.131 127.234 77.305C127.366 77.479 127.438 77.689 127.438 77.941C127.438 78.343 127.3 78.667 127.024 78.919C126.748 79.171 126.388 79.297 125.95 79.297C125.512 79.297 125.158 79.171 124.894 78.919C124.624 78.667 124.492 78.337 124.492 77.917V77.827H125.152C125.17 78.415 125.44 78.709 125.968 78.709C126.196 78.709 126.382 78.643 126.52 78.511C126.652 78.379 126.724 78.193 126.724 77.959C126.724 77.719 126.646 77.539 126.49 77.425C126.334 77.317 126.13 77.257 125.884 77.257C125.806 77.257 125.734 77.263 125.668 77.263V76.747H125.728C125.848 76.747 125.956 76.741 126.046 76.729C126.13 76.717 126.22 76.687 126.31 76.651C126.4 76.615 126.472 76.549 126.52 76.465C126.568 76.381 126.592 76.273 126.592 76.141C126.592 75.961 126.532 75.811 126.418 75.697C126.298 75.589 126.142 75.529 125.95 75.529C125.5 75.529 125.266 75.805 125.248 76.357H124.594Z" fill="black"/>
<path d="M143.372 62.559V63.207H140.444V58.935H141.2V62.559H143.372ZM146.451 62.601V63.207H143.583C143.583 63.021 143.613 62.847 143.661 62.691C143.709 62.535 143.763 62.403 143.823 62.295C143.883 62.187 143.979 62.073 144.099 61.959C144.219 61.845 144.333 61.749 144.429 61.677C144.525 61.605 144.663 61.509 144.837 61.389C144.849 61.383 144.903 61.347 145.011 61.275C145.119 61.203 145.185 61.161 145.209 61.143C145.233 61.125 145.287 61.083 145.371 61.017C145.455 60.951 145.509 60.897 145.533 60.855C145.557 60.819 145.593 60.765 145.641 60.693C145.689 60.627 145.719 60.561 145.737 60.489C145.749 60.417 145.761 60.345 145.761 60.261C145.761 60.045 145.695 59.871 145.575 59.745C145.455 59.619 145.287 59.553 145.083 59.553C144.963 59.553 144.855 59.577 144.771 59.613C144.681 59.649 144.609 59.697 144.561 59.757C144.513 59.817 144.471 59.895 144.441 59.991C144.405 60.087 144.387 60.171 144.375 60.255C144.363 60.339 144.357 60.441 144.357 60.549H143.691V60.441C143.691 59.991 143.817 59.631 144.069 59.367C144.321 59.103 144.669 58.965 145.101 58.965C145.509 58.965 145.833 59.085 146.085 59.313C146.331 59.541 146.457 59.847 146.457 60.225C146.457 60.381 146.433 60.525 146.385 60.657C146.337 60.795 146.283 60.903 146.229 60.987C146.175 61.071 146.085 61.173 145.953 61.281C145.821 61.395 145.719 61.473 145.659 61.515C145.593 61.563 145.473 61.641 145.305 61.755C144.801 62.079 144.501 62.361 144.405 62.601H146.451Z" fill="black"/>
<path d="M42 96.207L43 96.7844V95.6297L42 96.207ZM76 96.207L75 95.6297V96.7844L76 96.207ZM42.9 96.207V96.307H75.1V96.207V96.107H42.9V96.207Z" fill="black"/>
<path d="M15 79.207L15.5576 80.2181L16.1545 79.2297L15 79.207ZM41.5 95.207L40.9424 94.1959L40.3455 95.1844L41.5 95.207ZM15.7705 79.6722L15.7188 79.7578L40.6779 94.8275L40.7295 94.7418L40.7812 94.6562L15.8221 79.5866L15.7705 79.6722Z" fill="black"/>
<path d="M51.5 69.707L50.7035 68.871L50.3777 69.9788L51.5 69.707ZM50.6366 69.4531L50.6648 69.3571L34.5282 64.6111L34.5 64.707L34.4718 64.803L50.6084 69.549L50.6366 69.4531Z" fill="black"/>
<path d="M104 67.707L104.577 68.707L105.155 67.707L104 67.707ZM104.779 68.157L104.729 68.2436L118.673 76.2936L118.723 76.207L118.773 76.1204L104.829 68.0704L104.779 68.157Z" fill="black"/>
<path d="M126 58.207L127 58.7844L127 57.6297L126 58.207ZM160 58.207L159 57.6297L159 58.7844L160 58.207ZM126.9 58.207L126.9 58.307L159.1 58.307L159.1 58.207L159.1 58.107L126.9 58.107L126.9 58.207Z" fill="black"/>
</svg>
