<svg width="176" height="136" viewBox="0 0 176 136" fill="none" xmlns="http://www.w3.org/2000/svg">
<path d="M0 16C0 7.16344 7.16344 0 16 0H160C168.837 0 176 7.16344 176 16V120C176 128.837 168.837 136 160 136H16C7.16344 136 0 128.837 0 120V16Z" fill="white"/>
<path d="M16 0.5H160C168.56 0.5 175.5 7.43959 175.5 16V120C175.5 128.56 168.56 135.5 160 135.5H16C7.43959 135.5 0.5 128.56 0.5 120V16C0.5 7.43959 7.43959 0.5 16 0.5Z" stroke="#B02E0C" stroke-opacity="0.16"/>
<path d="M20.2588 25.1445H50.8701L50.918 25.1719L68.791 35.4434L69.458 35.8271H69.0967V36.5322L75.3193 40.3467H75.877V41.668L81.2754 44.8672H82.04V46.1885L87.2363 49.3867H88.2031V50.7129L92.9932 53.9062H94.3662V55.2314L97.6543 57.4238V57.3984H118.664L118.712 57.4258L155.896 78.791L155.999 78.8496V83.6943H131.62L94.4902 111.388L94.4355 111.428H69.4551L69.4072 111.4L50.918 100.718L50.8154 100.658V95.8145H75.4678V91.2949H81.6309V86.5703H87.999V82.0508H94.1621V77.5312H100.325V72.8057H106.146L63.6875 40.5527H38.8994V40.6992L38.5928 40.5254L20.1035 30.0479L20 29.9893V25L20.2588 25.1445ZM125.182 83.6943H119.019V88.4189H112.855V92.9385H106.692V97.458H100.529V102.389H94.3652V106.908H69.7148V111.018H94.2988L131.429 83.3242L131.483 83.2832H155.588V79.0879L155.381 78.9688H125.182V83.6943ZM51.2256 100.421L69.3037 110.866V106.82L51.2256 96.2578V100.421ZM69.5664 106.498H93.3965L75.6162 96.2256H51.9844L69.5664 106.498ZM75.8779 95.9023L93.9551 106.347V102.301L75.8779 91.8564V95.9023ZM94.2168 101.979H99.5605L81.7803 91.7061H76.4365L94.2168 101.979ZM82.042 91.3818L100.118 101.825V97.3711L82.042 87.1279V91.3818ZM100.38 97.0479H105.719L88.1504 86.9814H82.6162L100.38 97.0479ZM88.4102 86.6553L106.281 96.8965V92.8506L88.4102 82.6104V86.6553ZM106.545 92.5283H111.88L94.3096 82.4609H88.9775L106.545 92.5283ZM94.5732 82.1367L112.444 92.3779V88.332L94.5732 78.0918V82.1367ZM112.706 88.0088H118.043L100.473 77.9414H95.1387L112.706 88.0088ZM100.736 77.6172L118.607 87.8584V83.6074L100.736 73.3672V77.6172ZM106.488 73.2168H101.302L118.867 83.2832H124.212L106.692 73.1602V73.2207L106.488 73.0654V73.2168ZM106.692 72.6865L124.771 83.1318V78.8828L106.692 68.6377V72.6865ZM99.7734 58.8369H100.529V60.1572L105.927 63.3564H106.692V68.166L125.031 78.5586H154.667L118.555 57.8086H98.2314L99.7734 58.8369ZM38.8994 40.1416H63.8252L63.8799 40.1836L106.281 72.3916V63.7666H100.118V59.2471H93.9551V54.3164H87.792V49.7969H81.6289V45.2773H75.4658V40.7578H68.6865V35.8271H38.8994V40.1416ZM100.529 63.3564H105.121L100.529 60.6348V63.3564ZM94.3662 58.8369H99.0322L94.3662 55.7256V58.8369ZM88.2031 53.9062H92.251L88.2031 51.207V53.9062ZM82.04 49.3867H86.4521L82.04 46.6709V49.3867ZM75.877 44.8672H80.4697L75.877 42.1445V44.8672ZM69.0967 40.3467H74.5342L69.0967 37.0137V40.3467ZM20.4102 29.749L38.4893 39.9941V35.7422L20.4102 25.6982V29.749ZM38.748 35.416H67.918L50.7607 25.5547H20.9971L38.748 35.416Z" fill="black"/>
<path d="M18.5 25L17.9226 26H19.0774L18.5 25ZM18.5 30L19.0774 29H17.9226L18.5 30ZM18.5 25.9H18.4V29.1H18.5H18.6V25.9H18.5Z" fill="black"/>
<path d="M49.5 96L48.9226 97H50.0774L49.5 96ZM49.5 101L50.0774 100H48.9226L49.5 101ZM49.5 96.9H49.4V100.1H49.5H49.6V96.9H49.5Z" fill="black"/>
<path d="M9.45 25.728H11.076C11.37 25.728 11.628 25.764 11.856 25.824C12.078 25.884 12.282 25.998 12.474 26.166C12.894 26.544 13.104 27.084 13.104 27.792C13.104 28.548 12.9 29.13 12.504 29.526C12.324 29.706 12.132 29.826 11.928 29.898C11.724 29.97 11.454 30 11.118 30H9.45V25.728ZM10.194 26.364V29.37H11.076C11.544 29.37 11.874 29.238 12.066 28.962C12.258 28.692 12.354 28.314 12.354 27.828C12.354 27.372 12.246 27.012 12.03 26.754C11.814 26.496 11.478 26.364 11.028 26.364H10.194ZM16.4621 28.428V29.004H15.9281V30H15.2681L15.2621 29.004H13.4801V28.326L15.2801 25.764H15.9281V28.428H16.4621ZM15.2741 28.428V26.61L14.0441 28.428H15.2741Z" fill="black"/>
<path d="M40.45 96.728H42.076C42.37 96.728 42.628 96.764 42.856 96.824C43.078 96.884 43.282 96.998 43.474 97.166C43.894 97.544 44.104 98.084 44.104 98.792C44.104 99.548 43.9 100.13 43.504 100.526C43.324 100.706 43.132 100.826 42.928 100.898C42.724 100.97 42.454 101 42.118 101H40.45V96.728ZM41.194 97.364V100.37H42.076C42.544 100.37 42.874 100.238 43.066 99.962C43.258 99.692 43.354 99.314 43.354 98.828C43.354 98.372 43.246 98.012 43.03 97.754C42.814 97.496 42.478 97.364 42.028 97.364H41.194ZM46.5921 96.776V101H45.8601V98.096H44.8161V97.592C45.5421 97.592 45.9501 97.322 46.0401 96.776H46.5921Z" fill="black"/>
<path d="M60.444 87.728H62.466C62.886 87.728 63.234 87.824 63.504 88.016C63.768 88.208 63.906 88.508 63.906 88.916C63.906 89.174 63.84 89.396 63.72 89.576C63.594 89.756 63.42 89.888 63.198 89.966C63.3 89.99 63.39 90.026 63.468 90.074C63.54 90.122 63.6 90.176 63.642 90.23C63.684 90.29 63.72 90.362 63.75 90.446C63.774 90.536 63.792 90.614 63.804 90.68C63.816 90.746 63.822 90.83 63.834 90.938C63.834 90.968 63.84 91.022 63.846 91.1C63.852 91.184 63.858 91.238 63.858 91.262C63.858 91.286 63.864 91.334 63.87 91.394C63.876 91.46 63.882 91.508 63.888 91.532C63.888 91.556 63.894 91.598 63.906 91.646C63.918 91.694 63.924 91.736 63.936 91.76C63.942 91.784 63.954 91.814 63.966 91.85C63.978 91.886 63.99 91.91 64.008 91.934C64.02 91.958 64.038 91.982 64.062 92H63.258C63.246 91.988 63.234 91.97 63.222 91.946C63.21 91.922 63.204 91.898 63.198 91.874C63.186 91.85 63.18 91.826 63.18 91.802C63.174 91.778 63.168 91.748 63.162 91.712C63.156 91.676 63.156 91.64 63.156 91.616L63.144 91.508L63.132 91.4C63.132 91.376 63.126 91.334 63.126 91.274C63.12 91.214 63.12 91.172 63.12 91.148C63.096 90.8 63.024 90.566 62.898 90.434C62.772 90.302 62.532 90.236 62.184 90.236H61.188V92H60.444V87.728ZM61.188 88.34V89.678H62.178C62.322 89.678 62.442 89.672 62.544 89.654C62.64 89.642 62.742 89.612 62.844 89.57C62.946 89.528 63.024 89.456 63.078 89.36C63.132 89.264 63.162 89.144 63.162 88.994C63.162 88.862 63.138 88.748 63.09 88.658C63.042 88.568 62.97 88.502 62.88 88.454C62.79 88.412 62.7 88.382 62.604 88.364C62.508 88.352 62.4 88.34 62.274 88.34H61.188Z" fill="black"/>
<path d="M76.516 78.728V79.376H75.154V83H74.404V79.376H73.042V78.728H76.516Z" fill="black"/>
<path d="M157 79L156.423 80H157.577L157 79ZM157 84L157.577 83H156.423L157 84ZM157 79.9H156.9V83.1H157H157.1V79.9H157Z" fill="black"/>
<path d="M158.45 79.728H160.076C160.37 79.728 160.628 79.764 160.856 79.824C161.078 79.884 161.282 79.998 161.474 80.166C161.894 80.544 162.104 81.084 162.104 81.792C162.104 82.548 161.9 83.13 161.504 83.526C161.324 83.706 161.132 83.826 160.928 83.898C160.724 83.97 160.454 84 160.118 84H158.45V79.728ZM159.194 80.364V83.37H160.076C160.544 83.37 160.874 83.238 161.066 82.962C161.258 82.692 161.354 82.314 161.354 81.828C161.354 81.372 161.246 81.012 161.03 80.754C160.814 80.496 160.478 80.364 160.028 80.364H159.194ZM165.336 83.394V84H162.468C162.468 83.814 162.498 83.64 162.546 83.484C162.594 83.328 162.648 83.196 162.708 83.088C162.768 82.98 162.864 82.866 162.984 82.752C163.104 82.638 163.218 82.542 163.314 82.47C163.41 82.398 163.548 82.302 163.722 82.182C163.734 82.176 163.788 82.14 163.896 82.068C164.004 81.996 164.07 81.954 164.094 81.936C164.118 81.918 164.172 81.876 164.256 81.81C164.34 81.744 164.394 81.69 164.418 81.648C164.442 81.612 164.478 81.558 164.526 81.486C164.574 81.42 164.604 81.354 164.622 81.282C164.634 81.21 164.646 81.138 164.646 81.054C164.646 80.838 164.58 80.664 164.46 80.538C164.34 80.412 164.172 80.346 163.968 80.346C163.848 80.346 163.74 80.37 163.656 80.406C163.566 80.442 163.494 80.49 163.446 80.55C163.398 80.61 163.356 80.688 163.326 80.784C163.29 80.88 163.272 80.964 163.26 81.048C163.248 81.132 163.242 81.234 163.242 81.342H162.576V81.234C162.576 80.784 162.702 80.424 162.954 80.16C163.206 79.896 163.554 79.758 163.986 79.758C164.394 79.758 164.718 79.878 164.97 80.106C165.216 80.334 165.342 80.64 165.342 81.018C165.342 81.174 165.318 81.318 165.27 81.45C165.222 81.588 165.168 81.696 165.114 81.78C165.06 81.864 164.97 81.966 164.838 82.074C164.706 82.188 164.604 82.266 164.544 82.308C164.478 82.356 164.358 82.434 164.19 82.548C163.686 82.872 163.386 83.154 163.29 83.394H165.336Z" fill="black"/>
<path d="M51.372 47.352V48H48.444V43.728H49.2V47.352H51.372ZM51.7093 45.15C51.7213 44.718 51.8473 44.382 52.0933 44.13C52.3333 43.884 52.6633 43.758 53.0773 43.758C53.4613 43.758 53.7793 43.866 54.0193 44.07C54.2593 44.28 54.3793 44.55 54.3793 44.886C54.3793 45.09 54.3253 45.27 54.2173 45.426C54.1093 45.582 53.9713 45.684 53.7913 45.744C54.0253 45.804 54.2113 45.924 54.3493 46.098C54.4813 46.272 54.5533 46.482 54.5533 46.734C54.5533 47.136 54.4153 47.46 54.1393 47.712C53.8633 47.964 53.5033 48.09 53.0653 48.09C52.6273 48.09 52.2733 47.964 52.0093 47.712C51.7393 47.46 51.6073 47.13 51.6073 46.71V46.62H52.2673C52.2853 47.208 52.5553 47.502 53.0833 47.502C53.3113 47.502 53.4973 47.436 53.6353 47.304C53.7673 47.172 53.8393 46.986 53.8393 46.752C53.8393 46.512 53.7613 46.332 53.6053 46.218C53.4493 46.11 53.2453 46.05 52.9993 46.05C52.9213 46.05 52.8493 46.056 52.7833 46.056V45.54H52.8433C52.9633 45.54 53.0713 45.534 53.1613 45.522C53.2453 45.51 53.3353 45.48 53.4253 45.444C53.5153 45.408 53.5873 45.342 53.6353 45.258C53.6833 45.174 53.7073 45.066 53.7073 44.934C53.7073 44.754 53.6473 44.604 53.5333 44.49C53.4133 44.382 53.2573 44.322 53.0653 44.322C52.6153 44.322 52.3813 44.598 52.3633 45.15H51.7093Z" fill="black"/>
<path d="M81.372 118.352V119H78.444V114.728H79.2V118.352H81.372ZM83.7073 114.776V119H82.9753V116.096H81.9313V115.592C82.6573 115.592 83.0653 115.322 83.1553 114.776H83.7073Z" fill="black"/>
<path d="M143.372 91.352V92H140.444V87.728H141.2V91.352H143.372ZM146.451 91.394V92H143.583C143.583 91.814 143.613 91.64 143.661 91.484C143.709 91.328 143.763 91.196 143.823 91.088C143.883 90.98 143.979 90.866 144.099 90.752C144.219 90.638 144.333 90.542 144.429 90.47C144.525 90.398 144.663 90.302 144.837 90.182C144.849 90.176 144.903 90.14 145.011 90.068C145.119 89.996 145.185 89.954 145.209 89.936C145.233 89.918 145.287 89.876 145.371 89.81C145.455 89.744 145.509 89.69 145.533 89.648C145.557 89.612 145.593 89.558 145.641 89.486C145.689 89.42 145.719 89.354 145.737 89.282C145.749 89.21 145.761 89.138 145.761 89.054C145.761 88.838 145.695 88.664 145.575 88.538C145.455 88.412 145.287 88.346 145.083 88.346C144.963 88.346 144.855 88.37 144.771 88.406C144.681 88.442 144.609 88.49 144.561 88.55C144.513 88.61 144.471 88.688 144.441 88.784C144.405 88.88 144.387 88.964 144.375 89.048C144.363 89.132 144.357 89.234 144.357 89.342H143.691V89.234C143.691 88.784 143.817 88.424 144.069 88.16C144.321 87.896 144.669 87.758 145.101 87.758C145.509 87.758 145.833 87.878 146.085 88.106C146.331 88.334 146.457 88.64 146.457 89.018C146.457 89.174 146.433 89.318 146.385 89.45C146.337 89.588 146.283 89.696 146.229 89.78C146.175 89.864 146.085 89.966 145.953 90.074C145.821 90.188 145.719 90.266 145.659 90.308C145.593 90.356 145.473 90.434 145.305 90.548C144.801 90.872 144.501 91.154 144.405 91.394H146.451Z" fill="black"/>
<path d="M116.45 101.728H118.076C118.37 101.728 118.628 101.764 118.856 101.824C119.078 101.884 119.282 101.998 119.474 102.166C119.894 102.544 120.104 103.084 120.104 103.792C120.104 104.548 119.9 105.13 119.504 105.526C119.324 105.706 119.132 105.826 118.928 105.898C118.724 105.97 118.454 106 118.118 106H116.45V101.728ZM117.194 102.364V105.37H118.076C118.544 105.37 118.874 105.238 119.066 104.962C119.258 104.692 119.354 104.314 119.354 103.828C119.354 103.372 119.246 103.012 119.03 102.754C118.814 102.496 118.478 102.364 118.028 102.364H117.194ZM120.594 103.15C120.606 102.718 120.732 102.382 120.978 102.13C121.218 101.884 121.548 101.758 121.962 101.758C122.346 101.758 122.664 101.866 122.904 102.07C123.144 102.28 123.264 102.55 123.264 102.886C123.264 103.09 123.21 103.27 123.102 103.426C122.994 103.582 122.856 103.684 122.676 103.744C122.91 103.804 123.096 103.924 123.234 104.098C123.366 104.272 123.438 104.482 123.438 104.734C123.438 105.136 123.3 105.46 123.024 105.712C122.748 105.964 122.388 106.09 121.95 106.09C121.512 106.09 121.158 105.964 120.894 105.712C120.624 105.46 120.492 105.13 120.492 104.71V104.62H121.152C121.17 105.208 121.44 105.502 121.968 105.502C122.196 105.502 122.382 105.436 122.52 105.304C122.652 105.172 122.724 104.986 122.724 104.752C122.724 104.512 122.646 104.332 122.49 104.218C122.334 104.11 122.13 104.05 121.884 104.05C121.806 104.05 121.734 104.056 121.668 104.056V103.54H121.728C121.848 103.54 121.956 103.534 122.046 103.522C122.13 103.51 122.22 103.48 122.31 103.444C122.4 103.408 122.472 103.342 122.52 103.258C122.568 103.174 122.592 103.066 122.592 102.934C122.592 102.754 122.532 102.604 122.418 102.49C122.298 102.382 122.142 102.322 121.95 102.322C121.5 102.322 121.266 102.598 121.248 103.15H120.594Z" fill="black"/>
<path d="M51.912 28.728V33H51.138L49.146 29.856V33H48.438V28.728H49.224L51.192 31.878V28.728H51.912Z" fill="black"/>
<path d="M39 42L40 42.5774V41.4226L39 42ZM63.5 42L62.5 41.4226V42.5774L63.5 42ZM39.9 42V42.1H62.6V42V41.9H39.9V42Z" fill="black"/>
<path d="M69 113L70 113.577V112.423L69 113ZM94 113L93 112.423V113.577L94 113ZM69.9 113V113.1H93.1V113V112.9H69.9V113Z" fill="black"/>
<path d="M131 86L132 86.5774V85.4226L131 86ZM155.5 86L154.5 85.4226V86.5774L155.5 86ZM131.9 86V86.1H154.6V86V85.9H131.9V86Z" fill="black"/>
<path d="M111 95.5L111.569 96.5047L112.155 95.5094L111 95.5ZM111.776 95.9563L111.725 96.0425L119.449 100.586L119.5 100.5L119.551 100.414L111.826 95.8701L111.776 95.9563Z" fill="black"/>
<path d="M77 94.5L76.2791 93.5979L75.8584 94.6733L77 94.5ZM76.1619 94.172L76.1983 94.0789L65.5364 89.9069L65.5 90L65.4636 90.0931L76.1254 94.2652L76.1619 94.172Z" fill="black"/>
<path d="M88.1945 89.0206L87.7 87.9771L87.0436 88.927L88.1945 89.0206ZM87.4541 88.5089L87.5109 88.4266L78.092 81.9177L78.0352 82L77.9783 82.0823L87.3972 88.5912L87.4541 88.5089Z" fill="black"/>
</svg>
