<svg width="58" height="58" viewBox="0 0 58 58" fill="none" xmlns="http://www.w3.org/2000/svg">
<rect width="58" height="58" rx="14" fill="#F3F3F3"/>
<rect x="0.5" y="0.5" width="57" height="57" rx="13.5" stroke="#B02E0C" stroke-opacity="0.04"/>
<path d="M6.09375 25.2643V24.3996L12.2248 22.2773L36.0416 29.5874V30.4521L12.2248 23.142L6.09375 25.2643Z" fill="#F26722" stroke="black" stroke-width="0.0628825"/>
<path d="M36.043 30.4522V29.5875L54.1217 23.8495V24.7927L36.043 30.4522Z" fill="#F26722" stroke="black" stroke-width="0.0628825"/>
<path d="M30.1481 16.6967L12.2266 22.2775L36.0433 29.5876L54.122 23.8495L30.1481 16.6967Z" fill="#F26722" stroke="black" stroke-width="0.0628825"/>
<path d="M6.33203 38.9416V25.186L12.2273 23.1423L36.044 30.4524V38.9416H6.33203Z" fill="#949599" stroke="black" stroke-width="0.0628825"/>
<path d="M36.043 38.9415V30.4524L52.9426 25.1571V33.5179L36.043 38.9415Z" fill="#949599" stroke="black" stroke-width="0.0628825"/>
<path d="M6.32031 25.3224H12.222V23.0525" stroke="black" stroke-width="0.0453973"/>
<path d="M12.2225 23.0525H3.9375" stroke="black" stroke-width="0.0453973"/>
<path d="M12.2225 25.3223H3.9375" stroke="black" stroke-width="0.0453973"/>
<path d="M3.9375 23.1659L3.6754 23.6199H4.1996L3.9375 23.1659ZM3.9375 25.2088L4.1996 24.7548H3.6754L3.9375 25.2088ZM3.9375 23.5745H3.8921V24.8002H3.9375H3.9829V23.5745H3.9375Z" fill="black"/>
<path d="M12.9023 23.5063L12.6402 23.9603L13.1644 23.9603L12.9023 23.5063ZM12.9023 30.3159L13.1644 29.862L12.6402 29.862L12.9023 30.3159ZM12.9023 23.9149L12.8569 23.9149L12.8569 29.9074L12.9023 29.9074L12.9477 29.9074L12.9477 23.9149L12.9023 23.9149Z" fill="black"/>
<path d="M2.84688 23.2134V24.5063H2.61989V23.9253H2.02791V24.5063H1.80093V23.2134H2.02791V23.7273H2.61989V23.2134H2.84688ZM3.66345 23.228V24.5063H3.44191V23.6275H3.12595V23.4749C3.34567 23.4749 3.46915 23.3932 3.49639 23.228H3.66345Z" fill="black"/>
<path d="M14.6516 25.9372V27.2301H14.4246V26.649H13.8326V27.2301H13.6056V25.9372H13.8326V26.4511H14.4246V25.9372H14.6516ZM15.6933 27.0467V27.2301H14.8253C14.8253 27.1738 14.8344 27.1211 14.8489 27.0739C14.8634 27.0267 14.8798 26.9868 14.8979 26.9541C14.9161 26.9214 14.9452 26.8869 14.9815 26.8524C15.0178 26.8179 15.0523 26.7888 15.0814 26.767C15.1104 26.7453 15.1522 26.7162 15.2048 26.6799C15.2085 26.6781 15.2248 26.6672 15.2575 26.6454C15.2902 26.6236 15.3102 26.6109 15.3174 26.6054C15.3247 26.6 15.341 26.5873 15.3664 26.5673C15.3919 26.5473 15.4082 26.531 15.4155 26.5183C15.4227 26.5074 15.4336 26.491 15.4482 26.4692C15.4627 26.4493 15.4718 26.4293 15.4772 26.4075C15.4808 26.3857 15.4845 26.3639 15.4845 26.3385C15.4845 26.2731 15.4645 26.2205 15.4282 26.1823C15.3919 26.1442 15.341 26.1242 15.2793 26.1242C15.243 26.1242 15.2103 26.1315 15.1849 26.1424C15.1576 26.1533 15.1358 26.1678 15.1213 26.186C15.1068 26.2041 15.0941 26.2277 15.085 26.2568C15.0741 26.2858 15.0686 26.3113 15.065 26.3367C15.0614 26.3621 15.0596 26.393 15.0596 26.4257H14.858V26.393C14.858 26.2568 14.8961 26.1478 14.9724 26.0679C15.0487 25.988 15.154 25.9463 15.2847 25.9463C15.4082 25.9463 15.5063 25.9826 15.5825 26.0516C15.657 26.1206 15.6951 26.2132 15.6951 26.3276C15.6951 26.3748 15.6879 26.4184 15.6733 26.4583C15.6588 26.5001 15.6425 26.5328 15.6261 26.5582C15.6098 26.5836 15.5825 26.6145 15.5426 26.6472C15.5026 26.6817 15.4718 26.7053 15.4536 26.718C15.4336 26.7325 15.3973 26.7562 15.3465 26.7907C15.1939 26.8887 15.1031 26.9741 15.0741 27.0467H15.6933Z" fill="black"/>
<path d="M9.02641 40.0086L9.52578 41.3033H9.28245L9.15897 40.9601H8.64689L8.51977 41.3033H8.28552L8.78489 40.0086H9.02641ZM9.09904 40.7894L8.90656 40.2447L8.70499 40.7894H9.09904ZM10.1958 40.025V41.3033H9.97429V40.4245H9.65832V40.2719C9.87805 40.2719 10.0015 40.1902 10.0288 40.025H10.1958Z" fill="black"/>
<path d="M24.2334 40.0086L24.7328 41.3033H24.4895L24.366 40.9601H23.8539L23.7268 41.3033H23.4926L23.9919 40.0086H24.2334ZM24.3061 40.7894L24.1136 40.2447L23.912 40.7894H24.3061ZM25.628 41.1199V41.3033H24.76C24.76 41.2471 24.7691 41.1944 24.7836 41.1472C24.7982 41.1 24.8145 41.06 24.8327 41.0273C24.8508 40.9946 24.8799 40.9601 24.9162 40.9256C24.9525 40.8911 24.987 40.8621 25.0161 40.8403C25.0451 40.8185 25.0869 40.7894 25.1396 40.7531C25.1432 40.7513 25.1595 40.7404 25.1922 40.7186C25.2249 40.6968 25.2449 40.6841 25.2521 40.6787C25.2594 40.6732 25.2757 40.6605 25.3012 40.6405C25.3266 40.6206 25.3429 40.6042 25.3502 40.5915C25.3575 40.5806 25.3684 40.5643 25.3829 40.5425C25.3974 40.5225 25.4065 40.5025 25.4119 40.4807C25.4156 40.459 25.4192 40.4372 25.4192 40.4117C25.4192 40.3464 25.3992 40.2937 25.3629 40.2556C25.3266 40.2174 25.2757 40.1975 25.214 40.1975C25.1777 40.1975 25.145 40.2047 25.1196 40.2156C25.0923 40.2265 25.0706 40.241 25.056 40.2592C25.0415 40.2774 25.0288 40.301 25.0197 40.33C25.0088 40.3591 25.0034 40.3845 24.9997 40.4099C24.9961 40.4353 24.9943 40.4662 24.9943 40.4989H24.7927V40.4662C24.7927 40.33 24.8309 40.2211 24.9071 40.1412C24.9834 40.0613 25.0887 40.0195 25.2195 40.0195C25.3429 40.0195 25.441 40.0558 25.5173 40.1248C25.5917 40.1938 25.6298 40.2864 25.6298 40.4008C25.6298 40.4481 25.6226 40.4916 25.6081 40.5316C25.5935 40.5734 25.5772 40.606 25.5608 40.6315C25.5445 40.6569 25.5173 40.6878 25.4773 40.7204C25.4374 40.7549 25.4065 40.7786 25.3883 40.7913C25.3684 40.8058 25.332 40.8294 25.2812 40.8639C25.1287 40.962 25.0379 41.0473 25.0088 41.1199H25.628Z" fill="black"/>
<path d="M45.8584 37.2867H46.4485C46.5829 37.2867 46.6864 37.3175 46.7591 37.3757C46.8317 37.4338 46.868 37.5137 46.868 37.6117C46.868 37.6735 46.8498 37.7298 46.8172 37.7788C46.7827 37.8278 46.7373 37.8623 46.6828 37.8841C46.7572 37.9023 46.8172 37.9386 46.8607 37.9931C46.9043 38.0475 46.9261 38.1165 46.9261 38.1983C46.9261 38.3127 46.888 38.4053 46.8117 38.4743C46.7354 38.5451 46.6374 38.5796 46.5175 38.5796H45.8584V37.2867ZM46.0799 37.4701V37.826H46.3886C46.4758 37.826 46.5393 37.8133 46.5811 37.786C46.621 37.7588 46.6428 37.7134 46.6428 37.648C46.6428 37.5754 46.621 37.5282 46.5775 37.5046C46.5339 37.4828 46.474 37.4701 46.3959 37.4701H46.0799ZM46.0799 37.9894V38.3944H46.4195C46.5066 38.3944 46.5738 38.3798 46.6247 38.3508C46.6737 38.3217 46.6991 38.2691 46.6991 38.1928C46.6991 38.151 46.69 38.1165 46.6755 38.0875C46.661 38.0584 46.6392 38.0385 46.6102 38.0239C46.5811 38.0112 46.552 38.0021 46.523 37.9967C46.4921 37.9931 46.4558 37.9894 46.4158 37.9894H46.0799Z" fill="black"/>
<path d="M56.2605 25.3761C56.2478 25.5359 56.1915 25.663 56.0898 25.7574C55.9881 25.8518 55.8574 25.899 55.6976 25.899C55.5142 25.899 55.3671 25.8373 55.2581 25.7138C55.1474 25.5903 55.0929 25.4269 55.0929 25.2217C55.0929 25.0982 55.1165 24.9875 55.1637 24.8858C55.2109 24.7841 55.2817 24.7024 55.3762 24.6406C55.4706 24.5789 55.5814 24.5462 55.7085 24.5462C55.8447 24.5462 55.9645 24.5843 56.0662 24.6606C56.1679 24.7369 56.2278 24.8458 56.2496 24.9875H56.0244C56.0081 24.9112 55.9718 24.8494 55.9155 24.8059C55.8574 24.7623 55.7884 24.7387 55.7049 24.7387C55.6177 24.7387 55.5451 24.7641 55.4851 24.8113C55.4252 24.8603 55.3834 24.9203 55.358 24.9911C55.3326 25.0619 55.3217 25.1382 55.3217 25.2217C55.3217 25.2853 55.329 25.3452 55.3435 25.3997C55.358 25.456 55.3798 25.5068 55.4089 25.554C55.4379 25.6012 55.476 25.6375 55.5269 25.6648C55.5777 25.6938 55.6358 25.7065 55.703 25.7065C55.8955 25.7065 56.0045 25.5976 56.0335 25.3761H56.2605Z" fill="black"/>
<path d="M12.2227 23.1659V30.543H36.0563" stroke="black" stroke-width="0.0907947"/>
<path d="M6.32031 39.0547L6.05821 39.5087H6.58241L6.32031 39.0547ZM6.32031 39.8491H6.27492V39.8945H6.32031V39.8491ZM12.222 39.8491V39.8945H12.2674V39.8491H12.222ZM12.222 39.0547L11.9599 39.5087H12.4841L12.222 39.0547ZM6.32031 39.4633H6.27492V39.8491H6.32031H6.36571V39.4633H6.32031ZM6.32031 39.8491V39.8945H12.222V39.8491V39.8037H6.32031V39.8491ZM12.222 39.8491H12.2674V39.4633H12.222H12.1766V39.8491H12.222Z" fill="black"/>
<path d="M12.9023 39.0547L12.6402 39.5087H13.1644L12.9023 39.0547ZM12.9023 39.8491H12.8569V39.8945H12.9023V39.8491ZM36.055 39.8491V39.8945H36.1004V39.8491H36.055ZM36.055 39.0547L35.7929 39.5087H36.3171L36.055 39.0547ZM12.9023 39.4633H12.8569V39.8491H12.9023H12.9477V39.4633H12.9023ZM12.9023 39.8491V39.8945H36.055V39.8491V39.8037H12.9023V39.8491ZM36.055 39.8491H36.1004V39.4633H36.055H36.0096V39.8491H36.055Z" fill="black"/>
<path d="M36.3984 39.8492L36.91 39.9638L36.7534 39.4635L36.3984 39.8492ZM53.082 34.6285L52.5704 34.514L52.727 35.0143L53.082 34.6285ZM36.7884 39.7272L36.8019 39.7705L52.7056 34.7939L52.692 34.7506L52.6785 34.7072L36.7748 39.6839L36.7884 39.7272Z" fill="black"/>
<path d="M54.1035 26.1166V26.162H54.1489V26.1166H54.1035ZM53.082 26.1166L53.536 26.3787V25.8545L53.082 26.1166ZM54.1035 24.9817H54.0581V26.1166H54.1035H54.1489V24.9817H54.1035ZM54.1035 26.1166V26.0712H53.4906V26.1166V26.162H54.1035V26.1166Z" fill="black"/>
</svg>
