<svg width="176" height="136" viewBox="0 0 176 136" fill="none" xmlns="http://www.w3.org/2000/svg">
<path d="M0 16C0 7.16344 7.16344 0 16 0H160C168.837 0 176 7.16344 176 16V120C176 128.837 168.837 136 160 136H16C7.16344 136 0 128.837 0 120V16Z" fill="white"/>
<path d="M16 0.5H160C168.56 0.5 175.5 7.43959 175.5 16V120C175.5 128.56 168.56 135.5 160 135.5H16C7.43959 135.5 0.5 128.56 0.5 120V16C0.5 7.43959 7.43959 0.5 16 0.5Z" stroke="#B02E0C" stroke-opacity="0.16"/>
<path d="M22.8164 56.8319V54.3259L40.5863 48.1748L109.616 69.362V71.868L40.5863 50.6808L22.8164 56.8319Z" fill="#F26722" stroke="black" stroke-width="0.182256"/>
<path d="M109.617 71.8683V69.3623L162.016 52.7314V55.4653L109.617 71.8683Z" fill="#F26722" stroke="black" stroke-width="0.182256"/>
<path d="M92.5327 32L40.5898 48.1752L109.619 69.3624L162.018 52.7316L92.5327 32Z" fill="#F26722" stroke="black" stroke-width="0.182256"/>
<path d="M23.5039 96.4734V56.6049L40.5904 50.6816L109.62 71.8689V96.4734H23.5039Z" fill="#949599" stroke="black" stroke-width="0.182256"/>
<path d="M109.617 96.473V71.8685L158.598 56.521V80.7535L109.617 96.473Z" fill="#949599" stroke="black" stroke-width="0.182256"/>
<path d="M23.4727 57.0003H40.5777V50.4214" stroke="black" stroke-width="0.131577"/>
<path d="M40.5793 50.4214H16.5664" stroke="black" stroke-width="0.131577"/>
<path d="M40.5793 57H16.5664" stroke="black" stroke-width="0.131577"/>
<path d="M16.5664 50.75L15.8067 52.0658H17.3261L16.5664 50.75ZM16.5664 56.671L17.3261 55.3552H15.8067L16.5664 56.671ZM16.5664 51.9342H16.4348V55.4868H16.5664H16.698V51.9342H16.5664Z" fill="black"/>
<path d="M42.5508 51.7368L41.7911 53.0526L43.3104 53.0526L42.5508 51.7368ZM42.5508 71.4734L43.3104 70.1577L41.7911 70.1577L42.5508 71.4734ZM42.5508 52.921L42.4192 52.921L42.4192 70.2892L42.5508 70.2892L42.6824 70.2892L42.6824 52.921L42.5508 52.921Z" fill="black"/>
<path d="M12.5544 51.9895V55.7368H11.8965V54.0526H10.1807V55.7368H9.52281V51.9895H10.1807V53.4789H11.8965V51.9895H12.5544ZM14.9211 52.0316V55.7368H14.279V53.1895H13.3632V52.7474C14 52.7474 14.3579 52.5105 14.4369 52.0316H14.9211Z" fill="black"/>
<path d="M46.7653 59.884V63.6313H46.1074V61.9472H44.3916V63.6313H43.7338V59.884H44.3916V61.3735H46.1074V59.884H46.7653ZM49.7846 63.0998V63.6313H47.2689C47.2689 63.4682 47.2952 63.3156 47.3373 63.1787C47.3794 63.0419 47.4268 62.9261 47.4794 62.8314C47.532 62.7366 47.6162 62.6366 47.7215 62.5366C47.8268 62.4366 47.9268 62.3524 48.011 62.2893C48.0952 62.2261 48.2162 62.1419 48.3689 62.0366C48.3794 62.0314 48.4267 61.9998 48.5215 61.9366C48.6162 61.8735 48.6741 61.8366 48.6952 61.8208C48.7162 61.8051 48.7636 61.7682 48.8373 61.7103C48.911 61.6524 48.9583 61.6051 48.9794 61.5682C49.0004 61.5366 49.032 61.4893 49.0741 61.4261C49.1162 61.3682 49.1425 61.3103 49.1583 61.2472C49.1688 61.184 49.1794 61.1209 49.1794 61.0472C49.1794 60.8577 49.1215 60.7051 49.0162 60.5945C48.911 60.484 48.7636 60.4261 48.5846 60.4261C48.4794 60.4261 48.3846 60.4472 48.311 60.4788C48.232 60.5103 48.1689 60.5524 48.1268 60.6051C48.0846 60.6577 48.0478 60.7261 48.0215 60.8103C47.9899 60.8945 47.9741 60.9682 47.9636 61.0419C47.9531 61.1156 47.9478 61.2051 47.9478 61.2998H47.3636V61.2051C47.3636 60.8103 47.4741 60.4945 47.6952 60.263C47.9162 60.0314 48.2215 59.9103 48.6004 59.9103C48.9583 59.9103 49.2425 60.0156 49.4636 60.2156C49.6794 60.4156 49.7899 60.684 49.7899 61.0156C49.7899 61.1524 49.7688 61.2787 49.7267 61.3945C49.6846 61.5156 49.6373 61.6103 49.5899 61.684C49.5425 61.7577 49.4636 61.8472 49.3478 61.9419C49.232 62.0419 49.1425 62.1103 49.0899 62.1472C49.032 62.1893 48.9267 62.2577 48.7794 62.3577C48.3373 62.6419 48.0741 62.8893 47.9899 63.0998H49.7846Z" fill="black"/>
<path d="M30.4659 100.668L31.9132 104.42H31.208L30.8501 103.426H29.3659L28.9975 104.42H28.3185L29.7659 100.668H30.4659ZM30.6764 102.931L30.1185 101.352L29.5343 102.931H30.6764ZM33.8553 100.715V104.42H33.2132V101.873H32.2974V101.431C32.9342 101.431 33.2921 101.194 33.3711 100.715H33.8553Z" fill="black"/>
<path d="M74.544 100.668L75.9914 104.42H75.2861L74.9282 103.426H73.444L73.0756 104.42H72.3967L73.844 100.668H74.544ZM74.7545 102.931L74.1966 101.352L73.6124 102.931H74.7545ZM78.586 103.889V104.42H76.0703C76.0703 104.257 76.0966 104.105 76.1387 103.968C76.1808 103.831 76.2282 103.715 76.2808 103.62C76.3334 103.526 76.4176 103.426 76.5229 103.326C76.6282 103.226 76.7282 103.141 76.8124 103.078C76.8966 103.015 77.0176 102.931 77.1703 102.826C77.1808 102.82 77.2281 102.789 77.3229 102.726C77.4176 102.663 77.4755 102.626 77.4966 102.61C77.5176 102.594 77.565 102.557 77.6387 102.499C77.7124 102.441 77.7597 102.394 77.7808 102.357C77.8018 102.326 77.8334 102.278 77.8755 102.215C77.9176 102.157 77.9439 102.099 77.9597 102.036C77.9702 101.973 77.9808 101.91 77.9808 101.836C77.9808 101.647 77.9229 101.494 77.8176 101.384C77.7124 101.273 77.565 101.215 77.386 101.215C77.2808 101.215 77.186 101.236 77.1124 101.268C77.0334 101.299 76.9703 101.341 76.9282 101.394C76.886 101.447 76.8492 101.515 76.8229 101.599C76.7913 101.684 76.7755 101.757 76.765 101.831C76.7545 101.905 76.7492 101.994 76.7492 102.089H76.165V101.994C76.165 101.599 76.2755 101.284 76.4966 101.052C76.7176 100.82 77.0229 100.699 77.4018 100.699C77.7597 100.699 78.0439 100.805 78.265 101.005C78.4808 101.205 78.5913 101.473 78.5913 101.805C78.5913 101.941 78.5702 102.068 78.5281 102.184C78.486 102.305 78.4387 102.399 78.3913 102.473C78.3439 102.547 78.265 102.636 78.1492 102.731C78.0334 102.831 77.9439 102.899 77.8913 102.936C77.8334 102.978 77.7281 103.047 77.5808 103.147C77.1387 103.431 76.8755 103.678 76.7913 103.889H78.586Z" fill="black"/>
<path d="M137.169 92.7786H138.88C139.269 92.7786 139.569 92.868 139.78 93.0364C139.99 93.2049 140.096 93.4364 140.096 93.7206C140.096 93.8996 140.043 94.0627 139.948 94.2049C139.848 94.347 139.717 94.447 139.559 94.5101C139.775 94.5627 139.948 94.668 140.075 94.8259C140.201 94.9838 140.264 95.1838 140.264 95.4206C140.264 95.7522 140.154 96.0206 139.933 96.2206C139.711 96.4259 139.427 96.5259 139.08 96.5259H137.169V92.7786ZM137.812 93.3101V94.3417H138.706C138.959 94.3417 139.143 94.3049 139.264 94.2259C139.38 94.147 139.443 94.0154 139.443 93.8259C139.443 93.6154 139.38 93.4785 139.254 93.4101C139.127 93.347 138.954 93.3101 138.727 93.3101H137.812ZM137.812 94.8154V95.989H138.796C139.048 95.989 139.243 95.9469 139.39 95.8627C139.533 95.7785 139.606 95.6259 139.606 95.4048C139.606 95.2838 139.58 95.1838 139.538 95.0996C139.496 95.0154 139.433 94.9575 139.348 94.9154C139.264 94.8785 139.18 94.8522 139.096 94.8364C139.006 94.8259 138.901 94.8154 138.785 94.8154H137.812Z" fill="black"/>
<path d="M167.312 58.2578C167.275 58.7209 167.112 59.0894 166.817 59.363C166.522 59.6367 166.143 59.7736 165.68 59.7736C165.148 59.7736 164.722 59.5946 164.406 59.2367C164.085 58.8788 163.927 58.4051 163.927 57.8104C163.927 57.4525 163.996 57.1315 164.133 56.8367C164.269 56.542 164.475 56.3052 164.748 56.1262C165.022 55.9473 165.343 55.8525 165.712 55.8525C166.106 55.8525 166.454 55.9631 166.748 56.1841C167.043 56.4052 167.217 56.721 167.28 57.1315H166.627C166.58 56.9104 166.475 56.7315 166.312 56.6052C166.143 56.4789 165.943 56.4104 165.701 56.4104C165.448 56.4104 165.238 56.4841 165.064 56.621C164.891 56.7631 164.769 56.9367 164.696 57.142C164.622 57.3473 164.591 57.5683 164.591 57.8104C164.591 57.9946 164.612 58.1683 164.654 58.3262C164.696 58.4894 164.759 58.6367 164.843 58.7736C164.927 58.9104 165.038 59.0157 165.185 59.0946C165.333 59.1788 165.501 59.2157 165.696 59.2157C166.254 59.2157 166.569 58.8999 166.654 58.2578H167.312Z" fill="black"/>
<path d="M40.5781 50.75V72.1313H109.656" stroke="black" stroke-width="0.263155"/>
<path d="M23.4727 96.8018L22.713 98.1175H24.2323L23.4727 96.8018ZM23.4727 99.1044H23.3411V99.2359H23.4727V99.1044ZM40.5777 99.1044V99.2359H40.7093V99.1044H40.5777ZM40.5777 96.8018L39.8181 98.1175H41.3374L40.5777 96.8018ZM23.4727 97.986H23.3411V99.1044H23.4727H23.6042V97.986H23.4727ZM23.4727 99.1044V99.2359H40.5777V99.1044V98.9728H23.4727V99.1044ZM40.5777 99.1044H40.7093V97.986H40.5777H40.4461V99.1044H40.5777Z" fill="black"/>
<path d="M42.5508 96.8018L41.7911 98.1175H43.3104L42.5508 96.8018ZM42.5508 99.1044H42.4192V99.2359H42.5508V99.1044ZM109.655 99.1044V99.2359H109.787V99.1044H109.655ZM109.655 96.8018L108.896 98.1175H110.415L109.655 96.8018ZM42.5508 97.986H42.4192V99.1044H42.5508H42.6824V97.986H42.5508ZM42.5508 99.1044V99.2359H109.655V99.1044V98.9728H42.5508V99.1044ZM109.655 99.1044H109.787V97.986H109.655H109.524V99.1044H109.655Z" fill="black"/>
<path d="M110.641 99.1045L112.123 99.4366L111.669 97.9866L110.641 99.1045ZM158.995 83.9731L157.513 83.6411L157.966 85.0911L158.995 83.9731ZM111.771 98.7509L111.81 98.8765L157.904 84.4524L157.865 84.3268L157.826 84.2012L111.731 98.6253L111.771 98.7509Z" fill="black"/>
<path d="M161.957 59.3026V59.4342H162.088V59.3026H161.957ZM158.996 59.3026L160.312 60.0623V58.543L158.996 59.3026ZM161.957 56.0132H161.825V59.3026H161.957H162.088V56.0132H161.957ZM161.957 59.3026V59.171H160.18V59.3026V59.4342H161.957V59.3026Z" fill="black"/>
</svg>
