<svg width="58" height="58" viewBox="0 0 58 58" fill="none" xmlns="http://www.w3.org/2000/svg">
<rect width="58" height="58" rx="14" fill="#F3F3F3"/>
<rect x="0.5" y="0.5" width="57" height="57" rx="13.5" stroke="#B02E0C" stroke-opacity="0.04"/>
<path d="M3.99609 22.0145V21.1318L33.0453 29.8787V30.8416L3.99609 22.0145Z" fill="#F26722" stroke="black" stroke-width="0.206042"/>
<path d="M33.043 30.8417V29.8787L55.0305 22.8973V23.8602L33.043 30.8417Z" fill="#F26722" stroke="black" stroke-width="0.206042"/>
<path d="M25.9033 14.1505L3.99609 21.1319L33.0453 29.8787L55.0328 22.8973L25.9033 14.1505Z" fill="#F26722" stroke="black" stroke-width="0.206042"/>
<path d="M6.32031 41.1934V22.7368L33.0423 30.8416V41.1934H6.32031Z" fill="#949599" stroke="black" stroke-width="0.206042"/>
<path d="M53.6663 24.3417L33.043 30.8416V41.1934L53.6663 34.6935V24.3417Z" fill="#949599" stroke="black" stroke-width="0.206042"/>
<path d="M6.20312 42.2972L6.75502 42.6158L6.75502 41.9785L6.20312 42.2972ZM33.2461 42.2972L32.6942 41.9785L32.6942 42.6158L33.2461 42.2972ZM6.69983 42.2972L6.69983 42.3524L32.7494 42.3524L32.7494 42.2972L32.7494 42.242L6.69983 42.242L6.69983 42.2972Z" fill="black"/>
<path d="M20.0274 42.4251L20.5766 43.8491H20.309L20.1731 43.4717H19.6099L19.4701 43.8491H19.2125L19.7617 42.4251H20.0274ZM20.1072 43.2839L19.8955 42.6848L19.6739 43.2839H20.1072Z" fill="black"/>
<path d="M3.63801 25.3183V26.7403H3.38836V26.1012H2.73728V26.7403H2.48763V25.3183H2.73728V25.8835H3.38836V25.3183H3.63801Z" fill="black"/>
<path d="M44.1752 38.8398H44.8242C44.972 38.8398 45.0859 38.8737 45.1658 38.9376C45.2456 39.0016 45.2856 39.0894 45.2856 39.1973C45.2856 39.2652 45.2656 39.3271 45.2297 39.381C45.1917 39.4349 45.1418 39.4729 45.0819 39.4969C45.1638 39.5168 45.2297 39.5568 45.2776 39.6167C45.3255 39.6766 45.3495 39.7525 45.3495 39.8424C45.3495 39.9682 45.3076 40.0701 45.2237 40.1459C45.1398 40.2238 45.0319 40.2618 44.9001 40.2618H44.1752V38.8398ZM44.4188 39.0415V39.4329H44.7583C44.8542 39.4329 44.9241 39.419 44.97 39.389C45.014 39.3591 45.0379 39.3091 45.0379 39.2372C45.0379 39.1573 45.014 39.1054 44.966 39.0794C44.9181 39.0555 44.8522 39.0415 44.7663 39.0415H44.4188ZM44.4188 39.6127V40.0581H44.7923C44.8881 40.0581 44.962 40.0421 45.018 40.0101C45.0719 39.9782 45.0998 39.9203 45.0998 39.8364C45.0998 39.7904 45.0899 39.7525 45.0739 39.7205C45.0579 39.6886 45.0339 39.6666 45.002 39.6506C44.97 39.6367 44.9381 39.6267 44.9061 39.6207C44.8722 39.6167 44.8322 39.6127 44.7883 39.6127H44.4188Z" fill="black"/>
<path d="M33.3828 42.2972L34.0044 42.4377L33.8153 41.8291L33.3828 42.2972ZM53.8031 35.9504L53.1814 35.8099L53.3706 36.4185L53.8031 35.9504ZM33.8571 42.1498L33.8735 42.2025L53.3451 36.1505L53.3287 36.0978L53.3123 36.0451L33.8408 42.0971L33.8571 42.1498Z" fill="black"/>
<path opacity="0.4" d="M32.6948 30.9833L3.99609 30.9833" stroke="black" stroke-width="0.11038"/>
<path d="M3.99609 22.4289L3.67746 22.9808L4.31473 22.9808L3.99609 22.4289ZM3.99609 30.7074L4.31473 30.1555L3.67746 30.1555L3.99609 30.7074ZM3.99609 22.9256L3.9409 22.9256L3.9409 30.2107L3.99609 30.2107L4.05128 30.2107L4.05128 22.9256L3.99609 22.9256Z" fill="black"/>
<path d="M55.5849 27.5788C55.5709 27.7546 55.509 27.8944 55.3972 27.9982C55.2853 28.1021 55.1415 28.154 54.9658 28.154C54.7641 28.154 54.6023 28.0861 54.4825 27.9503C54.3606 27.8145 54.3007 27.6347 54.3007 27.4091C54.3007 27.2733 54.3267 27.1514 54.3786 27.0396C54.4305 26.9277 54.5084 26.8379 54.6123 26.77C54.7161 26.7021 54.838 26.6661 54.9778 26.6661C55.1276 26.6661 55.2594 26.708 55.3712 26.7919C55.4831 26.8758 55.549 26.9956 55.5729 27.1514H55.3253C55.3073 27.0675 55.2674 26.9996 55.2054 26.9517C55.1415 26.9038 55.0656 26.8778 54.9738 26.8778C54.8779 26.8778 54.798 26.9058 54.7321 26.9577C54.6662 27.0116 54.6203 27.0775 54.5923 27.1554C54.5643 27.2333 54.5524 27.3172 54.5524 27.4091C54.5524 27.479 54.5604 27.5449 54.5763 27.6048C54.5923 27.6667 54.6163 27.7226 54.6482 27.7745C54.6802 27.8265 54.7221 27.8664 54.778 27.8964C54.834 27.9283 54.8979 27.9423 54.9718 27.9423C55.1835 27.9423 55.3033 27.8225 55.3353 27.5788H55.5849Z" fill="black"/>
<path d="M55.1818 26.5682V26.6234H55.237V26.5682H55.1818ZM53.6641 26.5682L54.216 26.8868V26.2495L53.6641 26.5682ZM55.1818 23.9467H55.1266V26.5682H55.1818H55.237V23.9467H55.1818ZM55.1818 26.5682V26.513H54.1608V26.5682V26.6234H55.1818V26.5682Z" fill="black"/>
</svg>
