<svg width="176" height="136" viewBox="0 0 176 136" fill="none" xmlns="http://www.w3.org/2000/svg">
<path d="M0 16C0 7.16344 7.16344 0 16 0H160C168.837 0 176 7.16344 176 16V120C176 128.837 168.837 136 160 136H16C7.16344 136 0 128.837 0 120V16Z" fill="white"/>
<path d="M16 0.5H160C168.56 0.5 175.5 7.43959 175.5 16V120C175.5 128.56 168.56 135.5 160 135.5H16C7.43959 135.5 0.5 128.56 0.5 120V16C0.5 7.43959 7.43959 0.5 16 0.5Z" stroke="#B02E0C" stroke-opacity="0.16"/>
<path d="M13.8047 45.6257V42.9738L101.075 69.2514V72.1443L13.8047 45.6257Z" fill="#F26722" stroke="black" stroke-width="0.618998"/>
<path d="M101.074 72.1444V69.2515L167.13 48.2776V51.1706L101.074 72.1444Z" fill="#F26722" stroke="black" stroke-width="0.618998"/>
<path d="M79.6192 22L13.8047 42.9738L101.075 69.2514L167.131 48.2776L79.6192 22Z" fill="#F26722" stroke="black" stroke-width="0.618998"/>
<path d="M20.793 103.244V47.7954L101.072 72.1444V103.244H20.793Z" fill="#949599" stroke="black" stroke-width="0.618998"/>
<path d="M163.031 52.617L101.074 72.1444V103.244L163.031 83.7162V52.617Z" fill="#949599" stroke="black" stroke-width="0.618998"/>
<path d="M20.4336 106.56L22.0916 107.517L22.0916 105.602L20.4336 106.56ZM101.677 106.56L100.019 105.602L100.019 107.517L101.677 106.56ZM21.9258 106.56L21.9258 106.725L100.185 106.725L100.185 106.56L100.185 106.394L21.9258 106.394L21.9258 106.56Z" fill="black"/>
<path d="M61.4693 107.94L63.1193 112.218H62.3153L61.9073 111.084H60.2153L59.7953 112.218H59.0213L60.6713 107.94H61.4693ZM61.7093 110.52L61.0733 108.72L60.4073 110.52H61.7093Z" fill="black"/>
<path d="M12.229 56.5467V60.8187H11.479V58.8987H9.52296V60.8187H8.77296V56.5467H9.52296V58.2447H11.479V56.5467H12.229Z" fill="black"/>
<path d="M134.011 97.1684H135.961C136.405 97.1684 136.747 97.2704 136.987 97.4624C137.227 97.6544 137.347 97.9184 137.347 98.2424C137.347 98.4464 137.287 98.6324 137.179 98.7944C137.065 98.9564 136.915 99.0704 136.735 99.1424C136.981 99.2024 137.179 99.3224 137.323 99.5024C137.467 99.6824 137.539 99.9104 137.539 100.18C137.539 100.558 137.413 100.864 137.161 101.092C136.909 101.326 136.585 101.44 136.189 101.44H134.011V97.1684ZM134.743 97.7744V98.9504H135.763C136.051 98.9504 136.261 98.9084 136.399 98.8184C136.531 98.7284 136.603 98.5784 136.603 98.3624C136.603 98.1224 136.531 97.9664 136.387 97.8884C136.243 97.8164 136.045 97.7744 135.787 97.7744H134.743ZM134.743 99.4904V100.828H135.865C136.153 100.828 136.375 100.78 136.543 100.684C136.705 100.588 136.789 100.414 136.789 100.162C136.789 100.024 136.759 99.9104 136.711 99.8144C136.663 99.7184 136.591 99.6524 136.495 99.6044C136.399 99.5624 136.303 99.5324 136.207 99.5144C136.105 99.5024 135.985 99.4904 135.853 99.4904H134.743Z" fill="black"/>
<path d="M102.094 106.56L103.961 106.982L103.393 105.153L102.094 106.56ZM163.441 87.4922L161.573 87.0702L162.142 88.8985L163.441 87.4922ZM103.519 106.117L103.568 106.275L162.065 88.0935L162.016 87.9351L161.967 87.7768L103.47 105.958L103.519 106.117Z" fill="black"/>
<path opacity="0.4" d="M100.022 72.57L13.8047 72.5699" stroke="black" stroke-width="0.331606"/>
<path d="M13.8047 46.8705L12.8474 48.5285L14.762 48.5285L13.8047 46.8705ZM13.8047 71.7409L14.762 70.0829L12.8474 70.0829L13.8047 71.7409ZM13.8047 48.3627L13.6389 48.3627L13.6389 70.2487L13.8047 70.2487L13.9705 70.2487L13.9705 48.3627L13.8047 48.3627Z" fill="black"/>
<path d="M168.3 63.3377C168.258 63.8657 168.072 64.2857 167.736 64.5977C167.4 64.9097 166.968 65.0657 166.44 65.0657C165.834 65.0657 165.348 64.8617 164.988 64.4537C164.622 64.0457 164.442 63.5057 164.442 62.8277C164.442 62.4197 164.52 62.0537 164.676 61.7177C164.832 61.3817 165.066 61.1117 165.378 60.9077C165.69 60.7037 166.056 60.5957 166.476 60.5957C166.926 60.5957 167.322 60.7217 167.658 60.9737C167.994 61.2257 168.192 61.5857 168.264 62.0537H167.52C167.466 61.8017 167.346 61.5977 167.16 61.4537C166.968 61.3097 166.74 61.2317 166.464 61.2317C166.176 61.2317 165.936 61.3157 165.738 61.4717C165.54 61.6337 165.402 61.8317 165.318 62.0657C165.234 62.2997 165.198 62.5517 165.198 62.8277C165.198 63.0377 165.222 63.2357 165.27 63.4157C165.318 63.6017 165.39 63.7697 165.486 63.9257C165.582 64.0817 165.708 64.2017 165.876 64.2917C166.044 64.3877 166.236 64.4297 166.458 64.4297C167.094 64.4297 167.454 64.0697 167.55 63.3377H168.3Z" fill="black"/>
<path d="M167.587 59.3057V59.4715H167.753V59.3057H167.587ZM163.027 59.3057L164.685 60.263V58.3484L163.027 59.3057ZM167.587 51.4301H167.421V59.3057H167.587H167.753V51.4301H167.587ZM167.587 59.3057V59.1399H164.52V59.3057V59.4715H167.587V59.3057Z" fill="black"/>
</svg>
