<svg width="46" height="46" viewBox="0 0 46 46" fill="none" xmlns="http://www.w3.org/2000/svg">
<rect width="46" height="46" rx="11.1034" fill="#F3F3F3"/>
<rect x="0.396552" y="0.396552" width="45.2069" height="45.2069" rx="10.7069" stroke="#B02E0C" stroke-opacity="0.04" stroke-width="0.793103"/>
<path d="M43.7461 18.6865L43.6895 18.7041L16.3877 27.3389V27.3857H16.2422L16.1738 27.4072L16.167 27.3857H3.49219V25.3271H3.75977L32.4473 16.8447L32.459 16.8418H43.7461V18.6865ZM3.6543 25.5273V27.2236H16.2148L16.2246 27.2197V25.542L16.1729 25.5586L16.1514 25.4893H3.78418L3.6543 25.5273ZM16.3877 25.4912V27.168L43.584 18.5664V17.0322L16.3877 25.4912ZM4.33203 25.3271H16.3682L43.1318 17.0039H32.4834L4.33203 25.3271Z" fill="black"/>
<path d="M4.69854 26.2709L4.07592 25.9114L4.07592 26.6303L4.69854 26.2709ZM2.53125 26.2086L2.46899 26.2086L2.46899 26.3331L2.53125 26.3331L2.53125 26.2709L2.53125 26.2086ZM4.13819 26.2709L4.13819 26.2086L2.53125 26.2086L2.53125 26.2709L2.53125 26.3331L4.13819 26.3331L4.13819 26.2709Z" fill="black"/>
<rect width="0.618179" height="1" transform="translate(2.53125 25.9985) rotate(90)" fill="white"/>
<path d="M2.5042 25.6255V25.8048H2.1273V26.8076H1.91976V25.8048H1.54287V25.6255H2.5042Z" fill="#060C12"/>
<path d="M3.61302 28.4368L4.23564 28.7962V28.0773L3.61302 28.4368ZM9.03125 28.499H9.09351V28.3745H9.03125V28.4368V28.499ZM4.17338 28.4368V28.499H9.03125V28.4368V28.3745H4.17338V28.4368Z" fill="black"/>
<path d="M16.3454 28.4368L15.7228 28.0773L15.7228 28.7962L16.3454 28.4368ZM10.6563 28.3745L10.594 28.3745L10.594 28.499L10.6562 28.499L10.6562 28.4368L10.6563 28.3745ZM15.785 28.4368L15.785 28.3745L10.6563 28.3745L10.6562 28.4368L10.6562 28.499L15.785 28.499L15.785 28.4368Z" fill="black"/>
<rect width="1.26323" height="1.08365" transform="translate(10.3906 27.8949) rotate(90)" fill="white"/>
<path d="M9.96882 27.8009L10.4254 28.9847H10.2029L10.09 28.6709L9.62181 28.6709L9.50559 28.9847H9.2914L9.74799 27.8009L9.96882 27.8009ZM10.0352 28.5149L9.85923 28.0168L9.67494 28.5149L10.0352 28.5149Z" fill="#060C12"/>
<path d="M44.285 19.7735L43.5829 19.619L43.8001 20.3043L44.285 19.7735ZM31.8093 23.6631L31.75 23.6819L31.7876 23.8006L31.8469 23.7818L31.8281 23.7224L31.8093 23.6631ZM43.7508 19.9428L43.732 19.8835L31.8093 23.6631L31.8281 23.7224L31.8469 23.7818L43.7697 20.0022L43.7508 19.9428Z" fill="black"/>
<path d="M17.0624 28.4889L17.7643 28.6445L17.5481 27.9589L17.0624 28.4889ZM29.5656 24.6117L29.625 24.593L29.5875 24.4743L29.5282 24.493L29.5469 24.5524L29.5656 24.6117ZM17.5968 28.3204L17.6156 28.3798L29.5656 24.6117L29.5469 24.5524L29.5282 24.493L17.5781 28.261L17.5968 28.3204Z" fill="black"/>
<path d="M31.0924 24.3764L31.0947 24.5557H30.2845L30.2689 23.3737H30.4781L30.4913 24.3764H31.0924Z" fill="#060C12"/>
</svg>
