<svg width="176" height="136" viewBox="0 0 176 136" fill="none" xmlns="http://www.w3.org/2000/svg">
<path d="M0 16C0 7.16344 7.16344 0 16 0H160C168.837 0 176 7.16344 176 16V120C176 128.837 168.837 136 160 136H16C7.16344 136 0 128.837 0 120V16Z" fill="white"/>
<path d="M16 0.5H160C168.56 0.5 175.5 7.43959 175.5 16V120C175.5 128.56 168.56 135.5 160 135.5H16C7.43959 135.5 0.5 128.56 0.5 120V16C0.5 7.43959 7.43959 0.5 16 0.5Z" stroke="#B02E0C" stroke-opacity="0.16"/>
<path d="M166.631 52.0088L166.415 52.0771L62.6797 84.8867V85.0664H62.1113L61.8604 85.1455L61.835 85.0664H13.6797V77.2432H14.6875L123.698 45.0127L123.741 45H166.631V52.0088ZM14.2969 78.0029V84.4492H62.0146L62.0615 84.4336V78.0586L61.8584 78.1221L61.7773 77.8604H14.7812L14.2969 78.0029ZM62.6797 77.8662V84.2383L166.014 51.5557V45.7275L62.6797 77.8662ZM16.8682 77.2432H62.6035L164.29 45.6172H123.83L16.8682 77.2432Z" fill="black"/>
<path d="M18.2353 80.8281L15.8695 79.4622L15.8695 82.194L18.2353 80.8281ZM10 80.5915L9.76342 80.5915L9.76342 81.0647L10 81.0647L10 80.5915ZM16.106 80.8281L16.106 80.5915L10 80.5915L10 80.8281L10 81.0647L16.106 81.0647L16.106 80.8281Z" fill="black"/>
<rect width="2.34896" height="4" transform="translate(10 79.7939) rotate(90)" fill="white"/>
<path d="M9.69701 78.4763V79.1577H8.26489V82.9683H7.47628V79.1577H6.04416V78.4763H9.69701Z" fill="#060C12"/>
<path d="M14.1227 89.0586L16.4886 90.4245V87.6927L14.1227 89.0586ZM34.7109 89.2952H34.9475V88.822H34.7109V89.2952ZM16.252 89.0586V89.2952H34.7109V89.0586V88.822H16.252V89.0586Z" fill="black"/>
<path d="M62.5004 89.0586L60.1346 87.6927L60.1346 90.4245L62.5004 89.0586ZM40.8828 88.822L40.6462 88.822L40.6462 89.2952L40.8828 89.2952L40.8828 88.822ZM60.3712 89.0586L60.3712 88.822L40.8828 88.822L40.8828 89.0586L40.8828 89.2952L60.3712 89.2952L60.3712 89.0586Z" fill="black"/>
<rect width="4.80004" height="4.11764" transform="translate(39.8516 87) rotate(90)" fill="white"/>
<path d="M38.2579 86.8431L39.9929 91.3413H39.1475L38.7185 90.1489L36.9394 90.1489L36.4978 91.3413H35.6839L37.4188 86.8431L38.2579 86.8431ZM38.5103 89.5559L37.8415 87.6632L37.1413 89.5559L38.5103 89.5559Z" fill="#060C12"/>
<path d="M168.67 56.1398L166.002 55.5527L166.827 58.1568L168.67 56.1398ZM121.264 70.9195L121.039 70.991L121.182 71.442L121.407 71.3705L121.264 70.9195ZM166.64 56.7833L166.568 56.5577L121.264 70.9195L121.336 71.145L121.407 71.3705L166.711 57.0088L166.64 56.7833Z" fill="black"/>
<path d="M65.2256 89.257L67.8927 89.8482L67.0712 87.2429L65.2256 89.257ZM112.735 74.5245L112.961 74.4533L112.819 74.0021L112.593 74.0732L112.735 74.5245ZM67.2563 88.6167L67.3274 88.8423L112.735 74.5245L112.664 74.2988L112.593 74.0732L67.1851 88.3911L67.2563 88.6167Z" fill="black"/>
<path d="M118.542 73.8301L118.551 74.5114H115.473L115.414 70.0198H116.208L116.259 73.8301H118.542Z" fill="#060C12"/>
</svg>
