<svg width="54" height="54" viewBox="0 0 54 54" fill="none" xmlns="http://www.w3.org/2000/svg">
<rect width="54" height="54" rx="10.8" fill="#FFCC00" fill-opacity="0.1"/>
<rect x="0.405" y="0.405" width="53.19" height="53.19" rx="10.395" stroke="#FFCC00" stroke-opacity="0.1" stroke-width="0.81"/>
<path d="M14.1758 19.575C14.1758 16.7112 14.1758 15.2793 15.0654 14.3897C15.9551 13.5 17.387 13.5 20.2508 13.5C23.1146 13.5 24.5465 13.5 25.4361 14.3897C26.3258 15.2793 26.3258 16.7112 26.3258 19.575C26.3258 22.4388 26.3258 23.8707 25.4361 24.7603C24.5465 25.65 23.1146 25.65 20.2508 25.65C17.387 25.65 15.9551 25.65 15.0654 24.7603C14.1758 23.8707 14.1758 22.4388 14.1758 19.575Z" fill="#FFCC00"/>
<path d="M29.0273 34.4246C29.0273 31.5608 29.0273 30.1289 29.917 29.2393C30.8067 28.3496 32.2386 28.3496 35.1023 28.3496C37.9661 28.3496 39.398 28.3496 40.2877 29.2393C41.1773 30.1289 41.1773 31.5608 41.1773 34.4246C41.1773 37.2884 41.1773 38.7203 40.2877 39.6099C39.398 40.4996 37.9661 40.4996 35.1023 40.4996C32.2386 40.4996 30.8067 40.4996 29.917 39.6099C29.0273 38.7203 29.0273 37.2884 29.0273 34.4246Z" fill="#FFCC00"/>
<path d="M14.1758 34.4246C14.1758 31.5608 14.1758 30.1289 15.0654 29.2393C15.9551 28.3496 17.387 28.3496 20.2508 28.3496C23.1146 28.3496 24.5465 28.3496 25.4361 29.2393C26.3258 30.1289 26.3258 31.5608 26.3258 34.4246C26.3258 37.2884 26.3258 38.7203 25.4361 39.6099C24.5465 40.4996 23.1146 40.4996 20.2508 40.4996C17.387 40.4996 15.9551 40.4996 15.0654 39.6099C14.1758 38.7203 14.1758 37.2884 14.1758 34.4246Z" fill="#FFCC00"/>
<path d="M29.0273 19.575C29.0273 16.7112 29.0273 15.2793 29.917 14.3897C30.8067 13.5 32.2386 13.5 35.1023 13.5C37.9661 13.5 39.398 13.5 40.2877 14.3897C41.1773 15.2793 41.1773 16.7112 41.1773 19.575C41.1773 22.4388 41.1773 23.8707 40.2877 24.7603C39.398 25.65 37.9661 25.65 35.1023 25.65C32.2386 25.65 30.8067 25.65 29.917 24.7603C29.0273 23.8707 29.0273 22.4388 29.0273 19.575Z" fill="#FFCC00"/>
</svg>
