<svg width="29" height="29" viewBox="0 0 29 29" fill="none" xmlns="http://www.w3.org/2000/svg">
<path d="M19.3907 19.371C19.5962 19.2108 19.7825 19.0244 20.1551 18.6518L24.8008 14.0061C24.9131 13.8938 24.8617 13.7004 24.7116 13.6483C24.1633 13.4581 23.4499 13.1009 22.7827 12.4336C22.1154 11.7663 21.7582 11.053 21.568 10.5046C21.5159 10.3546 21.3224 10.3032 21.2101 10.4155L16.5645 15.0611C16.1918 15.4338 16.0055 15.6201 15.8453 15.8255C15.6563 16.0679 15.4942 16.3301 15.362 16.6076C15.2499 16.8427 15.1665 17.0927 14.9999 17.5927L14.7846 18.2387L14.4422 19.2659L14.1211 20.2291C14.0391 20.4751 14.1031 20.7464 14.2865 20.9298C14.4699 21.1132 14.7411 21.1772 14.9872 21.0952L15.9503 20.7741L16.9776 20.4317L17.6236 20.2164L17.6236 20.2164C18.1235 20.0497 18.3735 19.9664 18.6087 19.8543C18.8862 19.7221 19.1484 19.56 19.3907 19.371Z" fill="#B02E0C"/>
<path d="M26.2553 12.5516C27.2469 11.5601 27.2469 9.95246 26.2553 8.96093C25.2638 7.9694 23.6562 7.9694 22.6647 8.96093L22.5153 9.11029C22.3712 9.25441 22.3059 9.45572 22.3419 9.65633C22.3646 9.78253 22.4065 9.96704 22.4829 10.1872C22.6357 10.6275 22.9242 11.2055 23.4675 11.7488C24.0108 12.2921 24.5888 12.5806 25.0291 12.7333C25.2492 12.8097 25.4337 12.8517 25.5599 12.8744C25.7605 12.9104 25.9619 12.8451 26.106 12.7009L26.2553 12.5516Z" fill="#B02E0C"/>
<path fill-rule="evenodd" clip-rule="evenodd" d="M4.89876 3.72323C3.52344 5.09855 3.52344 7.3121 3.52344 11.7392V16.4349C3.52344 20.862 3.52344 23.0755 4.89876 24.4508C6.27409 25.8262 8.48764 25.8262 12.9147 25.8262H15.2626C19.6897 25.8262 21.9032 25.8262 23.2785 24.4508C24.6318 23.0976 24.6535 20.9328 24.6539 16.6462L21.3454 19.9547C21.0287 20.2716 20.7694 20.5312 20.4765 20.7596C20.1333 21.0273 19.7619 21.2568 19.369 21.4441C19.0337 21.6039 18.6856 21.7198 18.2605 21.8613L15.5468 22.7659C14.668 23.0588 13.6991 22.8301 13.0441 22.1751C12.3891 21.5201 12.1604 20.5512 12.4533 19.6724L12.7744 18.7093L13.3322 17.036L13.3579 16.9588C13.4994 16.5337 13.6153 16.1855 13.7752 15.8502C13.9624 15.4573 14.1919 15.0859 14.4596 14.7428C14.6881 14.4498 14.9476 14.1904 15.2645 13.8737L19.9678 9.17055L21.273 7.86534L21.4223 7.71599C22.2621 6.87617 23.3629 6.45637 24.4637 6.4566C24.2861 5.24682 23.9426 4.38731 23.2785 3.72323C21.9032 2.3479 19.6897 2.3479 15.2626 2.3479H12.9147C8.48764 2.3479 6.27409 2.3479 4.89876 3.72323ZM8.51257 10.5653C8.51257 10.079 8.90675 9.68486 9.393 9.68486H17.0234C17.5097 9.68486 17.9039 10.079 17.9039 10.5653C17.9039 11.0515 17.5097 11.4457 17.0234 11.4457H9.393C8.90675 11.4457 8.51257 11.0515 8.51257 10.5653ZM8.51257 15.2609C8.51257 14.7747 8.90675 14.3805 9.393 14.3805H12.3278C12.814 14.3805 13.2082 14.7747 13.2082 15.2609C13.2082 15.7472 12.814 16.1414 12.3278 16.1414H9.393C8.90675 16.1414 8.51257 15.7472 8.51257 15.2609ZM8.51257 19.9566C8.51257 19.4703 8.90675 19.0762 9.393 19.0762H11.1539C11.6401 19.0762 12.0343 19.4703 12.0343 19.9566C12.0343 20.4428 11.6401 20.837 11.1539 20.837H9.393C8.90675 20.837 8.51257 20.4428 8.51257 19.9566Z" fill="#B02E0C"/>
</svg>
