<svg width="47" height="47" viewBox="0 0 47 47" fill="none" xmlns="http://www.w3.org/2000/svg">
<rect width="47" height="47" rx="11.3448" fill="#F3F3F3"/>
<rect x="0.405172" y="0.405172" width="46.1897" height="46.1897" rx="10.9397" stroke="#B02E0C" stroke-opacity="0.04" stroke-width="0.810345"/>
<rect x="2.51667" y="8.14997" width="34.0815" height="24.5148" stroke="black" stroke-width="0.298961"/>
<rect x="3.71198" y="9.34577" width="31.6898" height="22.1231" stroke="black" stroke-width="0.298961"/>
<path d="M2.66602 11.2891L36.4486 11.2891" stroke="#F7941D" stroke-width="0.298961"/>
<path d="M2.66602 14.2786L36.4486 14.2786" stroke="#F7941D" stroke-width="0.298961"/>
<path d="M2.66602 17.2683L36.4486 17.2683" stroke="#F7941D" stroke-width="0.298961"/>
<path d="M2.66602 20.2578L36.4486 20.2578" stroke="#F7941D" stroke-width="0.298961"/>
<path d="M2.66602 23.2476L36.4486 23.2476" stroke="#F7941D" stroke-width="0.298961"/>
<path d="M2.66602 26.2371L36.4486 26.2371" stroke="#F7941D" stroke-width="0.298961"/>
<path d="M2.66602 29.2268L36.4486 29.2268" stroke="#F7941D" stroke-width="0.298961"/>
<path d="M11.0371 28.3298L11.635 28.675V27.9846L11.0371 28.3298ZM14.0267 28.3298L13.4288 27.9846V28.675L14.0267 28.3298ZM11.5752 28.3298V28.3896H13.4886V28.3298V28.27H11.5752V28.3298Z" fill="black"/>
<path d="M12.5312 28.6289L12.5312 36.4019" stroke="black" stroke-width="0.179377"/>
<path d="M31.0664 23.2476L30.7212 23.8455L31.4116 23.8455L31.0664 23.2476ZM31.0664 26.2372L31.4116 25.6392L30.7212 25.6392L31.0664 26.2372ZM31.0664 23.7857L31.0066 23.7857L31.0066 25.699L31.0664 25.699L31.1262 25.699L31.1262 23.7857L31.0664 23.7857Z" fill="black"/>
<path d="M31.6641 24.8918H39.2876" stroke="black" stroke-width="0.179377"/>
<path d="M33.3086 11.4385L34.056 12.733H40.6331" stroke="black" stroke-width="0.179377"/>
<path d="M2.36719 34.01L3.26407 34.5278L3.26407 33.4922L2.36719 34.01ZM37.0466 34.01L36.1498 33.4922L36.1498 34.5278L37.0466 34.01ZM3.17438 34.01L3.17438 34.0997L36.2395 34.0997L36.2395 34.01L36.2395 33.9203L3.17438 33.9203L3.17438 34.01Z" fill="black"/>
<path d="M19.7 36.3496V36.6079H18.5329V34.905H18.8342V36.3496H19.7ZM20.6309 34.9242V36.6079H20.3391V35.4503H19.9229V35.2494C20.2123 35.2494 20.375 35.1418 20.4109 34.9242H20.6309Z" fill="black"/>
<path d="M12.5011 37.7991H12.2165C12.1974 37.6006 12.0754 37.5002 11.8458 37.5002C11.7429 37.5002 11.664 37.5217 11.6066 37.5647C11.5492 37.6078 11.5205 37.6652 11.5205 37.7369C11.5205 37.8063 11.5397 37.8541 11.5827 37.8781C11.6258 37.9044 11.719 37.9355 11.8649 37.9713C11.9032 37.9833 11.9319 37.9905 11.9534 37.9952C12.1424 38.0431 12.2715 38.0861 12.3409 38.1244C12.4915 38.2057 12.5681 38.3325 12.5681 38.5047C12.5681 38.5812 12.5537 38.6482 12.5298 38.708C12.5035 38.7702 12.47 38.8204 12.427 38.861C12.3839 38.9017 12.3313 38.9352 12.2739 38.9615C12.2141 38.9902 12.1519 39.0093 12.0897 39.0213C12.0252 39.0332 11.9582 39.038 11.8912 39.038C11.676 39.038 11.5038 38.9878 11.3722 38.885C11.2383 38.7845 11.1737 38.6338 11.1737 38.4353H11.4679C11.4679 38.5597 11.5086 38.653 11.5899 38.7128C11.6712 38.7725 11.7764 38.8012 11.908 38.8012C12.0228 38.8012 12.1113 38.7797 12.1758 38.7319C12.2404 38.6841 12.2739 38.6195 12.2739 38.5334C12.2739 38.4808 12.2548 38.4353 12.2213 38.4018C12.1878 38.3684 12.1495 38.342 12.1113 38.3277C12.0706 38.3133 12.0013 38.2942 11.9032 38.2679C11.8912 38.2655 11.8817 38.2631 11.8769 38.2607C11.664 38.2081 11.5253 38.1627 11.4583 38.1268C11.3196 38.055 11.2455 37.945 11.2359 37.7943V37.7609C11.2359 37.6102 11.2909 37.4906 11.4057 37.3997C11.5205 37.3088 11.6736 37.2634 11.8649 37.2634C12.0491 37.2634 12.1998 37.3088 12.317 37.3949C12.4318 37.4834 12.4939 37.6174 12.5011 37.7991ZM13.8463 38.7582V38.9998H12.7031C12.7031 38.9256 12.715 38.8563 12.7342 38.7941C12.7533 38.7319 12.7748 38.6793 12.7987 38.6362C12.8226 38.5932 12.8609 38.5477 12.9087 38.5023C12.9566 38.4568 13.002 38.4186 13.0403 38.3899C13.0786 38.3612 13.1336 38.3229 13.2029 38.2751C13.2077 38.2727 13.2292 38.2583 13.2723 38.2296C13.3153 38.2009 13.3416 38.1842 13.3512 38.177C13.3608 38.1698 13.3823 38.1531 13.4158 38.1268C13.4493 38.1005 13.4708 38.079 13.4804 38.0622C13.4899 38.0479 13.5043 38.0263 13.5234 37.9976C13.5425 37.9713 13.5545 37.945 13.5617 37.9163C13.5665 37.8876 13.5712 37.8589 13.5712 37.8254C13.5712 37.7393 13.5449 37.67 13.4971 37.6198C13.4493 37.5695 13.3823 37.5432 13.301 37.5432C13.2531 37.5432 13.2101 37.5528 13.1766 37.5671C13.1407 37.5815 13.112 37.6006 13.0929 37.6245C13.0738 37.6485 13.057 37.6795 13.0451 37.7178C13.0307 37.7561 13.0235 37.7896 13.0188 37.823C13.014 37.8565 13.0116 37.8972 13.0116 37.9402H12.7461V37.8972C12.7461 37.7178 12.7963 37.5743 12.8968 37.4691C12.9972 37.3638 13.136 37.3088 13.3082 37.3088C13.4708 37.3088 13.5999 37.3567 13.7004 37.4476C13.7985 37.5384 13.8487 37.6604 13.8487 37.8111C13.8487 37.8733 13.8391 37.9307 13.82 37.9833C13.8008 38.0383 13.7793 38.0813 13.7578 38.1148C13.7363 38.1483 13.7004 38.189 13.6478 38.232C13.5952 38.2775 13.5545 38.3086 13.5306 38.3253C13.5043 38.3444 13.4564 38.3755 13.3895 38.421C13.1886 38.5501 13.069 38.6625 13.0307 38.7582H13.8463Z" fill="black"/>
<path d="M30.2241 36.3999H30.8723C30.9895 36.3999 31.0923 36.4143 31.1832 36.4382C31.2717 36.4621 31.353 36.5075 31.4295 36.5745C31.597 36.7252 31.6807 36.9404 31.6807 37.2226C31.6807 37.524 31.5994 37.756 31.4415 37.9138C31.3698 37.9856 31.2932 38.0334 31.2119 38.0621C31.1306 38.0908 31.023 38.1028 30.889 38.1028H30.2241V36.3999ZM30.5207 36.6534V37.8517H30.8723C31.0588 37.8517 31.1904 37.799 31.2669 37.689C31.3434 37.5814 31.3817 37.4307 31.3817 37.237C31.3817 37.0552 31.3387 36.9117 31.2526 36.8089C31.1665 36.706 31.0325 36.6534 30.8532 36.6534H30.5207ZM32.969 37.8612V38.1028H31.8258C31.8258 38.0286 31.8378 37.9593 31.8569 37.8971C31.876 37.8349 31.8976 37.7823 31.9215 37.7392C31.9454 37.6962 31.9837 37.6508 32.0315 37.6053C32.0793 37.5599 32.1248 37.5216 32.163 37.4929C32.2013 37.4642 32.2563 37.4259 32.3257 37.3781C32.3304 37.3757 32.352 37.3614 32.395 37.3327C32.4381 37.304 32.4644 37.2872 32.474 37.28C32.4835 37.2729 32.505 37.2561 32.5385 37.2298C32.572 37.2035 32.5935 37.182 32.6031 37.1652C32.6127 37.1509 32.627 37.1294 32.6462 37.1007C32.6653 37.0744 32.6772 37.048 32.6844 37.0193C32.6892 36.9906 32.694 36.9619 32.694 36.9285C32.694 36.8424 32.6677 36.773 32.6198 36.7228C32.572 36.6726 32.505 36.6462 32.4237 36.6462C32.3759 36.6462 32.3328 36.6558 32.2994 36.6702C32.2635 36.6845 32.2348 36.7036 32.2156 36.7276C32.1965 36.7515 32.1798 36.7826 32.1678 36.8208C32.1535 36.8591 32.1463 36.8926 32.1415 36.9261C32.1367 36.9596 32.1343 37.0002 32.1343 37.0433H31.8689V37.0002C31.8689 36.8208 31.9191 36.6773 32.0195 36.5721C32.12 36.4669 32.2587 36.4119 32.4309 36.4119C32.5935 36.4119 32.7227 36.4597 32.8231 36.5506C32.9212 36.6415 32.9714 36.7634 32.9714 36.9141C32.9714 36.9763 32.9619 37.0337 32.9427 37.0863C32.9236 37.1413 32.9021 37.1844 32.8805 37.2179C32.859 37.2513 32.8231 37.292 32.7705 37.3351C32.7179 37.3805 32.6772 37.4116 32.6533 37.4283C32.627 37.4475 32.5792 37.4786 32.5122 37.524C32.3113 37.6531 32.1917 37.7656 32.1535 37.8612H32.969Z" fill="black"/>
<path d="M23.1445 30.1235L27.1805 37.1141H29.4227" stroke="black" stroke-width="0.179377"/>
<path d="M37.9434 8.00049L37.4255 8.89737L38.4612 8.89737L37.9434 8.00049ZM37.9434 32.8142L38.4612 31.9174L37.4255 31.9174L37.9434 32.8142ZM37.9434 8.80768L37.8537 8.80768L37.8537 32.007L37.9434 32.007L38.033 32.007L38.033 8.80768L37.9434 8.80768Z" fill="black"/>
<path d="M39.7352 21.1492V21.4075H38.568V19.7046H38.8694V21.1492H39.7352ZM40.9626 21.1659V21.4075H39.8194C39.8194 21.3333 39.8313 21.264 39.8505 21.2018C39.8696 21.1396 39.8911 21.087 39.9151 21.0439C39.939 21.0009 39.9772 20.9554 40.0251 20.91C40.0729 20.8646 40.1183 20.8263 40.1566 20.7976C40.1949 20.7689 40.2499 20.7306 40.3192 20.6828C40.324 20.6804 40.3456 20.666 40.3886 20.6373C40.4317 20.6086 40.458 20.5919 40.4675 20.5847C40.4771 20.5776 40.4986 20.5608 40.5321 20.5345C40.5656 20.5082 40.5871 20.4867 40.5967 20.4699C40.6062 20.4556 40.6206 20.4341 40.6397 20.4054C40.6589 20.379 40.6708 20.3527 40.678 20.324C40.6828 20.2953 40.6876 20.2666 40.6876 20.2332C40.6876 20.1471 40.6613 20.0777 40.6134 20.0275C40.5656 19.9772 40.4986 19.9509 40.4173 19.9509C40.3695 19.9509 40.3264 19.9605 40.2929 19.9749C40.2571 19.9892 40.2284 20.0083 40.2092 20.0323C40.1901 20.0562 40.1734 20.0873 40.1614 20.1255C40.147 20.1638 40.1399 20.1973 40.1351 20.2308C40.1303 20.2642 40.1279 20.3049 40.1279 20.348H39.8624V20.3049C39.8624 20.1255 39.9127 19.982 40.0131 19.8768C40.1136 19.7716 40.2523 19.7165 40.4245 19.7165C40.5871 19.7165 40.7163 19.7644 40.8167 19.8553C40.9148 19.9461 40.965 20.0681 40.965 20.2188C40.965 20.281 40.9554 20.3384 40.9363 20.391C40.9172 20.446 40.8956 20.4891 40.8741 20.5225C40.8526 20.556 40.8167 20.5967 40.7641 20.6397C40.7115 20.6852 40.6708 20.7163 40.6469 20.733C40.6206 20.7521 40.5728 20.7832 40.5058 20.8287C40.3049 20.9578 40.1853 21.0702 40.147 21.1659H40.9626Z" fill="black"/>
<path d="M41.2003 24.6448H40.9157C40.8966 24.4463 40.7746 24.3459 40.545 24.3459C40.4422 24.3459 40.3632 24.3674 40.3058 24.4104C40.2484 24.4535 40.2197 24.5109 40.2197 24.5826C40.2197 24.652 40.2389 24.6998 40.2819 24.7238C40.325 24.7501 40.4182 24.7812 40.5641 24.817C40.6024 24.829 40.6311 24.8362 40.6526 24.841C40.8416 24.8888 40.9707 24.9318 41.0401 24.9701C41.1908 25.0514 41.2673 25.1782 41.2673 25.3504C41.2673 25.4269 41.2529 25.4939 41.229 25.5537C41.2027 25.6159 41.1692 25.6661 41.1262 25.7067C41.0831 25.7474 41.0305 25.7809 40.9731 25.8072C40.9133 25.8359 40.8511 25.855 40.789 25.867C40.7244 25.8789 40.6574 25.8837 40.5905 25.8837C40.3752 25.8837 40.203 25.8335 40.0715 25.7307C39.9375 25.6302 39.8729 25.4795 39.8729 25.281H40.1671C40.1671 25.4054 40.2078 25.4987 40.2891 25.5585C40.3704 25.6182 40.4757 25.6469 40.6072 25.6469C40.722 25.6469 40.8105 25.6254 40.8751 25.5776C40.9396 25.5298 40.9731 25.4652 40.9731 25.3791C40.9731 25.3265 40.954 25.281 40.9205 25.2475C40.887 25.2141 40.8488 25.1877 40.8105 25.1734C40.7698 25.159 40.7005 25.1399 40.6024 25.1136C40.5905 25.1112 40.5809 25.1088 40.5761 25.1064C40.3632 25.0538 40.2245 25.0084 40.1576 24.9725C40.0188 24.9007 39.9447 24.7907 39.9351 24.64V24.6066C39.9351 24.4559 39.9901 24.3363 40.1049 24.2454C40.2197 24.1545 40.3728 24.1091 40.5641 24.1091C40.7483 24.1091 40.899 24.1545 41.0162 24.2406C41.131 24.3291 41.1932 24.4631 41.2003 24.6448ZM42.2489 24.1617V25.8455H41.9572V24.6879H41.541V24.487C41.8304 24.487 41.993 24.3794 42.0289 24.1617H42.2489Z" fill="black"/>
<path d="M41.2847 11.8853H41.9328C42.05 11.8853 42.1529 11.8996 42.2438 11.9235C42.3322 11.9474 42.4136 11.9929 42.4901 12.0598C42.6575 12.2105 42.7412 12.4258 42.7412 12.708C42.7412 13.0093 42.6599 13.2413 42.5021 13.3992C42.4303 13.4709 42.3538 13.5188 42.2725 13.5475C42.1911 13.5762 42.0835 13.5881 41.9496 13.5881H41.2847V11.8853ZM41.5813 12.1388V13.337H41.9328C42.1194 13.337 42.2509 13.2844 42.3275 13.1744C42.404 13.0667 42.4423 12.9161 42.4423 12.7223C42.4423 12.5406 42.3992 12.3971 42.3131 12.2942C42.227 12.1914 42.0931 12.1388 41.9137 12.1388H41.5813ZM43.733 11.9044V13.5881H43.4412V12.4306H43.0251V12.2297C43.3145 12.2297 43.4771 12.122 43.513 11.9044H43.733Z" fill="black"/>
<path d="M5.05664 8.29956V12.4314L6.55144 13.907V26.7451L5.05664 28.2207V31.3195" stroke="#F7941D" stroke-width="0.179377"/>
<path d="M8.04688 8.29956V12.4314L9.54168 13.907V26.7451L8.04688 28.2207V31.3195" stroke="#F7941D" stroke-width="0.179377"/>
<path d="M11.0371 8.29956V12.4314L12.5319 13.907V26.7451L11.0371 28.2207V31.3195" stroke="#F7941D" stroke-width="0.179377"/>
<path d="M14.0254 8.29956V12.4314L15.5202 13.907V26.7451L14.0254 28.2207V31.3195" stroke="#F7941D" stroke-width="0.179377"/>
<path d="M17.0156 8.29956V12.4314L18.5104 13.907V26.7451L17.0156 28.2207V31.3195" stroke="#F7941D" stroke-width="0.179377"/>
<path d="M20.0059 8.29956V12.4314L21.5007 13.907V26.7451L20.0059 28.2207V31.3195" stroke="#F7941D" stroke-width="0.179377"/>
<path d="M22.9941 8.29956V12.4314L24.4889 13.907V26.7451L22.9941 28.2207V31.3195" stroke="#F7941D" stroke-width="0.179377"/>
<path d="M25.9844 8.29956V12.4314L27.4792 13.907V26.7451L25.9844 28.2207V31.3195" stroke="#F7941D" stroke-width="0.179377"/>
<path d="M28.9746 8.29956V12.4314L30.4694 13.907V26.7451L28.9746 28.2207V31.3195" stroke="#F7941D" stroke-width="0.179377"/>
<path d="M31.9648 8.29956V12.4314L33.4596 13.907V26.7451L31.9648 28.2207V31.3195" stroke="#F7941D" stroke-width="0.179377"/>
</svg>
