<svg width="46" height="46" viewBox="0 0 46 46" fill="none" xmlns="http://www.w3.org/2000/svg">
<rect width="46" height="46" rx="11.1034" fill="#F3F3F3"/>
<rect x="0.396552" y="0.396552" width="45.2069" height="45.2069" rx="10.7069" stroke="#B02E0C" stroke-opacity="0.04" stroke-width="0.793103"/>
<rect x="3.41827" y="7.98565" width="34.3581" height="24.7137" stroke="black" stroke-width="0.301387"/>
<rect x="4.62335" y="9.19122" width="31.947" height="22.3026" stroke="black" stroke-width="0.301387"/>
<path d="M6.58203 7.83496V32.6994" stroke="#F7941D" stroke-width="0.301387"/>
<path d="M9.5957 7.83496V32.6994" stroke="#F7941D" stroke-width="0.301387"/>
<path d="M12.6094 7.83496V32.6994" stroke="#F7941D" stroke-width="0.301387"/>
<path d="M15.623 7.83496V32.6994" stroke="#F7941D" stroke-width="0.301387"/>
<path d="M18.6387 7.83496V32.6994" stroke="#F7941D" stroke-width="0.301387"/>
<path d="M21.6523 7.83496V32.6994" stroke="#F7941D" stroke-width="0.301387"/>
<path d="M24.666 7.83496V32.6994" stroke="#F7941D" stroke-width="0.301387"/>
<path d="M27.6797 7.83496V32.6994" stroke="#F7941D" stroke-width="0.301387"/>
<path d="M30.6934 7.83496V32.6994" stroke="#F7941D" stroke-width="0.301387"/>
<path d="M33.707 7.83496V32.6994" stroke="#F7941D" stroke-width="0.301387"/>
<path d="M3.56836 11.1501L37.6251 11.1501" stroke="#F7941D" stroke-width="0.301387"/>
<path d="M3.56836 14.1641L37.6251 14.1641" stroke="#F7941D" stroke-width="0.301387"/>
<path d="M3.56836 17.178L37.6251 17.178" stroke="#F7941D" stroke-width="0.301387"/>
<path d="M3.56836 20.1919L37.6251 20.1919" stroke="#F7941D" stroke-width="0.301387"/>
<path d="M3.56836 23.2056L37.6251 23.2056" stroke="#F7941D" stroke-width="0.301387"/>
<path d="M3.56836 26.2195L37.6251 26.2195" stroke="#F7941D" stroke-width="0.301387"/>
<path d="M3.56836 29.2334L37.6251 29.2334" stroke="#F7941D" stroke-width="0.301387"/>
<path d="M15.7754 28.0278L16.3782 28.3758V27.6798L15.7754 28.0278ZM18.4879 28.0278L17.8851 27.6798V28.3758L18.4879 28.0278ZM16.3179 28.0278V28.0881H17.9454V28.0278V27.9676H16.3179V28.0278Z" fill="black"/>
<path d="M32.1992 20.1919L31.8512 20.7947L32.5472 20.7947L32.1992 20.1919ZM32.1992 23.2058L32.5472 22.603L31.8512 22.603L32.1992 23.2058ZM32.1992 20.7344L32.1389 20.7344L32.1389 22.6633L32.1992 22.6633L32.2595 22.6633L32.2595 20.7344L32.1992 20.7344Z" fill="black"/>
<path d="M3.26758 34.0557L4.17174 34.5777L4.17174 33.5336L3.26758 34.0557ZM38.2284 34.0557L37.3243 33.5336L37.3243 34.5777L38.2284 34.0557ZM4.08132 34.0557L4.08132 34.1461L37.4147 34.1461L37.4147 34.0557L37.4147 33.9653L4.08132 33.9652L4.08132 34.0557Z" fill="black"/>
<path d="M20.741 36.398V36.6584H19.5643V34.9417H19.8681V36.398H20.741ZM21.6794 34.961V36.6584H21.3852V35.4915H20.9657V35.2889C21.2575 35.2889 21.4214 35.1804 21.4576 34.961H21.6794Z" fill="black"/>
<path d="M11.0594 36.0509H10.7725C10.7532 35.8507 10.6302 35.7495 10.3988 35.7495C10.2951 35.7495 10.2155 35.7712 10.1577 35.8146C10.0998 35.858 10.0709 35.9158 10.0709 35.9882C10.0709 36.0581 10.0902 36.1063 10.1336 36.1304C10.177 36.1569 10.271 36.1883 10.4181 36.2245C10.4566 36.2365 10.4856 36.2437 10.5073 36.2486C10.6978 36.2968 10.8279 36.3402 10.8979 36.3788C11.0498 36.4607 11.1269 36.5885 11.1269 36.7621C11.1269 36.8393 11.1125 36.9068 11.0883 36.9671C11.0618 37.0298 11.0281 37.0804 10.9847 37.1214C10.9413 37.1624 10.8882 37.1961 10.8304 37.2227C10.7701 37.2516 10.7074 37.2709 10.6447 37.2829C10.5796 37.295 10.5121 37.2998 10.4446 37.2998C10.2276 37.2998 10.054 37.2492 9.92138 37.1455C9.78636 37.0442 9.72126 36.8923 9.72126 36.6922H10.0178C10.0178 36.8176 10.0588 36.9116 10.1408 36.9719C10.2228 37.0322 10.3289 37.0611 10.4615 37.0611C10.5772 37.0611 10.6664 37.0394 10.7315 36.9912C10.7966 36.943 10.8304 36.8779 10.8304 36.7911C10.8304 36.738 10.8111 36.6922 10.7773 36.6585C10.7436 36.6247 10.705 36.5982 10.6664 36.5837C10.6254 36.5692 10.5555 36.55 10.4566 36.5234C10.4446 36.521 10.4349 36.5186 10.4301 36.5162C10.2155 36.4632 10.0757 36.4173 10.0082 36.3812C9.86833 36.3088 9.79359 36.1979 9.78395 36.046V36.0123C9.78395 35.8604 9.8394 35.7398 9.95513 35.6482C10.0709 35.5566 10.2252 35.5108 10.4181 35.5108C10.6037 35.5108 10.7556 35.5566 10.8738 35.6434C10.9895 35.7326 11.0522 35.8676 11.0594 36.0509ZM12.1165 35.5638V37.2612H11.8224V36.0943H11.4028V35.8917C11.6946 35.8917 11.8585 35.7832 11.8947 35.5638H12.1165Z" fill="black"/>
<path d="M2.70148 36.4486H3.35489C3.47303 36.4486 3.57671 36.4631 3.66833 36.4872C3.75754 36.5113 3.83952 36.5571 3.91667 36.6246C4.08545 36.7765 4.16984 36.9935 4.16984 37.278C4.16984 37.5818 4.08786 37.8157 3.92873 37.9748C3.8564 38.0471 3.77924 38.0954 3.69726 38.1243C3.61529 38.1532 3.50679 38.1653 3.37177 38.1653H2.70148V36.4486ZM3.00046 36.7042V37.9121H3.35489C3.54295 37.9121 3.67556 37.8591 3.75272 37.7482C3.82987 37.6397 3.86845 37.4878 3.86845 37.2925C3.86845 37.1092 3.82505 36.9646 3.73825 36.8609C3.65145 36.7572 3.51643 36.7042 3.3356 36.7042H3.00046ZM5.16967 36.4679V38.1653H4.87552V36.9983H4.45598V36.7958C4.74773 36.7958 4.91168 36.6873 4.94785 36.4679H5.16967Z" fill="black"/>
<path d="M39.1328 7.83496L38.6108 8.73912L39.6548 8.73912L39.1328 7.83496ZM39.1328 32.8501L39.6548 31.9459L38.6108 31.9459L39.1328 32.8501ZM39.1328 8.64871L39.0424 8.64871L39.0424 32.0363L39.1328 32.0363L39.2232 32.0363L39.2232 8.64871L39.1328 8.64871Z" fill="black"/>
<path d="M40.9265 21.0821V21.3425H39.7499V19.6258H40.0537V21.0821H40.9265ZM42.1639 21.099V21.3425H41.0114C41.0114 21.2678 41.0235 21.1979 41.0428 21.1352C41.0621 21.0725 41.0838 21.0194 41.1079 20.976C41.132 20.9326 41.1705 20.8868 41.2188 20.841C41.267 20.7952 41.3128 20.7566 41.3514 20.7277C41.39 20.6988 41.4454 20.6602 41.5153 20.612C41.5202 20.6096 41.5419 20.5951 41.5853 20.5662C41.6287 20.5372 41.6552 20.5203 41.6648 20.5131C41.6745 20.5059 41.6962 20.489 41.7299 20.4625C41.7637 20.436 41.7854 20.4143 41.795 20.3974C41.8047 20.3829 41.8191 20.3612 41.8384 20.3323C41.8577 20.3058 41.8698 20.2792 41.877 20.2503C41.8818 20.2214 41.8866 20.1924 41.8866 20.1587C41.8866 20.0719 41.8601 20.002 41.8119 19.9513C41.7637 19.9007 41.6962 19.8742 41.6142 19.8742C41.566 19.8742 41.5226 19.8838 41.4888 19.8983C41.4526 19.9128 41.4237 19.932 41.4044 19.9562C41.3851 19.9803 41.3683 20.0116 41.3562 20.0502C41.3417 20.0888 41.3345 20.1225 41.3297 20.1563C41.3249 20.19 41.3224 20.231 41.3224 20.2744H41.0548V20.231C41.0548 20.0502 41.1055 19.9055 41.2067 19.7994C41.308 19.6933 41.4478 19.6379 41.6214 19.6379C41.7854 19.6379 41.9156 19.6861 42.0168 19.7777C42.1157 19.8694 42.1663 19.9923 42.1663 20.1442C42.1663 20.2069 42.1567 20.2648 42.1374 20.3178C42.1181 20.3733 42.0964 20.4167 42.0747 20.4504C42.053 20.4842 42.0168 20.5252 41.9638 20.5686C41.9108 20.6144 41.8698 20.6457 41.8457 20.6626C41.8191 20.6819 41.7709 20.7132 41.7034 20.759C41.5009 20.8892 41.3803 21.0026 41.3417 21.099H42.1639Z" fill="black"/>
<path d="M41.2816 15.3526H41.935C42.0531 15.3526 42.1568 15.3671 42.2484 15.3912C42.3376 15.4153 42.4196 15.4611 42.4968 15.5286C42.6655 15.6805 42.7499 15.8975 42.7499 16.1821C42.7499 16.4859 42.6679 16.7197 42.5088 16.8789C42.4365 16.9512 42.3593 16.9994 42.2773 17.0283C42.1954 17.0573 42.0869 17.0693 41.9518 17.0693H41.2816V15.3526ZM41.5805 15.6082V16.8162H41.935C42.123 16.8162 42.2556 16.7631 42.3328 16.6522C42.41 16.5437 42.4485 16.3918 42.4485 16.1965C42.4485 16.0133 42.4051 15.8686 42.3183 15.7649C42.2315 15.6613 42.0965 15.6082 41.9157 15.6082H41.5805ZM44.0487 16.8258V17.0693H42.8962C42.8962 16.9946 42.9083 16.9247 42.9276 16.862C42.9469 16.7993 42.9686 16.7462 42.9927 16.7028C43.0168 16.6595 43.0554 16.6136 43.1036 16.5678C43.1518 16.522 43.1976 16.4834 43.2362 16.4545C43.2748 16.4256 43.3302 16.387 43.4001 16.3388C43.405 16.3364 43.4267 16.3219 43.4701 16.293C43.5135 16.264 43.54 16.2472 43.5496 16.2399C43.5593 16.2327 43.581 16.2158 43.6147 16.1893C43.6485 16.1628 43.6702 16.1411 43.6798 16.1242C43.6895 16.1097 43.7039 16.088 43.7232 16.0591C43.7425 16.0326 43.7546 16.006 43.7618 15.9771C43.7666 15.9482 43.7714 15.9192 43.7714 15.8855C43.7714 15.7987 43.7449 15.7288 43.6967 15.6781C43.6485 15.6275 43.581 15.601 43.499 15.601C43.4508 15.601 43.4074 15.6106 43.3736 15.6251C43.3374 15.6396 43.3085 15.6588 43.2892 15.683C43.2699 15.7071 43.2531 15.7384 43.241 15.777C43.2265 15.8156 43.2193 15.8493 43.2145 15.8831C43.2097 15.9168 43.2073 15.9578 43.2073 16.0012H42.9396V15.9578C42.9396 15.777 42.9903 15.6323 43.0915 15.5262C43.1928 15.4201 43.3326 15.3647 43.5062 15.3647C43.6702 15.3647 43.8004 15.4129 43.9016 15.5045C44.0005 15.5962 44.0511 15.7191 44.0511 15.871C44.0511 15.9337 44.0415 15.9916 44.0222 16.0446C44.0029 16.1001 43.9812 16.1435 43.9595 16.1772C43.9378 16.211 43.9016 16.252 43.8486 16.2954C43.7956 16.3412 43.7546 16.3725 43.7305 16.3894C43.7039 16.4087 43.6557 16.44 43.5882 16.4859C43.3857 16.6161 43.2651 16.7294 43.2265 16.8258H44.0487Z" fill="black"/>
<path d="M42.4032 26.4063H42.1162C42.097 26.2062 41.974 26.1049 41.7425 26.1049C41.6388 26.1049 41.5593 26.1266 41.5014 26.17C41.4435 26.2134 41.4146 26.2713 41.4146 26.3436C41.4146 26.4136 41.4339 26.4618 41.4773 26.4859C41.5207 26.5124 41.6147 26.5438 41.7618 26.5799C41.8004 26.592 41.8293 26.5992 41.851 26.604C42.0415 26.6523 42.1717 26.6957 42.2416 26.7342C42.3935 26.8162 42.4707 26.944 42.4707 27.1176C42.4707 27.1948 42.4562 27.2623 42.4321 27.3225C42.4056 27.3852 42.3718 27.4359 42.3284 27.4769C42.285 27.5178 42.232 27.5516 42.1741 27.5781C42.1138 27.6071 42.0511 27.6263 41.9885 27.6384C41.9234 27.6505 41.8558 27.6553 41.7883 27.6553C41.5713 27.6553 41.3977 27.6046 41.2651 27.501C41.1301 27.3997 41.065 27.2478 41.065 27.0477H41.3616C41.3616 27.1731 41.4026 27.2671 41.4845 27.3274C41.5665 27.3876 41.6726 27.4166 41.8052 27.4166C41.9209 27.4166 42.0102 27.3949 42.0753 27.3467C42.1404 27.2984 42.1741 27.2333 42.1741 27.1465C42.1741 27.0935 42.1548 27.0477 42.1211 27.0139C42.0873 26.9802 42.0487 26.9536 42.0102 26.9392C41.9692 26.9247 41.8992 26.9054 41.8004 26.8789C41.7883 26.8765 41.7787 26.8741 41.7739 26.8717C41.5593 26.8186 41.4194 26.7728 41.3519 26.7366C41.2121 26.6643 41.1373 26.5534 41.1277 26.4015V26.3678C41.1277 26.2159 41.1832 26.0953 41.2989 26.0037C41.4146 25.9121 41.5689 25.8662 41.7618 25.8662C41.9475 25.8662 42.0994 25.9121 42.2175 25.9989C42.3332 26.0881 42.3959 26.2231 42.4032 26.4063ZM43.7593 27.3732V27.6167H42.6068C42.6068 27.542 42.6188 27.472 42.6381 27.4093C42.6574 27.3467 42.6791 27.2936 42.7032 27.2502C42.7273 27.2068 42.7659 27.161 42.8141 27.1152C42.8623 27.0694 42.9081 27.0308 42.9467 27.0019C42.9853 26.9729 43.0407 26.9344 43.1107 26.8861C43.1155 26.8837 43.1372 26.8693 43.1806 26.8403C43.224 26.8114 43.2505 26.7945 43.2602 26.7873C43.2698 26.78 43.2915 26.7632 43.3253 26.7366C43.359 26.7101 43.3807 26.6884 43.3904 26.6716C43.4 26.6571 43.4145 26.6354 43.4338 26.6065C43.453 26.5799 43.4651 26.5534 43.4723 26.5245C43.4772 26.4955 43.482 26.4666 43.482 26.4329C43.482 26.3461 43.4555 26.2761 43.4072 26.2255C43.359 26.1749 43.2915 26.1483 43.2095 26.1483C43.1613 26.1483 43.1179 26.158 43.0841 26.1725C43.048 26.1869 43.019 26.2062 42.9998 26.2303C42.9805 26.2544 42.9636 26.2858 42.9515 26.3244C42.9371 26.3629 42.9298 26.3967 42.925 26.4304C42.9202 26.4642 42.9178 26.5052 42.9178 26.5486H42.6502V26.5052C42.6502 26.3244 42.7008 26.1797 42.802 26.0736C42.9033 25.9675 43.0432 25.9121 43.2168 25.9121C43.3807 25.9121 43.5109 25.9603 43.6122 26.0519C43.711 26.1435 43.7617 26.2665 43.7617 26.4184C43.7617 26.4811 43.752 26.5389 43.7327 26.592C43.7134 26.6474 43.6917 26.6908 43.67 26.7246C43.6483 26.7583 43.6122 26.7993 43.5591 26.8427C43.5061 26.8885 43.4651 26.9199 43.441 26.9368C43.4145 26.9561 43.3662 26.9874 43.2987 27.0332C43.0962 27.1634 42.9756 27.2767 42.9371 27.3732H43.7593Z" fill="black"/>
<path d="M17.1302 28.48L15.0205 36.1653H12.6094" stroke="black" stroke-width="0.180832"/>
<path d="M9.59697 30.439L7.57041 37.0695H5.07617" stroke="black" stroke-width="0.180832"/>
<path d="M32.502 21.8494L42.297 23.6577V25.3153" stroke="black" stroke-width="0.180832"/>
<path d="M32.502 11.4517L42.297 13.26V14.9176" stroke="black" stroke-width="0.180832"/>
</svg>
