<svg width="47" height="47" viewBox="0 0 47 47" fill="none" xmlns="http://www.w3.org/2000/svg">
<rect width="47" height="47" rx="11.3448" fill="#F3F3F3"/>
<rect x="0.405172" y="0.405172" width="46.1897" height="46.1897" rx="10.9397" stroke="#B02E0C" stroke-opacity="0.04" stroke-width="0.810345"/>
<rect x="2.76858" y="8.34133" width="33.6259" height="24.187" stroke="black" stroke-width="0.294964"/>
<rect x="3.94826" y="9.52151" width="31.2662" height="21.8273" stroke="black" stroke-width="0.294964"/>
<path d="M11.1758 28.2522L11.7657 28.5928V27.9116L11.1758 28.2522ZM14.1254 28.2522L13.5355 27.9116V28.5928L14.1254 28.2522ZM11.7067 28.2522V28.3112H13.5945V28.2522V28.1932H11.7067V28.2522Z" fill="black"/>
<path d="M12.6504 28.5471L12.6504 36.2162" stroke="black" stroke-width="0.176978"/>
<path d="M30.9375 23.2378L30.5969 23.8277L31.2781 23.8277L30.9375 23.2378ZM30.9375 26.1874L31.2781 25.5975L30.5969 25.5975L30.9375 26.1874ZM30.9375 23.7687L30.8785 23.7687L30.8785 25.6565L30.9375 25.6565L30.9965 25.6565L30.9965 23.7687L30.9375 23.7687Z" fill="black"/>
<path d="M31.5273 24.8601H39.0489" stroke="black" stroke-width="0.176978"/>
<path d="M32.5605 10.5542L33.8879 12.8638H40.3771" stroke="black" stroke-width="0.176978"/>
<path d="M2.62109 33.8564L3.50599 34.3673L3.50599 33.3456L2.62109 33.8564ZM36.8369 33.8564L35.952 33.3456L35.952 34.3673L36.8369 33.8564ZM3.4175 33.8564L3.4175 33.9449L36.0405 33.9449L36.0405 33.8564L36.0405 33.768L3.4175 33.768L3.4175 33.8564Z" fill="black"/>
<path d="M19.7216 36.1914V36.4463H18.57V34.7662H18.8674V36.1914H19.7216ZM20.64 34.7851V36.4463H20.3521V35.3042H19.9415V35.106C20.2271 35.106 20.3875 34.9998 20.4229 34.7851H20.64Z" fill="black"/>
<path d="M12.6403 37.6216H12.3595C12.3406 37.4257 12.2202 37.3266 11.9937 37.3266C11.8922 37.3266 11.8144 37.3479 11.7577 37.3903C11.7011 37.4328 11.6728 37.4894 11.6728 37.5602C11.6728 37.6287 11.6917 37.6759 11.7341 37.6994C11.7766 37.7254 11.8686 37.7561 12.0126 37.7915C12.0503 37.8033 12.0787 37.8104 12.0999 37.8151C12.2863 37.8623 12.4137 37.9047 12.4822 37.9425C12.6308 38.0227 12.7063 38.1478 12.7063 38.3177C12.7063 38.3932 12.6922 38.4593 12.6686 38.5183C12.6426 38.5796 12.6096 38.6292 12.5671 38.6693C12.5246 38.7094 12.4727 38.7424 12.4161 38.7684C12.3571 38.7967 12.2957 38.8156 12.2344 38.8274C12.1707 38.8392 12.1046 38.8439 12.0385 38.8439C11.8262 38.8439 11.6563 38.7944 11.5265 38.6929C11.3943 38.5938 11.3306 38.4451 11.3306 38.2493H11.6209C11.6209 38.372 11.661 38.464 11.7412 38.523C11.8214 38.582 11.9253 38.6103 12.0551 38.6103C12.1683 38.6103 12.2556 38.5891 12.3193 38.5419C12.3831 38.4947 12.4161 38.431 12.4161 38.346C12.4161 38.2941 12.3972 38.2493 12.3642 38.2162C12.3311 38.1832 12.2934 38.1572 12.2556 38.1431C12.2155 38.1289 12.1471 38.11 12.0503 38.0841C12.0385 38.0817 12.0291 38.0794 12.0244 38.077C11.8144 38.0251 11.6775 37.9803 11.6114 37.9449C11.4746 37.8741 11.4014 37.7655 11.392 37.6169V37.5838C11.392 37.4352 11.4463 37.3172 11.5595 37.2275C11.6728 37.1378 11.8238 37.093 12.0126 37.093C12.1943 37.093 12.3429 37.1378 12.4586 37.2228C12.5718 37.3101 12.6332 37.4422 12.6403 37.6216ZM13.9675 38.5678V38.8062H12.8395C12.8395 38.733 12.8513 38.6646 12.8702 38.6032C12.8891 38.5419 12.9103 38.49 12.9339 38.4475C12.9575 38.405 12.9953 38.3602 13.0424 38.3153C13.0896 38.2705 13.1345 38.2327 13.1722 38.2044C13.21 38.1761 13.2643 38.1384 13.3327 38.0912C13.3374 38.0888 13.3587 38.0746 13.4011 38.0463C13.4436 38.018 13.4696 38.0015 13.479 37.9944C13.4884 37.9873 13.5097 37.9708 13.5427 37.9449C13.5757 37.9189 13.597 37.8977 13.6064 37.8811C13.6159 37.867 13.63 37.8457 13.6489 37.8174C13.6678 37.7915 13.6796 37.7655 13.6867 37.7372C13.6914 37.7089 13.6961 37.6806 13.6961 37.6475C13.6961 37.5626 13.6701 37.4942 13.6229 37.4446C13.5757 37.395 13.5097 37.3691 13.4294 37.3691C13.3822 37.3691 13.3398 37.3785 13.3067 37.3927C13.2713 37.4068 13.243 37.4257 13.2241 37.4493C13.2053 37.4729 13.1888 37.5036 13.177 37.5413C13.1628 37.5791 13.1557 37.6121 13.151 37.6452C13.1463 37.6782 13.1439 37.7183 13.1439 37.7608H12.882V37.7183C12.882 37.5413 12.9315 37.3998 13.0307 37.2959C13.1298 37.1921 13.2666 37.1378 13.4365 37.1378C13.597 37.1378 13.7244 37.185 13.8235 37.2747C13.9203 37.3644 13.9698 37.4847 13.9698 37.6334C13.9698 37.6947 13.9604 37.7514 13.9415 37.8033C13.9226 37.8575 13.9014 37.9 13.8801 37.9331C13.8589 37.9661 13.8235 38.0062 13.7716 38.0487C13.7197 38.0935 13.6796 38.1242 13.656 38.1407C13.63 38.1596 13.5828 38.1903 13.5168 38.2351C13.3185 38.3625 13.2006 38.4734 13.1628 38.5678H13.9675Z" fill="black"/>
<path d="M30.1328 36.241H30.7723C30.8879 36.241 30.9894 36.2552 31.079 36.2788C31.1663 36.3024 31.2466 36.3472 31.3221 36.4133C31.4873 36.5619 31.5699 36.7743 31.5699 37.0528C31.5699 37.3501 31.4896 37.579 31.3339 37.7347C31.2631 37.8055 31.1876 37.8527 31.1073 37.881C31.0271 37.9093 30.9209 37.9211 30.7888 37.9211H30.1328V36.241ZM30.4254 36.4912V37.6734H30.7723C30.9563 37.6734 31.0861 37.6215 31.1616 37.5129C31.2371 37.4067 31.2749 37.2581 31.2749 37.0669C31.2749 36.8876 31.2324 36.746 31.1475 36.6445C31.0625 36.5431 30.9304 36.4912 30.7534 36.4912H30.4254ZM32.841 37.6828V37.9211H31.713C31.713 37.848 31.7248 37.7796 31.7437 37.7182C31.7626 37.6569 31.7838 37.6049 31.8074 37.5625C31.831 37.52 31.8688 37.4752 31.916 37.4303C31.9632 37.3855 32.008 37.3477 32.0458 37.3194C32.0835 37.2911 32.1378 37.2533 32.2062 37.2061C32.2109 37.2038 32.2322 37.1896 32.2747 37.1613C32.3171 37.133 32.3431 37.1165 32.3525 37.1094C32.362 37.1023 32.3832 37.0858 32.4162 37.0598C32.4493 37.0339 32.4705 37.0127 32.4799 36.9961C32.4894 36.982 32.5035 36.9607 32.5224 36.9324C32.5413 36.9065 32.5531 36.8805 32.5602 36.8522C32.5649 36.8239 32.5696 36.7956 32.5696 36.7625C32.5696 36.6776 32.5437 36.6091 32.4965 36.5596C32.4493 36.51 32.3832 36.4841 32.303 36.4841C32.2558 36.4841 32.2133 36.4935 32.1803 36.5077C32.1449 36.5218 32.1165 36.5407 32.0977 36.5643C32.0788 36.5879 32.0623 36.6186 32.0505 36.6563C32.0363 36.6941 32.0292 36.7271 32.0245 36.7602C32.0198 36.7932 32.0174 36.8333 32.0174 36.8758H31.7555V36.8333C31.7555 36.6563 31.8051 36.5148 31.9042 36.4109C32.0033 36.3071 32.1401 36.2528 32.31 36.2528C32.4705 36.2528 32.5979 36.3 32.697 36.3897C32.7938 36.4794 32.8433 36.5997 32.8433 36.7484C32.8433 36.8097 32.8339 36.8664 32.815 36.9183C32.7961 36.9725 32.7749 37.015 32.7537 37.048C32.7324 37.0811 32.697 37.1212 32.6451 37.1637C32.5932 37.2085 32.5531 37.2392 32.5295 37.2557C32.5035 37.2746 32.4563 37.3053 32.3903 37.3501C32.1921 37.4775 32.0741 37.5884 32.0363 37.6828H32.841Z" fill="black"/>
<path d="M23.1211 30.022L27.1031 36.9191H29.3153" stroke="black" stroke-width="0.176978"/>
<path d="M37.7227 8.19458L37.2118 9.07947L38.2335 9.07947L37.7227 8.19458ZM37.7227 32.6766L38.2335 31.7917L37.2118 31.7917L37.7227 32.6766ZM37.7227 8.99098L37.6342 8.99098L37.6342 31.8802L37.7227 31.8802L37.8111 31.8802L37.8111 8.99098L37.7227 8.99098Z" fill="black"/>
<path d="M39.5106 21.1807V21.4355H38.3591V19.7554H38.6564V21.1807H39.5106ZM40.7217 21.1972V21.4355H39.5937C39.5937 21.3624 39.6055 21.294 39.6244 21.2326C39.6433 21.1713 39.6645 21.1193 39.6881 21.0769C39.7117 21.0344 39.7495 20.9896 39.7967 20.9447C39.8439 20.8999 39.8887 20.8621 39.9265 20.8338C39.9642 20.8055 40.0185 20.7677 40.0869 20.7206C40.0916 20.7182 40.1129 20.704 40.1554 20.6757C40.1978 20.6474 40.2238 20.6309 40.2332 20.6238C40.2427 20.6167 40.2639 20.6002 40.2969 20.5743C40.33 20.5483 40.3512 20.5271 40.3606 20.5105C40.3701 20.4964 40.3842 20.4751 40.4031 20.4468C40.422 20.4209 40.4338 20.3949 40.4409 20.3666C40.4456 20.3383 40.4503 20.31 40.4503 20.2769C40.4503 20.192 40.4244 20.1235 40.3772 20.074C40.33 20.0244 40.2639 19.9985 40.1837 19.9985C40.1365 19.9985 40.094 20.0079 40.061 20.0221C40.0256 20.0362 39.9973 20.0551 39.9784 20.0787C39.9595 20.1023 39.943 20.133 39.9312 20.1707C39.917 20.2085 39.9099 20.2415 39.9052 20.2746C39.9005 20.3076 39.8981 20.3477 39.8981 20.3902H39.6362V20.3477C39.6362 20.1707 39.6858 20.0292 39.7849 19.9253C39.884 19.8215 40.0209 19.7672 40.1908 19.7672C40.3512 19.7672 40.4786 19.8144 40.5777 19.9041C40.6745 19.9938 40.724 20.1141 40.724 20.2628C40.724 20.3241 40.7146 20.3808 40.6957 20.4327C40.6769 20.4869 40.6556 20.5294 40.6344 20.5625C40.6131 20.5955 40.5777 20.6356 40.5258 20.6781C40.4739 20.7229 40.4338 20.7536 40.4102 20.7701C40.3842 20.789 40.3371 20.8197 40.271 20.8645C40.0728 20.9919 39.9548 21.1028 39.917 21.1972H40.7217Z" fill="black"/>
<path d="M40.9567 24.6431H40.6759C40.657 24.4472 40.5366 24.3481 40.3101 24.3481C40.2086 24.3481 40.1308 24.3693 40.0741 24.4118C40.0175 24.4543 39.9892 24.5109 39.9892 24.5817C39.9892 24.6501 40.0081 24.6973 40.0505 24.7209C40.093 24.7469 40.185 24.7776 40.329 24.813C40.3667 24.8248 40.3951 24.8318 40.4163 24.8366C40.6027 24.8838 40.7301 24.9262 40.7986 24.964C40.9472 25.0442 41.0227 25.1693 41.0227 25.3392C41.0227 25.4147 41.0086 25.4808 40.985 25.5398C40.959 25.6011 40.926 25.6507 40.8835 25.6908C40.841 25.7309 40.7891 25.7639 40.7325 25.7899C40.6735 25.8182 40.6122 25.8371 40.5508 25.8489C40.4871 25.8607 40.421 25.8654 40.3549 25.8654C40.1426 25.8654 39.9727 25.8158 39.8429 25.7144C39.7107 25.6153 39.647 25.4666 39.647 25.2707H39.9373C39.9373 25.3934 39.9774 25.4855 40.0576 25.5445C40.1379 25.6035 40.2417 25.6318 40.3715 25.6318C40.4847 25.6318 40.572 25.6105 40.6358 25.5633C40.6995 25.5162 40.7325 25.4524 40.7325 25.3675C40.7325 25.3156 40.7136 25.2707 40.6806 25.2377C40.6475 25.2047 40.6098 25.1787 40.572 25.1646C40.5319 25.1504 40.4635 25.1315 40.3667 25.1056C40.3549 25.1032 40.3455 25.1008 40.3408 25.0985C40.1308 25.0466 39.9939 25.0017 39.9278 24.9663C39.791 24.8956 39.7178 24.787 39.7084 24.6383V24.6053C39.7084 24.4566 39.7627 24.3387 39.8759 24.249C39.9892 24.1593 40.1402 24.1145 40.329 24.1145C40.5107 24.1145 40.6593 24.1593 40.775 24.2443C40.8882 24.3316 40.9496 24.4637 40.9567 24.6431ZM41.9913 24.1664V25.8276H41.7034V24.6855H41.2928V24.4873C41.5783 24.4873 41.7388 24.3811 41.7742 24.1664H41.9913Z" fill="black"/>
<path d="M41.0468 12.054H41.6863C41.802 12.054 41.9034 12.0682 41.9931 12.0918C42.0804 12.1154 42.1606 12.1602 42.2361 12.2263C42.4013 12.3749 42.4839 12.5873 42.4839 12.8658C42.4839 13.1631 42.4037 13.392 42.2479 13.5477C42.1772 13.6185 42.1016 13.6657 42.0214 13.694C41.9412 13.7223 41.835 13.7341 41.7028 13.7341H41.0468V12.054ZM41.3395 12.3041V13.4864H41.6863C41.8704 13.4864 42.0002 13.4344 42.0757 13.3259C42.1512 13.2197 42.189 13.0711 42.189 12.8799C42.189 12.7006 42.1465 12.559 42.0615 12.4575C41.9766 12.3561 41.8444 12.3041 41.6675 12.3041H41.3395ZM43.4624 12.0729V13.7341H43.1746V12.592H42.764V12.3938C43.0495 12.3938 43.21 12.2876 43.2453 12.0729H43.4624Z" fill="black"/>
<path d="M5.27539 8.4895V12.5661L6.75021 14.022V26.6884L5.27539 28.1443V31.2017" stroke="#F7941D" stroke-width="0.176978"/>
<path d="M8.22461 8.4895V12.5661L9.69943 14.022V26.6884L8.22461 28.1443V31.2017" stroke="#F7941D" stroke-width="0.176978"/>
<path d="M11.1758 8.4895V12.5661L12.6506 14.022V26.6884L11.1758 28.1443V31.2017" stroke="#F7941D" stroke-width="0.176978"/>
<path d="M14.125 8.4895V12.5661L15.5998 14.022V26.6884L14.125 28.1443V31.2017" stroke="#F7941D" stroke-width="0.176978"/>
<path d="M17.0742 8.4895V12.5661L18.549 14.022V26.6884L17.0742 28.1443V31.2017" stroke="#F7941D" stroke-width="0.176978"/>
<path d="M20.0234 8.4895V12.5661L21.4983 14.022V26.6884L20.0234 28.1443V31.2017" stroke="#F7941D" stroke-width="0.176978"/>
<path d="M22.9727 8.4895V12.5661L24.4475 14.022V26.6884L22.9727 28.1443V31.2017" stroke="#F7941D" stroke-width="0.176978"/>
<path d="M25.9238 8.4895V12.5661L27.3986 14.022V26.6884L25.9238 28.1443V31.2017" stroke="#F7941D" stroke-width="0.176978"/>
<path d="M28.873 8.4895V12.5661L30.3479 14.022V26.6884L28.873 28.1443V31.2017" stroke="#F7941D" stroke-width="0.176978"/>
<path d="M31.8223 8.4895V12.5661L33.2971 14.022V26.6884L31.8223 28.1443V31.2017" stroke="#F7941D" stroke-width="0.176978"/>
<path d="M2.76953 10.5547H5.86665L7.19399 12.0295H30.4962L31.676 10.5547H35.2156" stroke="#F7941D" stroke-width="0.176978"/>
<path d="M2.76953 13.5044H5.86665L7.19399 14.9792H30.4962L31.676 13.5044H35.2156" stroke="#F7941D" stroke-width="0.176978"/>
<path d="M2.76953 16.4541H5.86665L7.19399 17.9289H30.4962L31.676 16.4541H35.2156" stroke="#F7941D" stroke-width="0.176978"/>
<path d="M2.76953 19.4038H5.86665L7.19399 20.8786H30.4962L31.676 19.4038H35.2156" stroke="#F7941D" stroke-width="0.176978"/>
<path d="M2.76953 22.3533H5.86665L7.19399 23.8281H30.4962L31.676 22.3533H35.2156" stroke="#F7941D" stroke-width="0.176978"/>
<path d="M2.76953 25.303H5.86665L7.19399 26.7778H30.4962L31.676 25.303H35.2156" stroke="#F7941D" stroke-width="0.176978"/>
<path d="M2.76953 28.2527H5.86665L7.19399 29.7275H30.4962L31.676 28.2527H35.2156" stroke="#F7941D" stroke-width="0.176978"/>
</svg>
