<svg width="176" height="136" viewBox="0 0 176 136" fill="none" xmlns="http://www.w3.org/2000/svg">
<path d="M0 16C0 7.16344 7.16344 0 16 0H160C168.837 0 176 7.16344 176 16V120C176 128.837 168.837 136 160 136H16C7.16344 136 0 128.837 0 120V16Z" fill="white"/>
<path d="M16 0.5H160C168.56 0.5 175.5 7.43959 175.5 16V120C175.5 128.56 168.56 135.5 160 135.5H16C7.43959 135.5 0.5 128.56 0.5 120V16C0.5 7.43959 7.43959 0.5 16 0.5Z" stroke="#B02E0C" stroke-opacity="0.16"/>
<path d="M41 108V15.0983C41 14.2567 41.9761 13.7915 42.6298 14.3215L136.826 90.6998C137.06 90.8897 137.196 91.1751 137.196 91.4766V108C137.196 108.552 136.748 109 136.196 109H42C41.4477 109 41 108.552 41 108Z" fill="#F7941D" stroke="#F7941D" stroke-width="2" stroke-linejoin="round"/>
<path d="M33 14L30.1132 19H35.8868L33 14ZM33 110.5L35.8868 105.5H30.1132L33 110.5ZM33 18.5H32.5V106H33H33.5V18.5H33Z" fill="black"/>
<path d="M30.192 58.304V64H29.192V61.44H26.584V64H25.584V58.304H26.584V60.568H29.192V58.304H30.192Z" fill="black"/>
<path d="M86.592 118.304H89.192C89.784 118.304 90.24 118.44 90.56 118.696C90.88 118.952 91.04 119.304 91.04 119.736C91.04 120.008 90.96 120.256 90.816 120.472C90.664 120.688 90.464 120.84 90.224 120.936C90.552 121.016 90.816 121.176 91.008 121.416C91.2 121.656 91.296 121.96 91.296 122.32C91.296 122.824 91.128 123.232 90.792 123.536C90.456 123.848 90.024 124 89.496 124H86.592V118.304ZM87.568 119.112V120.68H88.928C89.312 120.68 89.592 120.624 89.776 120.504C89.952 120.384 90.048 120.184 90.048 119.896C90.048 119.576 89.952 119.368 89.76 119.264C89.568 119.168 89.304 119.112 88.96 119.112H87.568ZM87.568 121.4V123.184H89.064C89.448 123.184 89.744 123.12 89.968 122.992C90.184 122.864 90.296 122.632 90.296 122.296C90.296 122.112 90.256 121.96 90.192 121.832C90.128 121.704 90.032 121.616 89.904 121.552C89.776 121.496 89.648 121.456 89.52 121.432C89.384 121.416 89.224 121.4 89.048 121.4H87.568Z" fill="black"/>
<path d="M40.5 115.5L45.5 118.387V112.613L40.5 115.5ZM137 115.5L132 112.613V118.387L137 115.5ZM45 115.5V116H132.5V115.5V115H45V115.5Z" fill="black"/>
<path d="M153.192 98.304V104H152.192V101.44H149.584V104H148.584V98.304H149.584V100.568H152.192V98.304H153.192ZM157.781 103.192V104H153.957C153.957 103.752 153.997 103.52 154.061 103.312C154.125 103.104 154.197 102.928 154.277 102.784C154.357 102.64 154.485 102.488 154.645 102.336C154.805 102.184 154.957 102.056 155.085 101.96C155.213 101.864 155.397 101.736 155.629 101.576C155.645 101.568 155.717 101.52 155.861 101.424C156.005 101.328 156.093 101.272 156.125 101.248C156.157 101.224 156.229 101.168 156.341 101.08C156.453 100.992 156.525 100.92 156.557 100.864C156.589 100.816 156.637 100.744 156.701 100.648C156.765 100.56 156.805 100.472 156.829 100.376C156.845 100.28 156.861 100.184 156.861 100.072C156.861 99.784 156.773 99.552 156.613 99.384C156.453 99.216 156.229 99.128 155.957 99.128C155.797 99.128 155.653 99.16 155.541 99.208C155.421 99.256 155.325 99.32 155.261 99.4C155.197 99.48 155.141 99.584 155.101 99.712C155.053 99.84 155.029 99.952 155.013 100.064C154.997 100.176 154.989 100.312 154.989 100.456H154.101V100.312C154.101 99.712 154.269 99.232 154.605 98.88C154.941 98.528 155.405 98.344 155.981 98.344C156.525 98.344 156.957 98.504 157.293 98.808C157.621 99.112 157.789 99.52 157.789 100.024C157.789 100.232 157.757 100.424 157.693 100.6C157.629 100.784 157.557 100.928 157.485 101.04C157.413 101.152 157.293 101.288 157.117 101.432C156.941 101.584 156.805 101.688 156.725 101.744C156.637 101.808 156.477 101.912 156.253 102.064C155.581 102.496 155.181 102.872 155.053 103.192H157.781Z" fill="black"/>
<path d="M145 90L142.113 95L147.887 95L145 90ZM145 111L147.887 106L142.113 106L145 111ZM145 94.5L144.5 94.5L144.5 106.5L145 106.5L145.5 106.5L145.5 94.5L145 94.5Z" fill="black"/>
</svg>
