<svg width="58" height="58" viewBox="0 0 58 58" fill="none" xmlns="http://www.w3.org/2000/svg">
<rect width="58" height="58" rx="14" fill="#F3F3F3"/>
<rect x="0.5" y="0.5" width="57" height="57" rx="13.5" stroke="#B02E0C" stroke-opacity="0.04"/>
<path d="M12.5625 45.4243V7.32259C12.5625 6.97978 12.9582 6.78836 13.227 7.00114L20.1855 12.51C20.2432 12.5557 20.2876 12.6161 20.3139 12.6849L22.7148 18.9581C22.7466 19.0412 22.8045 19.1117 22.8799 19.1589L32.1806 24.9916C32.2213 25.0171 32.2572 25.0495 32.2866 25.0875L38.6253 33.2486C38.6536 33.285 38.6879 33.3164 38.7267 33.3414L43.2065 36.2355L47.6698 39.1189C47.7192 39.1508 47.7612 39.193 47.7929 39.2426L51.5993 45.2037C51.7736 45.4766 51.5776 45.8343 51.2538 45.8343H12.9725C12.7461 45.8343 12.5625 45.6507 12.5625 45.4243Z" stroke="#F7941D" stroke-width="0.819983" stroke-linejoin="round"/>
<path d="M9.28125 6.88477L8.09771 8.93472H10.4648L9.28125 6.88477ZM9.28125 46.449L10.4648 44.399H8.09771L9.28125 46.449ZM9.28125 8.72973H9.07625V44.604H9.28125H9.48625V8.72973H9.28125Z" fill="black"/>
<path d="M8.12868 24.5895V26.9248H7.71869V25.8752H6.64943V26.9248H6.23944V24.5895H6.64943V25.5177H7.71869V24.5895H8.12868Z" fill="black"/>
<path d="M31.2583 49.1886H32.3243C32.567 49.1886 32.754 49.2444 32.8852 49.3493C33.0164 49.4543 33.082 49.5986 33.082 49.7757C33.082 49.8872 33.0492 49.9889 32.9901 50.0775C32.9278 50.166 32.8458 50.2284 32.7474 50.2677C32.8819 50.3005 32.9901 50.3661 33.0689 50.4645C33.1476 50.5629 33.1869 50.6875 33.1869 50.8351C33.1869 51.0418 33.1181 51.2091 32.9803 51.3337C32.8425 51.4616 32.6654 51.5239 32.449 51.5239H31.2583V49.1886ZM31.6585 49.5199V50.1628H32.2161C32.3735 50.1628 32.4883 50.1398 32.5638 50.0906C32.6359 50.0414 32.6753 49.9594 32.6753 49.8413C32.6753 49.7101 32.6359 49.6248 32.5572 49.5822C32.4785 49.5428 32.3702 49.5199 32.2292 49.5199H31.6585ZM31.6585 50.4579V51.1894H32.2718C32.4293 51.1894 32.5506 51.1631 32.6425 51.1107C32.731 51.0582 32.7769 50.9631 32.7769 50.8253C32.7769 50.7499 32.7605 50.6875 32.7343 50.6351C32.7081 50.5826 32.6687 50.5465 32.6162 50.5203C32.5638 50.4973 32.5113 50.4809 32.4588 50.4711C32.403 50.4645 32.3374 50.4579 32.2653 50.4579H31.6585Z" fill="black"/>
<path d="M12.3594 48.499L14.4093 49.6826V47.3155L12.3594 48.499ZM51.9236 48.499L49.8736 47.3155V49.6826L51.9236 48.499ZM14.2043 48.499V48.704H50.0786V48.499V48.294H14.2043V48.499Z" fill="black"/>
</svg>
