<svg width="176" height="136" viewBox="0 0 176 136" fill="none" xmlns="http://www.w3.org/2000/svg">
<path d="M0 16C0 7.16344 7.16344 0 16 0H160C168.837 0 176 7.16344 176 16V120C176 128.837 168.837 136 160 136H16C7.16344 136 0 128.837 0 120V16Z" fill="white"/>
<path d="M16 0.5H160C168.56 0.5 175.5 7.43959 175.5 16V120C175.5 128.56 168.56 135.5 160 135.5H16C7.43959 135.5 0.5 128.56 0.5 120V16C0.5 7.43959 7.43959 0.5 16 0.5Z" stroke="#B02E0C" stroke-opacity="0.16"/>
<path d="M73.0693 78.0064L18.3398 59.2007L14 98.2587L53.7814 111.76L73.0693 78.0064Z" fill="#DBDBDB" stroke="black" stroke-width="0.289319"/>
<path d="M162.999 42.0825L73.0692 78.0063L53.7812 111.76L142.265 76.5597L162.999 42.0825Z" fill="#DBDBDB" stroke="black" stroke-width="0.289319"/>
<path d="M108.266 24L18.3359 59.2005L73.0654 78.0062L162.995 42.0824L108.266 24Z" stroke="black" stroke-width="0.289319"/>
<path d="M103.203 62.817L68.2435 76.3185L18.3359 59.2005L108.266 24L103.203 62.817Z" stroke="black" stroke-width="0.289319"/>
<path opacity="0.2" d="M68.2473 76.3184L14 98.2584" stroke="black" stroke-width="0.289319"/>
<path d="M103.203 62.817L108.266 24L162.996 42.0824L107.302 64.2636L103.203 62.817Z" stroke="black" stroke-width="0.289319"/>
<path opacity="0.2" d="M103.203 62.8169L142.261 76.5595" stroke="black" stroke-width="0.289319"/>
</svg>
