<svg width="58" height="58" viewBox="0 0 58 58" fill="none" xmlns="http://www.w3.org/2000/svg">
<rect width="58" height="58" rx="14" fill="#F3F3F3"/>
<rect x="0.5" y="0.5" width="57" height="57" rx="13.5" stroke="#B02E0C" stroke-opacity="0.04"/>
<path d="M24.0292 32.2619L6.39807 26.2036L5 38.7862L17.8156 43.1357L24.0292 32.2619Z" fill="#D3D3D3" stroke="black" stroke-width="0.0932044"/>
<path d="M52.9972 20.689L24.0261 32.2618L17.8125 43.1357L46.3175 31.7958L52.9972 20.689Z" fill="#D3D3D3" stroke="black" stroke-width="0.0932044"/>
<path d="M35.3695 14.8643L6.39844 26.2041L24.0296 32.2624L53.0006 20.6895L35.3695 14.8643Z" stroke="black" stroke-width="0.0932044"/>
<path d="M33.7384 27.3692L22.4762 31.7187L6.39844 26.2041L35.3695 14.8643L33.7384 27.3692Z" stroke="black" stroke-width="0.0932044"/>
<path opacity="0.2" d="M22.4758 31.7183L5 38.7863" stroke="black" stroke-width="0.0932044"/>
<path d="M33.7344 27.3692L35.3655 14.8643L52.9966 20.6895L35.0548 27.8352L33.7344 27.3692Z" stroke="black" stroke-width="0.0932044"/>
<path opacity="0.2" d="M33.7344 27.3687L46.317 31.7959" stroke="black" stroke-width="0.0932044"/>
</svg>
