<svg width="176" height="136" viewBox="0 0 176 136" fill="none" xmlns="http://www.w3.org/2000/svg">
<path d="M0 16C0 7.16344 7.16344 0 16 0H160C168.837 0 176 7.16344 176 16V120C176 128.837 168.837 136 160 136H16C7.16344 136 0 128.837 0 120V16Z" fill="white"/>
<path d="M16 0.5H160C168.56 0.5 175.5 7.43959 175.5 16V120C175.5 128.56 168.56 135.5 160 135.5H16C7.43959 135.5 0.5 128.56 0.5 120V16C0.5 7.43959 7.43959 0.5 16 0.5Z" stroke="#B02E0C" stroke-opacity="0.16"/>
<path d="M48 108V15.0671C48 14.231 48.9651 13.7641 49.6207 14.2831L66.593 27.7195C66.7338 27.831 66.842 27.9783 66.9062 28.1461L72.7622 43.447C72.8397 43.6496 72.981 43.8215 73.1648 43.9368L95.8501 58.1631C95.9493 58.2253 96.0367 58.3044 96.1086 58.3969L111.569 78.3024C111.638 78.3913 111.722 78.4679 111.816 78.529L122.743 85.5878L133.629 92.6206C133.75 92.6985 133.852 92.8014 133.929 92.9224L143.214 107.462C143.639 108.127 143.161 109 142.371 109H49C48.4477 109 48 108.552 48 108Z" stroke="#F7941D" stroke-width="2" stroke-linejoin="round"/>
<path d="M40 14L37.1132 19H42.8868L40 14ZM40 110.5L42.8868 105.5H37.1132L40 110.5ZM40 18.5H39.5V106H40H40.5V18.5H40Z" fill="black"/>
<path d="M37.192 58.304V64H36.192V61.44H33.584V64H32.584V58.304H33.584V60.568H36.192V58.304H37.192Z" fill="black"/>
<path d="M93.592 118.304H96.192C96.784 118.304 97.24 118.44 97.56 118.696C97.88 118.952 98.04 119.304 98.04 119.736C98.04 120.008 97.96 120.256 97.816 120.472C97.664 120.688 97.464 120.84 97.224 120.936C97.552 121.016 97.816 121.176 98.008 121.416C98.2 121.656 98.296 121.96 98.296 122.32C98.296 122.824 98.128 123.232 97.792 123.536C97.456 123.848 97.024 124 96.496 124H93.592V118.304ZM94.568 119.112V120.68H95.928C96.312 120.68 96.592 120.624 96.776 120.504C96.952 120.384 97.048 120.184 97.048 119.896C97.048 119.576 96.952 119.368 96.76 119.264C96.568 119.168 96.304 119.112 95.96 119.112H94.568ZM94.568 121.4V123.184H96.064C96.448 123.184 96.744 123.12 96.968 122.992C97.184 122.864 97.296 122.632 97.296 122.296C97.296 122.112 97.256 121.96 97.192 121.832C97.128 121.704 97.032 121.616 96.904 121.552C96.776 121.496 96.648 121.456 96.52 121.432C96.384 121.416 96.224 121.4 96.048 121.4H94.568Z" fill="black"/>
<path d="M47.5 115.5L52.5 118.387V112.613L47.5 115.5ZM144 115.5L139 112.613V118.387L144 115.5ZM52 115.5V116H139.5V115.5V115H52V115.5Z" fill="black"/>
</svg>
