<svg width="58" height="58" viewBox="0 0 58 58" fill="none" xmlns="http://www.w3.org/2000/svg">
<rect width="58" height="58" rx="14" fill="#F3F3F3"/>
<rect x="0.5" y="0.5" width="57" height="57" rx="13.5" stroke="#B02E0C" stroke-opacity="0.04"/>
<path d="M9.30469 44.5333V8.39245C9.30469 8.06506 9.68442 7.88408 9.93872 8.09027L46.583 37.8031C46.6741 37.877 46.727 37.988 46.727 38.1053V44.5333C46.727 44.7481 46.5528 44.9223 46.338 44.9223H9.69371C9.47886 44.9223 9.30469 44.7481 9.30469 44.5333Z" fill="#F7941D" stroke="#F7941D" stroke-width="0.778044" stroke-linejoin="round"/>
<path d="M6.1875 7.96582L5.06449 9.91093H7.31051L6.1875 7.96582ZM6.1875 45.5064L7.31051 43.5613H5.06449L6.1875 45.5064ZM6.1875 9.71642H5.99299V43.7558H6.1875H6.38201V9.71642H6.1875Z" fill="black"/>
<path d="M5.09793 24.8667V27.0825H4.70891V26.0866H3.69434V27.0825H3.30531V24.8667H3.69434V25.7474H4.70891V24.8667H5.09793Z" fill="black"/>
<path d="M27.035 48.208H28.0464C28.2767 48.208 28.4541 48.2609 28.5786 48.3605C28.7031 48.46 28.7654 48.597 28.7654 48.765C28.7654 48.8709 28.7342 48.9673 28.6782 49.0514C28.6191 49.1354 28.5413 49.1945 28.4479 49.2319C28.5755 49.263 28.6782 49.3252 28.7529 49.4186C28.8276 49.512 28.8649 49.6302 28.8649 49.7703C28.8649 49.9663 28.7996 50.1251 28.6689 50.2433C28.5382 50.3647 28.3701 50.4238 28.1647 50.4238H27.035V48.208ZM27.4147 48.5223V49.1323H27.9437C28.0931 49.1323 28.2021 49.1105 28.2736 49.0638C28.3421 49.0171 28.3794 48.9393 28.3794 48.8273C28.3794 48.7028 28.3421 48.6219 28.2674 48.5814C28.1927 48.5441 28.09 48.5223 27.9562 48.5223H27.4147ZM27.4147 49.4124V50.1064H27.9967C28.146 50.1064 28.2612 50.0815 28.3483 50.0317C28.4324 49.9819 28.4759 49.8916 28.4759 49.7609C28.4759 49.6894 28.4604 49.6302 28.4355 49.5804C28.4106 49.5306 28.3732 49.4964 28.3234 49.4715C28.2736 49.4497 28.2238 49.4342 28.174 49.4248C28.1211 49.4186 28.0589 49.4124 27.9904 49.4124H27.4147Z" fill="black"/>
<path d="M9.10938 47.4512L11.0545 48.5742V46.3282L9.10938 47.4512ZM46.65 47.4512L44.7049 46.3282V48.5742L46.65 47.4512ZM10.86 47.4512V47.6457H44.8994V47.4512V47.2567H10.86V47.4512Z" fill="black"/>
<path d="M52.9495 40.4262V42.6421H52.5605V41.6462H51.5459V42.6421H51.1569V40.4262H51.5459V41.307H52.5605V40.4262H52.9495ZM54.7349 42.3278V42.6421H53.2473C53.2473 42.5456 53.2628 42.4554 53.2877 42.3744C53.3126 42.2935 53.3406 42.2251 53.3717 42.169C53.4029 42.113 53.4527 42.0539 53.5149 41.9948C53.5772 41.9356 53.6363 41.8858 53.6861 41.8485C53.7359 41.8111 53.8075 41.7613 53.8977 41.6991C53.9039 41.696 53.9319 41.6773 53.988 41.64C54.044 41.6026 54.0782 41.5808 54.0907 41.5715C54.1031 41.5622 54.1311 41.5404 54.1747 41.5061C54.2183 41.4719 54.2463 41.4439 54.2587 41.4221C54.2712 41.4034 54.2898 41.3754 54.3147 41.3381C54.3396 41.3039 54.3552 41.2696 54.3645 41.2323C54.3708 41.1949 54.377 41.1576 54.377 41.114C54.377 41.002 54.3427 40.9117 54.2805 40.8464C54.2183 40.781 54.1311 40.7468 54.0253 40.7468C53.9631 40.7468 53.907 40.7592 53.8635 40.7779C53.8168 40.7966 53.7794 40.8215 53.7545 40.8526C53.7296 40.8837 53.7079 40.9242 53.6923 40.974C53.6736 41.0238 53.6643 41.0673 53.6581 41.1109C53.6518 41.1545 53.6487 41.2074 53.6487 41.2634H53.3033V41.2074C53.3033 40.974 53.3686 40.7872 53.4993 40.6503C53.6301 40.5134 53.8106 40.4418 54.0346 40.4418C54.2463 40.4418 54.4143 40.504 54.545 40.6223C54.6726 40.7406 54.738 40.8993 54.738 41.0953C54.738 41.1763 54.7255 41.2509 54.7006 41.3194C54.6758 41.391 54.6477 41.447 54.6197 41.4906C54.5917 41.5342 54.545 41.5871 54.4766 41.6431C54.4081 41.7022 54.3552 41.7427 54.3241 41.7645C54.2898 41.7894 54.2276 41.8298 54.1405 41.8889C53.879 42.057 53.7234 42.2033 53.6736 42.3278H54.7349Z" fill="black"/>
<path d="M49.7578 37.5303L48.6348 39.4754L50.8808 39.4754L49.7578 37.5303ZM49.7578 45.6997L50.8808 43.7546L48.6348 43.7546L49.7578 45.6997ZM49.7578 39.2809L49.5633 39.2809L49.5633 43.9491L49.7578 43.9491L49.9523 43.9491L49.9523 39.2809L49.7578 39.2809Z" fill="black"/>
</svg>
