<svg width="176" height="136" viewBox="0 0 176 136" fill="none" xmlns="http://www.w3.org/2000/svg">
<path d="M0 16C0 7.16344 7.16344 0 16 0H160C168.837 0 176 7.16344 176 16V120C176 128.837 168.837 136 160 136H16C7.16344 136 0 128.837 0 120V16Z" fill="white"/>
<path d="M16 0.5H160C168.56 0.5 175.5 7.43959 175.5 16V120C175.5 128.56 168.56 135.5 160 135.5H16C7.43959 135.5 0.5 128.56 0.5 120V16C0.5 7.43959 7.43959 0.5 16 0.5Z" stroke="#B02E0C" stroke-opacity="0.16"/>
<rect x="24.5" y="22.5" width="114" height="82" stroke="black"/>
<rect x="28.5" y="26.5" width="106" height="74" stroke="black"/>
<path d="M53 90L55 91.1547V88.8453L53 90ZM63 90L61 88.8453V91.1547L63 90ZM54.8 90V90.2H61.2V90V89.8H54.8V90Z" fill="black"/>
<path d="M58 91L58 117" stroke="black" stroke-width="0.6"/>
<path d="M120 73L118.845 75L121.155 75L120 73ZM120 83L121.155 81L118.845 81L120 83ZM120 74.8L119.8 74.8L119.8 81.2L120 81.2L120.2 81.2L120.2 74.8L120 74.8Z" fill="black"/>
<path d="M122 78.5H147.5" stroke="black" stroke-width="0.6"/>
<path d="M125.5 30L130 37.8301H152" stroke="black" stroke-width="0.6"/>
<path d="M24 109L27 110.732L27 107.268L24 109ZM140 109L137 107.268L137 110.732L140 109ZM26.7 109L26.7 109.3L137.3 109.3L137.3 109L137.3 108.7L26.7 108.7L26.7 109Z" fill="black"/>
<path d="M81.9765 116.136V117H78.0725V111.304H79.0805V116.136H81.9765ZM85.0902 111.368V117H84.1142V113.128H82.7222V112.456C83.6902 112.456 84.2342 112.096 84.3542 111.368H85.0902Z" fill="black"/>
<path d="M57.8796 120.984H56.9276C56.8636 120.32 56.4556 119.984 55.6876 119.984C55.3436 119.984 55.0796 120.056 54.8876 120.2C54.6956 120.344 54.5996 120.536 54.5996 120.776C54.5996 121.008 54.6636 121.168 54.8076 121.248C54.9516 121.336 55.2636 121.44 55.7516 121.56C55.8796 121.6 55.9756 121.624 56.0476 121.64C56.6796 121.8 57.1116 121.944 57.3436 122.072C57.8476 122.344 58.1036 122.768 58.1036 123.344C58.1036 123.6 58.0556 123.824 57.9756 124.024C57.8876 124.232 57.7756 124.4 57.6316 124.536C57.4876 124.672 57.3116 124.784 57.1196 124.872C56.9196 124.968 56.7116 125.032 56.5036 125.072C56.2876 125.112 56.0636 125.128 55.8396 125.128C55.1196 125.128 54.5436 124.96 54.1036 124.616C53.6556 124.28 53.4396 123.776 53.4396 123.112H54.4236C54.4236 123.528 54.5596 123.84 54.8316 124.04C55.1036 124.24 55.4556 124.336 55.8956 124.336C56.2796 124.336 56.5756 124.264 56.7916 124.104C57.0076 123.944 57.1196 123.728 57.1196 123.44C57.1196 123.264 57.0556 123.112 56.9436 123C56.8316 122.888 56.7036 122.8 56.5756 122.752C56.4396 122.704 56.2076 122.64 55.8796 122.552C55.8396 122.544 55.8076 122.536 55.7916 122.528C55.0796 122.352 54.6156 122.2 54.3916 122.08C53.9276 121.84 53.6796 121.472 53.6476 120.968V120.856C53.6476 120.352 53.8316 119.952 54.2156 119.648C54.5996 119.344 55.1116 119.192 55.7516 119.192C56.3676 119.192 56.8716 119.344 57.2636 119.632C57.6476 119.928 57.8556 120.376 57.8796 120.984ZM62.3791 124.192V125H58.5551C58.5551 124.752 58.5951 124.52 58.6591 124.312C58.7231 124.104 58.7951 123.928 58.8751 123.784C58.9551 123.64 59.0831 123.488 59.2431 123.336C59.4031 123.184 59.5551 123.056 59.6831 122.96C59.8111 122.864 59.9951 122.736 60.2271 122.576C60.2431 122.568 60.3151 122.52 60.4591 122.424C60.6031 122.328 60.6911 122.272 60.7231 122.248C60.7551 122.224 60.8271 122.168 60.9391 122.08C61.0511 121.992 61.1231 121.92 61.1551 121.864C61.1871 121.816 61.2351 121.744 61.2991 121.648C61.3631 121.56 61.4031 121.472 61.4271 121.376C61.4431 121.28 61.4591 121.184 61.4591 121.072C61.4591 120.784 61.3711 120.552 61.2111 120.384C61.0511 120.216 60.8271 120.128 60.5551 120.128C60.3951 120.128 60.2511 120.16 60.1391 120.208C60.0191 120.256 59.9231 120.32 59.8591 120.4C59.7951 120.48 59.7391 120.584 59.6991 120.712C59.6511 120.84 59.6271 120.952 59.6111 121.064C59.5951 121.176 59.5871 121.312 59.5871 121.456H58.6991V121.312C58.6991 120.712 58.8671 120.232 59.2031 119.88C59.5391 119.528 60.0031 119.344 60.5791 119.344C61.1231 119.344 61.5551 119.504 61.8911 119.808C62.2191 120.112 62.3871 120.52 62.3871 121.024C62.3871 121.232 62.3551 121.424 62.2911 121.6C62.2271 121.784 62.1551 121.928 62.0831 122.04C62.0111 122.152 61.8911 122.288 61.7151 122.432C61.5391 122.584 61.4031 122.688 61.3231 122.744C61.2351 122.808 61.0751 122.912 60.8511 123.064C60.1791 123.496 59.7791 123.872 59.6511 124.192H62.3791Z" fill="black"/>
<path d="M115.991 116.304H118.159C118.551 116.304 118.895 116.352 119.199 116.432C119.495 116.512 119.767 116.664 120.023 116.888C120.583 117.392 120.863 118.112 120.863 119.056C120.863 120.064 120.591 120.84 120.063 121.368C119.823 121.608 119.567 121.768 119.295 121.864C119.023 121.96 118.663 122 118.215 122H115.991V116.304ZM116.983 117.152V121.16H118.159C118.783 121.16 119.223 120.984 119.479 120.616C119.735 120.256 119.863 119.752 119.863 119.104C119.863 118.496 119.719 118.016 119.431 117.672C119.143 117.328 118.695 117.152 118.095 117.152H116.983ZM125.172 121.192V122H121.348C121.348 121.752 121.388 121.52 121.452 121.312C121.516 121.104 121.588 120.928 121.668 120.784C121.748 120.64 121.876 120.488 122.036 120.336C122.196 120.184 122.348 120.056 122.476 119.96C122.604 119.864 122.788 119.736 123.02 119.576C123.036 119.568 123.108 119.52 123.252 119.424C123.396 119.328 123.484 119.272 123.516 119.248C123.548 119.224 123.62 119.168 123.732 119.08C123.844 118.992 123.916 118.92 123.948 118.864C123.98 118.816 124.028 118.744 124.092 118.648C124.156 118.56 124.196 118.472 124.22 118.376C124.236 118.28 124.252 118.184 124.252 118.072C124.252 117.784 124.164 117.552 124.004 117.384C123.844 117.216 123.62 117.128 123.348 117.128C123.188 117.128 123.044 117.16 122.932 117.208C122.812 117.256 122.716 117.32 122.652 117.4C122.588 117.48 122.532 117.584 122.492 117.712C122.444 117.84 122.42 117.952 122.404 118.064C122.388 118.176 122.38 118.312 122.38 118.456H121.492V118.312C121.492 117.712 121.66 117.232 121.996 116.88C122.332 116.528 122.796 116.344 123.372 116.344C123.916 116.344 124.348 116.504 124.684 116.808C125.012 117.112 125.18 117.52 125.18 118.024C125.18 118.232 125.148 118.424 125.084 118.6C125.02 118.784 124.948 118.928 124.876 119.04C124.804 119.152 124.684 119.288 124.508 119.432C124.332 119.584 124.196 119.688 124.116 119.744C124.028 119.808 123.868 119.912 123.644 120.064C122.972 120.496 122.572 120.872 122.444 121.192H125.172Z" fill="black"/>
<path d="M93.5 96L107 119.383H114.5" stroke="black" stroke-width="0.6"/>
<path d="M143 22L141.268 25L144.732 25L143 22ZM143 105L144.732 102L141.268 102L143 105ZM143 24.7L142.7 24.7L142.7 102.3L143 102.3L143.3 102.3L143.3 24.7L143 24.7Z" fill="black"/>
<path d="M148.976 65.636V66.5H145.072V60.804H146.08V65.636H148.976ZM153.082 65.692V66.5H149.258C149.258 66.252 149.298 66.02 149.362 65.812C149.426 65.604 149.498 65.428 149.578 65.284C149.658 65.14 149.786 64.988 149.946 64.836C150.106 64.684 150.258 64.556 150.386 64.46C150.514 64.364 150.698 64.236 150.93 64.076C150.946 64.068 151.018 64.02 151.162 63.924C151.306 63.828 151.394 63.772 151.426 63.748C151.458 63.724 151.53 63.668 151.642 63.58C151.754 63.492 151.826 63.42 151.858 63.364C151.89 63.316 151.938 63.244 152.002 63.148C152.066 63.06 152.106 62.972 152.13 62.876C152.146 62.78 152.162 62.684 152.162 62.572C152.162 62.284 152.074 62.052 151.914 61.884C151.754 61.716 151.53 61.628 151.258 61.628C151.098 61.628 150.954 61.66 150.842 61.708C150.722 61.756 150.626 61.82 150.562 61.9C150.498 61.98 150.442 62.084 150.402 62.212C150.354 62.34 150.33 62.452 150.314 62.564C150.298 62.676 150.29 62.812 150.29 62.956H149.402V62.812C149.402 62.212 149.57 61.732 149.906 61.38C150.242 61.028 150.706 60.844 151.282 60.844C151.826 60.844 152.258 61.004 152.594 61.308C152.922 61.612 153.09 62.02 153.09 62.524C153.09 62.732 153.058 62.924 152.994 63.1C152.93 63.284 152.858 63.428 152.786 63.54C152.714 63.652 152.594 63.788 152.418 63.932C152.242 64.084 152.106 64.188 152.026 64.244C151.938 64.308 151.778 64.412 151.554 64.564C150.882 64.996 150.482 65.372 150.354 65.692H153.082Z" fill="black"/>
<path d="M153.88 76.984H152.928C152.864 76.32 152.456 75.984 151.688 75.984C151.344 75.984 151.08 76.056 150.888 76.2C150.696 76.344 150.6 76.536 150.6 76.776C150.6 77.008 150.664 77.168 150.808 77.248C150.952 77.336 151.264 77.44 151.752 77.56C151.88 77.6 151.976 77.624 152.048 77.64C152.68 77.8 153.112 77.944 153.344 78.072C153.848 78.344 154.104 78.768 154.104 79.344C154.104 79.6 154.056 79.824 153.976 80.024C153.888 80.232 153.776 80.4 153.632 80.536C153.488 80.672 153.312 80.784 153.12 80.872C152.92 80.968 152.712 81.032 152.504 81.072C152.288 81.112 152.064 81.128 151.84 81.128C151.12 81.128 150.544 80.96 150.104 80.616C149.656 80.28 149.44 79.776 149.44 79.112H150.424C150.424 79.528 150.56 79.84 150.832 80.04C151.104 80.24 151.456 80.336 151.896 80.336C152.28 80.336 152.576 80.264 152.792 80.104C153.008 79.944 153.12 79.728 153.12 79.44C153.12 79.264 153.056 79.112 152.944 79C152.832 78.888 152.704 78.8 152.576 78.752C152.44 78.704 152.208 78.64 151.88 78.552C151.84 78.544 151.808 78.536 151.792 78.528C151.08 78.352 150.616 78.2 150.392 78.08C149.928 77.84 149.68 77.472 149.648 76.968V76.856C149.648 76.352 149.832 75.952 150.216 75.648C150.6 75.344 151.112 75.192 151.752 75.192C152.368 75.192 152.872 75.344 153.264 75.632C153.648 75.928 153.856 76.376 153.88 76.984ZM157.387 75.368V81H156.411V77.128H155.019V76.456C155.987 76.456 156.531 76.096 156.651 75.368H157.387Z" fill="black"/>
<path d="M152.991 34.304H155.159C155.551 34.304 155.895 34.352 156.199 34.432C156.495 34.512 156.767 34.664 157.023 34.888C157.583 35.392 157.863 36.112 157.863 37.056C157.863 38.064 157.591 38.84 157.063 39.368C156.823 39.608 156.567 39.768 156.295 39.864C156.023 39.96 155.663 40 155.215 40H152.991V34.304ZM153.983 35.152V39.16H155.159C155.783 39.16 156.223 38.984 156.479 38.616C156.735 38.256 156.863 37.752 156.863 37.104C156.863 36.496 156.719 36.016 156.431 35.672C156.143 35.328 155.695 35.152 155.095 35.152H153.983ZM161.18 34.368V40H160.204V36.128H158.812V35.456C159.78 35.456 160.324 35.096 160.444 34.368H161.18Z" fill="black"/>
<path d="M33 23V36.8205L38 41.7564V84.6987L33 89.6346V100" stroke="#F7941D" stroke-width="0.6"/>
<path d="M43 23V36.8205L48 41.7564V84.6987L43 89.6346V100" stroke="#F7941D" stroke-width="0.6"/>
<path d="M53 23V36.8205L58 41.7564V84.6987L53 89.6346V100" stroke="#F7941D" stroke-width="0.6"/>
<path d="M63 23V36.8205L68 41.7564V84.6987L63 89.6346V100" stroke="#F7941D" stroke-width="0.6"/>
<path d="M73 23V36.8205L78 41.7564V84.6987L73 89.6346V100" stroke="#F7941D" stroke-width="0.6"/>
<path d="M83 23V36.8205L88 41.7564V84.6987L83 89.6346V100" stroke="#F7941D" stroke-width="0.6"/>
<path d="M93 23V36.8205L98 41.7564V84.6987L93 89.6346V100" stroke="#F7941D" stroke-width="0.6"/>
<path d="M103 23V36.8205L108 41.7564V84.6987L103 89.6346V100" stroke="#F7941D" stroke-width="0.6"/>
<path d="M113 23V36.8205L118 41.7564V84.6987L113 89.6346V100" stroke="#F7941D" stroke-width="0.6"/>
<path d="M123 23V36.8205L128 41.7564V84.6987L123 89.6346V100" stroke="#F7941D" stroke-width="0.6"/>
<path d="M24.5 30H35L39.5 35H118.5L122.5 30H134.5" stroke="#F7941D" stroke-width="0.6"/>
<path d="M24.5 40H35L39.5 45H118.5L122.5 40H134.5" stroke="#F7941D" stroke-width="0.6"/>
<path d="M24.5 50H35L39.5 55H118.5L122.5 50H134.5" stroke="#F7941D" stroke-width="0.6"/>
<path d="M24.5 60H35L39.5 65H118.5L122.5 60H134.5" stroke="#F7941D" stroke-width="0.6"/>
<path d="M24.5 70H35L39.5 75H118.5L122.5 70H134.5" stroke="#F7941D" stroke-width="0.6"/>
<path d="M24.5 80H35L39.5 85H118.5L122.5 80H134.5" stroke="#F7941D" stroke-width="0.6"/>
<path d="M24.5 90H35L39.5 95H118.5L122.5 90H134.5" stroke="#F7941D" stroke-width="0.6"/>
</svg>
