<svg width="176" height="136" viewBox="0 0 176 136" fill="none" xmlns="http://www.w3.org/2000/svg">
<path d="M0 16C0 7.16344 7.16344 0 16 0H160C168.837 0 176 7.16344 176 16V120C176 128.837 168.837 136 160 136H16C7.16344 136 0 128.837 0 120V16Z" fill="white"/>
<path d="M16 0.5H160C168.56 0.5 175.5 7.43959 175.5 16V120C175.5 128.56 168.56 135.5 160 135.5H16C7.43959 135.5 0.5 128.56 0.5 120V16C0.5 7.43959 7.43959 0.5 16 0.5Z" stroke="#B02E0C" stroke-opacity="0.16"/>
<rect x="31.5" y="27.5" width="114" height="82" stroke="black"/>
<rect x="35.5" y="31.5" width="106" height="74" stroke="black"/>
<path d="M42 27V109.5" stroke="#F7941D"/>
<path d="M52 27V109.5" stroke="#F7941D"/>
<path d="M62 27V109.5" stroke="#F7941D"/>
<path d="M72 27V109.5" stroke="#F7941D"/>
<path d="M82 27V109.5" stroke="#F7941D"/>
<path d="M92 27V109.5" stroke="#F7941D"/>
<path d="M102 27V109.5" stroke="#F7941D"/>
<path d="M112 27V109.5" stroke="#F7941D"/>
<path d="M122 27V109.5" stroke="#F7941D"/>
<path d="M132 27V109.5" stroke="#F7941D"/>
<path d="M32 38L145 38" stroke="#F7941D"/>
<path d="M32 48L145 48" stroke="#F7941D"/>
<path d="M32 58L145 58" stroke="#F7941D"/>
<path d="M32 68L145 68" stroke="#F7941D"/>
<path d="M32 78L145 78" stroke="#F7941D"/>
<path d="M32 88L145 88" stroke="#F7941D"/>
<path d="M32 98L145 98" stroke="#F7941D"/>
<path d="M72.5 94L74.5 95.1547V92.8453L72.5 94ZM81.5 94L79.5 92.8453V95.1547L81.5 94ZM74.3 94V94.2H79.7V94V93.8H74.3V94Z" fill="black"/>
<path d="M127 68L125.845 70L128.155 70L127 68ZM127 78L128.155 76L125.845 76L127 78ZM127 69.8L126.8 69.8L126.8 76.2L127 76.2L127.2 76.2L127.2 69.8L127 69.8Z" fill="black"/>
<path d="M31 114L34 115.732L34 112.268L31 114ZM147 114L144 112.268L144 115.732L147 114ZM33.7 114L33.7 114.3L144.3 114.3L144.3 114L144.3 113.7L33.7 113.7L33.7 114Z" fill="black"/>
<path d="M88.9765 121.136V122H85.0725V116.304H86.0805V121.136H88.9765ZM92.0902 116.368V122H91.1142V118.128H89.7222V117.456C90.6902 117.456 91.2342 117.096 91.3542 116.368H92.0902Z" fill="black"/>
<path d="M56.8796 119.984H55.9276C55.8636 119.32 55.4556 118.984 54.6876 118.984C54.3436 118.984 54.0796 119.056 53.8876 119.2C53.6956 119.344 53.5996 119.536 53.5996 119.776C53.5996 120.008 53.6636 120.168 53.8076 120.248C53.9516 120.336 54.2636 120.44 54.7516 120.56C54.8796 120.6 54.9756 120.624 55.0476 120.64C55.6796 120.8 56.1116 120.944 56.3436 121.072C56.8476 121.344 57.1036 121.768 57.1036 122.344C57.1036 122.6 57.0556 122.824 56.9756 123.024C56.8876 123.232 56.7756 123.4 56.6316 123.536C56.4876 123.672 56.3116 123.784 56.1196 123.872C55.9196 123.968 55.7116 124.032 55.5036 124.072C55.2876 124.112 55.0636 124.128 54.8396 124.128C54.1196 124.128 53.5436 123.96 53.1036 123.616C52.6556 123.28 52.4396 122.776 52.4396 122.112H53.4236C53.4236 122.528 53.5596 122.84 53.8316 123.04C54.1036 123.24 54.4556 123.336 54.8956 123.336C55.2796 123.336 55.5756 123.264 55.7916 123.104C56.0076 122.944 56.1196 122.728 56.1196 122.44C56.1196 122.264 56.0556 122.112 55.9436 122C55.8316 121.888 55.7036 121.8 55.5756 121.752C55.4396 121.704 55.2076 121.64 54.8796 121.552C54.8396 121.544 54.8076 121.536 54.7916 121.528C54.0796 121.352 53.6156 121.2 53.3916 121.08C52.9276 120.84 52.6796 120.472 52.6476 119.968V119.856C52.6476 119.352 52.8316 118.952 53.2156 118.648C53.5996 118.344 54.1116 118.192 54.7516 118.192C55.3676 118.192 55.8716 118.344 56.2636 118.632C56.6476 118.928 56.8556 119.376 56.8796 119.984ZM60.3871 118.368V124H59.4111V120.128H58.0191V119.456C58.9871 119.456 59.5311 119.096 59.6511 118.368H60.3871Z" fill="black"/>
<path d="M27.9906 121.304H30.1586C30.5506 121.304 30.8946 121.352 31.1986 121.432C31.4946 121.512 31.7666 121.664 32.0226 121.888C32.5826 122.392 32.8626 123.112 32.8626 124.056C32.8626 125.064 32.5906 125.84 32.0626 126.368C31.8226 126.608 31.5666 126.768 31.2946 126.864C31.0226 126.96 30.6626 127 30.2146 127H27.9906V121.304ZM28.9826 122.152V126.16H30.1586C30.7826 126.16 31.2226 125.984 31.4786 125.616C31.7346 125.256 31.8626 124.752 31.8626 124.104C31.8626 123.496 31.7186 123.016 31.4306 122.672C31.1426 122.328 30.6946 122.152 30.0946 122.152H28.9826ZM36.1801 121.368V127H35.2041V123.128H33.8121V122.456C34.7801 122.456 35.3241 122.096 35.4441 121.368H36.1801Z" fill="black"/>
<path d="M150 27L148.268 30L151.732 30L150 27ZM150 110L151.732 107L148.268 107L150 110ZM150 29.7L149.7 29.7L149.7 107.3L150 107.3L150.3 107.3L150.3 29.7L150 29.7Z" fill="black"/>
<path d="M155.976 70.636V71.5H152.072V65.804H153.08V70.636H155.976ZM160.082 70.692V71.5H156.258C156.258 71.252 156.298 71.02 156.362 70.812C156.426 70.604 156.498 70.428 156.578 70.284C156.658 70.14 156.786 69.988 156.946 69.836C157.106 69.684 157.258 69.556 157.386 69.46C157.514 69.364 157.698 69.236 157.93 69.076C157.946 69.068 158.018 69.02 158.162 68.924C158.306 68.828 158.394 68.772 158.426 68.748C158.458 68.724 158.53 68.668 158.642 68.58C158.754 68.492 158.826 68.42 158.858 68.364C158.89 68.316 158.938 68.244 159.002 68.148C159.066 68.06 159.106 67.972 159.13 67.876C159.146 67.78 159.162 67.684 159.162 67.572C159.162 67.284 159.074 67.052 158.914 66.884C158.754 66.716 158.53 66.628 158.258 66.628C158.098 66.628 157.954 66.66 157.842 66.708C157.722 66.756 157.626 66.82 157.562 66.9C157.498 66.98 157.442 67.084 157.402 67.212C157.354 67.34 157.33 67.452 157.314 67.564C157.298 67.676 157.29 67.812 157.29 67.956H156.402V67.812C156.402 67.212 156.57 66.732 156.906 66.38C157.242 66.028 157.706 65.844 158.282 65.844C158.826 65.844 159.258 66.004 159.594 66.308C159.922 66.612 160.09 67.02 160.09 67.524C160.09 67.732 160.058 67.924 159.994 68.1C159.93 68.284 159.858 68.428 159.786 68.54C159.714 68.652 159.594 68.788 159.418 68.932C159.242 69.084 159.106 69.188 159.026 69.244C158.938 69.308 158.778 69.412 158.554 69.564C157.882 69.996 157.482 70.372 157.354 70.692H160.082Z" fill="black"/>
<path d="M155.991 51.304H158.159C158.551 51.304 158.895 51.352 159.199 51.432C159.495 51.512 159.767 51.664 160.023 51.888C160.583 52.392 160.863 53.112 160.863 54.056C160.863 55.064 160.591 55.84 160.063 56.368C159.823 56.608 159.567 56.768 159.295 56.864C159.023 56.96 158.663 57 158.215 57H155.991V51.304ZM156.983 52.152V56.16H158.159C158.783 56.16 159.223 55.984 159.479 55.616C159.735 55.256 159.863 54.752 159.863 54.104C159.863 53.496 159.719 53.016 159.431 52.672C159.143 52.328 158.695 52.152 158.095 52.152H156.983ZM165.172 56.192V57H161.348C161.348 56.752 161.388 56.52 161.452 56.312C161.516 56.104 161.588 55.928 161.668 55.784C161.748 55.64 161.876 55.488 162.036 55.336C162.196 55.184 162.348 55.056 162.476 54.96C162.604 54.864 162.788 54.736 163.02 54.576C163.036 54.568 163.108 54.52 163.252 54.424C163.396 54.328 163.484 54.272 163.516 54.248C163.548 54.224 163.62 54.168 163.732 54.08C163.844 53.992 163.916 53.92 163.948 53.864C163.98 53.816 164.028 53.744 164.092 53.648C164.156 53.56 164.196 53.472 164.22 53.376C164.236 53.28 164.252 53.184 164.252 53.072C164.252 52.784 164.164 52.552 164.004 52.384C163.844 52.216 163.62 52.128 163.348 52.128C163.188 52.128 163.044 52.16 162.932 52.208C162.812 52.256 162.716 52.32 162.652 52.4C162.588 52.48 162.532 52.584 162.492 52.712C162.444 52.84 162.42 52.952 162.404 53.064C162.388 53.176 162.38 53.312 162.38 53.456H161.492V53.312C161.492 52.712 161.66 52.232 161.996 51.88C162.332 51.528 162.796 51.344 163.372 51.344C163.916 51.344 164.348 51.504 164.684 51.808C165.012 52.112 165.18 52.52 165.18 53.024C165.18 53.232 165.148 53.424 165.084 53.6C165.02 53.784 164.948 53.928 164.876 54.04C164.804 54.152 164.684 54.288 164.508 54.432C164.332 54.584 164.196 54.688 164.116 54.744C164.028 54.808 163.868 54.912 163.644 55.064C162.972 55.496 162.572 55.872 162.444 56.192H165.172Z" fill="black"/>
<path d="M160.88 87.984H159.928C159.864 87.32 159.456 86.984 158.688 86.984C158.344 86.984 158.08 87.056 157.888 87.2C157.696 87.344 157.6 87.536 157.6 87.776C157.6 88.008 157.664 88.168 157.808 88.248C157.952 88.336 158.264 88.44 158.752 88.56C158.88 88.6 158.976 88.624 159.048 88.64C159.68 88.8 160.112 88.944 160.344 89.072C160.848 89.344 161.104 89.768 161.104 90.344C161.104 90.6 161.056 90.824 160.976 91.024C160.888 91.232 160.776 91.4 160.632 91.536C160.488 91.672 160.312 91.784 160.12 91.872C159.92 91.968 159.712 92.032 159.504 92.072C159.288 92.112 159.064 92.128 158.84 92.128C158.12 92.128 157.544 91.96 157.104 91.616C156.656 91.28 156.44 90.776 156.44 90.112H157.424C157.424 90.528 157.56 90.84 157.832 91.04C158.104 91.24 158.456 91.336 158.896 91.336C159.28 91.336 159.576 91.264 159.792 91.104C160.008 90.944 160.12 90.728 160.12 90.44C160.12 90.264 160.056 90.112 159.944 90C159.832 89.888 159.704 89.8 159.576 89.752C159.44 89.704 159.208 89.64 158.88 89.552C158.84 89.544 158.808 89.536 158.792 89.528C158.08 89.352 157.616 89.2 157.392 89.08C156.928 88.84 156.68 88.472 156.648 87.968V87.856C156.648 87.352 156.832 86.952 157.216 86.648C157.6 86.344 158.112 86.192 158.752 86.192C159.368 86.192 159.872 86.344 160.264 86.632C160.648 86.928 160.856 87.376 160.88 87.984ZM165.379 91.192V92H161.555C161.555 91.752 161.595 91.52 161.659 91.312C161.723 91.104 161.795 90.928 161.875 90.784C161.955 90.64 162.083 90.488 162.243 90.336C162.403 90.184 162.555 90.056 162.683 89.96C162.811 89.864 162.995 89.736 163.227 89.576C163.243 89.568 163.315 89.52 163.459 89.424C163.603 89.328 163.691 89.272 163.723 89.248C163.755 89.224 163.827 89.168 163.939 89.08C164.051 88.992 164.123 88.92 164.155 88.864C164.187 88.816 164.235 88.744 164.299 88.648C164.363 88.56 164.403 88.472 164.427 88.376C164.443 88.28 164.459 88.184 164.459 88.072C164.459 87.784 164.371 87.552 164.211 87.384C164.051 87.216 163.827 87.128 163.555 87.128C163.395 87.128 163.251 87.16 163.139 87.208C163.019 87.256 162.923 87.32 162.859 87.4C162.795 87.48 162.739 87.584 162.699 87.712C162.651 87.84 162.627 87.952 162.611 88.064C162.595 88.176 162.587 88.312 162.587 88.456H161.699V88.312C161.699 87.712 161.867 87.232 162.203 86.88C162.539 86.528 163.003 86.344 163.579 86.344C164.123 86.344 164.555 86.504 164.891 86.808C165.219 87.112 165.387 87.52 165.387 88.024C165.387 88.232 165.355 88.424 165.291 88.6C165.227 88.784 165.155 88.928 165.083 89.04C165.011 89.152 164.891 89.288 164.715 89.432C164.539 89.584 164.403 89.688 164.323 89.744C164.235 89.808 164.075 89.912 163.851 90.064C163.179 90.496 162.779 90.872 162.651 91.192H165.379Z" fill="black"/>
<path d="M77 95.5L70 121H62" stroke="black" stroke-width="0.6"/>
<path d="M52 102L45.2759 124H37" stroke="black" stroke-width="0.6"/>
<path d="M128 73.5L160.5 79.5V85" stroke="black" stroke-width="0.6"/>
<path d="M128 39L160.5 45V50.5" stroke="black" stroke-width="0.6"/>
</svg>
