<svg width="37" height="25" viewBox="0 0 37 25" fill="none" xmlns="http://www.w3.org/2000/svg">
<path d="M25.3205 12.5005H34.9038L33.5455 7.50049H24.4871L25.3205 12.5005ZM14.2038 5.83382H22.5205L21.5455 0.000488734H15.1788L14.2038 5.83382ZM12.2371 7.50049H3.17879L1.81213 12.5005H11.4038L12.2371 7.50049ZM24.1955 5.83382H33.0871L31.6955 0.617155C31.6466 0.435354 31.5377 0.275442 31.3864 0.163465C31.235 0.0514885 31.0503 -0.00595563 30.8621 0.000488734H23.2371L24.1955 5.83382ZM23.6288 12.5005L22.7955 7.50049H13.9288L13.0955 12.5005H23.6288ZM24.8788 20.0005L23.9121 14.1672H12.8121L11.8455 20.0005H17.5288V23.3338H15.0288C14.8078 23.3338 14.5958 23.4216 14.4395 23.5779C14.2833 23.7342 14.1955 23.9461 14.1955 24.1672C14.1955 24.3882 14.2833 24.6001 14.4395 24.7564C14.5958 24.9127 14.8078 25.0005 15.0288 25.0005H21.6955C21.9165 25.0005 22.1284 24.9127 22.2847 24.7564C22.441 24.6001 22.5288 24.3882 22.5288 24.1672C22.5288 23.9461 22.441 23.7342 22.2847 23.5779C22.1284 23.4216 21.9165 23.3338 21.6955 23.3338H19.1955V20.0005H24.8788ZM26.5705 20.0005H35.8621C35.9924 20.005 36.122 19.9789 36.2403 19.9242C36.3587 19.8695 36.4626 19.7878 36.5437 19.6857C36.6247 19.5836 36.6807 19.4638 36.707 19.3362C36.7334 19.2085 36.7294 19.0764 36.6955 18.9505L35.3621 14.1672H25.5955L26.5705 20.0005ZM0.862127 20.0005H10.1538L11.1288 14.1672H1.36213L0.0287936 18.9505C-0.00518432 19.0764 -0.0091505 19.2085 0.0172139 19.3362C0.0435784 19.4638 0.0995377 19.5836 0.180593 19.6857C0.261647 19.7878 0.365536 19.8695 0.483905 19.9242C0.602274 19.9789 0.73182 20.005 0.862127 20.0005ZM13.4871 0.000488734H5.86213C5.67399 -0.00595563 5.48922 0.0514885 5.3379 0.163465C5.18658 0.275442 5.07763 0.435354 5.02879 0.617155L3.63713 5.83382H12.5288L13.4871 0.000488734Z" fill="#B02E0C"/>
</svg>
