<svg width="47" height="47" viewBox="0 0 47 47" fill="none" xmlns="http://www.w3.org/2000/svg">
<rect width="47" height="47" rx="11.3448" fill="#F3F3F3"/>
<rect x="0.405172" y="0.405172" width="46.1897" height="46.1897" rx="10.9397" stroke="#B02E0C" stroke-opacity="0.04" stroke-width="0.810345"/>
<path d="M3.00391 10.4893H12.252L12.2656 10.498L17.665 13.6006L17.8662 13.7168H17.7568V13.9287L19.6406 15.083H19.8047V15.4795L21.4385 16.4482H21.667V16.8457L23.2383 17.8135H23.5283V18.2119L24.9775 19.1787H25.3896V19.5791L26.3848 20.2422V20.2324H32.7314L32.7461 20.2412L43.9785 26.6953L44.0098 26.7129V28.1768H36.6455L25.4297 36.542L25.4131 36.5537H17.8662L17.8516 36.5459L12.2666 33.3184L12.2354 33.3008V31.8379H19.6826V30.4727H21.5449V29.0449H23.4688V27.6797H25.3301V26.3145H27.1914V24.8877H28.9482L16.1221 15.1445H8.63574V15.1885L8.54297 15.1357L2.95801 11.9707L2.92578 11.9531V10.4463L3.00391 10.4893ZM43.8213 26.75H34.6982V28.1768H32.8369V29.6045H30.9756V30.9697H29.1133V32.335H27.252V33.8242H25.3896V35.1895H17.9453V36.4297H25.3721L36.5879 28.0645L36.6045 28.0518H43.8857V26.7842L43.8213 26.7471V26.75ZM12.3604 33.2285L17.8213 36.3848V35.1621L12.3604 31.9717V33.2285ZM17.9004 35.0654H25.0967L19.7266 31.9619H12.5889L17.9004 35.0654ZM19.8066 31.8643L25.2656 35.0176V33.7959L19.8066 30.6426V31.8643ZM25.3467 33.7002H26.9609L21.5889 30.5967H19.9746L25.3467 33.7002ZM21.6689 30.499L27.1279 33.6523V32.3066L21.6689 29.2129V30.499ZM27.209 32.2109H28.8223L23.5137 29.1689H21.8398L27.209 32.2109ZM23.5928 29.0703L28.9893 32.1631V30.9404L23.5928 27.8486V29.0703ZM29.0713 30.8457H30.6807L25.3721 27.8037H23.7637L29.0713 30.8457ZM25.4541 27.707L30.8506 30.7998V29.5771L25.4541 26.4854V27.707ZM30.9297 29.4805H32.5439L27.2354 26.4385H25.6221L30.9297 29.4805ZM27.3164 26.3408L32.7129 29.4336V28.1494L27.3164 25.0566V26.3408ZM29.0537 25.0117H27.4873L32.793 28.0527H34.4072L29.1133 24.9941V25.0127L29.0537 24.9668V25.0117ZM29.1133 24.8506L34.5742 28.0049V26.7217L29.1133 23.627V24.8506ZM27.0225 20.668H27.252V21.0654L28.8838 22.0332H29.1133V23.4854L34.6533 26.625H43.6084L32.6992 20.3574H26.5566L27.0225 20.668ZM8.63574 15.0205H16.1641L16.1807 15.0332L28.9893 24.7627V22.1572H27.1279V20.792H25.2656V19.3027H23.4043V17.9375H21.542V16.5723H19.6807V15.207H17.6328V13.7168H8.63574V15.0205ZM27.252 22.0332H28.6406L27.252 21.21V22.0332ZM25.3896 20.668H26.7988L25.3896 19.7285V20.668ZM23.5283 19.1787H24.7539L23.5283 18.3613V19.1787ZM21.667 17.8135H23.002L21.667 16.9912V17.8135ZM19.8047 16.4482H21.1953L19.8047 15.624V16.4482ZM17.7568 15.083H19.4023L17.7568 14.0732V15.083ZM3.05078 11.8809L8.51172 14.9756V13.6914L3.05078 10.6572V11.8809ZM8.58984 13.5928H17.4033L12.2197 10.6143H3.22949L8.58984 13.5928Z" fill="black"/>
</svg>
