<svg width="46" height="46" viewBox="0 0 46 46" fill="none" xmlns="http://www.w3.org/2000/svg">
<rect width="46" height="46" rx="11.1034" fill="#F3F3F3"/>
<rect x="0.396552" y="0.396552" width="45.2069" height="45.2069" rx="10.7069" stroke="#B02E0C" stroke-opacity="0.04" stroke-width="0.793103"/>
<path d="M35.9521 14.6753L42.9971 18.6655H43.0566V20.5825H33.6865L19.5811 31.1929L19.5586 31.2095H19.5312L10.2383 31.271V31.3354L10.1123 31.2603L2.98535 27.0093L2.94531 26.9849V25.105L3.05176 25.1665H12.3223V23.481L12.4033 23.479L14.6973 23.4185V21.7905H17.0732V20.0405H19.4492V18.228H21.8242V16.4146H24.0752V14.6646H35.9326L35.9521 14.6753ZM31.3662 20.5405L31.333 20.5659L26.6797 24.0806V24.2075H26.5117L24.3662 25.8276V25.9585H24.1943L21.9912 27.6216V27.7085H21.877L19.5811 29.4429L19.5586 29.4595H10.2383V31.105L19.502 31.0435L33.6084 20.4321L33.6309 20.4155H42.8896V18.8315H31.3662V20.5405ZM3.11133 26.8892L10.0713 31.0415V29.4233L3.11133 25.394V26.8892ZM10.1777 29.2925H19.2207L12.3828 25.3335H3.33984L10.1777 29.2925ZM12.4893 25.2017L19.4492 29.231V27.6743L12.4893 23.7056V25.2017ZM19.6152 29.2056L21.5986 27.7085H19.6152V29.2056ZM12.7021 23.6362L19.5518 27.5415H21.5957L14.7578 23.5825L12.7021 23.6362ZM14.8643 23.4507L21.8242 27.481V25.9233L14.8643 22.0161V23.4507ZM21.9912 27.4116L23.915 25.9585H21.9912V27.4116ZM21.9268 25.7915H23.9639L17.1348 21.9575H15.0977L21.9268 25.7915ZM17.2402 21.8257L24.2002 25.7339V24.1724L17.2402 20.2651V21.8257ZM24.3662 25.6177L26.2334 24.2075H24.3662V25.6177ZM24.3037 24.0415H26.2812L19.5117 20.2075H17.4756L24.3037 24.0415ZM19.6152 20.0747L26.5127 23.981V22.2974L19.6152 18.4526V20.0747ZM26.6797 23.8706L28.7168 22.3325H26.6797V23.8706ZM26.6172 22.1655H28.5889L21.8838 18.394H19.8535L26.6172 22.1655ZM28.9932 22.1226L31.0352 20.5815H28.9932V22.1226ZM21.9912 18.2632L28.8262 22.1089V20.5483L21.9912 16.6421V18.2632ZM28.9297 20.4155H30.9658L24.1357 16.5815H22.2197L28.9297 20.4155ZM24.2412 16.4497L31.2002 20.3569V18.7964L24.2412 14.8901V16.4497ZM31.3037 18.6655H42.6592L35.8887 14.8306H24.4736L31.3037 18.6655Z" fill="black"/>
</svg>
