<svg width="35" height="35" viewBox="0 0 35 35" fill="none" xmlns="http://www.w3.org/2000/svg">
<path d="M22.5707 10.6914V1.7819C22.5707 0.799478 21.7712 0 20.7888 0H1.7819C0.799478 0 0 0.799478 0 1.7819V20.7888C0 21.7712 0.799478 22.5707 1.7819 22.5707H10.6914V13.6612C10.6914 12.0236 12.0236 10.6914 13.6612 10.6914H22.5707ZM19.0069 1.7819C19.9893 1.7819 20.7888 2.58137 20.7888 3.56379C20.7888 4.54621 19.9893 5.34569 19.0069 5.34569C18.0245 5.34569 17.225 4.54621 17.225 3.56379C17.225 2.58137 18.0245 1.7819 19.0069 1.7819ZM3.56379 20.7888C2.58137 20.7888 1.7819 19.9893 1.7819 19.0069C1.7819 18.0245 2.58137 17.225 3.56379 17.225C4.54621 17.225 5.34569 18.0245 5.34569 19.0069C5.34569 19.9893 4.54621 20.7888 3.56379 20.7888ZM3.56379 5.34569C2.58137 5.34569 1.7819 4.54621 1.7819 3.56379C1.7819 2.58137 2.58137 1.7819 3.56379 1.7819C4.54621 1.7819 5.34569 2.58137 5.34569 3.56379C5.34569 4.54621 4.54621 5.34569 3.56379 5.34569Z" fill="#B02E0C"/>
<path d="M15.4436 31.4802C15.7716 31.4802 16.0375 31.2142 16.0375 30.8862C16.0375 30.5582 15.7716 30.2922 15.4436 30.2922C15.1155 30.2922 14.8496 30.5582 14.8496 30.8862C14.8496 31.2142 15.1155 31.4802 15.4436 31.4802Z" fill="#B02E0C"/>
<path d="M3.56272 19.6009C3.89075 19.6009 4.15668 19.335 4.15668 19.0069C4.15668 18.6789 3.89075 18.413 3.56272 18.413C3.23468 18.413 2.96875 18.6789 2.96875 19.0069C2.96875 19.335 3.23468 19.6009 3.56272 19.6009Z" fill="#B02E0C"/>
<path d="M3.56272 4.15778C3.89075 4.15778 4.15668 3.89185 4.15668 3.56381C4.15668 3.23578 3.89075 2.96985 3.56272 2.96985C3.23468 2.96985 2.96875 3.23578 2.96875 3.56381C2.96875 3.89185 3.23468 4.15778 3.56272 4.15778Z" fill="#B02E0C"/>
<path d="M15.4436 16.0371C15.7716 16.0371 16.0375 15.7711 16.0375 15.4431C16.0375 15.115 15.7716 14.8491 15.4436 14.8491C15.1155 14.8491 14.8496 15.115 14.8496 15.4431C14.8496 15.7711 15.1155 16.0371 15.4436 16.0371Z" fill="#B02E0C"/>
<path d="M19.0061 4.15778C19.3341 4.15778 19.6 3.89185 19.6 3.56381C19.6 3.23578 19.3341 2.96985 19.0061 2.96985C18.678 2.96985 18.4121 3.23578 18.4121 3.56381C18.4121 3.89185 18.678 4.15778 19.0061 4.15778Z" fill="#B02E0C"/>
<path d="M30.885 31.4802C31.213 31.4802 31.4789 31.2142 31.4789 30.8862C31.4789 30.5582 31.213 30.2922 30.885 30.2922C30.5569 30.2922 30.291 30.5582 30.291 30.8862C30.291 31.2142 30.5569 31.4802 30.885 31.4802Z" fill="#B02E0C"/>
<path d="M30.885 16.0371C31.213 16.0371 31.4789 15.7711 31.4789 15.4431C31.4789 15.115 31.213 14.8491 30.885 14.8491C30.5569 14.8491 30.291 15.115 30.291 15.4431C30.291 15.7711 30.5569 16.0371 30.885 16.0371Z" fill="#B02E0C"/>
<path d="M32.6677 11.8793H13.6608C12.6784 11.8793 11.8789 12.6788 11.8789 13.6612V32.6681C11.8789 33.6505 12.6784 34.45 13.6608 34.45H32.6677C33.6501 34.45 34.4496 33.6505 34.4496 32.6681V13.6612C34.4496 12.6788 33.6501 11.8793 32.6677 11.8793ZM15.4427 32.6681C14.4603 32.6681 13.6608 31.8686 13.6608 30.8862C13.6608 29.9038 14.4603 29.1043 15.4427 29.1043C16.4251 29.1043 17.2246 29.9038 17.2246 30.8862C17.2246 31.8686 16.4251 32.6681 15.4427 32.6681ZM15.4427 17.225C14.4603 17.225 13.6608 16.4255 13.6608 15.4431C13.6608 14.4606 14.4603 13.6612 15.4427 13.6612C16.4251 13.6612 17.2246 14.4606 17.2246 15.4431C17.2246 16.4255 16.4251 17.225 15.4427 17.225ZM30.8858 32.6681C29.9034 32.6681 29.1039 31.8686 29.1039 30.8862C29.1039 29.9038 29.9034 29.1043 30.8858 29.1043C31.8682 29.1043 32.6677 29.9038 32.6677 30.8862C32.6677 31.8686 31.8682 32.6681 30.8858 32.6681ZM30.8858 17.225C29.9034 17.225 29.1039 16.4255 29.1039 15.4431C29.1039 14.4606 29.9034 13.6612 30.8858 13.6612C31.8682 13.6612 32.6677 14.4606 32.6677 15.4431C32.6677 16.4255 31.8682 17.225 30.8858 17.225Z" fill="#B02E0C"/>
</svg>
