<svg width="47" height="47" viewBox="0 0 47 47" fill="none" xmlns="http://www.w3.org/2000/svg">
<rect width="47" height="47" rx="11.3448" fill="#F3F3F3"/>
<rect x="0.405172" y="0.405172" width="46.1897" height="46.1897" rx="10.9397" stroke="#B02E0C" stroke-opacity="0.04" stroke-width="0.810345"/>
<path d="M33.6102 13.7652L31.9123 16.4334L30.2145 19.1017" stroke="black" stroke-width="0.506024" stroke-linecap="square"/>
<path d="M42.1329 20.9237L37.8673 25.5943" stroke="black" stroke-width="0.506024" stroke-linecap="square"/>
<rect x="7.81266" y="13.7653" width="34.1566" height="16.6988" rx="3.03614" stroke="black" stroke-width="1.01205"/>
<path d="M4.67322 21.1638H5.33105C5.48084 21.1638 5.59621 21.1982 5.67717 21.263C5.75814 21.3278 5.79862 21.4168 5.79862 21.5261C5.79862 21.595 5.77838 21.6577 5.74194 21.7124C5.70349 21.767 5.65288 21.8055 5.59216 21.8298C5.67515 21.85 5.74194 21.8905 5.79052 21.9512C5.8391 22.0119 5.86339 22.0888 5.86339 22.1799C5.86339 22.3074 5.82088 22.4107 5.73587 22.4876C5.65086 22.5665 5.54156 22.605 5.40797 22.605H4.67322V21.1638ZM4.92016 21.3683V21.765H5.26426C5.36141 21.765 5.43226 21.7508 5.47881 21.7205C5.52334 21.6901 5.54763 21.6395 5.54763 21.5666C5.54763 21.4857 5.52334 21.433 5.47476 21.4067C5.42618 21.3824 5.35939 21.3683 5.27235 21.3683H4.92016ZM4.92016 21.9471V22.3985H5.29867C5.39582 22.3985 5.47071 22.3823 5.52739 22.3499C5.58204 22.3176 5.61038 22.2589 5.61038 22.1738C5.61038 22.1273 5.60026 22.0888 5.58406 22.0565C5.56787 22.0241 5.54358 22.0018 5.5112 21.9856C5.47881 21.9714 5.44643 21.9613 5.41404 21.9552C5.37963 21.9512 5.33915 21.9471 5.29462 21.9471H4.92016Z" fill="#060C12"/>
<path d="M5.2832 13.2598L4.55282 14.5249L6.01359 14.5249L5.2832 13.2598ZM5.1567 20.792L5.1567 20.9185L5.40971 20.9185L5.40971 20.792L5.2832 20.792L5.1567 20.792ZM5.2832 14.3983L5.1567 14.3983L5.1567 20.792L5.2832 20.792L5.40971 20.792L5.40971 14.3983L5.2832 14.3983Z" fill="black"/>
<path d="M5.2832 30.9704L6.01359 29.7054L4.55282 29.7054L5.2832 30.9704ZM5.40971 23.4382L5.40971 23.3117L5.1567 23.3117L5.1567 23.4382L5.2832 23.4382L5.40971 23.4382ZM5.2832 29.8319L5.40971 29.8319L5.40971 23.4382L5.2832 23.4382L5.1567 23.4382L5.1567 29.8319L5.2832 29.8319Z" fill="black"/>
<path d="M24.8155 32.2975L25.3721 33.7407H25.1009L24.9633 33.3582H24.3925L24.2508 33.7407H23.9897L24.5463 32.2975H24.8155ZM24.8965 33.1679L24.6819 32.5607L24.4572 33.1679H24.8965Z" fill="#060C12"/>
<path d="M42.4751 33.4998L41.21 32.7694L41.21 34.2301L42.4751 33.4998ZM26.0293 33.3732L25.9028 33.3732L25.9028 33.6263L26.0293 33.6263L26.0293 33.4998L26.0293 33.3732ZM41.3365 33.4998L41.3365 33.3732L26.0293 33.3732L26.0293 33.4998L26.0293 33.6263L41.3365 33.6263L41.3365 33.4998Z" fill="black"/>
<path d="M7.30633 33.4998L8.57139 34.2301V32.7694L7.30633 33.4998ZM23.2461 33.6263H23.3726V33.3732H23.2461V33.4998V33.6263ZM8.44489 33.4998V33.6263H23.2461V33.4998V33.3732H8.44489V33.4998Z" fill="black"/>
</svg>
