<svg width="176" height="136" viewBox="0 0 176 136" fill="none" xmlns="http://www.w3.org/2000/svg">
<path d="M0 16C0 7.16344 7.16344 0 16 0H160C168.837 0 176 7.16344 176 16V120C176 128.837 168.837 136 160 136H16C7.16344 136 0 128.837 0 120V16Z" fill="white"/>
<path d="M16 0.5H160C168.56 0.5 175.5 7.43959 175.5 16V120C175.5 128.56 168.56 135.5 160 135.5H16C7.43959 135.5 0.5 128.56 0.5 120V16C0.5 7.43959 7.43959 0.5 16 0.5Z" stroke="#B02E0C" stroke-opacity="0.16"/>
<path d="M127.956 28.9993L121.245 39.5454L114.535 50.0914" stroke="black" stroke-width="2" stroke-linecap="square"/>
<path d="M161.641 57.2927L144.782 75.7524" stroke="black" stroke-width="2" stroke-linecap="square"/>
<rect x="26" y="29" width="135" height="66" rx="12" stroke="black" stroke-width="4"/>
<path d="M13.592 60.2923H16.192C16.784 60.2923 17.24 60.4283 17.56 60.6843C17.88 60.9403 18.04 61.2923 18.04 61.7243C18.04 61.9963 17.96 62.2443 17.816 62.4603C17.664 62.6763 17.464 62.8283 17.224 62.9243C17.552 63.0043 17.816 63.1643 18.008 63.4043C18.2 63.6443 18.296 63.9483 18.296 64.3083C18.296 64.8123 18.128 65.2203 17.792 65.5243C17.456 65.8363 17.024 65.9883 16.496 65.9883H13.592V60.2923ZM14.568 61.1003V62.6683H15.928C16.312 62.6683 16.592 62.6123 16.776 62.4923C16.952 62.3723 17.048 62.1723 17.048 61.8843C17.048 61.5643 16.952 61.3563 16.76 61.2523C16.568 61.1563 16.304 61.1003 15.96 61.1003H14.568ZM14.568 63.3883V65.1723H16.064C16.448 65.1723 16.744 65.1083 16.968 64.9803C17.184 64.8523 17.296 64.6203 17.296 64.2843C17.296 64.1003 17.256 63.9483 17.192 63.8203C17.128 63.6923 17.032 63.6043 16.904 63.5403C16.776 63.4843 16.648 63.4443 16.52 63.4203C16.384 63.4043 16.224 63.3883 16.048 63.3883H14.568Z" fill="#060C12"/>
<path d="M16 26.9994L13.1132 31.9994L18.8868 31.9994L16 26.9994ZM15.5 56.7695L15.5 57.2695L16.5 57.2695L16.5 56.7695L15.5 56.7695ZM16 31.4994L15.5 31.4994L15.5 56.7695L16 56.7695L16.5 56.7695L16.5 31.4994L16 31.4994Z" fill="black"/>
<path d="M16 96.9996L18.8868 91.9996L13.1132 91.9996L16 96.9996ZM16.5 67.2295L16.5 66.7295L15.5 66.7295L15.5 67.2295L16.5 67.2295ZM16 92.4996L16.5 92.4996L16.5 67.2295L16 67.2295L15.5 67.2295L15.5 92.4996L16 92.4996Z" fill="black"/>
<path d="M93.2 104.296L95.4 110H94.328L93.784 108.488H91.528L90.968 110H89.936L92.136 104.296H93.2ZM93.52 107.736L92.672 105.336L91.784 107.736H93.52Z" fill="#060C12"/>
<path d="M163 107L158 104.113L158 109.887L163 107ZM98 106.5L97.5 106.5L97.5 107.5L98 107.5L98 106.5ZM158.5 107L158.5 106.5L98 106.5L98 107L98 107.5L158.5 107.5L158.5 107Z" fill="black"/>
<path d="M24 107L29 109.887V104.113L24 107ZM87 107.5H87.5V106.5H87V107.5ZM28.5 107V107.5H87V107V106.5H28.5V107Z" fill="black"/>
</svg>
