<svg width="18" height="18" viewBox="0 0 18 18" fill="none" xmlns="http://www.w3.org/2000/svg">
<path d="M15.0688 10.7442L15.2136 9.32369C15.2908 8.56574 15.3418 8.06525 15.3018 7.74991L15.3158 7.75C15.9698 7.75 16.5 7.19036 16.5 6.5C16.5 5.80964 15.9698 5.25 15.3158 5.25C14.6618 5.25 14.1316 5.80964 14.1316 6.5C14.1316 6.81222 14.24 7.0977 14.4193 7.31677C14.1619 7.48447 13.8254 7.83832 13.3188 8.37093L13.3188 8.37096L13.3188 8.37096C12.9286 8.78129 12.7334 8.98645 12.5158 9.01822C12.3952 9.03583 12.2723 9.01773 12.1609 8.96596C11.9599 8.87254 11.8259 8.6189 11.5578 8.11163L10.1451 5.43783C9.97975 5.1249 9.84136 4.86298 9.71658 4.65221C10.2284 4.37656 10.5789 3.81482 10.5789 3.16667C10.5789 2.24619 9.87203 1.5 9 1.5C8.12797 1.5 7.42105 2.24619 7.42105 3.16667C7.42105 3.81482 7.77156 4.37656 8.28342 4.65221C8.15864 4.86299 8.02027 5.12487 7.85491 5.43783L6.44215 8.11163C6.17413 8.6189 6.04011 8.87254 5.83911 8.96596C5.72774 9.01773 5.60485 9.03583 5.48424 9.01822C5.26656 8.98645 5.07143 8.78129 4.68118 8.37096C4.17463 7.83834 3.83807 7.48447 3.58068 7.31677C3.75998 7.0977 3.86842 6.81222 3.86842 6.5C3.86842 5.80964 3.33823 5.25 2.68421 5.25C2.03019 5.25 1.5 5.80964 1.5 6.5C1.5 7.19036 2.03019 7.75 2.68421 7.75L2.69819 7.74991C2.65817 8.06525 2.70917 8.56574 2.7864 9.32368L2.93116 10.7442C3.01151 11.5328 3.07833 12.283 3.16016 12.9583H14.8398C14.9217 12.283 14.9885 11.5328 15.0688 10.7442Z" fill="white"/>
<path d="M8.1411 16.5H9.8589C12.0978 16.5 13.2172 16.5 13.9642 15.7943C14.2902 15.4863 14.4966 14.931 14.6456 14.2083H3.35444C3.50341 14.931 3.70984 15.4863 4.03585 15.7943C4.78276 16.5 5.90221 16.5 8.1411 16.5Z" fill="white"/>
</svg>
