<svg width="176" height="136" viewBox="0 0 176 136" fill="none" xmlns="http://www.w3.org/2000/svg">
<path d="M0 16C0 7.16344 7.16344 0 16 0H160C168.837 0 176 7.16344 176 16V120C176 128.837 168.837 136 160 136H16C7.16344 136 0 128.837 0 120V16Z" fill="white"/>
<path d="M16 0.5H160C168.56 0.5 175.5 7.43959 175.5 16V120C175.5 128.56 168.56 135.5 160 135.5H16C7.43959 135.5 0.5 128.56 0.5 120V16C0.5 7.43959 7.43959 0.5 16 0.5Z" stroke="#B02E0C" stroke-opacity="0.16"/>
<rect x="38.3" y="15.3" width="99.4" height="99.4" stroke="black" stroke-width="0.6"/>
<rect opacity="0.5" x="41" y="18" width="22" height="22" fill="#F8A89A"/>
<rect x="41" y="42" width="22" height="22" fill="#D9D9D9" fill-opacity="0.4"/>
<rect opacity="0.5" x="41" y="66" width="22" height="22" fill="#F8A89A"/>
<rect x="41" y="90" width="22" height="22" fill="#D9D9D9" fill-opacity="0.4"/>
<rect x="65" y="18" width="22" height="22" fill="#D9D9D9" fill-opacity="0.4"/>
<rect opacity="0.5" x="65" y="42" width="22" height="22" fill="#F8A89A"/>
<rect x="65" y="66" width="22" height="22" fill="#D9D9D9" fill-opacity="0.4"/>
<rect opacity="0.5" x="65" y="90" width="22" height="22" fill="#F8A89A"/>
<rect opacity="0.5" x="89" y="18" width="22" height="22" fill="#F8A89A"/>
<rect x="89" y="42" width="22" height="22" fill="#D9D9D9" fill-opacity="0.4"/>
<rect opacity="0.5" x="89" y="66" width="22" height="22" fill="#F8A89A"/>
<rect x="89" y="90" width="22" height="22" fill="#D9D9D9" fill-opacity="0.4"/>
<rect x="113" y="18" width="22" height="22" fill="#D9D9D9" fill-opacity="0.4"/>
<rect opacity="0.5" x="113" y="42" width="22" height="22" fill="#F8A89A"/>
<rect x="113" y="66" width="22" height="22" fill="#D9D9D9" fill-opacity="0.4"/>
<rect opacity="0.5" x="113" y="90" width="22" height="22" fill="#F8A89A"/>
<path d="M89 77L91 78.1547V75.8453L89 77ZM90.8 77V77.2H97.5V77V76.8H90.8V77Z" fill="black"/>
<path d="M87 77L85 75.8453V78.1547L87 77ZM85.2 77V76.8H78V77V77.2H85.2V77Z" fill="black"/>
<path d="M91.842 67.61L91.828 73H90.442L90.232 71.866C89.49 72.79 88.496 73.238 87.236 73.238C85.85 73.238 84.716 72.762 83.848 71.796C82.98 70.844 82.546 69.598 82.546 68.058C82.546 66.518 83.008 65.272 83.918 64.292C84.842 63.312 86.018 62.822 87.446 62.822C88.594 62.822 89.546 63.144 90.33 63.788C91.114 64.432 91.576 65.272 91.702 66.308H89.588C89.49 65.79 89.252 65.384 88.86 65.09C88.482 64.81 88.006 64.656 87.432 64.656C86.592 64.656 85.948 64.964 85.472 65.566C84.996 66.168 84.758 66.994 84.758 68.058C84.758 69.15 84.996 69.99 85.472 70.592C85.948 71.194 86.634 71.488 87.502 71.488C88.174 71.488 88.734 71.292 89.182 70.872C89.616 70.452 89.854 69.906 89.882 69.234H87.656V67.61H91.842Z" fill="black"/>
<path d="M51.9843 33.722L53.6103 38H52.6263L52.2903 37.046H50.7003L50.3523 38H49.3923L51.0183 33.722H51.9843ZM52.0623 36.362L51.4983 34.772L50.9283 36.362H52.0623Z" fill="black"/>
<path d="M57.7957 26.728H59.8177C60.2137 26.728 60.5437 26.818 60.7957 26.998C61.0477 27.178 61.1797 27.442 61.1797 27.802C61.1797 28.006 61.1257 28.18 61.0237 28.336C60.9157 28.492 60.7777 28.606 60.5977 28.684C61.1137 28.834 61.3777 29.182 61.3777 29.728C61.3777 30.136 61.2397 30.448 60.9697 30.67C60.6937 30.892 60.3517 31 59.9317 31H57.7957V26.728ZM58.7077 27.454V28.462H59.5597C60.0277 28.462 60.2677 28.294 60.2677 27.964C60.2677 27.766 60.2017 27.634 60.0757 27.562C59.9437 27.49 59.7757 27.454 59.5597 27.454H58.7077ZM58.7077 29.098L58.7017 30.262H59.6437C59.8897 30.262 60.0817 30.22 60.2257 30.142C60.3697 30.058 60.4417 29.908 60.4417 29.68C60.4417 29.446 60.3637 29.29 60.2137 29.212C60.0637 29.134 59.8597 29.098 59.6017 29.098H58.7077Z" fill="black"/>
<path d="M38 121L40 122.155V119.845L38 121ZM138 121L136 119.845V122.155L138 121ZM39.8 121V121.2H136.2V121V120.8H39.8V121Z" fill="black"/>
<path d="M83.3083 122.88H84.8783L86.0183 127.72L87.2683 122.88H88.7383L89.9683 127.78L91.1483 122.88H92.6883L90.7683 130H89.2083L87.9883 125.14L86.7883 130H85.1983L83.3083 122.88Z" fill="black"/>
<path d="M144 15L142.845 17H145.155L144 15ZM144 115L145.155 113H142.845L144 115ZM144 16.8H143.8V113.2H144H144.2V16.8H144Z" fill="black"/>
<path d="M151.766 67.16V68.5H146.726V61.38H148.286V67.16H151.766Z" fill="black"/>
</svg>
