<svg width="176" height="136" viewBox="0 0 176 136" fill="none" xmlns="http://www.w3.org/2000/svg">
<path d="M0 16C0 7.16344 7.16344 0 16 0H160C168.837 0 176 7.16344 176 16V120C176 128.837 168.837 136 160 136H16C7.16344 136 0 128.837 0 120V16Z" fill="white"/>
<path d="M16 0.5H160C168.56 0.5 175.5 7.43959 175.5 16V120C175.5 128.56 168.56 135.5 160 135.5H16C7.43959 135.5 0.5 128.56 0.5 120V16C0.5 7.43959 7.43959 0.5 16 0.5Z" stroke="#B02E0C" stroke-opacity="0.16"/>
<path d="M142.847 39.9902L167.847 65.4902L168.305 65.957L167.681 66.1523L56.3047 100.957L56.5137 101.171H55.6211L55.2988 101.271L55.2676 101.171H6.60938L7.27539 100.49L31.1055 76.1621L31.0576 76.0137L31.3438 75.9199L31.5615 75.6992L31.6729 75.8125L142.438 39.8896L142.674 39.8135L142.847 39.9902ZM8.51465 100.37H54.6084L31.5615 76.8428L8.51465 100.37ZM32.2998 76.4512L55.6758 100.315L166.818 65.583L142.449 40.7275L32.2998 76.4512Z" fill="black"/>
<path d="M6.99772 106.059L9.36355 107.425V104.693L6.99772 106.059ZM27.5859 106.295H27.8225V105.822H27.5859V106.059V106.295ZM9.12697 106.059V106.295H27.5859V106.059V105.822H9.12697V106.059Z" fill="black"/>
<path d="M55.3833 106.059L53.0174 104.693L53.0174 107.425L55.3833 106.059ZM33.7656 105.822L33.529 105.822L33.529 106.295L33.7656 106.295L33.7656 106.059L33.7656 105.822ZM53.254 106.059L53.254 105.822L33.7656 105.822L33.7656 106.059L33.7656 106.295L53.254 106.295L53.254 106.059Z" fill="black"/>
<rect width="4.80004" height="4.11764" transform="translate(32.7344 104) rotate(90)" fill="white"/>
<path d="M31.1407 103.843L32.8757 108.341H32.0303L31.6013 107.149L29.8222 107.149L29.3806 108.341H28.5667L30.3017 103.843L31.1407 103.843ZM31.3931 106.556L30.7244 104.663L30.0241 106.556L31.3931 106.556Z" fill="#060C12"/>
<path d="M169.926 71.6729L167.263 71.065L168.067 73.6758L169.926 71.6729ZM118.555 87.2739L118.329 87.3436L118.469 87.7958L118.695 87.7261L118.625 87.5L118.555 87.2739ZM167.891 72.3007L167.822 72.0746L118.555 87.2739L118.625 87.5L118.695 87.7261L167.961 72.5268L167.891 72.3007Z" fill="black"/>
<path d="M57.8068 106.589L60.4684 107.201L59.6685 104.589L57.8068 106.589ZM109.288 91.0343L109.514 90.9649L109.376 90.5125L109.149 90.5819L109.219 90.8081L109.288 91.0343ZM59.8423 105.965L59.9116 106.191L109.288 91.0343L109.219 90.8081L109.149 90.5819L59.773 105.738L59.8423 105.965Z" fill="black"/>
<path d="M115.277 90.2275L115.265 90.9087L112.187 90.9518L112.264 86.4606L113.059 86.4495L112.993 90.2595L115.277 90.2275Z" fill="#060C12"/>
<path d="M45.7715 97.8496H17.2285L31.5 81.6055L45.7715 97.8496Z" stroke="black" stroke-width="0.8"/>
</svg>
