<svg width="46" height="46" viewBox="0 0 46 46" fill="none" xmlns="http://www.w3.org/2000/svg">
<rect width="46" height="46" rx="11.1034" fill="#F3F3F3"/>
<rect x="0.396552" y="0.396552" width="45.2069" height="45.2069" rx="10.7069" stroke="#B02E0C" stroke-opacity="0.04" stroke-width="0.793103"/>
<path d="M37.1377 14.0457L43.6582 20.696L43.7773 20.8181L43.6143 20.8689L14.5684 29.9451L14.623 30.0007H14.3906L14.3066 30.0271L14.2988 30.0007H1.60938L1.7832 29.824L7.99707 23.4792L7.98438 23.4402L8.05957 23.4148L8.11621 23.3582L8.14453 23.3875L37.0312 14.0193L37.0928 13.9998L37.1377 14.0457ZM2.10449 29.7927H14.1279L8.11621 23.656L2.10449 29.7927ZM8.30762 23.5535L14.4043 29.7771L43.3896 20.7205L37.0342 14.238L8.30762 23.5535Z" fill="black"/>
<path d="M1.70897 31.2758L2.32595 31.632V30.9195L1.70897 31.2758ZM7.07812 31.3375H7.13982V31.2141H7.07812V31.2758V31.3375ZM2.26425 31.2758V31.3375H7.07812V31.2758V31.2141H2.26425V31.2758Z" fill="black"/>
<path d="M14.3329 31.2758L13.7159 30.9195L13.7159 31.632L14.3329 31.2758ZM8.69531 31.2141L8.63361 31.2141L8.63361 31.3375L8.69531 31.3375L8.69531 31.2758L8.69531 31.2141ZM13.7776 31.2758L13.7776 31.2141L8.69531 31.2141L8.69531 31.2758L8.69531 31.3375L13.7776 31.3375L13.7776 31.2758Z" fill="black"/>
<rect width="1.25179" height="1.07383" transform="translate(8.42188 30.7388) rotate(90)" fill="white"/>
<path d="M8.00968 30.6547L8.46213 31.8278H8.24166L8.12978 31.5168L7.66581 31.5168L7.55064 31.8278H7.3384L7.79085 30.6547L8.00968 30.6547ZM8.07549 31.3621L7.90109 30.8686L7.71846 31.3621L8.07549 31.3621Z" fill="#060C12"/>
<path d="M44.2068 22.3083L43.5124 22.1497L43.7221 22.8306L44.2068 22.3083ZM30.81 26.3768L30.751 26.395L30.7873 26.5129L30.8463 26.4948L30.8281 26.4358L30.81 26.3768ZM43.6762 22.472L43.658 22.413L30.81 26.3768L30.8281 26.4358L30.8463 26.4948L43.6944 22.5309L43.6762 22.472Z" fill="black"/>
<path d="M14.9674 31.4142L15.6615 31.5737L15.4529 30.8925L14.9674 31.4142ZM28.3931 27.3576L28.452 27.3395L28.4159 27.2215L28.3569 27.2396L28.375 27.2986L28.3931 27.3576ZM15.4982 31.2512L15.5163 31.3102L28.3931 27.3576L28.375 27.2986L28.3569 27.2396L15.4801 31.1922L15.4982 31.2512Z" fill="black"/>
<path d="M29.9572 27.104L29.9541 27.2817L29.1513 27.2929L29.1716 26.1217L29.3789 26.1188L29.3617 27.1124L29.9572 27.104Z" fill="#060C12"/>
<path d="M11.8242 29.1353H4.38086L8.10254 24.8989L11.8242 29.1353Z" stroke="black" stroke-width="0.20863"/>
</svg>
