<svg width="46" height="46" viewBox="0 0 46 46" fill="none" xmlns="http://www.w3.org/2000/svg">
<rect width="46" height="46" rx="11.1034" fill="#F3F3F3"/>
<rect x="0.396552" y="0.396552" width="45.2069" height="45.2069" rx="10.7069" stroke="#B02E0C" stroke-opacity="0.04" stroke-width="0.793103"/>
<path d="M37.1396 14.0457L43.6592 20.696L43.7783 20.8181L43.6152 20.8689L14.5684 29.9451L14.623 30.0007H14.3916L14.3076 30.0271L14.2998 30.0007H1.60938L1.7832 29.824L7.99707 23.4783L7.98535 23.4402L8.05957 23.4158L8.11621 23.3582L8.14551 23.3875L37.0322 14.0193L37.0938 13.9998L37.1396 14.0457ZM2.10449 29.7927H14.1279L8.11621 23.656L2.10449 29.7927ZM8.30762 23.5544L14.4043 29.7771L43.3906 20.7205L37.0352 14.238L8.30762 23.5544Z" fill="black"/>
<path d="M1.71676 31.2756L2.33374 31.6318V30.9194L1.71676 31.2756ZM7.08594 31.3373H7.14764V31.2139H7.08594V31.2756V31.3373ZM2.27205 31.2756V31.3373H7.08594V31.2756V31.2139H2.27205V31.2756Z" fill="black"/>
<path d="M14.3329 31.2756L13.716 30.9194L13.716 31.6319L14.3329 31.2756ZM8.69531 31.2139L8.63361 31.2139L8.63361 31.3373L8.69531 31.3373L8.69531 31.2756L8.69531 31.2139ZM13.7777 31.2756L13.7777 31.2139L8.69531 31.2139L8.69531 31.2756L8.69531 31.3373L13.7777 31.3373L13.7777 31.2756Z" fill="black"/>
<rect width="1.2518" height="1.07384" transform="translate(8.42188 30.7388) rotate(90)" fill="white"/>
<path d="M8.00968 30.6547L8.46213 31.8278H8.24166L8.12978 31.5168L7.66581 31.5168L7.55064 31.8278H7.3384L7.79085 30.6547L8.00968 30.6547ZM8.07549 31.3621L7.90109 30.8686L7.71846 31.3621L8.07549 31.3621Z" fill="#060C12"/>
<path d="M44.199 22.3083L43.5046 22.1497L43.7143 22.8306L44.199 22.3083ZM30.8021 26.3768L30.7432 26.395L30.7795 26.5129L30.8385 26.4948L30.8203 26.4358L30.8021 26.3768ZM43.6684 22.472L43.6503 22.413L30.8021 26.3768L30.8203 26.4358L30.8385 26.4948L43.6866 22.5309L43.6684 22.472Z" fill="black"/>
<path d="M14.9595 31.4142L15.6536 31.5737L15.445 30.8925L14.9595 31.4142ZM28.3853 27.3576L28.4442 27.3395L28.4081 27.2215L28.3491 27.2396L28.3672 27.2986L28.3853 27.3576ZM15.4904 31.2512L15.5084 31.3102L28.3853 27.3576L28.3672 27.2986L28.3491 27.2396L15.4723 31.1922L15.4904 31.2512Z" fill="black"/>
<path d="M29.9494 27.1039L29.9463 27.2816L29.1435 27.2928L29.1638 26.1216L29.3711 26.1187L29.3539 27.1123L29.9494 27.1039Z" fill="#060C12"/>
</svg>
