<svg width="176" height="136" viewBox="0 0 176 136" fill="none" xmlns="http://www.w3.org/2000/svg">
<path d="M0 16C0 7.16344 7.16344 0 16 0H160C168.837 0 176 7.16344 176 16V120C176 128.837 168.837 136 160 136H16C7.16344 136 0 128.837 0 120V16Z" fill="white"/>
<path d="M16 0.5H160C168.56 0.5 175.5 7.43959 175.5 16V120C175.5 128.56 168.56 135.5 160 135.5H16C7.43959 135.5 0.5 128.56 0.5 120V16C0.5 7.43959 7.43959 0.5 16 0.5Z" stroke="#B02E0C" stroke-opacity="0.16"/>
<path d="M142.237 33.1768L167.237 58.6768L167.695 59.1436L167.071 59.3389L55.6953 94.1436L55.9043 94.3574H55.0117L54.6895 94.458L54.6582 94.3574H6L6.66602 93.6768L30.4961 69.3486L30.4482 69.2002L30.7344 69.1064L30.9521 68.8857L31.0635 68.999L141.829 33.0762L142.064 33L142.237 33.1768ZM7.90527 93.5566H53.999L30.9521 70.0293L7.90527 93.5566ZM31.6904 69.6377L55.0664 93.502L166.209 58.7695L141.84 33.9141L31.6904 69.6377Z" fill="black"/>
<path d="M6.39616 99.2451L8.76199 100.611V97.8792L6.39616 99.2451ZM26.9844 99.4817H27.221V99.0085H26.9844V99.4817ZM8.52541 99.2451V99.4817H26.9844V99.2451V99.0085H8.52541V99.2451Z" fill="black"/>
<path d="M54.7817 99.2451L52.4159 97.8792L52.4159 100.611L54.7817 99.2451ZM33.1641 99.0085L32.9275 99.0085L32.9275 99.4817L33.1641 99.4817L33.1641 99.0085ZM52.6524 99.2451L52.6524 99.0085L33.1641 99.0085L33.1641 99.2451L33.1641 99.4817L52.6524 99.4817L52.6524 99.2451Z" fill="black"/>
<rect width="4.80004" height="4.11764" transform="translate(32.1328 97.1865) rotate(90)" fill="white"/>
<path d="M30.5392 97.0296L32.2741 101.528H31.4287L30.9997 100.335L29.2206 100.335L28.779 101.528H27.9652L29.7001 97.0296L30.5392 97.0296ZM30.7915 99.7424L30.1228 97.8498L29.4225 99.7424L30.7915 99.7424Z" fill="#060C12"/>
<path d="M169.324 64.8595L166.662 64.2515L167.466 66.8623L169.324 64.8595ZM117.954 80.4604L117.728 80.5302L117.867 80.9824L118.093 80.9126L117.954 80.4604ZM167.29 65.4872L167.22 65.2611L117.954 80.4604L118.023 80.6865L118.093 80.9126L167.359 65.7133L167.29 65.4872Z" fill="black"/>
<path d="M57.1974 99.7759L59.859 100.388L59.0592 97.7756L57.1974 99.7759ZM108.679 84.2208L108.905 84.1514L108.766 83.699L108.54 83.7684L108.679 84.2208ZM59.2329 99.1511L59.3022 99.3773L108.679 84.2208L108.609 83.9946L108.54 83.7684L59.1636 98.9249L59.2329 99.1511Z" fill="black"/>
<path d="M114.667 83.414L114.656 84.0953L111.577 84.1384L111.655 79.6471L112.45 79.636L112.384 83.446L114.667 83.414Z" fill="#060C12"/>
</svg>
