<svg width="46" height="46" viewBox="0 0 46 46" fill="none" xmlns="http://www.w3.org/2000/svg">
<rect width="46" height="46" rx="11.1034" fill="#F3F3F3"/>
<rect x="0.396552" y="0.396552" width="45.2069" height="45.2069" rx="10.7069" stroke="#B02E0C" stroke-opacity="0.04" stroke-width="0.793103"/>
<path d="M23 4.28174C25.6308 4.28175 28.0053 4.7326 29.7168 5.45459C30.5728 5.81572 31.2558 6.24191 31.7227 6.70752C32.1888 7.17245 32.4315 7.66779 32.4316 8.17432C32.4316 8.68097 32.1889 9.17704 31.7227 9.64209C31.2558 10.1076 30.5727 10.5339 29.7168 10.895C28.0054 11.617 25.6308 12.0669 23 12.0669C20.3691 12.0669 17.9937 11.6171 16.2822 10.895C15.4264 10.5339 14.7431 10.1076 14.2764 9.64209C13.8102 9.1771 13.5674 8.6809 13.5674 8.17432C13.5675 7.6679 13.8104 7.17236 14.2764 6.70752C14.7431 6.24198 15.4264 5.81569 16.2822 5.45459C17.9937 4.73256 20.3691 4.28174 23 4.28174Z" stroke="black" stroke-width="0.299434"/>
<path d="M23.001 6.677C24.1432 6.67704 25.1704 6.87629 25.9062 7.19165C26.2742 7.34939 26.5627 7.53308 26.7568 7.72974C26.9504 7.92585 27.043 8.12703 27.043 8.32446C27.0429 8.52177 26.9502 8.72222 26.7568 8.91821C26.5627 9.11495 26.2744 9.29948 25.9062 9.45728C25.1704 9.77263 24.1432 9.97091 23.001 9.97095C21.8589 9.97095 20.8316 9.77257 20.0957 9.45728C19.7275 9.29947 19.4383 9.11497 19.2441 8.91821C19.0509 8.72228 18.9581 8.52171 18.958 8.32446C18.958 8.12706 19.0506 7.92583 19.2441 7.72974C19.4383 7.53298 19.7275 7.34946 20.0957 7.19165C20.8316 6.87631 21.8588 6.677 23.001 6.677Z" stroke="black" stroke-width="0.299434"/>
<path d="M13.5664 8.1748V38.268C13.567 43.2086 31.9822 42.9092 32.4308 38.3152V8.1748" stroke="black" stroke-width="0.299434"/>
</svg>
