<svg width="47" height="47" viewBox="0 0 47 47" fill="none" xmlns="http://www.w3.org/2000/svg">
<rect width="47" height="47" rx="11.3448" fill="#F3F3F3"/>
<rect x="0.405172" y="0.405172" width="46.1897" height="46.1897" rx="10.9397" stroke="#B02E0C" stroke-opacity="0.04" stroke-width="0.810345"/>
<path d="M23.791 3.96533L29.6367 9.90283L29.7412 10.0083L29.6797 10.0698V38.1167L29.624 38.1616L23.5781 43.0503L23.4834 43.1274L23.3887 43.0503L17.3789 38.1616L17.3232 38.1167V10.3433L17.2607 10.2827L17.3672 10.1753L23.5781 3.96436L23.6855 3.85791L23.791 3.96533ZM17.624 37.9741L23.334 42.6187C23.3198 37.6137 23.3025 31.0765 23.2881 25.7485C23.2807 23.0282 23.2742 20.623 23.2695 18.8979C23.2672 18.0354 23.2649 17.3426 23.2637 16.8657C23.263 16.6274 23.263 16.4427 23.2627 16.3179C23.2626 16.2645 23.2627 16.222 23.2627 16.1909L17.624 10.6392V37.9741ZM23.5625 16.187V16.3169C23.5628 16.4417 23.5638 16.6265 23.5645 16.8647C23.5657 17.3416 23.567 18.0345 23.5693 18.897C23.574 20.622 23.5805 23.0273 23.5879 25.7476C23.6023 31.0753 23.6206 37.6128 23.6348 42.6177L29.3799 37.9731V10.3696L23.5625 16.187ZM17.6865 10.2798L23.4092 15.9155L29.3184 10.0063L23.6826 4.28369L17.6865 10.2798ZM27.7295 9.89111L27.7559 9.9165L23.3193 14.353L23.2939 14.3267L19.0664 10.0991L19.0928 10.0737L23.4766 5.68994L23.502 5.66357L27.7295 9.89111Z" fill="black"/>
</svg>
