<svg width="27" height="27" viewBox="0 0 27 27" fill="none" xmlns="http://www.w3.org/2000/svg">
<circle cx="9.73709" cy="5.56522" r="5.56522" fill="#B02E0C"/>
<ellipse cx="9.73913" cy="20.8709" rx="9.73913" ry="5.56522" fill="#B02E0C"/>
<path d="M26.4349 20.8702C26.4349 23.1754 23.6029 25.0441 20.1451 25.0441C21.1638 23.9306 21.8643 22.5329 21.8643 20.8721C21.8643 19.2095 21.1622 17.8105 20.1415 16.6963C23.5993 16.6963 26.4349 18.565 26.4349 20.8702Z" fill="#B02E0C"/>
<path d="M22.261 5.56625C22.261 7.87144 20.3923 9.74016 18.0871 9.74016C17.5845 9.74016 17.1026 9.65131 16.6562 9.48845C17.3145 8.33075 17.6904 6.99162 17.6904 5.56469C17.6904 4.13882 17.315 2.80062 16.6577 1.64351C17.1036 1.48099 17.585 1.39233 18.0871 1.39233C20.3923 1.39233 22.261 3.26106 22.261 5.56625Z" fill="#B02E0C"/>
</svg>
