<svg width="47" height="47" viewBox="0 0 47 47" fill="none" xmlns="http://www.w3.org/2000/svg">
<rect width="47" height="47" rx="11.3448" fill="#F3F3F3"/>
<rect x="0.405172" y="0.405172" width="46.1897" height="46.1897" rx="10.9397" stroke="#B02E0C" stroke-opacity="0.04" stroke-width="0.810345"/>
<path d="M38.2335 16.2458V24.1147C38.2335 26.016 36.6922 27.5573 34.7909 27.5573H13.1516C11.2503 27.5573 9.70898 26.016 9.70898 24.1147V16.2458" stroke="black" stroke-width="0.983606"/>
<path d="M9.70898 31L10.9385 31.7099L10.9385 30.2901L9.70898 31ZM38.2335 31L37.004 30.2901L37.004 31.7099L38.2335 31ZM10.8155 31L10.8155 31.123L37.127 31.123L37.127 31L37.127 30.8771L10.8155 30.877L10.8155 31Z" fill="black"/>
<path d="M23.0619 28.7902H23.8611C24.043 28.7902 24.1832 28.832 24.2816 28.9107C24.3799 28.9894 24.4291 29.0976 24.4291 29.2304C24.4291 29.314 24.4045 29.3902 24.3602 29.4566C24.3135 29.523 24.2521 29.5697 24.1783 29.5992C24.2791 29.6238 24.3602 29.673 24.4193 29.7468C24.4783 29.8205 24.5078 29.914 24.5078 30.0246C24.5078 30.1795 24.4562 30.305 24.3529 30.3984C24.2496 30.4943 24.1168 30.541 23.9545 30.541H23.0619V28.7902ZM23.3619 29.0386V29.5205H23.7799C23.898 29.5205 23.984 29.5033 24.0406 29.4664C24.0947 29.4295 24.1242 29.3681 24.1242 29.2795C24.1242 29.1812 24.0947 29.1172 24.0357 29.0853C23.9766 29.0558 23.8955 29.0386 23.7898 29.0386H23.3619ZM23.3619 29.7418V30.2902H23.8217C23.9398 30.2902 24.0307 30.2705 24.0996 30.2312C24.166 30.1918 24.2004 30.1205 24.2004 30.0172C24.2004 29.9607 24.1881 29.914 24.1684 29.8746C24.1488 29.8353 24.1193 29.8082 24.0799 29.7886C24.0406 29.7713 24.0012 29.759 23.9619 29.7517C23.9201 29.7468 23.8709 29.7418 23.8168 29.7418H23.3619Z" fill="black"/>
<path d="M41.0173 22.3583C41.0001 22.5747 40.9239 22.7468 40.7862 22.8747C40.6485 23.0025 40.4714 23.0665 40.255 23.0665C40.0067 23.0665 39.8075 22.9829 39.66 22.8156C39.51 22.6484 39.4362 22.4271 39.4362 22.1492C39.4362 21.982 39.4682 21.832 39.5321 21.6943C39.596 21.5566 39.6919 21.446 39.8198 21.3624C39.9477 21.2788 40.0977 21.2345 40.2698 21.2345C40.4542 21.2345 40.6165 21.2861 40.7542 21.3894C40.8919 21.4927 40.9731 21.6402 41.0026 21.832H40.6977C40.6755 21.7288 40.6264 21.6452 40.5501 21.5861C40.4714 21.5271 40.378 21.4952 40.2649 21.4952C40.1469 21.4952 40.0485 21.5296 39.9673 21.5935C39.8862 21.6599 39.8296 21.7411 39.7952 21.837C39.7608 21.9329 39.746 22.0361 39.746 22.1492C39.746 22.2353 39.7559 22.3165 39.7755 22.3902C39.7952 22.4665 39.8247 22.5353 39.8641 22.5992C39.9034 22.6632 39.955 22.7124 40.0239 22.7492C40.0928 22.7886 40.1714 22.8058 40.2624 22.8058C40.5231 22.8058 40.6706 22.6583 40.71 22.3583H41.0173Z" fill="black"/>
<path d="M41.7148 16L41.005 17.2295H42.4247L41.7148 16ZM41.7148 28.0492L42.4247 26.8197H41.005L41.7148 28.0492ZM41.7148 17.1066H41.5919V26.9426H41.7148H41.8378V17.1066H41.7148Z" fill="black"/>
<path d="M6.20408 21.2714L6.8803 23.0247H6.5508L6.38358 22.5599H5.69014L5.51801 23.0247H5.2008L5.87703 21.2714H6.20408ZM6.30244 22.3288L6.04178 21.5911L5.76883 22.3288H6.30244Z" fill="black"/>
<path d="M7.53516 16L6.8253 17.2295H8.24501L7.53516 16ZM7.53516 28.0492L8.24501 26.8197H6.8253L7.53516 28.0492ZM7.53516 17.1066H7.41221V26.9426H7.53516H7.65811V17.1066H7.53516Z" fill="black"/>
</svg>
