<svg width="176" height="136" viewBox="0 0 176 136" fill="none" xmlns="http://www.w3.org/2000/svg">
<path d="M0 16C0 7.16344 7.16344 0 16 0H160C168.837 0 176 7.16344 176 16V120C176 128.837 168.837 136 160 136H16C7.16344 136 0 128.837 0 120V16Z" fill="white"/>
<path d="M16 0.5H160C168.56 0.5 175.5 7.43959 175.5 16V120C175.5 128.56 168.56 135.5 160 135.5H16C7.43959 135.5 0.5 128.56 0.5 120V16C0.5 7.43959 7.43959 0.5 16 0.5Z" stroke="#B02E0C" stroke-opacity="0.16"/>
<path d="M147 39V71C147 78.732 140.732 85 133 85H45C37.268 85 31 78.732 31 71V39" stroke="black" stroke-width="4"/>
<path d="M31 99L36 101.887L36 96.1132L31 99ZM147 99L142 96.1133L142 101.887L147 99ZM35.5 99L35.5 99.5L142.5 99.5L142.5 99L142.5 98.5L35.5 98.5L35.5 99Z" fill="black"/>
<path d="M85.2993 88.88H88.5493C89.2893 88.88 89.8593 89.05 90.2593 89.37C90.6593 89.69 90.8593 90.13 90.8593 90.67C90.8593 91.01 90.7593 91.32 90.5793 91.59C90.3893 91.86 90.1393 92.05 89.8393 92.17C90.2493 92.27 90.5793 92.47 90.8193 92.77C91.0593 93.07 91.1793 93.45 91.1793 93.9C91.1793 94.53 90.9693 95.04 90.5493 95.42C90.1293 95.81 89.5893 96 88.9293 96H85.2993V88.88ZM86.5193 89.89V91.85H88.2193C88.6993 91.85 89.0493 91.78 89.2793 91.63C89.4993 91.48 89.6193 91.23 89.6193 90.87C89.6193 90.47 89.4993 90.21 89.2593 90.08C89.0193 89.96 88.6893 89.89 88.2593 89.89H86.5193ZM86.5193 92.75V94.98H88.3893C88.8693 94.98 89.2393 94.9 89.5193 94.74C89.7893 94.58 89.9293 94.29 89.9293 93.87C89.9293 93.64 89.8793 93.45 89.7993 93.29C89.7193 93.13 89.5993 93.02 89.4393 92.94C89.2793 92.87 89.1193 92.82 88.9593 92.79C88.7893 92.77 88.5893 92.75 88.3693 92.75H86.5193Z" fill="black"/>
<path d="M158.321 63.29C158.251 64.17 157.941 64.87 157.381 65.39C156.821 65.91 156.101 66.17 155.221 66.17C154.211 66.17 153.401 65.83 152.801 65.15C152.191 64.47 151.891 63.57 151.891 62.44C151.891 61.76 152.021 61.15 152.281 60.59C152.541 60.03 152.931 59.58 153.451 59.24C153.971 58.9 154.581 58.72 155.281 58.72C156.031 58.72 156.691 58.93 157.251 59.35C157.811 59.77 158.141 60.37 158.261 61.15H157.021C156.931 60.73 156.731 60.39 156.421 60.15C156.101 59.91 155.721 59.78 155.261 59.78C154.781 59.78 154.381 59.92 154.051 60.18C153.721 60.45 153.491 60.78 153.351 61.17C153.211 61.56 153.151 61.98 153.151 62.44C153.151 62.79 153.191 63.12 153.271 63.42C153.351 63.73 153.471 64.01 153.631 64.27C153.791 64.53 154.001 64.73 154.281 64.88C154.561 65.04 154.881 65.11 155.251 65.11C156.311 65.11 156.911 64.51 157.071 63.29H158.321Z" fill="black"/>
<path d="M161.16 38L158.273 43H164.047L161.16 38ZM161.16 87L164.047 82H158.273L161.16 87ZM161.16 42.5H160.66V82.5H161.16H161.66V42.5H161.16Z" fill="black"/>
<path d="M16.7449 58.87L19.4949 66H18.1549L17.4749 64.11H14.6549L13.9549 66H12.6649L15.4149 58.87H16.7449ZM17.1449 63.17L16.0849 60.17L14.9749 63.17H17.1449Z" fill="black"/>
<path d="M22.1602 38L19.2734 43H25.0469L22.1602 38ZM22.1602 87L25.0469 82H19.2734L22.1602 87ZM22.1602 42.5H21.6602V82.5H22.1602H22.6602V42.5H22.1602Z" fill="black"/>
</svg>
