<svg width="176" height="136" viewBox="0 0 176 136" fill="none" xmlns="http://www.w3.org/2000/svg">
<path d="M0 16C0 7.16344 7.16344 0 16 0H160C168.837 0 176 7.16344 176 16V120C176 128.837 168.837 136 160 136H16C7.16344 136 0 128.837 0 120V16Z" fill="white"/>
<path d="M16 0.5H160C168.56 0.5 175.5 7.43959 175.5 16V120C175.5 128.56 168.56 135.5 160 135.5H16C7.43959 135.5 0.5 128.56 0.5 120V16C0.5 7.43959 7.43959 0.5 16 0.5Z" stroke="#B02E0C" stroke-opacity="0.16"/>
<path d="M116.5 45H19V96.5H116.5V45Z" fill="#DBDBDB" stroke="black" stroke-width="0.6"/>
<path d="M46.9618 26L19 45H116.462L144.962 26H46.9618Z" fill="#DBDBDB" stroke="black" stroke-width="0.6"/>
<path d="M145 26L116.5 45V96.5L145 77V26Z" fill="#DBDBDB" stroke="black" stroke-width="0.6"/>
<path d="M19 96.5L47 76.5V26" stroke="black" stroke-width="0.6" stroke-dasharray="1.8 1.8"/>
<path d="M47 76.5L145 77" stroke="black" stroke-width="0.6" stroke-dasharray="1.8 1.8"/>
<path d="M19 102L21 103.155L21 100.845L19 102ZM117 102L115 100.845L115 103.155L117 102ZM20.8 102L20.8 102.2L115.2 102.2L115.2 102L115.2 101.8L20.8 101.8L20.8 102Z" fill="black"/>
<path d="M59.6796 110.136V111H55.7756V105.304H56.7836V110.136H59.6796ZM63.9533 109.712C63.8493 110.16 63.6253 110.512 63.2893 110.76C62.9533 111.016 62.5453 111.136 62.0813 111.136C61.4573 111.136 60.9613 110.936 60.5933 110.536C60.2253 110.136 60.0493 109.616 60.0493 108.984C60.0493 108.344 60.2333 107.808 60.6093 107.384C60.9853 106.968 61.4653 106.752 62.0493 106.752C62.6493 106.752 63.1293 106.96 63.4813 107.376C63.8333 107.792 64.0093 108.352 64.0093 109.064V109.16H60.9613C60.9693 109.576 61.0733 109.904 61.2733 110.128C61.4653 110.352 61.7453 110.464 62.0973 110.464C62.3453 110.464 62.5453 110.408 62.7053 110.288C62.8653 110.168 62.9853 109.976 63.0813 109.712H63.9533ZM63.0973 108.552C63.0653 108.208 62.9613 107.936 62.7693 107.736C62.5773 107.536 62.3373 107.432 62.0413 107.432C61.7373 107.432 61.4973 107.528 61.3133 107.72C61.1293 107.912 61.0173 108.192 60.9773 108.552H63.0973ZM65.5747 106.872V107.48C65.9027 107 66.3587 106.76 66.9427 106.76C67.4067 106.76 67.7587 106.888 67.9907 107.144C68.2227 107.4 68.3427 107.768 68.3427 108.248V111H67.4307V108.6C67.4307 108.44 67.4227 108.304 67.4067 108.192C67.3907 108.08 67.3507 107.968 67.3027 107.856C67.2547 107.744 67.1747 107.664 67.0627 107.608C66.9507 107.552 66.8067 107.52 66.6307 107.52C65.9587 107.52 65.6227 107.944 65.6227 108.776V111H64.7107V106.872H65.5747ZM73.0804 106.872V110.52C73.0804 111.232 72.9284 111.76 72.6244 112.096C72.3204 112.44 71.8164 112.608 71.0964 112.608C69.9604 112.608 69.3444 112.192 69.2484 111.352H70.1604C70.2404 111.768 70.5604 111.968 71.1204 111.968C71.4964 111.968 71.7684 111.872 71.9444 111.68C72.1204 111.488 72.2084 111.184 72.2084 110.752V110.264C71.9044 110.728 71.4724 110.96 70.8964 110.96C70.3444 110.96 69.9044 110.776 69.5844 110.408C69.2644 110.04 69.1044 109.536 69.1044 108.904C69.1044 108.264 69.2724 107.744 69.6084 107.352C69.9444 106.96 70.3844 106.76 70.9444 106.76C71.2324 106.76 71.4804 106.816 71.6804 106.928C71.8724 107.04 72.0564 107.208 72.2324 107.448V106.872H73.0804ZM71.1044 107.496C70.7604 107.496 70.4884 107.624 70.2964 107.864C70.1044 108.112 70.0084 108.456 70.0084 108.888C70.0084 109.304 70.1044 109.64 70.3044 109.88C70.5044 110.128 70.7684 110.248 71.1044 110.248C71.4404 110.248 71.7124 110.128 71.9124 109.872C72.1044 109.616 72.2084 109.272 72.2084 108.84C72.2084 108.424 72.1044 108.096 71.9124 107.856C71.7204 107.616 71.4484 107.496 71.1044 107.496ZM76.0546 106.872V107.536H75.2226V109.712C75.2226 109.84 75.2226 109.936 75.2306 109.984C75.2306 110.032 75.2466 110.088 75.2786 110.152C75.3026 110.216 75.3506 110.256 75.4146 110.272C75.4786 110.296 75.5746 110.304 75.6946 110.304C75.8386 110.304 75.9586 110.304 76.0546 110.288V111.008C75.8706 111.032 75.6626 111.04 75.4386 111.04C75.2786 111.04 75.1346 111.032 75.0146 111.008C74.8946 110.984 74.7986 110.952 74.7186 110.92C74.6386 110.888 74.5666 110.84 74.5186 110.76C74.4626 110.68 74.4226 110.616 74.3906 110.568C74.3586 110.52 74.3426 110.424 74.3266 110.296C74.3106 110.168 74.3106 110.072 74.3106 110.008V109.656V109.608V109.56V109.504V107.536H73.6226V106.872H74.3106V105.632H75.2226V106.872H76.0546ZM77.6147 105.304V107.44C77.9187 106.992 78.3507 106.768 78.9187 106.768C79.3667 106.768 79.7107 106.896 79.9667 107.136C80.2147 107.376 80.3427 107.736 80.3427 108.2V111H79.4227V108.496C79.4227 108.184 79.3667 107.944 79.2547 107.776C79.1427 107.616 78.9347 107.528 78.6227 107.528C78.2707 107.528 78.0147 107.648 77.8547 107.872C77.6947 108.104 77.6147 108.408 77.6147 108.784V111H76.7107V105.304H77.6147Z" fill="black"/>
<path d="M125.38 101.178L126.197 100.574L129.611 103.442L127.972 99.2613L128.789 98.6572L132.274 101.473L130.558 97.3491L131.375 96.745L133.494 102.262L132.677 102.866L129.149 100.032L130.806 104.25L129.976 104.864L125.38 101.178ZM132.527 95.8632L133.06 96.5836L132.326 97.1259L131.794 96.4055L132.527 95.8632ZM133.473 97.1432L135.928 100.462L135.195 101.005L132.74 97.6855L133.473 97.1432ZM136.485 92.9657L139.872 97.5454L139.184 98.0544L138.846 97.5977C138.905 98.1213 138.684 98.563 138.189 98.9293C137.72 99.2765 137.232 99.398 136.718 99.281C136.208 99.1703 135.759 98.8457 135.36 98.3054C134.97 97.7779 134.791 97.2535 134.828 96.7385C134.865 96.2236 135.113 95.7916 135.576 95.4492C136.039 95.1067 136.521 95.0187 137.016 95.1901L135.765 93.4984L136.485 92.9657ZM136.149 95.941C135.866 96.1503 135.723 96.415 135.714 96.7397C135.706 97.0645 135.833 97.3981 136.09 97.7455C136.361 98.1121 136.652 98.3445 136.972 98.4267C137.296 98.5153 137.597 98.4517 137.887 98.2376C138.17 98.0283 138.319 97.7589 138.327 97.4342C138.336 97.1094 138.21 96.7646 137.939 96.3979C137.673 96.0377 137.38 95.8166 137.06 95.7344C136.746 95.6587 136.444 95.7222 136.149 95.941ZM139.826 92.4458L140.22 92.9797L139.551 93.4744L140.845 95.224C140.921 95.3269 140.978 95.4041 141.013 95.4379C141.042 95.4765 141.088 95.512 141.152 95.5444C141.209 95.5816 141.272 95.5853 141.333 95.5601C141.398 95.5413 141.48 95.4907 141.577 95.4193C141.692 95.3337 141.789 95.2623 141.857 95.1924L142.285 95.7713C142.151 95.9 141.989 96.0301 141.808 96.1633C141.68 96.2584 141.559 96.3376 141.449 96.3897C141.338 96.4417 141.242 96.4731 141.158 96.4949C141.075 96.5167 140.988 96.521 140.902 96.4852C140.81 96.4542 140.739 96.4265 140.685 96.4069C140.631 96.3873 140.561 96.3197 140.472 96.2263C140.383 96.1329 140.326 96.0557 140.288 96.0042L140.079 95.7212L140.05 95.6826L140.022 95.644L139.988 95.599L138.818 94.0167L138.265 94.4257L137.87 93.8918L138.423 93.4828L137.686 92.4858L138.419 91.9435L139.157 92.9405L139.826 92.4458ZM140.148 90.2575L141.418 91.9749C141.396 91.434 141.61 90.997 142.066 90.6593C142.427 90.3929 142.779 90.2913 143.128 90.332C143.47 90.3775 143.787 90.5909 144.063 90.964L145.728 93.2153L144.988 93.7623L143.499 91.749C143.314 91.4981 143.126 91.3384 142.936 91.27C142.751 91.2079 142.531 91.2608 142.28 91.4463C141.997 91.6556 141.863 91.9043 141.867 92.1796C141.877 92.4612 141.993 92.7532 142.217 93.0555L143.534 94.8373L142.807 95.3748L139.421 90.795L140.148 90.2575Z" fill="black"/>
<path d="M117.5 102L119.798 101.77L118.449 99.8948L117.5 102ZM146 81.5L143.702 81.7305L145.051 83.6052L146 81.5ZM118.961 100.949L119.078 101.111L144.656 82.7134L144.539 82.5511L144.422 82.3887L118.844 100.787L118.961 100.949Z" fill="black"/>
<path d="M156.329 40.9164L156.329 43.0844C156.329 43.4764 156.281 43.8204 156.201 44.1244C156.121 44.4204 155.969 44.6924 155.745 44.9484C155.241 45.5084 154.521 45.7884 153.577 45.7884C152.569 45.7884 151.793 45.5164 151.265 44.9884C151.025 44.7484 150.865 44.4924 150.769 44.2204C150.673 43.9484 150.633 43.5884 150.633 43.1404L150.633 40.9164L156.329 40.9164ZM155.481 41.9084L151.473 41.9084L151.473 43.0844C151.473 43.7084 151.649 44.1484 152.017 44.4044C152.377 44.6604 152.881 44.7884 153.529 44.7884C154.137 44.7884 154.617 44.6444 154.961 44.3564C155.305 44.0684 155.481 43.6204 155.481 43.0204L155.481 41.9084ZM151.921 50.2658C151.473 50.1618 151.121 49.9378 150.873 49.6018C150.617 49.2658 150.497 48.8578 150.497 48.3938C150.497 47.7698 150.697 47.2738 151.097 46.9058C151.497 46.5378 152.017 46.3618 152.649 46.3618C153.289 46.3618 153.825 46.5458 154.249 46.9218C154.665 47.2978 154.881 47.7778 154.881 48.3618C154.881 48.9618 154.673 49.4418 154.257 49.7938C153.841 50.1458 153.281 50.3218 152.569 50.3218L152.473 50.3218L152.473 47.2738C152.057 47.2818 151.729 47.3858 151.505 47.5858C151.281 47.7778 151.169 48.0578 151.169 48.4098C151.169 48.6578 151.225 48.8578 151.345 49.0178C151.465 49.1778 151.657 49.2978 151.921 49.3938L151.921 50.2658ZM153.081 49.4098C153.425 49.3778 153.697 49.2738 153.897 49.0818C154.097 48.8898 154.201 48.6498 154.201 48.3538C154.201 48.0498 154.105 47.8098 153.913 47.6258C153.721 47.4418 153.441 47.3298 153.081 47.2898L153.081 49.4098ZM154.761 51.8872L154.209 51.8872C154.657 52.1592 154.881 52.6072 154.881 53.2312C154.881 53.7992 154.681 54.2552 154.281 54.5992C153.881 54.9352 153.345 55.1112 152.681 55.1112C152.025 55.1112 151.505 54.9432 151.113 54.6072C150.721 54.2712 150.529 53.8312 150.529 53.2792C150.529 52.6872 150.745 52.2392 151.177 51.9352L149.105 51.9352L149.105 51.0312L154.761 51.0312L154.761 51.8872ZM154.145 53.0472C154.145 52.6872 154.017 52.4072 153.761 52.2072C153.505 51.9992 153.145 51.9032 152.697 51.9032C152.249 51.9032 151.897 51.9992 151.641 52.2072C151.385 52.4152 151.257 52.6952 151.257 53.0632C151.257 53.4072 151.385 53.6792 151.641 53.8872C151.897 54.0872 152.241 54.1912 152.681 54.1912C153.129 54.1912 153.481 54.0872 153.745 53.8792C154.009 53.6712 154.145 53.3992 154.145 53.0472ZM154.761 57.9218L154.097 57.9218L154.097 57.0898L151.921 57.0898C151.793 57.0898 151.697 57.0898 151.649 57.0978C151.601 57.0978 151.545 57.1138 151.481 57.1458C151.417 57.1698 151.377 57.2178 151.361 57.2818C151.337 57.3458 151.329 57.4418 151.329 57.5618C151.329 57.7058 151.329 57.8258 151.345 57.9218L150.625 57.9218C150.601 57.7378 150.593 57.5298 150.593 57.3058C150.593 57.1458 150.601 57.0018 150.625 56.8818C150.649 56.7618 150.681 56.6658 150.713 56.5858C150.745 56.5058 150.793 56.4338 150.873 56.3858C150.953 56.3298 151.017 56.2898 151.065 56.2578C151.113 56.2258 151.209 56.2098 151.337 56.1938C151.465 56.1778 151.561 56.1778 151.625 56.1778L151.977 56.1778L152.025 56.1778L152.073 56.1778L152.129 56.1778L154.097 56.1778L154.097 55.4898L154.761 55.4898L154.761 56.1778L156.001 56.1778L156.001 57.0898L154.761 57.0898L154.761 57.9218ZM156.329 59.4818L154.193 59.4818C154.641 59.7858 154.865 60.2178 154.865 60.7858C154.865 61.2338 154.737 61.5778 154.497 61.8338C154.257 62.0818 153.897 62.2098 153.433 62.2098L150.633 62.2098L150.633 61.2898L153.137 61.2898C153.449 61.2898 153.689 61.2338 153.857 61.1218C154.017 61.0098 154.105 60.8018 154.105 60.4898C154.105 60.1378 153.985 59.8818 153.761 59.7218C153.529 59.5618 153.225 59.4818 152.849 59.4818L150.633 59.4818L150.633 58.5778L156.329 58.5778L156.329 59.4818Z" fill="black"/>
<path d="M149 26L147.845 28L150.155 28L149 26ZM149 77L150.155 75L147.845 75L149 77ZM149 27.8L148.8 27.8L148.8 75.2L149 75.2L149.2 75.2L149.2 27.8L149 27.8Z" fill="black"/>
</svg>
