<svg width="58" height="58" viewBox="0 0 58 58" fill="none" xmlns="http://www.w3.org/2000/svg">
<rect width="58" height="58" rx="14" fill="#F3F3F3"/>
<rect x="0.5" y="0.5" width="57" height="57" rx="13.5" stroke="#B02E0C" stroke-opacity="0.04"/>
<path d="M39.4198 20.5542H4.00781V39.259H39.4198V20.5542Z" fill="#DBDBDB" stroke="black" stroke-width="0.21792"/>
<path d="M14.1635 13.6533L4.00781 20.5541H39.4059L49.7571 13.6533H14.1635Z" fill="#DBDBDB" stroke="black" stroke-width="0.21792"/>
<path d="M49.7731 13.6533L39.4219 20.5541V39.2589L49.7731 32.1765V13.6533Z" fill="#DBDBDB" stroke="black" stroke-width="0.21792"/>
<path d="M4.00781 39.2589L14.1774 31.9949V13.6533" stroke="black" stroke-width="0.21792" stroke-dasharray="0.65 0.65"/>
<path d="M14.1797 31.9951L49.7732 32.1767" stroke="black" stroke-width="0.21792" stroke-dasharray="0.65 0.65"/>
<path d="M4.00781 41.2563L4.73421 41.6757L4.73421 40.837L4.00781 41.2563ZM39.6014 41.2564L38.875 40.837L38.875 41.6757L39.6014 41.2564ZM4.66157 41.2563L4.66157 41.329L38.9476 41.329L38.9476 41.2564L38.9476 41.1837L4.66157 41.1837L4.66157 41.2563Z" fill="black"/>
<path d="M18.7826 44.0319V44.3457H17.3647V42.2769H17.7308V44.0319H18.7826ZM20.3348 43.8779C20.2971 44.0406 20.2157 44.1685 20.0937 44.2585C19.9716 44.3515 19.8235 44.3951 19.6549 44.3951C19.4283 44.3951 19.2482 44.3225 19.1145 44.1772C18.9808 44.0319 18.9169 43.843 18.9169 43.6135C18.9169 43.381 18.9837 43.1864 19.1203 43.0324C19.2569 42.8813 19.4312 42.8028 19.6433 42.8028C19.8612 42.8028 20.0356 42.8784 20.1634 43.0295C20.2913 43.1806 20.3552 43.384 20.3552 43.6425V43.6774H19.2482C19.2511 43.8285 19.2888 43.9476 19.3615 44.029C19.4312 44.1103 19.5329 44.151 19.6607 44.151C19.7508 44.151 19.8235 44.1307 19.8816 44.0871C19.9397 44.0435 19.9833 43.9738 20.0181 43.8779H20.3348ZM20.0239 43.4566C20.0123 43.3317 19.9745 43.2329 19.9048 43.1602C19.8351 43.0876 19.7479 43.0498 19.6404 43.0498C19.53 43.0498 19.4428 43.0847 19.376 43.1544C19.3092 43.2241 19.2685 43.3258 19.254 43.4566H20.0239ZM20.9237 42.8464V43.0672C21.0428 42.8929 21.2085 42.8057 21.4206 42.8057C21.5891 42.8057 21.7169 42.8522 21.8012 42.9452C21.8855 43.0382 21.929 43.1718 21.929 43.3462V44.3457H21.5978V43.474C21.5978 43.4159 21.5949 43.3665 21.5891 43.3258C21.5833 43.2852 21.5687 43.2445 21.5513 43.2038C21.5339 43.1631 21.5048 43.1341 21.4641 43.1137C21.4235 43.0934 21.3712 43.0818 21.3072 43.0818C21.0632 43.0818 20.9411 43.2358 20.9411 43.5379V44.3457H20.6099V42.8464H20.9237ZM23.6498 42.8464V44.1714C23.6498 44.43 23.5946 44.6217 23.4842 44.7438C23.3738 44.8687 23.1907 44.9297 22.9292 44.9297C22.5166 44.9297 22.2929 44.7786 22.258 44.4735H22.5892C22.6183 44.6246 22.7345 44.6973 22.9379 44.6973C23.0745 44.6973 23.1733 44.6624 23.2372 44.5927C23.3011 44.5229 23.3331 44.4125 23.3331 44.2556V44.0784C23.2227 44.2469 23.0658 44.3312 22.8566 44.3312C22.6561 44.3312 22.4963 44.2643 22.38 44.1307C22.2638 43.997 22.2057 43.814 22.2057 43.5844C22.2057 43.352 22.2667 43.1631 22.3888 43.0208C22.5108 42.8784 22.6706 42.8057 22.874 42.8057C22.9786 42.8057 23.0687 42.8261 23.1413 42.8668C23.211 42.9074 23.2779 42.9685 23.3418 43.0556V42.8464H23.6498ZM22.9321 43.0731C22.8072 43.0731 22.7084 43.1195 22.6386 43.2067C22.5689 43.2968 22.534 43.4217 22.534 43.5786C22.534 43.7297 22.5689 43.8518 22.6415 43.9389C22.7142 44.029 22.8101 44.0726 22.9321 44.0726C23.0541 44.0726 23.1529 44.029 23.2256 43.936C23.2953 43.843 23.3331 43.7181 23.3331 43.5612C23.3331 43.4101 23.2953 43.291 23.2256 43.2038C23.1558 43.1166 23.057 43.0731 22.9321 43.0731ZM24.73 42.8464V43.0876H24.4278V43.8779C24.4278 43.9244 24.4278 43.9593 24.4307 43.9767C24.4307 43.9941 24.4365 44.0145 24.4482 44.0377C24.4569 44.061 24.4743 44.0755 24.4976 44.0813C24.5208 44.09 24.5557 44.0929 24.5993 44.0929C24.6516 44.0929 24.6951 44.0929 24.73 44.0871V44.3486C24.6632 44.3573 24.5876 44.3602 24.5063 44.3602C24.4482 44.3602 24.3959 44.3573 24.3523 44.3486C24.3087 44.3399 24.2738 44.3283 24.2448 44.3166C24.2157 44.305 24.1896 44.2876 24.1721 44.2585C24.1518 44.2295 24.1373 44.2062 24.1256 44.1888C24.114 44.1714 24.1082 44.1365 24.1024 44.09C24.0966 44.0435 24.0966 44.0087 24.0966 43.9854V43.8576V43.8401V43.8227V43.8024V43.0876H23.8467V42.8464H24.0966V42.396H24.4278V42.8464H24.73ZM25.2966 42.2769V43.0527C25.407 42.89 25.5639 42.8086 25.7702 42.8086C25.9329 42.8086 26.0579 42.8551 26.1509 42.9423C26.2409 43.0295 26.2874 43.1602 26.2874 43.3287V44.3457H25.9533V43.4363C25.9533 43.3229 25.9329 43.2358 25.8923 43.1747C25.8516 43.1166 25.776 43.0847 25.6627 43.0847C25.5349 43.0847 25.4419 43.1283 25.3838 43.2096C25.3257 43.2939 25.2966 43.4043 25.2966 43.5409V44.3457H24.9683V42.2769H25.2966Z" fill="black"/>
<path d="M42.5431 40.8112L42.8398 40.5918L44.0799 41.6334L43.4846 40.115L43.7813 39.8956L45.047 40.9182L44.4237 39.4205L44.7204 39.2011L45.4903 41.2048L45.1936 41.4242L43.9121 40.3951L44.5137 41.9269L44.2124 42.1498L42.5431 40.8112ZM45.1389 38.8808L45.3324 39.1424L45.066 39.3394L44.8725 39.0777L45.1389 38.8808ZM45.4827 39.3457L46.3741 40.5512L46.1078 40.7481L45.2163 39.5426L45.4827 39.3457ZM46.5766 37.8284L47.8067 39.4918L47.5567 39.6766L47.4341 39.5108C47.4554 39.7009 47.3753 39.8614 47.1954 39.9944C47.0249 40.1205 46.8479 40.1646 46.6611 40.1221C46.476 40.0819 46.3129 39.964 46.1678 39.7678C46.0261 39.5762 45.9612 39.3857 45.9746 39.1987C45.9881 39.0117 46.0781 38.8548 46.2463 38.7304C46.4145 38.606 46.5896 38.5741 46.7693 38.6363L46.315 38.0219L46.5766 37.8284ZM46.4543 38.9091C46.3515 38.9851 46.2997 39.0812 46.2966 39.1991C46.2934 39.3171 46.3397 39.4383 46.433 39.5644C46.5315 39.6976 46.6372 39.782 46.7533 39.8118C46.871 39.844 46.9804 39.8209 47.0856 39.7432C47.1884 39.6672 47.2425 39.5693 47.2456 39.4514C47.2487 39.3334 47.2031 39.2082 47.1046 39.075C47.0079 38.9442 46.9015 38.8639 46.7854 38.834C46.6711 38.8065 46.5617 38.8296 46.4543 38.9091ZM47.7898 37.6396L47.9331 37.8335L47.6902 38.0132L48.1601 38.6486C48.1877 38.686 48.2085 38.714 48.2212 38.7263C48.2315 38.7403 48.2483 38.7532 48.2715 38.765C48.2923 38.7785 48.315 38.7798 48.3371 38.7707C48.361 38.7639 48.3907 38.7455 48.4258 38.7196C48.4678 38.6885 48.5029 38.6626 48.5274 38.6372L48.6829 38.8474C48.6344 38.8942 48.5754 38.9414 48.51 38.9898C48.4632 39.0243 48.4195 39.0531 48.3792 39.072C48.339 39.0909 48.3041 39.1023 48.2738 39.1102C48.2435 39.1182 48.2121 39.1197 48.1808 39.1067C48.1472 39.0954 48.1217 39.0854 48.102 39.0783C48.0823 39.0712 48.0569 39.0466 48.0246 39.0127C47.9922 38.9787 47.9715 38.9507 47.9577 38.932L47.8817 38.8292L47.8713 38.8152L47.8609 38.8012L47.8488 38.7848L47.4239 38.2101L47.2229 38.3587L47.0795 38.1648L47.2805 38.0162L47.0127 37.6541L47.279 37.4572L47.5468 37.8193L47.7898 37.6396ZM47.9067 36.8448L48.368 37.4686C48.36 37.2721 48.4378 37.1134 48.6037 36.9907C48.7345 36.894 48.8626 36.8571 48.9892 36.8719C49.1134 36.8884 49.2286 36.9659 49.3288 37.1014L49.9334 37.9191L49.6648 38.1177L49.124 37.3865C49.0566 37.2954 48.9885 37.2374 48.9195 37.2125C48.8522 37.19 48.7725 37.2092 48.6814 37.2766C48.5786 37.3526 48.5297 37.4429 48.5314 37.5429C48.5347 37.6452 48.577 37.7513 48.6582 37.8611L49.1368 38.5082L48.8728 38.7034L47.6427 37.04L47.9067 36.8448Z" fill="black"/>
<path d="M39.7812 41.2561L40.6158 41.1724L40.1261 40.4915L39.7812 41.2561ZM50.1324 33.8105L49.2978 33.8943L49.7876 34.5752L50.1324 33.8105ZM40.312 40.8744L40.3544 40.9334L49.6441 34.2513L49.6017 34.1923L49.5593 34.1333L40.2696 40.8154L40.312 40.8744Z" fill="black"/>
<path d="M54.061 19.3948L54.061 20.1822C54.061 20.3246 54.0435 20.4495 54.0145 20.56C53.9854 20.6675 53.9302 20.7663 53.8489 20.8592C53.6658 21.0626 53.4043 21.1643 53.0614 21.1643C52.6953 21.1643 52.4135 21.0655 52.2217 20.8738C52.1346 20.7866 52.0764 20.6936 52.0416 20.5948C52.0067 20.496 51.9922 20.3653 51.9922 20.2026L51.9922 19.3948L54.061 19.3948ZM53.753 19.7551L52.2973 19.7551L52.2973 20.1822C52.2973 20.4089 52.3612 20.5687 52.4949 20.6617C52.6256 20.7546 52.8087 20.8011 53.044 20.8011C53.2648 20.8011 53.4392 20.7488 53.5641 20.6442C53.6891 20.5396 53.753 20.3769 53.753 20.159L53.753 19.7551ZM52.46 22.7905C52.2973 22.7528 52.1694 22.6714 52.0794 22.5494C51.9864 22.4273 51.9428 22.2791 51.9428 22.1106C51.9428 21.884 52.0154 21.7038 52.1607 21.5702C52.306 21.4365 52.4949 21.3726 52.7244 21.3726C52.9568 21.3726 53.1515 21.4394 53.3055 21.576C53.4566 21.7125 53.5351 21.8869 53.5351 22.099C53.5351 22.3169 53.4595 22.4912 53.3084 22.6191C53.1573 22.7469 52.9539 22.8109 52.6953 22.8109L52.6605 22.8109L52.6605 21.7038C52.5094 21.7067 52.3903 21.7445 52.3089 21.8172C52.2275 21.8869 52.1869 21.9886 52.1869 22.1164C52.1869 22.2065 52.2072 22.2791 52.2508 22.3373C52.2944 22.3954 52.3641 22.4389 52.46 22.4738L52.46 22.7905ZM52.8813 22.4796C53.0062 22.468 53.105 22.4302 53.1777 22.3605C53.2503 22.2908 53.2881 22.2036 53.2881 22.0961C53.2881 21.9857 53.2532 21.8985 53.1835 21.8317C53.1137 21.7648 53.0121 21.7242 52.8813 21.7096L52.8813 22.4796ZM53.4915 23.3794L53.291 23.3794C53.4537 23.4782 53.5351 23.6409 53.5351 23.8675C53.5351 24.0738 53.4624 24.2394 53.3171 24.3644C53.1719 24.4864 52.9772 24.5503 52.736 24.5503C52.4978 24.5503 52.3089 24.4893 52.1665 24.3673C52.0241 24.2453 51.9544 24.0854 51.9544 23.885C51.9544 23.6699 52.0329 23.5072 52.1898 23.3968L51.4372 23.3968L51.4372 23.0685L53.4915 23.0685L53.4915 23.3794ZM53.2677 23.8007C53.2677 23.6699 53.2213 23.5682 53.1283 23.4956C53.0353 23.4201 52.9045 23.3852 52.7418 23.3852C52.5791 23.3852 52.4513 23.4201 52.3583 23.4956C52.2653 23.5712 52.2188 23.6728 52.2188 23.8065C52.2188 23.9314 52.2653 24.0302 52.3583 24.1058C52.4513 24.1784 52.5762 24.2162 52.736 24.2162C52.8987 24.2162 53.0266 24.1784 53.1225 24.1029C53.2183 24.0273 53.2677 23.9285 53.2677 23.8007ZM53.4915 25.5712L53.2503 25.5712L53.2503 25.269L52.46 25.269C52.4135 25.269 52.3786 25.269 52.3612 25.2719C52.3438 25.2719 52.3234 25.2777 52.3002 25.2893C52.2769 25.298 52.2624 25.3155 52.2566 25.3387C52.2479 25.362 52.245 25.3968 52.245 25.4404C52.245 25.4927 52.245 25.5363 52.2508 25.5712L51.9893 25.5712C51.9806 25.5043 51.9777 25.4288 51.9777 25.3474C51.9777 25.2893 51.9806 25.237 51.9893 25.1934C51.998 25.1498 52.0096 25.115 52.0212 25.0859C52.0329 25.0569 52.0503 25.0307 52.0794 25.0133C52.1084 24.9929 52.1317 24.9784 52.1491 24.9668C52.1665 24.9552 52.2014 24.9494 52.2479 24.9435C52.2944 24.9377 52.3292 24.9377 52.3525 24.9377L52.4803 24.9377L52.4978 24.9377L52.5152 24.9377L52.5355 24.9377L53.2503 24.9377L53.2503 24.6879L53.4915 24.6879L53.4915 24.9377L53.9418 24.9377L53.9418 25.269L53.4915 25.269L53.4915 25.5712ZM54.061 26.1378L53.2852 26.1378C53.4479 26.2482 53.5292 26.4051 53.5292 26.6114C53.5292 26.7741 53.4828 26.899 53.3956 26.992C53.3084 27.0821 53.1777 27.1286 53.0091 27.1286L51.9922 27.1286L51.9922 26.7944L52.9016 26.7944C53.015 26.7944 53.1021 26.7741 53.1631 26.7334C53.2213 26.6927 53.2532 26.6172 53.2532 26.5039C53.2532 26.376 53.2096 26.2831 53.1283 26.2249C53.044 26.1668 52.9336 26.1378 52.797 26.1378L51.9922 26.1378L51.9922 25.8094L54.061 25.8094L54.061 26.1378Z" fill="black"/>
<path d="M51.2266 13.6533L50.8072 14.3797L51.6459 14.3797L51.2266 13.6533ZM51.2266 32.1765L51.6459 31.4501L50.8072 31.4501L51.2266 32.1765ZM51.2266 14.3071L51.1539 14.3071L51.1539 31.5227L51.2266 31.5227L51.2992 31.5227L51.2992 14.3071L51.2266 14.3071Z" fill="black"/>
</svg>
