<svg width="176" height="136" viewBox="0 0 176 136" fill="none" xmlns="http://www.w3.org/2000/svg">
<path d="M0 16C0 7.16344 7.16344 0 16 0H160C168.837 0 176 7.16344 176 16V120C176 128.837 168.837 136 160 136H16C7.16344 136 0 128.837 0 120V16Z" fill="white"/>
<path d="M16 0.5H160C168.56 0.5 175.5 7.43959 175.5 16V120C175.5 128.56 168.56 135.5 160 135.5H16C7.43959 135.5 0.5 128.56 0.5 120V16C0.5 7.43959 7.43959 0.5 16 0.5Z" stroke="#B02E0C" stroke-opacity="0.16"/>
<path d="M32.6715 47.2412H24V113.5H77.8075V101.049H32.6715V47.2412Z" stroke="black" stroke-width="0.44469"/>
<path d="M77.8086 101.049L152.961 67.2524V79.641L77.8086 113.5" stroke="black" stroke-width="0.44469"/>
<path d="M24 47.2411L99.5973 13H108.269L32.6715 47.2411" stroke="black" stroke-width="0.44469"/>
<path d="M108.047 13V67.2522H152.961" stroke="black" stroke-width="0.44469"/>
<path d="M32.6719 101.049L108.047 67.2524" stroke="black" stroke-width="0.44469"/>
<path d="M27.5 57L25.5 55.8453V58.1547L27.5 57ZM25.7 57V56.8H17V57V57.2H25.7V57Z" fill="black"/>
<path d="M15.6422 54.5747V55.2459H14.2313V59H13.4544V55.2459H12.0435V54.5747H15.6422Z" fill="black"/>
<path d="M49.0497 118.575H49.8391L50.6471 121.943L51.5545 118.575H52.3439L53.2202 121.943L54.0531 118.575H54.8424L53.618 123H52.8287L51.9337 119.6L51.02 123H50.2182L49.0497 118.575Z" fill="black"/>
<path d="M118.493 106.329V107H115.46V102.575H116.243V106.329H118.493Z" fill="black"/>
<path d="M159.466 70.5747H161.151C161.455 70.5747 161.722 70.612 161.959 70.6741C162.188 70.7363 162.4 70.8544 162.599 71.0284C163.034 71.42 163.251 71.9793 163.251 72.7127C163.251 73.4959 163.04 74.0988 162.63 74.509C162.443 74.6954 162.244 74.8198 162.033 74.8943C161.822 74.9689 161.542 75 161.194 75H159.466V70.5747ZM160.237 71.2335V74.3474H161.151C161.635 74.3474 161.977 74.2106 162.176 73.9247C162.375 73.6451 162.474 73.2535 162.474 72.75C162.474 72.2777 162.363 71.9048 162.139 71.6375C161.915 71.3702 161.567 71.2335 161.101 71.2335H160.237Z" fill="black"/>
<path d="M42.0338 68.5747V73H41.2568V71.0111H39.2306V73H38.4537V68.5747H39.2306V70.3336H41.2568V68.5747H42.0338Z" fill="black"/>
<path d="M36 48.5L34.8453 50.5H37.1547L36 48.5ZM36 96.5L37.1547 94.5H34.8453L36 96.5ZM36 50.3H35.8V94.7H36H36.2V50.3H36Z" fill="black"/>
<path d="M24 117L26 118.155V115.845L24 117ZM77.5 117L75.5 115.845V118.155L77.5 117ZM25.8 117V117.2H75.7V117V116.8H25.8V117Z" fill="black"/>
<path d="M79.5 117L81.7982 117.227L80.8458 115.123L79.5 117ZM153.5 83.5L151.202 83.2729L152.154 85.3768L153.5 83.5ZM81.1398 116.258L81.2223 116.44L151.943 84.4245L151.86 84.2423L151.778 84.0601L81.0573 116.075L81.1398 116.258Z" fill="black"/>
<path d="M157 67L155.845 69H158.155L157 67ZM157 79.5L158.155 77.5H155.845L157 79.5ZM157 68.8H156.8V77.7H157H157.2V68.8H157Z" fill="black"/>
</svg>
