<svg width="176" height="136" viewBox="0 0 176 136" fill="none" xmlns="http://www.w3.org/2000/svg">
<path d="M0 16C0 7.16344 7.16344 0 16 0H160C168.837 0 176 7.16344 176 16V120C176 128.837 168.837 136 160 136H16C7.16344 136 0 128.837 0 120V16Z" fill="white"/>
<path d="M16 0.5H160C168.56 0.5 175.5 7.43959 175.5 16V120C175.5 128.56 168.56 135.5 160 135.5H16C7.43959 135.5 0.5 128.56 0.5 120V16C0.5 7.43959 7.43959 0.5 16 0.5Z" stroke="#B02E0C" stroke-opacity="0.16"/>
<path d="M124.925 21.4209L124.621 21.5557L124.835 66.7744L162.752 66.5596L163.021 66.4375V77.7695L162.892 77.8281L99.2393 106.189V106.268H22.8672V95.6309H23.0254L52.8057 77.5029V49.6377H52.9756L116.718 21.0186L116.761 21H124.835L124.925 21.4209ZM53.2461 96.0703H23.3066V105.827H98.7988V96.0703H60.6162V50.0771H53.2461V96.0703ZM99.2393 95.9912V105.707L162.582 77.4834V67.1201L99.2393 95.9912ZM23.8721 95.6309H52.8057V78.0176L23.8721 95.6309ZM124.666 67.2148L61.8535 95.6309H98.9707L161.775 67.0039L124.666 67.2148ZM61.0557 49.999V95.5088L124.396 66.8545L124.183 21.752L61.0557 49.999ZM54.0498 49.6377H60.7861L123.805 21.4395H116.856L54.0498 49.6377Z" fill="black"/>
<path d="M100 109.633L102.298 109.859L101.345 107.756L100 109.633ZM164 80.6328L161.702 80.4065L162.655 82.51L164 80.6328ZM101.64 108.89L101.722 109.072L162.443 81.5579L162.36 81.3757L162.278 81.1936L101.557 108.708L101.64 108.89Z" fill="black"/>
<path d="M136.372 99.4848V100.133H133.444V95.8608H134.2V99.4848H136.372Z" fill="black"/>
<path d="M58.048 110.861H58.81L59.59 114.113L60.466 110.861H61.228L62.074 114.113L62.878 110.861H63.64L62.458 115.133H61.696L60.832 111.851L59.95 115.133H59.176L58.048 110.861Z" fill="black"/>
<path d="M12.45 98.8608H14.076C14.37 98.8608 14.628 98.8968 14.856 98.9568C15.078 99.0168 15.282 99.1308 15.474 99.2988C15.894 99.6768 16.104 100.217 16.104 100.925C16.104 101.681 15.9 102.263 15.504 102.659C15.324 102.839 15.132 102.959 14.928 103.031C14.724 103.103 14.454 103.133 14.118 103.133H12.45V98.8608ZM13.194 99.4968V102.503H14.076C14.544 102.503 14.874 102.371 15.066 102.095C15.258 101.825 15.354 101.447 15.354 100.961C15.354 100.505 15.246 100.145 15.03 99.8868C14.814 99.6288 14.478 99.4968 14.028 99.4968H13.194Z" fill="black"/>
<path d="M40.894 69.8608V74.1328H40.144V72.2128H38.188V74.1328H37.438V69.8608H38.188V71.5588H40.144V69.8608H40.894Z" fill="black"/>
<path d="M56.516 30.8608V31.5088H55.154V35.1328H54.404V31.5088H53.042V30.8608H56.516Z" fill="black"/>
<path d="M51 50.1328L49 48.9781V51.2875L51 50.1328ZM43 50.1328V49.9328H42.8V50.1328H43ZM43 93.1328L44.1547 91.1328H41.8453L43 93.1328ZM49.2 50.1328V49.9328H43V50.1328V50.3328H49.2V50.1328ZM43 50.1328H42.8V91.3328H43H43.2V50.1328H43Z" fill="black"/>
<path d="M23 109.133L25 110.288V107.978L23 109.133ZM99 109.133L97 107.978V110.288L99 109.133ZM24.8 109.133V109.333H97.2V109.133V108.933H24.8V109.133Z" fill="black"/>
<path d="M19.5 95.6328L18.3453 97.6328H20.6547L19.5 95.6328ZM19.5 106.133L20.6547 104.133H18.3453L19.5 106.133ZM19.5 97.4328H19.3V104.333H19.5H19.7V97.4328H19.5Z" fill="black"/>
<path d="M69 45.1328L68.4997 42.8782L66.7974 44.4388L69 45.1328ZM67.7837 43.8059L67.9311 43.6708L58.1474 32.9977L58 33.1328L57.8526 33.268L67.6363 43.9411L67.7837 43.8059Z" fill="black"/>
</svg>
