<svg width="47" height="47" viewBox="0 0 47 47" fill="none" xmlns="http://www.w3.org/2000/svg">
<rect width="47" height="47" rx="11.3448" fill="#F3F3F3"/>
<rect x="0.405172" y="0.405172" width="46.1897" height="46.1897" rx="10.9397" stroke="#B02E0C" stroke-opacity="0.04" stroke-width="0.810345"/>
<path d="M32.333 11.8403L32.249 11.8774L32.3086 24.3667L42.7803 24.3081L42.8564 24.2739V27.4038L42.8203 27.4204L25.2383 35.2534V35.2759H4.14453V32.3374H4.18848L12.4141 27.3296V19.6343H12.46L30.0664 11.729L30.0781 11.7241H32.3076L32.333 11.8403ZM12.5352 32.4595H4.26562V35.1538H25.1172V32.4595H14.5713V19.7554H12.5352V32.4595ZM25.2383 32.438V35.1206L42.7354 27.3247V24.4634L25.2383 32.438ZM4.4209 32.3374H12.4141V27.4722L4.4209 32.3374ZM32.2607 24.4888L14.9141 32.3374H25.166L42.5117 24.4302L32.2607 24.4888ZM14.6924 19.7319V32.3042L32.1865 24.3892L32.1279 11.9312L14.6924 19.7319ZM12.7549 19.6343H14.6172L32.0234 11.8452H30.1055L12.7549 19.6343Z" fill="black"/>
</svg>
