<svg width="29" height="29" viewBox="0 0 29 29" fill="none" xmlns="http://www.w3.org/2000/svg">
<path fill-rule="evenodd" clip-rule="evenodd" d="M24.7705 9.39544C24.7039 9.39124 24.6315 9.39127 24.5564 9.3913L24.5377 9.3913H21.5929C19.1656 9.3913 17.0887 11.3019 17.0887 13.7935C17.0887 16.285 19.1656 18.1957 21.5929 18.1957H24.5377L24.5564 18.1957C24.6315 18.1957 24.7039 18.1957 24.7705 18.1915C25.7564 18.1293 26.6283 17.3577 26.7016 16.2801C26.7064 16.2094 26.7064 16.1332 26.7063 16.0626L26.7063 16.0435V11.5435L26.7063 11.5243C26.7064 11.4537 26.7064 11.3775 26.7016 11.3069C26.6283 10.2292 25.7564 9.4577 24.7705 9.39544ZM21.3318 14.9674C21.9567 14.9674 22.4633 14.4418 22.4633 13.7935C22.4633 13.1451 21.9567 12.6196 21.3318 12.6196C20.7069 12.6196 20.2003 13.1451 20.2003 13.7935C20.2003 14.4418 20.7069 14.9674 21.3318 14.9674Z" fill="#B02E0C"/>
<path fill-rule="evenodd" clip-rule="evenodd" d="M24.5557 19.9565C24.7307 19.952 24.8631 20.1141 24.8157 20.2826C24.58 21.119 24.206 21.8318 23.6058 22.432C22.7273 23.3105 21.6133 23.7004 20.2369 23.8854C18.8996 24.0652 17.1908 24.0652 15.0334 24.0652H12.5532C10.3958 24.0652 8.68701 24.0652 7.34967 23.8854C5.97335 23.7004 4.85937 23.3105 3.98086 22.432C3.10234 21.5535 2.71247 20.4395 2.52742 19.0632C2.34762 17.7259 2.34764 16.0171 2.34766 13.8597V13.7272C2.34764 11.5699 2.34762 9.86108 2.52742 8.52375C2.71246 7.14742 3.10234 6.03344 3.98085 5.15493C4.85937 4.27641 5.97335 3.88654 7.34967 3.7015C8.68701 3.5217 10.3958 3.52171 12.5532 3.52173L15.0335 3.52173C17.1908 3.52171 18.8996 3.5217 20.2369 3.7015C21.6133 3.88654 22.7272 4.27641 23.6058 5.15493C24.206 5.75513 24.58 6.46795 24.8156 7.30429C24.8631 7.47283 24.7307 7.63497 24.5556 7.63043L21.5928 7.63043C18.2628 7.63043 15.3278 10.2611 15.3278 13.7935C15.3278 17.3259 18.2628 19.9565 21.5928 19.9565L24.5557 19.9565ZM6.74983 8.21738C6.26358 8.21738 5.8694 8.61157 5.8694 9.09782C5.8694 9.58407 6.26358 9.97825 6.74983 9.97825H11.4455C11.9317 9.97825 12.3259 9.58407 12.3259 9.09782C12.3259 8.61157 11.9317 8.21738 11.4455 8.21738H6.74983Z" fill="#B02E0C"/>
</svg>
