<svg width="36" height="36" viewBox="0 0 36 36" fill="none" xmlns="http://www.w3.org/2000/svg">
<path d="M33.705 13.905C33.705 13.275 33.3 12.69 32.715 12.465C30.24 11.565 27.765 11.205 25.335 11.34V32.715H33.705V13.905ZM24.705 3.465C24.705 2.835 24.3 2.25 23.715 2.025C16.92 -0.675 10.08 -0.675 3.285 2.025C2.7 2.25 2.295 2.835 2.295 3.465V32.76H24.705V3.465ZM11.385 4.95C10.89 5.4 10.62 6.075 10.62 6.75V30.15C10.62 30.33 10.485 30.465 10.305 30.465C10.125 30.465 9.99 30.33 9.99 30.15V28.17H5.625V30.15C5.625 30.33 5.49 30.465 5.31 30.465C5.13 30.465 4.995 30.33 4.995 30.15V6.75C4.995 5.895 5.355 5.085 5.94 4.5C6.075 4.365 6.255 4.41 6.39 4.5C6.525 4.635 6.48 4.815 6.39 4.95C5.895 5.4 5.625 6.075 5.625 6.75V7.515H9.99V6.75C9.99 5.895 10.35 5.085 10.935 4.5C11.07 4.365 11.25 4.41 11.385 4.5C11.475 4.635 11.475 4.86 11.385 4.95ZM17.19 22.095C15.615 22.095 14.355 20.835 14.355 19.26C14.355 17.685 17.19 13.005 17.19 13.005C17.19 13.005 20.025 17.73 20.025 19.26C20.025 20.835 18.72 22.095 17.19 22.095ZM34.02 33.345H0V36H36V33.345H34.02Z" fill="#B02E0C"/>
<path d="M5.625 8.09998H9.99V11.52H5.625V8.09998ZM5.625 12.15H9.99V15.57H5.625V12.15ZM5.625 16.155H9.99V19.575H5.625V16.155ZM5.625 20.16H9.99V23.58H5.625V20.16ZM5.625 24.165H9.99V27.585H5.625V24.165Z" fill="#B02E0C"/>
</svg>
