<svg width="36" height="36" viewBox="0 0 36 36" fill="none" xmlns="http://www.w3.org/2000/svg">
<g clip-path="url(#clip0_9029_73687)">
<path d="M15.631 31.0247C15.0256 29.5932 14.7185 28.0737 14.7185 26.5086C14.7185 24.9434 15.0256 23.4239 15.631 21.9924C16.2154 20.6107 17.0516 19.3704 18.1163 18.3056C19.1811 17.2409 20.4215 16.4047 21.8031 15.8204C22.7516 15.4189 23.2645 14.2946 22.7139 13.4241C22.676 13.3641 22.6377 13.3039 22.599 13.2436C20.1192 9.37544 14.2032 1.46338 13.9526 1.12851C13.5309 0.564823 12.6857 0.564667 12.2639 1.1283C12.0133 1.46324 6.0972 9.3753 3.61745 13.2434C1.30947 16.8436 0.1875 20.0379 0.1875 23.0089C0.1875 30.1334 5.98372 35.9296 13.1083 35.9296C14.8671 35.9296 16.5447 35.5756 18.0743 34.9362C18.1649 34.8983 18.1858 34.7808 18.1163 34.7113C17.0516 33.6467 16.2154 32.4063 15.631 31.0247ZM13.1082 30.0238C13.1082 30.6063 12.6335 31.0858 12.056 31.0096C8.14063 30.4929 5.10896 27.1334 5.10896 23.0792C5.10896 21.3249 5.81444 19.2392 7.20804 16.8687C7.50322 16.3666 8.15817 16.2247 8.64852 16.539C9.13886 16.8534 9.27884 17.5044 8.9848 18.0072C7.81188 20.0128 7.21818 21.7158 7.21818 23.0792C7.21818 25.9689 9.30988 28.3792 12.0587 28.8755C12.6319 28.979 13.1082 29.4414 13.1082 30.0238Z" fill="#B02E0C"/>
<path d="M26.3196 17.017C21.0777 17.017 16.8281 21.2665 16.8281 26.5085C16.8281 31.7505 21.0777 36 26.3196 36C31.5616 36 35.8112 31.7505 35.8112 26.5085C35.8112 21.2665 31.5616 17.017 26.3196 17.017ZM32.6518 28.3806L31.1603 29.8721L28.8513 27.5631H27.3742V29.0402L29.6832 31.3492L28.1918 32.8407L26.3196 30.9685L24.4475 32.8407L22.9561 31.3492L25.265 29.0402V27.5631H23.7879L21.4789 29.8721L19.9875 28.3806L21.8596 26.5085L19.9875 24.6364L21.4789 23.145L23.7879 25.4539H25.265V23.9768L22.956 21.6678L24.4474 20.1764L26.3196 22.0485L28.1918 20.1764L29.6832 21.6678L27.3743 23.9768V25.4539H28.8514L31.1604 23.1449L32.6518 24.6363L30.7797 26.5084L32.6518 28.3806Z" fill="#B02E0C"/>
</g>
<defs>
<clipPath id="clip0_9029_73687">
<rect width="36" height="36" fill="white"/>
</clipPath>
</defs>
</svg>
