<svg width="200" height="200" viewBox="0 0 200 200" fill="none" xmlns="http://www.w3.org/2000/svg">
<rect width="200" height="200" rx="67" fill="white"/>
<path d="M111.602 73.7146V96.2833C111.602 96.8714 112.078 97.3481 112.666 97.3481H130.879C137.959 97.8165 140.585 115.15 133.642 119.218C133.277 119.432 133.021 119.808 133.021 120.231V160.518C133.021 161.51 134.258 161.963 134.899 161.206L158.724 133.039C172.09 118.763 174.575 111.335 175.003 105.065V93.0068C175.003 83.36 167.292 69.3738 154.012 69.3738H115.029C112.287 69.3738 111.602 72.2677 111.602 73.7146Z" fill="#B02E0C" stroke="#B02E0C" stroke-width="0.463023"/>
<path d="M65.3316 117.094V77.152C65.3316 76.1544 64.0826 75.7046 63.4465 76.4731L30.2932 116.528C30.2332 116.6 30.1852 116.679 30.136 116.759L30.1327 116.764C29.3768 117.998 24.4001 123.365 25.0601 142.685C25.7455 162.749 36.1982 170.659 43.9092 170.659H83.9727C84.5607 170.659 85.0374 170.182 85.0374 169.594V160.148C85.0374 159.56 84.5607 159.083 83.9727 159.083H64.4719C48.3645 157.154 44.052 143.488 43.9092 136.897V128.315C43.9092 127.727 43.4325 127.25 42.8444 127.25H38.0913C37.2609 127.25 36.7501 126.342 37.1813 125.633L46.3896 110.48C46.8128 109.784 47.8295 109.802 48.2282 110.512L56.7282 125.665C57.1263 126.374 56.6133 127.25 55.7995 127.25H51.2888C50.7472 127.25 50.2894 127.666 50.24 128.205C48.6423 145.63 58.5961 152.348 65.3316 153.295H83.9727C84.5607 153.295 85.0374 152.819 85.0374 152.231V142.785C85.0374 142.197 84.5607 141.72 83.9727 141.72H65.6107C65.4277 141.72 65.246 141.673 65.0897 141.578C61.9044 139.637 61.9044 136.536 61.9044 134.967V124.357C62.2081 121.279 63.8796 118.985 64.9519 117.943C65.1832 117.718 65.3316 117.417 65.3316 117.094Z" fill="#B02E0C" stroke="#B02E0C" stroke-width="0.463023"/>
<path d="M71.3359 54.8034V27.5436C71.3359 26.5989 72.4749 26.1221 73.148 26.7851L84.7269 38.192C84.93 38.3922 85.0444 38.6654 85.0444 38.9506V54.8034C85.0444 55.3915 84.5677 55.8682 83.9796 55.8682H72.4007C71.8127 55.8682 71.3359 55.3915 71.3359 54.8034Z" fill="#060C12" stroke="#060C12" stroke-width="0.463023"/>
<path d="M91.0312 76.0251V45.7671C91.0312 44.8377 92.1385 44.3544 92.82 44.9863L105.256 56.5166C105.473 56.7181 105.596 57.001 105.596 57.2974V76.0251C105.596 76.6132 105.12 77.0899 104.532 77.0899H92.096C91.508 77.0899 91.0312 76.6132 91.0312 76.0251Z" fill="#060C12" stroke="#060C12" stroke-width="0.463023"/>
<path d="M71.3359 76.9895V62.7203C71.3359 62.1322 71.8127 61.6555 72.4007 61.6555H84.8364C85.4245 61.6555 85.9012 62.1322 85.9012 62.7203V76.9895C85.9012 77.5775 85.4245 78.0543 84.8364 78.0543H72.4007C71.8127 78.0543 71.3359 77.5775 71.3359 76.9895Z" fill="#060C12" stroke="#060C12" stroke-width="0.463023"/>
<path d="M71.3359 97.7295V83.4603C71.3359 82.8722 71.8127 82.3955 72.4007 82.3955H84.8364C85.4245 82.3955 85.9012 82.8722 85.9012 83.4603V97.7295C85.9012 98.3175 85.4245 98.7942 84.8364 98.7942H72.4007C71.8127 98.7942 71.3359 98.3175 71.3359 97.7295Z" fill="#060C12" stroke="#060C12" stroke-width="0.463023"/>
<path d="M91.4531 109.305V82.2881C91.4531 81.8149 91.8367 81.4313 92.3099 81.4313C99.8809 81.4313 106.018 87.5687 106.018 95.1397V109.305C106.018 109.894 105.542 110.37 104.954 110.37H92.5179C91.9298 110.37 91.4531 109.894 91.4531 109.305Z" fill="#060C12" stroke="#060C12" stroke-width="0.463023"/>
<path d="M91.4531 129.562V115.293C91.4531 114.705 91.9298 114.228 92.5179 114.228H104.954C105.542 114.228 106.018 114.705 106.018 115.293V129.562C106.018 130.15 105.542 130.627 104.954 130.627H92.5179C91.9298 130.627 91.4531 130.15 91.4531 129.562Z" fill="#060C12" stroke="#060C12" stroke-width="0.463023"/>
<path d="M91.4531 151.748V142.302C91.4531 141.714 91.9298 141.238 92.5179 141.238H104.954C105.542 141.238 106.018 141.714 106.018 142.302V151.748C106.018 152.337 105.542 152.813 104.954 152.813H92.5179C91.9298 152.813 91.4531 152.337 91.4531 151.748Z" fill="#060C12" stroke="#060C12" stroke-width="0.463023"/>
<path d="M91.4531 173.935V158.701C91.4531 158.113 91.9298 157.637 92.5179 157.637H104.954C105.542 157.637 106.018 158.113 106.018 158.701V173.935C106.018 174.523 105.542 175 104.954 175H92.5179C91.9298 175 91.4531 174.523 91.4531 173.935Z" fill="#060C12" stroke="#060C12" stroke-width="0.463023"/>
<path d="M111.164 173.935V156.772C111.164 156.184 111.641 155.707 112.229 155.707H124.665C125.253 155.707 125.729 156.184 125.729 156.772V173.935C125.729 174.523 125.253 175 124.665 175H112.229C111.641 175 111.164 174.523 111.164 173.935Z" fill="#060C12" stroke="#060C12" stroke-width="0.463023"/>
<path d="M111.164 151.749V110.47C111.164 109.882 111.641 109.405 112.229 109.405H124.665C125.253 109.405 125.729 109.882 125.729 110.47V151.749C125.729 152.337 125.253 152.814 124.665 152.814H112.229C111.641 152.814 111.164 152.337 111.164 151.749Z" fill="#060C12" stroke="#060C12" stroke-width="0.463023"/>
<path d="M71.3359 129.562V104.682C71.3359 104.094 71.8127 103.618 72.4007 103.618H84.8364C85.4245 103.618 85.9012 104.094 85.9012 104.682V129.562C85.9012 130.151 85.4245 130.627 84.8364 130.627H72.4007C71.8127 130.627 71.3359 130.151 71.3359 129.562Z" fill="#060C12" stroke="#060C12" stroke-width="0.463023"/>
</svg>
